<svg width="177" height="71" viewBox="0 0 177 71" fill="none" xmlns="http://www.w3.org/2000/svg">
<path d="M96.2947 63.1312L86.2255 42.1436L85.0124 42.3862L75.0645 63.1312H79.0376L85.6796 48.7856L92.2913 63.1312H96.2947Z" fill="white"/>
<path d="M149.643 53.6383V42.5378H145.973V53.6383C145.943 55.7006 145.397 57.3081 144.305 58.3999C143.244 59.5221 141.849 60.068 140.15 60.068C138.452 60.068 137.057 59.4917 135.965 58.3999C134.903 57.2777 134.327 55.7006 134.297 53.6383V42.5378H130.657V53.6383C130.688 55.7006 131.112 57.4597 131.961 58.9458C132.811 60.4319 133.933 61.5541 135.358 62.373C136.784 63.1616 138.391 63.5862 140.15 63.5862C141.909 63.5862 143.517 63.1616 144.942 62.373C146.368 61.5845 147.49 60.4319 148.339 58.9458C149.219 57.4597 149.643 55.6703 149.643 53.6383Z" fill="white"/>
<path fill-rule="evenodd" clip-rule="evenodd" d="M122.408 52.8497C122.377 50.848 121.892 49.0586 120.922 47.4511C119.951 45.8437 118.647 44.5699 117.009 43.5993C115.371 42.6591 113.582 42.1739 111.58 42.1436C109.579 42.1739 107.759 42.6591 106.151 43.5993C104.514 44.5395 103.24 45.8437 102.269 47.4511C101.299 49.0586 100.814 50.8783 100.783 52.8497C100.814 54.8514 101.299 56.6408 102.269 58.2483C103.24 59.8557 104.514 61.1295 106.151 62.1C107.789 63.0402 109.579 63.5558 111.58 63.5558C113.582 63.5255 115.371 63.0402 117.009 62.1C118.647 61.1598 119.951 59.8557 120.922 58.2483C121.892 56.6408 122.408 54.8211 122.408 52.8497ZM118.738 52.8497C118.738 54.1842 118.404 55.4277 117.767 56.5195C117.131 57.6113 116.281 58.4606 115.22 59.1278C114.158 59.7647 112.945 60.0983 111.58 60.1286C110.246 60.0983 109.033 59.795 107.941 59.1278C106.879 58.4909 106 57.6113 105.393 56.5195C104.756 55.4277 104.453 54.2145 104.423 52.8497C104.423 51.5152 104.756 50.2717 105.393 49.1799C106.03 48.088 106.879 47.2388 107.941 46.5716C109.002 45.9347 110.216 45.6011 111.58 45.5707C112.915 45.6011 114.128 45.9044 115.22 46.5716C116.312 47.2388 117.161 48.088 117.767 49.1799C118.404 50.2717 118.738 51.4849 118.738 52.8497Z" fill="white"/>
<path d="M177 63.1312L166.931 42.1436L165.717 42.3862L155.77 63.1312H159.743L166.415 48.7856L172.996 63.1312H177Z" fill="white"/>
<path d="M112.764 68.1052C112.764 68.1052 115.948 65.8002 119.618 68.1052C123.288 70.4102 126.472 68.1052 126.472 68.1052V64.6174C126.472 64.6174 123.288 66.9224 119.618 64.6174C115.948 62.3124 112.764 64.6174 112.764 64.6174V68.1052Z" fill="white"/>
<path d="M91.1391 25.675H89.4103L85.1643 34.8646L80.9485 25.675H79.1895L85.0126 37.8369L85.3462 37.7459L91.1391 25.675Z" fill="white"/>
<path d="M117.282 37.8976V25.675H115.735V34.5917L107.122 25.3717L106.758 25.4324V37.6549H108.335V28.7382L116.948 37.9582L117.282 37.8976Z" fill="white"/>
<path d="M132.083 27.1611V25.675H120.527V27.1611H125.501V37.8975H127.109V27.1611H132.083Z" fill="white"/>
<path d="M137.391 37.6549V25.675H135.783V37.6549H137.391Z" fill="white"/>
<path d="M149.704 37.6549V36.1688H142.334V25.675H140.727V37.6549H149.704Z" fill="white"/>
<path d="M103.301 32.408H95.8094V36.1688H103.301V37.6549H95.8094H94.3232V36.1688V32.408V30.9219V27.1914V25.675H95.8094H103.301V27.1914H95.8094V30.9219H103.301V32.408Z" fill="white"/>
<path d="M87.5298 21.3682C87.5298 14.8475 85.0731 8.75138 80.7967 3.47414C71.0914 -0.650604 58.5656 -1.28751 45.979 2.56427C29.6924 7.56855 17.6518 18.76 13.709 30.9825C19.5928 22.824 29.1768 15.9394 40.9748 12.2999C59.5968 6.59803 78.1278 10.7531 87.5298 21.4896V21.3682Z" fill="white"/>
<path d="M0.424606 52.2128C0.151645 53.2743 0 54.3662 0 55.458C0 58.8548 1.3648 62.1 3.85178 65.0723C13.7997 70.4405 27.4477 71.7143 41.1261 67.5289C55.4111 63.1616 66.3295 53.8809 71.3035 43.2657C63.2056 54.3965 46.1304 61.3418 26.8715 60.0073C16.8932 59.3401 7.76422 56.4892 0.424606 52.2128Z" fill="white"/>
<path d="M63.7519 28.2226C60.446 25.7963 56.4123 24.0372 51.9236 23.2184C56.1696 26.8882 58.8083 31.8318 58.8083 37.291C58.8083 45.2372 53.2581 52.1522 45.1299 55.5187C56.6549 53.7293 65.3593 45.4495 65.3593 35.4713C65.3593 32.9236 64.7831 30.467 63.7519 28.2226Z" fill="white"/>
<path d="M51.7415 14.7262C50.8013 14.6959 49.8611 14.7262 48.9209 14.7565C37.5779 15.3631 27.8726 20.8223 22.7773 28.5259C28.1759 23.7946 35.6672 20.6707 44.0986 20.2461C49.1029 19.9731 53.8949 20.701 58.1713 22.1871C55.5023 20.0641 53.3186 17.5468 51.7415 14.7262Z" fill="white"/>
<path d="M18.3789 40.9608C21.6544 46.329 27.7809 50.3324 35.1812 51.2423C41.5199 52.0309 47.5251 50.3628 51.9228 47.0872C48.5562 48.3004 44.7348 48.7553 40.792 48.2701C30.9958 47.0569 23.4438 40.4452 21.7758 32.4383C21.3815 34.5007 20.6839 36.5934 19.7134 38.5951C19.2584 39.4443 18.8338 40.2329 18.3789 40.9608Z" fill="white"/>
<path d="M47.7377 25.9176C46.1606 25.493 44.4318 25.3413 42.6424 25.493C36.1823 26.0692 31.2994 30.5579 31.724 35.5016C32.1486 40.4755 37.7594 44.0543 44.1892 43.4781C44.8867 43.4174 45.5843 43.2961 46.2516 43.1445C41.2473 42.6895 37.2438 39.596 36.9102 35.5016C36.4856 30.7399 41.126 26.4635 47.2524 25.9176H47.7377Z" fill="white"/>
</svg>
