<svg width="90" height="65" viewBox="0 0 90 65" fill="none" xmlns="http://www.w3.org/2000/svg">
<rect width="90" height="65" fill="black" fill-opacity="0"/>
<path d="M62.7273 13.6364C70.8004 13.6364 77.5926 19.5106 78.9271 27.3307C85.1421 27.9337 90 33.1722 90 39.5455C90 46.3235 84.5053 51.8182 77.7273 51.8182H69.5455C68.7923 51.8182 68.1818 51.2077 68.1818 50.4545C68.1818 49.7014 68.7923 49.0909 69.5455 49.0909H77.7273C82.9991 49.0909 87.2727 44.8173 87.2727 39.5455C87.2727 34.2736 82.9991 30 77.7273 30C77.0257 30 76.4386 29.4677 76.3701 28.7695C75.6827 21.7619 69.79 16.3636 62.7273 16.3636C61.4539 16.3636 60.2052 16.5378 59.0051 16.8775C58.3215 17.071 57.6039 16.7072 57.3559 16.0415C54.3979 8.10174 46.7962 2.72727 38.1818 2.72727C28.7897 2.72727 20.6703 9.11157 18.3683 18.0802C18.2186 18.6631 17.7045 19.0791 17.1031 19.1036C9.08559 19.4313 2.72727 26.0389 2.72727 34.0909C2.72727 42.3752 9.443 49.0909 17.7273 49.0909H20.4545C21.2077 49.0909 21.8182 49.7014 21.8182 50.4545C21.8182 51.2077 21.2077 51.8182 20.4545 51.8182H17.7273C7.93677 51.8182 0 43.8814 0 34.0909C0 24.9112 6.99176 17.3206 15.9935 16.4474C18.9192 6.7847 27.8734 0 38.1818 0C47.5314 0 55.8282 5.58627 59.4582 13.9632C60.526 13.7466 61.6197 13.6364 62.7273 13.6364Z" fill="url(#paint0_linear)"/>
<rect width="45" height="45" fill="black" fill-opacity="0" transform="translate(68 20) scale(-1 1)"/>
<path d="M54.1252 54.2106L52.8317 52.9173L55.9061 49.8435L57.1996 51.1368C57.4034 51.0394 57.6161 50.9508 57.8376 50.8711V49.0374H62.1967V50.8711C62.4093 50.9508 62.622 51.0305 62.8346 51.1368L64.1282 49.8435L67.2115 52.9173L65.9179 54.2106C66.0154 54.4144 66.104 54.627 66.1837 54.8484H68V59.1978H66.166C66.0862 59.4104 65.9976 59.623 65.9002 59.8356L67.1937 61.1289L64.1193 64.2028L62.8258 62.9095C62.622 63.0069 62.4093 63.0955 62.1878 63.1752V65H57.8376V63.1664C57.6249 63.0866 57.4123 62.998 57.1996 62.9006L55.9061 64.1939L52.8317 61.1112L54.1252 59.8179C54.0278 59.6142 53.9392 59.4016 53.8594 59.1801H52.0254V54.8307H53.8594C53.9392 54.627 54.0278 54.4144 54.1252 54.2106ZM53.4873 57.7451H54.9669L55.1087 58.2854C55.2239 58.7461 55.4099 59.1801 55.6491 59.5876L55.9327 60.0748L54.8872 61.1201L55.9149 62.1477L56.9604 61.1024L57.4477 61.3858C57.8553 61.625 58.2894 61.811 58.7501 61.9262L59.2906 62.0679V63.5473H60.7437V62.0679L61.2841 61.9262C61.7448 61.811 62.1878 61.625 62.5865 61.3858L63.0738 61.1024L64.1193 62.1477L65.1471 61.1201L64.1016 60.0748L64.3851 59.5876C64.6243 59.1801 64.8104 58.7461 64.9256 58.2854L65.0673 57.7451H66.547V56.2923H65.0673L64.9256 55.752C64.8104 55.2914 64.6243 54.8484 64.3851 54.4498L64.1016 53.9626L65.1471 52.9173L64.1193 51.8898L63.0738 52.9351L62.5865 52.6516C62.179 52.4124 61.7448 52.2264 61.2841 52.1112L60.7437 51.9695V50.4902H59.2906V51.9695L58.7413 52.1112C58.2806 52.2264 57.8464 52.4124 57.4389 52.6516L56.9516 52.9351L55.9061 51.8898L54.8783 52.9173L55.9238 53.9626L55.6403 54.4498C55.4011 54.8573 55.215 55.3002 55.0998 55.752L54.9581 56.3012H53.4784V57.7451H53.4873Z" fill="url(#paint1_linear)"/>
<path d="M60.0171 53.3956C62.0195 53.3956 63.6497 55.0256 63.6497 57.0275C63.6497 59.0295 62.0195 60.6594 60.0171 60.6594C58.0148 60.6594 56.3845 59.0295 56.3845 57.0275C56.3845 55.0256 58.0148 53.3956 60.0171 53.3956ZM60.0171 59.1978C61.2132 59.1978 62.1967 58.2234 62.1967 57.0187C62.1967 55.8228 61.2221 54.8395 60.0171 54.8395C58.8122 54.8395 57.8376 55.8139 57.8376 57.0187C57.8376 58.2234 58.821 59.1978 60.0171 59.1978Z" fill="url(#paint2_linear)"/>
<path d="M23.0089 27.2549V20H30.2652V22.9055H41.9516C42.2882 21.249 43.7501 20 45.5044 20C47.5068 20 49.137 21.6299 49.137 23.6319C49.137 25.3858 47.8878 26.8474 46.231 27.1841V30.1604H60.0171V35.9626H63.6497V27.2549H60.7436V20H68V27.2549H65.0939V37.4154H60.0171V43.2175H46.231V45.3967H60.7436V49.0285H59.2906V46.8494H28.8122V48.3553C30.974 48.6654 32.7726 50.4104 33.1004 52.563C33.2953 53.8297 33.0207 55.1053 32.3296 56.1506C31.417 57.5413 31.0626 58.5157 31.0006 59.8976H32.4359V64.9734H23.7265V59.8976H25.1707C25.1264 58.374 24.6037 57.4616 23.6999 55.938C23.2392 55.1585 23 54.2726 23 53.3602C23 51.9075 23.6202 50.5256 24.7011 49.56C25.4454 48.8957 26.3757 48.4793 27.3503 48.3376V45.3701H44.7779V43.1909H30.9917V30.1604H44.7779V27.1841C43.3603 26.8917 42.2351 25.7756 41.9516 24.3583H30.2652V27.2638H23.0089V27.2549ZM66.547 21.4528H62.1967V25.8022H66.547V21.4528ZM25.1884 63.5295H30.9917V61.3504H25.1884V63.5295ZM24.4619 53.378C24.4619 54.0246 24.6391 54.6624 24.9935 55.2736C25.9149 56.8415 26.5972 57.9843 26.6326 59.9065H27.3591V54.8307H25.9061V53.378H30.2652V54.8307H28.8122V59.9065H29.5475C29.6096 58.2323 30.0526 56.9921 31.1246 55.3622C31.6208 54.6093 31.8157 53.6969 31.674 52.7933C31.4347 51.2343 30.1146 49.9587 28.5375 49.7815C27.4832 49.6575 26.4731 49.9764 25.6846 50.6673C24.9049 51.3494 24.4619 52.3415 24.4619 53.378ZM32.4448 41.7648H58.5641V31.6043H32.4359V41.7648H32.4448ZM45.5044 25.8022C46.7005 25.8022 47.684 24.8278 47.684 23.623C47.684 22.4272 46.7094 21.4439 45.5044 21.4439C44.2995 21.4439 43.3249 22.4183 43.3249 23.623C43.3249 24.8278 44.3083 25.8022 45.5044 25.8022ZM28.8122 21.4528H24.4619V25.8022H28.8122V21.4528Z" fill="url(#paint3_linear)"/>
<path d="M47.684 35.9626H49.137V37.4153H47.684V35.9626Z" fill="url(#paint4_linear)"/>
<path d="M44.7779 35.9626H46.231V37.4153H44.7779V35.9626Z" fill="url(#paint5_linear)"/>
<path d="M41.8718 35.9626H43.3249V37.4153H41.8718V35.9626Z" fill="url(#paint6_linear)"/>
<defs>
<linearGradient id="paint0_linear" x1="0" y1="0" x2="0.621212" y2="52.8684" gradientUnits="userSpaceOnUse">
<stop stop-color="#F41E3D"/>
<stop offset="1" stop-color="#D5122E"/>
</linearGradient>
<linearGradient id="paint1_linear" x1="68" y1="49.0374" x2="67.668" y2="65.319" gradientUnits="userSpaceOnUse">
<stop stop-color="#F41E3D"/>
<stop offset="1" stop-color="#D5122E"/>
</linearGradient>
<linearGradient id="paint2_linear" x1="63.6497" y1="53.3956" x2="63.4986" y2="60.8046" gradientUnits="userSpaceOnUse">
<stop stop-color="#F41E3D"/>
<stop offset="1" stop-color="#D5122E"/>
</linearGradient>
<linearGradient id="paint3_linear" x1="68" y1="20" x2="67.0644" y2="65.8722" gradientUnits="userSpaceOnUse">
<stop stop-color="#F41E3D"/>
<stop offset="1" stop-color="#D5122E"/>
</linearGradient>
<linearGradient id="paint4_linear" x1="49.137" y1="35.9626" x2="49.1068" y2="37.4444" gradientUnits="userSpaceOnUse">
<stop stop-color="#F41E3D"/>
<stop offset="1" stop-color="#D5122E"/>
</linearGradient>
<linearGradient id="paint5_linear" x1="46.231" y1="35.9626" x2="46.2007" y2="37.4444" gradientUnits="userSpaceOnUse">
<stop stop-color="#F41E3D"/>
<stop offset="1" stop-color="#D5122E"/>
</linearGradient>
<linearGradient id="paint6_linear" x1="43.3249" y1="35.9626" x2="43.2946" y2="37.4444" gradientUnits="userSpaceOnUse">
<stop stop-color="#F41E3D"/>
<stop offset="1" stop-color="#D5122E"/>
</linearGradient>
</defs>
</svg>
