<svg width="90" height="69" viewBox="0 0 90 69" fill="none" xmlns="http://www.w3.org/2000/svg">
<rect width="90" height="69" fill="black" fill-opacity="0"/>
<path d="M62.7273 13.6364C70.8004 13.6364 77.5926 19.5106 78.9271 27.3307C85.1421 27.9337 90 33.1722 90 39.5455C90 46.3235 84.5053 51.8182 77.7273 51.8182H69.5455C68.7923 51.8182 68.1818 51.2077 68.1818 50.4545C68.1818 49.7014 68.7923 49.0909 69.5455 49.0909H77.7273C82.9991 49.0909 87.2727 44.8173 87.2727 39.5455C87.2727 34.2736 82.9991 30 77.7273 30C77.0257 30 76.4386 29.4677 76.3701 28.7695C75.6827 21.7619 69.79 16.3636 62.7273 16.3636C61.4539 16.3636 60.2052 16.5378 59.0051 16.8775C58.3215 17.071 57.6039 16.7072 57.3559 16.0415C54.3979 8.10174 46.7962 2.72727 38.1818 2.72727C28.7897 2.72727 20.6703 9.11157 18.3683 18.0802C18.2186 18.6631 17.7045 19.0791 17.1031 19.1036C9.08559 19.4313 2.72727 26.0389 2.72727 34.0909C2.72727 42.3752 9.443 49.0909 17.7273 49.0909H20.4545C21.2077 49.0909 21.8182 49.7014 21.8182 50.4545C21.8182 51.2077 21.2077 51.8182 20.4545 51.8182H17.7273C7.93677 51.8182 0 43.8814 0 34.0909C0 24.9112 6.99176 17.3206 15.9935 16.4474C18.9192 6.7847 27.8734 0 38.1818 0C47.5314 0 55.8282 5.58627 59.4582 13.9632C60.526 13.7466 61.6197 13.6364 62.7273 13.6364Z" fill="url(#paint0_linear)"/>
<rect width="40" height="40" fill="black" fill-opacity="0" transform="translate(25 29)"/>
<rect width="40" height="40" fill="black" fill-opacity="0" transform="translate(25 29)"/>
<path d="M63.2424 29H26.7576C25.7879 29 25 29.7879 25 30.7576V51.8485C25 52.8182 25.7879 53.6061 26.7576 53.6061H36.7576L29.8485 67.7879H28.7576C28.3939 67.7879 28.1515 68.0303 28.1515 68.3939C28.1515 68.7576 28.3939 69 28.7576 69H32.1515C32.5152 69 32.7576 68.7576 32.7576 68.3939C32.7576 68.0303 32.5152 67.7879 32.1515 67.7879H31.2424L38.1515 53.6667H44.3333V64.9394H43.1818C42.8182 64.9394 42.5758 65.1818 42.5758 65.5455C42.5758 65.9091 42.8182 66.1515 43.1818 66.1515H46.5758C46.9394 66.1515 47.1818 65.9091 47.1818 65.5455C47.1818 65.1818 46.9394 64.9394 46.5758 64.9394H45.4848V53.6667H51.8485L58.7576 67.7879H57.7879C57.4242 67.7879 57.1818 68.0303 57.1818 68.3939C57.1818 68.7576 57.4242 69 57.7879 69H59.7273H61.1818C61.5455 69 61.7879 68.7576 61.7879 68.3939C61.7879 68.0303 61.5455 67.7879 61.1818 67.7879H60.1515L53.2424 53.6667H63.2424C64.2121 53.6667 65 52.8788 65 51.9091V30.7576C65 29.7879 64.2121 29 63.2424 29ZM63.7879 51.9091C63.7879 52.2121 63.5455 52.4545 63.2424 52.4545C57.6667 52.4545 30.5152 52.4545 26.8182 52.4545C26.5152 52.4545 26.2727 52.2121 26.2727 51.9091V30.7576C26.2121 30.4545 26.4545 30.2121 26.7576 30.2121H63.1818C63.5455 30.2121 63.7879 30.4545 63.7879 30.7576V51.9091Z" fill="url(#paint1_linear)"/>
<rect width="34.1212" height="14.9697" fill="black" fill-opacity="0" transform="translate(28.9394 36.697)"/>
<path d="M60.7576 36.697C59.6061 36.697 58.6364 37.6061 58.5152 38.697L53.3636 38.8182C53 38.0303 52.2121 37.5454 51.3636 37.5454C50.0909 37.5454 49.1212 38.5757 49.1212 39.7879C49.1212 40.2727 49.303 40.7576 49.5455 41.1212L46.9394 44.4545C46.697 44.3333 46.3939 44.2727 46.0909 44.2727C45.303 44.2727 44.5758 44.697 44.1515 45.3636L39.9091 44.2121C39.9091 43 38.8788 41.9697 37.6667 41.9697C36.3939 41.9697 35.4242 43 35.4242 44.2121C35.4242 44.5151 35.4848 44.8182 35.6061 45.1212L32.4545 47.6061C32.0909 47.303 31.6667 47.1818 31.1818 47.1818C29.9091 47.1818 28.9394 48.2121 28.9394 49.4242C28.9394 50.697 29.9697 51.6667 31.1818 51.6667C32.3939 51.6667 33.4242 50.6364 33.4242 49.4242C33.4242 49.1212 33.3636 48.8182 33.2424 48.5151L36.3939 46.0303C36.7576 46.2727 37.2424 46.4545 37.7273 46.4545C38.5152 46.4545 39.2424 46.0303 39.6667 45.3636L43.9091 46.5151C43.9091 47.7273 44.9394 48.7576 46.1515 48.7576C47.3636 48.7576 48.3939 47.7273 48.3939 46.5151C48.3939 46.0303 48.2121 45.5454 47.9697 45.1818L50.5758 41.8485C50.8182 41.9697 51.1212 42.0303 51.4242 42.0303C52.5758 42.0303 53.5455 41.1212 53.6667 40.0303L58.8182 39.9091C59.1818 40.697 59.9697 41.1818 60.8182 41.1818C62.0909 41.1818 63.0606 40.1515 63.0606 38.9394C63.0606 37.7273 62.0303 36.697 60.7576 36.697ZM31.1818 50.4545C30.6364 50.4545 30.1515 49.9697 30.1515 49.4242C30.1515 48.8788 30.6364 48.3939 31.1818 48.3939C31.7273 48.3939 32.2121 48.8788 32.2121 49.4242C32.2121 49.9697 31.7273 50.4545 31.1818 50.4545ZM37.6667 45.2424C37.1212 45.2424 36.6364 44.7576 36.6364 44.2121C36.6364 43.6667 37.1212 43.1818 37.6667 43.1818C38.2121 43.1818 38.697 43.6667 38.697 44.2121C38.7576 44.7576 38.2727 45.2424 37.6667 45.2424ZM46.0909 47.5454C45.5455 47.5454 45.0606 47.0606 45.0606 46.5151C45.0606 45.9697 45.5455 45.4848 46.0909 45.4848C46.6364 45.4848 47.1212 45.9697 47.1212 46.5151C47.1818 47.1212 46.697 47.5454 46.0909 47.5454ZM51.3636 40.8182C50.8182 40.8182 50.3333 40.3333 50.3333 39.7879C50.3333 39.2424 50.8182 38.7576 51.3636 38.7576C51.9091 38.7576 52.3939 39.2424 52.3939 39.7879C52.3939 40.3333 51.9091 40.8182 51.3636 40.8182ZM60.7576 39.9697C60.2121 39.9697 59.7273 39.4848 59.7273 38.9394C59.7273 38.3939 60.2121 37.9091 60.7576 37.9091C61.303 37.9091 61.7879 38.3939 61.7879 38.9394C61.7879 39.4848 61.303 39.9697 60.7576 39.9697Z" fill="url(#paint2_linear)"/>
<rect width="29.5603" height="12.6512" fill="black" fill-opacity="0" transform="translate(28.2882 31.3636)"/>
<path d="M35.5455 38.8788L43.6667 41.1212C43.9091 41.1818 44.1515 41.1212 44.3333 40.8788L49.3636 34.3939H55.7879L55 35.1818C54.7576 35.4242 54.7576 35.7879 55 36.0303C55.2424 36.2727 55.6061 36.2727 55.8485 36.0303L57.6667 34.2121C57.7879 34.0909 57.8485 33.9697 57.8485 33.7879C57.8485 33.6061 57.7879 33.4848 57.6667 33.3636L55.8485 31.5455C55.6061 31.303 55.2424 31.303 55 31.5455C54.7576 31.7879 54.7576 32.1515 55 32.3939L55.7879 33.1818H49.0606C48.8788 33.1818 48.697 33.2424 48.5758 33.4242L43.6061 39.8485L35.5455 37.6667C35.3636 37.6061 35.1818 37.6667 35 37.7879L28.5152 42.9394C28.2727 43.1212 28.2121 43.5455 28.3939 43.7879C28.5758 44.0303 29 44.0909 29.2424 43.9091L35.5455 38.8788Z" fill="url(#paint3_linear)"/>
<defs>
<linearGradient id="paint0_linear" x1="0" y1="0" x2="0.621212" y2="52.8684" gradientUnits="userSpaceOnUse">
<stop stop-color="#F41E3D"/>
<stop offset="1" stop-color="#D5122E"/>
</linearGradient>
<linearGradient id="paint1_linear" x1="25" y1="29" x2="25.8326" y2="69.7993" gradientUnits="userSpaceOnUse">
<stop stop-color="#F41E3D"/>
<stop offset="1" stop-color="#D5122E"/>
</linearGradient>
<linearGradient id="paint2_linear" x1="28.9394" y1="36.697" x2="29.0761" y2="51.9709" gradientUnits="userSpaceOnUse">
<stop stop-color="#F41E3D"/>
<stop offset="1" stop-color="#D5122E"/>
</linearGradient>
<linearGradient id="paint3_linear" x1="28.2882" y1="31.3636" x2="28.401" y2="44.272" gradientUnits="userSpaceOnUse">
<stop stop-color="#F41E3D"/>
<stop offset="1" stop-color="#D5122E"/>
</linearGradient>
</defs>
</svg>
