<svg width="90" height="69" viewBox="0 0 90 69" fill="none" xmlns="http://www.w3.org/2000/svg">
<rect width="90" height="69" fill="black" fill-opacity="0"/>
<path d="M62.7273 13.6364C70.8004 13.6364 77.5926 19.5106 78.9271 27.3307C85.1421 27.9337 90 33.1722 90 39.5455C90 46.3235 84.5053 51.8182 77.7273 51.8182H69.5455C68.7923 51.8182 68.1818 51.2077 68.1818 50.4545C68.1818 49.7014 68.7923 49.0909 69.5455 49.0909H77.7273C82.9991 49.0909 87.2727 44.8173 87.2727 39.5455C87.2727 34.2736 82.9991 30 77.7273 30C77.0257 30 76.4386 29.4677 76.3701 28.7695C75.6827 21.7619 69.79 16.3636 62.7273 16.3636C61.4539 16.3636 60.2052 16.5378 59.0051 16.8775C58.3215 17.071 57.6039 16.7072 57.3559 16.0415C54.3979 8.10174 46.7962 2.72727 38.1818 2.72727C28.7897 2.72727 20.6703 9.11157 18.3683 18.0802C18.2186 18.6631 17.7045 19.0791 17.1031 19.1036C9.08559 19.4313 2.72727 26.0389 2.72727 34.0909C2.72727 42.3752 9.443 49.0909 17.7273 49.0909H20.4545C21.2077 49.0909 21.8182 49.7014 21.8182 50.4545C21.8182 51.2077 21.2077 51.8182 20.4545 51.8182H17.7273C7.93677 51.8182 0 43.8814 0 34.0909C0 24.9112 6.99176 17.3206 15.9935 16.4474C18.9192 6.7847 27.8734 0 38.1818 0C47.5314 0 55.8282 5.58627 59.4582 13.9632C60.526 13.7466 61.6197 13.6364 62.7273 13.6364Z" fill="url(#paint0_linear)"/>
<rect width="39" height="39" fill="black" fill-opacity="0" transform="translate(26 30)"/>
<path d="M60.9375 64.125H30.0625C28.9855 64.1237 27.9529 63.6953 27.1913 62.9337C26.4297 62.1721 26.0013 61.1395 26 60.0625V40.5625C26.0013 39.4855 26.4297 38.4529 27.1913 37.6913C27.9529 36.9297 28.9855 36.5013 30.0625 36.5H43.875V38.125H30.0625C29.416 38.125 28.796 38.3818 28.3389 38.8389C27.8818 39.296 27.625 39.916 27.625 40.5625V60.0625C27.625 60.709 27.8818 61.3289 28.3389 61.7861C28.796 62.2432 29.416 62.5 30.0625 62.5H60.9375C61.584 62.5 62.204 62.2432 62.6611 61.7861C63.1182 61.3289 63.375 60.709 63.375 60.0625V47.875H65V60.0625C64.9987 61.1395 64.5703 62.1721 63.8087 62.9337C63.0471 63.6953 62.0145 64.1237 60.9375 64.125V64.125Z" fill="url(#paint1_linear)"/>
<path d="M53.625 67.375H37.375V69H53.625V67.375Z" fill="url(#paint2_linear)"/>
<path d="M41.4375 63.3125H39.8125V68.1875H41.4375V63.3125Z" fill="url(#paint3_linear)"/>
<path d="M51.1875 63.3125H49.5625V68.1875H51.1875V63.3125Z" fill="url(#paint4_linear)"/>
<path d="M55.25 49.5C53.3216 49.5 51.4366 48.9282 49.8332 47.8568C48.2298 46.7855 46.9801 45.2627 46.2422 43.4812C45.5042 41.6996 45.3111 39.7392 45.6873 37.8479C46.0636 35.9566 46.9922 34.2193 48.3557 32.8557C49.7193 31.4922 51.4566 30.5636 53.3479 30.1873C55.2392 29.8111 57.1996 30.0042 58.9812 30.7422C60.7627 31.4801 62.2855 32.7298 63.3568 34.3332C64.4282 35.9366 65 37.8216 65 39.75C64.9972 42.335 63.9691 44.8133 62.1412 46.6412C60.3133 48.4691 57.835 49.4972 55.25 49.5V49.5ZM55.25 31.625C53.643 31.625 52.0721 32.1015 50.736 32.9943C49.3998 33.8871 48.3584 35.1561 47.7435 36.6407C47.1285 38.1254 46.9676 39.759 47.2811 41.3351C47.5946 42.9112 48.3685 44.3589 49.5048 45.4952C50.6411 46.6315 52.0888 47.4054 53.6649 47.7189C55.241 48.0324 56.8747 47.8715 58.3593 47.2565C59.844 46.6416 61.1129 45.6002 62.0057 44.264C62.8985 42.9279 63.375 41.357 63.375 39.75C63.3726 37.5958 62.5159 35.5306 60.9926 34.0074C59.4694 32.4842 57.4042 31.6274 55.25 31.625V31.625Z" fill="url(#paint5_linear)"/>
<path d="M56.0625 40.5625H54.4375C53.791 40.5625 53.171 40.3057 52.7139 39.8486C52.2568 39.3915 52 38.7715 52 38.125C52 37.4785 52.2568 36.8585 52.7139 36.4014C53.171 35.9443 53.791 35.6875 54.4375 35.6875H56.0625C56.709 35.6875 57.329 35.9443 57.7861 36.4014C58.2432 36.8585 58.5 37.4785 58.5 38.125H56.875C56.875 37.9095 56.7894 37.7028 56.637 37.5505C56.4847 37.3981 56.278 37.3125 56.0625 37.3125H54.4375C54.222 37.3125 54.0153 37.3981 53.863 37.5505C53.7106 37.7028 53.625 37.9095 53.625 38.125C53.625 38.3405 53.7106 38.5472 53.863 38.6995C54.0153 38.8519 54.222 38.9375 54.4375 38.9375H56.0625V40.5625Z" fill="url(#paint6_linear)"/>
<path d="M56.0625 43.8125H54.4375C53.791 43.8125 53.171 43.5557 52.7139 43.0986C52.2568 42.6415 52 42.0215 52 41.375H53.625C53.625 41.5905 53.7106 41.7972 53.863 41.9495C54.0153 42.1019 54.222 42.1875 54.4375 42.1875H56.0625C56.278 42.1875 56.4847 42.1019 56.637 41.9495C56.7894 41.7972 56.875 41.5905 56.875 41.375C56.875 41.1595 56.7894 40.9528 56.637 40.8005C56.4847 40.6481 56.278 40.5625 56.0625 40.5625H54.4375V38.9375H56.0625C56.709 38.9375 57.329 39.1943 57.7861 39.6514C58.2432 40.1085 58.5 40.7285 58.5 41.375C58.5 42.0215 58.2432 42.6415 57.7861 43.0986C57.329 43.5557 56.709 43.8125 56.0625 43.8125V43.8125Z" fill="url(#paint7_linear)"/>
<path d="M56.0625 34.875H54.4375V36.5H56.0625V34.875Z" fill="url(#paint8_linear)"/>
<path d="M56.0625 43H54.4375V44.625H56.0625V43Z" fill="url(#paint9_linear)"/>
<path d="M33.3125 58.4375H30.0625V56.8125H32.9761L39.2381 50.5505C39.3904 50.3982 39.5971 50.3126 39.8125 50.3126C40.0279 50.3126 40.2346 50.3982 40.3869 50.5505L44.2812 54.4449L51.4256 47.3005L52.5744 48.4494L44.8557 56.1682C44.7033 56.3205 44.4967 56.4061 44.2812 56.4061C44.0658 56.4061 43.8592 56.3205 43.7068 56.1682L39.8125 52.2738L33.8869 58.1994C33.7346 58.3518 33.528 58.4374 33.3125 58.4375V58.4375Z" fill="url(#paint10_linear)"/>
<path d="M59.3125 60.875H57.6875V59.25H59.3125C59.528 59.25 59.7347 59.1644 59.887 59.012C60.0394 58.8597 60.125 58.653 60.125 58.4375V56.8125H61.75V58.4375C61.75 59.084 61.4932 59.704 61.0361 60.1611C60.579 60.6182 59.959 60.875 59.3125 60.875Z" fill="url(#paint11_linear)"/>
<path d="M56.0625 59.25H54.4375V60.875H56.0625V59.25Z" fill="url(#paint12_linear)"/>
<path d="M30.875 43.8125H29.25V42.1875C29.25 41.541 29.5068 40.921 29.9639 40.4639C30.421 40.0068 31.041 39.75 31.6875 39.75H33.3125V41.375H31.6875C31.472 41.375 31.2653 41.4606 31.113 41.613C30.9606 41.7653 30.875 41.972 30.875 42.1875V43.8125Z" fill="url(#paint13_linear)"/>
<path d="M36.5625 39.75H34.9375V41.375H36.5625V39.75Z" fill="url(#paint14_linear)"/>
<defs>
<linearGradient id="paint0_linear" x1="0" y1="0" x2="0.621212" y2="52.8684" gradientUnits="userSpaceOnUse">
<stop stop-color="#F41E3D"/>
<stop offset="1" stop-color="#D5122E"/>
</linearGradient>
<linearGradient id="paint1_linear" x1="26" y1="36.5" x2="26.4074" y2="64.6829" gradientUnits="userSpaceOnUse">
<stop stop-color="#F41E3D"/>
<stop offset="1" stop-color="#D5122E"/>
</linearGradient>
<linearGradient id="paint2_linear" x1="37.375" y1="67.375" x2="37.3784" y2="69.0332" gradientUnits="userSpaceOnUse">
<stop stop-color="#F41E3D"/>
<stop offset="1" stop-color="#D5122E"/>
</linearGradient>
<linearGradient id="paint3_linear" x1="39.8125" y1="63.3125" x2="40.1159" y2="68.2684" gradientUnits="userSpaceOnUse">
<stop stop-color="#F41E3D"/>
<stop offset="1" stop-color="#D5122E"/>
</linearGradient>
<linearGradient id="paint4_linear" x1="49.5625" y1="63.3125" x2="49.8659" y2="68.2684" gradientUnits="userSpaceOnUse">
<stop stop-color="#F41E3D"/>
<stop offset="1" stop-color="#D5122E"/>
</linearGradient>
<linearGradient id="paint5_linear" x1="45.5" y1="30" x2="45.9059" y2="49.8897" gradientUnits="userSpaceOnUse">
<stop stop-color="#F41E3D"/>
<stop offset="1" stop-color="#D5122E"/>
</linearGradient>
<linearGradient id="paint6_linear" x1="52" y1="35.6875" x2="52.0761" y2="40.6608" gradientUnits="userSpaceOnUse">
<stop stop-color="#F41E3D"/>
<stop offset="1" stop-color="#D5122E"/>
</linearGradient>
<linearGradient id="paint7_linear" x1="52" y1="38.9375" x2="52.0761" y2="43.9108" gradientUnits="userSpaceOnUse">
<stop stop-color="#F41E3D"/>
<stop offset="1" stop-color="#D5122E"/>
</linearGradient>
<linearGradient id="paint8_linear" x1="54.4375" y1="34.875" x2="54.4713" y2="36.5325" gradientUnits="userSpaceOnUse">
<stop stop-color="#F41E3D"/>
<stop offset="1" stop-color="#D5122E"/>
</linearGradient>
<linearGradient id="paint9_linear" x1="54.4375" y1="43" x2="54.4713" y2="44.6575" gradientUnits="userSpaceOnUse">
<stop stop-color="#F41E3D"/>
<stop offset="1" stop-color="#D5122E"/>
</linearGradient>
<linearGradient id="paint10_linear" x1="30.0625" y1="47.3005" x2="30.1772" y2="58.6636" gradientUnits="userSpaceOnUse">
<stop stop-color="#F41E3D"/>
<stop offset="1" stop-color="#D5122E"/>
</linearGradient>
<linearGradient id="paint11_linear" x1="57.6875" y1="56.8125" x2="57.7721" y2="60.9562" gradientUnits="userSpaceOnUse">
<stop stop-color="#F41E3D"/>
<stop offset="1" stop-color="#D5122E"/>
</linearGradient>
<linearGradient id="paint12_linear" x1="54.4375" y1="59.25" x2="54.4713" y2="60.9075" gradientUnits="userSpaceOnUse">
<stop stop-color="#F41E3D"/>
<stop offset="1" stop-color="#D5122E"/>
</linearGradient>
<linearGradient id="paint13_linear" x1="29.25" y1="39.75" x2="29.3346" y2="43.8937" gradientUnits="userSpaceOnUse">
<stop stop-color="#F41E3D"/>
<stop offset="1" stop-color="#D5122E"/>
</linearGradient>
<linearGradient id="paint14_linear" x1="34.9375" y1="39.75" x2="34.9713" y2="41.4075" gradientUnits="userSpaceOnUse">
<stop stop-color="#F41E3D"/>
<stop offset="1" stop-color="#D5122E"/>
</linearGradient>
</defs>
</svg>
