<svg width="90" height="69" viewBox="0 0 90 69" fill="none" xmlns="http://www.w3.org/2000/svg">
<rect width="90" height="69" fill="black" fill-opacity="0"/>
<path d="M62.7273 13.6364C70.8004 13.6364 77.5926 19.5106 78.9271 27.3307C85.1421 27.9337 90 33.1722 90 39.5455C90 46.3235 84.5053 51.8182 77.7273 51.8182H69.5455C68.7923 51.8182 68.1818 51.2077 68.1818 50.4545C68.1818 49.7014 68.7923 49.0909 69.5455 49.0909H77.7273C82.9991 49.0909 87.2727 44.8173 87.2727 39.5455C87.2727 34.2736 82.9991 30 77.7273 30C77.0257 30 76.4386 29.4677 76.3701 28.7695C75.6827 21.7619 69.79 16.3636 62.7273 16.3636C61.4539 16.3636 60.2052 16.5378 59.0051 16.8775C58.3215 17.071 57.6039 16.7072 57.3559 16.0415C54.3979 8.10174 46.7962 2.72727 38.1818 2.72727C28.7897 2.72727 20.6703 9.11157 18.3683 18.0802C18.2186 18.6631 17.7045 19.0791 17.1031 19.1036C9.08559 19.4313 2.72727 26.0389 2.72727 34.0909C2.72727 42.3752 9.443 49.0909 17.7273 49.0909H20.4545C21.2077 49.0909 21.8182 49.7014 21.8182 50.4545C21.8182 51.2077 21.2077 51.8182 20.4545 51.8182H17.7273C7.93677 51.8182 0 43.8814 0 34.0909C0 24.9112 6.99176 17.3206 15.9935 16.4474C18.9192 6.7847 27.8734 0 38.1818 0C47.5314 0 55.8282 5.58627 59.4582 13.9632C60.526 13.7466 61.6197 13.6364 62.7273 13.6364Z" fill="url(#paint0_linear)"/>
<rect width="49" height="49" fill="black" fill-opacity="0" transform="translate(20 20)"/>
<rect width="13.8958" height="22.2385" fill="black" fill-opacity="0" transform="translate(20 46.7472)"/>
<rect width="13.8958" height="22.2385" fill="black" fill-opacity="0" transform="translate(20 46.7472)"/>
<path d="M33.4034 51.2469C33.0318 51.0985 32.5859 51.3211 32.4373 51.6922L27.8298 65.2746L27.0124 60.6729C26.938 60.376 26.7894 60.1534 26.4922 60.0792C26.2692 60.0049 25.972 60.0792 25.749 60.2276L22.3306 63.4191L27.6069 47.7585C27.7555 47.3874 27.5326 46.9421 27.161 46.7937C26.7894 46.6452 26.3435 46.8679 26.1949 47.239L20.0268 65.6457C19.9525 65.9426 20.0268 66.3137 20.3241 66.5363C20.6213 66.6848 20.9929 66.6848 21.2158 66.4621L25.8233 62.3058L26.8637 68.3919C26.938 68.6887 27.2353 68.9856 27.5326 68.9856C27.9041 68.9856 28.2014 68.763 28.2757 68.4661L33.8493 52.2118C33.9979 51.8407 33.775 51.3953 33.4034 51.2469Z" fill="url(#paint1_linear)"/>
<rect width="21.5512" height="21.5982" fill="black" fill-opacity="0" transform="translate(28.2757 26.0861)"/>
<rect width="21.5512" height="21.5982" fill="black" fill-opacity="0" transform="translate(28.2757 26.0861)"/>
<path d="M39.0513 26.0861C33.1061 26.0861 28.2757 30.9104 28.2757 36.8481C28.2757 39.7427 29.3904 42.4146 31.3969 44.4928C33.4034 46.4968 36.153 47.6843 39.0513 47.6843C44.9964 47.6843 49.8269 42.86 49.8269 36.9223C49.8269 30.9104 44.9964 26.0861 39.0513 26.0861ZM39.0513 46.1257C36.5989 46.1257 34.2208 45.1608 32.5116 43.3795C30.7281 41.5982 29.762 39.2974 29.762 36.8481C29.762 31.7269 33.9236 27.5705 39.0513 27.5705C44.179 27.5705 48.3406 31.7269 48.3406 36.8481C48.3406 41.9693 44.179 46.1257 39.0513 46.1257Z" fill="url(#paint2_linear)"/>
<rect width="14.5483" height="13.9085" fill="black" fill-opacity="0" transform="translate(31.7406 29.1291)"/>
<rect width="14.5483" height="13.9085" fill="black" fill-opacity="0" transform="translate(31.7406 29.1291)"/>
<path d="M46.2598 34.3246C46.1855 34.0277 45.9625 33.8793 45.6653 33.805L41.5037 33.2855L39.6458 29.5745C39.4972 29.3518 39.2742 29.1291 38.977 29.1291C38.6797 29.1291 38.4568 29.2776 38.3081 29.5745L36.4503 33.2855L32.363 33.8793C32.0657 33.9535 31.8428 34.1019 31.7685 34.3988C31.6942 34.6957 31.7685 34.9926 31.9914 35.141L34.964 38.0356L34.2952 42.1177C34.2208 42.4146 34.3695 42.7115 34.5924 42.86C34.8154 43.0084 35.1126 43.0826 35.4099 42.9342L39.0513 41.0044L42.6927 42.9342C42.9156 43.0826 43.2129 43.0826 43.5101 42.86C43.7331 42.7115 43.8817 42.4146 43.8074 42.1177L43.1386 38.0356L46.1112 35.141C46.2598 34.9183 46.3341 34.6215 46.2598 34.3246ZM41.7266 37.2192C41.578 37.3676 41.5037 37.6645 41.5037 37.8872L42.0239 40.856L39.3485 39.4458C39.2742 39.3716 39.1256 39.3716 38.977 39.3716C38.8283 39.3716 38.754 39.3716 38.6054 39.4458L35.9301 40.856L36.4503 37.8872C36.5246 37.6645 36.376 37.3676 36.2273 37.2192L34.0722 35.141L37.0448 34.6957C37.2677 34.6957 37.4907 34.473 37.6393 34.3246L38.977 31.6526L40.3146 34.3246C40.3889 34.5472 40.6119 34.6957 40.9091 34.6957L43.8817 35.141L41.7266 37.2192Z" fill="url(#paint3_linear)"/>
<rect width="33.8131" height="33.7704" fill="black" fill-opacity="0" transform="translate(22.1819 20)"/>
<rect width="33.8131" height="33.7704" fill="black" fill-opacity="0" transform="translate(22.1819 20)"/>
<path d="M47.6718 51.3953C47.8204 51.3211 47.969 51.0984 48.0433 50.95L49.0094 47.1648L52.8738 46.3483C53.0967 46.2741 53.2453 46.1999 53.3197 46.0514C53.394 45.903 53.4683 45.6803 53.394 45.4577L52.3536 40.7076L55.772 37.2192C55.9207 37.0707 55.995 36.9223 55.995 36.6996C55.995 36.477 55.9207 36.3285 55.772 36.1801L52.6508 33.1371L53.7655 28.9065C53.8399 28.5354 53.6169 28.09 53.2453 28.0158L49.4553 27.051L48.6378 23.1915C48.5635 22.8204 48.1176 22.5235 47.7461 22.5977L42.9899 23.6368L39.2742 20.2227C39.1256 20.0742 38.9027 20 38.754 20C38.5311 20 38.3825 20.0742 38.2338 20.2227L35.1869 23.3399L30.951 22.2266C30.5794 22.1524 30.1336 22.3751 30.0592 22.7462L29.0932 26.5314L25.3031 27.4221C25.0802 27.4963 24.9315 27.5705 24.8572 27.7189C24.7829 27.8674 24.7086 28.09 24.7829 28.3127L25.8233 33.0628L22.4049 36.5512C22.1076 36.8481 22.1076 37.2934 22.4049 37.5903L25.5261 40.6333L24.4113 44.8639C24.337 45.235 24.56 45.6803 24.9315 45.7546L28.7216 46.7194L29.539 50.5789C29.6134 50.95 30.0592 51.2469 30.4308 51.1727L35.1869 50.1336L38.6797 53.5477C38.8283 53.6962 38.977 53.7704 39.1999 53.7704C39.4229 53.7704 39.5715 53.6962 39.7201 53.5477L42.767 50.4305L47.0029 51.5438C47.3002 51.5438 47.4488 51.4695 47.6718 51.3953ZM42.8413 48.8718C42.5441 48.7976 42.3211 48.8718 42.0982 49.0945L39.2742 51.9149L36.0044 48.7234C35.8558 48.5749 35.7071 48.5007 35.4842 48.5007C35.4099 48.5007 35.4099 48.5007 35.3356 48.5007L30.8767 49.4656L30.1336 45.9772C30.0592 45.6803 29.8363 45.4577 29.6134 45.3835L26.0463 44.4928L27.0124 40.5591C27.0867 40.3365 27.0124 40.0396 26.7894 39.8169L23.8911 36.9965L27.0867 33.7308C27.2353 33.5824 27.3096 33.2855 27.3096 33.0628L26.3435 28.6096L29.9106 27.7932C30.2079 27.7189 30.4308 27.4963 30.5051 27.2736L31.3969 23.711L35.3356 24.6759C35.5585 24.7501 35.8558 24.6759 36.0787 24.4532L38.9027 21.5586L42.1725 24.7501C42.2468 25.1212 42.4697 25.1954 42.767 25.1212L47.2259 24.1564L48.0433 27.7189C48.1176 28.0158 48.3406 28.2385 48.5635 28.3127L52.1306 29.2034L51.1645 33.1371C51.0902 33.3597 51.1645 33.6566 51.3875 33.8793L54.2857 36.6996L51.0902 39.9654C50.9416 40.1138 50.8673 40.4107 50.8673 40.6333L51.8334 45.0866L48.192 45.7546C47.8947 45.8288 47.6718 46.0514 47.5974 46.2741L46.7057 49.8367L42.8413 48.8718Z" fill="url(#paint4_linear)"/>
<rect width="25.2815" height="21.8499" fill="black" fill-opacity="0" transform="translate(43.7184 47.1501)"/>
<rect width="25.2815" height="21.8499" fill="black" fill-opacity="0" transform="translate(43.7184 47.1501)"/>
<path d="M59.7107 50.3563C57.3326 50.3563 55.1032 51.3211 53.4683 52.8055L51.3875 47.6101C51.2388 47.239 50.793 47.0163 50.4214 47.239C50.0498 47.3874 49.8269 47.8327 50.0498 48.2039L52.4279 53.9931C51.0902 55.6259 50.4214 57.5557 50.4214 59.6338C50.4214 60.7471 50.6443 61.7862 51.0159 62.7511L50.6443 65.2746L45.1451 51.6922C44.9964 51.3211 44.5505 51.0985 44.179 51.3211C43.8074 51.4696 43.5845 51.9149 43.8074 52.286L50.4214 68.5403C50.57 68.8372 50.8673 69.0598 51.2388 68.9856C51.6104 68.9114 51.8334 68.6887 51.9077 68.3176L52.2792 65.1262C53.9885 67.427 56.7381 68.9856 59.785 68.9856C64.8384 68.9856 69 64.8293 69 59.6338C69 54.4384 64.8384 50.3563 59.7107 50.3563ZM59.7107 67.5012C55.4004 67.5012 51.9077 64.0128 51.9077 59.6338C51.9077 55.329 55.4004 51.8407 59.7107 51.8407C64.0209 51.8407 67.5137 55.329 67.5137 59.6338C67.5137 64.0128 64.0209 67.5012 59.7107 67.5012Z" fill="url(#paint5_linear)"/>
<rect width="10.1985" height="6.97456" fill="black" fill-opacity="0" transform="translate(54.8292 56.2219)"/>
<rect width="10.1985" height="6.97456" fill="black" fill-opacity="0" transform="translate(54.8292 56.2219)"/>
<path d="M63.798 56.3681L57.9271 61.2667L56.2179 58.5947C55.995 58.2236 55.5491 58.1494 55.1775 58.3721C54.8059 58.5947 54.7316 59.0401 54.9546 59.4112L57.1097 62.8253C57.2583 62.9738 57.4069 63.1222 57.6299 63.1964C57.7042 63.1964 57.7042 63.1964 57.7785 63.1964C57.9271 63.1964 58.1501 63.1222 58.2244 63.048L64.7641 57.6299C65.0613 57.333 65.1356 56.8877 64.8384 56.5908C64.6154 56.1455 64.0952 56.1455 63.798 56.3681Z" fill="url(#paint6_linear)"/>
<defs>
<linearGradient id="paint0_linear" x1="0" y1="0" x2="0.621212" y2="52.8684" gradientUnits="userSpaceOnUse">
<stop stop-color="#F41E3D"/>
<stop offset="1" stop-color="#D5122E"/>
</linearGradient>
<linearGradient id="paint1_linear" x1="20" y1="46.7472" x2="20.7404" y2="69.4153" gradientUnits="userSpaceOnUse">
<stop stop-color="#F41E3D"/>
<stop offset="1" stop-color="#D5122E"/>
</linearGradient>
<linearGradient id="paint2_linear" x1="28.2757" y1="26.0861" x2="28.7263" y2="48.1159" gradientUnits="userSpaceOnUse">
<stop stop-color="#F41E3D"/>
<stop offset="1" stop-color="#D5122E"/>
</linearGradient>
<linearGradient id="paint3_linear" x1="31.7406" y1="29.1291" x2="32.0174" y2="43.3161" gradientUnits="userSpaceOnUse">
<stop stop-color="#F41E3D"/>
<stop offset="1" stop-color="#D5122E"/>
</linearGradient>
<linearGradient id="paint4_linear" x1="22.1819" y1="20" x2="22.884" y2="54.4453" gradientUnits="userSpaceOnUse">
<stop stop-color="#F41E3D"/>
<stop offset="1" stop-color="#D5122E"/>
</linearGradient>
<linearGradient id="paint5_linear" x1="43.7184" y1="47.1501" x2="44.1116" y2="69.439" gradientUnits="userSpaceOnUse">
<stop stop-color="#F41E3D"/>
<stop offset="1" stop-color="#D5122E"/>
</linearGradient>
<linearGradient id="paint6_linear" x1="54.8292" y1="56.2219" x2="54.9285" y2="63.3374" gradientUnits="userSpaceOnUse">
<stop stop-color="#F41E3D"/>
<stop offset="1" stop-color="#D5122E"/>
</linearGradient>
</defs>
</svg>
