<svg width="90" height="69" viewBox="0 0 90 69" fill="none" xmlns="http://www.w3.org/2000/svg">
<rect width="90" height="69" fill="black" fill-opacity="0"/>
<path d="M62.7273 13.6364C70.8004 13.6364 77.5926 19.5106 78.9271 27.3307C85.1421 27.9337 90 33.1722 90 39.5455C90 46.3235 84.5053 51.8182 77.7273 51.8182H69.5455C68.7923 51.8182 68.1818 51.2077 68.1818 50.4545C68.1818 49.7014 68.7923 49.0909 69.5455 49.0909H77.7273C82.9991 49.0909 87.2727 44.8173 87.2727 39.5455C87.2727 34.2736 82.9991 30 77.7273 30C77.0257 30 76.4386 29.4677 76.3701 28.7695C75.6827 21.7619 69.79 16.3636 62.7273 16.3636C61.4539 16.3636 60.2052 16.5378 59.0051 16.8775C58.3215 17.071 57.6039 16.7072 57.3559 16.0415C54.3979 8.10174 46.7962 2.72727 38.1818 2.72727C28.7897 2.72727 20.6703 9.11157 18.3683 18.0802C18.2186 18.6631 17.7045 19.0791 17.1031 19.1036C9.08559 19.4313 2.72727 26.0389 2.72727 34.0909C2.72727 42.3752 9.443 49.0909 17.7273 49.0909H20.4545C21.2077 49.0909 21.8182 49.7014 21.8182 50.4545C21.8182 51.2077 21.2077 51.8182 20.4545 51.8182H17.7273C7.93677 51.8182 0 43.8814 0 34.0909C0 24.9112 6.99176 17.3206 15.9935 16.4474C18.9192 6.7847 27.8734 0 38.1818 0C47.5314 0 55.8282 5.58627 59.4582 13.9632C60.526 13.7466 61.6197 13.6364 62.7273 13.6364Z" fill="url(#paint0_linear)"/>
<rect width="46" height="46" fill="black" fill-opacity="0" transform="translate(21 23)"/>
<rect width="21.4273" height="24.8664" fill="black" fill-opacity="0" transform="translate(43.2928 23)"/>
<path d="M43.5118 26.2737L46.232 28.9902C46.511 29.2688 46.9296 29.2688 47.2086 28.9902C47.4876 28.7116 47.4876 28.2937 47.2086 28.0151L45.7438 26.5523C47.2783 26.6916 48.8128 27.0399 50.2776 27.5275C49.8591 28.5026 49.6498 29.5475 49.6498 30.5923C49.7196 33.866 52.3701 38.8811 54.3929 42.2244C53.0676 42.7817 52.3004 43.6872 52.3004 44.8016C52.3004 46.543 54.4627 47.8664 57.183 47.8664C59.9032 47.8664 62.0655 46.543 62.0655 44.8016C62.0655 43.7568 61.2983 42.7817 59.973 42.2244C60.6008 41.1796 61.2983 39.9259 61.9958 38.6721C62.5538 40.1348 62.9723 41.6672 63.1815 43.1996C63.2513 43.5479 63.5303 43.8265 63.879 43.8265H63.9488C64.2976 43.7568 64.5766 43.4085 64.5068 43.0603C64.2278 40.9707 63.6 39.0204 62.6933 37.1397C63.8093 34.7715 64.7161 32.4033 64.7161 30.6619C64.8556 26.413 61.4378 23 57.2527 23C54.8812 23 52.4399 24.1145 50.9751 26.2737C49.5103 25.7861 47.9758 25.3682 46.4413 25.2289L48.1153 24.3234C48.4641 24.1145 48.6036 23.6965 48.3943 23.3483C48.2548 23 47.8363 22.9303 47.4876 23.0697C47.2783 23.209 43.5815 25.1593 43.442 25.3682C43.2328 25.5772 43.2328 25.9951 43.5118 26.2737ZM60.7403 44.8016C60.7403 45.5678 59.2057 46.4733 57.2527 46.4733C55.2299 46.4733 53.7652 45.5678 53.7652 44.8016C53.7652 44.314 54.3232 43.7568 55.2299 43.4782C56.0669 44.8016 56.6249 45.6375 56.7644 45.7768C56.9039 45.9857 57.1132 46.0554 57.3225 46.0554C57.5317 46.0554 57.741 45.9161 57.8805 45.7768C57.9502 45.6375 58.578 44.8016 59.3452 43.4782C60.1822 43.7568 60.7403 44.314 60.7403 44.8016ZM57.2527 24.3931C60.6705 24.3931 63.4605 27.1792 63.4605 30.5923C63.4605 32.1943 62.5538 34.4929 61.4378 36.8611C59.973 39.7866 58.1595 42.712 57.2527 44.1051C55.6484 41.6672 51.1146 34.4929 51.0449 30.5923C50.9751 27.1792 53.8349 24.3931 57.2527 24.3931Z" fill="url(#paint1_linear)"/>
<rect width="20.9772" height="21.4454" fill="black" fill-opacity="0" transform="translate(46.0228 45.2972)"/>
<path d="M66.8784 48.6326L64.7161 45.5679C64.4371 45.2196 63.9488 45.2196 63.6698 45.4982L60.9495 48.2147C60.6705 48.4933 60.6705 48.9113 60.9495 49.1899C61.2285 49.4685 61.647 49.4685 61.926 49.1899L63.3908 47.7271C62.5538 56.7125 55.6484 64.0958 46.6506 65.3495C46.3018 65.4192 46.0228 65.7675 46.0228 66.1157C46.0925 66.464 46.3716 66.7426 46.7203 66.7426H46.7901C56.4157 65.4192 63.8093 57.5483 64.7161 48.0058L65.7623 49.3988C65.9716 49.6774 66.4598 49.7471 66.7388 49.5381C67.0178 49.3988 67.0876 48.9809 66.8784 48.6326Z" fill="url(#paint2_linear)"/>
<rect width="21.2477" height="20.5871" fill="black" fill-opacity="0" transform="translate(23.4127 48.4128)"/>
<path d="M44.4883 65.7674L41.4192 62.7026C41.1402 62.424 40.7217 62.424 40.4427 62.7026C40.1637 62.9812 40.1637 63.3991 40.4427 63.6778L42.1865 65.4191C33.3978 64.6529 26.074 57.8268 24.7487 48.9808C24.679 48.6325 24.3302 48.3539 23.9815 48.4236C23.6327 48.4932 23.3537 48.8415 23.4234 49.1898C24.8185 58.4537 32.3516 65.6281 41.4192 66.8122L39.6754 67.7177C39.3267 67.857 39.1872 68.2749 39.3964 68.6232C39.5359 68.9714 39.9544 69.1108 40.3032 68.9018L44.3488 66.8818C44.6975 66.6032 44.7673 66.046 44.4883 65.7674Z" fill="url(#paint3_linear)"/>
<rect width="20.2905" height="21.3573" fill="black" fill-opacity="0" transform="translate(21 25.3575)"/>
<path d="M24.3302 46.543L27.19 43.6871C27.469 43.4085 27.469 42.9906 27.19 42.712C26.911 42.4334 26.4925 42.4334 26.2135 42.712L24.6092 44.314C25.3765 35.5377 31.9331 28.2937 40.7217 26.8309C41.0705 26.7613 41.3495 26.413 41.2797 25.9951C41.21 25.5772 40.8612 25.2986 40.5124 25.3682C31.0961 26.9702 24.121 34.5625 23.2142 43.8961L22.2377 42.4334C22.0284 42.0851 21.6099 42.0155 21.2612 42.2244C20.9822 42.4334 20.9124 42.921 21.1217 43.1996L23.2142 46.4036C23.4932 46.7519 23.9815 46.8216 24.3302 46.543Z" fill="url(#paint4_linear)"/>
<rect width="28.7471" height="24.9741" fill="black" fill-opacity="0" transform="translate(28.3661 35.6074)"/>
<path d="M52.5794 60.3345C52.7886 60.6131 53.2769 60.6828 53.5559 60.4042L56.9039 57.6877C57.0434 57.5484 57.1132 57.3394 57.1132 57.2001C57.1132 56.9911 56.9737 56.7822 56.9039 56.7125L53.5559 53.996C53.2769 53.787 52.7886 53.787 52.5794 54.0657C52.3701 54.3443 52.3701 54.8319 52.6491 55.0408L54.4627 56.4339H50.9751V42.4335C50.9751 42.0156 50.6961 41.737 50.2776 41.737H46.9993C46.5808 41.737 46.3018 42.0156 46.3018 42.4335V56.4339H44.9765V46.2644C44.9765 45.8465 44.6975 45.5679 44.279 45.5679H41.0007C40.5822 45.5679 40.3032 45.8465 40.3032 46.2644V56.4339H38.9779V49.2596C38.9779 48.8416 38.6989 48.563 38.2804 48.563H35.3509C34.9324 48.563 34.6534 48.8416 34.6534 49.2596V56.4339H32.4213V38.2543L33.8861 40.0653C34.1651 40.3439 34.5836 40.4135 34.8626 40.1349C35.1416 39.926 35.2114 39.4384 34.9324 39.1598L32.2121 35.8164C32.0726 35.6771 31.9331 35.6074 31.7238 35.6074C31.5146 35.6074 31.3053 35.6771 31.2356 35.8164L28.5153 39.1598C28.306 39.4384 28.306 39.926 28.585 40.1349C28.864 40.3439 29.3523 40.3439 29.5615 40.0653L31.0263 38.2543V57.1304C31.0263 57.5484 31.3053 57.827 31.7238 57.827C40.0242 57.827 45.8833 57.827 54.4627 57.827L52.6491 59.2897C52.3701 59.5683 52.3004 59.9862 52.5794 60.3345ZM36.0484 56.4339V49.8864H37.5829V56.4339H36.0484ZM41.768 56.4339V46.961H43.6512V56.4339H41.768ZM47.6968 56.4339V43.13H49.5801V56.4339H47.6968Z" fill="url(#paint5_linear)"/>
<rect width="7.67261" height="7.66191" fill="black" fill-opacity="0" transform="translate(53.4164 26.7614)"/>
<path d="M57.2527 34.4233C59.3452 34.4233 61.089 32.6819 61.089 30.5923C61.089 28.5027 59.3452 26.7614 57.2527 26.7614C55.1602 26.7614 53.4164 28.5027 53.4164 30.5923C53.4164 32.6819 55.0904 34.4233 57.2527 34.4233ZM57.2527 28.1544C58.578 28.1544 59.694 29.2689 59.694 30.5923C59.694 31.9157 58.578 33.0302 57.2527 33.0302C55.9274 33.0302 54.8114 31.9157 54.8114 30.5923C54.8114 29.2689 55.8577 28.1544 57.2527 28.1544Z" fill="url(#paint6_linear)"/>
<defs>
<linearGradient id="paint0_linear" x1="0" y1="0" x2="0.621212" y2="52.8684" gradientUnits="userSpaceOnUse">
<stop stop-color="#F41E3D"/>
<stop offset="1" stop-color="#D5122E"/>
</linearGradient>
<linearGradient id="paint1_linear" x1="43.2928" y1="23" x2="43.8935" y2="48.3596" gradientUnits="userSpaceOnUse">
<stop stop-color="#F41E3D"/>
<stop offset="1" stop-color="#D5122E"/>
</linearGradient>
<linearGradient id="paint2_linear" x1="46.0228" y1="45.2972" x2="46.4792" y2="67.1708" gradientUnits="userSpaceOnUse">
<stop stop-color="#F41E3D"/>
<stop offset="1" stop-color="#D5122E"/>
</linearGradient>
<linearGradient id="paint3_linear" x1="23.4127" y1="48.4128" x2="23.8279" y2="69.4119" gradientUnits="userSpaceOnUse">
<stop stop-color="#F41E3D"/>
<stop offset="1" stop-color="#D5122E"/>
</linearGradient>
<linearGradient id="paint4_linear" x1="21" y1="25.3575" x2="21.4679" y2="47.1407" gradientUnits="userSpaceOnUse">
<stop stop-color="#F41E3D"/>
<stop offset="1" stop-color="#D5122E"/>
</linearGradient>
<linearGradient id="paint5_linear" x1="28.3661" y1="35.6074" x2="28.8178" y2="61.0832" gradientUnits="userSpaceOnUse">
<stop stop-color="#F41E3D"/>
<stop offset="1" stop-color="#D5122E"/>
</linearGradient>
<linearGradient id="paint6_linear" x1="53.4164" y1="26.7614" x2="53.5756" y2="34.5764" gradientUnits="userSpaceOnUse">
<stop stop-color="#F41E3D"/>
<stop offset="1" stop-color="#D5122E"/>
</linearGradient>
</defs>
</svg>
