<svg width="90" height="69" viewBox="0 0 90 69" fill="none" xmlns="http://www.w3.org/2000/svg">
<rect width="90" height="69" fill="black" fill-opacity="0"/>
<path d="M62.7273 13.6364C70.8004 13.6364 77.5926 19.5106 78.9271 27.3307C85.1421 27.9337 90 33.1722 90 39.5455C90 46.3235 84.5053 51.8182 77.7273 51.8182H69.5455C68.7923 51.8182 68.1818 51.2077 68.1818 50.4545C68.1818 49.7014 68.7923 49.0909 69.5455 49.0909H77.7273C82.9991 49.0909 87.2727 44.8173 87.2727 39.5455C87.2727 34.2736 82.9991 30 77.7273 30C77.0257 30 76.4386 29.4677 76.3701 28.7695C75.6827 21.7619 69.79 16.3636 62.7273 16.3636C61.4539 16.3636 60.2052 16.5378 59.0051 16.8775C58.3215 17.071 57.6039 16.7072 57.3559 16.0415C54.3979 8.10174 46.7962 2.72727 38.1818 2.72727C28.7897 2.72727 20.6703 9.11157 18.3683 18.0802C18.2186 18.6631 17.7045 19.0791 17.1031 19.1036C9.08559 19.4313 2.72727 26.0389 2.72727 34.0909C2.72727 42.3752 9.443 49.0909 17.7273 49.0909H20.4545C21.2077 49.0909 21.8182 49.7014 21.8182 50.4545C21.8182 51.2077 21.2077 51.8182 20.4545 51.8182H17.7273C7.93677 51.8182 0 43.8814 0 34.0909C0 24.9112 6.99176 17.3206 15.9935 16.4474C18.9192 6.7847 27.8734 0 38.1818 0C47.5314 0 55.8282 5.58627 59.4582 13.9632C60.526 13.7466 61.6197 13.6364 62.7273 13.6364Z" fill="url(#paint0_linear)"/>
<rect width="47" height="47" fill="black" fill-opacity="0" transform="translate(22 22)"/>
<rect width="47" height="39.7447" fill="black" fill-opacity="0" transform="translate(22 29.2553)"/>
<path d="M68.2179 60.4527H66.8669V32.8879C66.8669 30.8935 65.2315 29.2553 63.2405 29.2553H63.0983C62.6717 29.2553 62.3873 29.5402 62.3873 29.9676C62.3873 30.3949 62.6717 30.6799 63.0983 30.6799H63.2405C64.4493 30.6799 65.4448 31.677 65.4448 32.8879V54.5409H25.4841V32.8879C25.4841 31.677 26.4796 30.6799 27.6884 30.6799H41.4826C41.9092 30.6799 42.1936 30.3949 42.1936 29.9676C42.1936 29.5402 41.9092 29.2553 41.4826 29.2553H27.6884C25.6974 29.2553 24.062 30.8935 24.062 32.8879V60.4527H22.711C22.2844 60.4527 22 60.7376 22 61.165V62.3759C22 66.0084 24.9864 69 28.6127 69H62.3873C66.0136 69 69 66.0084 69 62.3759V61.165C68.9289 60.8089 68.6445 60.4527 68.2179 60.4527ZM25.4841 56.0367H65.4448V60.4527H25.4841V56.0367ZM67.5068 62.3759C67.5068 65.225 65.1604 67.5754 62.3162 67.5754H28.6127C25.7685 67.5754 23.4221 65.225 23.4221 62.3759V61.8773C23.5643 61.8773 67.2935 61.8773 67.5068 61.8773V62.3759Z" fill="url(#paint1_linear)"/>
<rect width="9.45688" height="1.42454" fill="black" fill-opacity="0" transform="translate(40.7716 57.39)"/>
<path d="M49.4463 57.39H41.4826C41.056 57.39 40.7716 57.6749 40.7716 58.1023C40.7716 58.5296 41.056 58.8146 41.4826 58.8146H49.5174C49.944 58.8146 50.2285 58.5296 50.2285 58.1023C50.1574 57.7461 49.8729 57.39 49.4463 57.39Z" fill="url(#paint2_linear)"/>
<rect width="10.4344" height="14.9577" fill="black" fill-opacity="0" transform="translate(26.9306 32.1756)"/>
<path d="M37.2874 39.7969C37.4297 39.5832 37.3585 39.2983 37.2163 39.0846L32.6657 32.4605C32.5235 32.2468 32.3101 32.1756 32.0968 32.1756C31.8835 32.1756 31.6702 32.3181 31.528 32.4605L27.0484 39.0846C26.9062 39.2983 26.9062 39.5832 26.9773 39.7969C27.1195 40.0106 27.3328 40.153 27.6172 40.153H29.466L29.5371 46.421C29.5371 46.7772 29.8926 47.1333 30.2481 47.1333H34.23C34.4433 47.1333 34.5855 47.0621 34.7277 46.9196C34.8699 46.7772 34.941 46.6347 34.941 46.421L34.8699 40.153H36.7186C36.9319 40.153 37.1452 40.0106 37.2874 39.7969ZM34.0877 38.7285C33.8744 38.7285 33.7322 38.7997 33.59 38.9422C33.5189 39.0846 33.3767 39.2983 33.3767 39.4408L33.4478 45.7087H30.888L30.8169 39.4408C30.8169 39.0134 30.4614 38.7285 30.1059 38.7285H28.8971L32.0257 34.0987L35.2254 38.7285H34.0877Z" fill="url(#paint3_linear)"/>
<rect width="10.5055" height="14.9577" fill="black" fill-opacity="0" transform="translate(35.9301 37.945)"/>
<path d="M40.7005 52.6178C40.8427 52.8315 41.056 52.9027 41.2693 52.9027C41.4826 52.9027 41.6959 52.7602 41.8381 52.6178L46.3177 45.9937C46.4599 45.78 46.4599 45.4951 46.3888 45.2814C46.2466 45.0677 45.9622 44.9253 45.7489 44.9253H43.9002L43.8291 38.6573C43.8291 38.3011 43.4735 37.945 43.118 37.945H39.1362C38.9228 37.945 38.7806 38.0162 38.6384 38.1587C38.4962 38.3011 38.4251 38.4436 38.4251 38.6573L38.4962 44.9253H36.6475C36.3631 44.9253 36.1498 45.0677 36.0076 45.2814C35.8654 45.4951 35.9365 45.78 36.0787 45.9937L40.7005 52.6178ZM39.2784 46.3498C39.4917 46.3498 39.6339 46.2786 39.7761 46.1361C39.9183 45.9937 39.9894 45.8512 39.9894 45.6375L39.9183 39.3695H42.4781L42.5492 45.6375C42.5492 46.0649 42.9047 46.3498 43.2602 46.3498H44.469L41.3404 50.9796L38.1407 46.3498H39.2784Z" fill="url(#paint4_linear)"/>
<rect width="20.8264" height="31.4224" fill="black" fill-opacity="0" transform="translate(42.7908 22)"/>
<path d="M43.6157 35.3096C45.6067 39.7969 50.7262 42.2186 55.5613 40.5804L56.4145 42.5748L54.8502 43.2158C54.708 43.2871 54.5658 43.4295 54.4947 43.6432C54.4236 43.7856 54.4236 43.9993 54.4947 44.213L57.6944 51.5494C58.4055 53.1164 60.1831 53.8286 61.7474 53.1876C63.3117 52.5466 64.0227 50.6947 63.3828 49.1277L60.1831 41.8625C60.0409 41.5064 59.6142 41.3639 59.2587 41.5064L57.6944 41.9337L56.8412 40.0106C61.3918 37.6601 63.1694 32.2469 61.1785 27.7596C59.0454 22.9161 53.4281 20.7081 48.5219 22.7737C43.6157 24.9105 41.4826 30.5374 43.6157 35.3096ZM62.1029 49.555C62.4584 50.4098 62.1029 51.4069 61.2496 51.7631C60.3964 52.1192 59.4009 51.6918 59.0454 50.9083L56.1301 44.213C56.6278 43.9993 56.3434 44.1418 59.1876 42.9309L62.1029 49.555ZM55.6324 39.0134C51.5083 40.7941 46.6732 38.871 44.8956 34.7398C44.5401 33.9563 44.3268 33.1016 44.2557 32.2469H46.8865C47.171 32.2469 47.3843 32.1044 47.5265 31.8907L49.3041 28.4718L51.7216 36.0931C51.7927 36.378 52.0061 36.5205 52.2905 36.5917H52.3616C52.5749 36.5917 52.8593 36.4493 53.0015 36.2356L55.5613 31.962H60.5386C60.3964 35.0247 58.5477 37.7313 55.6324 39.0134ZM49.1619 24.0558C53.2859 22.2751 58.121 24.1982 59.8986 28.3294C60.1831 29.0416 60.3964 29.7539 60.5386 30.5374H55.2058C54.9213 30.5374 54.708 30.6799 54.5658 30.8935L52.5749 34.17L50.1573 26.4062C50.0862 26.1213 49.8018 25.9077 49.5174 25.9077C49.233 25.9077 48.9486 26.0501 48.8064 26.2638L46.3888 30.8223H44.1846C44.469 27.9732 46.2466 25.3378 49.1619 24.0558Z" fill="url(#paint5_linear)"/>
<defs>
<linearGradient id="paint0_linear" x1="0" y1="0" x2="0.621212" y2="52.8684" gradientUnits="userSpaceOnUse">
<stop stop-color="#F41E3D"/>
<stop offset="1" stop-color="#D5122E"/>
</linearGradient>
<linearGradient id="paint1_linear" x1="22" y1="29.2553" x2="22.6997" y2="69.799" gradientUnits="userSpaceOnUse">
<stop stop-color="#F41E3D"/>
<stop offset="1" stop-color="#D5122E"/>
</linearGradient>
<linearGradient id="paint2_linear" x1="40.7716" y1="57.39" x2="40.776" y2="58.8436" gradientUnits="userSpaceOnUse">
<stop stop-color="#F41E3D"/>
<stop offset="1" stop-color="#D5122E"/>
</linearGradient>
<linearGradient id="paint3_linear" x1="26.9306" y1="32.1756" x2="27.3767" y2="47.4255" gradientUnits="userSpaceOnUse">
<stop stop-color="#F41E3D"/>
<stop offset="1" stop-color="#D5122E"/>
</linearGradient>
<linearGradient id="paint4_linear" x1="35.9301" y1="37.945" x2="36.3732" y2="53.1951" gradientUnits="userSpaceOnUse">
<stop stop-color="#F41E3D"/>
<stop offset="1" stop-color="#D5122E"/>
</linearGradient>
<linearGradient id="paint5_linear" x1="42.7908" y1="22" x2="43.7772" y2="54.0333" gradientUnits="userSpaceOnUse">
<stop stop-color="#F41E3D"/>
<stop offset="1" stop-color="#D5122E"/>
</linearGradient>
</defs>
</svg>
