<svg width="90" height="67" viewBox="0 0 90 67" fill="none" xmlns="http://www.w3.org/2000/svg">
<rect width="90" height="67" fill="black" fill-opacity="0"/>
<path d="M62.7273 13.6364C70.8004 13.6364 77.5927 19.5106 78.9271 27.3307C85.1421 27.9337 90 33.1722 90 39.5455C90 46.3235 84.5053 51.8182 77.7273 51.8182H69.5455C68.7923 51.8182 68.1818 51.2077 68.1818 50.4545C68.1818 49.7014 68.7923 49.0909 69.5455 49.0909H77.7273C82.9991 49.0909 87.2727 44.8173 87.2727 39.5455C87.2727 34.2736 82.9991 30 77.7273 30C77.0257 30 76.4386 29.4677 76.3701 28.7695C75.6827 21.7619 69.79 16.3636 62.7273 16.3636C61.4539 16.3636 60.2052 16.5378 59.0051 16.8775C58.3215 17.071 57.6039 16.7072 57.3559 16.0415C54.3979 8.10174 46.7962 2.72727 38.1818 2.72727C28.7897 2.72727 20.6703 9.11157 18.3683 18.0802C18.2186 18.6631 17.7045 19.0791 17.1031 19.1036C9.08559 19.4313 2.72727 26.0389 2.72727 34.0909C2.72727 42.3752 9.443 49.0909 17.7273 49.0909H20.4545C21.2077 49.0909 21.8182 49.7014 21.8182 50.4545C21.8182 51.2077 21.2077 51.8182 20.4545 51.8182H17.7273C7.93677 51.8182 0 43.8814 0 34.0909C0 24.9112 6.99176 17.3206 15.9935 16.4474C18.9192 6.7847 27.8734 0 38.1818 0C47.5314 0 55.8282 5.58627 59.4582 13.9632C60.526 13.7466 61.6197 13.6364 62.7273 13.6364Z" fill="url(#paint0_linear)"/>
<path d="M27.4455 67C28.3497 67.0024 29.233 66.7332 29.9769 66.2286C30.7209 65.724 31.2899 65.0081 31.6076 64.1768C31.9254 63.3456 31.9766 62.4389 31.7545 61.5782C31.5325 60.7176 31.0477 59.9442 30.3652 59.3618L38.2505 45.5398C39.1429 45.8035 40.0974 45.7837 40.9777 45.483C41.858 45.1824 42.619 44.6163 43.1521 43.8657L53.0887 48.3073C52.9568 49.0614 53.0295 49.8363 53.2993 50.5541C53.5692 51.2719 54.0268 51.9073 54.626 52.3964C55.2253 52.8854 55.9451 53.211 56.7131 53.3402C57.4812 53.4694 58.2703 53.3978 59.0012 53.1326C59.7321 52.8674 60.379 52.4179 60.8769 51.8293C61.3748 51.2407 61.7061 50.5337 61.8374 49.7796C61.9688 49.0254 61.8956 48.2505 61.6253 47.5329C61.3549 46.8153 60.8969 46.1802 60.2973 45.6915L65.6306 34.6423C66.694 34.8632 67.803 34.6941 68.7482 34.167C69.6934 33.6399 70.4094 32.7912 70.7609 31.7812C71.1125 30.7713 71.0753 29.6698 70.6564 28.6849C70.2375 27.7 69.4658 26.8998 68.4872 26.4353C67.5085 25.9708 66.3905 25.8743 65.3443 26.1638C64.2981 26.4534 63.396 27.109 62.8084 28.007C62.2208 28.9049 61.9884 29.9831 62.1549 31.0378C62.3215 32.0926 62.8756 33.0509 63.7125 33.732L58.3846 44.7707C57.5641 44.5985 56.7106 44.659 55.9237 44.9453C55.1369 45.2315 54.4493 45.7317 53.9411 46.3873L43.9247 41.909C44.0202 41.173 43.9227 40.4251 43.6415 39.7364C43.3603 39.0477 42.9046 38.4409 42.3177 37.9735C41.7308 37.5061 41.0321 37.1936 40.2877 37.0656C39.5434 36.9376 38.7781 36.9983 38.0644 37.242C37.3506 37.4858 36.7121 37.9044 36.2092 38.4583C35.7064 39.0122 35.3559 39.683 35.191 40.4071C35.0261 41.1313 35.0522 41.8848 35.2669 42.5962C35.4815 43.3077 35.8776 43.9535 36.4177 44.4725L28.4738 58.3992C27.8637 58.2554 27.2296 58.2403 26.6131 58.3548C25.9967 58.4693 25.412 58.7109 24.8976 59.0635C24.3832 59.4161 23.9508 59.8719 23.6288 60.4006C23.3069 60.9294 23.1028 61.5191 23.03 62.131C22.9572 62.7429 23.0173 63.3629 23.2064 63.9503C23.3955 64.5377 23.7092 65.079 24.127 65.5387C24.5447 65.9983 25.057 66.3657 25.6299 66.6167C26.2028 66.8676 26.8235 66.9965 27.4508 66.9948L27.4455 67ZM66.5203 28.108C66.9766 28.108 67.4226 28.2408 67.802 28.4897C68.1814 28.7386 68.4771 29.0924 68.6517 29.5064C68.8263 29.9203 68.872 30.3758 68.783 30.8152C68.694 31.2546 68.4742 31.6583 68.1516 31.9751C67.829 32.2919 67.4179 32.5076 66.9704 32.595C66.5229 32.6824 66.059 32.6376 65.6375 32.4661C65.2159 32.2947 64.8556 32.0043 64.6021 31.6318C64.3486 31.2593 64.2133 30.8213 64.2133 30.3733C64.2147 29.7729 64.4583 29.1975 64.8906 28.773C65.3229 28.3485 65.9089 28.1093 66.5203 28.108ZM57.4629 46.7692C57.9192 46.7692 58.3652 46.9021 58.7446 47.151C59.124 47.3999 59.4196 47.7537 59.5943 48.1676C59.7689 48.5816 59.8146 49.037 59.7255 49.4765C59.6365 49.9159 59.4168 50.3195 59.0942 50.6363C58.7715 50.9531 58.3605 51.1689 57.913 51.2563C57.4654 51.3437 57.0016 51.2988 56.58 51.1274C56.1585 50.9559 55.7982 50.6656 55.5447 50.2931C55.2912 49.9205 55.1559 49.4826 55.1559 49.0345C55.1573 48.4342 55.4008 47.8588 55.8332 47.4342C56.2655 47.0097 56.8515 46.7706 57.4629 46.7692ZM39.5238 39.0944C39.9801 39.0944 40.4262 39.2273 40.8055 39.4762C41.1849 39.7251 41.4806 40.0789 41.6552 40.4928C41.8298 40.9067 41.8755 41.3622 41.7865 41.8016C41.6975 42.2411 41.4778 42.6447 41.1551 42.9615C40.8325 43.2783 40.4214 43.4941 39.9739 43.5815C39.5264 43.6689 39.0625 43.624 38.641 43.4526C38.2195 43.2811 37.8592 42.9908 37.6057 42.6182C37.3522 42.2457 37.2169 41.8077 37.2169 41.3597C37.2183 40.7593 37.4618 40.184 37.8941 39.7594C38.3265 39.3349 38.9124 39.0958 39.5238 39.0944ZM27.4455 60.3715C27.9018 60.3715 28.3478 60.5044 28.7272 60.7533C29.1066 61.0022 29.4023 61.356 29.5769 61.7699C29.7515 62.1838 29.7972 62.6393 29.7081 63.0787C29.6191 63.5182 29.3994 63.9218 29.0768 64.2386C28.7541 64.5554 28.3431 64.7712 27.8956 64.8586C27.4481 64.946 26.9842 64.9011 26.5626 64.7297C26.1411 64.5582 25.7808 64.2679 25.5273 63.8953C25.2738 63.5228 25.1385 63.0848 25.1385 62.6368C25.1399 62.0364 25.3834 61.461 25.8158 61.0365C26.2481 60.612 26.8341 60.3729 27.4455 60.3715Z" fill="url(#paint1_linear)"/>
<defs>
<linearGradient id="paint0_linear" x1="0" y1="0" x2="0.621212" y2="52.8684" gradientUnits="userSpaceOnUse">
<stop stop-color="#F41E3D"/>
<stop offset="1" stop-color="#D5122E"/>
</linearGradient>
<linearGradient id="paint1_linear" x1="23" y1="26" x2="23.7291" y2="67.824" gradientUnits="userSpaceOnUse">
<stop stop-color="#F41E3D"/>
<stop offset="1" stop-color="#D5122E"/>
</linearGradient>
</defs>
</svg>
