<svg width="90" height="69" viewBox="0 0 90 69" fill="none" xmlns="http://www.w3.org/2000/svg">
<rect width="90" height="69" fill="black" fill-opacity="0"/>
<path d="M62.7273 13.6364C70.8004 13.6364 77.5926 19.5106 78.9271 27.3307C85.1421 27.9337 90 33.1722 90 39.5455C90 46.3235 84.5053 51.8182 77.7273 51.8182H69.5455C68.7923 51.8182 68.1818 51.2077 68.1818 50.4545C68.1818 49.7014 68.7923 49.0909 69.5455 49.0909H77.7273C82.9991 49.0909 87.2727 44.8173 87.2727 39.5455C87.2727 34.2736 82.9991 30 77.7273 30C77.0257 30 76.4386 29.4677 76.3701 28.7695C75.6827 21.7619 69.79 16.3636 62.7273 16.3636C61.4539 16.3636 60.2052 16.5378 59.0051 16.8775C58.3215 17.071 57.6039 16.7072 57.3559 16.0415C54.3979 8.10174 46.7962 2.72727 38.1818 2.72727C28.7897 2.72727 20.6703 9.11157 18.3683 18.0802C18.2186 18.6631 17.7045 19.0791 17.1031 19.1036C9.08559 19.4313 2.72727 26.0389 2.72727 34.0909C2.72727 42.3752 9.443 49.0909 17.7273 49.0909H20.4545C21.2077 49.0909 21.8182 49.7014 21.8182 50.4545C21.8182 51.2077 21.2077 51.8182 20.4545 51.8182H17.7273C7.93677 51.8182 0 43.8814 0 34.0909C0 24.9112 6.99176 17.3206 15.9935 16.4474C18.9192 6.7847 27.8734 0 38.1818 0C47.5314 0 55.8282 5.58627 59.4582 13.9632C60.526 13.7466 61.6197 13.6364 62.7273 13.6364Z" fill="url(#paint0_linear)"/>
<rect width="43" height="43" fill="black" fill-opacity="0" transform="translate(25 26)"/>
<path d="M25.4756 60.0479C25.2275 59.6351 25.072 59.1734 25.0197 58.6947C24.9674 58.216 25.0196 57.7317 25.1727 57.2751C26.2258 54.141 27.0345 50.9301 27.5917 47.6712C27.6739 47.1973 27.8574 46.7467 28.1298 46.3501C28.4022 45.9536 28.757 45.6205 29.17 45.3735C29.583 45.1265 30.0445 44.9715 30.5229 44.919C31.0013 44.8666 31.4855 44.9179 31.9422 45.0695L33.088 45.4381C32.9206 44.7728 32.9206 44.0764 33.088 43.4111C33.3392 42.4091 33.9475 41.5331 34.799 40.9474C35.6504 40.3616 36.6864 40.1065 37.7127 40.2298C38.7389 40.3531 39.6849 40.8463 40.3732 41.617C41.0615 42.3877 41.4447 43.3829 41.4511 44.4158C41.4604 45.4724 41.0681 46.4932 40.3536 47.272C41.6706 47.5221 42.9262 47.7107 44.151 47.8818C44.2934 47.9005 44.4307 47.9471 44.5551 48.0189C44.6795 48.0906 44.7885 48.1862 44.876 48.3C44.9634 48.4139 45.0276 48.5439 45.0647 48.6825C45.1019 48.8212 45.1114 48.9658 45.0927 49.1081C45.0739 49.2504 45.0273 49.3876 44.9555 49.5119C44.8837 49.6362 44.7881 49.7452 44.6742 49.8326C44.5603 49.92 44.4302 49.9841 44.2915 50.0212C44.1527 50.0584 44.0081 50.0679 43.8657 50.0492C42.2808 49.8473 40.6258 49.5665 38.94 49.2199C38.7967 49.1902 38.6609 49.132 38.5405 49.0488C38.2428 48.8418 38.015 48.5494 37.8872 48.2102C37.7594 47.8709 37.7377 47.501 37.8249 47.1491L37.86 47.0044C37.9581 46.6227 38.1786 46.2837 38.4878 46.0391C38.7357 45.8482 38.9355 45.602 39.0712 45.3201C39.2069 45.0383 39.2747 44.7286 39.2692 44.4158C39.2675 43.9127 39.0813 43.4276 38.7459 43.0523C38.4105 42.6771 37.9492 42.4376 37.4491 42.3793C36.949 42.3209 36.4449 42.4477 36.032 42.7357C35.6191 43.0236 35.3261 43.4528 35.2084 43.942C35.1029 44.3691 35.1399 44.819 35.3138 45.2231C35.4707 45.5854 35.5047 45.9892 35.4104 46.3726L35.3753 46.5174C35.282 46.8653 35.086 47.1771 34.8126 47.4119C34.5393 47.6468 34.2014 47.7937 33.8431 47.8336C33.6956 47.8503 33.5462 47.8369 33.4041 47.7941C32.671 47.5747 31.9466 47.3553 31.2486 47.114C31.0896 47.0607 30.9209 47.0425 30.7541 47.0607C30.5874 47.0788 30.4265 47.133 30.2828 47.2193C30.1397 47.3031 30.0168 47.4173 29.9228 47.5537C29.8287 47.6902 29.7658 47.8456 29.7384 48.009C29.1618 51.3781 28.3252 54.6975 27.2361 57.9376C27.1836 58.0939 27.1653 58.2597 27.1821 58.4238C27.199 58.5878 27.2507 58.7464 27.3338 58.8888C27.417 59.0313 27.5296 59.1544 27.6641 59.2499C27.7987 59.3453 27.9521 59.411 28.1141 59.4424C32.3837 60.1716 36.5714 61.3178 40.617 62.8645C40.7537 62.9138 40.8793 62.9898 40.9863 63.0882C41.0932 63.1865 41.1795 63.3052 41.2401 63.4372C41.3006 63.5693 41.3342 63.7121 41.3388 63.8573C41.3435 64.0025 41.3191 64.1471 41.2672 64.2828C41.2152 64.4184 41.1367 64.5424 41.0362 64.6473C40.9357 64.7523 40.8153 64.8362 40.682 64.8941C40.5487 64.952 40.4052 64.9828 40.2599 64.9846C40.1145 64.9864 39.9703 64.9592 39.8356 64.9046C35.9325 63.4202 31.8934 62.3211 27.776 61.6229C27.3015 61.542 26.8502 61.3593 26.453 61.0874C26.0559 60.8155 25.7225 60.4609 25.4756 60.0479V60.0479Z" fill="url(#paint1_linear)"/>
<path d="M50.5693 34.0879C51.5674 34.3421 52.4391 34.9502 53.0218 35.799C53.6045 36.6477 53.8586 37.6793 53.7367 38.7014C53.6147 39.7236 53.1251 40.6665 52.359 41.3546C51.5929 42.0427 50.6027 42.4289 49.5728 42.4414C48.5155 42.4506 47.4941 42.0587 46.7148 41.3446C46.4646 42.6608 46.2758 43.9156 46.1046 45.1396C46.0706 45.4021 45.9423 45.6434 45.7437 45.8185C45.545 45.9936 45.2895 46.0907 45.0246 46.0917H44.8842C44.7401 46.0739 44.601 46.0276 44.475 45.9555C44.3491 45.8834 44.2387 45.7869 44.1504 45.6718C44.0622 45.5566 43.9977 45.425 43.9609 45.2847C43.9241 45.1443 43.9156 44.9981 43.9359 44.8544C44.1378 43.2706 44.4188 41.6166 44.7656 39.9319C44.7954 39.7887 44.8536 39.6529 44.9368 39.5326C45.144 39.2351 45.4366 39.0074 45.776 38.8797C46.1155 38.752 46.4857 38.7303 46.8377 38.8175L46.9826 38.8526C47.3645 38.9506 47.7037 39.171 47.9484 39.48C48.1395 39.7277 48.3858 39.9274 48.6679 40.063C48.9499 40.1986 49.2598 40.2664 49.5728 40.2609V40.2609C50.0762 40.2591 50.5616 40.0731 50.9371 39.7379C51.3126 39.4027 51.5522 38.9417 51.6106 38.4419C51.669 37.9421 51.5421 37.4383 51.254 37.0257C50.9658 36.6131 50.5364 36.3203 50.0469 36.2026C49.6195 36.0972 49.1694 36.1341 48.765 36.3079C48.4024 36.4648 47.9984 36.4987 47.6148 36.4045L47.4699 36.3694C47.1217 36.2762 46.8097 36.0802 46.5748 35.8071C46.3398 35.5339 46.1928 35.1962 46.1529 34.8382C46.136 34.6908 46.1494 34.5415 46.1924 34.3994C46.4119 33.6668 46.6314 32.9429 46.8729 32.2453C46.9262 32.0864 46.9445 31.9177 46.9263 31.7511C46.9081 31.5845 46.8539 31.4237 46.7675 31.2801C46.6837 31.1371 46.5694 31.0143 46.4329 30.9203C46.2963 30.8263 46.1408 30.7634 45.9773 30.736C42.6061 30.1598 39.2846 29.3237 36.0425 28.2353C35.8861 28.1829 35.7202 28.1645 35.556 28.1814C35.3919 28.1982 35.2332 28.2499 35.0907 28.333C34.9481 28.416 34.825 28.5286 34.7294 28.663C34.6339 28.7975 34.5682 28.9508 34.5367 29.1127C33.8072 33.3797 32.6603 37.5648 31.1125 41.6078C31.005 41.8729 30.7977 42.0853 30.5352 42.1993C30.2727 42.3133 29.976 42.3199 29.7087 42.2176C29.4414 42.1154 29.2249 41.9124 29.1056 41.6524C28.9864 41.3923 28.974 41.096 29.0711 40.8269C30.5565 36.9262 31.6563 32.8897 32.3549 28.7749C32.4363 28.3001 32.6195 27.8485 32.892 27.4512C33.1645 27.0539 33.5198 26.7202 33.9336 26.473C34.3473 26.2258 34.8096 26.0711 35.2889 26.0193C35.7681 25.9676 36.2528 26.0201 36.7098 26.1732C39.8445 27.2254 43.0559 28.0337 46.3153 28.5906C46.7895 28.6728 47.2404 28.8562 47.6372 29.1285C48.034 29.4007 48.3674 29.7553 48.6145 30.168C48.8616 30.5808 49.0167 31.0419 49.0692 31.5201C49.1217 31.9982 49.0703 32.482 48.9186 32.9385C48.7957 33.3114 48.6684 33.6975 48.5499 34.0836C49.2131 33.919 49.9068 33.9205 50.5693 34.0879V34.0879Z" fill="url(#paint2_linear)"/>
<path d="M53.1331 30.0384C57.0452 31.5338 61.0947 32.6418 65.2234 33.3465C65.6985 33.4278 66.1503 33.611 66.5479 33.8833C66.9455 34.1556 67.2794 34.5107 67.5267 34.9242C67.774 35.3376 67.9289 35.7997 67.9807 36.2786C68.0324 36.7575 67.9799 37.242 67.8267 37.6987C66.7738 40.8314 65.9651 44.0408 65.4077 47.2982C65.3255 47.7721 65.142 48.2227 64.8696 48.6193C64.5972 49.0158 64.2424 49.3489 63.8294 49.5959C63.4164 49.8429 62.9549 49.9979 62.4765 50.0503C61.9981 50.1028 61.5139 50.0515 61.0572 49.8999L59.9114 49.5313C60.0788 50.1966 60.0788 50.893 59.9114 51.5583C59.6808 52.473 59.1514 53.2847 58.4071 53.8648C57.6628 54.4449 56.7462 54.7603 55.8023 54.761C55.1662 54.7605 54.5381 54.6197 53.9628 54.3486C53.2433 54.009 52.6348 53.4728 52.2075 52.802C51.7802 52.1311 51.5516 51.3531 51.5483 50.5579C51.539 49.5014 51.9313 48.4806 52.6458 47.7018C51.3288 47.4517 50.0732 47.2631 48.8484 47.092C48.706 47.0732 48.5687 47.0267 48.4443 46.9549C48.3199 46.8831 48.2109 46.7876 48.1234 46.6737C48.036 46.5599 47.9718 46.4299 47.9347 46.2913C47.8975 46.1526 47.888 46.008 47.9067 45.8657C47.9255 45.7234 47.9721 45.5862 48.0439 45.4619C48.1157 45.3375 48.2113 45.2286 48.3252 45.1412C48.4391 45.0538 48.5692 44.9897 48.7079 44.9525C48.8467 44.9154 48.9913 44.9059 49.1337 44.9246C50.7186 45.1264 52.3736 45.4072 54.0594 45.7538C54.2027 45.7836 54.3385 45.8417 54.4589 45.9249C54.7566 46.132 54.9844 46.4244 55.1122 46.7636C55.24 47.1028 55.2617 47.4728 55.1745 47.8246L55.1394 47.9694C55.0413 48.3511 54.8208 48.6901 54.5116 48.9346C54.2637 49.1256 54.0639 49.3718 53.9282 49.6537C53.7925 49.9355 53.7247 50.2452 53.7302 50.5579C53.7319 51.0611 53.9181 51.5462 54.2535 51.9214C54.5889 52.2967 55.0502 52.5361 55.5503 52.5945C56.0504 52.6528 56.5545 52.5261 56.9674 52.2381C57.3803 51.9502 57.6733 51.521 57.791 51.0318C57.8965 50.6047 57.8595 50.1548 57.6856 49.7507C57.5287 49.3883 57.4947 48.9846 57.589 48.6012L57.6241 48.4564C57.7173 48.1084 57.9134 47.7967 58.1868 47.5618C58.4601 47.327 58.798 47.1801 59.1563 47.1402C59.3038 47.1233 59.4532 47.1368 59.5953 47.1797C60.3284 47.3991 61.0528 47.6184 61.7508 47.8597C61.9098 47.9131 62.0785 47.9313 62.2453 47.9131C62.412 47.8949 62.5729 47.8408 62.7166 47.7544C62.8597 47.6707 62.9826 47.5565 63.0766 47.42C63.1707 47.2836 63.2336 47.1282 63.261 46.9647C63.8376 43.5957 64.6742 40.2763 65.7633 37.0362C65.8157 36.8798 65.8341 36.7141 65.8173 36.55C65.8004 36.386 65.7487 36.2274 65.6656 36.0849C65.5824 35.9425 65.4698 35.8194 65.3353 35.7239C65.2007 35.6285 65.0473 35.5628 64.8853 35.5314C60.6157 34.8022 56.428 33.656 52.3824 32.1092C52.1172 32.0018 51.9047 31.7946 51.7906 31.5323C51.6765 31.27 51.6699 30.9734 51.7722 30.7063C51.8745 30.4392 52.0776 30.2228 52.3378 30.1037C52.598 29.9845 52.8946 29.9721 53.1638 30.0691L53.1331 30.0384Z" fill="url(#paint3_linear)"/>
<path d="M47.0528 64.2332C50.424 64.8095 53.7455 65.6455 56.9876 66.734C57.1441 66.7864 57.3099 66.8048 57.4741 66.7879C57.6382 66.7711 57.7969 66.7194 57.9395 66.6363C58.082 66.5532 58.2052 66.4407 58.3007 66.3062C58.3962 66.1718 58.4619 66.0184 58.4934 65.8565C59.2229 61.5896 60.3699 57.4045 61.9176 53.3614C61.9669 53.2248 62.043 53.0993 62.1414 52.9924C62.2398 52.8855 62.3585 52.7993 62.4907 52.7388C62.6228 52.6783 62.7657 52.6447 62.911 52.6401C63.0563 52.6354 63.201 52.6598 63.3368 52.7117C63.4725 52.7636 63.5965 52.8421 63.7016 52.9425C63.8066 53.0429 63.8906 53.1632 63.9485 53.2965C64.0064 53.4297 64.0372 53.5731 64.039 53.7184C64.0408 53.8636 64.0136 54.0078 63.959 54.1424C62.4627 58.052 61.354 62.099 60.6489 66.2251C60.5675 66.6999 60.3843 67.1514 60.1118 67.5488C59.8393 67.9461 59.4839 68.2798 59.0702 68.527C58.6565 68.7741 58.1942 68.9289 57.7149 68.9807C57.2357 69.0324 56.751 68.9799 56.294 68.8268C53.1593 67.7745 49.9479 66.9663 46.6885 66.4093C46.2143 66.3272 45.7634 66.1437 45.3666 65.8715C44.9698 65.5993 44.6364 65.2447 44.3893 64.832C44.1422 64.4192 43.9871 63.958 43.9346 63.4799C43.8821 63.0018 43.9334 62.518 44.0852 62.0615C44.2081 61.6886 44.3354 61.3025 44.4539 60.9164C43.7882 61.0838 43.0914 61.0838 42.4257 60.9164C41.3972 60.6891 40.49 60.0878 39.8804 59.2294C39.2707 58.3709 39.0022 57.3166 39.127 56.2713C39.2518 55.2261 39.761 54.2645 40.5556 53.5735C41.3502 52.8824 42.3735 52.5113 43.4266 52.5322V52.5322C44.4839 52.523 45.5053 52.915 46.2846 53.6291C46.5348 52.3129 46.7236 51.0581 46.8948 49.834C46.9474 49.5612 47.1019 49.3187 47.3271 49.1558C47.5522 48.9928 47.831 48.9217 48.1068 48.9569C48.3825 48.9922 48.6345 49.131 48.8114 49.3453C48.9883 49.5596 49.0769 49.8332 49.0591 50.1104C48.8572 51.6943 48.5762 53.3483 48.2294 55.033C48.1996 55.1762 48.1414 55.312 48.0582 55.4323C47.851 55.7298 47.5584 55.9574 47.219 56.0851C46.8795 56.2128 46.5093 56.2345 46.1573 56.1474L46.0124 56.1123C45.6305 56.0143 45.2913 55.7939 45.0466 55.4849C44.8551 55.2394 44.609 55.0417 44.3278 54.9077C44.0467 54.7737 43.7381 54.7069 43.4266 54.7127V54.7127C42.9232 54.7145 42.4378 54.9006 42.0623 55.2358C41.6868 55.5709 41.4472 56.032 41.3888 56.5318C41.3304 57.0315 41.4573 57.5353 41.7454 57.948C42.0336 58.3606 42.463 58.6534 42.9525 58.771C43.3799 58.8765 43.83 58.8395 44.2344 58.6657C44.597 58.5089 45.001 58.475 45.3846 58.5692L45.5295 58.6043C45.8777 58.6974 46.1897 58.8934 46.4246 59.1666C46.6596 59.4398 46.8066 59.7775 46.8465 60.1355C46.8634 60.2829 46.85 60.4322 46.807 60.5742C46.5875 61.3069 46.368 62.0308 46.1265 62.7284C46.0732 62.8873 46.0549 63.0559 46.0731 63.2226C46.0913 63.3892 46.1455 63.5499 46.2319 63.6936C46.3194 63.8394 46.4386 63.9636 46.5808 64.057C46.7229 64.1504 46.8842 64.2107 47.0528 64.2332Z" fill="url(#paint4_linear)"/>
<defs>
<linearGradient id="paint0_linear" x1="0" y1="0" x2="0.621212" y2="52.8684" gradientUnits="userSpaceOnUse">
<stop stop-color="#F41E3D"/>
<stop offset="1" stop-color="#D5122E"/>
</linearGradient>
<linearGradient id="paint1_linear" x1="25" y1="40.1995" x2="25.636" y2="65.4745" gradientUnits="userSpaceOnUse">
<stop stop-color="#F41E3D"/>
<stop offset="1" stop-color="#D5122E"/>
</linearGradient>
<linearGradient id="paint2_linear" x1="29.0063" y1="26" x2="29.3457" y2="46.4961" gradientUnits="userSpaceOnUse">
<stop stop-color="#F41E3D"/>
<stop offset="1" stop-color="#D5122E"/>
</linearGradient>
<linearGradient id="paint3_linear" x1="47.8974" y1="30.0044" x2="48.5319" y2="55.2503" gradientUnits="userSpaceOnUse">
<stop stop-color="#F41E3D"/>
<stop offset="1" stop-color="#D5122E"/>
</linearGradient>
<linearGradient id="paint4_linear" x1="39.0971" y1="48.9481" x2="39.4327" y2="69.4037" gradientUnits="userSpaceOnUse">
<stop stop-color="#F41E3D"/>
<stop offset="1" stop-color="#D5122E"/>
</linearGradient>
</defs>
</svg>
