<svg width="90" height="69" viewBox="0 0 90 69" fill="none" xmlns="http://www.w3.org/2000/svg">
<rect width="90" height="69" fill="black" fill-opacity="0"/>
<path d="M62.7273 13.6364C70.8004 13.6364 77.5926 19.5106 78.9271 27.3307C85.1421 27.9337 90 33.1722 90 39.5455C90 46.3235 84.5053 51.8182 77.7273 51.8182H69.5455C68.7923 51.8182 68.1818 51.2077 68.1818 50.4545C68.1818 49.7014 68.7923 49.0909 69.5455 49.0909H77.7273C82.9991 49.0909 87.2727 44.8173 87.2727 39.5455C87.2727 34.2736 82.9991 30 77.7273 30C77.0257 30 76.4386 29.4677 76.3701 28.7695C75.6827 21.7619 69.79 16.3636 62.7273 16.3636C61.4539 16.3636 60.2052 16.5378 59.0051 16.8775C58.3215 17.071 57.6039 16.7072 57.3559 16.0415C54.3979 8.10174 46.7962 2.72727 38.1818 2.72727C28.7897 2.72727 20.6703 9.11157 18.3683 18.0802C18.2186 18.6631 17.7045 19.0791 17.1031 19.1036C9.08559 19.4313 2.72727 26.0389 2.72727 34.0909C2.72727 42.3752 9.443 49.0909 17.7273 49.0909H20.4545C21.2077 49.0909 21.8182 49.7014 21.8182 50.4545C21.8182 51.2077 21.2077 51.8182 20.4545 51.8182H17.7273C7.93677 51.8182 0 43.8814 0 34.0909C0 24.9112 6.99176 17.3206 15.9935 16.4474C18.9192 6.7847 27.8734 0 38.1818 0C47.5314 0 55.8282 5.58627 59.4582 13.9632C60.526 13.7466 61.6197 13.6364 62.7273 13.6364Z" fill="url(#paint0_linear)"/>
<rect width="41" height="41" fill="black" fill-opacity="0" transform="translate(24 28)"/>
<rect width="21.3076" height="35.7277" fill="black" fill-opacity="0" transform="translate(43.6924 33.2723)"/>
<path d="M64.3788 46.112C64.7515 46.112 65 45.8639 65 45.4917V38.2345C65 37.8624 64.7515 37.6142 64.3788 37.6142H61.2106V33.8926C61.2106 33.5204 60.9621 33.2723 60.5894 33.2723H44.3137C43.9409 33.2723 43.6924 33.5204 43.6924 33.8926C43.6924 34.2648 43.9409 34.5129 44.3137 34.5129H60.0303V37.6142H56.6758C56.303 37.6142 56.0546 37.8624 56.0546 38.2345V45.4297C56.0546 45.8018 56.303 46.05 56.6758 46.05H60.0303V49.0273H56.6758C56.303 49.0273 56.0546 49.2754 56.0546 49.6475V56.8427C56.0546 57.2149 56.303 57.463 56.6758 57.463H60.0303V60.4403H56.6758C56.303 60.4403 56.0546 60.6884 56.0546 61.0605V68.3798C56.0546 68.7519 56.303 69 56.6758 69H64.3788C64.7515 69 65 68.7519 65 68.3798V61.1846C65 60.8124 64.7515 60.5643 64.3788 60.5643H61.2106V57.587H64.3788C64.7515 57.587 65 57.3389 65 56.9667V49.7096C65 49.3374 64.7515 49.0893 64.3788 49.0893H61.2106V46.112H64.3788V46.112ZM63.7576 67.7595H57.297V61.8049C58.1046 61.8049 63.0121 61.8049 63.7576 61.8049V67.7595ZM63.7576 56.2844H57.297V50.3298H60.5894H63.6955V56.2844H63.7576ZM57.297 38.8548H60.5894H63.6955V44.8094H57.297V38.8548Z" fill="url(#paint1_linear)"/>
<rect width="8.95497" height="28.5325" fill="black" fill-opacity="0" transform="translate(39.9651 40.4675)"/>
<path d="M48.3515 49.0893H45.1833V41.0877C45.1833 40.7156 44.9348 40.4675 44.5621 40.4675C44.1894 40.4675 43.9409 40.7156 43.9409 41.0877V49.0893H40.5864C40.2136 49.0893 39.9651 49.3374 39.9651 49.7095V56.9047C39.9651 57.2768 40.2136 57.525 40.5864 57.525H43.9409V60.5023H40.5864C40.2136 60.5023 39.9651 60.7504 39.9651 61.1225V68.3797C39.9651 68.7519 40.2136 69 40.5864 69H48.2894C48.6621 69 48.9106 68.7519 48.9106 68.3797V61.1846C48.9106 60.8124 48.6621 60.5643 48.2894 60.5643H45.1212V57.587H48.2894C48.6621 57.587 48.9106 57.3389 48.9106 56.9667V49.7095C48.9727 49.3374 48.7242 49.0893 48.3515 49.0893ZM47.7303 67.7594H41.2697V61.8048H44.5621H47.7303V67.7594ZM47.7303 56.2844H41.2697V50.3298H44.5621H47.6682V56.2844H47.7303Z" fill="url(#paint2_linear)"/>
<rect width="9.00758" height="22.4539" fill="black" fill-opacity="0" transform="translate(24 46.5461)"/>
<path d="M32.3242 49.0893H29.2182V47.1664C29.2182 46.7943 28.9697 46.5461 28.597 46.5461C28.2242 46.5461 27.9758 46.7943 27.9758 47.1664V49.0893H24.6212C24.2485 49.0893 24 49.3374 24 49.7095V56.9047C24 57.2769 24.2485 57.525 24.6212 57.525H27.9758V60.5023H24.6212C24.2485 60.5023 24 60.7504 24 61.1225V68.3797C24 68.7519 24.2485 69 24.6212 69H32.3242C32.697 69 32.9455 68.7519 32.9455 68.3797V61.1846C32.9455 60.8124 32.697 60.5643 32.3242 60.5643H29.2182V57.587H32.3864C32.7591 57.587 33.0076 57.3389 33.0076 56.9667V49.7095C32.9455 49.3374 32.697 49.0893 32.3242 49.0893ZM31.703 67.7595H25.2424V61.8048H28.5348H31.703V67.7595ZM31.703 56.2844H25.2424V50.3298H28.5348H31.6409V56.2844H31.703Z" fill="url(#paint3_linear)"/>
<rect width="19.8788" height="19.9107" fill="black" fill-opacity="0" transform="translate(24 28)"/>
<path d="M41.7045 44.2511C41.953 44.003 41.953 43.6929 41.7667 43.4448L40.6485 42.0182C41.0212 41.3359 41.3318 40.6536 41.5182 39.9092L43.3197 39.6611C43.6303 39.5991 43.8788 39.351 43.8788 39.0408V36.9319C43.8788 36.6218 43.6303 36.3737 43.3197 36.3116L41.5182 36.0635C41.3318 35.3192 41.0212 34.6369 40.6485 33.9546L41.7045 32.528C41.8909 32.2799 41.8909 31.9077 41.6424 31.6596L40.1515 30.171C39.903 29.9228 39.5924 29.9228 39.3439 30.1089L37.9152 31.2254C37.2318 30.8533 36.5485 30.5431 35.803 30.357L35.5545 28.5582C35.4924 28.2481 35.2439 28 34.9333 28H32.8212C32.5106 28 32.2621 28.2481 32.2 28.5582L31.9515 30.357C31.2061 30.5431 30.5227 30.8533 29.8394 31.2254L28.4727 30.171C28.2242 29.9849 27.8515 29.9849 27.6652 30.233L26.1742 31.7216C25.9258 31.9077 25.9258 32.2799 26.1121 32.528L27.2303 33.9546C26.8576 34.6369 26.547 35.3192 26.3606 36.0635L24.5591 36.3116C24.2485 36.3737 24 36.6218 24 36.9319V39.0408C24 39.351 24.2485 39.5991 24.5591 39.6611L26.3606 39.9092C26.547 40.6536 26.8576 41.3359 27.2303 42.0182L26.1121 43.4448C25.9258 43.6929 25.9258 44.0651 26.1742 44.2511L27.6652 45.7398C27.9136 45.9879 28.2242 45.9879 28.4727 45.8018L29.9015 44.6853C30.5848 45.0575 31.2682 45.3676 32.0136 45.5537L32.2621 47.3525C32.3242 47.6626 32.5727 47.9107 32.8833 47.9107H34.9955C35.3061 47.9107 35.5545 47.6626 35.6167 47.3525L35.8652 45.5537C36.6106 45.3676 37.2939 45.0575 37.9773 44.6853L39.4061 45.7398C39.6545 45.9259 40.0894 45.8638 40.2758 45.6778L41.7045 44.2511ZM39.7167 44.4992L38.35 43.4448C38.1636 43.2587 37.853 43.2587 37.6045 43.4448C36.8591 43.941 36.0515 44.3132 35.1197 44.4372C34.8712 44.4992 34.6848 44.6853 34.6227 44.9955L34.4364 46.6702H33.4424L33.1939 44.9955C33.1318 44.7474 32.9455 44.4992 32.697 44.4372C31.8273 44.2511 30.9576 43.941 30.2121 43.4448C29.9636 43.3207 29.7152 43.3207 29.4667 43.4448L28.1 44.4992L27.3545 43.7549L28.3485 42.3903C28.5348 42.2042 28.5348 41.8321 28.3485 41.646C27.8515 40.9017 27.5409 40.0953 27.3545 39.2269C27.2924 38.9788 27.1061 38.7927 26.7955 38.7307L25.2424 38.4826V37.4902L26.9197 37.2421C27.1682 37.18 27.4167 36.9939 27.4788 36.7458C27.6652 35.8775 27.9758 35.0091 28.4727 34.2648C28.597 34.0166 28.597 33.7685 28.4727 33.5204L27.4167 32.2179L28.1621 31.4735L29.4667 32.466C29.653 32.652 30.0258 32.652 30.2121 32.466C30.9576 31.9697 31.7652 31.5976 32.6348 31.4735C32.8833 31.4115 33.0697 31.2254 33.1318 30.9153L33.4424 29.3026H34.4364L34.6848 30.9773C34.747 31.2254 34.9333 31.4735 35.1818 31.5356C36.0515 31.7216 36.9212 32.0318 37.6667 32.528C37.9152 32.652 38.1636 32.652 38.4121 32.528L39.7788 31.4735L40.5242 32.2179L39.4682 33.5825C39.2818 33.7685 39.2818 34.0787 39.4682 34.3268C39.9652 35.0711 40.3379 35.8775 40.4621 36.8079C40.5242 37.056 40.7106 37.2421 41.0212 37.3041L42.6985 37.5522V38.5446L41.0212 38.7927C40.7727 38.8548 40.5242 39.0408 40.4621 39.289C40.2758 40.1573 39.9652 41.0257 39.4682 41.77C39.3439 42.0182 39.3439 42.2663 39.4682 42.5144L40.5242 43.879L39.7167 44.4992Z" fill="url(#paint4_linear)"/>
<rect width="10.0636" height="10.0484" fill="black" fill-opacity="0" transform="translate(28.9076 32.9622)"/>
<path d="M33.9394 32.9622C31.1439 32.9622 28.9076 35.2572 28.9076 37.9864C28.9076 40.7776 31.206 43.0106 33.9394 43.0106C36.6727 43.0106 38.9712 40.7156 38.9712 37.9864C38.9712 35.1951 36.7348 32.9622 33.9394 32.9622ZM33.9394 41.77C31.8273 41.77 30.15 40.0333 30.15 37.9864C30.15 35.9395 31.8894 34.2027 33.9394 34.2027C36.0515 34.2027 37.7288 35.9395 37.7288 37.9864C37.7288 40.0333 36.0515 41.77 33.9394 41.77Z" fill="url(#paint5_linear)"/>
<defs>
<linearGradient id="paint0_linear" x1="0" y1="0" x2="0.621212" y2="52.8684" gradientUnits="userSpaceOnUse">
<stop stop-color="#F41E3D"/>
<stop offset="1" stop-color="#D5122E"/>
</linearGradient>
<linearGradient id="paint1_linear" x1="43.6924" y1="33.2723" x2="44.9385" y2="69.6865" gradientUnits="userSpaceOnUse">
<stop stop-color="#F41E3D"/>
<stop offset="1" stop-color="#D5122E"/>
</linearGradient>
<linearGradient id="paint2_linear" x1="39.9651" y1="40.4675" x2="41.8504" y2="69.4597" gradientUnits="userSpaceOnUse">
<stop stop-color="#F41E3D"/>
<stop offset="1" stop-color="#D5122E"/>
</linearGradient>
<linearGradient id="paint3_linear" x1="24" y1="46.5461" x2="25.1626" y2="69.3991" gradientUnits="userSpaceOnUse">
<stop stop-color="#F41E3D"/>
<stop offset="1" stop-color="#D5122E"/>
</linearGradient>
<linearGradient id="paint4_linear" x1="24" y1="28" x2="24.4151" y2="48.3086" gradientUnits="userSpaceOnUse">
<stop stop-color="#F41E3D"/>
<stop offset="1" stop-color="#D5122E"/>
</linearGradient>
<linearGradient id="paint5_linear" x1="28.9076" y1="32.9622" x2="29.1164" y2="43.2114" gradientUnits="userSpaceOnUse">
<stop stop-color="#F41E3D"/>
<stop offset="1" stop-color="#D5122E"/>
</linearGradient>
</defs>
</svg>
