<svg width="90" height="62" viewBox="0 0 90 62" fill="none" xmlns="http://www.w3.org/2000/svg">
<rect width="90" height="62" fill="black" fill-opacity="0"/>
<path d="M62.7273 13.6364C70.8004 13.6364 77.5927 19.5106 78.9271 27.3307C85.1421 27.9337 90 33.1722 90 39.5455C90 46.3235 84.5053 51.8182 77.7273 51.8182H69.5455C68.7923 51.8182 68.1818 51.2077 68.1818 50.4545C68.1818 49.7014 68.7923 49.0909 69.5455 49.0909H77.7273C82.9991 49.0909 87.2727 44.8173 87.2727 39.5455C87.2727 34.2736 82.9991 30 77.7273 30C77.0257 30 76.4386 29.4677 76.3701 28.7695C75.6827 21.7619 69.79 16.3636 62.7273 16.3636C61.4539 16.3636 60.2052 16.5378 59.0051 16.8775C58.3215 17.071 57.6039 16.7072 57.3559 16.0415C54.3979 8.10174 46.7962 2.72727 38.1818 2.72727C28.7897 2.72727 20.6703 9.11157 18.3683 18.0802C18.2186 18.6631 17.7045 19.0791 17.1031 19.1036C9.08559 19.4313 2.72727 26.0389 2.72727 34.0909C2.72727 42.3752 9.443 49.0909 17.7273 49.0909H20.4545C21.2077 49.0909 21.8182 49.7014 21.8182 50.4545C21.8182 51.2077 21.2077 51.8182 20.4545 51.8182H17.7273C7.93677 51.8182 0 43.8814 0 34.0909C0 24.9112 6.99176 17.3206 15.9935 16.4474C18.9192 6.7847 27.8734 0 38.1818 0C47.5314 0 55.8282 5.58627 59.4582 13.9632C60.526 13.7466 61.6197 13.6364 62.7273 13.6364Z" fill="url(#paint0_linear)"/>
<path fill-rule="evenodd" clip-rule="evenodd" d="M56.8788 46.8941V40.0645H32.1212V46.8941L34.2666 44.7696C34.521 44.5176 34.9335 44.5176 35.188 44.7696C35.4424 45.0215 35.4424 45.4301 35.188 45.682L31.9304 48.9078C31.676 49.1598 31.2634 49.1598 31.009 48.9078L27.7514 45.682C27.497 45.4301 27.497 45.0215 27.7514 44.7696C28.0059 44.5176 28.4184 44.5176 28.6728 44.7696L30.8182 46.8941V39.4194C30.8182 39.063 31.1099 38.7742 31.4697 38.7742H43.8485V31.0323H36.6818C36.322 31.0323 36.0303 30.7434 36.0303 30.3871V22.6452C36.0303 22.2889 36.322 22 36.6818 22H52.3182C52.678 22 52.9697 22.2889 52.9697 22.6452V30.3871C52.9697 30.7434 52.678 31.0323 52.3182 31.0323H45.1515V38.7742H57.5303C57.8901 38.7742 58.1818 39.063 58.1818 39.4194V46.8941L60.3272 44.7696C60.5816 44.5176 60.9941 44.5176 61.2486 44.7696C61.503 45.0215 61.503 45.4301 61.2486 45.682L57.991 48.9078C57.7366 49.1598 57.324 49.1598 57.0696 48.9078L53.812 45.682C53.5576 45.4301 53.5576 45.0215 53.812 44.7696C54.0665 44.5176 54.479 44.5176 54.7334 44.7696L56.8788 46.8941ZM37.3333 29.7419H51.6667V23.2903H37.3333V29.7419ZM49.7121 52.9677H65.3485C65.7083 52.9677 66 53.2566 66 53.6129V61.3548C66 61.7111 65.7083 62 65.3485 62H49.7121C49.3523 62 49.0606 61.7111 49.0606 61.3548V53.6129C49.0606 53.2566 49.3523 52.9677 49.7121 52.9677ZM50.3636 60.7097H64.697V54.2581H50.3636V60.7097ZM23.6515 52.9677H39.2879C39.6477 52.9677 39.9394 53.2566 39.9394 53.6129V61.3548C39.9394 61.7111 39.6477 62 39.2879 62H23.6515C23.2917 62 23 61.7111 23 61.3548V53.6129C23 53.2566 23.2917 52.9677 23.6515 52.9677ZM24.303 60.7097H38.6364V54.2581H24.303V60.7097Z" fill="url(#paint1_linear)"/>
<defs>
<linearGradient id="paint0_linear" x1="0" y1="0" x2="0.621212" y2="52.8684" gradientUnits="userSpaceOnUse">
<stop stop-color="#F41E3D"/>
<stop offset="1" stop-color="#D5122E"/>
</linearGradient>
<linearGradient id="paint1_linear" x1="23" y1="22" x2="23.7746" y2="62.8016" gradientUnits="userSpaceOnUse">
<stop stop-color="#F41E3D"/>
<stop offset="1" stop-color="#D5122E"/>
</linearGradient>
</defs>
</svg>
