<svg width="90" height="69" viewBox="0 0 90 69" fill="none" xmlns="http://www.w3.org/2000/svg">
<rect width="90" height="69" fill="black" fill-opacity="0"/>
<path d="M62.7273 13.6364C70.8004 13.6364 77.5926 19.5106 78.9271 27.3307C85.1421 27.9337 90 33.1722 90 39.5455C90 46.3235 84.5053 51.8182 77.7273 51.8182H69.5455C68.7923 51.8182 68.1818 51.2077 68.1818 50.4545C68.1818 49.7014 68.7923 49.0909 69.5455 49.0909H77.7273C82.9991 49.0909 87.2727 44.8173 87.2727 39.5455C87.2727 34.2736 82.9991 30 77.7273 30C77.0257 30 76.4386 29.4677 76.3701 28.7695C75.6827 21.7619 69.79 16.3636 62.7273 16.3636C61.4539 16.3636 60.2052 16.5378 59.0051 16.8775C58.3215 17.071 57.6039 16.7072 57.3559 16.0415C54.3979 8.10174 46.7962 2.72727 38.1818 2.72727C28.7897 2.72727 20.6703 9.11157 18.3683 18.0802C18.2186 18.6631 17.7045 19.0791 17.1031 19.1036C9.08559 19.4313 2.72727 26.0389 2.72727 34.0909C2.72727 42.3752 9.443 49.0909 17.7273 49.0909H20.4545C21.2077 49.0909 21.8182 49.7014 21.8182 50.4545C21.8182 51.2077 21.2077 51.8182 20.4545 51.8182H17.7273C7.93677 51.8182 0 43.8814 0 34.0909C0 24.9112 6.99176 17.3206 15.9935 16.4474C18.9192 6.7847 27.8734 0 38.1818 0C47.5314 0 55.8282 5.58627 59.4582 13.9632C60.526 13.7466 61.6197 13.6364 62.7273 13.6364Z" fill="url(#paint0_linear)"/>
<rect width="49" height="49" fill="black" fill-opacity="0" transform="translate(20 20)"/>
<rect width="12.0129" height="11.8923" fill="black" fill-opacity="0" transform="translate(38.4921 40.3843)"/>
<rect width="12.0129" height="11.8923" fill="black" fill-opacity="0" transform="translate(38.4921 40.3843)"/>
<path d="M44.4985 52.2766C47.7613 52.2766 50.505 49.6008 50.505 46.3304C50.505 43.06 47.8354 40.3843 44.4985 40.3843C41.2358 40.3843 38.4921 43.06 38.4921 46.3304C38.4921 49.6751 41.2358 52.2766 44.4985 52.2766ZM44.4985 41.9451C46.9456 41.9451 49.0219 43.952 49.0219 46.4048C49.0219 48.8575 47.0197 50.8644 44.4985 50.8644C42.0514 50.8644 39.9751 48.8575 39.9751 46.4048C39.9751 43.952 42.0514 41.9451 44.4985 41.9451Z" fill="url(#paint1_linear)"/>
<rect width="15.0347" height="14.296" fill="black" fill-opacity="0" transform="translate(37.1295 20)"/>
<rect width="15.0347" height="14.296" fill="black" fill-opacity="0" transform="translate(37.1295 20)"/>
<path d="M40.3459 29.1608L39.6044 33.3974C39.5302 33.6947 39.6786 33.992 39.901 34.1407C40.1235 34.2893 40.4201 34.3637 40.7167 34.215L44.5727 32.2082L48.4287 34.215C48.6512 34.3637 48.9478 34.2893 49.2444 34.1407C49.4668 33.992 49.6152 33.6947 49.541 33.3974L48.7995 29.1608L51.9139 26.1134C52.1364 25.8904 52.2105 25.5931 52.1364 25.3701C52.0622 25.0728 51.8398 24.9242 51.5432 24.8498L47.2422 24.2552L45.3142 20.3902C45.0918 19.8699 44.2019 19.8699 43.9795 20.3902L42.0515 24.2552L37.7506 24.8498C37.4539 24.9242 37.2315 25.0728 37.1573 25.3701C37.0832 25.6674 37.1573 25.9647 37.3798 26.1134L40.3459 29.1608ZM42.4964 25.6674C42.7189 25.6674 42.9413 25.4444 43.0896 25.2958L44.4985 22.3227L45.9075 25.2215C45.9816 25.4444 46.2041 25.5931 46.5007 25.5931L49.6893 26.1134L47.3905 28.3432C47.2422 28.4918 47.1681 28.7892 47.1681 29.0121L47.6872 32.2082L44.8693 30.7217C44.7952 30.6473 44.6469 30.6473 44.4985 30.6473C44.3502 30.6473 44.2761 30.6473 44.1278 30.7217L41.3099 32.2082L41.829 29.0121C41.9032 28.7892 41.7549 28.4918 41.6065 28.3432L39.3078 26.1134L42.4964 25.6674Z" fill="url(#paint2_linear)"/>
<rect width="15.0347" height="14.4261" fill="black" fill-opacity="0" transform="translate(20 24.0322)"/>
<rect width="15.0347" height="14.4261" fill="black" fill-opacity="0" transform="translate(20 24.0322)"/>
<path d="M32.1149 38.303C32.3373 38.1543 32.4856 37.857 32.4115 37.5597L31.6699 33.3231L34.7844 30.2757C35.0069 30.0527 35.081 29.7554 35.0069 29.5324C34.9327 29.2351 34.7103 29.0865 34.4136 29.0121L30.1127 28.4175L28.1847 24.4782C28.0364 24.2552 27.814 24.0322 27.5173 24.0322C27.2207 24.0322 26.9983 24.1809 26.85 24.4782L24.922 28.3432L20.621 28.9378C20.3244 29.0121 20.102 29.1608 20.0278 29.4581C19.9537 29.7554 20.0278 30.0527 20.2503 30.2014L23.3647 33.3231L22.6232 37.5597C22.549 37.857 22.6973 38.1543 22.9198 38.303C23.1423 38.4516 23.4389 38.526 23.7355 38.3773L27.5915 36.3705L31.4475 38.3773C31.5958 38.526 31.8924 38.4516 32.1149 38.303ZM27.8881 34.8096C27.6656 34.661 27.4432 34.661 27.2207 34.8096L24.4029 36.2962L24.922 33.1001C24.9961 32.8771 24.8478 32.5798 24.6995 32.4312L22.4007 30.2014L25.5893 29.7554C25.8118 29.7554 26.0343 29.5324 26.1826 29.3838L27.5915 26.485L29.0004 29.3838C29.0746 29.6067 29.297 29.7554 29.5936 29.7554L32.7823 30.2014L30.4835 32.4312C30.3352 32.5798 30.261 32.8771 30.261 33.1001L30.7801 36.2962L27.8881 34.8096Z" fill="url(#paint3_linear)"/>
<rect width="15.0376" height="14.296" fill="black" fill-opacity="0" transform="translate(53.9624 24.1624)"/>
<rect width="15.0376" height="14.296" fill="black" fill-opacity="0" transform="translate(53.9624 24.1624)"/>
<path d="M68.9693 29.5325C68.8951 29.2352 68.6727 29.0865 68.376 29.0122L64.0751 28.4176L62.1471 24.5526C61.9247 24.0323 61.0348 24.0323 60.8124 24.5526L58.8844 28.4176L54.5834 29.0122C54.2868 29.0865 54.0644 29.2352 53.9902 29.5325C53.9161 29.8298 53.9902 30.1271 54.2127 30.2757L57.3271 33.3231L56.5856 37.5598C56.5114 37.8571 56.6597 38.1544 56.8822 38.303C57.1047 38.4517 57.4013 38.526 57.6979 38.3774L61.5539 36.3705L65.4099 38.3774C65.6323 38.526 65.929 38.4517 66.2256 38.303C66.448 38.1544 66.5963 37.8571 66.5222 37.5598L65.7807 33.3231L68.8951 30.2757C68.9693 30.0528 69.0434 29.7555 68.9693 29.5325ZM64.2976 32.5055C64.1493 32.6542 64.0751 32.9515 64.0751 33.1745L64.5942 36.3705L61.7764 34.884C61.7022 34.8097 61.5539 34.8097 61.4056 34.8097C61.2573 34.8097 61.1831 34.8097 61.0348 34.884L58.217 36.3705L58.7361 33.1745C58.8102 32.9515 58.6619 32.6542 58.5136 32.5055L56.2148 30.2757L59.4034 29.8298C59.6259 29.8298 59.8484 29.6068 59.9967 29.4581L61.4056 26.5594L62.8145 29.4581C62.8887 29.6811 63.1111 29.8298 63.4077 29.8298L66.5963 30.2757L64.2976 32.5055Z" fill="url(#paint4_linear)"/>
<rect width="36.1129" height="33.5958" fill="black" fill-opacity="0" transform="translate(31.0025 35.4043)"/>
<rect width="36.1129" height="33.5958" fill="black" fill-opacity="0" transform="translate(31.0025 35.4043)"/>
<path d="M58.4394 51.5332C58.217 51.5332 57.9945 51.5332 57.772 51.5332C57.9203 50.7156 57.9945 49.8237 57.9945 48.9318C57.9945 41.4991 51.9139 35.4043 44.4985 35.4043C37.0831 35.4043 31.0025 41.4248 31.0025 48.9318C31.0025 56.3645 37.009 62.4593 44.4985 62.4593C46.3524 62.4593 48.1321 62.0876 49.8376 61.3444C50.3567 65.6553 53.9902 69 58.4394 69C63.2594 69 67.1154 65.0607 67.1154 60.3038C67.1154 55.4726 63.2594 51.5332 58.4394 51.5332ZM44.4985 36.9652C51.0982 36.9652 56.5114 42.3167 56.5114 49.0061C56.5114 49.9724 56.3631 50.9386 56.1407 51.8305C54.5093 52.2765 53.0262 53.2427 51.9139 54.5063C50.505 53.3171 48.7994 52.7225 46.9456 52.7225H42.0514C39.2336 52.7225 36.6382 54.2833 35.3035 56.7361C33.5238 54.5806 32.4856 51.9049 32.4856 49.0804C32.4856 42.391 37.8988 36.9652 44.4985 36.9652ZM36.4158 57.851C37.4539 55.6212 39.6044 54.209 42.0514 54.209H46.9456C48.5028 54.209 49.9117 54.7293 51.024 55.6955C50.2825 56.8848 49.8376 58.297 49.7634 59.7835C45.3884 61.939 40.1234 61.2701 36.4158 57.851ZM58.4394 67.5135C54.4351 67.5135 51.2465 64.2431 51.2465 60.3038C51.2465 56.3645 54.5093 53.0941 58.4394 53.0941C62.3696 53.0941 65.6323 56.3645 65.6323 60.3038C65.6323 64.2431 62.4437 67.5135 58.4394 67.5135Z" fill="url(#paint5_linear)"/>
<rect width="10.0176" height="6.76727" fill="black" fill-opacity="0" transform="translate(53.8014 56.8813)"/>
<rect width="10.0176" height="6.76727" fill="black" fill-opacity="0" transform="translate(53.8014 56.8813)"/>
<path d="M62.5921 57.0335L57.1788 61.7904L55.1025 59.3377C54.8059 59.0403 54.361 58.966 54.0644 59.2633C53.7678 59.5606 53.6936 60.0066 53.9902 60.3039L56.5114 63.3513C56.6598 63.5 56.8081 63.5743 57.0305 63.6486C57.253 63.6486 57.4013 63.5743 57.5496 63.5L63.5561 58.2228C63.8527 57.9254 63.9268 57.4795 63.6302 57.1822C63.3336 56.8105 62.8887 56.8105 62.5921 57.0335Z" fill="url(#paint6_linear)"/>
<defs>
<linearGradient id="paint0_linear" x1="0" y1="0" x2="0.621212" y2="52.8684" gradientUnits="userSpaceOnUse">
<stop stop-color="#F41E3D"/>
<stop offset="1" stop-color="#D5122E"/>
</linearGradient>
<linearGradient id="paint1_linear" x1="38.4921" y1="40.3843" x2="38.7371" y2="52.5143" gradientUnits="userSpaceOnUse">
<stop stop-color="#F41E3D"/>
<stop offset="1" stop-color="#D5122E"/>
</linearGradient>
<linearGradient id="paint2_linear" x1="37.1295" y1="20" x2="37.4125" y2="34.5823" gradientUnits="userSpaceOnUse">
<stop stop-color="#F41E3D"/>
<stop offset="1" stop-color="#D5122E"/>
</linearGradient>
<linearGradient id="paint3_linear" x1="20" y1="24.0322" x2="20.2881" y2="38.7471" gradientUnits="userSpaceOnUse">
<stop stop-color="#F41E3D"/>
<stop offset="1" stop-color="#D5122E"/>
</linearGradient>
<linearGradient id="paint4_linear" x1="53.9624" y1="24.1624" x2="54.2453" y2="38.7447" gradientUnits="userSpaceOnUse">
<stop stop-color="#F41E3D"/>
<stop offset="1" stop-color="#D5122E"/>
</linearGradient>
<linearGradient id="paint5_linear" x1="31.0025" y1="35.4043" x2="31.6532" y2="69.6733" gradientUnits="userSpaceOnUse">
<stop stop-color="#F41E3D"/>
<stop offset="1" stop-color="#D5122E"/>
</linearGradient>
<linearGradient id="paint6_linear" x1="53.8014" y1="56.8813" x2="53.8966" y2="63.7854" gradientUnits="userSpaceOnUse">
<stop stop-color="#F41E3D"/>
<stop offset="1" stop-color="#D5122E"/>
</linearGradient>
</defs>
</svg>
