<svg width="90" height="69" viewBox="0 0 90 69" fill="none" xmlns="http://www.w3.org/2000/svg">
<rect width="90" height="69" fill="black" fill-opacity="0"/>
<path d="M62.7273 13.6364C70.8004 13.6364 77.5926 19.5106 78.9271 27.3307C85.1421 27.9337 90 33.1722 90 39.5455C90 46.3235 84.5053 51.8182 77.7273 51.8182H69.5455C68.7923 51.8182 68.1818 51.2077 68.1818 50.4545C68.1818 49.7014 68.7923 49.0909 69.5455 49.0909H77.7273C82.9991 49.0909 87.2727 44.8173 87.2727 39.5455C87.2727 34.2736 82.9991 30 77.7273 30C77.0257 30 76.4386 29.4677 76.3701 28.7695C75.6827 21.7619 69.79 16.3636 62.7273 16.3636C61.4539 16.3636 60.2052 16.5378 59.0051 16.8775C58.3215 17.071 57.6039 16.7072 57.3559 16.0415C54.3979 8.10174 46.7962 2.72727 38.1818 2.72727C28.7897 2.72727 20.6703 9.11157 18.3683 18.0802C18.2186 18.6631 17.7045 19.0791 17.1031 19.1036C9.08559 19.4313 2.72727 26.0389 2.72727 34.0909C2.72727 42.3752 9.443 49.0909 17.7273 49.0909H20.4545C21.2077 49.0909 21.8182 49.7014 21.8182 50.4545C21.8182 51.2077 21.2077 51.8182 20.4545 51.8182H17.7273C7.93677 51.8182 0 43.8814 0 34.0909C0 24.9112 6.99176 17.3206 15.9935 16.4474C18.9192 6.7847 27.8734 0 38.1818 0C47.5314 0 55.8282 5.58627 59.4582 13.9632C60.526 13.7466 61.6197 13.6364 62.7273 13.6364Z" fill="url(#paint0_linear)"/>
<rect width="50" height="50" fill="black" fill-opacity="0" transform="translate(66 19) scale(-1 1)"/>
<rect width="23.4848" height="12.1402" fill="black" fill-opacity="0" transform="translate(60.2424 49.2083) scale(-1 1)"/>
<path d="M44.4848 49.3788C45.6212 49.1515 51.2273 49.1515 52.3636 49.3788C56.8333 50.0606 60.2424 54 60.2424 58.6212V60.5909C60.2424 61.0455 59.9394 61.3485 59.4848 61.3485H37.5152C37.0606 61.3485 36.7576 61.0455 36.7576 60.5909V58.6212C36.7576 54 40.0152 50.1364 44.4848 49.3788ZM46.9091 59.8333H49.9394L48.8788 53.8485H48.0455L46.9091 59.8333ZM50.3182 52.2576L51.0758 50.7424H51H46.1515C46.0758 50.7424 45.9242 50.7424 45.8485 50.7424L46.6061 52.2576C46.5303 52.2576 50.0909 52.2576 50.3182 52.2576ZM58.7273 58.6212C58.7273 54.9849 56.1515 51.803 52.6667 50.9697L51.4545 53.394C51.303 53.6212 51.0758 53.8485 50.7727 53.8485H50.3939L51.4545 59.8333H58.7273V58.6212V58.6212ZM38.2727 59.8333H45.3182L46.3788 53.8485H46C45.697 53.8485 45.4697 53.697 45.3182 53.394L44.1818 51.0455C40.697 51.8788 38.2727 54.9849 38.2727 58.6212V59.8333Z" fill="url(#paint1_linear)"/>
<rect width="12.7273" height="12.7273" fill="black" fill-opacity="0" transform="translate(54.8636 36.2727) scale(-1 1)"/>
<path d="M48.5 49C45.0152 49 42.1364 46.1212 42.1364 42.6363C42.1364 39.1515 45.0152 36.2727 48.5 36.2727C51.9848 36.2727 54.8636 39.1515 54.8636 42.6363C54.8636 46.1212 52.0606 49 48.5 49ZM48.5 37.7121C45.8485 37.7121 43.6515 39.9091 43.6515 42.5606C43.6515 45.2121 45.8485 47.4091 48.5 47.4091C51.1515 47.4091 53.3485 45.2121 53.3485 42.5606C53.3485 39.9091 51.2273 37.7121 48.5 37.7121Z" fill="url(#paint2_linear)"/>
<rect width="50" height="50" fill="black" fill-opacity="0" transform="translate(66 19) scale(-1 1)"/>
<path d="M16.6818 32.0303L19.6364 31.6515C19.9394 30.3636 20.3939 29.2273 21.0758 28.0909L19.2576 25.6667C19.0303 25.3636 19.1061 24.9091 19.3333 24.6061L21.5303 22.4091C21.8333 22.1061 22.2879 22.0303 22.6667 22.3333L24.9394 24.0758C26 23.3939 27.2121 22.9394 28.5 22.6364L28.8788 19.6818C28.9545 19.303 29.2576 19 29.6364 19H32.9697C33.3485 19 33.6515 19.303 33.7273 19.6818L34.1818 22.6364C35.4697 22.9394 36.6061 23.3939 37.7424 24.0758C38.5 23.4697 40.1667 22.2576 40.1667 22.2576C40.4697 22.0303 40.9242 22.0303 41.1515 22.3333L43.5 24.6818C43.803 24.9848 43.803 25.3636 43.5758 25.6667L41.7576 28.0909C42.4394 29.2273 42.8939 30.3636 43.197 31.6515L46.1515 32.0303C46.5303 32.1061 46.8333 32.4091 46.8333 32.7879V33.7727C47.3636 33.697 47.8939 33.697 48.4242 33.697C58.1212 33.697 66 41.5758 66 51.3485C66 61.0455 58.1212 69 48.4242 69C38.7273 69 30.8485 61.0455 30.8485 51.3485C30.8485 50.8939 30.8485 50.3636 30.9242 49.9091H29.7879C29.4091 49.9091 29.1061 49.6061 29.0303 49.2273L28.6515 46.197C27.3636 45.8939 26.2273 45.4394 25.0909 44.7576L22.7424 46.5758C22.4394 46.803 21.9849 46.803 21.6061 46.5L19.3333 44.2273C19.0303 43.9242 19.0303 43.5455 19.2576 43.2424L21.0758 40.8182C20.3939 39.7576 19.9394 38.5455 19.6364 37.2576L16.6818 36.8788C16.303 36.803 16 36.5 16 36.1212V32.7879C16 32.4091 16.303 32.1061 16.6818 32.0303ZM48.4242 67.4848C57.2879 67.4848 64.4848 60.2121 64.4848 51.3485C64.4848 42.4848 57.2879 35.2121 48.4242 35.2121C39.5606 35.2121 32.3636 42.4848 32.3636 51.3485C32.2879 60.2121 39.5606 67.4848 48.4242 67.4848ZM17.5152 35.4394L20.3939 35.8182C20.697 35.8939 21 36.1212 21 36.4242C21.303 37.8636 21.8333 39.2273 22.6667 40.4394C22.8182 40.7424 22.8182 41.0455 22.6667 41.3485L20.9242 43.6212L22.2879 45.0606L24.5606 43.3182C24.7879 43.0909 25.1667 43.0909 25.4697 43.3182C26.6818 44.1515 27.9697 44.6818 29.4091 44.9848C29.7121 45.0606 29.9394 45.2879 30.0152 45.6667L30.3939 48.3939H31.0758C31.4545 46.197 32.2121 44.1515 33.3485 42.3333C30.9242 42.9394 28.3485 42.3333 26.3788 40.7424V41.4242C26.3788 41.8788 26.0758 42.1818 25.6212 42.1818C25.1667 42.1818 24.8636 41.8788 24.8636 41.4242V38.8485C24.8636 38.3939 25.2424 38.0909 25.6212 38.0909L27.9697 38.1667C28.4242 38.1667 28.7273 38.5455 28.7273 38.9242C28.7273 39.303 28.3485 39.6818 27.9697 39.6818H27.4394C29.6364 41.4242 32.7424 41.5 35.0152 39.9848C35.6212 39.303 36.2273 38.6212 36.9848 38.0152C37.5152 37.2576 37.8182 36.3485 37.9697 35.3636C38.1212 34.4545 38.0455 33.4697 37.7424 32.5606C37.5909 32.1818 37.8182 31.7273 38.2727 31.6515C38.6515 31.5 39.1061 31.7273 39.1818 32.1818C39.4848 33.3182 39.6364 34.4545 39.4091 35.6667C39.4091 35.8939 39.3333 36.1212 39.2576 36.3485C41.0758 35.2121 43.1212 34.4545 45.3182 34.0758V33.5455L42.4394 33.1667C42.1364 33.0909 41.8333 32.8636 41.7576 32.5606C41.4545 31.1212 40.9242 29.7576 40.0909 28.5455C39.9394 28.2424 39.9394 27.9394 40.0909 27.6364L41.8333 25.3636L40.4697 23.9242C39.7121 24.5303 38.4242 25.5152 38.197 25.6667C38.1212 25.7424 37.9697 25.8182 37.8939 25.8182C37.6667 25.8939 37.4394 25.8182 37.2879 25.6667C36.0758 24.8333 34.7879 24.303 33.3485 24.0758C33.0455 24 32.8182 23.7727 32.7424 23.3939L32.3636 20.5152H30.3939L30.0152 23.3939C29.9394 23.697 29.7121 24 29.4091 24.0758C27.9697 24.303 26.6061 24.8333 25.4697 25.6667C25.1667 25.8182 24.8636 25.8182 24.5606 25.6667L22.2879 23.9242L20.9242 25.3636L22.6667 27.6364C22.8939 27.8636 22.8939 28.2424 22.6667 28.5455C21.8333 29.7576 21.303 31.1212 21 32.5606C20.9242 32.8636 20.697 33.0909 20.3182 33.1667L17.4394 33.5455V35.4394H17.5152Z" fill="url(#paint3_linear)"/>
<rect width="14.6212" height="10.8117" fill="black" fill-opacity="0" transform="translate(37.9697 26.4169) scale(-1 1)"/>
<path d="M26.5303 28.0152C28.2727 26.7273 30.3939 26.197 32.5152 26.5C34.0303 26.7273 35.3939 27.3333 36.4545 28.2424V27.5606C36.4545 27.1061 36.7576 26.803 37.2121 26.803C37.6667 26.803 37.9697 27.1061 37.9697 27.5606V30.1364C37.9697 30.5152 37.6667 30.8939 37.2121 30.8939L34.9394 30.8182C34.4848 30.8182 34.1818 30.4394 34.1818 30.0606C34.1818 29.6061 34.5606 29.303 34.9394 29.303H35.3939C34.4848 28.6212 33.4242 28.0909 32.2879 27.9394C30.5455 27.7121 28.803 28.1667 27.4394 29.1515C26.0758 30.2121 25.1667 31.7273 24.8636 33.4697C24.7121 34.3788 24.7879 35.3636 25.0909 36.2727C25.2424 36.6515 24.9394 37.1061 24.5606 37.1818C24.1818 37.3333 23.7273 37.1061 23.6515 36.6515C23.3485 35.5152 23.2727 34.3788 23.4242 33.2424C23.7273 31.197 24.7879 29.303 26.5303 28.0152Z" fill="url(#paint4_linear)"/>
<defs>
<linearGradient id="paint0_linear" x1="0" y1="0" x2="0.621212" y2="52.8684" gradientUnits="userSpaceOnUse">
<stop stop-color="#F41E3D"/>
<stop offset="1" stop-color="#D5122E"/>
</linearGradient>
<linearGradient id="paint1_linear" x1="60.2424" y1="49.2083" x2="60.1117" y2="61.5949" gradientUnits="userSpaceOnUse">
<stop stop-color="#F41E3D"/>
<stop offset="1" stop-color="#D5122E"/>
</linearGradient>
<linearGradient id="paint2_linear" x1="54.8636" y1="36.2727" x2="54.5987" y2="49.2543" gradientUnits="userSpaceOnUse">
<stop stop-color="#F41E3D"/>
<stop offset="1" stop-color="#D5122E"/>
</linearGradient>
<linearGradient id="paint3_linear" x1="66" y1="19" x2="64.9592" y2="69.9992" gradientUnits="userSpaceOnUse">
<stop stop-color="#F41E3D"/>
<stop offset="1" stop-color="#D5122E"/>
</linearGradient>
<linearGradient id="paint4_linear" x1="37.9697" y1="26.4169" x2="37.8032" y2="37.4467" gradientUnits="userSpaceOnUse">
<stop stop-color="#F41E3D"/>
<stop offset="1" stop-color="#D5122E"/>
</linearGradient>
</defs>
</svg>
