<svg width="90" height="69" viewBox="0 0 90 69" fill="none" xmlns="http://www.w3.org/2000/svg">
<rect width="90" height="69" fill="black" fill-opacity="0"/>
<path d="M62.7273 13.6364C70.8004 13.6364 77.5926 19.5106 78.9271 27.3307C85.1421 27.9337 90 33.1722 90 39.5455C90 46.3235 84.5053 51.8182 77.7273 51.8182H69.5455C68.7923 51.8182 68.1818 51.2077 68.1818 50.4545C68.1818 49.7014 68.7923 49.0909 69.5455 49.0909H77.7273C82.9991 49.0909 87.2727 44.8173 87.2727 39.5455C87.2727 34.2736 82.9991 30 77.7273 30C77.0257 30 76.4386 29.4677 76.3701 28.7695C75.6827 21.7619 69.79 16.3636 62.7273 16.3636C61.4539 16.3636 60.2052 16.5378 59.0051 16.8775C58.3215 17.071 57.6039 16.7072 57.3559 16.0415C54.3979 8.10174 46.7962 2.72727 38.1818 2.72727C28.7897 2.72727 20.6703 9.11157 18.3683 18.0802C18.2186 18.6631 17.7045 19.0791 17.1031 19.1036C9.08559 19.4313 2.72727 26.0389 2.72727 34.0909C2.72727 42.3752 9.443 49.0909 17.7273 49.0909H20.4545C21.2077 49.0909 21.8182 49.7014 21.8182 50.4545C21.8182 51.2077 21.2077 51.8182 20.4545 51.8182H17.7273C7.93677 51.8182 0 43.8814 0 34.0909C0 24.9112 6.99176 17.3206 15.9935 16.4474C18.9192 6.7847 27.8734 0 38.1818 0C47.5314 0 55.8282 5.58627 59.4582 13.9632C60.526 13.7466 61.6197 13.6364 62.7273 13.6364Z" fill="url(#paint0_linear)"/>
<rect width="46" height="46" fill="black" fill-opacity="0" transform="translate(22 23)"/>
<rect width="45.9303" height="25.5788" fill="black" fill-opacity="0" transform="translate(22.0697 23)"/>
<path d="M60.3333 35.7545C60.3333 35.9636 60.3333 36.1727 60.4727 36.3121C60.6121 36.4515 60.8212 36.5212 61.0303 36.5212C64.4454 36.5212 66.606 39.1 66.606 41.8182C66.606 44.7455 64.1666 47.1151 61.2394 47.1151H58.6606C58.2424 47.1151 57.9636 47.3939 57.9636 47.8121C57.9636 48.2303 58.2424 48.5091 58.6606 48.5091H61.2394C64.9333 48.5091 68 45.5121 68 41.8182C68 38.3333 65.2818 35.4061 61.7969 35.1273C61.7969 34.9182 61.7969 34.6394 61.7969 34.4303C61.7969 28.9242 57.2666 24.4636 51.7606 24.4636C49.1121 24.4636 46.603 25.5091 44.7212 27.3212C42.9091 24.6727 39.8424 23 36.4969 23C30.9212 23 26.4606 27.4606 26.4606 32.9667C26.4606 33.803 26.6 34.6394 26.8091 35.4758C24.0212 36.3121 22.0697 38.8909 22.0697 41.8879C22.0697 45.5818 25.1363 48.5788 28.8303 48.5788H31.3394C31.7576 48.5788 32.0363 48.3 32.0363 47.8818C32.0363 47.4636 31.7576 47.1848 31.3394 47.1848H28.8303C25.903 47.1848 23.4636 44.8151 23.4636 41.8879C23.4636 39.3091 25.2757 37.1485 27.8545 36.6606C28.0636 36.5909 28.203 36.5212 28.3424 36.3121C28.4121 36.103 28.4818 35.8939 28.4121 35.7545C28.0636 34.8485 27.9242 33.8727 27.9242 32.9667C27.8545 28.2273 31.6879 24.3939 36.4969 24.3939C39.703 24.3939 42.5606 26.1364 44.0939 28.9242C44.2333 29.1333 44.3727 29.2727 44.6515 29.2727C44.8606 29.2727 45.1394 29.203 45.2788 28.9939C46.9515 27.0424 49.3212 25.9273 51.9 25.9273C56.6394 25.9273 60.5424 29.7606 60.5424 34.5C60.4727 34.9182 60.403 35.3364 60.3333 35.7545Z" fill="url(#paint1_linear)"/>
<rect width="22.7909" height="32.8273" fill="black" fill-opacity="0" transform="translate(33.6394 36.1727)"/>
<path d="M55.6636 36.1727H34.3364C33.9182 36.1727 33.6394 36.4515 33.6394 36.8697V44.7455C33.6394 45.1636 33.9182 45.4424 34.3364 45.4424H37.9606V47.9515H34.3364C33.9182 47.9515 33.6394 48.2303 33.6394 48.6485V56.5242C33.6394 56.9424 33.9182 57.2212 34.3364 57.2212H37.9606V59.6606H34.3364C33.9182 59.6606 33.6394 59.9394 33.6394 60.3576V68.303C33.6394 68.7212 33.9182 69 34.3364 69H55.7333C56.1515 69 56.4303 68.7212 56.4303 68.303V60.4273C56.4303 60.0091 56.1515 59.7303 55.7333 59.7303H52.1091V57.2909H55.7333C56.1515 57.2909 56.4303 57.0121 56.4303 56.5939V48.6485C56.4303 48.2303 56.1515 47.9515 55.7333 47.9515H52.1091V45.4424H55.7333C56.1515 45.4424 56.4303 45.1636 56.4303 44.7455V36.8697C56.3606 36.4515 56.0818 36.1727 55.6636 36.1727ZM54.9667 67.6061H35.0333V61.1242H38.6576H51.2727H54.897V67.6061H54.9667ZM50.6455 59.7303H39.3546V57.2909H50.6455V59.7303V59.7303ZM54.9667 55.8273H35.0333V49.3455H38.6576H51.2727H54.897V55.8273H54.9667ZM50.6455 47.9515H39.3546V45.4424H50.6455V47.9515V47.9515ZM54.9667 44.0485H35.0333V37.5667H55.0364V44.0485H54.9667Z" fill="url(#paint2_linear)"/>
<rect width="4.74249" height="4.73939" fill="black" fill-opacity="0" transform="translate(48.4818 38.4728)"/>
<path d="M50.8545 43.2122C52.1788 43.2122 53.2242 42.1667 53.2242 40.8425C53.2242 39.5182 52.1788 38.4728 50.8545 38.4728C49.5303 38.4728 48.4849 39.5182 48.4849 40.8425C48.4152 42.097 49.5303 43.2122 50.8545 43.2122ZM50.8545 39.797C51.4121 39.797 51.8303 40.2152 51.8303 40.7728C51.8303 41.3304 51.4121 41.7485 50.8545 41.7485C50.297 41.7485 49.8788 41.3304 49.8788 40.7728C49.8091 40.2849 50.297 39.797 50.8545 39.797Z" fill="url(#paint3_linear)"/>
<rect width="9.2" height="1.39394" fill="black" fill-opacity="0" transform="translate(37.3333 40.0757)"/>
<path d="M38.0303 41.4696H45.8363C46.2545 41.4696 46.5333 41.1908 46.5333 40.7727C46.5333 40.3545 46.2545 40.0757 45.8363 40.0757H38.0303C37.6121 40.0757 37.3333 40.3545 37.3333 40.7727C37.3333 41.1908 37.6818 41.4696 38.0303 41.4696Z" fill="url(#paint4_linear)"/>
<rect width="4.73939" height="4.73939" fill="black" fill-opacity="0" transform="translate(48.4849 50.1818)"/>
<path d="M50.8546 50.1818C49.5303 50.1818 48.4849 51.2272 48.4849 52.5515C48.4849 53.8757 49.5303 54.9212 50.8546 54.9212C52.1788 54.9212 53.2243 53.8757 53.2243 52.5515C53.2243 51.2969 52.1091 50.1818 50.8546 50.1818ZM50.8546 53.5969C50.297 53.5969 49.8788 53.1787 49.8788 52.6212C49.8788 52.0636 50.297 51.6454 50.8546 51.6454C51.4121 51.6454 51.8303 52.0636 51.8303 52.6212C51.8303 53.109 51.3424 53.5969 50.8546 53.5969Z" fill="url(#paint5_linear)"/>
<rect width="9.2" height="1.39394" fill="black" fill-opacity="0" transform="translate(37.3333 51.8545)"/>
<path d="M45.8363 51.8545H38.0303C37.6121 51.8545 37.3333 52.1333 37.3333 52.5515C37.3333 52.9696 37.6121 53.2484 38.0303 53.2484H45.8363C46.2545 53.2484 46.5333 52.9696 46.5333 52.5515C46.5333 52.203 46.2545 51.8545 45.8363 51.8545Z" fill="url(#paint6_linear)"/>
<rect width="4.73939" height="4.73939" fill="black" fill-opacity="0" transform="translate(48.4849 61.9607)"/>
<path d="M50.8546 61.9607C49.5303 61.9607 48.4849 63.0061 48.4849 64.3304C48.4849 65.6546 49.5303 66.7001 50.8546 66.7001C52.1788 66.7001 53.2243 65.6546 53.2243 64.3304C53.2243 63.0061 52.1091 61.9607 50.8546 61.9607ZM50.8546 65.3758C50.297 65.3758 49.8788 64.9577 49.8788 64.4001C49.8788 63.8425 50.297 63.4243 50.8546 63.4243C51.4121 63.4243 51.8303 63.8425 51.8303 64.4001C51.8303 64.888 51.3424 65.3758 50.8546 65.3758Z" fill="url(#paint7_linear)"/>
<rect width="9.2" height="1.39394" fill="black" fill-opacity="0" transform="translate(37.3333 63.6334)"/>
<path d="M45.8363 63.6334H38.0303C37.6121 63.6334 37.3333 63.9122 37.3333 64.3304C37.3333 64.7486 37.6121 65.0274 38.0303 65.0274H45.8363C46.2545 65.0274 46.5333 64.7486 46.5333 64.3304C46.5333 63.9819 46.2545 63.6334 45.8363 63.6334Z" fill="url(#paint8_linear)"/>
<rect width="9.96666" height="13.5212" fill="black" fill-opacity="0" transform="translate(58.0334 51.2272)"/>
<path d="M64.4455 51.4363C64.3061 51.2969 64.1667 51.2272 63.9576 51.2272C63.7485 51.2272 63.6091 51.2969 63.4697 51.4363L60.1243 54.8514C59.8455 55.1302 59.8455 55.5484 60.1243 55.8272C60.4031 56.106 60.8212 56.106 61.1 55.8272L63.2606 53.6666V63.3544H58.7303C58.3121 63.3544 58.0334 63.6332 58.0334 64.0514C58.0334 64.4696 58.3121 64.7484 58.7303 64.7484H63.9576C64.3758 64.7484 64.6546 64.4696 64.6546 64.0514V53.6666L66.8152 55.8272C67.094 56.106 67.5121 56.106 67.7909 55.8272C68.0697 55.5484 68.0697 55.1302 67.7909 54.8514L64.4455 51.4363Z" fill="url(#paint9_linear)"/>
<rect width="9.97564" height="13.5212" fill="black" fill-opacity="0" transform="translate(22 51.2272)"/>
<path d="M31.3394 63.2847H26.7394V53.6666L28.9 55.8272C29.1788 56.106 29.597 56.106 29.8758 55.8272C30.1545 55.5484 30.1545 55.1302 29.8758 54.8514L26.5303 51.4363C26.3909 51.2969 26.2515 51.2272 26.0424 51.2272C25.8333 51.2272 25.6939 51.2969 25.5545 51.4363L22.2091 54.8514C21.9303 55.1302 21.9303 55.5484 22.2091 55.8272C22.4879 56.106 22.9061 56.106 23.1848 55.8272L25.3455 53.6666V64.0514C25.3455 64.4696 25.6242 64.7484 26.0424 64.7484H31.2697C31.6879 64.7484 31.9667 64.4696 31.9667 64.0514C32.0364 63.6332 31.6879 63.2847 31.3394 63.2847Z" fill="url(#paint10_linear)"/>
<defs>
<linearGradient id="paint0_linear" x1="0" y1="0" x2="0.621212" y2="52.8684" gradientUnits="userSpaceOnUse">
<stop stop-color="#F41E3D"/>
<stop offset="1" stop-color="#D5122E"/>
</linearGradient>
<linearGradient id="paint1_linear" x1="22.0697" y1="23" x2="22.3663" y2="49.0974" gradientUnits="userSpaceOnUse">
<stop stop-color="#F41E3D"/>
<stop offset="1" stop-color="#D5122E"/>
</linearGradient>
<linearGradient id="paint2_linear" x1="33.6394" y1="36.1727" x2="34.6232" y2="69.641" gradientUnits="userSpaceOnUse">
<stop stop-color="#F41E3D"/>
<stop offset="1" stop-color="#D5122E"/>
</linearGradient>
<linearGradient id="paint3_linear" x1="48.4818" y1="38.4728" x2="48.5803" y2="43.3069" gradientUnits="userSpaceOnUse">
<stop stop-color="#F41E3D"/>
<stop offset="1" stop-color="#D5122E"/>
</linearGradient>
<linearGradient id="paint4_linear" x1="37.3333" y1="40.0757" x2="37.3377" y2="41.4981" gradientUnits="userSpaceOnUse">
<stop stop-color="#F41E3D"/>
<stop offset="1" stop-color="#D5122E"/>
</linearGradient>
<linearGradient id="paint5_linear" x1="48.4849" y1="50.1818" x2="48.5835" y2="55.0159" gradientUnits="userSpaceOnUse">
<stop stop-color="#F41E3D"/>
<stop offset="1" stop-color="#D5122E"/>
</linearGradient>
<linearGradient id="paint6_linear" x1="37.3333" y1="51.8545" x2="37.3377" y2="53.2769" gradientUnits="userSpaceOnUse">
<stop stop-color="#F41E3D"/>
<stop offset="1" stop-color="#D5122E"/>
</linearGradient>
<linearGradient id="paint7_linear" x1="48.4849" y1="61.9607" x2="48.5835" y2="66.7948" gradientUnits="userSpaceOnUse">
<stop stop-color="#F41E3D"/>
<stop offset="1" stop-color="#D5122E"/>
</linearGradient>
<linearGradient id="paint8_linear" x1="37.3333" y1="63.6334" x2="37.3377" y2="65.0558" gradientUnits="userSpaceOnUse">
<stop stop-color="#F41E3D"/>
<stop offset="1" stop-color="#D5122E"/>
</linearGradient>
<linearGradient id="paint9_linear" x1="58.0334" y1="51.2272" x2="58.4151" y2="65.0138" gradientUnits="userSpaceOnUse">
<stop stop-color="#F41E3D"/>
<stop offset="1" stop-color="#D5122E"/>
</linearGradient>
<linearGradient id="paint10_linear" x1="22" y1="51.2272" x2="22.3814" y2="65.0138" gradientUnits="userSpaceOnUse">
<stop stop-color="#F41E3D"/>
<stop offset="1" stop-color="#D5122E"/>
</linearGradient>
</defs>
</svg>
