<svg width="90" height="69" viewBox="0 0 90 69" fill="none" xmlns="http://www.w3.org/2000/svg">
<rect width="90" height="69" fill="black" fill-opacity="0"/>
<path d="M62.7273 13.6364C70.8004 13.6364 77.5926 19.5106 78.9271 27.3307C85.1421 27.9337 90 33.1722 90 39.5455C90 46.3235 84.5053 51.8182 77.7273 51.8182H69.5455C68.7923 51.8182 68.1818 51.2077 68.1818 50.4545C68.1818 49.7014 68.7923 49.0909 69.5455 49.0909H77.7273C82.9991 49.0909 87.2727 44.8173 87.2727 39.5455C87.2727 34.2736 82.9991 30 77.7273 30C77.0257 30 76.4386 29.4677 76.3701 28.7695C75.6827 21.7619 69.79 16.3636 62.7273 16.3636C61.4539 16.3636 60.2052 16.5378 59.0051 16.8775C58.3215 17.071 57.6039 16.7072 57.3559 16.0415C54.3979 8.10174 46.7962 2.72727 38.1818 2.72727C28.7897 2.72727 20.6703 9.11157 18.3683 18.0802C18.2186 18.6631 17.7045 19.0791 17.1031 19.1036C9.08559 19.4313 2.72727 26.0389 2.72727 34.0909C2.72727 42.3752 9.443 49.0909 17.7273 49.0909H20.4545C21.2077 49.0909 21.8182 49.7014 21.8182 50.4545C21.8182 51.2077 21.2077 51.8182 20.4545 51.8182H17.7273C7.93677 51.8182 0 43.8814 0 34.0909C0 24.9112 6.99176 17.3206 15.9935 16.4474C18.9192 6.7847 27.8734 0 38.1818 0C47.5314 0 55.8282 5.58627 59.4582 13.9632C60.526 13.7466 61.6197 13.6364 62.7273 13.6364Z" fill="url(#paint0_linear)"/>
<rect width="40" height="52" fill="black" fill-opacity="0" transform="translate(24 17)"/>
<rect width="27.3171" height="27.1419" fill="black" fill-opacity="0" transform="translate(24 17)"/>
<path d="M37.6585 37.2027C41.3836 37.2027 44.3104 34.2162 44.3104 30.6149C44.3104 27.0135 41.2949 24.027 37.6585 24.027C34.0222 24.027 31.0067 27.0135 31.0067 30.6149C31.0067 34.2162 33.9335 37.2027 37.6585 37.2027ZM37.6585 25.7838C40.408 25.7838 42.5366 27.9797 42.5366 30.6149C42.5366 33.25 40.3193 35.4459 37.6585 35.4459C34.9091 35.4459 32.7805 33.25 32.7805 30.6149C32.7805 27.9797 34.9091 25.7838 37.6585 25.7838Z" fill="url(#paint1_linear)"/>
<path d="M28.4346 36.0608L26.9268 37.9932C26.6608 38.3446 26.6608 38.8716 27.0155 39.1351L29.0554 41.1554C29.4102 41.5068 29.8537 41.5068 30.2084 41.2432L32.1596 39.75C33.0466 40.277 34.0222 40.6284 34.9978 40.8919L35.3526 43.3514C35.4412 43.7905 35.796 44.1419 36.2395 44.1419H39.1663C39.6098 44.1419 39.9645 43.7905 40.0532 43.3514L40.408 40.8919C41.3836 40.6284 42.3592 40.277 43.2461 39.75L45.1973 41.2432C45.3747 41.3311 45.5521 41.4189 45.7295 41.4189C45.9956 41.4189 46.2616 41.3311 46.439 41.1554L48.4789 39.1351C48.6563 38.8716 48.6563 38.3446 48.3902 37.9932L46.8825 36.0608C47.4146 35.1824 47.7694 34.2162 48.0355 33.25L50.5188 32.8986C50.9623 32.8108 51.3171 32.4595 51.3171 32.0203V29.2095C51.3171 28.7703 50.9623 28.4189 50.5188 28.3311L48.0355 27.9797C47.7694 27.0135 47.4146 26.0473 46.8825 25.1689L48.3902 23.2365C48.6563 22.8851 48.5676 22.3581 48.3016 22.0068L46.2616 19.9865C45.9956 19.723 45.4634 19.6351 45.1086 19.8986L43.1574 21.3919C42.2705 20.8649 41.2949 20.5135 40.3193 20.25L39.9645 17.7905C39.8758 17.3514 39.5211 17 39.0776 17H36.2395C35.796 17 35.4412 17.3514 35.3526 17.7905L34.9978 20.25C34.0222 20.5135 33.0466 20.8649 32.1596 21.3919L30.2084 19.8986C29.8537 19.6351 29.3215 19.6351 29.0554 19.9865L26.9268 22.0068C26.5721 22.3581 26.5721 22.7973 26.8381 23.1486L28.3459 25.0811C27.8137 25.9595 27.459 26.9257 27.1929 27.8919L24.7982 28.3311C24.3548 28.4189 24 28.7703 24 29.2095V32.1081C24 32.5473 24.3548 32.8986 24.7982 32.9865L27.2816 33.3378C27.459 34.2162 27.8137 35.1824 28.4346 36.0608ZM25.7738 29.9122L28.0798 29.6486C28.4346 29.5608 28.7894 29.2973 28.7894 28.9459C29.0554 27.7162 29.4989 26.5743 30.2084 25.6081C30.3858 25.2568 30.3858 24.9054 30.2084 24.5541L28.7894 22.7095L29.765 21.7432L31.5388 23.1486C31.8049 23.4122 32.337 23.4122 32.6031 23.1486C33.5787 22.4459 34.7317 22.0068 35.9734 21.7432C36.3282 21.6554 36.5942 21.3919 36.6829 20.9527L36.949 18.6689H38.2794L38.5455 20.9527C38.6341 21.3041 38.9002 21.6554 39.255 21.7432C40.4967 22.0068 41.6497 22.4459 42.6253 23.1486C42.98 23.3243 43.3348 23.3243 43.6896 23.1486L45.5521 21.7432L46.5277 22.7095L45.1086 24.5541C44.8426 24.8176 44.8426 25.2568 45.1086 25.6081C45.8182 26.6622 46.2616 27.7162 46.5277 28.9459C46.6164 29.2973 46.8825 29.5608 47.2373 29.6486L49.5432 29.9122V31.2297L47.2373 31.4932C46.8825 31.5811 46.5277 31.8446 46.439 32.1959C46.1729 33.4257 45.7295 34.5676 45.02 35.5338C44.8426 35.8851 44.8426 36.2365 45.02 36.5878L46.439 38.4324L45.4634 39.3986L43.7783 37.9932C43.5122 37.7297 43.0687 37.7297 42.714 37.9932C41.7384 38.6959 40.5854 39.1351 39.3437 39.3986C38.9889 39.4865 38.7228 39.75 38.6341 40.1892L38.2794 42.3851H36.949L36.6829 40.1014C36.5942 39.75 36.3282 39.3986 35.9734 39.3108C34.7317 39.0473 33.5787 38.6081 32.6031 37.9054C32.2483 37.7297 31.8936 37.7297 31.5388 37.9054L29.6763 39.3108L28.7007 38.3446L30.1197 36.5878C30.3858 36.3243 30.3858 35.7973 30.1197 35.5338C29.4102 34.5676 28.9667 33.4257 28.7007 32.1959C28.612 31.8446 28.3459 31.5811 27.9024 31.4932L25.5965 31.2297V29.9122H25.7738Z" fill="url(#paint2_linear)"/>
<rect width="37.5166" height="35.5743" fill="black" fill-opacity="0" transform="translate(26.4834 33.4257)"/>
<path d="M63.0244 36.3243H54.3326L55.7517 34.9189C56.1064 34.5676 56.1064 34.0405 55.7517 33.6892C55.3969 33.3378 54.8647 33.3378 54.51 33.6892L51.4945 36.5878C51.3171 36.7635 51.2284 36.9392 51.2284 37.2027C51.2284 37.4662 51.3171 37.6419 51.4945 37.8176L54.51 40.7162C54.8647 41.0676 55.3969 41.0676 55.7517 40.7162C56.1064 40.3649 56.1064 39.8378 55.7517 39.4865L54.3326 38.0811H62.1375V46.5135H35.5299C34.9978 46.5135 34.643 46.8649 34.643 47.3919V50.1149C32.1596 50.5541 30.2084 52.6622 30.2084 55.2973C30.2084 57.1419 31.184 58.723 32.6031 59.6892H32.5144C29.1441 59.6014 26.4834 62.3243 26.4834 65.5743V68.1216C26.4834 68.6486 26.8381 69 27.3703 69H43.6009C44.133 69 44.4878 68.6486 44.4878 68.1216V65.5743C44.4878 62.3243 41.8271 59.6013 38.4568 59.6013C39.8758 58.6351 40.8514 57.0541 40.8514 55.2095C40.8514 52.6622 38.9002 50.4662 36.4169 50.027V48.1824H54.1552V50.027C51.6718 50.4662 49.7206 52.5743 49.7206 55.2095C49.7206 57.0541 50.6962 58.6351 52.1153 59.6013H52.0266C48.6563 59.6013 45.9956 62.3243 45.9956 65.5743V68.1216C45.9956 68.6486 46.3503 69 46.8825 69H63.1131C63.6452 69 64 68.6486 64 68.1216V65.5743C64 62.3243 61.3392 59.6013 57.969 59.6013C59.388 58.6351 60.3636 57.0541 60.3636 55.2095C60.3636 52.6622 58.4124 50.4662 55.929 50.027V48.1824H63.1131C63.6452 48.1824 64 47.8311 64 47.3041V37.2027C63.9113 36.6757 63.5565 36.3243 63.0244 36.3243ZM42.714 65.5743V67.2432H28.2572V65.5743C28.2572 63.2027 30.2084 61.3581 32.5144 61.3581H38.4568C40.7627 61.3581 42.714 63.2905 42.714 65.5743ZM39.0776 55.2973C39.0776 57.2297 37.4812 58.8108 35.5299 58.8108C33.5787 58.8108 31.9823 57.2297 31.9823 55.2973C31.9823 53.3649 33.5787 51.7838 35.5299 51.7838C37.4812 51.7838 39.0776 53.3649 39.0776 55.2973ZM62.1375 65.5743V67.2432H47.6807V65.5743C47.6807 63.2027 49.6319 61.3581 51.9379 61.3581H57.8803C60.2749 61.3581 62.1375 63.2905 62.1375 65.5743ZM58.5011 55.2973C58.5011 57.2297 56.9047 58.8108 54.9534 58.8108C53.0022 58.8108 51.4058 57.2297 51.4058 55.2973C51.4058 53.3649 53.0022 51.7838 54.9534 51.7838C56.9047 51.7838 58.5011 53.3649 58.5011 55.2973Z" fill="url(#paint3_linear)"/>
<defs>
<linearGradient id="paint0_linear" x1="0" y1="0" x2="0.621212" y2="52.8684" gradientUnits="userSpaceOnUse">
<stop stop-color="#F41E3D"/>
<stop offset="1" stop-color="#D5122E"/>
</linearGradient>
<linearGradient id="paint1_linear" x1="31.0067" y1="24.027" x2="31.2783" y2="37.4661" gradientUnits="userSpaceOnUse">
<stop stop-color="#F41E3D"/>
<stop offset="1" stop-color="#D5122E"/>
</linearGradient>
<linearGradient id="paint2_linear" x1="24" y1="17" x2="24.5614" y2="44.6844" gradientUnits="userSpaceOnUse">
<stop stop-color="#F41E3D"/>
<stop offset="1" stop-color="#D5122E"/>
</linearGradient>
<linearGradient id="paint3_linear" x1="26.4834" y1="33.4257" x2="27.1856" y2="69.7124" gradientUnits="userSpaceOnUse">
<stop stop-color="#F41E3D"/>
<stop offset="1" stop-color="#D5122E"/>
</linearGradient>
</defs>
</svg>
