<svg width="90" height="69" viewBox="0 0 90 69" fill="none" xmlns="http://www.w3.org/2000/svg">
<rect width="90" height="69" fill="black" fill-opacity="0"/>
<path d="M62.7273 13.6364C70.8004 13.6364 77.5927 19.5106 78.9271 27.3307C85.1421 27.9337 90 33.1722 90 39.5455C90 46.3235 84.5053 51.8182 77.7273 51.8182H69.5455C68.7923 51.8182 68.1818 51.2077 68.1818 50.4545C68.1818 49.7014 68.7923 49.0909 69.5455 49.0909H77.7273C82.9991 49.0909 87.2727 44.8173 87.2727 39.5455C87.2727 34.2736 82.9991 30 77.7273 30C77.0257 30 76.4386 29.4677 76.3701 28.7695C75.6827 21.7619 69.79 16.3636 62.7273 16.3636C61.4539 16.3636 60.2052 16.5378 59.0051 16.8775C58.3215 17.071 57.6039 16.7072 57.3559 16.0415C54.3979 8.10174 46.7962 2.72727 38.1818 2.72727C28.7897 2.72727 20.6703 9.11157 18.3683 18.0802C18.2186 18.6631 17.7045 19.0791 17.1031 19.1036C9.08559 19.4313 2.72727 26.0389 2.72727 34.0909C2.72727 42.3752 9.443 49.0909 17.7273 49.0909H20.4545C21.2077 49.0909 21.8182 49.7014 21.8182 50.4545C21.8182 51.2077 21.2077 51.8182 20.4545 51.8182H17.7273C7.93677 51.8182 0 43.8814 0 34.0909C0 24.9112 6.99176 17.3206 15.9935 16.4474C18.9192 6.7847 27.8734 0 38.1818 0C47.5314 0 55.8282 5.58627 59.4582 13.9632C60.526 13.7466 61.6197 13.6364 62.7273 13.6364Z" fill="url(#paint0_linear)"/>
<rect width="40" height="40" fill="black" fill-opacity="0" transform="translate(25 29)"/>
<path d="M64.9908 44.1624C64.9908 43.3829 64.659 42.6329 64.081 42.1053C63.5039 41.5786 62.7225 41.3205 61.9522 41.3923C60.5449 41.5255 59.4427 42.7902 59.4427 44.2715L59.4431 49.4102C59.078 49.531 58.7435 49.7226 58.476 49.9918C58.4209 50.0426 57.1198 51.2422 56.8186 51.5497C56.6098 51.7627 56.3979 51.9838 56.182 52.2088C55.126 53.3113 54.0336 54.4512 52.7827 55.1874C52.4912 55.3581 52.2056 55.5159 51.927 55.6692C50.4917 56.4606 49.1359 57.2084 48.2456 59.0462C47.4753 60.6269 47.143 62.5244 47.1994 65.016L47.0448 68.2054C47.024 68.6377 47.3674 68.9995 47.7987 68.9995H47.7992C48.2016 68.9995 48.5335 68.6827 48.553 68.2789L48.7085 65.0623C48.7085 65.0458 48.709 65.0289 48.709 65.0124C48.6548 62.7566 48.9382 61.0725 49.6023 59.7098C50.2838 58.3033 51.3295 57.7267 52.6538 56.9963C52.9439 56.8367 53.2411 56.6723 53.545 56.4941C54.9772 55.6514 56.1953 54.3799 57.2704 53.2578C57.4818 53.0372 57.6897 52.8202 57.895 52.6108C58.1229 52.3777 59.1286 51.4459 59.52 51.0845C59.9052 50.6985 60.5835 50.6985 60.9691 51.0845C61.1619 51.2779 61.2681 51.5368 61.2685 51.8135C61.2685 52.0898 61.1632 52.3483 60.9718 52.5404L55.2233 58.3069C54.975 58.556 54.9306 58.9442 55.1162 59.2432C55.158 59.3105 55.2149 59.396 55.2975 59.4865C55.5218 59.7321 55.8683 59.8172 56.1718 59.6826C56.4516 59.5587 56.5978 59.3096 56.6164 59.0507L56.9421 58.724L61.9367 53.7137C62.7261 52.9218 62.9926 51.7097 62.5133 50.6981C62.1814 49.998 61.6066 49.5742 60.9522 49.3835L60.9518 44.272C60.9518 43.5634 61.4533 42.9609 62.093 42.9003C62.1344 42.8963 62.1752 42.8945 62.2161 42.8945C62.5306 42.8945 62.8278 43.0099 63.0641 43.2256C63.3285 43.4672 63.4804 43.8085 63.4804 44.1628V56.0092C63.4804 56.31 63.3827 56.6389 63.1512 56.7962L62.7794 57.1692L56.6626 63.3061C56.4299 63.5391 56.2193 63.7446 56.0047 63.8841C55.8062 64.0133 55.66 64.2089 55.6289 64.4442L55.1398 68.143C55.0798 68.5967 55.4317 68.9995 55.8879 68.9995C56.2664 68.9995 56.5862 68.7183 56.636 68.3418L57.082 64.9701C57.3374 64.7695 57.5565 64.5498 57.7297 64.3765L64.2258 57.8599C64.4075 57.6777 64.5954 57.4887 64.7714 57.2712C64.9308 57.0738 65.0361 57.048 64.973 56.8203C65.0206 56.6322 64.9908 56.2111 64.9908 56.0088V44.1624Z" fill="url(#paint1_linear)"/>
<path d="M25.2287 57.2717C25.4086 57.4941 25.6067 57.6924 25.7808 57.8671L32.2703 64.3774C32.4431 64.5508 32.6626 64.7705 32.918 64.9706L33.3636 68.3423C33.4133 68.7188 33.7332 69 34.1117 69C34.5679 69 34.9198 68.5972 34.8598 68.1435L34.3707 64.4447C34.3396 64.2094 34.1934 64.0138 33.9948 63.8846C33.7803 63.7446 33.5697 63.5396 33.3369 63.3066L27.2197 57.1692L26.8479 56.7958C26.6165 56.6385 26.5187 56.31 26.5187 56.0092V44.1624C26.5187 43.8081 26.6707 43.4668 26.935 43.2252C27.1713 43.0095 27.4685 42.8941 27.7826 42.8941C27.8235 42.8941 27.8643 42.8959 27.9056 42.8999C28.5458 42.9605 29.0473 43.563 29.0473 44.2716V49.3831C28.393 49.5733 27.8177 49.9976 27.4863 50.6977C27.0069 51.7093 27.2735 52.9214 28.0634 53.7133L33.0575 58.7232L33.3649 59.0316C33.3756 59.2677 33.4973 59.4999 33.7265 59.6465C34.0308 59.8413 34.42 59.7767 34.6723 59.5177C34.77 59.4175 34.8367 59.3186 34.8838 59.2423C35.0695 58.9433 35.0255 58.5552 34.7767 58.3061L29.0282 52.5408C28.8363 52.3483 28.7315 52.0903 28.7315 51.814C28.7319 51.5373 28.8386 51.2784 29.0309 51.0849C29.4161 50.699 30.0718 50.6767 30.5027 51.1068C30.8709 51.4464 31.8767 52.3786 32.1055 52.6117C32.3103 52.8207 32.5182 53.0377 32.7301 53.2588C33.8047 54.3804 35.0224 55.6514 36.4555 56.4945C36.7585 56.6724 37.0561 56.8363 37.3457 56.9959C38.6696 57.7263 39.7158 58.3029 40.3977 59.7107C41.0614 61.0717 41.3448 62.7562 41.2906 65.012C41.2906 65.0285 41.291 65.0454 41.291 65.0619L41.4465 68.2785C41.4661 68.6818 41.7979 68.9991 42.2004 68.9991C42.6318 68.9991 42.9752 68.6373 42.9543 68.2055L42.7997 65.0156C42.8565 62.524 42.5238 60.6265 41.7539 59.0472C40.8632 57.2076 39.5074 56.4602 38.0721 55.6688C37.7935 55.515 37.5079 55.3577 37.2174 55.1875C35.9655 54.4508 34.8736 53.3109 33.8176 52.2088C33.6017 51.9834 33.3898 51.7619 33.181 51.5493C32.8789 51.2409 31.5786 50.0422 31.5462 50.0132C31.2645 49.7307 30.9243 49.5337 30.556 49.4111V44.272C30.556 42.7907 29.4538 41.526 28.0465 41.3928C26.7897 41.2747 25.5472 42.0233 25.1225 43.362C25.0416 43.6196 25.0092 43.8919 25.0092 44.1624V56.0088C25.0092 56.2111 24.9794 56.6327 25.027 56.8203C24.9643 57.0485 25.0692 57.0743 25.2287 57.2717Z" fill="url(#paint2_linear)"/>
<path d="M54.1935 38.6365C55.3872 37.9448 55.7977 36.4083 55.1087 35.2104L54.4956 34.1449C54.0505 33.3713 53.2202 32.8904 52.3295 32.8904C51.8924 32.8904 51.4606 33.0067 51.0808 33.2264L50.6756 33.4608C50.6623 33.4684 50.6507 33.4702 50.6432 33.4702C49.8746 32.849 49.0364 32.3637 48.1319 32.0219C48.1274 32.0201 48.1137 32.0032 48.1137 31.9764V31.508C48.1137 30.1252 46.992 29 45.6135 29H44.3869C43.0085 29 41.8868 30.1252 41.8868 31.508V31.9769C41.8868 32.004 41.873 32.0205 41.8685 32.0223C40.9641 32.3641 40.1258 32.8494 39.3768 33.4648C39.3657 33.4671 39.3573 33.468 39.3506 33.468C39.3386 33.468 39.3315 33.4653 39.3248 33.4613L38.9201 33.2269C38.5403 33.0072 38.1085 32.8909 37.6714 32.8909C36.7802 32.8909 35.9499 33.3713 35.5048 34.1453L34.8918 35.2109C34.2027 36.4083 34.6132 37.9453 35.8069 38.6365L36.2072 38.8686C36.2285 38.8811 36.2382 38.8998 36.2365 38.911C36.1574 39.3883 36.1174 39.874 36.1174 40.3548C36.1174 40.8357 36.1574 41.3214 36.2365 41.7987C36.2382 41.8099 36.2289 41.829 36.2072 41.8411L35.8069 42.0732C34.6132 42.7649 34.2027 44.3014 34.8918 45.4988L35.5048 46.5644C35.9499 47.338 36.7802 47.8188 37.6709 47.8188C38.1081 47.8188 38.5399 47.7025 38.9197 47.4828L39.3248 47.2484C39.3382 47.2408 39.3497 47.2391 39.3573 47.2391C40.1258 47.8603 40.9641 48.3456 41.8685 48.6874C41.873 48.6892 41.8868 48.7061 41.8868 48.7328V49.2012C41.8868 50.584 43.0085 51.7093 44.3869 51.7093H45.6135C46.992 51.7093 48.1137 50.584 48.1137 49.2012V48.7328C48.1137 48.7057 48.1274 48.6892 48.1319 48.6874C49.0359 48.3456 49.8742 47.8603 50.6236 47.2449C50.6347 47.2431 50.6432 47.2422 50.6498 47.2422C50.6618 47.2422 50.6689 47.2449 50.6756 47.2489L51.0803 47.4833C51.4601 47.703 51.8919 47.8193 52.3291 47.8193C53.2202 47.8193 54.0505 47.3384 54.4956 46.5648L55.1087 45.4993C55.7977 44.3019 55.3872 42.7649 54.1935 42.0737L53.7933 41.8415C53.772 41.829 53.7622 41.8103 53.764 41.7992C53.843 41.3219 53.883 40.8361 53.883 40.3553C53.883 39.8745 53.843 39.3887 53.764 38.9114C53.7622 38.8998 53.7715 38.8811 53.7933 38.8686L54.1935 38.6365ZM53.5179 37.4622L53.1176 37.6944C52.6134 37.9863 52.3357 38.5567 52.4312 39.1329C52.497 39.5304 52.5321 39.9386 52.5321 40.3548C52.5321 40.7711 52.497 41.1793 52.4312 41.5768C52.3362 42.1526 52.6138 42.723 53.1176 43.0153L53.5179 43.2475C54.0674 43.5657 54.2557 44.2707 53.9385 44.8219L53.3255 45.8874C53.1127 46.2573 52.7267 46.4641 52.3295 46.4641C52.1345 46.4641 51.9372 46.4142 51.756 46.3095L51.3513 46.0751C51.1309 45.9476 50.8866 45.8843 50.6432 45.8843C50.3304 45.8843 50.0199 45.989 49.7671 46.1967C49.1399 46.7123 48.4282 47.1277 47.6557 47.4195C47.1137 47.6245 46.7627 48.1526 46.7627 48.7337V49.2021C46.7627 49.8385 46.2483 50.3545 45.6139 50.3545H44.3874C43.753 50.3545 43.2386 49.8385 43.2386 49.2021V48.7337C43.2386 48.1526 42.8876 47.6245 42.3457 47.4195C41.5731 47.1277 40.8615 46.7123 40.2342 46.1967C39.9814 45.989 39.6709 45.8843 39.3581 45.8843C39.1151 45.8843 38.8704 45.9476 38.65 46.0751L38.2449 46.3095C38.0641 46.4142 37.8664 46.4641 37.6718 46.4641C37.2747 46.4641 36.8886 46.2573 36.6758 45.8879L36.0623 44.8219C35.7451 44.2707 35.9335 43.5661 36.4826 43.2475L36.8828 43.0153C37.3871 42.7234 37.6647 42.153 37.5692 41.5768C37.5034 41.1793 37.4683 40.7711 37.4683 40.3548C37.4683 39.9386 37.5034 39.5304 37.5692 39.1329C37.6647 38.5571 37.3866 37.9867 36.8828 37.6944L36.4826 37.4622C35.9331 37.144 35.7451 36.439 36.0623 35.8878L36.6754 34.8223C36.8882 34.4524 37.2742 34.2456 37.6714 34.2456C37.8664 34.2456 38.0636 34.2955 38.2449 34.4002L38.6496 34.6346C38.8699 34.7621 39.1143 34.8254 39.3577 34.8254C39.6704 34.8254 39.981 34.7207 40.2337 34.513C40.861 33.9974 41.5727 33.582 42.3452 33.2902C42.8872 33.0852 43.2381 32.5571 43.2381 31.976V31.5076C43.2381 30.8712 43.7526 30.3552 44.3869 30.3552H45.6135C46.2479 30.3552 46.7623 30.8712 46.7623 31.5076V31.9769C46.7623 32.558 47.1132 33.0861 47.6552 33.291C48.4277 33.5829 49.1394 33.9983 49.7667 34.5139C50.0195 34.7215 50.33 34.8263 50.6427 34.8263C50.8857 34.8263 51.1305 34.763 51.3508 34.6355L51.756 34.4011C51.9368 34.2964 52.1345 34.2465 52.3291 34.2465C52.7262 34.2465 53.1123 34.4533 53.3251 34.8227L53.9385 35.8887C54.2557 36.4395 54.0674 37.144 53.5179 37.4622Z" fill="url(#paint3_linear)"/>
<path d="M45 35.9502C42.5789 35.9502 40.6096 37.9262 40.6096 40.3549C40.6096 42.7836 42.5789 44.7591 45 44.7591C47.4211 44.7591 49.3909 42.7832 49.3909 40.3544C49.3909 37.9257 47.4211 35.9502 45 35.9502ZM45 43.4035C43.3212 43.4035 41.9605 42.0385 41.9605 40.3544C41.9605 38.6704 43.3212 37.3054 45 37.3054C46.6788 37.3054 48.0395 38.6704 48.0395 40.3544C48.0395 42.0385 46.6788 43.4035 45 43.4035Z" fill="url(#paint4_linear)"/>
<defs>
<linearGradient id="paint0_linear" x1="0" y1="0" x2="0.621212" y2="52.8684" gradientUnits="userSpaceOnUse">
<stop stop-color="#F41E3D"/>
<stop offset="1" stop-color="#D5122E"/>
</linearGradient>
<linearGradient id="paint1_linear" x1="47.0439" y1="41.3805" x2="47.9277" y2="69.5355" gradientUnits="userSpaceOnUse">
<stop stop-color="#F41E3D"/>
<stop offset="1" stop-color="#D5122E"/>
</linearGradient>
<linearGradient id="paint2_linear" x1="25" y1="41.3806" x2="25.8839" y2="69.5359" gradientUnits="userSpaceOnUse">
<stop stop-color="#F41E3D"/>
<stop offset="1" stop-color="#D5122E"/>
</linearGradient>
<linearGradient id="paint3_linear" x1="34.5575" y1="29" x2="35.0714" y2="52.1613" gradientUnits="userSpaceOnUse">
<stop stop-color="#F41E3D"/>
<stop offset="1" stop-color="#D5122E"/>
</linearGradient>
<linearGradient id="paint4_linear" x1="40.6096" y1="35.9502" x2="40.7935" y2="44.9351" gradientUnits="userSpaceOnUse">
<stop stop-color="#F41E3D"/>
<stop offset="1" stop-color="#D5122E"/>
</linearGradient>
</defs>
</svg>
