<svg width="84" height="80" viewBox="0 0 84 80" fill="none" xmlns="http://www.w3.org/2000/svg">
<rect width="84" height="80" fill="black" fill-opacity="0"/>
<path d="M29.8183 0C29.6959 0 29.5784 0.013754 29.4572 0.0175045C29.4272 0.0162543 29.4009 0 29.3697 0C23.7622 0 19.167 4.46056 18.7833 10.0875C18.1222 9.95875 17.4561 9.88874 16.7875 9.88874C10.7638 9.88874 5.86369 14.8906 5.86369 21.0401C5.86369 23.8517 6.87221 26.4733 8.65432 28.4848C7.97072 28.6323 7.31337 28.8524 6.68351 29.1249C2.77188 30.7263 0 34.6281 0 39.1849C0 39.1987 0.00749659 39.2099 0.00749659 39.2212C0.00749659 39.2799 0 39.3362 0 39.3949C0 44.7281 3.68668 49.1974 8.59558 50.2888C6.85097 52.2953 5.86244 54.8956 5.86244 57.6635C5.86244 63.8105 10.7626 68.8124 16.7863 68.8124C17.4998 68.8124 18.2047 68.7423 18.8958 68.6048C18.8945 68.6823 18.8933 68.7636 18.8933 68.8486C18.8933 74.9981 23.7934 80 29.8171 80C35.8407 80 40.7422 74.9981 40.7422 68.8486V11.8815C40.7434 5.55195 35.6383 0 29.8183 0ZM38.244 68.8486C38.244 73.618 34.4648 77.4997 29.8183 77.4997C25.1719 77.4997 21.394 73.6192 21.394 68.8486C21.394 68.276 21.434 68.1548 21.5839 67.7085C21.6339 67.5622 21.6902 67.3872 21.7526 67.1846C24.9907 65.3257 27.1864 61.7877 27.1864 57.731C27.1864 57.0396 26.6266 56.4808 25.9367 56.4808C25.2469 56.4808 24.687 57.0396 24.687 57.731C24.687 62.3315 21.0428 66.0745 16.5638 66.0745C12.0848 66.0745 8.44062 62.3315 8.44062 57.731C8.44062 57.6222 8.40437 57.5247 8.37813 57.4234C8.45561 54.5068 9.92778 51.859 12.3685 50.3088C12.8546 50.0013 13.0671 49.3987 12.8821 48.8536C12.6972 48.3085 12.1673 47.9447 11.5912 48.0085C11.3712 48.0273 11.1488 48.0423 10.9238 48.0423C6.2786 48.0423 2.49944 44.1618 2.49944 39.3937C2.49944 35.8382 4.60147 32.7791 7.59455 31.4502C8.53185 31.0601 9.55162 30.8426 10.6226 30.8426C15.1016 30.8426 18.7458 34.5843 18.7458 39.1837C18.7458 39.875 19.3057 40.4338 19.9955 40.4338C20.6854 40.4338 21.2453 39.875 21.2453 39.1837C21.2453 33.8855 17.4973 29.4687 12.5659 28.5323C12.5397 28.5136 12.5235 28.4886 12.496 28.4711C9.90779 26.8921 8.36188 24.1143 8.36188 21.0389C8.36188 16.2695 12.141 12.3878 16.7863 12.3878C17.4998 12.3878 18.2109 12.5178 18.9133 12.7103C19.7843 17.7985 24.1359 21.684 29.3684 21.684C30.0583 21.684 30.6182 21.1251 30.6182 20.4338C30.6182 19.7425 30.0583 19.1836 29.3684 19.1836C25.2969 19.1836 21.9251 16.0895 21.3427 12.0728C21.394 11.909 21.424 11.7377 21.4127 11.5714C21.404 11.4327 21.3927 11.2914 21.3927 11.1501C21.3927 6.3808 25.1719 2.49906 29.8171 2.49906C34.3048 2.49906 38.2427 6.88336 38.2427 11.8802V68.8486H38.244Z" fill="url(#paint0_linear)"/>
<path d="M84 39.1849C84 34.6281 81.2281 30.7263 77.3165 29.1249C76.6867 28.8524 76.0293 28.6323 75.3457 28.4848C77.1291 26.4733 78.1363 23.8517 78.1363 21.0401C78.1363 14.8906 73.2362 9.88874 67.2125 9.88874C66.4902 9.88874 65.7703 9.96375 65.0592 10.1125C64.5444 4.44931 59.8629 0 54.1817 0C48.3617 0 43.2566 5.55195 43.2566 11.8815V68.8486C43.2566 74.9981 48.1568 80 54.1817 80C60.2053 80 65.1055 74.9981 65.1055 68.8486C65.1055 68.7636 65.1042 68.6811 65.103 68.6048C65.7941 68.7423 66.4989 68.8124 67.2125 68.8124C73.2362 68.8124 78.1363 63.8105 78.1363 57.6635C78.1363 54.8944 77.149 52.2953 75.4032 50.2888C80.3121 49.1974 83.9988 44.7281 83.9988 39.3949C83.9988 39.3362 83.9925 39.2799 83.9913 39.2212C83.9925 39.2087 84 39.1974 84 39.1849ZM54.1829 68.8024C52.7982 68.8024 51.671 67.676 51.671 66.2908C51.671 64.9056 52.797 63.778 54.1829 63.778C55.5676 63.778 56.6936 64.9044 56.6936 66.2908C56.6936 67.676 55.5664 68.8024 54.1829 68.8024ZM67.2625 59.4849C65.8778 59.4849 64.7506 58.3585 64.7506 56.9734C64.7506 55.5882 65.8766 54.4606 67.2625 54.4606C68.6472 54.4606 69.7732 55.5869 69.7732 56.9734C69.7745 58.3573 68.6472 59.4849 67.2625 59.4849ZM73.0762 48.0423C72.8513 48.0423 72.6301 48.026 72.4089 48.0085C71.8352 47.9522 71.3029 48.3073 71.1179 48.8536C70.9329 49.3999 71.1454 50.0013 71.6315 50.3088C74.1397 51.9015 75.6369 54.6518 75.6369 57.6635C75.6369 61.9765 72.5413 65.5532 68.5122 66.1983V61.8077C70.6692 61.2489 72.2726 59.3024 72.2726 56.9734C72.2726 54.2093 70.0256 51.9602 67.2625 51.9602C64.4994 51.9602 62.2511 54.2093 62.2511 56.9734C62.2511 59.3024 63.8558 61.2489 66.0128 61.8077V66.2133C65.2979 66.1083 64.5981 65.9207 63.9258 65.6294C63.4796 65.4382 62.961 65.5194 62.5986 65.8432C62.2349 66.167 62.0924 66.6721 62.2336 67.1371C62.3024 67.3659 62.3636 67.5472 62.4161 67.7072C62.5661 68.1535 62.606 68.2748 62.606 68.8474C62.606 73.1804 59.4842 76.7696 55.4314 77.3922V71.1239C57.5884 70.5651 59.1931 68.6198 59.1931 66.2895C59.1931 63.5254 56.9461 61.2764 54.1829 61.2764C51.4198 61.2764 49.1715 63.5254 49.1715 66.2895C49.1715 68.6186 50.7762 70.5651 52.932 71.1239V77.3922C48.8779 76.7696 45.7561 73.1804 45.7561 68.8474V43.1404H49.3478C49.9064 45.2982 51.8535 46.9034 54.1829 46.9034C56.9461 46.9034 59.1931 44.6556 59.1931 41.8915C59.1931 39.1274 56.9461 36.8784 54.1829 36.8784C51.8547 36.8784 49.9089 38.4823 49.349 40.6401H45.7561V23.6255H54.1817H55.8238H61.1614C61.7212 25.7832 63.6658 27.3872 65.9953 27.3872C68.7584 27.3872 71.0054 25.1394 71.0054 22.3753C71.0054 19.6112 68.7584 17.3622 65.9953 17.3622C63.6658 17.3622 61.72 18.9674 61.1614 21.1251H57.0735V16.147C59.2306 15.5882 60.8352 13.643 60.8352 11.3127C60.8352 8.54857 58.5882 6.29954 55.8251 6.29954C53.0619 6.29954 50.8137 8.54857 50.8137 11.3127C50.8137 13.6417 52.4183 15.5882 54.5741 16.147V21.1251H54.1817H45.7561V11.8802C45.7561 6.88336 49.6927 2.49906 54.1817 2.49906C58.8269 2.49906 62.606 6.37955 62.606 11.1501C62.606 11.2914 62.5948 11.4327 62.5773 11.6915C62.5498 12.1165 62.7398 12.5266 63.0822 12.7791C63.4246 13.0316 63.8708 13.0941 64.2694 12.9416C65.2317 12.5741 66.2215 12.3891 67.2113 12.3891C71.8565 12.3891 75.6356 16.2695 75.6356 21.0401C75.6356 24.1155 74.091 26.8946 71.5016 28.4723C71.4753 28.4898 71.4578 28.5148 71.4316 28.5336C66.5002 29.4687 62.7523 33.8855 62.7523 39.1849C62.7523 39.8762 63.3121 40.4351 64.002 40.4351C64.6918 40.4351 65.2517 39.8762 65.2517 39.1849C65.2517 34.5856 68.8959 30.8439 73.3749 30.8439C74.4459 30.8439 75.4657 31.0626 76.403 31.4502C79.3961 32.7791 81.4981 35.8395 81.4981 39.3937C81.5006 44.163 77.7214 48.0423 73.0762 48.0423ZM51.671 41.8915C51.671 40.5063 52.797 39.3787 54.1829 39.3787C55.5676 39.3787 56.6936 40.5051 56.6936 41.8915C56.6936 43.2754 55.5676 44.4031 54.1829 44.4031C52.797 44.4018 51.671 43.2754 51.671 41.8915ZM55.8251 13.823C54.4404 13.823 53.3131 12.6966 53.3131 11.3114C53.3131 9.92624 54.4391 8.7986 55.8251 8.7986C57.2098 8.7986 58.3358 9.92499 58.3358 11.3114C58.3358 12.6966 57.2085 13.823 55.8251 13.823ZM63.4846 22.3753C63.4846 20.9901 64.6106 19.8625 65.9965 19.8625C67.3812 19.8625 68.5072 20.9889 68.5072 22.3753C68.5072 23.7592 67.3812 24.8869 65.9965 24.8869C64.6106 24.8869 63.4846 23.7605 63.4846 22.3753Z" fill="url(#paint1_linear)"/>
<defs>
<linearGradient id="paint0_linear" x1="0" y1="0" x2="3.26601" y2="81.5018" gradientUnits="userSpaceOnUse">
<stop stop-color="#F41E3D"/>
<stop offset="1" stop-color="#D5122E"/>
</linearGradient>
<linearGradient id="paint1_linear" x1="43.2566" y1="0" x2="46.5225" y2="81.5018" gradientUnits="userSpaceOnUse">
<stop stop-color="#F41E3D"/>
<stop offset="1" stop-color="#D5122E"/>
</linearGradient>
</defs>
</svg>
