<svg width="90" height="69" viewBox="0 0 90 69" fill="none" xmlns="http://www.w3.org/2000/svg">
<rect width="90" height="69" fill="black" fill-opacity="0"/>
<path d="M62.7273 13.6364C70.8004 13.6364 77.5927 19.5106 78.9271 27.3307C85.1421 27.9337 90 33.1722 90 39.5455C90 46.3235 84.5053 51.8182 77.7273 51.8182H69.5455C68.7923 51.8182 68.1818 51.2077 68.1818 50.4545C68.1818 49.7014 68.7923 49.0909 69.5455 49.0909H77.7273C82.9991 49.0909 87.2727 44.8173 87.2727 39.5455C87.2727 34.2736 82.9991 30 77.7273 30C77.0257 30 76.4386 29.4677 76.3701 28.7695C75.6827 21.7619 69.79 16.3636 62.7273 16.3636C61.4539 16.3636 60.2052 16.5378 59.0051 16.8775C58.3215 17.071 57.6039 16.7072 57.3559 16.0415C54.3979 8.10174 46.7962 2.72727 38.1818 2.72727C28.7897 2.72727 20.6703 9.11157 18.3683 18.0802C18.2186 18.6631 17.7045 19.0791 17.1031 19.1036C9.08559 19.4313 2.72727 26.0389 2.72727 34.0909C2.72727 42.3752 9.443 49.0909 17.7273 49.0909H20.4545C21.2077 49.0909 21.8182 49.7014 21.8182 50.4545C21.8182 51.2077 21.2077 51.8182 20.4545 51.8182H17.7273C7.93677 51.8182 0 43.8814 0 34.0909C0 24.9112 6.99176 17.3206 15.9935 16.4474C18.9192 6.7847 27.8734 0 38.1818 0C47.5314 0 55.8282 5.58627 59.4582 13.9632C60.526 13.7466 61.6197 13.6364 62.7273 13.6364Z" fill="url(#paint0_linear)"/>
<rect width="46" height="37" fill="black" fill-opacity="0" transform="translate(22 32)"/>
<path d="M32.0961 60.4685C32.3746 60.6124 32.6506 60.6855 32.9163 60.6853C33.302 60.6853 33.6456 60.5318 33.8841 60.2531C34.0757 60.0288 34.2812 59.6265 34.1688 58.9848L33.8544 57.1835L35.1872 55.9074C35.6506 55.4645 35.8224 54.9262 35.6597 54.4307C35.4966 53.935 35.0364 53.5984 34.3966 53.5073L32.5518 53.244L31.727 51.6034C31.4411 51.0342 30.9743 50.7078 30.4457 50.7078C29.9168 50.7078 29.4496 51.0344 29.1645 51.6034L28.3401 53.2442L26.4957 53.5073C25.8555 53.5984 25.3949 53.9352 25.2318 54.4311C25.0686 54.9268 25.2408 55.4649 25.7039 55.9072L27.0371 57.1836L26.7231 58.9836C26.6103 59.6257 26.815 60.0282 27.007 60.2529C27.4091 60.7243 28.1119 60.8213 28.7945 60.4685L30.4457 59.6163L32.0961 60.4685ZM28.4748 58.7565L28.8506 56.6015L27.2599 55.0784L29.459 54.7646L30.4457 52.8006L31.4328 54.7648L33.6316 55.0784L32.0409 56.6017L32.4171 58.7568L30.4457 57.7391L28.4748 58.7565Z" fill="url(#paint1_linear)"/>
<path d="M29.9527 47.0863L29.6874 45.4924L30.8051 44.3695C31.2291 43.943 31.3802 43.4276 31.2204 42.9554C31.0618 42.4883 30.6354 42.1702 30.0508 42.0831L28.5385 41.8562L27.855 40.4281C27.4805 39.6462 26.8819 39.5618 26.6417 39.5618C26.4011 39.5618 25.8021 39.6462 25.4289 40.4281L24.745 41.8562L23.2326 42.083C22.6472 42.1704 22.2204 42.4887 22.0622 42.9562C21.9024 43.4286 22.054 43.9438 22.4783 44.3696L23.5956 45.4924L23.3303 47.0855C23.2273 47.7006 23.4254 48.0849 23.61 48.2988C23.996 48.7476 24.6647 48.838 25.2978 48.4953L26.6413 47.767L27.9851 48.4953C28.2455 48.6364 28.5059 48.7078 28.7593 48.7078C29.1206 48.7078 29.4448 48.5629 29.6718 48.2996C29.8559 48.0861 30.0545 47.7022 29.9527 47.0863ZM27.8838 44.9297L28.1788 46.7025L26.6413 45.869L25.1046 46.7009L25.3992 44.9297L24.1093 43.6336L25.8878 43.3669L26.6417 41.7917L27.3956 43.3669L29.1729 43.6346L27.8838 44.9297Z" fill="url(#paint2_linear)"/>
<path d="M63.5047 53.5073L61.6598 53.2442L60.8359 51.6038C60.5504 51.0344 60.0832 50.7078 59.5542 50.7078C59.0257 50.7078 58.5589 51.0342 58.273 51.6032L57.4482 53.244L55.6034 53.5073C54.9636 53.5984 54.5034 53.935 54.3403 54.4307C54.1776 54.9262 54.3493 55.4645 54.8124 55.9072L56.1455 57.1835L55.8312 58.9846C55.7187 59.6265 55.9243 60.0288 56.1159 60.2533C56.5188 60.7235 57.2208 60.8213 57.9043 60.4685L59.5542 59.6163L61.2055 60.4685C61.4839 60.6124 61.7599 60.6853 62.0257 60.6853C62.4113 60.6853 62.7549 60.5318 62.993 60.2529C63.185 60.0284 63.3897 59.6259 63.2768 58.9848L62.9629 57.1836L64.2957 55.9076C64.7591 55.4649 64.9313 54.9268 64.7682 54.4311C64.6051 53.9352 64.1445 53.5984 63.5047 53.5073ZM61.1494 56.6015L61.5251 58.7565L59.5542 57.7391L57.5829 58.7568L57.9591 56.6017L56.3684 55.0784L58.5672 54.7648L59.5542 52.8006L60.5409 54.7646L62.7401 55.0784L61.1494 56.6015Z" fill="url(#paint3_linear)"/>
<path d="M67.9378 42.9562C67.7796 42.4887 67.3528 42.1704 66.7678 42.0831L65.255 41.8562L64.5716 40.4291C64.1979 39.6462 63.5989 39.5618 63.3583 39.5618C63.1181 39.5618 62.5195 39.6462 62.145 40.4284L61.4616 41.8562L59.9496 42.083C59.3646 42.1702 58.9382 42.4883 58.7796 42.9554C58.6198 43.4276 58.771 43.943 59.1953 44.3696L60.3126 45.4924L60.0473 47.0874C59.9455 47.7022 60.1441 48.0861 60.3282 48.2998C60.7151 48.7472 61.3829 48.8371 62.0149 48.4953L63.3587 47.767L64.7026 48.4955C64.9629 48.6364 65.2233 48.7078 65.4767 48.7078C65.8388 48.7078 66.163 48.5627 66.39 48.2988C66.5746 48.0849 66.7728 47.7006 66.6697 47.0863L66.4044 45.4924L67.5213 44.3701C67.9461 43.9438 68.0977 43.4286 67.9378 42.9562ZM64.6008 44.9297L64.8958 46.7023L63.3587 45.869L61.8212 46.7009L62.1162 44.9297L60.8263 43.6336L62.6044 43.3669L63.3583 41.7917L64.1122 43.3669L65.8899 43.6346L64.6008 44.9297Z" fill="url(#paint4_linear)"/>
<path d="M45 46.1348C48.9616 46.1348 52.1717 42.9706 52.1717 39.0666C52.1717 35.1633 48.9616 32 45 32C41.0401 32 37.8284 35.1633 37.8284 39.0666C37.8284 42.9706 41.0401 46.1348 45 46.1348ZM45 33.6629C48.0239 33.6629 50.4842 36.0871 50.4842 39.0666C50.4842 42.0472 48.0239 44.4719 45 44.4719C41.9761 44.4719 39.5158 42.0472 39.5158 39.0666C39.5158 36.0871 41.9761 33.6629 45 33.6629Z" fill="url(#paint5_linear)"/>
<path d="M49.7142 63.7118L51.9315 61.4823C52.5078 60.9038 52.7216 60.2272 52.5186 59.626C52.3179 59.0336 51.7506 58.6262 50.9625 58.5081L47.9275 58.0538L46.5639 55.2029C46.0584 54.1478 45.302 54.0337 45.0004 54.0337C44.698 54.0337 43.9412 54.1478 43.4378 55.2033L42.0733 58.0536L39.0379 58.5081C38.2494 58.6262 37.6817 59.034 37.4814 59.6268C37.2779 60.2282 37.4922 60.9046 38.0677 61.4817L40.2862 63.712L39.7617 66.8682C39.6196 67.7173 39.8734 68.2249 40.1111 68.5012C40.5972 69.066 41.4471 69.1614 42.2941 68.7024L45.0004 67.236L47.7059 68.7024C48.07 68.8999 48.4268 69.0002 48.7655 69C49.2128 69 49.6116 68.823 49.8885 68.5012C50.1266 68.2249 50.3808 67.7175 50.2391 66.8694L49.7142 63.7118ZM48.5739 67.1387C48.583 67.1931 48.5879 67.2407 48.5903 67.2812C48.5685 67.2713 48.545 67.2593 48.5191 67.2453L45.0004 65.3384L41.4813 67.2451C41.4554 67.2591 41.4319 67.2709 41.4105 67.281C41.4125 67.2402 41.4179 67.1927 41.427 67.1381L42.0898 63.1493L39.2719 60.317C39.2204 60.2648 39.1821 60.2189 39.1549 60.1809C39.1915 60.1706 39.2369 60.1604 39.2917 60.1523L43.2162 59.5647L44.9641 55.9118C44.9769 55.8854 44.9889 55.8617 45.0009 55.8403C45.0128 55.8619 45.0251 55.8858 45.0379 55.9126L46.7847 59.5644L50.7087 60.1523C50.7635 60.1604 50.8088 60.1706 50.8451 60.1809C50.8175 60.2191 50.7792 60.2652 50.7269 60.3177L47.9106 63.1495L48.5739 67.1387Z" fill="url(#paint6_linear)"/>
<path d="M33.51 51.4041C33.9632 50.5998 34.4913 49.8875 35.1006 49.2708C36.4358 47.9193 38.202 46.9938 40.3731 46.4979C39.7749 46.1348 39.2183 45.7113 38.7252 45.2229C35.8257 46.1518 33.8396 47.8154 32.4895 49.8637C32.7853 50.1384 33.042 50.4723 33.2394 50.8655L33.51 51.4041Z" fill="url(#paint7_linear)"/>
<path d="M32.0162 62.6968C31.7406 62.6968 31.521 62.4821 31.5165 62.2965C31.514 62.2064 31.5148 62.1207 31.5128 62.0314C31.446 62.0016 31.3793 61.9758 31.313 61.9417L30.4453 61.4937L29.8187 61.8173C29.8216 61.9926 29.8249 62.1676 29.8294 62.3407C29.8591 63.457 30.8585 64.3597 32.0162 64.3597H38.469L38.483 64.2745L36.9134 62.6968H32.0162Z" fill="url(#paint8_linear)"/>
<path d="M49.5321 46.5548C51.6492 47.0746 53.3882 48.0084 54.725 49.352C55.3636 49.9941 55.9206 50.7405 56.3981 51.5862L56.7606 50.8651C56.9291 50.5296 57.143 50.2393 57.3848 49.989C56.0211 47.9418 54.0404 46.2659 51.1887 45.3025C50.6906 45.7828 50.1332 46.2001 49.5321 46.5548Z" fill="url(#paint9_linear)"/>
<path d="M58.6874 61.9415C58.624 61.9744 58.5577 61.9944 58.4934 62.0231C58.4922 62.1189 58.4938 62.2115 58.4917 62.3081C58.4881 62.4841 58.2681 62.6968 58.0003 62.6968H53.0863L51.5174 64.2743L51.5314 64.3597H58.0003C59.1563 64.3597 60.1565 63.457 60.1788 62.3407C60.1821 62.1682 60.1842 61.994 60.1854 61.8195L59.5547 61.4937L58.6874 61.9415Z" fill="url(#paint10_linear)"/>
<defs>
<linearGradient id="paint0_linear" x1="0" y1="0" x2="0.621212" y2="52.8684" gradientUnits="userSpaceOnUse">
<stop stop-color="#F41E3D"/>
<stop offset="1" stop-color="#D5122E"/>
</linearGradient>
<linearGradient id="paint1_linear" x1="25.1716" y1="50.7078" x2="25.3681" y2="60.8851" gradientUnits="userSpaceOnUse">
<stop stop-color="#F41E3D"/>
<stop offset="1" stop-color="#D5122E"/>
</linearGradient>
<linearGradient id="paint2_linear" x1="22" y1="39.5618" x2="22.1876" y2="48.8907" gradientUnits="userSpaceOnUse">
<stop stop-color="#F41E3D"/>
<stop offset="1" stop-color="#D5122E"/>
</linearGradient>
<linearGradient id="paint3_linear" x1="54.2803" y1="50.7078" x2="54.4767" y2="60.8851" gradientUnits="userSpaceOnUse">
<stop stop-color="#F41E3D"/>
<stop offset="1" stop-color="#D5122E"/>
</linearGradient>
<linearGradient id="paint4_linear" x1="58.7173" y1="39.5618" x2="58.9049" y2="48.8907" gradientUnits="userSpaceOnUse">
<stop stop-color="#F41E3D"/>
<stop offset="1" stop-color="#D5122E"/>
</linearGradient>
<linearGradient id="paint5_linear" x1="37.8284" y1="32" x2="38.1183" y2="46.4175" gradientUnits="userSpaceOnUse">
<stop stop-color="#F41E3D"/>
<stop offset="1" stop-color="#D5122E"/>
</linearGradient>
<linearGradient id="paint6_linear" x1="37.4062" y1="54.0337" x2="37.7133" y2="69.2992" gradientUnits="userSpaceOnUse">
<stop stop-color="#F41E3D"/>
<stop offset="1" stop-color="#D5122E"/>
</linearGradient>
<linearGradient id="paint7_linear" x1="32.4895" y1="45.2229" x2="32.5904" y2="51.5286" gradientUnits="userSpaceOnUse">
<stop stop-color="#F41E3D"/>
<stop offset="1" stop-color="#D5122E"/>
</linearGradient>
<linearGradient id="paint8_linear" x1="29.8187" y1="61.4937" x2="29.8385" y2="64.4181" gradientUnits="userSpaceOnUse">
<stop stop-color="#F41E3D"/>
<stop offset="1" stop-color="#D5122E"/>
</linearGradient>
<linearGradient id="paint9_linear" x1="49.5321" y1="45.3025" x2="49.6368" y2="51.7127" gradientUnits="userSpaceOnUse">
<stop stop-color="#F41E3D"/>
<stop offset="1" stop-color="#D5122E"/>
</linearGradient>
<linearGradient id="paint10_linear" x1="51.5174" y1="61.4937" x2="51.5372" y2="64.4181" gradientUnits="userSpaceOnUse">
<stop stop-color="#F41E3D"/>
<stop offset="1" stop-color="#D5122E"/>
</linearGradient>
</defs>
</svg>
