<svg width="90" height="69" viewBox="0 0 90 69" fill="none" xmlns="http://www.w3.org/2000/svg">
<rect width="90" height="69" fill="black" fill-opacity="0"/>
<path d="M62.7273 13.6364C70.8004 13.6364 77.5927 19.5106 78.9271 27.3307C85.1421 27.9337 90 33.1722 90 39.5455C90 46.3235 84.5053 51.8182 77.7273 51.8182H69.5455C68.7923 51.8182 68.1818 51.2077 68.1818 50.4545C68.1818 49.7014 68.7923 49.0909 69.5455 49.0909H77.7273C82.9991 49.0909 87.2727 44.8173 87.2727 39.5455C87.2727 34.2736 82.9991 30 77.7273 30C77.0257 30 76.4386 29.4677 76.3701 28.7695C75.6827 21.7619 69.79 16.3636 62.7273 16.3636C61.4539 16.3636 60.2052 16.5378 59.0051 16.8775C58.3215 17.071 57.6039 16.7072 57.3559 16.0415C54.3979 8.10174 46.7962 2.72727 38.1818 2.72727C28.7897 2.72727 20.6703 9.11157 18.3683 18.0802C18.2186 18.6631 17.7045 19.0791 17.1031 19.1036C9.08559 19.4313 2.72727 26.0389 2.72727 34.0909C2.72727 42.3752 9.443 49.0909 17.7273 49.0909H20.4545C21.2077 49.0909 21.8182 49.7014 21.8182 50.4545C21.8182 51.2077 21.2077 51.8182 20.4545 51.8182H17.7273C7.93677 51.8182 0 43.8814 0 34.0909C0 24.9112 6.99176 17.3206 15.9935 16.4474C18.9192 6.7847 27.8734 0 38.1818 0C47.5314 0 55.8282 5.58627 59.4582 13.9632C60.526 13.7466 61.6197 13.6364 62.7273 13.6364Z" fill="url(#paint0_linear)"/>
<path fill-rule="evenodd" clip-rule="evenodd" d="M58.8182 52.0059V44.3226H31.1818V52.0059L33.5767 49.6158C33.8607 49.3323 34.3211 49.3323 34.6052 49.6158C34.8892 49.8992 34.8892 50.3589 34.6052 50.6422L30.9688 54.2713C30.6848 54.5548 30.2243 54.5548 29.9403 54.2713L26.3039 50.6422C26.0199 50.3589 26.0199 49.8992 26.3039 49.6158C26.588 49.3323 27.0484 49.3323 27.3324 49.6158L29.7273 52.0059V43.5968C29.7273 43.1959 30.0529 42.871 30.4545 42.871H44.2727V34.1613H36.2727C35.8711 34.1613 35.5455 33.8363 35.5455 33.4355V24.7259C35.5455 24.325 35.8711 24 36.2727 24H53.7273C54.1289 24 54.4546 24.325 54.4546 24.7259V33.4355C54.4546 33.8363 54.1289 34.1613 53.7273 34.1613H45.7273V42.871H59.5455C59.9471 42.871 60.2727 43.1959 60.2727 43.5968V52.0059L62.6676 49.6158C62.9516 49.3323 63.412 49.3323 63.6961 49.6158C63.9801 49.8992 63.9801 50.3589 63.6961 50.6422L60.0597 54.2713C59.7757 54.5548 59.3152 54.5548 59.0312 54.2713L55.3948 50.6422C55.1108 50.3589 55.1108 49.8992 55.3948 49.6158C55.6789 49.3323 56.1393 49.3323 56.4233 49.6158L58.8182 52.0059ZM37 32.7096H53V25.4516H37V32.7096ZM50.8182 58.8387H68.2728C68.6744 58.8387 69 59.1637 69 59.5645V68.2742C69 68.675 68.6744 69 68.2728 69H50.8182C50.4165 69 50.0909 68.675 50.0909 68.2742V59.5645C50.0909 59.1637 50.4165 58.8387 50.8182 58.8387ZM51.5454 67.5484H67.5455V60.2904H51.5454V67.5484ZM21.7273 58.8387H39.1818C39.5835 58.8387 39.9091 59.1637 39.9091 59.5645V68.2742C39.9091 68.675 39.5835 69 39.1818 69H21.7273C21.3256 69 21 68.675 21 68.2742V59.5645C21 59.1637 21.3256 58.8387 21.7273 58.8387ZM22.4545 67.5484H38.4546V60.2904H22.4545V67.5484Z" fill="url(#paint1_linear)"/>
<defs>
<linearGradient id="paint0_linear" x1="0" y1="0" x2="0.621212" y2="52.8684" gradientUnits="userSpaceOnUse">
<stop stop-color="#F41E3D"/>
<stop offset="1" stop-color="#D5122E"/>
</linearGradient>
<linearGradient id="paint1_linear" x1="21" y1="24" x2="21.8782" y2="69.9015" gradientUnits="userSpaceOnUse">
<stop stop-color="#F41E3D"/>
<stop offset="1" stop-color="#D5122E"/>
</linearGradient>
</defs>
</svg>
