<svg width="90" height="69" viewBox="0 0 90 69" fill="none" xmlns="http://www.w3.org/2000/svg">
<rect width="90" height="69" fill="black" fill-opacity="0"/>
<path d="M62.7273 13.6364C70.8004 13.6364 77.5926 19.5106 78.9271 27.3307C85.1421 27.9337 90 33.1722 90 39.5455C90 46.3235 84.5053 51.8182 77.7273 51.8182H69.5455C68.7923 51.8182 68.1818 51.2077 68.1818 50.4545C68.1818 49.7014 68.7923 49.0909 69.5455 49.0909H77.7273C82.9991 49.0909 87.2727 44.8173 87.2727 39.5455C87.2727 34.2736 82.9991 30 77.7273 30C77.0257 30 76.4386 29.4677 76.3701 28.7695C75.6827 21.7619 69.79 16.3636 62.7273 16.3636C61.4539 16.3636 60.2052 16.5378 59.0051 16.8775C58.3215 17.071 57.6039 16.7072 57.3559 16.0415C54.3979 8.10174 46.7962 2.72727 38.1818 2.72727C28.7897 2.72727 20.6703 9.11157 18.3683 18.0802C18.2186 18.6631 17.7045 19.0791 17.1031 19.1036C9.08559 19.4313 2.72727 26.0389 2.72727 34.0909C2.72727 42.3752 9.443 49.0909 17.7273 49.0909H20.4545C21.2077 49.0909 21.8182 49.7014 21.8182 50.4545C21.8182 51.2077 21.2077 51.8182 20.4545 51.8182H17.7273C7.93677 51.8182 0 43.8814 0 34.0909C0 24.9112 6.99176 17.3206 15.9935 16.4474C18.9192 6.7847 27.8734 0 38.1818 0C47.5314 0 55.8282 5.58627 59.4582 13.9632C60.526 13.7466 61.6197 13.6364 62.7273 13.6364Z" fill="url(#paint0_linear)"/>
<rect width="41" height="41" fill="black" fill-opacity="0" transform="translate(25 28)"/>
<rect width="13.0455" height="13.9773" fill="black" fill-opacity="0" transform="translate(25 55.0227)"/>
<path d="M33.697 62.1045H33.6348C34.6909 61.4212 35.4364 60.2409 35.4364 58.8742C35.4364 56.7621 33.697 55.0227 31.5848 55.0227C29.4727 55.0227 27.7333 56.7621 27.7333 58.8742C27.7333 60.2409 28.4788 61.4212 29.5348 62.1045H29.3485C26.9258 62.1045 25 64.0924 25 66.453V68.3788C25 68.7515 25.2485 69 25.6212 69H37.4242C37.797 69 38.0455 68.7515 38.0455 68.3788V66.453C38.0455 64.0924 36.1197 62.1045 33.697 62.1045ZM31.5848 56.2651C33.0136 56.2651 34.1939 57.4454 34.1939 58.8742C34.1939 60.303 33.0136 61.4833 31.5848 61.4833C30.1561 61.4833 28.9758 60.303 28.9758 58.8742C28.9758 57.4454 30.1561 56.2651 31.5848 56.2651ZM36.803 67.7576H26.2424V66.453C26.2424 64.7136 27.6712 63.3469 29.3485 63.3469H33.697C35.4364 63.3469 36.803 64.7757 36.803 66.453V67.7576Z" fill="url(#paint1_linear)"/>
<rect width="13.0455" height="13.9773" fill="black" fill-opacity="0" transform="translate(38.9773 55.0227)"/>
<path d="M47.6742 62.1045H47.6121C48.6682 61.4212 49.4136 60.2409 49.4136 58.8742C49.4136 56.7621 47.6742 55.0227 45.5621 55.0227C43.45 55.0227 41.7106 56.7621 41.7106 58.8742C41.7106 60.2409 42.4561 61.4212 43.5121 62.1045H43.3257C40.903 62.1045 38.9773 64.0924 38.9773 66.453V68.3788C38.9773 68.7515 39.2257 69 39.5985 69H51.4015C51.7742 69 52.0227 68.7515 52.0227 68.3788V66.453C52.0227 64.0924 50.097 62.1045 47.6742 62.1045ZM45.5621 56.2651C46.9909 56.2651 48.1712 57.4454 48.1712 58.8742C48.1712 60.303 46.9909 61.4833 45.5621 61.4833C44.1333 61.4833 42.953 60.303 42.953 58.8742C42.953 57.4454 44.1333 56.2651 45.5621 56.2651ZM50.7803 67.7576H40.2197V66.453C40.2197 64.7136 41.6485 63.3469 43.3257 63.3469H47.6742C49.4136 63.3469 50.7803 64.7757 50.7803 66.453V67.7576Z" fill="url(#paint2_linear)"/>
<rect width="13.0455" height="13.9773" fill="black" fill-opacity="0" transform="translate(52.9546 55.0227)"/>
<path d="M61.6515 62.1045H61.5894C62.6455 61.4212 63.3909 60.2409 63.3909 58.8742C63.3909 56.7621 61.6515 55.0227 59.5394 55.0227C57.4273 55.0227 55.6879 56.7621 55.6879 58.8742C55.6879 60.2409 56.4333 61.4212 57.4894 62.1045H57.303C54.8803 62.1045 52.9546 64.0924 52.9546 66.453V68.3788C52.9546 68.7515 53.203 69 53.5758 69H65.3788C65.7515 69 66 68.7515 66 68.3788V66.453C66 64.0924 64.0121 62.1045 61.6515 62.1045ZM59.5394 56.2651C60.9682 56.2651 62.1485 57.4454 62.1485 58.8742C62.1485 60.303 60.9682 61.4833 59.5394 61.4833C58.1106 61.4833 56.9303 60.303 56.9303 58.8742C56.9303 57.4454 58.0485 56.2651 59.5394 56.2651ZM64.7576 67.7576H54.197V66.453C54.197 64.7136 55.6258 63.3469 57.303 63.3469H61.6515C63.3909 63.3469 64.7576 64.7757 64.7576 66.453V67.7576Z" fill="url(#paint3_linear)"/>
<rect width="41" height="25.9045" fill="black" fill-opacity="0" transform="translate(25 28)"/>
<path d="M25.6212 53.9045C31.7091 53.9045 60.9061 53.9045 65.3788 53.9045C65.7515 53.9045 66 53.6561 66 53.2833C66 52.9106 65.7515 52.6621 65.3788 52.6621H63.7636V28.6212C63.7636 28.2485 63.5152 28 63.1424 28H55.75C55.3773 28 55.1288 28.2485 55.1288 28.6212V52.6621H49.7864V34.9576C49.7864 34.5848 49.5379 34.3364 49.1652 34.3364H41.8348C41.4621 34.3364 41.2136 34.5848 41.2136 34.9576V52.6621H35.8712V43.6545C35.8712 43.2818 35.6227 43.0333 35.25 43.0333H27.8576C27.4848 43.0333 27.2364 43.2818 27.2364 43.6545V52.6621H25.6212C25.2485 52.6621 25 52.9106 25 53.2833C25 53.6561 25.2485 53.9045 25.6212 53.9045ZM62.5212 43.0955H56.3712V39.1818H62.5212V43.0955ZM62.5212 37.9394H56.3712V34.0879H62.5212V37.9394ZM56.3712 44.3379H62.5212V48.1894H56.3712V44.3379ZM62.5212 29.2424V32.8455H56.3712V29.2424H62.5212ZM56.3712 49.4318H62.5212V52.6621H56.3712V49.4318ZM48.5439 43.5303H42.3939V39.9894H48.5439V43.5303ZM42.4561 44.7727H48.6061V48.3136H42.4561V44.7727ZM48.5439 35.5788V38.6848H42.3939V35.5788H48.5439ZM42.4561 49.5561H48.6061V52.6621H42.4561V49.5561ZM34.6288 44.2758V47.8788H28.4788V44.3379H34.6288V44.2758ZM28.4788 49.1212H34.6288V52.6621H28.4788V49.1212Z" fill="url(#paint4_linear)"/>
<defs>
<linearGradient id="paint0_linear" x1="0" y1="0" x2="0.621212" y2="52.8684" gradientUnits="userSpaceOnUse">
<stop stop-color="#F41E3D"/>
<stop offset="1" stop-color="#D5122E"/>
</linearGradient>
<linearGradient id="paint1_linear" x1="25" y1="55.0227" x2="25.3117" y2="69.2784" gradientUnits="userSpaceOnUse">
<stop stop-color="#F41E3D"/>
<stop offset="1" stop-color="#D5122E"/>
</linearGradient>
<linearGradient id="paint2_linear" x1="38.9773" y1="55.0227" x2="39.289" y2="69.2784" gradientUnits="userSpaceOnUse">
<stop stop-color="#F41E3D"/>
<stop offset="1" stop-color="#D5122E"/>
</linearGradient>
<linearGradient id="paint3_linear" x1="52.9546" y1="55.0227" x2="53.2663" y2="69.2784" gradientUnits="userSpaceOnUse">
<stop stop-color="#F41E3D"/>
<stop offset="1" stop-color="#D5122E"/>
</linearGradient>
<linearGradient id="paint4_linear" x1="25" y1="28" x2="25.3408" y2="54.4288" gradientUnits="userSpaceOnUse">
<stop stop-color="#F41E3D"/>
<stop offset="1" stop-color="#D5122E"/>
</linearGradient>
</defs>
</svg>
