<svg width="90" height="69" viewBox="0 0 90 69" fill="none" xmlns="http://www.w3.org/2000/svg">
<rect width="90" height="69" fill="black" fill-opacity="0"/>
<path d="M62.7273 13.6364C70.8004 13.6364 77.5926 19.5106 78.9271 27.3307C85.1421 27.9337 90 33.1722 90 39.5455C90 46.3235 84.5053 51.8182 77.7273 51.8182H69.5455C68.7923 51.8182 68.1818 51.2077 68.1818 50.4545C68.1818 49.7014 68.7923 49.0909 69.5455 49.0909H77.7273C82.9991 49.0909 87.2727 44.8173 87.2727 39.5455C87.2727 34.2736 82.9991 30 77.7273 30C77.0257 30 76.4386 29.4677 76.3701 28.7695C75.6827 21.7619 69.79 16.3636 62.7273 16.3636C61.4539 16.3636 60.2052 16.5378 59.0051 16.8775C58.3215 17.071 57.6039 16.7072 57.3559 16.0415C54.3979 8.10174 46.7962 2.72727 38.1818 2.72727C28.7897 2.72727 20.6703 9.11157 18.3683 18.0802C18.2186 18.6631 17.7045 19.0791 17.1031 19.1036C9.08559 19.4313 2.72727 26.0389 2.72727 34.0909C2.72727 42.3752 9.443 49.0909 17.7273 49.0909H20.4545C21.2077 49.0909 21.8182 49.7014 21.8182 50.4545C21.8182 51.2077 21.2077 51.8182 20.4545 51.8182H17.7273C7.93677 51.8182 0 43.8814 0 34.0909C0 24.9112 6.99176 17.3206 15.9935 16.4474C18.9192 6.7847 27.8734 0 38.1818 0C47.5314 0 55.8282 5.58627 59.4582 13.9632C60.526 13.7466 61.6197 13.6364 62.7273 13.6364Z" fill="url(#paint0_linear)"/>
<rect width="43" height="43" fill="black" fill-opacity="0" transform="translate(24 26)"/>
<rect width="43" height="35.5727" fill="black" fill-opacity="0" transform="translate(24 33.4273)"/>
<path d="M66.2844 61.1819H65.0484V36.75C65.0484 34.9258 63.5522 33.4273 61.7307 33.4273H54.3797C53.9894 33.4273 53.7292 33.6879 53.7292 34.0788C53.7292 34.4697 53.9894 34.7303 54.3797 34.7303H61.7307C62.8366 34.7303 63.7474 35.6425 63.7474 36.75V56.4909H27.1876V36.75C27.1876 35.6425 28.0983 34.7303 29.2042 34.7303H34.4085C34.7988 34.7303 35.059 34.4697 35.059 34.0788C35.059 33.6879 34.7988 33.4273 34.4085 33.4273H29.2042C27.3828 33.4273 25.8865 34.9258 25.8865 36.75V61.1819H24.6505C24.2602 61.1819 24 61.4425 24 61.8334V62.9409C24 66.2637 26.7322 69 30.0499 69H60.9501C64.2678 69 67 66.2637 67 62.9409V61.8334C66.9349 61.5076 66.6747 61.1819 66.2844 61.1819ZM27.1876 57.794H63.7474V61.1819H27.1876V57.794ZM65.6339 62.9409C65.6339 65.547 63.4871 67.697 60.885 67.697H30.0499C27.4478 67.697 25.3011 65.547 25.3011 62.9409V62.4849C25.4312 62.4849 65.4387 62.4849 65.6339 62.4849V62.9409Z" fill="url(#paint1_linear)"/>
<rect width="8.65204" height="1.30303" fill="black" fill-opacity="0" transform="translate(41.1089 58.8364)"/>
<path d="M49.1104 58.8364H41.7595C41.3691 58.8364 41.1089 59.097 41.1089 59.4879C41.1089 59.8788 41.3691 60.1394 41.7595 60.1394H49.1104C49.5008 60.1394 49.761 59.8788 49.761 59.4879C49.761 59.097 49.5008 58.8364 49.1104 58.8364Z" fill="url(#paint2_linear)"/>
<rect width="2.60212" height="2.93182" fill="black" fill-opacity="0" transform="translate(36.4251 44.047)"/>
<path d="M37.0756 46.9788C37.466 46.9788 37.7262 46.7182 37.7262 46.3273C37.7262 45.8061 38.0514 45.35 38.3767 45.35C38.767 45.35 39.0272 45.0894 39.0272 44.6985C39.0272 44.3076 38.767 44.047 38.3767 44.047C37.2708 44.047 36.4251 45.0894 36.4251 46.3273C36.4251 46.7182 36.7504 46.9788 37.0756 46.9788Z" fill="url(#paint3_linear)"/>
<rect width="4.81392" height="4.1697" fill="black" fill-opacity="0" transform="translate(41.174 45.8712)"/>
<path d="M41.8245 50.0409C42.2148 50.0409 42.475 49.7803 42.475 49.3894C42.475 48.1515 43.7761 47.1742 45.3374 47.1742C45.7277 47.1742 45.9879 46.9136 45.9879 46.5227C45.9879 46.1318 45.7277 45.8712 45.3374 45.8712C43.0605 45.8712 41.174 47.4349 41.174 49.3894C41.174 49.7152 41.4342 50.0409 41.8245 50.0409Z" fill="url(#paint4_linear)"/>
<rect width="5.39939" height="4.3" fill="black" fill-opacity="0" transform="translate(46.4433 40.5288)"/>
<path d="M47.0938 44.8288C47.4841 44.8288 47.7443 44.5682 47.7443 44.1773C47.7443 42.8743 49.3056 41.8318 51.1921 41.8318C51.5824 41.8318 51.8427 41.5712 51.8427 41.1803C51.8427 40.7894 51.5824 40.5288 51.1921 40.5288C48.59 40.5288 46.4433 42.1576 46.4433 44.1773C46.4433 44.5682 46.7685 44.8288 47.0938 44.8288Z" fill="url(#paint5_linear)"/>
<rect width="5.39939" height="4.3" fill="black" fill-opacity="0" transform="translate(48.7201 46.8485)"/>
<path d="M48.7201 50.497C48.7201 50.8879 48.9803 51.1485 49.3707 51.1485C49.761 51.1485 50.0212 50.8879 50.0212 50.497C50.0212 49.194 51.5825 48.1515 53.469 48.1515C53.8593 48.1515 54.1195 47.8909 54.1195 47.5C54.1195 47.1091 53.8593 46.8485 53.469 46.8485C50.8018 46.8485 48.7201 48.4773 48.7201 50.497Z" fill="url(#paint6_linear)"/>
<rect width="31.6808" height="28.7318" fill="black" fill-opacity="0" transform="translate(28.5537 26)"/>
<path d="M31.0908 32.2545C32.2617 32.2545 33.2375 31.4727 33.4977 30.3652H36.1649V37.3364C34.7337 37.9879 33.7579 39.3561 33.7579 40.9197C33.7579 41.05 33.7579 41.2455 33.823 41.3758C32.0666 41.8318 30.7655 43.3955 30.7655 45.2197C30.7655 46.3924 31.2859 47.5 32.2617 48.2818C32.0666 48.7379 32.0015 49.1939 32.0015 49.65C32.0015 51.8652 33.888 53.6894 36.23 53.6894C36.5552 53.6894 36.8154 53.6242 37.1407 53.5591C37.9213 54.3409 39.0272 54.7318 40.3283 54.7318H52.8185C54.705 54.7318 56.3964 53.6242 57.177 51.9955C58.9985 51.5394 60.2345 49.9758 60.2345 48.1515C60.2345 46.4576 59.1936 45.0242 57.5673 44.4379C57.5673 44.3727 57.5673 44.3076 57.5673 44.2424C57.5673 42.2227 56.006 40.5288 53.9894 40.2682C53.7942 39.2258 53.2088 38.3788 52.4281 37.7273V30.4303H54.9652C55.2254 31.5379 56.2012 32.3197 57.3722 32.3197C58.7383 32.3197 59.9092 31.2121 59.9092 29.7788C59.9092 28.4106 58.8033 27.2379 57.3722 27.2379C56.2012 27.2379 55.2254 28.0197 54.9002 29.1273H51.7126C51.3222 29.1273 51.062 29.3879 51.062 29.7788V37.2061C50.6717 37.0758 50.2163 37.0106 49.761 37.0106C49.1755 37.0106 48.59 37.1409 48.0045 37.4015V30.9515C49.1104 30.6909 49.8911 29.7136 49.8911 28.5409C49.8911 27.1727 48.7852 26 47.354 26C45.9879 26 44.8169 27.1076 44.8169 28.5409C44.8169 29.7136 45.5976 30.6909 46.7035 30.9515V38.1833C46.7035 38.1833 46.7035 38.1833 46.6384 38.2485C45.8578 37.2061 44.6218 36.6197 43.2557 36.6197C42.7352 36.6197 42.2148 36.75 41.6944 36.8803V30.9515C42.8003 30.6909 43.5809 29.7136 43.5809 28.5409C43.5809 27.1727 42.475 26 41.0439 26C39.6778 26 38.5068 27.1076 38.5068 28.5409C38.5068 29.7136 39.2874 30.6909 40.3933 30.9515V37.6621C39.6778 37.1409 38.8321 36.8803 37.9213 36.8803C37.7262 36.8803 37.5961 36.8803 37.4009 36.9455V29.7788C37.4009 29.3879 37.1407 29.1273 36.7504 29.1273H33.4327C33.1725 28.0197 32.1967 27.2379 31.0257 27.2379C29.6596 27.2379 28.5537 28.3455 28.5537 29.7788C28.5537 31.147 29.6596 32.2545 31.0908 32.2545ZM57.3071 28.5409C57.9576 28.5409 58.5431 29.0621 58.5431 29.7788C58.5431 30.4303 57.9576 31.0167 57.3071 31.0167C56.6566 31.0167 56.0711 30.4955 56.0711 29.7788C56.0711 29.0621 56.5915 28.5409 57.3071 28.5409ZM46.118 28.5409C46.118 27.8894 46.7035 27.303 47.354 27.303C48.0045 27.303 48.59 27.8242 48.59 28.5409C48.59 29.1924 48.0696 29.7788 47.354 29.7788C46.7035 29.7788 46.118 29.1924 46.118 28.5409ZM39.8729 28.5409C39.8729 27.8894 40.4584 27.303 41.1089 27.303C41.7595 27.303 42.3449 27.8242 42.3449 28.5409C42.3449 29.1924 41.8245 29.7788 41.1089 29.7788C40.3933 29.7788 39.8729 29.1924 39.8729 28.5409ZM40.003 39.0955C40.1331 39.2258 40.3283 39.2909 40.5234 39.2909C40.7186 39.2909 40.8487 39.1606 40.9788 39.0303C41.5643 38.3136 42.41 37.9227 43.2557 37.9227C44.4266 37.9227 45.5325 38.6394 45.9879 39.6818C46.0529 39.9424 46.3132 40.0727 46.5734 40.0727C46.8336 40.0727 47.0938 39.9424 47.1588 39.747C47.6793 38.8348 48.6551 38.2485 49.761 38.2485C51.3873 38.2485 52.6883 39.4864 52.6883 40.9848C52.6883 41.3758 52.9486 41.6364 53.3389 41.6364C54.9652 41.6364 56.2663 42.8742 56.2663 44.3727C56.2663 44.503 56.2663 44.6985 56.2012 44.8939C56.1362 45.2197 56.3313 45.6106 56.7216 45.6758C58.0227 46.0015 58.9334 47.0439 58.9334 48.2818C58.9334 49.5848 57.9576 50.6924 56.5915 50.953C56.3313 51.0182 56.2012 51.1485 56.0711 51.3439C55.6157 52.647 54.2496 53.5591 52.8185 53.5591H40.2632C39.0923 53.5591 38.3116 53.2333 37.7912 52.5818C37.6611 52.4515 37.466 52.3212 37.2708 52.3212C37.2057 52.3212 37.1407 52.3212 37.0756 52.3212C36.7504 52.4515 36.4251 52.4515 36.1649 52.4515C34.5386 52.4515 33.2375 51.2136 33.2375 49.7152C33.2375 49.2591 33.3676 48.8682 33.5628 48.4773C33.7579 48.1515 33.6278 47.7606 33.3026 47.5651C32.4569 47.0439 31.9365 46.197 31.9365 45.2848C31.9365 43.9167 33.0424 42.7439 34.5386 42.6136C34.7337 42.6136 34.9289 42.4833 34.9939 42.2879C35.059 42.0924 35.1241 41.897 35.059 41.7015C35.1241 41.4409 35.059 41.2455 35.059 40.9848C35.059 39.4864 36.3601 38.2485 37.9864 38.2485C38.767 38.2485 39.4826 38.5742 40.003 39.0955ZM31.0908 28.5409C31.7413 28.5409 32.3268 29.0621 32.3268 29.7788C32.3268 30.4303 31.7413 31.0167 31.0908 31.0167C30.4402 31.0167 29.8548 30.4955 29.8548 29.7788C29.8548 29.0621 30.3752 28.5409 31.0908 28.5409Z" fill="url(#paint7_linear)"/>
<defs>
<linearGradient id="paint0_linear" x1="0" y1="0" x2="0.621212" y2="52.8684" gradientUnits="userSpaceOnUse">
<stop stop-color="#F41E3D"/>
<stop offset="1" stop-color="#D5122E"/>
</linearGradient>
<linearGradient id="paint1_linear" x1="24" y1="33.4273" x2="24.6127" y2="69.7157" gradientUnits="userSpaceOnUse">
<stop stop-color="#F41E3D"/>
<stop offset="1" stop-color="#D5122E"/>
</linearGradient>
<linearGradient id="paint2_linear" x1="41.1089" y1="58.8364" x2="41.113" y2="60.166" gradientUnits="userSpaceOnUse">
<stop stop-color="#F41E3D"/>
<stop offset="1" stop-color="#D5122E"/>
</linearGradient>
<linearGradient id="paint3_linear" x1="36.4251" y1="44.047" x2="36.4939" y2="47.0371" gradientUnits="userSpaceOnUse">
<stop stop-color="#F41E3D"/>
<stop offset="1" stop-color="#D5122E"/>
</linearGradient>
<linearGradient id="paint4_linear" x1="41.174" y1="45.8712" x2="41.2492" y2="50.1247" gradientUnits="userSpaceOnUse">
<stop stop-color="#F41E3D"/>
<stop offset="1" stop-color="#D5122E"/>
</linearGradient>
<linearGradient id="paint5_linear" x1="46.4433" y1="40.5288" x2="46.5146" y2="44.9154" gradientUnits="userSpaceOnUse">
<stop stop-color="#F41E3D"/>
<stop offset="1" stop-color="#D5122E"/>
</linearGradient>
<linearGradient id="paint6_linear" x1="48.7201" y1="46.8485" x2="48.7914" y2="51.2351" gradientUnits="userSpaceOnUse">
<stop stop-color="#F41E3D"/>
<stop offset="1" stop-color="#D5122E"/>
</linearGradient>
<linearGradient id="paint7_linear" x1="28.5537" y1="26" x2="29.0962" y2="55.3081" gradientUnits="userSpaceOnUse">
<stop stop-color="#F41E3D"/>
<stop offset="1" stop-color="#D5122E"/>
</linearGradient>
</defs>
</svg>
