<svg width="90" height="69" viewBox="0 0 90 69" fill="none" xmlns="http://www.w3.org/2000/svg">
<rect width="90" height="69" fill="black" fill-opacity="0"/>
<path d="M62.7273 13.6364C70.8004 13.6364 77.5926 19.5106 78.9271 27.3307C85.1421 27.9337 90 33.1722 90 39.5455C90 46.3235 84.5053 51.8182 77.7273 51.8182H69.5455C68.7923 51.8182 68.1818 51.2077 68.1818 50.4545C68.1818 49.7014 68.7923 49.0909 69.5455 49.0909H77.7273C82.9991 49.0909 87.2727 44.8173 87.2727 39.5455C87.2727 34.2736 82.9991 30 77.7273 30C77.0257 30 76.4386 29.4677 76.3701 28.7695C75.6827 21.7619 69.79 16.3636 62.7273 16.3636C61.4539 16.3636 60.2052 16.5378 59.0051 16.8775C58.3215 17.071 57.6039 16.7072 57.3559 16.0415C54.3979 8.10174 46.7962 2.72727 38.1818 2.72727C28.7897 2.72727 20.6703 9.11157 18.3683 18.0802C18.2186 18.6631 17.7045 19.0791 17.1031 19.1036C9.08559 19.4313 2.72727 26.0389 2.72727 34.0909C2.72727 42.3752 9.443 49.0909 17.7273 49.0909H20.4545C21.2077 49.0909 21.8182 49.7014 21.8182 50.4545C21.8182 51.2077 21.2077 51.8182 20.4545 51.8182H17.7273C7.93677 51.8182 0 43.8814 0 34.0909C0 24.9112 6.99176 17.3206 15.9935 16.4474C18.9192 6.7847 27.8734 0 38.1818 0C47.5314 0 55.8282 5.58627 59.4582 13.9632C60.526 13.7466 61.6197 13.6364 62.7273 13.6364Z" fill="url(#paint0_linear)"/>
<rect width="52" height="52" fill="black" fill-opacity="0" transform="translate(20 17)"/>
<rect width="35.1025" height="41.7576" fill="black" fill-opacity="0" transform="translate(27.2879 27.2424)"/>
<path d="M46.9454 27.2424H46.1576C37.8061 27.2424 32.3697 31.8121 30.0848 40.7939C30.0061 41.0303 29.3758 43 30.3212 44.3394C30.5576 44.6546 30.8727 44.9697 31.503 45.2061L27.4061 52.6121C27.2485 52.8485 27.2485 53.1636 27.4061 53.4C27.5636 53.6364 27.8 53.7939 28.1151 53.7939H31.9758L31.4242 60.2546C31.4242 61.1212 31.7394 61.9879 32.3697 62.6182C33.1576 63.4061 34.2606 63.8788 35.4424 63.8788C36.2303 63.8788 37.4909 63.6424 38.8303 62.5394V68.2121C38.8303 68.6849 39.1454 69 39.6182 69H54.6667C55.1394 69 55.4545 68.6849 55.4545 68.2121V60.4909C56.7939 58.6 65.6182 44.9697 61.1273 36.303C56.2424 27.2424 49.2303 27.2424 46.9454 27.2424ZM53.8788 59.8606C53.8 60.0182 53.7212 60.1758 53.7212 60.3333V67.4243H40.2485V60.3333C40.2485 60.0182 40.0121 59.703 39.697 59.5455C39.3818 59.4667 38.9879 59.5455 38.8303 59.8606C37.8061 61.3576 36.5454 62.2243 35.2848 62.2243C34.5758 62.2243 33.8667 61.9091 33.3939 61.4364C33.0788 61.0424 32.8424 60.6485 32.9212 60.2546L33.5515 53.0061C33.5515 52.7697 33.4727 52.5333 33.3151 52.3758C33.1576 52.2182 32.9212 52.1394 32.7636 52.1394H29.3758L33.3939 44.8909C33.5515 44.6546 33.5515 44.3394 33.3939 44.103C33.2364 43.8667 33 43.7091 32.6848 43.7091H32.6061C31.897 43.7091 31.6606 43.4727 31.6606 43.3939C31.2667 42.8424 31.503 41.6606 31.6606 41.2667C34.8121 28.8182 43.3212 28.8182 46.1576 28.8182H46.9454C48.9939 28.8182 55.2182 28.8182 59.5515 37.0909C63.8848 45.3636 53.9576 59.703 53.8788 59.8606Z" fill="url(#paint1_linear)"/>
<rect width="6.93333" height="8.74545" fill="black" fill-opacity="0" transform="translate(42.7697 17)"/>
<path d="M44.1091 21.0182L45.4485 19.6788V24.9576C45.4485 25.4303 45.7636 25.7455 46.2363 25.7455C46.7091 25.7455 47.0242 25.4303 47.0242 24.9576V19.6788L48.3636 21.0182C48.6788 21.3333 49.1515 21.3333 49.4667 21.0182C49.7818 20.703 49.7818 20.2303 49.4667 19.9152L46.7879 17.2364C46.4727 16.9212 46 16.9212 45.6848 17.2364L43.006 19.8364C42.6909 20.1515 42.6909 20.6242 43.006 20.9394C43.3212 21.2545 43.7939 21.3333 44.1091 21.0182Z" fill="url(#paint2_linear)"/>
<rect width="8.82424" height="6.85455" fill="black" fill-opacity="0" transform="translate(63.1758 39.5334)"/>
<path d="M71.7636 42.4486L69.0848 39.7698C68.7697 39.4547 68.297 39.4547 67.9818 39.7698C67.6667 40.085 67.6667 40.5577 67.9818 40.8728L69.3212 42.2122H63.9636C63.4909 42.2122 63.1758 42.5274 63.1758 43.0001C63.1758 43.4728 63.4909 43.788 63.9636 43.788H69.2424L67.9818 45.0486C67.6667 45.3637 67.6667 45.8365 67.9818 46.1516C68.297 46.4668 68.7697 46.4668 69.0848 46.1516L71.7636 43.5516C72.0788 43.2365 72.0788 42.685 71.7636 42.4486Z" fill="url(#paint3_linear)"/>
<rect width="8.74545" height="6.85455" fill="black" fill-opacity="0" transform="translate(20 39.5334)"/>
<path d="M22.6788 43.788H27.9576C28.4303 43.788 28.7455 43.4728 28.7455 43.0001C28.7455 42.5274 28.4303 42.2122 27.9576 42.2122H22.6788L24.0182 40.8728C24.3333 40.5577 24.3333 40.085 24.0182 39.7698C23.703 39.4547 23.2303 39.4547 22.9152 39.7698L20.2364 42.4486C19.9212 42.7638 19.9212 43.2365 20.2364 43.5516L22.9152 46.1516C23.2303 46.4668 23.703 46.4668 24.0182 46.1516C24.3333 45.8365 24.3333 45.3637 24.0182 45.0486L22.6788 43.788Z" fill="url(#paint4_linear)"/>
<rect width="6.69697" height="6.62909" fill="black" fill-opacity="0" transform="translate(58.2121 24.406)"/>
<path d="M59.5515 30.7878L63.3333 27.0848V28.8969C63.3333 29.3696 63.6485 29.6848 64.1212 29.6848C64.5939 29.6848 64.9091 29.3696 64.9091 28.8969V25.1939C64.9091 24.7999 64.5939 24.406 64.1212 24.406H60.3394C59.9455 24.406 59.5515 24.7212 59.5515 25.1939C59.5515 25.6666 59.8667 25.9818 60.3394 25.9818H62.2303L58.4485 29.7636C58.1333 30.0787 58.1333 30.5515 58.4485 30.8666C58.6849 31.103 59.2364 31.103 59.5515 30.7878Z" fill="url(#paint5_linear)"/>
<rect width="6.69697" height="6.69697" fill="black" fill-opacity="0" transform="translate(27.5636 24.3274)"/>
<path d="M28.3515 29.685C28.8242 29.685 29.1394 29.3698 29.1394 28.8971V27.085L32.9212 30.788C33.2364 31.1031 33.7091 31.1031 34.0242 30.788C34.3394 30.4728 34.3394 30.0001 34.0242 29.685L30.2424 25.9032H32.1333C32.6061 25.9032 32.9212 25.5092 32.9212 25.1153C32.9212 24.7213 32.5273 24.3274 32.1333 24.3274H28.3515C27.8788 24.3274 27.5636 24.7213 27.5636 25.1153V28.8183C27.5636 29.3698 27.9576 29.685 28.3515 29.685Z" fill="url(#paint6_linear)"/>
<rect width="1.57576" height="3.54545" fill="black" fill-opacity="0" transform="translate(45.5273 30.4729)"/>
<path d="M46.3152 34.0184C46.7879 34.0184 47.103 33.7032 47.103 33.2305V31.2608C47.103 30.7881 46.7879 30.4729 46.3152 30.4729C45.8424 30.4729 45.5273 30.7881 45.5273 31.2608V33.2305C45.5273 33.7032 45.9212 34.0184 46.3152 34.0184Z" fill="url(#paint7_linear)"/>
<rect width="3.54545" height="1.57576" fill="black" fill-opacity="0" transform="translate(55.3758 42.291)"/>
<path d="M58.1333 42.291H56.1636C55.6909 42.291 55.3758 42.6062 55.3758 43.0789C55.3758 43.5516 55.6909 43.8668 56.1636 43.8668H58.1333C58.6061 43.8668 58.9212 43.5516 58.9212 43.0789C58.9212 42.685 58.6061 42.291 58.1333 42.291Z" fill="url(#paint8_linear)"/>
<rect width="3.54545" height="1.57576" fill="black" fill-opacity="0" transform="translate(33.7091 42.291)"/>
<path d="M37.2545 43.0789C37.2545 42.6062 36.9394 42.291 36.4667 42.291H34.497C34.0242 42.291 33.7091 42.6062 33.7091 43.0789C33.7091 43.5516 34.0242 43.8668 34.497 43.8668H36.4667C36.9394 43.8668 37.2545 43.5516 37.2545 43.0789Z" fill="url(#paint9_linear)"/>
<rect width="2.99394" height="2.99394" fill="black" fill-opacity="0" transform="translate(52.4606 33.9395)"/>
<path d="M53.8 36.697L55.2182 35.2788C55.5334 34.9637 55.5334 34.491 55.2182 34.1758C54.9031 33.8607 54.4303 33.8607 54.1152 34.1758L52.697 35.594C52.3818 35.9092 52.3818 36.3819 52.697 36.697C53.0121 37.0122 53.5637 37.0122 53.8 36.697Z" fill="url(#paint10_linear)"/>
<rect width="2.99394" height="2.99394" fill="black" fill-opacity="0" transform="translate(37.1758 33.9395)"/>
<path d="M38.8303 36.697C39.1454 37.0122 39.6182 37.0122 39.9333 36.697C40.2485 36.3819 40.2485 35.9092 39.9333 35.594L38.5151 34.1758C38.2 33.8607 37.7273 33.8607 37.4121 34.1758C37.097 34.491 37.097 34.9637 37.4121 35.2788L38.8303 36.697Z" fill="url(#paint11_linear)"/>
<rect width="3.35107" height="2.32683" fill="black" fill-opacity="0" transform="translate(54.6851 46.0122)"/>
<path d="M57.5818 46.8605L55.7697 46.0726C55.3757 45.915 54.903 46.0726 54.7454 46.4665C54.5879 46.8605 54.7454 47.3332 55.1394 47.4908L56.9515 48.2787C57.3454 48.4362 57.8182 48.2787 57.9757 47.8847C58.1333 47.4908 57.9757 47.018 57.5818 46.8605Z" fill="url(#paint12_linear)"/>
<rect width="3.35107" height="2.32683" fill="black" fill-opacity="0" transform="translate(34.5941 37.8972)"/>
<path d="M35.0485 39.3758L36.8606 40.1637C37.2545 40.3212 37.7273 40.1637 37.8848 39.7697C38.0424 39.3758 37.8848 38.9031 37.4909 38.7455L35.6788 37.9576C35.2848 37.8 34.8121 37.9576 34.6545 38.3515C34.497 38.7455 34.6545 39.2182 35.0485 39.3758Z" fill="url(#paint13_linear)"/>
<rect width="2.37504" height="3.35107" fill="black" fill-opacity="0" transform="translate(49.2793 31.4365)"/>
<path d="M49.7818 34.7272C50.1758 34.8848 50.6485 34.7272 50.8061 34.3333L51.5939 32.5212C51.7515 32.1272 51.5939 31.6545 51.2 31.4969C50.8061 31.3393 50.3333 31.4969 50.1758 31.8908L49.3879 33.703C49.1515 34.0969 49.3091 34.5696 49.7818 34.7272Z" fill="url(#paint14_linear)"/>
<rect width="2.32683" height="3.38499" fill="black" fill-opacity="0" transform="translate(40.976 31.4365)"/>
<path d="M41.8242 34.3333C41.9818 34.7272 42.4545 34.9636 42.8485 34.7272C43.2424 34.5696 43.4 34.0969 43.2424 33.703L42.4545 31.8908C42.297 31.4969 41.8242 31.3393 41.4303 31.4969C41.0364 31.6545 40.8788 32.1272 41.0364 32.5212L41.8242 34.3333Z" fill="url(#paint15_linear)"/>
<rect width="3.35107" height="2.3166" fill="black" fill-opacity="0" transform="translate(34.6729 46.1013)"/>
<path d="M36.9394 46.1515L35.1273 46.9394C34.7333 47.0969 34.5758 47.5697 34.7333 47.9636C34.8909 48.3575 35.3636 48.5151 35.7576 48.3575L37.5697 47.5697C37.9636 47.4121 38.1212 46.9394 37.9636 46.5454C37.8061 46.2303 37.3333 45.9939 36.9394 46.1515Z" fill="url(#paint16_linear)"/>
<rect width="3.35107" height="2.32683" fill="black" fill-opacity="0" transform="translate(54.6063 37.7395)"/>
<path d="M54.6667 39.612C54.8243 40.0059 55.297 40.1635 55.6909 40.0059L57.503 39.2181C57.897 39.0605 58.0546 38.5878 57.897 38.1938C57.7394 37.7999 57.2667 37.6423 56.8727 37.7999L55.0606 38.5878C54.6667 38.7453 54.5091 39.2181 54.6667 39.612Z" fill="url(#paint17_linear)"/>
<rect width="17.1352" height="28.3022" fill="black" fill-opacity="0" transform="translate(37.8467 34.2371)"/>
<path d="M45.8424 34.2544C41.6667 34.4908 38.2 37.8787 37.8849 42.1332C37.6485 44.7332 38.5152 47.2544 40.3273 49.0665C41.5091 50.3271 42.297 51.9029 42.5333 53.4787H42.2182C41.903 53.4787 41.5879 53.6362 41.3515 53.8726C41.1152 54.109 40.9576 54.4241 40.9576 54.7393V57.5756C40.9576 58.2847 41.5091 58.8362 42.2182 58.8362H43.794V59.3878H43.1637C42.6909 59.3878 42.3758 59.7817 42.3758 60.1756C42.3758 60.6484 42.7697 60.9635 43.1637 60.9635H43.8727C44.1091 61.909 44.9758 62.5393 45.9212 62.5393H47.0243C48.0485 62.5393 48.8364 61.8302 49.0727 60.8847H49.7818C50.2546 60.8847 50.5697 60.4908 50.5697 60.0968C50.5697 59.6241 50.1758 59.309 49.7818 59.309H49.1515V58.7575H50.7273C51.4364 58.7575 51.9879 58.2059 51.9879 57.4968V54.6605C51.9879 53.9514 51.4364 53.3999 50.7273 53.3999H50.4121C50.6485 51.7453 51.3576 50.1696 52.6182 48.909C54.194 47.2544 54.9818 45.1271 54.9818 42.8423C54.8243 37.9575 50.7273 33.9393 45.8424 34.2544ZM47.497 60.412C47.497 60.7271 47.2606 61.0423 46.9455 61.0423H45.8424C45.5273 61.0423 45.2909 60.7271 45.2909 60.412V58.915C46.6303 58.915 46.1576 58.915 47.497 58.915V60.412ZM42.4546 57.3393V55.1332C42.6121 55.1332 50.2546 55.1332 50.3333 55.0544V57.2605C42.4546 57.3393 47.103 57.2605 42.4546 57.3393ZM51.3576 47.8847C49.8606 49.4605 48.994 51.4302 48.7576 53.4787H47.1818V46.8605C48.3637 46.5453 49.1515 45.4423 49.1515 44.1817C49.1515 42.6847 47.8909 41.4241 46.394 41.4241C44.897 41.4241 43.6364 42.6847 43.6364 44.1817C43.6364 45.4423 44.503 46.4665 45.6061 46.8605V53.4787H44.1091C43.8727 51.4302 42.9273 49.4605 41.4303 47.9635C40.0121 46.4665 39.2243 44.4181 39.4606 42.2908C39.7758 38.8241 42.5333 35.9878 46 35.8302C50.0182 35.5938 53.3273 38.9029 53.4061 42.9211C53.3273 44.812 52.6182 46.5453 51.3576 47.8847ZM46.3152 45.4423C45.6849 45.4423 45.1333 44.8908 45.1333 44.2605C45.1333 43.6302 45.6849 43.0787 46.3152 43.0787C46.9455 43.0787 47.497 43.6302 47.497 44.2605C47.497 44.8908 47.0243 45.4423 46.3152 45.4423Z" fill="url(#paint18_linear)"/>
<defs>
<linearGradient id="paint0_linear" x1="0" y1="0" x2="0.621212" y2="52.8684" gradientUnits="userSpaceOnUse">
<stop stop-color="#F41E3D"/>
<stop offset="1" stop-color="#D5122E"/>
</linearGradient>
<linearGradient id="paint1_linear" x1="27.2879" y1="27.2424" x2="28.3217" y2="69.8271" gradientUnits="userSpaceOnUse">
<stop stop-color="#F41E3D"/>
<stop offset="1" stop-color="#D5122E"/>
</linearGradient>
<linearGradient id="paint2_linear" x1="42.7697" y1="17" x2="42.9993" y2="25.918" gradientUnits="userSpaceOnUse">
<stop stop-color="#F41E3D"/>
<stop offset="1" stop-color="#D5122E"/>
</linearGradient>
<linearGradient id="paint3_linear" x1="63.1758" y1="39.5334" x2="63.2866" y2="46.5261" gradientUnits="userSpaceOnUse">
<stop stop-color="#F41E3D"/>
<stop offset="1" stop-color="#D5122E"/>
</linearGradient>
<linearGradient id="paint4_linear" x1="20" y1="39.5334" x2="20.1119" y2="46.5261" gradientUnits="userSpaceOnUse">
<stop stop-color="#F41E3D"/>
<stop offset="1" stop-color="#D5122E"/>
</linearGradient>
<linearGradient id="paint5_linear" x1="58.2121" y1="24.406" x2="58.3487" y2="31.1676" gradientUnits="userSpaceOnUse">
<stop stop-color="#F41E3D"/>
<stop offset="1" stop-color="#D5122E"/>
</linearGradient>
<linearGradient id="paint6_linear" x1="27.5636" y1="24.3274" x2="27.703" y2="31.1582" gradientUnits="userSpaceOnUse">
<stop stop-color="#F41E3D"/>
<stop offset="1" stop-color="#D5122E"/>
</linearGradient>
<linearGradient id="paint7_linear" x1="45.5273" y1="30.4729" x2="45.6931" y2="34.0831" gradientUnits="userSpaceOnUse">
<stop stop-color="#F41E3D"/>
<stop offset="1" stop-color="#D5122E"/>
</linearGradient>
<linearGradient id="paint8_linear" x1="55.3758" y1="42.291" x2="55.3903" y2="43.8988" gradientUnits="userSpaceOnUse">
<stop stop-color="#F41E3D"/>
<stop offset="1" stop-color="#D5122E"/>
</linearGradient>
<linearGradient id="paint9_linear" x1="33.7091" y1="42.291" x2="33.7237" y2="43.8988" gradientUnits="userSpaceOnUse">
<stop stop-color="#F41E3D"/>
<stop offset="1" stop-color="#D5122E"/>
</linearGradient>
<linearGradient id="paint10_linear" x1="52.4606" y1="33.9395" x2="52.523" y2="36.9932" gradientUnits="userSpaceOnUse">
<stop stop-color="#F41E3D"/>
<stop offset="1" stop-color="#D5122E"/>
</linearGradient>
<linearGradient id="paint11_linear" x1="37.1758" y1="33.9395" x2="37.2381" y2="36.9932" gradientUnits="userSpaceOnUse">
<stop stop-color="#F41E3D"/>
<stop offset="1" stop-color="#D5122E"/>
</linearGradient>
<linearGradient id="paint12_linear" x1="54.6851" y1="46.0122" x2="54.7187" y2="48.386" gradientUnits="userSpaceOnUse">
<stop stop-color="#F41E3D"/>
<stop offset="1" stop-color="#D5122E"/>
</linearGradient>
<linearGradient id="paint13_linear" x1="34.5941" y1="37.8972" x2="34.6278" y2="40.2711" gradientUnits="userSpaceOnUse">
<stop stop-color="#F41E3D"/>
<stop offset="1" stop-color="#D5122E"/>
</linearGradient>
<linearGradient id="paint14_linear" x1="49.2793" y1="31.4365" x2="49.3777" y2="34.8532" gradientUnits="userSpaceOnUse">
<stop stop-color="#F41E3D"/>
<stop offset="1" stop-color="#D5122E"/>
</linearGradient>
<linearGradient id="paint15_linear" x1="40.976" y1="31.4365" x2="41.0784" y2="34.8876" gradientUnits="userSpaceOnUse">
<stop stop-color="#F41E3D"/>
<stop offset="1" stop-color="#D5122E"/>
</linearGradient>
<linearGradient id="paint16_linear" x1="34.6729" y1="46.1013" x2="34.7063" y2="48.4647" gradientUnits="userSpaceOnUse">
<stop stop-color="#F41E3D"/>
<stop offset="1" stop-color="#D5122E"/>
</linearGradient>
<linearGradient id="paint17_linear" x1="54.6063" y1="37.7395" x2="54.6399" y2="40.1133" gradientUnits="userSpaceOnUse">
<stop stop-color="#F41E3D"/>
<stop offset="1" stop-color="#D5122E"/>
</linearGradient>
<linearGradient id="paint18_linear" x1="37.8467" y1="34.2371" x2="38.8191" y2="63.0841" gradientUnits="userSpaceOnUse">
<stop stop-color="#F41E3D"/>
<stop offset="1" stop-color="#D5122E"/>
</linearGradient>
</defs>
</svg>
