<svg width="90" height="69" viewBox="0 0 90 69" fill="none" xmlns="http://www.w3.org/2000/svg">
<rect width="90" height="69" fill="black" fill-opacity="0"/>
<path d="M62.7273 13.6364C70.8004 13.6364 77.5926 19.5106 78.9271 27.3307C85.1421 27.9337 90 33.1722 90 39.5455C90 46.3235 84.5053 51.8182 77.7273 51.8182H69.5455C68.7923 51.8182 68.1818 51.2077 68.1818 50.4545C68.1818 49.7014 68.7923 49.0909 69.5455 49.0909H77.7273C82.9991 49.0909 87.2727 44.8173 87.2727 39.5455C87.2727 34.2736 82.9991 30 77.7273 30C77.0257 30 76.4386 29.4677 76.3701 28.7695C75.6827 21.7619 69.79 16.3636 62.7273 16.3636C61.4539 16.3636 60.2052 16.5378 59.0051 16.8775C58.3215 17.071 57.6039 16.7072 57.3559 16.0415C54.3979 8.10174 46.7962 2.72727 38.1818 2.72727C28.7897 2.72727 20.6703 9.11157 18.3683 18.0802C18.2186 18.6631 17.7045 19.0791 17.1031 19.1036C9.08559 19.4313 2.72727 26.0389 2.72727 34.0909C2.72727 42.3752 9.443 49.0909 17.7273 49.0909H20.4545C21.2077 49.0909 21.8182 49.7014 21.8182 50.4545C21.8182 51.2077 21.2077 51.8182 20.4545 51.8182H17.7273C7.93677 51.8182 0 43.8814 0 34.0909C0 24.9112 6.99176 17.3206 15.9935 16.4474C18.9192 6.7847 27.8734 0 38.1818 0C47.5314 0 55.8282 5.58627 59.4582 13.9632C60.526 13.7466 61.6197 13.6364 62.7273 13.6364Z" fill="url(#paint0_linear)"/>
<rect width="42" height="42" fill="black" fill-opacity="0" transform="translate(24 27)"/>
<rect width="34.4909" height="42" fill="black" fill-opacity="0" transform="translate(24 27)"/>
<path d="M58.2364 38.6455C54.6091 34.7 56.9 37.1818 47.6727 27.1909C47.5455 27.1273 47.3545 27 47.2273 27H24.6364C24.2545 27 24 27.2545 24 27.6364V68.3636C24 68.7455 24.2545 69 24.6364 69H57.8545C58.0455 69 58.1727 68.9364 58.3 68.8091C58.4273 68.6818 58.4909 68.5545 58.4909 68.3636V39.2182C58.4909 38.9636 58.4273 38.7727 58.2364 38.6455ZM47.8636 29.2909C54.5455 36.4818 53.4636 35.3364 56.3909 38.5182H47.8636V29.2909ZM25.2727 67.7273V28.2727H46.5909V39.1545C46.5909 39.5364 46.8455 39.7909 47.2273 39.7909H57.2182V67.7273H25.2727Z" fill="url(#paint1_linear)"/>
<rect width="6.10909" height="29.4" fill="black" fill-opacity="0" transform="translate(59.8909 39.6)"/>
<path d="M62.9455 39.6C61.2909 39.6 59.8909 40.9363 59.8909 42.6545V60.4727V60.6636L62.3091 68.5545C62.3727 68.8091 62.6273 69 62.9455 69C63.2 69 63.4545 68.8091 63.5818 68.5545L66 60.6636V60.4727V42.6545C66 41 64.6636 39.6 62.9455 39.6ZM61.2273 46.1545H64.7273V47.6818H61.2273V46.1545ZM61.2273 48.9545H64.7273V59.8363H61.2273V48.9545ZM62.9455 40.8727C63.9 40.8727 64.7273 41.6363 64.7273 42.6545V44.8818H61.2273V42.6545C61.2273 41.7 61.9909 40.8727 62.9455 40.8727ZM62.9455 66.2L61.4182 61.1091H64.5364L62.9455 66.2Z" fill="url(#paint2_linear)"/>
<rect width="18.3273" height="18.3273" fill="black" fill-opacity="0" transform="translate(26.6091 29.4818)"/>
<path d="M39.5273 44.9454L40.8 45.9C40.9273 45.9636 41.0545 46.0273 41.1818 46.0273C41.3727 46.0273 41.5636 45.9636 41.6273 45.8364L42.9636 44.5C43.2182 44.2454 43.2182 43.9273 43.0273 43.6727L42.0091 42.4C42.3273 41.8273 42.6455 41.1909 42.7727 40.4909L44.3636 40.3C44.6818 40.2364 44.9364 39.9818 44.9364 39.6636V37.7545C44.9364 37.4364 44.6818 37.1818 44.3636 37.1182L42.7727 36.9273C42.5818 36.2909 42.3273 35.6545 42.0091 35.0182L42.9636 33.7454C43.1545 33.4909 43.1545 33.1091 42.9 32.8545L41.6273 31.4545C41.3727 31.2 41.0545 31.2 40.8 31.3909L39.5273 32.4091C38.9545 32.0909 38.3182 31.7727 37.6182 31.6454L37.4273 30.0545C37.3636 29.7364 37.1091 29.4818 36.7909 29.4818H34.8818C34.5636 29.4818 34.3091 29.7364 34.2455 30.0545L34.0545 31.6454C33.4182 31.8364 32.7818 32.0909 32.1455 32.4091L30.8727 31.3909C30.6182 31.2 30.2364 31.2 30.0455 31.4545L28.7091 32.8545C28.4545 33.1091 28.4545 33.4273 28.6455 33.6818L29.6636 34.9545C29.3455 35.5273 29.0273 36.1636 28.9 36.8636L27.1818 37.0545C26.8636 37.1182 26.6091 37.3727 26.6091 37.6909V39.6C26.6091 39.9182 26.8636 40.1727 27.1818 40.2364L28.7727 40.4273C28.9636 41.0636 29.2182 41.7 29.5364 42.3364L28.5182 43.6091C28.3273 43.8636 28.3273 44.2454 28.5818 44.4364L29.9182 45.8364C30.1727 46.0909 30.4909 46.0909 30.7455 45.9L32.0182 44.8818C32.5909 45.2 33.2273 45.5182 33.9273 45.6454L34.1182 47.2364C34.1818 47.5545 34.4364 47.8091 34.7545 47.8091H36.6636C36.9818 47.8091 37.2364 47.5545 37.3 47.2364L37.4909 45.6454C38.3182 45.5182 38.9545 45.2636 39.5273 44.9454ZM36.9818 44.5636C36.7273 44.6273 36.5364 44.8182 36.4727 45.1364L36.2818 46.6636H35.4545L35.2636 45.1364C35.2 44.8818 35.0091 44.6273 34.7545 44.5636C33.9273 44.4364 33.1636 44.1182 32.5273 43.6091C32.2727 43.4818 32.0182 43.4818 31.7636 43.6091L30.5545 44.5L29.9818 43.9273L30.8727 42.7182C31.0636 42.5273 31.0636 42.1454 30.8727 41.9545C30.4273 41.2545 30.1091 40.5545 29.9818 39.7273C29.9182 39.4727 29.7273 39.2818 29.4727 39.2182L27.8818 39.0909V38.2636L29.4091 38.0727C29.6636 38.0091 29.9182 37.8182 29.9818 37.5636C30.1091 36.7364 30.4273 35.9727 30.9364 35.3364C31.0636 35.0818 31.0636 34.8273 30.9364 34.5727L29.9182 33.3636L30.4909 32.7909L31.7 33.6818C31.8909 33.8727 32.2727 33.8727 32.4636 33.6818C33.1636 33.2364 33.8636 32.9182 34.6909 32.7909C34.9455 32.7273 35.1364 32.5364 35.2 32.2182L35.3909 30.6909H36.2182L36.4091 32.2182C36.4727 32.4727 36.6636 32.7273 36.9182 32.7909C37.7455 32.9182 38.5091 33.2364 39.1455 33.7454C39.4 33.8727 39.6545 33.8727 39.9091 33.7454L41.1182 32.8545L41.6909 33.4273L40.8 34.6364C40.6091 34.8273 40.6091 35.1454 40.8 35.4C41.2455 36.1 41.5636 36.8636 41.7545 37.6273C41.8182 37.8818 42.0091 38.0727 42.3273 38.1364L43.8545 38.3273V39.0909L42.3273 39.2818C42.0727 39.3454 41.8182 39.5364 41.8182 39.7909C41.6909 40.6182 41.3727 41.3818 40.8636 42.0182C40.7364 42.2727 40.7364 42.5273 40.8636 42.7818L41.7545 43.9909L41.1818 44.5636L39.9727 43.6727C39.7818 43.4818 39.4636 43.4818 39.2091 43.6727C38.5091 44.1182 37.7455 44.3727 36.9818 44.5636Z" fill="url(#paint3_linear)"/>
<rect width="9.03636" height="9.03636" fill="black" fill-opacity="0" transform="translate(31.3182 34.1273)"/>
<path d="M35.8364 34.1273C33.3545 34.1273 31.3182 36.1637 31.3182 38.6455C31.3182 41.1273 33.3545 43.1637 35.8364 43.1637C38.3182 43.1637 40.3545 41.1273 40.3545 38.6455C40.3545 36.1637 38.3182 34.1273 35.8364 34.1273ZM35.8364 41.891C34.0545 41.891 32.5909 40.4273 32.5909 38.6455C32.5909 36.8637 34.0545 35.4 35.8364 35.4C37.6182 35.4 39.0818 36.8637 39.0818 38.6455C39.0818 40.4273 37.6182 41.891 35.8364 41.891Z" fill="url(#paint4_linear)"/>
<rect width="7.7" height="7.76364" fill="black" fill-opacity="0" transform="translate(27.8182 48.8273)"/>
<path d="M34.8818 50.1C35.2636 50.1 35.5182 49.8455 35.5182 49.4636C35.5182 49.0818 35.2636 48.8273 34.8818 48.8273H28.4545C28.0727 48.8273 27.8182 49.0818 27.8182 49.4636V55.9545C27.8182 56.3364 28.0727 56.5909 28.4545 56.5909H34.8818C35.2636 56.5909 35.5182 56.3364 35.5182 55.9545V53.7909C35.5182 53.4091 35.2636 53.1545 34.8818 53.1545C34.5 53.1545 34.2455 53.4091 34.2455 53.7909V55.3182H29.0909V50.1H34.8818Z" fill="url(#paint5_linear)"/>
<rect width="6.11888" height="4.06385" fill="black" fill-opacity="0" transform="translate(29.7648 50.7065)"/>
<path d="M34.8182 50.8636L31.6364 53.1545L30.9364 51.7545C30.8091 51.4363 30.4273 51.3091 30.1091 51.5C29.7909 51.6272 29.6636 52.0091 29.8545 52.3272L30.8727 54.4272C30.9364 54.6182 31.1273 54.7454 31.3182 54.7454C31.5091 54.8091 31.7 54.7454 31.8273 54.6182L35.6455 51.8818C35.9 51.6909 35.9636 51.3091 35.7727 50.9909C35.4545 50.6727 35.0727 50.6091 34.8182 50.8636Z" fill="url(#paint6_linear)"/>
<rect width="7.7" height="7.76364" fill="black" fill-opacity="0" transform="translate(27.8182 58.0546)"/>
<path d="M34.8818 62.3182C34.5 62.3182 34.2455 62.5727 34.2455 62.9546V64.5455H29.0909V59.3273H34.8818C35.2636 59.3273 35.5182 59.0727 35.5182 58.6909C35.5182 58.3091 35.2636 58.0546 34.8818 58.0546H28.4545C28.0727 58.0546 27.8182 58.3091 27.8182 58.6909V65.1818C27.8182 65.5637 28.0727 65.8182 28.4545 65.8182H34.8818C35.2636 65.8182 35.5182 65.5637 35.5182 65.1818V63.0182C35.5182 62.6364 35.2 62.3182 34.8818 62.3182Z" fill="url(#paint7_linear)"/>
<rect width="6.11888" height="4.06385" fill="black" fill-opacity="0" transform="translate(29.7648 59.9338)"/>
<path d="M34.8182 60.0909L31.6364 62.3818L30.9364 60.9818C30.8091 60.6636 30.4273 60.5364 30.1091 60.7273C29.7909 60.8545 29.6636 61.2364 29.8545 61.5545L30.8727 63.6545C30.9364 63.8454 31.1273 63.9727 31.3182 63.9727C31.5091 64.0364 31.7 63.9727 31.8273 63.8454L35.6455 61.1091C35.9 60.9182 35.9636 60.5364 35.7727 60.2182C35.4545 59.9 35.0727 59.8364 34.8182 60.0909Z" fill="url(#paint8_linear)"/>
<rect width="10.6273" height="1.27273" fill="black" fill-opacity="0" transform="translate(44.8727 43.2273)"/>
<path d="M45.5091 44.5H54.8636C55.2455 44.5 55.5 44.2455 55.5 43.8637C55.5 43.4818 55.2455 43.2273 54.8636 43.2273H45.5091C45.1273 43.2273 44.8727 43.4818 44.8727 43.8637C44.8727 44.2455 45.1273 44.5 45.5091 44.5Z" fill="url(#paint9_linear)"/>
<rect width="17.1264" height="1.27273" fill="black" fill-opacity="0" transform="translate(38.3182 47.4908)"/>
<path d="M54.8636 47.4908H38.9545C38.5727 47.4908 38.3182 47.7454 38.3182 48.1272C38.3182 48.509 38.5727 48.7636 38.9545 48.7636H54.8C55.1818 48.7636 55.4364 48.509 55.4364 48.1272C55.5 47.809 55.1818 47.4908 54.8636 47.4908Z" fill="url(#paint10_linear)"/>
<rect width="17.8182" height="1.27273" fill="black" fill-opacity="0" transform="translate(37.6818 51.7545)"/>
<path d="M54.8636 51.7545H38.3182C37.9364 51.7545 37.6818 52.0091 37.6818 52.3909C37.6818 52.7727 37.9364 53.0272 38.3182 53.0272H54.8636C55.2455 53.0272 55.5 52.7727 55.5 52.3909C55.5 52.0727 55.1818 51.7545 54.8636 51.7545Z" fill="url(#paint11_linear)"/>
<rect width="17.8182" height="1.27273" fill="black" fill-opacity="0" transform="translate(37.6818 56.0182)"/>
<path d="M54.8636 56.0182H38.3182C37.9364 56.0182 37.6818 56.2727 37.6818 56.6546C37.6818 57.0364 37.9364 57.2909 38.3182 57.2909H54.8636C55.2455 57.2909 55.5 57.0364 55.5 56.6546C55.5 56.2727 55.1818 56.0182 54.8636 56.0182Z" fill="url(#paint12_linear)"/>
<rect width="17.8182" height="1.27273" fill="black" fill-opacity="0" transform="translate(37.6818 60.2819)"/>
<path d="M54.8636 60.2819H38.3182C37.9364 60.2819 37.6818 60.5364 37.6818 60.9182C37.6818 61.3 37.9364 61.5546 38.3182 61.5546H54.8636C55.2455 61.5546 55.5 61.3 55.5 60.9182C55.5 60.5364 55.1818 60.2819 54.8636 60.2819Z" fill="url(#paint13_linear)"/>
<rect width="17.8182" height="1.27273" fill="black" fill-opacity="0" transform="translate(37.6818 64.5455)"/>
<path d="M54.8636 64.5455H38.3182C37.9364 64.5455 37.6818 64.8001 37.6818 65.1819C37.6818 65.5637 37.9364 65.8183 38.3182 65.8183H54.8636C55.2455 65.8183 55.5 65.5637 55.5 65.1819C55.5 64.8001 55.1818 64.5455 54.8636 64.5455Z" fill="url(#paint14_linear)"/>
<defs>
<linearGradient id="paint0_linear" x1="0" y1="0" x2="0.621212" y2="52.8684" gradientUnits="userSpaceOnUse">
<stop stop-color="#F41E3D"/>
<stop offset="1" stop-color="#D5122E"/>
</linearGradient>
<linearGradient id="paint1_linear" x1="24" y1="27" x2="25.0644" y2="69.8307" gradientUnits="userSpaceOnUse">
<stop stop-color="#F41E3D"/>
<stop offset="1" stop-color="#D5122E"/>
</linearGradient>
<linearGradient id="paint2_linear" x1="59.8909" y1="39.6" x2="62.8092" y2="69.3134" gradientUnits="userSpaceOnUse">
<stop stop-color="#F41E3D"/>
<stop offset="1" stop-color="#D5122E"/>
</linearGradient>
<linearGradient id="paint3_linear" x1="26.6091" y1="29.4818" x2="26.9906" y2="48.1753" gradientUnits="userSpaceOnUse">
<stop stop-color="#F41E3D"/>
<stop offset="1" stop-color="#D5122E"/>
</linearGradient>
<linearGradient id="paint4_linear" x1="31.3182" y1="34.1273" x2="31.5063" y2="43.3443" gradientUnits="userSpaceOnUse">
<stop stop-color="#F41E3D"/>
<stop offset="1" stop-color="#D5122E"/>
</linearGradient>
<linearGradient id="paint5_linear" x1="27.8182" y1="48.8273" x2="27.9811" y2="56.746" gradientUnits="userSpaceOnUse">
<stop stop-color="#F41E3D"/>
<stop offset="1" stop-color="#D5122E"/>
</linearGradient>
<linearGradient id="paint6_linear" x1="29.7648" y1="50.7065" x2="29.821" y2="54.8526" gradientUnits="userSpaceOnUse">
<stop stop-color="#F41E3D"/>
<stop offset="1" stop-color="#D5122E"/>
</linearGradient>
<linearGradient id="paint7_linear" x1="27.8182" y1="58.0546" x2="27.9811" y2="65.9733" gradientUnits="userSpaceOnUse">
<stop stop-color="#F41E3D"/>
<stop offset="1" stop-color="#D5122E"/>
</linearGradient>
<linearGradient id="paint8_linear" x1="29.7648" y1="59.9338" x2="29.821" y2="64.0799" gradientUnits="userSpaceOnUse">
<stop stop-color="#F41E3D"/>
<stop offset="1" stop-color="#D5122E"/>
</linearGradient>
<linearGradient id="paint9_linear" x1="44.8727" y1="43.2273" x2="44.8759" y2="44.526" gradientUnits="userSpaceOnUse">
<stop stop-color="#F41E3D"/>
<stop offset="1" stop-color="#D5122E"/>
</linearGradient>
<linearGradient id="paint10_linear" x1="38.3182" y1="47.4908" x2="38.3202" y2="48.7895" gradientUnits="userSpaceOnUse">
<stop stop-color="#F41E3D"/>
<stop offset="1" stop-color="#D5122E"/>
</linearGradient>
<linearGradient id="paint11_linear" x1="37.6818" y1="51.7545" x2="37.6837" y2="53.0532" gradientUnits="userSpaceOnUse">
<stop stop-color="#F41E3D"/>
<stop offset="1" stop-color="#D5122E"/>
</linearGradient>
<linearGradient id="paint12_linear" x1="37.6818" y1="56.0182" x2="37.6837" y2="57.3169" gradientUnits="userSpaceOnUse">
<stop stop-color="#F41E3D"/>
<stop offset="1" stop-color="#D5122E"/>
</linearGradient>
<linearGradient id="paint13_linear" x1="37.6818" y1="60.2819" x2="37.6837" y2="61.5806" gradientUnits="userSpaceOnUse">
<stop stop-color="#F41E3D"/>
<stop offset="1" stop-color="#D5122E"/>
</linearGradient>
<linearGradient id="paint14_linear" x1="37.6818" y1="64.5455" x2="37.6837" y2="65.8442" gradientUnits="userSpaceOnUse">
<stop stop-color="#F41E3D"/>
<stop offset="1" stop-color="#D5122E"/>
</linearGradient>
</defs>
</svg>
