<svg width="90" height="69" viewBox="0 0 90 69" fill="none" xmlns="http://www.w3.org/2000/svg">
<rect width="90" height="69" fill="black" fill-opacity="0"/>
<path d="M62.7273 13.6364C70.8004 13.6364 77.5926 19.5106 78.9271 27.3307C85.1421 27.9337 90 33.1722 90 39.5455C90 46.3235 84.5053 51.8182 77.7273 51.8182H69.5455C68.7923 51.8182 68.1818 51.2077 68.1818 50.4545C68.1818 49.7014 68.7923 49.0909 69.5455 49.0909H77.7273C82.9991 49.0909 87.2727 44.8173 87.2727 39.5455C87.2727 34.2736 82.9991 30 77.7273 30C77.0257 30 76.4386 29.4677 76.3701 28.7695C75.6827 21.7619 69.79 16.3636 62.7273 16.3636C61.4539 16.3636 60.2052 16.5378 59.0051 16.8775C58.3215 17.071 57.6039 16.7072 57.3559 16.0415C54.3979 8.10174 46.7962 2.72727 38.1818 2.72727C28.7897 2.72727 20.6703 9.11157 18.3683 18.0802C18.2186 18.6631 17.7045 19.0791 17.1031 19.1036C9.08559 19.4313 2.72727 26.0389 2.72727 34.0909C2.72727 42.3752 9.443 49.0909 17.7273 49.0909H20.4545C21.2077 49.0909 21.8182 49.7014 21.8182 50.4545C21.8182 51.2077 21.2077 51.8182 20.4545 51.8182H17.7273C7.93677 51.8182 0 43.8814 0 34.0909C0 24.9112 6.99176 17.3206 15.9935 16.4474C18.9192 6.7847 27.8734 0 38.1818 0C47.5314 0 55.8282 5.58627 59.4582 13.9632C60.526 13.7466 61.6197 13.6364 62.7273 13.6364Z" fill="url(#paint0_linear)"/>
<rect width="50" height="50" fill="black" fill-opacity="0" transform="translate(21 19)"/>
<rect width="34.0644" height="25.7861" fill="black" fill-opacity="0" transform="translate(36.9356 19)"/>
<path d="M70.9851 37.8294C70.8335 37.4497 70.4543 37.222 69.9993 37.3738L65.7526 38.7404L62.9467 37.2979L65.7526 36.3868C66.1317 36.2349 66.3592 35.8553 66.2076 35.3998C66.0559 35.0201 65.6767 34.7924 65.2217 34.9442L60.975 36.3109L60.2167 35.9312C60.8234 34.4887 61.2025 32.8183 61.2025 31.148C61.2025 24.4666 55.7425 19 49.0691 19C42.3957 19 36.9356 24.4666 36.9356 31.148C36.9356 37.8294 42.3957 43.2959 49.0691 43.2959C53.5433 43.2959 57.4108 40.8663 59.5342 37.2979L60.2925 37.6775L61.6575 41.9293C61.8092 42.3089 62.1884 42.5367 62.6434 42.3848C63.0225 42.233 63.25 41.8534 63.1742 41.3978L62.2642 38.5886L65.0701 40.0312L66.4351 44.283C66.5867 44.6626 66.9659 44.8904 67.4209 44.7385C67.8001 44.5867 68.0276 44.207 67.9518 43.7515L67.0417 40.9423L68.0276 41.4737C68.1034 41.5497 68.2551 41.5497 68.4068 41.5497C68.7101 41.5497 68.9376 41.3978 69.0893 41.17C69.3168 40.7904 69.1651 40.3349 68.7859 40.183L67.8001 39.6515L70.606 38.7404C70.8335 38.6645 71.061 38.209 70.9851 37.8294ZM49.1449 41.7015C43.3057 41.7015 38.5282 36.9183 38.5282 31.072C38.5282 25.2258 43.3057 20.4426 49.1449 20.4426C54.9841 20.4426 59.7617 25.2258 59.7617 31.072C59.7617 32.5146 59.4583 33.8813 58.9275 35.172L56.9558 34.109C57.335 33.122 57.5625 32.135 57.5625 30.9961C57.5625 26.3647 53.7708 22.5685 49.1449 22.5685C44.519 22.5685 40.7273 26.3647 40.7273 30.9961C40.7273 35.6275 44.519 39.4238 49.1449 39.4238C52.1783 39.4238 54.8325 37.8293 56.2733 35.3998L58.245 36.3868C56.425 39.5756 53.0125 41.7015 49.1449 41.7015ZM52.4816 27.2758L45.5807 28.3388C45.0499 28.4147 44.8224 28.9461 45.0499 29.4017L48.1591 35.6275C48.3107 36.0072 48.7658 36.159 49.1449 35.9312C49.5241 35.7794 49.6758 35.3238 49.4483 34.9442L47.4007 30.7683L54.9083 34.6405C53.695 36.5386 51.5716 37.8294 49.1449 37.8294C45.3532 37.8294 42.244 34.7164 42.244 30.9202C42.244 27.124 45.3532 24.011 49.1449 24.011C52.9366 24.011 56.0458 27.124 56.0458 30.9202C56.0458 31.7554 55.8941 32.5905 55.5908 33.2739L48.0832 29.4017L52.7091 28.7184C53.0883 28.6424 53.3916 28.2628 53.3158 27.8832C53.3158 27.5036 52.9366 27.2758 52.4816 27.2758Z" fill="url(#paint1_linear)"/>
<rect width="48.3839" height="41.2687" fill="black" fill-opacity="0" transform="translate(21 27.7313)"/>
<path d="M69.0893 63.4919L64.0084 59.392C63.7051 59.0883 63.1742 59.1642 62.9467 59.4679C62.7192 59.7716 62.7192 60.3031 63.0225 60.5308L66.4351 63.3401H54.7566V52.0273C54.7566 51.5717 54.4533 51.268 53.9983 51.268H49.5241C49.0691 51.268 48.7658 51.5717 48.7658 52.0273V63.3401H46.1874V47.4718C46.1874 47.0162 45.8841 46.7125 45.4291 46.7125H40.4998C40.0448 46.7125 39.7415 47.0162 39.7415 47.4718V63.3401H37.1631V41.6256C37.1631 41.17 36.8598 40.8663 36.4048 40.8663H31.4756C31.0206 40.8663 30.7173 41.17 30.7173 41.6256V63.2641H26.5464V30.6165L29.3522 34.0331C29.6556 34.3368 30.1106 34.4127 30.4139 34.109C30.7173 33.8812 30.7931 33.3498 30.4898 33.0461L26.3947 27.9591C26.243 27.8072 26.0914 27.7313 25.8639 27.7313C25.6364 27.7313 25.4089 27.8072 25.2572 27.9591L21.1622 33.0461C20.9347 33.3498 20.9347 33.8812 21.238 34.109C21.5413 34.3368 22.0722 34.3368 22.2997 34.0331L25.1055 30.6165V64.0993C25.1055 64.5548 25.4089 64.8585 25.8639 64.8585C30.8689 64.8585 61.6575 64.8585 66.5109 64.8585L63.0984 67.6678C62.795 67.8955 62.7192 68.427 63.0225 68.7307C63.2501 69.0344 63.7809 69.1103 64.0842 68.8066L69.1651 64.7067C69.4684 64.3271 69.4684 63.7956 69.0893 63.4919ZM32.0823 63.3401V42.3848H35.4948V63.2641H32.0823V63.3401ZM41.1823 63.3401V48.231H44.5949V63.3401H41.1823ZM50.2824 63.3401V52.7865H53.24V63.3401H50.2824Z" fill="url(#paint2_linear)"/>
<defs>
<linearGradient id="paint0_linear" x1="0" y1="0" x2="0.621212" y2="52.8684" gradientUnits="userSpaceOnUse">
<stop stop-color="#F41E3D"/>
<stop offset="1" stop-color="#D5122E"/>
</linearGradient>
<linearGradient id="paint1_linear" x1="36.9356" y1="19" x2="37.342" y2="45.306" gradientUnits="userSpaceOnUse">
<stop stop-color="#F41E3D"/>
<stop offset="1" stop-color="#D5122E"/>
</linearGradient>
<linearGradient id="paint2_linear" x1="21" y1="27.7313" x2="21.7328" y2="69.8294" gradientUnits="userSpaceOnUse">
<stop stop-color="#F41E3D"/>
<stop offset="1" stop-color="#D5122E"/>
</linearGradient>
</defs>
</svg>
