<svg width="90" height="69" viewBox="0 0 90 69" fill="none" xmlns="http://www.w3.org/2000/svg">
<rect width="90" height="69" fill="black" fill-opacity="0"/>
<path d="M62.7273 13.6364C70.8004 13.6364 77.5927 19.5106 78.9271 27.3307C85.1421 27.9337 90 33.1722 90 39.5455C90 46.3235 84.5053 51.8182 77.7273 51.8182H69.5455C68.7923 51.8182 68.1818 51.2077 68.1818 50.4545C68.1818 49.7014 68.7923 49.0909 69.5455 49.0909H77.7273C82.9991 49.0909 87.2727 44.8173 87.2727 39.5455C87.2727 34.2736 82.9991 30 77.7273 30C77.0257 30 76.4386 29.4677 76.3701 28.7695C75.6827 21.7619 69.79 16.3636 62.7273 16.3636C61.4539 16.3636 60.2052 16.5378 59.0051 16.8775C58.3215 17.071 57.6039 16.7072 57.3559 16.0415C54.3979 8.10174 46.7962 2.72727 38.1818 2.72727C28.7897 2.72727 20.6703 9.11157 18.3683 18.0802C18.2186 18.6631 17.7045 19.0791 17.1031 19.1036C9.08559 19.4313 2.72727 26.0389 2.72727 34.0909C2.72727 42.3752 9.443 49.0909 17.7273 49.0909H20.4545C21.2077 49.0909 21.8182 49.7014 21.8182 50.4545C21.8182 51.2077 21.2077 51.8182 20.4545 51.8182H17.7273C7.93677 51.8182 0 43.8814 0 34.0909C0 24.9112 6.99176 17.3206 15.9935 16.4474C18.9192 6.7847 27.8734 0 38.1818 0C47.5314 0 55.8282 5.58627 59.4582 13.9632C60.526 13.7466 61.6197 13.6364 62.7273 13.6364Z" fill="url(#paint0_linear)"/>
<path d="M27.4455 69C28.3497 69.0024 29.233 68.7332 29.9769 68.2286C30.7209 67.724 31.2899 67.0081 31.6076 66.1768C31.9254 65.3456 31.9766 64.4389 31.7545 63.5782C31.5325 62.7176 31.0477 61.9442 30.3652 61.3618L38.2505 47.5398C39.1429 47.8035 40.0974 47.7837 40.9777 47.483C41.858 47.1824 42.619 46.6163 43.1521 45.8657L53.0887 50.3073C52.9568 51.0614 53.0295 51.8363 53.2993 52.5541C53.5692 53.2719 54.0268 53.9073 54.626 54.3964C55.2253 54.8854 55.9451 55.211 56.7131 55.3402C57.4812 55.4694 58.2703 55.3978 59.0012 55.1326C59.7321 54.8674 60.379 54.4179 60.8769 53.8293C61.3748 53.2407 61.7061 52.5337 61.8374 51.7796C61.9688 51.0254 61.8956 50.2505 61.6253 49.5329C61.3549 48.8153 60.8969 48.1802 60.2973 47.6915L65.6306 36.6423C66.694 36.8632 67.803 36.6941 68.7482 36.167C69.6934 35.6399 70.4094 34.7912 70.7609 33.7812C71.1125 32.7713 71.0753 31.6698 70.6564 30.6849C70.2375 29.7 69.4658 28.8998 68.4872 28.4353C67.5085 27.9708 66.3905 27.8743 65.3443 28.1638C64.2981 28.4534 63.396 29.109 62.8084 30.007C62.2208 30.9049 61.9884 31.9831 62.1549 33.0378C62.3215 34.0926 62.8756 35.0509 63.7125 35.732L58.3846 46.7707C57.5641 46.5985 56.7106 46.659 55.9237 46.9453C55.1369 47.2315 54.4493 47.7317 53.9411 48.3873L43.9247 43.909C44.0202 43.173 43.9227 42.4251 43.6415 41.7364C43.3603 41.0477 42.9046 40.4409 42.3177 39.9735C41.7308 39.5061 41.0321 39.1936 40.2877 39.0656C39.5434 38.9376 38.7781 38.9983 38.0644 39.242C37.3506 39.4858 36.7121 39.9044 36.2092 40.4583C35.7064 41.0122 35.3559 41.683 35.191 42.4071C35.0261 43.1313 35.0522 43.8848 35.2669 44.5962C35.4815 45.3077 35.8776 45.9535 36.4177 46.4725L28.4738 60.3992C27.8637 60.2554 27.2296 60.2403 26.6131 60.3548C25.9967 60.4693 25.412 60.7109 24.8976 61.0635C24.3832 61.4161 23.9508 61.8719 23.6288 62.4006C23.3069 62.9294 23.1028 63.5191 23.03 64.131C22.9572 64.7429 23.0173 65.3629 23.2064 65.9503C23.3955 66.5377 23.7092 67.079 24.127 67.5387C24.5447 67.9983 25.057 68.3657 25.6299 68.6167C26.2028 68.8676 26.8235 68.9965 27.4508 68.9948L27.4455 69ZM66.5203 30.108C66.9766 30.108 67.4226 30.2408 67.802 30.4897C68.1814 30.7386 68.4771 31.0924 68.6517 31.5064C68.8263 31.9203 68.872 32.3758 68.783 32.8152C68.694 33.2546 68.4742 33.6583 68.1516 33.9751C67.829 34.2919 67.4179 34.5076 66.9704 34.595C66.5229 34.6824 66.059 34.6376 65.6375 34.4661C65.2159 34.2947 64.8556 34.0043 64.6021 33.6318C64.3486 33.2593 64.2133 32.8213 64.2133 32.3733C64.2147 31.7729 64.4583 31.1975 64.8906 30.773C65.3229 30.3485 65.9089 30.1093 66.5203 30.108ZM57.4629 48.7692C57.9192 48.7692 58.3652 48.9021 58.7446 49.151C59.124 49.3999 59.4196 49.7537 59.5943 50.1676C59.7689 50.5816 59.8146 51.037 59.7255 51.4765C59.6365 51.9159 59.4168 52.3195 59.0942 52.6363C58.7715 52.9531 58.3605 53.1689 57.913 53.2563C57.4654 53.3437 57.0016 53.2988 56.58 53.1274C56.1585 52.9559 55.7982 52.6656 55.5447 52.2931C55.2912 51.9205 55.1559 51.4826 55.1559 51.0345C55.1573 50.4342 55.4008 49.8588 55.8332 49.4342C56.2655 49.0097 56.8515 48.7706 57.4629 48.7692ZM39.5238 41.0944C39.9801 41.0944 40.4262 41.2273 40.8055 41.4762C41.1849 41.7251 41.4806 42.0789 41.6552 42.4928C41.8298 42.9067 41.8755 43.3622 41.7865 43.8016C41.6975 44.2411 41.4778 44.6447 41.1551 44.9615C40.8325 45.2783 40.4214 45.4941 39.9739 45.5815C39.5264 45.6689 39.0625 45.624 38.641 45.4526C38.2195 45.2811 37.8592 44.9908 37.6057 44.6182C37.3522 44.2457 37.2169 43.8077 37.2169 43.3597C37.2183 42.7593 37.4618 42.184 37.8941 41.7594C38.3265 41.3349 38.9124 41.0958 39.5238 41.0944ZM27.4455 62.3715C27.9018 62.3715 28.3478 62.5044 28.7272 62.7533C29.1066 63.0022 29.4023 63.356 29.5769 63.7699C29.7515 64.1838 29.7972 64.6393 29.7081 65.0787C29.6191 65.5182 29.3994 65.9218 29.0768 66.2386C28.7541 66.5554 28.3431 66.7712 27.8956 66.8586C27.4481 66.946 26.9842 66.9011 26.5626 66.7297C26.1411 66.5582 25.7808 66.2679 25.5273 65.8953C25.2738 65.5228 25.1385 65.0848 25.1385 64.6368C25.1399 64.0364 25.3834 63.461 25.8158 63.0365C26.2481 62.612 26.8341 62.3729 27.4455 62.3715Z" fill="url(#paint1_linear)"/>
<defs>
<linearGradient id="paint0_linear" x1="0" y1="0" x2="0.621212" y2="52.8684" gradientUnits="userSpaceOnUse">
<stop stop-color="#F41E3D"/>
<stop offset="1" stop-color="#D5122E"/>
</linearGradient>
<linearGradient id="paint1_linear" x1="23" y1="28" x2="23.7291" y2="69.824" gradientUnits="userSpaceOnUse">
<stop stop-color="#F41E3D"/>
<stop offset="1" stop-color="#D5122E"/>
</linearGradient>
</defs>
</svg>
