<svg width="90" height="61" viewBox="0 0 90 61" fill="none" xmlns="http://www.w3.org/2000/svg">
<rect width="90" height="61" fill="black" fill-opacity="0"/>
<path d="M62.7273 13.6364C70.8004 13.6364 77.5926 19.5106 78.9271 27.3307C85.1421 27.9337 90 33.1722 90 39.5455C90 46.3235 84.5053 51.8182 77.7273 51.8182H69.5455C68.7923 51.8182 68.1818 51.2077 68.1818 50.4545C68.1818 49.7014 68.7923 49.0909 69.5455 49.0909H77.7273C82.9991 49.0909 87.2727 44.8173 87.2727 39.5455C87.2727 34.2736 82.9991 30 77.7273 30C77.0257 30 76.4386 29.4677 76.3701 28.7695C75.6827 21.7619 69.79 16.3636 62.7273 16.3636C61.4539 16.3636 60.2052 16.5378 59.0051 16.8775C58.3215 17.071 57.6039 16.7072 57.3559 16.0415C54.3979 8.10174 46.7962 2.72727 38.1818 2.72727C28.7897 2.72727 20.6703 9.11157 18.3683 18.0802C18.2186 18.6631 17.7045 19.0791 17.1031 19.1036C9.08559 19.4313 2.72727 26.0389 2.72727 34.0909C2.72727 42.3752 9.443 49.0909 17.7273 49.0909H20.4545C21.2077 49.0909 21.8182 49.7014 21.8182 50.4545C21.8182 51.2077 21.2077 51.8182 20.4545 51.8182H17.7273C7.93677 51.8182 0 43.8814 0 34.0909C0 24.9112 6.99176 17.3206 15.9935 16.4474C18.9192 6.7847 27.8734 0 38.1818 0C47.5314 0 55.8282 5.58627 59.4582 13.9632C60.526 13.7466 61.6197 13.6364 62.7273 13.6364Z" fill="url(#paint0_linear)"/>
<rect width="41" height="32" fill="black" fill-opacity="0" transform="translate(25 29)"/>
<path d="M35.7374 61H25.9758C25.4369 61 25 60.5511 25 59.9986V51.9995C25 51.4466 25.4369 51 25.9758 51H35.7374C36.2777 51 36.7146 51.4466 36.7146 51.9995V59.9986C36.7146 60.5511 36.2777 61 35.7374 61ZM26.9521 58.9991H34.7626V52.9991H26.9521V58.9991Z" fill="url(#paint1_linear)"/>
<path d="M50.3813 61H40.6187C40.0798 61 39.6429 60.5511 39.6429 59.9986V51.9995C39.6429 51.4466 40.0798 51 40.6187 51H50.3813C50.9202 51 51.358 51.4466 51.358 51.9995V59.9986C51.3575 60.5511 50.9197 61 50.3813 61ZM41.5959 58.9991H49.4041V52.9991H41.5959V58.9991Z" fill="url(#paint2_linear)"/>
<path d="M65.0242 61H55.2626C54.7223 61 54.2854 60.5511 54.2854 59.9986V51.9995C54.2854 51.4466 54.7223 51 55.2626 51H65.0247C65.5631 51 66 51.4466 66 51.9995V59.9986C66 60.5511 65.5631 61 65.0242 61ZM56.2375 58.9991H64.048V52.9991H56.2375V58.9991Z" fill="url(#paint3_linear)"/>
<path d="M50.3813 39H40.6187C40.0798 39 39.6429 38.5534 39.6429 38.0005V30.0014C39.6429 29.4484 40.0798 29 40.6187 29H50.3813C50.9202 29 51.358 29.4484 51.358 30.0014V38.0005C51.3575 38.5534 50.9197 39 50.3813 39ZM41.5959 37.0009H49.4041V31.0009H41.5959V37.0009Z" fill="url(#paint4_linear)"/>
<path d="M60.1434 44.0005H46.4767V38.0005H44.5247V44.0005H30.8566C30.3177 44.0005 29.8808 44.4471 29.8808 45V51.9996H31.8333V45.9996H44.5242V51.9996H46.4763V45.9996H59.1667V51.9996H61.1187V45C61.1187 44.4471 60.6819 44.0005 60.1434 44.0005Z" fill="url(#paint5_linear)"/>
<defs>
<linearGradient id="paint0_linear" x1="0" y1="0" x2="0.621212" y2="52.8684" gradientUnits="userSpaceOnUse">
<stop stop-color="#F41E3D"/>
<stop offset="1" stop-color="#D5122E"/>
</linearGradient>
<linearGradient id="paint1_linear" x1="25" y1="51" x2="25.1777" y2="61.201" gradientUnits="userSpaceOnUse">
<stop stop-color="#F41E3D"/>
<stop offset="1" stop-color="#D5122E"/>
</linearGradient>
<linearGradient id="paint2_linear" x1="39.6429" y1="51" x2="39.8206" y2="61.201" gradientUnits="userSpaceOnUse">
<stop stop-color="#F41E3D"/>
<stop offset="1" stop-color="#D5122E"/>
</linearGradient>
<linearGradient id="paint3_linear" x1="54.2854" y1="51" x2="54.4631" y2="61.201" gradientUnits="userSpaceOnUse">
<stop stop-color="#F41E3D"/>
<stop offset="1" stop-color="#D5122E"/>
</linearGradient>
<linearGradient id="paint4_linear" x1="39.6429" y1="29" x2="39.8206" y2="39.201" gradientUnits="userSpaceOnUse">
<stop stop-color="#F41E3D"/>
<stop offset="1" stop-color="#D5122E"/>
</linearGradient>
<linearGradient id="paint5_linear" x1="29.8808" y1="38.0005" x2="30.0115" y2="52.2841" gradientUnits="userSpaceOnUse">
<stop stop-color="#F41E3D"/>
<stop offset="1" stop-color="#D5122E"/>
</linearGradient>
</defs>
</svg>
