<svg width="90" height="69" viewBox="0 0 90 69" fill="none" xmlns="http://www.w3.org/2000/svg">
<rect width="90" height="69" fill="black" fill-opacity="0"/>
<path d="M62.7273 13.6364C70.8004 13.6364 77.5926 19.5106 78.9271 27.3307C85.1421 27.9337 90 33.1722 90 39.5455C90 46.3235 84.5053 51.8182 77.7273 51.8182H69.5455C68.7923 51.8182 68.1818 51.2077 68.1818 50.4545C68.1818 49.7014 68.7923 49.0909 69.5455 49.0909H77.7273C82.9991 49.0909 87.2727 44.8173 87.2727 39.5455C87.2727 34.2736 82.9991 30 77.7273 30C77.0257 30 76.4386 29.4677 76.3701 28.7695C75.6827 21.7619 69.79 16.3636 62.7273 16.3636C61.4539 16.3636 60.2052 16.5378 59.0051 16.8775C58.3215 17.071 57.6039 16.7072 57.3559 16.0415C54.3979 8.10174 46.7962 2.72727 38.1818 2.72727C28.7897 2.72727 20.6703 9.11157 18.3683 18.0802C18.2186 18.6631 17.7045 19.0791 17.1031 19.1036C9.08559 19.4313 2.72727 26.0389 2.72727 34.0909C2.72727 42.3752 9.443 49.0909 17.7273 49.0909H20.4545C21.2077 49.0909 21.8182 49.7014 21.8182 50.4545C21.8182 51.2077 21.2077 51.8182 20.4545 51.8182H17.7273C7.93677 51.8182 0 43.8814 0 34.0909C0 24.9112 6.99176 17.3206 15.9935 16.4474C18.9192 6.7847 27.8734 0 38.1818 0C47.5314 0 55.8282 5.58627 59.4582 13.9632C60.526 13.7466 61.6197 13.6364 62.7273 13.6364Z" fill="url(#paint0_linear)"/>
<rect width="39" height="41" fill="black" fill-opacity="0" transform="translate(26 28)"/>
<path d="M28.0607 55.4918C28.7279 55.3293 29.1354 54.662 28.9712 54.0021C28.6548 52.7336 28.4871 51.4074 28.4871 50.0403C28.4876 45.4806 30.3508 41.3646 33.3693 38.3749C36.1793 35.5945 39.9763 33.8068 44.2018 33.5714L43.0058 35.4329C42.6371 36.0067 42.8082 36.7675 43.3878 37.1324C43.9675 37.4973 44.7361 37.3279 45.1048 36.7542L48.0347 32.1945L44.1829 28.3627C43.6978 27.8806 42.9102 27.8791 42.4237 28.3583C41.9366 28.8384 41.9351 29.618 42.4192 30.0996L43.4819 31.1564C33.6867 31.9966 26.001 40.1266 26 50.0398C26 51.6068 26.1925 53.132 26.5557 54.5911C26.7199 55.2515 27.3941 55.6548 28.0607 55.4918Z" fill="url(#paint1_linear)"/>
<path d="M56.2697 62.3331C53.3164 64.9495 49.4288 66.5367 45.1541 66.5377C41.7714 66.5372 38.6345 65.5434 36.0071 63.8336C33.9703 62.5074 32.2494 60.7454 30.9668 58.6903L33.1956 58.8346C33.8812 58.879 34.4728 58.3648 34.5181 57.6862C34.5628 57.0076 34.0434 56.4216 33.3578 56.3773L27.91 56.0251L26.3662 61.2103C26.1722 61.8628 26.5488 62.5473 27.2075 62.7393C27.8667 62.9314 28.5583 62.5586 28.7523 61.9066V61.9061L29.1757 60.4849C30.6105 62.631 32.4663 64.4758 34.639 65.8906C37.6554 67.8555 41.2749 69.0005 45.1531 69C50.0566 69.0005 54.5418 67.1705 57.9284 64.1675C58.4398 63.7139 58.4831 62.9353 58.0249 62.4291C57.5667 61.9228 56.7811 61.8795 56.2697 62.3331Z" fill="url(#paint2_linear)"/>
<path d="M63.632 59.243L61.7966 59.4257C63.3931 56.6571 64.3096 53.4512 64.3091 50.04C64.3096 45.6359 62.7872 41.5711 60.2384 38.3539C57.6891 35.1352 54.1119 32.7521 49.9904 31.6904C49.3258 31.519 48.6466 31.914 48.4735 32.5724C48.3004 33.2303 48.6994 33.9025 49.3646 34.0739H49.3641C52.9442 34.9953 56.0602 37.0691 58.2801 39.8726C60.4996 42.6772 61.8205 46.2002 61.821 50.04C61.8205 52.9799 61.0439 55.7323 59.6851 58.1202L59.0821 56.3277C58.8647 55.6826 58.1602 55.3334 57.509 55.5486C56.8577 55.7638 56.5045 56.4611 56.7219 57.1058L58.4473 62.2333L63.8807 61.692C64.5643 61.6236 65.0623 61.0208 64.9937 60.3442C64.9245 59.6685 64.3155 59.1751 63.632 59.243Z" fill="url(#paint3_linear)"/>
<path d="M53.0288 45.4359L51.984 44.0387C51.8397 43.8728 51.5751 43.7664 51.3382 43.7664C51.282 43.7664 51.2273 43.7728 51.1765 43.7851C51.1765 43.7851 50.792 43.8807 50.3143 43.8807C49.9412 43.8807 49.5118 43.8226 49.1641 43.6147C48.3705 43.142 48.071 41.9325 48.071 41.9325C48.0058 41.67 47.7342 41.4056 47.4675 41.3455L45.7302 41.0855L45.6894 41.084C45.4247 41.084 45.1123 41.2524 44.9779 41.473C44.9779 41.473 44.3317 42.5407 43.4336 42.7618C43.3023 42.7938 43.167 42.8081 43.0316 42.8081C42.2431 42.8081 41.459 42.3383 41.459 42.3383C41.344 42.2693 41.1928 42.2349 41.0416 42.2349C40.8858 42.2349 40.7291 42.2713 40.6117 42.3447L39.1992 43.3788C38.9918 43.5551 38.8768 43.9151 38.943 44.1776C38.943 44.1776 39.249 45.3846 38.7719 46.1691C38.2937 46.9531 37.0728 47.2511 37.0728 47.2511C36.8072 47.3161 36.5405 47.5849 36.4798 47.8494L36.2176 49.5681C36.1982 49.838 36.3738 50.1733 36.6086 50.3127C36.6086 50.3127 37.6873 50.9529 37.9092 51.8413C38.1325 52.7292 37.4808 53.7949 37.4808 53.7949C37.3395 54.0268 37.342 54.404 37.4873 54.6335L38.5321 56.0311C38.6763 56.1971 38.9415 56.3035 39.1783 56.3035C39.2341 56.3035 39.2888 56.2975 39.339 56.2852C39.339 56.2852 39.7236 56.1902 40.2012 56.1902C40.5744 56.1902 41.0042 56.2483 41.352 56.4551C42.1441 56.9279 42.4446 58.1379 42.4446 58.1379C42.5102 58.4004 42.7819 58.6648 43.049 58.7249L44.7844 58.9839L44.8262 58.9854C45.0909 58.9854 45.4033 58.817 45.5376 58.5963C45.5376 58.5963 46.1849 57.5302 47.0819 57.3096C47.2133 57.2771 47.3486 57.2633 47.4839 57.2633C48.272 57.2633 49.0566 57.7336 49.0566 57.7336C49.172 57.8025 49.3233 57.837 49.4745 57.837C49.6302 57.837 49.7865 57.8005 49.9039 57.7277L51.3158 56.6945C51.5233 56.5177 51.6382 56.1582 51.5726 55.8952C51.5726 55.8952 51.2676 54.6862 51.7437 53.9017C52.2218 53.1167 53.4442 52.8198 53.4442 52.8198C53.7094 52.7553 53.9766 52.4864 54.0373 52.2219L54.2995 50.5038C54.3189 50.2339 54.1433 49.8985 53.9084 49.7592C53.9084 49.7592 52.8283 49.118 52.6064 48.2301C52.383 47.3417 53.0348 46.2755 53.0348 46.2755C53.1761 46.0435 53.1736 45.6658 53.0288 45.4359ZM52.7502 50.7638L52.6348 51.5227C52.2696 51.6527 51.7601 51.8807 51.2895 52.2426L50.3228 51.2858C50.177 51.1415 49.9407 51.1415 49.7949 51.2858C49.6492 51.4301 49.6492 51.664 49.7949 51.8083L50.7502 52.7543C50.6477 52.8745 50.5502 53.001 50.4646 53.1414C50.2163 53.5506 50.09 53.9928 50.0303 54.4149L49.0014 53.397C48.8556 53.2527 48.6193 53.2527 48.4735 53.397C48.3277 53.5413 48.3277 53.7752 48.4735 53.9195L49.9979 55.4279C50.0084 55.5603 50.0203 55.6859 50.0357 55.7943L49.4118 56.2513C49.0725 56.0937 48.5695 55.9055 48.0014 55.8268L47.1531 54.9866C47.0073 54.8423 46.771 54.8423 46.6252 54.9866C46.4795 55.1309 46.4795 55.3648 46.6252 55.5091L46.9536 55.8346C46.876 55.8469 46.7974 55.8578 46.7217 55.8765C45.663 56.1365 44.9078 56.9446 44.5227 57.4514L43.755 57.3366C43.5371 56.7383 43.055 55.747 42.1212 55.1895C41.5908 54.8738 40.9445 54.7133 40.2017 54.7133C39.9127 54.7133 39.651 54.7379 39.4435 54.7665L38.9798 54.1465C39.2545 53.5713 39.6221 52.5327 39.3589 51.4872C39.0972 50.4388 38.2808 49.6907 37.7679 49.309L37.8838 48.5487C38.4878 48.333 39.4883 47.8563 40.0515 46.9324C40.6137 46.0081 40.5714 44.9094 40.4803 44.2796L41.1052 43.8221C41.544 44.0259 42.256 44.2865 43.0321 44.2865C43.2958 44.2865 43.552 44.2559 43.7943 44.1963C44.8531 43.9358 45.6083 43.1277 45.9934 42.62L46.7605 42.7347C46.978 43.3335 47.4591 44.3249 48.3924 44.8804C48.9238 45.198 49.57 45.359 50.3138 45.359C50.6029 45.359 50.8651 45.3344 51.0731 45.3058L51.5358 45.9239C51.2616 46.4996 50.8935 47.5387 51.1566 48.5851C51.4193 49.6331 52.2368 50.3816 52.7502 50.7638Z" fill="url(#paint4_linear)"/>
<path d="M46.7302 47.6172C46.27 47.3429 45.7635 47.2129 45.2625 47.2129C44.2958 47.2129 43.352 47.6994 42.8162 48.579C42.0047 49.914 42.4396 51.648 43.7879 52.4522C44.2486 52.7265 44.755 52.857 45.256 52.857C46.2227 52.857 47.1655 52.3699 47.7014 51.4904C48.5128 50.1558 48.0785 48.4219 46.7302 47.6172ZM46.4232 50.7276C46.1745 51.1358 45.7381 51.3796 45.256 51.3796C45.0113 51.3796 44.7695 51.3126 44.558 51.1865C43.9167 50.8039 43.7092 49.9756 44.0943 49.3413C44.3426 48.9335 44.7794 48.6898 45.2625 48.6898C45.5073 48.6898 45.7491 48.7568 45.9595 48.8823C46.6008 49.2655 46.8088 50.0933 46.4232 50.7276Z" fill="url(#paint5_linear)"/>
<path d="M43.464 46.6659C43.8286 46.4758 43.9694 46.0296 43.7779 45.6687C43.5858 45.3077 43.1351 45.1683 42.7704 45.3579C42.1187 45.6967 41.5301 46.1724 41.055 46.7737C40.8007 47.0948 40.8579 47.5597 41.1833 47.8109C41.5077 48.0625 41.9769 48.0059 42.2306 47.6843V47.6838C42.5724 47.2514 42.9938 46.9102 43.464 46.6659Z" fill="url(#paint6_linear)"/>
<defs>
<linearGradient id="paint0_linear" x1="0" y1="0" x2="0.621212" y2="52.8684" gradientUnits="userSpaceOnUse">
<stop stop-color="#F41E3D"/>
<stop offset="1" stop-color="#D5122E"/>
</linearGradient>
<linearGradient id="paint1_linear" x1="26" y1="28" x2="26.7157" y2="56.0715" gradientUnits="userSpaceOnUse">
<stop stop-color="#F41E3D"/>
<stop offset="1" stop-color="#D5122E"/>
</linearGradient>
<linearGradient id="paint2_linear" x1="26.3152" y1="56.0251" x2="26.4246" y2="69.2639" gradientUnits="userSpaceOnUse">
<stop stop-color="#F41E3D"/>
<stop offset="1" stop-color="#D5122E"/>
</linearGradient>
<linearGradient id="paint3_linear" x1="48.4331" y1="31.6504" x2="49.6071" y2="62.8132" gradientUnits="userSpaceOnUse">
<stop stop-color="#F41E3D"/>
<stop offset="1" stop-color="#D5122E"/>
</linearGradient>
<linearGradient id="paint4_linear" x1="36.2161" y1="41.084" x2="36.585" y2="59.3433" gradientUnits="userSpaceOnUse">
<stop stop-color="#F41E3D"/>
<stop offset="1" stop-color="#D5122E"/>
</linearGradient>
<linearGradient id="paint5_linear" x1="42.4076" y1="47.2129" x2="42.5239" y2="52.9698" gradientUnits="userSpaceOnUse">
<stop stop-color="#F41E3D"/>
<stop offset="1" stop-color="#D5122E"/>
</linearGradient>
<linearGradient id="paint6_linear" x1="40.8962" y1="45.2732" x2="40.9472" y2="48.0221" gradientUnits="userSpaceOnUse">
<stop stop-color="#F41E3D"/>
<stop offset="1" stop-color="#D5122E"/>
</linearGradient>
</defs>
</svg>
