<svg width="90" height="63" viewBox="0 0 90 63" fill="none" xmlns="http://www.w3.org/2000/svg">
<rect width="90" height="63" fill="black" fill-opacity="0"/>
<path d="M62.7273 13.6364C70.8004 13.6364 77.5927 19.5106 78.9271 27.3307C85.1421 27.9337 90 33.1722 90 39.5455C90 46.3235 84.5053 51.8182 77.7273 51.8182H69.5455C68.7923 51.8182 68.1818 51.2077 68.1818 50.4545C68.1818 49.7014 68.7923 49.0909 69.5455 49.0909H77.7273C82.9991 49.0909 87.2727 44.8173 87.2727 39.5455C87.2727 34.2736 82.9991 30 77.7273 30C77.0257 30 76.4386 29.4677 76.3701 28.7695C75.6827 21.7619 69.79 16.3636 62.7273 16.3636C61.4539 16.3636 60.2052 16.5378 59.0051 16.8775C58.3215 17.071 57.6039 16.7072 57.3559 16.0415C54.3979 8.10174 46.7962 2.72727 38.1818 2.72727C28.7897 2.72727 20.6703 9.11157 18.3683 18.0802C18.2186 18.6631 17.7045 19.0791 17.1031 19.1036C9.08559 19.4313 2.72727 26.0389 2.72727 34.0909C2.72727 42.3752 9.443 49.0909 17.7273 49.0909H20.4545C21.2077 49.0909 21.8182 49.7014 21.8182 50.4545C21.8182 51.2077 21.2077 51.8182 20.4545 51.8182H17.7273C7.93677 51.8182 0 43.8814 0 34.0909C0 24.9112 6.99176 17.3206 15.9935 16.4474C18.9192 6.7847 27.8734 0 38.1818 0C47.5314 0 55.8282 5.58627 59.4582 13.9632C60.526 13.7466 61.6197 13.6364 62.7273 13.6364Z" fill="url(#paint0_linear)"/>
<rect width="40" height="39" fill="black" fill-opacity="0" transform="translate(25 24)"/>
<path d="M33.9253 49.3878C34.3331 50.1024 34.8649 50.8534 35.4276 51.6491C36.6177 53.3297 37.9423 55.2221 38.0866 56.8649C37.8384 57.0389 37.6369 57.2704 37.4998 57.5392C37.3626 57.808 37.2939 58.106 37.2997 58.4072C37.3015 58.8463 37.4547 59.2717 37.7338 59.6128C37.5416 59.8006 37.3894 60.0247 37.286 60.2717C37.1826 60.5187 37.1302 60.7837 37.1318 61.0511C37.1318 61.568 37.3391 62.0637 37.708 62.4292C38.0769 62.7946 38.5773 63 39.099 63H50.2466C50.5083 62.9984 50.7672 62.9454 51.0081 62.844C51.2491 62.7427 51.4673 62.595 51.6503 62.4095C51.8332 62.224 51.9772 62.0045 52.074 61.7635C52.1707 61.5225 52.2182 61.2649 52.2138 61.0056C52.2135 60.7442 52.16 60.4854 52.0563 60.245C51.9526 60.0045 51.801 59.7873 51.6105 59.6063C51.8928 59.2518 52.0462 58.8133 52.0459 58.3617C52.0455 58.1101 51.9936 57.8611 51.8934 57.6299C51.7932 57.3987 51.6468 57.19 51.4629 57.0164C51.2791 56.8428 51.0617 56.7078 50.8238 56.6197C50.5859 56.5316 50.3324 56.4922 50.0787 56.5038H45.3279V44.1382H46.6394V46.0871C46.6394 46.2594 46.7084 46.4246 46.8314 46.5464C46.9544 46.6683 47.1212 46.7367 47.2951 46.7367H49.2623V47.5059C48.8248 47.6591 48.456 47.9606 48.2212 48.3572C47.9864 48.7537 47.9007 49.2197 47.9792 49.6728C48.0576 50.1259 48.2953 50.537 48.6501 50.8333C49.0049 51.1296 49.454 51.2921 49.918 51.2921C50.3821 51.2921 50.8312 51.1296 51.186 50.8333C51.5408 50.537 51.7785 50.1259 51.8569 49.6728C51.9354 49.2197 51.8497 48.7537 51.6148 48.3572C51.38 47.9606 51.0113 47.6591 50.5738 47.5059V46.0871C50.5738 45.9148 50.5047 45.7496 50.3817 45.6277C50.2587 45.5059 50.092 45.4375 49.918 45.4375H47.9508V44.1382H50.5738C50.7477 44.1382 50.9145 44.0698 51.0375 43.948C51.1604 43.8261 51.2295 43.6609 51.2295 43.4886V42.1894H55.2846C55.4393 42.6228 55.7437 42.9881 56.1439 43.2207C56.5442 43.4533 57.0146 43.5383 57.472 43.4605C57.9293 43.3828 58.3442 43.1474 58.6434 42.7959C58.9425 42.4444 59.1065 41.9995 59.1065 41.5397C59.1065 41.08 58.9425 40.6351 58.6434 40.2836C58.3442 39.9321 57.9293 39.6967 57.472 39.6189C57.0146 39.5412 56.5442 39.6261 56.1439 39.8588C55.7437 40.0914 55.4393 40.4567 55.2846 40.8901H51.2295V38.2916H53.8525C54.0264 38.2916 54.1932 38.2232 54.3161 38.1014C54.4391 37.9795 54.5082 37.8143 54.5082 37.642V34.924C54.9457 34.7708 55.3145 34.4692 55.5493 34.0727C55.7841 33.6761 55.8698 33.2101 55.7913 32.757C55.7129 32.3039 55.4752 31.8929 55.1204 31.5966C54.7656 31.3002 54.3165 31.1377 53.8525 31.1377C53.3884 31.1377 52.9393 31.3002 52.5845 31.5966C52.2297 31.8929 51.9921 32.3039 51.9136 32.757C51.8351 33.2101 51.9209 33.6761 52.1557 34.0727C52.3905 34.4692 52.7592 34.7708 53.1967 34.924V36.9924H51.2295V35.6931C51.2295 35.5209 51.1604 35.3556 51.0375 35.2338C50.9145 35.112 50.7477 35.0435 50.5738 35.0435H49.2623V31.6759C49.6998 31.5226 50.0686 31.2211 50.3034 30.8246C50.5382 30.428 50.6239 29.962 50.5454 29.5089C50.467 29.0558 50.2293 28.6448 49.8745 28.3485C49.5197 28.0521 49.0706 27.8896 48.6066 27.8896C48.1425 27.8896 47.6934 28.0521 47.3386 28.3485C46.9838 28.6448 46.7462 29.0558 46.6677 29.5089C46.5892 29.962 46.675 30.428 46.9098 30.8246C47.1446 31.2211 47.5133 31.5226 47.9508 31.6759V35.0435H45.3279V24.6723C45.3279 24.5 45.2588 24.3348 45.1358 24.213C45.0128 24.0911 44.8461 24.0227 44.6721 24.0227C36.583 24.0227 30.2459 29.8251 30.2459 37.2315C30.2459 40.7498 31.6557 45.4082 33.9253 49.3878ZM49.918 48.6856C50.0477 48.6856 50.1745 48.7237 50.2823 48.795C50.3902 48.8664 50.4742 48.9679 50.5239 49.0866C50.5735 49.2053 50.5865 49.3359 50.5612 49.4619C50.5359 49.5879 50.4734 49.7037 50.3817 49.7945C50.29 49.8854 50.1732 49.9473 50.046 49.9723C49.9188 49.9974 49.7869 49.9845 49.6671 49.9354C49.5473 49.8862 49.4449 49.8029 49.3728 49.6961C49.3008 49.5893 49.2623 49.4637 49.2623 49.3352C49.2623 49.1629 49.3314 48.9977 49.4544 48.8758C49.5773 48.754 49.7441 48.6856 49.918 48.6856ZM57.1312 40.8901C57.2608 40.8901 57.3876 40.9282 57.4955 40.9996C57.6033 41.071 57.6873 41.1724 57.737 41.2911C57.7866 41.4098 57.7996 41.5405 57.7743 41.6665C57.749 41.7925 57.6865 41.9082 57.5948 41.9991C57.5031 42.0899 57.3863 42.1518 57.2591 42.1769C57.1319 42.2019 57 42.1891 56.8802 42.1399C56.7604 42.0907 56.658 42.0075 56.5859 41.9006C56.5139 41.7938 56.4754 41.6682 56.4754 41.5397C56.4754 41.3674 56.5445 41.2022 56.6675 41.0804C56.7905 40.9586 56.9572 40.8901 57.1312 40.8901ZM53.8525 32.445C53.9822 32.445 54.1089 32.4831 54.2168 32.5545C54.3246 32.6259 54.4087 32.7274 54.4583 32.8461C54.5079 32.9648 54.5209 33.0954 54.4956 33.2214C54.4703 33.3474 54.4079 33.4632 54.3161 33.554C54.2244 33.6449 54.1076 33.7067 53.9804 33.7318C53.8532 33.7569 53.7213 33.744 53.6015 33.6948C53.4817 33.6457 53.3793 33.5624 53.3072 33.4556C53.2352 33.3487 53.1967 33.2231 53.1967 33.0947C53.1967 32.9224 53.2658 32.7571 53.3888 32.6353C53.5118 32.5135 53.6786 32.445 53.8525 32.445ZM48.6066 29.1969C48.7363 29.1969 48.863 29.235 48.9709 29.3064C49.0787 29.3778 49.1628 29.4793 49.2124 29.598C49.262 29.7167 49.275 29.8473 49.2497 29.9733C49.2244 30.0993 49.162 30.2151 49.0702 30.3059C48.9785 30.3968 48.8617 30.4586 48.7345 30.4837C48.6073 30.5088 48.4754 30.4959 48.3556 30.4467C48.2358 30.3976 48.1334 30.3143 48.0613 30.2075C47.9893 30.1006 47.9508 29.975 47.9508 29.8466C47.9508 29.6743 48.0199 29.509 48.1429 29.3872C48.2659 29.2654 48.4327 29.1969 48.6066 29.1969ZM45.3279 36.3428H49.918V42.839H45.3279V36.3428ZM50.2459 61.7007H39.0984C39.0088 61.6993 38.9204 61.68 38.8385 61.6439C38.7565 61.6079 38.6828 61.5559 38.6216 61.4911C38.5604 61.4262 38.513 61.3498 38.4823 61.2664C38.4515 61.183 38.438 61.0943 38.4426 61.0056C38.4426 60.8333 38.5117 60.6681 38.6347 60.5463C38.7577 60.4245 38.9245 60.356 39.0984 60.356H50.2459C50.3355 60.3575 50.4239 60.3768 50.5058 60.4128C50.5877 60.4488 50.6615 60.5008 50.7227 60.5657C50.7839 60.6306 50.8313 60.707 50.862 60.7904C50.8928 60.8738 50.9062 60.9624 50.9016 61.0511C50.9016 61.2234 50.8326 61.3886 50.7096 61.5105C50.5866 61.6323 50.4198 61.7007 50.2459 61.7007ZM50.078 57.803C50.1622 57.7953 50.2471 57.8053 50.3271 57.8323C50.4071 57.8593 50.4804 57.9028 50.5423 57.9598C50.6042 58.0168 50.6532 58.0861 50.6862 58.1632C50.7192 58.2403 50.7354 58.3234 50.7338 58.4072C50.7338 58.5794 50.6647 58.7447 50.5417 58.8665C50.4187 58.9883 50.252 59.0568 50.078 59.0568H39.2662C39.1766 59.0553 39.0882 59.036 39.0063 59C38.9244 58.964 38.8507 58.912 38.7895 58.8471C38.7283 58.7822 38.6809 58.7058 38.6501 58.6224C38.6194 58.539 38.6059 58.4503 38.6105 58.3617C38.6136 58.2813 38.6334 58.2025 38.6687 58.13C38.7039 58.0576 38.7539 57.9931 38.8154 57.9407C38.877 57.8883 38.9488 57.849 39.0263 57.8253C39.1039 57.8016 39.1856 57.794 39.2662 57.803H50.078ZM40.0112 45.0386C39.7089 44.7846 39.4282 44.5065 39.1718 44.2071C39.0872 44.109 38.9751 44.0381 38.8496 44.0034C38.7242 43.9687 38.5912 43.9717 38.4676 44.0122L37.6013 44.2941C37.3859 43.9814 37.1922 43.6546 37.0216 43.3158L37.7095 42.7052C37.8067 42.6189 37.8758 42.5059 37.9078 42.3806C37.9398 42.2552 37.9333 42.1233 37.8892 42.0016C37.7554 41.6334 37.6525 41.2549 37.5816 40.87C37.5583 40.7428 37.4973 40.6255 37.4063 40.5329C37.3153 40.4403 37.1985 40.3768 37.0708 40.3503L36.1712 40.1625C36.1554 39.9612 36.1476 39.7728 36.1476 39.5928C36.1476 39.4129 36.1554 39.2245 36.1712 39.0231L37.0708 38.8354C37.1985 38.8089 37.3153 38.7453 37.4063 38.6527C37.4973 38.5602 37.5583 38.4428 37.5816 38.3157C37.6526 37.9305 37.7554 37.5518 37.8892 37.1834C37.9333 37.0617 37.9398 36.9298 37.9078 36.8044C37.8758 36.6791 37.8067 36.5661 37.7095 36.4798L37.0216 35.8698C37.1927 35.5313 37.3864 35.2045 37.6013 34.8915L38.4676 35.1735C38.5914 35.2134 38.7243 35.2163 38.8498 35.1816C38.9752 35.1469 39.0875 35.0763 39.1725 34.9786C39.4292 34.6786 39.7101 34.3999 40.0125 34.1451C40.1114 34.0614 40.1829 33.9504 40.2179 33.8262C40.2529 33.7021 40.2499 33.5705 40.2092 33.4481L39.9253 32.5899C40.2398 32.377 40.5684 32.1851 40.9089 32.0156L41.5253 32.6971C41.6123 32.7934 41.7264 32.8618 41.8529 32.8935C41.9794 32.9252 42.1126 32.9188 42.2354 32.8751C42.6069 32.742 42.989 32.6401 43.3777 32.5704C43.506 32.5473 43.6245 32.4868 43.7179 32.3967C43.8114 32.3065 43.8756 32.1908 43.9023 32.0644L44.0164 31.5492V33.7826C42.5775 33.9466 41.2497 34.6291 40.2859 35.7002C39.322 36.7712 38.7894 38.156 38.7894 39.5909C38.7894 41.0258 39.322 42.4105 40.2859 43.4816C41.2497 44.5526 42.5775 45.2351 44.0164 45.3991V47.6332L43.9075 47.1219C43.8809 46.9953 43.8168 46.8795 43.7234 46.7892C43.6299 46.699 43.5114 46.6384 43.383 46.6152C42.9943 46.5454 42.6122 46.4435 42.2407 46.3106C42.1695 46.2854 42.0946 46.2724 42.019 46.2722C41.9268 46.2722 41.8357 46.2915 41.7515 46.3288C41.6673 46.3661 41.592 46.4205 41.5305 46.4886L40.9141 47.17C40.5723 47.0008 40.2423 46.809 39.9266 46.5957L40.2112 45.7376C40.2519 45.6146 40.2547 45.4823 40.219 45.3578C40.1834 45.2333 40.111 45.1221 40.0112 45.0386ZM44.0164 35.0955V44.0863C42.9247 43.9309 41.9261 43.3909 41.2038 42.5652C40.4815 41.7395 40.0838 40.6835 40.0838 39.5909C40.0838 38.4982 40.4815 37.4422 41.2038 36.6166C41.9261 35.7909 42.9247 35.2508 44.0164 35.0955ZM44.0164 25.3362V29.8745C43.8426 29.8875 43.6649 29.9031 43.4748 29.9258C43.3389 29.9421 43.2117 30.0001 43.1108 30.0917C43.0099 30.1833 42.9404 30.3038 42.9121 30.4364L42.7154 31.3777C42.5508 31.4167 42.3875 31.4602 42.223 31.5076L41.5672 30.7853C41.4758 30.6841 41.3548 30.6139 41.2211 30.5844C41.0874 30.555 40.9477 30.5677 40.8216 30.6209C40.0878 30.9345 39.3951 31.3352 38.7587 31.8143C38.6494 31.8959 38.5686 32.0094 38.5276 32.1388C38.4867 32.2683 38.4877 32.4071 38.5305 32.536L38.8315 33.4455C38.7073 33.5611 38.5869 33.6804 38.4702 33.8034L37.5521 33.5052C37.4222 33.4635 37.2824 33.4628 37.152 33.5032C37.0216 33.5436 36.9071 33.623 36.8243 33.7306C36.3415 34.3617 35.9381 35.0486 35.623 35.7763C35.5693 35.9012 35.5564 36.0395 35.5862 36.172C35.6159 36.3045 35.6868 36.4244 35.7889 36.5149L36.518 37.1645C36.4686 37.3269 36.4249 37.4896 36.3869 37.6524L35.4367 37.8473C35.3029 37.8753 35.1812 37.9441 35.0888 38.0441C34.9963 38.144 34.9378 38.2701 34.9213 38.4047C34.8147 39.1919 34.8147 39.9898 34.9213 40.7771C34.9378 40.9116 34.9963 41.0377 35.0888 41.1377C35.1812 41.2376 35.3029 41.3064 35.4367 41.3345L36.3869 41.5293C36.4262 41.6926 36.47 41.8552 36.518 42.0172L35.7889 42.6668C35.6868 42.7574 35.6159 42.8773 35.5862 43.0097C35.5564 43.1422 35.5693 43.2806 35.623 43.4054C35.9394 44.1331 36.3441 44.8198 36.8282 45.4505C36.9111 45.5581 37.0258 45.6376 37.1563 45.678C37.2868 45.7184 37.4267 45.7176 37.5567 45.6759L38.4748 45.3777C38.5915 45.5007 38.7119 45.62 38.8361 45.7356L38.5351 46.6451C38.4922 46.7739 38.4911 46.9127 38.5319 47.0421C38.5728 47.1716 38.6534 47.2851 38.7626 47.3668C39.399 47.8466 40.092 48.2477 40.8262 48.5615C40.9523 48.6147 41.092 48.6274 41.2257 48.598C41.3594 48.5685 41.4804 48.4983 41.5718 48.3971L42.2275 47.6748C42.3908 47.7241 42.5554 47.7677 42.72 47.8047L42.9167 48.7453C42.9449 48.878 43.0142 48.9986 43.1149 49.0903C43.2157 49.1819 43.3429 49.2401 43.4787 49.2566C43.6689 49.2793 43.8466 49.2956 44.021 49.3079V56.5038H39.3797C39.1115 54.59 37.7325 52.6418 36.5016 50.9027C35.9574 50.1336 35.4433 49.4086 35.0676 48.7486C32.9344 45.01 31.5574 40.4893 31.5574 37.2315C31.5574 30.756 36.9784 25.6364 44.0164 25.3362Z" fill="url(#paint1_linear)"/>
<path d="M50.3836 54.987L51.6026 55.4657C51.7592 55.0817 51.9401 54.7079 52.1443 54.3464L50.9961 53.7183C50.7648 54.1278 50.5603 54.5516 50.3836 54.987Z" fill="url(#paint2_linear)"/>
<path d="M53.5475 52.1716L52.4715 51.4297C52.2131 51.7961 51.9561 52.169 51.7102 52.5457L52.8111 53.2512C53.0492 52.8874 53.2984 52.5269 53.5475 52.1716Z" fill="url(#paint3_linear)"/>
<path d="M55.0728 49.9595L53.9626 49.2703C53.7416 49.6185 53.4951 49.9777 53.2367 50.3473L54.3141 51.0879C54.5843 50.6994 54.842 50.3233 55.0728 49.9595Z" fill="url(#paint4_linear)"/>
<path d="M56.3771 47.563L55.1967 47.0037C55.0088 47.3934 54.812 47.7784 54.6066 48.1587L55.7633 48.7719C55.9751 48.3744 56.1803 47.9709 56.3771 47.563Z" fill="url(#paint5_linear)"/>
<path d="M57.4452 45.0761L56.2177 44.6213C56.0656 45.0228 55.9029 45.4256 55.7311 45.8244L56.9384 46.3331C57.1176 45.9147 57.2865 45.4957 57.4452 45.0761Z" fill="url(#paint6_linear)"/>
<path d="M59.0433 38.4866C59.08 38.0546 59.0984 37.633 59.0984 37.2342V37.1042L57.7869 37.1146V37.2335C57.7869 37.596 57.7698 37.9812 57.7357 38.3769L59.0433 38.4866Z" fill="url(#paint7_linear)"/>
<path d="M57.4866 34.6323C57.5829 35.0393 57.6558 35.4514 57.7049 35.8666L59.0079 35.7127C58.9521 35.2508 58.8706 34.7923 58.7639 34.3394L57.4866 34.6323Z" fill="url(#paint8_linear)"/>
<path d="M56.642 32.2801C56.8267 32.6551 56.99 33.04 57.1311 33.4332L58.3666 32.9986C58.2092 32.5598 58.027 32.1302 57.821 31.7117L56.642 32.2801Z" fill="url(#paint9_linear)"/>
<path d="M55.2951 30.1674C55.5577 30.4946 55.8024 30.8355 56.0282 31.1886L57.1357 30.4961C56.8844 30.1038 56.6126 29.7248 56.3213 29.3606L55.2951 30.1674Z" fill="url(#paint10_linear)"/>
<path d="M53.52 28.3777C53.846 28.6448 54.1579 28.9284 54.4544 29.2274L55.3895 28.3179C55.0614 27.9874 54.7165 27.6736 54.3561 27.3779L53.52 28.3777Z" fill="url(#paint11_linear)"/>
<path d="M53.2334 26.5451C52.8505 26.2898 52.4466 26.0488 52.0354 25.8306L51.4118 26.9739C51.7869 27.1746 52.1534 27.3942 52.5016 27.6235L53.2334 26.5451Z" fill="url(#paint12_linear)"/>
<path d="M50.7764 25.2341C50.3541 25.0555 49.9128 24.8944 49.4649 24.7534L49.0656 25.989C49.4741 26.1189 49.8761 26.2638 50.2603 26.4255L50.7764 25.2341Z" fill="url(#paint13_linear)"/>
<path d="M48.1187 24.3898C47.6688 24.291 47.2066 24.2111 46.7449 24.1514L46.577 25.4409C47 25.4948 47.4229 25.5675 47.8347 25.6585L48.1187 24.3898Z" fill="url(#paint14_linear)"/>
<path d="M27.623 59.0796H26.3115V60.3788H27.623V59.0796Z" fill="url(#paint15_linear)"/>
<path d="M27.623 61.678H26.3115V62.9772H27.623V61.678Z" fill="url(#paint16_linear)"/>
<path d="M28.9344 60.3789H27.6229V61.6781H28.9344V60.3789Z" fill="url(#paint17_linear)"/>
<path d="M26.3115 60.3789H25V61.6781H26.3115V60.3789Z" fill="url(#paint18_linear)"/>
<path d="M63.6885 24H62.377V25.2992H63.6885V24Z" fill="url(#paint19_linear)"/>
<path d="M63.6885 26.5986H62.377V27.8979H63.6885V26.5986Z" fill="url(#paint20_linear)"/>
<path d="M65 25.2991H63.6885V26.5983H65V25.2991Z" fill="url(#paint21_linear)"/>
<path d="M62.3771 25.2991H61.0656V26.5983H62.3771V25.2991Z" fill="url(#paint22_linear)"/>
<defs>
<linearGradient id="paint0_linear" x1="0" y1="0" x2="0.621212" y2="52.8684" gradientUnits="userSpaceOnUse">
<stop stop-color="#F41E3D"/>
<stop offset="1" stop-color="#D5122E"/>
</linearGradient>
<linearGradient id="paint1_linear" x1="30.2459" y1="24.0227" x2="31.3413" y2="63.7652" gradientUnits="userSpaceOnUse">
<stop stop-color="#F41E3D"/>
<stop offset="1" stop-color="#D5122E"/>
</linearGradient>
<linearGradient id="paint2_linear" x1="50.3836" y1="53.7183" x2="50.4197" y2="55.5007" gradientUnits="userSpaceOnUse">
<stop stop-color="#F41E3D"/>
<stop offset="1" stop-color="#D5122E"/>
</linearGradient>
<linearGradient id="paint3_linear" x1="51.7102" y1="51.4297" x2="51.7477" y2="53.2876" gradientUnits="userSpaceOnUse">
<stop stop-color="#F41E3D"/>
<stop offset="1" stop-color="#D5122E"/>
</linearGradient>
<linearGradient id="paint4_linear" x1="53.2367" y1="49.2703" x2="53.2742" y2="51.1242" gradientUnits="userSpaceOnUse">
<stop stop-color="#F41E3D"/>
<stop offset="1" stop-color="#D5122E"/>
</linearGradient>
<linearGradient id="paint5_linear" x1="54.6066" y1="47.0037" x2="54.6433" y2="48.8073" gradientUnits="userSpaceOnUse">
<stop stop-color="#F41E3D"/>
<stop offset="1" stop-color="#D5122E"/>
</linearGradient>
<linearGradient id="paint6_linear" x1="55.7311" y1="44.6213" x2="55.7667" y2="46.3673" gradientUnits="userSpaceOnUse">
<stop stop-color="#F41E3D"/>
<stop offset="1" stop-color="#D5122E"/>
</linearGradient>
<linearGradient id="paint7_linear" x1="57.7357" y1="37.1042" x2="57.7649" y2="38.5142" gradientUnits="userSpaceOnUse">
<stop stop-color="#F41E3D"/>
<stop offset="1" stop-color="#D5122E"/>
</linearGradient>
<linearGradient id="paint8_linear" x1="57.4866" y1="34.3394" x2="57.5185" y2="35.8971" gradientUnits="userSpaceOnUse">
<stop stop-color="#F41E3D"/>
<stop offset="1" stop-color="#D5122E"/>
</linearGradient>
<linearGradient id="paint9_linear" x1="56.642" y1="31.7117" x2="56.6777" y2="33.4676" gradientUnits="userSpaceOnUse">
<stop stop-color="#F41E3D"/>
<stop offset="1" stop-color="#D5122E"/>
</linearGradient>
<linearGradient id="paint10_linear" x1="55.2951" y1="29.3606" x2="55.3329" y2="31.2252" gradientUnits="userSpaceOnUse">
<stop stop-color="#F41E3D"/>
<stop offset="1" stop-color="#D5122E"/>
</linearGradient>
<linearGradient id="paint11_linear" x1="53.52" y1="27.3779" x2="53.5581" y2="29.2644" gradientUnits="userSpaceOnUse">
<stop stop-color="#F41E3D"/>
<stop offset="1" stop-color="#D5122E"/>
</linearGradient>
<linearGradient id="paint12_linear" x1="51.4118" y1="25.8306" x2="51.4485" y2="27.6594" gradientUnits="userSpaceOnUse">
<stop stop-color="#F41E3D"/>
<stop offset="1" stop-color="#D5122E"/>
</linearGradient>
<linearGradient id="paint13_linear" x1="49.0656" y1="24.7534" x2="49.0996" y2="26.459" gradientUnits="userSpaceOnUse">
<stop stop-color="#F41E3D"/>
<stop offset="1" stop-color="#D5122E"/>
</linearGradient>
<linearGradient id="paint14_linear" x1="46.577" y1="24.1514" x2="46.6077" y2="25.6886" gradientUnits="userSpaceOnUse">
<stop stop-color="#F41E3D"/>
<stop offset="1" stop-color="#D5122E"/>
</linearGradient>
<linearGradient id="paint15_linear" x1="26.3115" y1="59.0796" x2="26.3383" y2="60.4048" gradientUnits="userSpaceOnUse">
<stop stop-color="#F41E3D"/>
<stop offset="1" stop-color="#D5122E"/>
</linearGradient>
<linearGradient id="paint16_linear" x1="26.3115" y1="61.678" x2="26.3383" y2="63.0032" gradientUnits="userSpaceOnUse">
<stop stop-color="#F41E3D"/>
<stop offset="1" stop-color="#D5122E"/>
</linearGradient>
<linearGradient id="paint17_linear" x1="27.6229" y1="60.3789" x2="27.6497" y2="61.7041" gradientUnits="userSpaceOnUse">
<stop stop-color="#F41E3D"/>
<stop offset="1" stop-color="#D5122E"/>
</linearGradient>
<linearGradient id="paint18_linear" x1="25" y1="60.3789" x2="25.0268" y2="61.7041" gradientUnits="userSpaceOnUse">
<stop stop-color="#F41E3D"/>
<stop offset="1" stop-color="#D5122E"/>
</linearGradient>
<linearGradient id="paint19_linear" x1="62.377" y1="24" x2="62.4038" y2="25.3252" gradientUnits="userSpaceOnUse">
<stop stop-color="#F41E3D"/>
<stop offset="1" stop-color="#D5122E"/>
</linearGradient>
<linearGradient id="paint20_linear" x1="62.377" y1="26.5986" x2="62.4038" y2="27.9238" gradientUnits="userSpaceOnUse">
<stop stop-color="#F41E3D"/>
<stop offset="1" stop-color="#D5122E"/>
</linearGradient>
<linearGradient id="paint21_linear" x1="63.6885" y1="25.2991" x2="63.7153" y2="26.6243" gradientUnits="userSpaceOnUse">
<stop stop-color="#F41E3D"/>
<stop offset="1" stop-color="#D5122E"/>
</linearGradient>
<linearGradient id="paint22_linear" x1="61.0656" y1="25.2991" x2="61.0924" y2="26.6243" gradientUnits="userSpaceOnUse">
<stop stop-color="#F41E3D"/>
<stop offset="1" stop-color="#D5122E"/>
</linearGradient>
</defs>
</svg>
