<svg width="90" height="68" viewBox="0 0 90 68" fill="none" xmlns="http://www.w3.org/2000/svg">
<rect width="90" height="68" fill="black" fill-opacity="0"/>
<path d="M62.7273 13.6364C70.8004 13.6364 77.5926 19.5106 78.9271 27.3307C85.1421 27.9337 90 33.1722 90 39.5455C90 46.3235 84.5053 51.8182 77.7273 51.8182H69.5455C68.7923 51.8182 68.1818 51.2077 68.1818 50.4545C68.1818 49.7014 68.7923 49.0909 69.5455 49.0909H77.7273C82.9991 49.0909 87.2727 44.8173 87.2727 39.5455C87.2727 34.2736 82.9991 30 77.7273 30C77.0257 30 76.4386 29.4677 76.3701 28.7695C75.6827 21.7619 69.79 16.3636 62.7273 16.3636C61.4539 16.3636 60.2052 16.5378 59.0051 16.8775C58.3215 17.071 57.6039 16.7072 57.3559 16.0415C54.3979 8.10174 46.7962 2.72727 38.1818 2.72727C28.7897 2.72727 20.6703 9.11157 18.3683 18.0802C18.2186 18.6631 17.7045 19.0791 17.1031 19.1036C9.08559 19.4313 2.72727 26.0389 2.72727 34.0909C2.72727 42.3752 9.443 49.0909 17.7273 49.0909H20.4545C21.2077 49.0909 21.8182 49.7014 21.8182 50.4545C21.8182 51.2077 21.2077 51.8182 20.4545 51.8182H17.7273C7.93677 51.8182 0 43.8814 0 34.0909C0 24.9112 6.99176 17.3206 15.9935 16.4474C18.9192 6.7847 27.8734 0 38.1818 0C47.5314 0 55.8282 5.58627 59.4582 13.9632C60.526 13.7466 61.6197 13.6364 62.7273 13.6364Z" fill="url(#paint0_linear)"/>
<rect width="52" height="52" fill="black" fill-opacity="0" transform="translate(19 16)"/>
<path d="M70.0442 55.1576L63.2802 55.7091L58.9544 52.0061L64.1454 51.6121C64.6173 51.6121 64.9319 51.2182 64.8532 50.7455C64.8532 50.2727 64.46 49.9576 63.9881 50.0364L57.2241 50.5879L55.5725 49.0909C57.7747 46.2545 59.1117 42.7091 59.269 38.8485H62.4151C62.887 38.8485 63.2016 38.5333 63.2016 38.0606C63.2016 37.5879 62.887 37.2727 62.4151 37.2727H59.269C58.8758 27.897 51.3253 20.3333 41.8873 19.9394V16.7879C41.8873 16.3152 41.5727 16 41.1008 16C40.6289 16 40.3143 16.3152 40.3143 16.7879V19.9394C30.9549 20.3333 23.3258 27.897 22.9325 37.2727H19.7865C19.3146 37.2727 19 37.5879 19 38.0606C19 38.5333 19.3146 38.8485 19.7865 38.8485H22.9325C23.1685 44.5212 25.9999 49.4848 30.3257 52.7152L21.5168 66.4242H20.4944C20.0225 66.4242 19.7079 66.7394 19.7079 67.2121C19.7079 67.6849 20.0225 68 20.4944 68H24.2696C24.7415 68 25.0561 67.6849 25.0561 67.2121C25.0561 66.7394 24.7415 66.4242 24.2696 66.4242H23.4831L25.9212 62.7212H56.5163L58.9544 66.4242H57.932C57.4601 66.4242 57.1455 66.7394 57.1455 67.2121C57.1455 67.6849 57.4601 68 57.932 68H61.7072C62.1791 68 62.4937 67.6849 62.4937 67.2121C62.4937 66.7394 62.1791 66.4242 61.7072 66.4242H60.6847L51.8759 52.7152C52.8197 52.0061 53.7635 51.2182 54.55 50.2727L56.2803 51.6909L56.8309 58.4667C56.8309 58.8606 57.2241 59.1758 57.6174 59.1758C58.0893 59.1758 58.4039 58.7818 58.4039 58.3091L58.0106 53.1091L62.3364 56.8121L62.887 63.5879C62.887 63.9818 63.2802 64.297 63.6735 64.297C64.1454 64.297 64.46 63.903 64.46 63.4303L64.0667 58.2303L66.033 59.8849C66.3476 60.2 66.8981 60.1212 67.1341 59.8061C67.4487 59.4909 67.37 58.9394 67.0554 58.703L65.0892 57.0485L70.2801 56.6545C70.752 56.6545 71.0666 56.2606 70.988 55.7879C70.9093 55.4727 70.5161 55.0788 70.0442 55.1576ZM55.4152 61.1455H26.7864L31.5841 53.6606C34.1009 55.2364 37.0896 56.1818 40.2356 56.3394V59.4909C40.2356 59.9636 40.5502 60.2788 41.0221 60.2788C41.494 60.2788 41.8086 59.9636 41.8086 59.4909V56.3394C44.9547 56.1818 47.9434 55.2364 50.4602 53.6606L55.4152 61.1455ZM50.4602 51.8485C50.3815 51.8485 50.3815 51.8485 50.4602 51.8485C50.3815 51.8485 50.3815 51.9273 50.3815 51.9273C47.9434 53.5818 45.0333 54.5273 41.9659 54.6848V51.6121C41.9659 51.1394 41.6513 50.8242 41.1794 50.8242C40.7075 50.8242 40.3929 51.1394 40.3929 51.6121V54.6848C37.3256 54.5273 34.4155 53.5818 31.9773 51.9273C31.9773 51.9273 31.9773 51.9273 31.8987 51.8485H31.82C27.5729 48.9333 24.8201 44.2848 24.5055 38.8485H27.6516C28.1235 38.8485 28.4381 38.5333 28.4381 38.0606C28.4381 37.5879 28.1235 37.2727 27.6516 37.2727H24.5055C24.9774 28.7636 31.82 21.9091 40.3143 21.5152V24.6667C40.3143 25.1394 40.6289 25.4545 41.1008 25.4545C41.5727 25.4545 41.8873 25.1394 41.8873 24.6667V21.5152C50.3815 21.9091 57.2241 28.7636 57.696 37.2727H54.6287C54.1568 37.2727 53.8422 37.5879 53.8422 38.0606C53.8422 38.5333 54.1568 38.8485 54.6287 38.8485H57.696C57.5387 42.3152 56.359 45.4667 54.3927 47.9879L49.9883 44.2061C51.2467 42.4727 51.9545 40.2667 51.9545 37.9818C51.9545 31.9939 47.0782 27.1879 41.1008 27.1879C35.1233 27.1879 30.3257 32.1515 30.3257 38.0606C30.3257 43.9697 35.202 48.8545 41.1794 48.8545C44.2468 48.8545 47.0782 47.5152 49.0445 45.4667L53.4489 49.2485C52.5051 50.1939 51.4826 51.0606 50.4602 51.8485ZM47.8647 34.6727L37.4829 33.8848C37.2469 33.8848 37.011 33.9636 36.8537 34.1212C36.6964 34.2788 36.6177 34.5939 36.6964 34.8303L39.1345 44.9939C39.2132 45.3879 39.6851 45.703 40.0783 45.5455C40.4716 45.4667 40.7862 44.9939 40.6289 44.6L38.7413 36.8L47.7074 44.4424C46.0558 46.1758 43.6962 47.2788 41.1008 47.2788C35.9885 47.2788 31.82 43.103 31.82 38.0606C31.82 33.0182 35.9885 28.8424 41.1008 28.8424C46.2131 28.8424 50.3815 33.0182 50.3815 38.0606C50.3815 39.9515 49.7523 41.7636 48.8085 43.2606L39.7637 35.697L47.7074 36.3273C48.1007 36.3273 48.4939 36.0121 48.5726 35.6182C48.6512 35.1455 48.3366 34.7515 47.8647 34.6727Z" fill="url(#paint1_linear)"/>
<defs>
<linearGradient id="paint0_linear" x1="0" y1="0" x2="0.621212" y2="52.8684" gradientUnits="userSpaceOnUse">
<stop stop-color="#F41E3D"/>
<stop offset="1" stop-color="#D5122E"/>
</linearGradient>
<linearGradient id="paint1_linear" x1="19" y1="16" x2="20.0824" y2="69.0391" gradientUnits="userSpaceOnUse">
<stop stop-color="#F41E3D"/>
<stop offset="1" stop-color="#D5122E"/>
</linearGradient>
</defs>
</svg>
