<svg width="90" height="69" viewBox="0 0 90 69" fill="none" xmlns="http://www.w3.org/2000/svg">
<rect width="90" height="69" fill="black" fill-opacity="0"/>
<path d="M62.7273 13.6364C70.8004 13.6364 77.5926 19.5106 78.9271 27.3307C85.1421 27.9337 90 33.1722 90 39.5455C90 46.3235 84.5053 51.8182 77.7273 51.8182H69.5455C68.7923 51.8182 68.1818 51.2077 68.1818 50.4545C68.1818 49.7014 68.7923 49.0909 69.5455 49.0909H77.7273C82.9991 49.0909 87.2727 44.8173 87.2727 39.5455C87.2727 34.2736 82.9991 30 77.7273 30C77.0257 30 76.4386 29.4677 76.3701 28.7695C75.6827 21.7619 69.79 16.3636 62.7273 16.3636C61.4539 16.3636 60.2052 16.5378 59.0051 16.8775C58.3215 17.071 57.6039 16.7072 57.3559 16.0415C54.3979 8.10174 46.7962 2.72727 38.1818 2.72727C28.7897 2.72727 20.6703 9.11157 18.3683 18.0802C18.2186 18.6631 17.7045 19.0791 17.1031 19.1036C9.08559 19.4313 2.72727 26.0389 2.72727 34.0909C2.72727 42.3752 9.443 49.0909 17.7273 49.0909H20.4545C21.2077 49.0909 21.8182 49.7014 21.8182 50.4545C21.8182 51.2077 21.2077 51.8182 20.4545 51.8182H17.7273C7.93677 51.8182 0 43.8814 0 34.0909C0 24.9112 6.99176 17.3206 15.9935 16.4474C18.9192 6.7847 27.8734 0 38.1818 0C47.5314 0 55.8282 5.58627 59.4582 13.9632C60.526 13.7466 61.6197 13.6364 62.7273 13.6364Z" fill="url(#paint0_linear)"/>
<rect width="41" height="41" fill="black" fill-opacity="0" transform="translate(25 28)"/>
<rect width="24.5212" height="29.2055" fill="black" fill-opacity="0" transform="translate(25 39.7946)"/>
<path d="M46.3127 52.4004C46.6865 52.2756 46.9357 52.026 47.0603 51.8388C47.8079 50.9027 47.4341 49.5298 47.4341 49.3426C45.8142 43.0397 42.0138 39.7946 36.2198 39.7946C31.7964 39.7946 28.4321 41.2299 25.8777 46.1599C22.7626 52.2132 28.8682 61.6363 29.8027 63.0716V68.376C29.8027 68.7505 30.0519 69.0001 30.4257 69.0001H40.8924C41.2662 69.0001 41.5154 68.7505 41.5154 68.376V64.5693C42.3877 65.3182 43.2599 65.443 43.8206 65.443C45.3781 65.443 46.7488 64.2573 46.6865 62.822L46.3127 58.4537H48.867C49.1162 58.4537 49.3031 58.3289 49.4277 58.1416C49.5524 57.9544 49.5524 57.7048 49.4277 57.5176L46.3127 52.4004ZM30.9864 67.8144V66.1295H40.2071V67.8144H30.9864ZM45.565 57.1432C45.3781 57.1432 45.2535 57.2056 45.1289 57.3304C45.0043 57.4552 44.942 57.6424 44.942 57.8296L45.3781 62.8844C45.3781 63.5085 44.6928 64.1949 43.7583 64.1949C42.8861 64.1949 42.0138 63.6333 41.3908 62.6348C41.2662 62.3852 40.9547 62.3228 40.7055 62.3852C40.4563 62.4476 40.2694 62.6972 40.2694 63.0092V64.9438H30.9864V62.8844C30.9864 62.7596 30.9241 62.6348 30.8618 62.51C30.7995 62.3852 23.9464 52.5252 26.9368 46.7216C29.3043 42.166 32.1702 41.0427 36.1575 40.9803C38.0888 40.9803 44.0075 40.9803 46.1881 49.5298C46.2504 49.7794 46.375 50.5907 46.0635 50.9651C46.0012 51.0275 45.8766 51.2147 45.3781 51.2147H45.3158C45.0666 51.2147 44.8797 51.3395 44.7551 51.5267C44.6305 51.7139 44.6305 51.9636 44.7551 52.1508L47.6833 57.0808L45.565 57.1432Z" fill="url(#paint1_linear)"/>
<rect width="20.8711" height="20.9056" fill="black" fill-opacity="0" transform="translate(45.1289 28)"/>
<path d="M65.377 36.7367L63.4456 36.4871C63.2587 35.6758 62.9472 34.9269 62.5111 34.2405L63.6325 32.7428C63.8194 32.4932 63.8194 32.1187 63.5702 31.8691L62.0127 30.309C61.7635 30.0594 61.452 30.0594 61.2027 30.2466L59.7698 31.4323C59.0845 30.9954 58.3369 30.6834 57.5269 30.4962L57.2777 28.5616C57.2154 28.2496 56.9662 28 56.6547 28H54.4742C54.1627 28 53.9134 28.2496 53.8511 28.5616L53.6019 30.4962C52.792 30.6834 52.0444 30.9954 51.3591 31.4323L49.8015 30.2466C49.5523 30.0594 49.1785 30.0594 48.9916 30.309L47.4341 31.8691C47.1849 32.1187 47.1849 32.4307 47.3718 32.6804L48.5555 34.2405C48.1194 34.9269 47.8079 35.6758 47.621 36.4871L45.6896 36.7367C45.3781 36.7991 45.1289 37.0487 45.1289 37.3607V39.5449C45.1289 39.8569 45.3781 40.1065 45.6896 40.1689L47.621 40.4186C47.8079 41.2298 48.1194 41.9787 48.5555 42.6651L47.3718 44.2253C47.1849 44.4749 47.1849 44.8493 47.4341 45.0365L48.9916 46.5966C49.2408 46.8463 49.5523 46.8463 49.8015 46.6591L51.2968 45.4734C51.9821 45.9102 52.7297 46.2222 53.5396 46.4094L53.7888 48.344C53.8511 48.656 54.1004 48.9056 54.4119 48.9056H56.6547C56.9662 48.9056 57.2154 48.656 57.2777 48.344L57.5269 46.4094C58.3369 46.2222 59.0845 45.9102 59.7698 45.4734L61.265 46.5966C61.3897 46.6591 61.5143 46.7215 61.6389 46.7215C61.8258 46.7215 62.0127 46.6591 62.1373 46.5342L63.6948 44.9741C63.944 44.7245 63.944 44.4125 63.7571 44.1629L62.5734 42.6027C63.0095 41.9163 63.321 41.1674 63.5079 40.3562L65.4393 40.1065C65.7508 40.0441 66 39.7945 66 39.4825V37.2983C65.9377 37.0487 65.6885 36.7367 65.377 36.7367ZM64.6916 38.9833L62.8849 39.2329C62.6357 39.2953 62.3865 39.4825 62.3242 39.7321C62.1373 40.6682 61.7635 41.5419 61.265 42.3531C61.1404 42.6027 61.1404 42.8524 61.265 43.102L62.3865 44.5373L61.5766 45.3486L60.1436 44.2253C59.9567 44.0381 59.6452 44.0381 59.396 44.2253C58.5861 44.7869 57.7139 45.0989 56.7793 45.2861C56.5301 45.3486 56.3432 45.5358 56.2809 45.8478L56.0317 47.6575H54.9103L54.7857 45.7854C54.7234 45.5358 54.5365 45.2861 54.2873 45.2237C53.3527 45.0365 52.4805 44.6621 51.6706 44.1629C51.4214 44.0381 51.1722 44.0381 50.923 44.1629L49.49 45.2861L48.6801 44.4749L49.7392 43.0396C49.9261 42.8524 49.9261 42.4779 49.7392 42.2907C49.2408 41.4795 48.867 40.6682 48.6801 39.7321C48.6178 39.4825 48.4309 39.2953 48.1194 39.2329L46.3126 38.9833V37.86L48.1194 37.6103C48.3686 37.5479 48.6178 37.3607 48.6178 37.1111C48.8047 36.175 49.1785 35.3014 49.6769 34.4901C49.8015 34.2405 49.8015 33.9909 49.6769 33.7412L48.5555 32.3059L49.3654 31.4947L50.7984 32.5556C50.9853 32.7428 51.3591 32.7428 51.546 32.5556C52.2936 32.0563 53.1658 31.6819 54.1004 31.4947C54.5365 31.5571 54.7234 31.3699 54.7857 31.0578L55.0349 29.2481H56.1563L56.3432 31.0578C56.4055 31.3075 56.5924 31.5571 56.8416 31.6195C57.7762 31.8067 58.6484 32.1811 59.4583 32.6804C59.7075 32.8052 59.9567 32.8052 60.2059 32.6804L61.6389 31.5571L62.4488 32.3683L61.3273 33.8037C61.1404 33.9909 61.1404 34.3029 61.3273 34.5525C61.8881 35.3638 62.1996 36.2374 62.3865 37.1735C62.4488 37.4231 62.6357 37.6103 62.9472 37.6728L64.7539 37.9224V38.9833H64.6916Z" fill="url(#paint2_linear)"/>
<rect width="10.5913" height="10.6088" fill="black" fill-opacity="0" transform="translate(50.2377 33.1796)"/>
<path d="M55.5333 33.1796C52.6051 33.1796 50.2377 35.551 50.2377 38.484C50.2377 41.417 52.6051 43.7884 55.5333 43.7884C58.4615 43.7884 60.829 41.417 60.829 38.484C60.829 35.551 58.4615 33.1796 55.5333 33.1796ZM55.5333 42.4779C53.2905 42.4779 51.4837 40.6681 51.4837 38.4216C51.4837 36.175 53.2905 34.3653 55.5333 34.3653C57.7762 34.3653 59.5829 36.175 59.5829 38.4216C59.5829 40.6681 57.7762 42.4779 55.5333 42.4779Z" fill="url(#paint3_linear)"/>
<rect width="15.3971" height="13.9403" fill="black" fill-opacity="0" transform="translate(50.1754 49.6305)"/>
<path d="M62.6357 49.8418C62.3865 49.5297 61.9504 49.5921 61.7012 49.8418L58.8353 52.962C58.5861 53.2116 58.5861 53.586 58.8976 53.8357C59.1468 54.0853 59.5206 54.0853 59.7698 53.7733L61.5766 51.8387V62.3227H50.7984C50.4246 62.3227 50.1754 62.5723 50.1754 62.9468C50.1754 63.3212 50.4246 63.5708 50.7984 63.5708H62.1996C62.5734 63.5708 62.8226 63.3212 62.8226 62.9468V51.9011L64.5047 53.8357C64.754 54.0853 65.1278 54.0853 65.377 53.8981C65.6262 53.6485 65.6262 53.274 65.4393 53.0244L62.6357 49.8418Z" fill="url(#paint4_linear)"/>
<rect width="13.6527" height="7.7382" fill="black" fill-opacity="0" transform="translate(31.3516 30.4338)"/>
<path d="M34.2884 37.9848C34.413 38.1096 34.5999 38.172 34.7245 38.172C34.9114 38.172 35.036 38.1096 35.1607 37.9848L38.0265 34.8646C38.2757 34.615 38.2757 34.2405 37.9642 33.9909C37.715 33.7413 37.3412 33.7413 37.092 34.0533L35.2853 35.9879V31.6819H44.3813C44.7551 31.6819 45.0043 31.4323 45.0043 31.0579C45.0043 30.6835 44.7551 30.4338 44.3813 30.4338H34.7245C34.3507 30.4338 34.1015 30.6835 34.1015 31.0579V35.9255L32.4194 33.9909C32.1702 33.7413 31.7964 33.7413 31.5472 33.9285C31.2979 34.1781 31.2979 34.5526 31.4849 34.8022L34.2884 37.9848Z" fill="url(#paint5_linear)"/>
<defs>
<linearGradient id="paint0_linear" x1="0" y1="0" x2="0.621212" y2="52.8684" gradientUnits="userSpaceOnUse">
<stop stop-color="#F41E3D"/>
<stop offset="1" stop-color="#D5122E"/>
</linearGradient>
<linearGradient id="paint1_linear" x1="25" y1="39.7946" x2="25.7239" y2="69.5785" gradientUnits="userSpaceOnUse">
<stop stop-color="#F41E3D"/>
<stop offset="1" stop-color="#D5122E"/>
</linearGradient>
<linearGradient id="paint2_linear" x1="45.1289" y1="28" x2="45.5648" y2="49.3234" gradientUnits="userSpaceOnUse">
<stop stop-color="#F41E3D"/>
<stop offset="1" stop-color="#D5122E"/>
</linearGradient>
<linearGradient id="paint3_linear" x1="50.2377" y1="33.1796" x2="50.4589" y2="44.0004" gradientUnits="userSpaceOnUse">
<stop stop-color="#F41E3D"/>
<stop offset="1" stop-color="#D5122E"/>
</linearGradient>
<linearGradient id="paint4_linear" x1="50.1754" y1="49.6305" x2="50.4381" y2="63.8505" gradientUnits="userSpaceOnUse">
<stop stop-color="#F41E3D"/>
<stop offset="1" stop-color="#D5122E"/>
</linearGradient>
<linearGradient id="paint5_linear" x1="31.3516" y1="30.4338" x2="31.4429" y2="38.3289" gradientUnits="userSpaceOnUse">
<stop stop-color="#F41E3D"/>
<stop offset="1" stop-color="#D5122E"/>
</linearGradient>
</defs>
</svg>
