<svg width="90" height="69" viewBox="0 0 90 69" fill="none" xmlns="http://www.w3.org/2000/svg">
<rect width="90" height="69" fill="black" fill-opacity="0"/>
<path d="M62.7273 13.6364C70.8004 13.6364 77.5926 19.5106 78.9271 27.3307C85.1421 27.9337 90 33.1722 90 39.5455C90 46.3235 84.5053 51.8182 77.7273 51.8182H69.5455C68.7923 51.8182 68.1818 51.2077 68.1818 50.4545C68.1818 49.7014 68.7923 49.0909 69.5455 49.0909H77.7273C82.9991 49.0909 87.2727 44.8173 87.2727 39.5455C87.2727 34.2736 82.9991 30 77.7273 30C77.0257 30 76.4386 29.4677 76.3701 28.7695C75.6827 21.7619 69.79 16.3636 62.7273 16.3636C61.4539 16.3636 60.2052 16.5378 59.0051 16.8775C58.3215 17.071 57.6039 16.7072 57.3559 16.0415C54.3979 8.10174 46.7962 2.72727 38.1818 2.72727C28.7897 2.72727 20.6703 9.11157 18.3683 18.0802C18.2186 18.6631 17.7045 19.0791 17.1031 19.1036C9.08559 19.4313 2.72727 26.0389 2.72727 34.0909C2.72727 42.3752 9.443 49.0909 17.7273 49.0909H20.4545C21.2077 49.0909 21.8182 49.7014 21.8182 50.4545C21.8182 51.2077 21.2077 51.8182 20.4545 51.8182H17.7273C7.93677 51.8182 0 43.8814 0 34.0909C0 24.9112 6.99176 17.3206 15.9935 16.4474C18.9192 6.7847 27.8734 0 38.1818 0C47.5314 0 55.8282 5.58627 59.4582 13.9632C60.526 13.7466 61.6197 13.6364 62.7273 13.6364Z" fill="url(#paint0_linear)"/>
<rect width="39" height="39" fill="black" fill-opacity="0" transform="translate(26 30)"/>
<rect width="39" height="39" fill="black" fill-opacity="0" transform="translate(26 30)"/>
<path d="M63.7591 30H27.2409C26.5318 30 26 30.5318 26 31.2409V67.7591C26 68.4682 26.5318 69 27.2409 69H63.7591C64.4682 69 65 68.4682 65 67.7591V31.2409C65 30.5318 64.4682 30 63.7591 30ZM63.8182 67.7591C63.8182 67.8182 63.8182 67.8182 63.8182 67.7591L27.2409 67.8182C27.1818 67.8182 27.1818 67.8182 27.1818 67.7591V31.2409C27.1818 31.1818 27.1818 31.1818 27.2409 31.1818H63.7591C63.8182 31.1818 63.8182 31.1818 63.8182 31.2409V67.7591Z" fill="url(#paint1_linear)"/>
<rect width="22.9273" height="9.04091" fill="black" fill-opacity="0" transform="translate(38.4091 35.6136)"/>
<path d="M39 39.5727H47.8636C48.2182 39.5727 48.4545 39.3364 48.4545 38.9818V38.2136H49.3409V42.7046C49.3409 43.0591 49.5773 43.2955 49.9318 43.2955H51.2909V44.0636C51.2909 44.4182 51.5273 44.6546 51.8818 44.6546H60.7455C61.1 44.6546 61.3364 44.4182 61.3364 44.0636V41.2864C61.3364 40.9318 61.1 40.6955 60.7455 40.6955H51.8818C51.5273 40.6955 51.2909 40.9318 51.2909 41.2864V42.0546H50.5227V37.5636C50.5227 37.2091 50.2864 36.9727 49.9318 36.9727H48.4545V36.2046C48.4545 35.85 48.2182 35.6136 47.8636 35.6136H39C38.6455 35.6136 38.4091 35.85 38.4091 36.2046V38.9818C38.4091 39.2773 38.7045 39.5727 39 39.5727ZM52.4727 41.8773H60.1545V43.4727H52.4727V41.8773ZM39.5909 36.7955H47.2727V38.3909H39.5909V36.7955Z" fill="url(#paint2_linear)"/>
<rect width="22.9273" height="8.98182" fill="black" fill-opacity="0" transform="translate(38.4091 44.7727)"/>
<path d="M39 48.6727H47.8636C48.2182 48.6727 48.4545 48.4364 48.4545 48.0818V47.3136H49.3409V51.8046C49.3409 52.1591 49.5773 52.3955 49.9318 52.3955H51.2909V53.1636C51.2909 53.5182 51.5273 53.7546 51.8818 53.7546H60.7455C61.1 53.7546 61.3364 53.5182 61.3364 53.1636V50.3864C61.3364 50.0318 61.1 49.7955 60.7455 49.7955H51.8818C51.5273 49.7955 51.2909 50.0318 51.2909 50.3864V51.1546H50.5227V46.6636C50.5227 46.3091 50.2864 46.0727 49.9318 46.0727H48.4545V45.3636C48.4545 45.0091 48.2182 44.7727 47.8636 44.7727H39C38.6455 44.7727 38.4091 45.0091 38.4091 45.3636V48.1409C38.4091 48.4364 38.7045 48.6727 39 48.6727ZM52.4727 50.9773H60.1545V52.5727H52.4727V50.9773ZM39.5909 45.9546H47.2727V47.55H39.5909V45.9546Z" fill="url(#paint3_linear)"/>
<rect width="22.9273" height="9.04091" fill="black" fill-opacity="0" transform="translate(38.4091 53.8727)"/>
<path d="M39 57.8318H47.8636C48.2182 57.8318 48.4545 57.5954 48.4545 57.2409V56.4727H49.3409V60.9636C49.3409 61.3182 49.5773 61.5545 49.9318 61.5545H51.2909V62.3227C51.2909 62.6773 51.5273 62.9136 51.8818 62.9136H60.7455C61.1 62.9136 61.3364 62.6773 61.3364 62.3227V59.5454C61.3364 59.1909 61.1 58.9545 60.7455 58.9545H51.8818C51.5273 58.9545 51.2909 59.1909 51.2909 59.5454V60.3136H50.5227V55.8227C50.5227 55.4682 50.2864 55.2318 49.9318 55.2318H48.4545V54.4636C48.4545 54.1091 48.2182 53.8727 47.8636 53.8727H39C38.6455 53.8727 38.4091 54.1091 38.4091 54.4636V57.2409C38.4091 57.5363 38.7045 57.8318 39 57.8318ZM52.4727 60.1363H60.1545V61.7318H52.4727V60.1363ZM39.5909 55.0545H47.2727V56.65H39.5909V55.0545Z" fill="url(#paint4_linear)"/>
<rect width="26.7091" height="31.0227" fill="black" fill-opacity="0" transform="translate(35.8682 34.7273)"/>
<path d="M61.9273 64.5682H37.05V35.3182C37.05 34.9636 36.8136 34.7273 36.4591 34.7273C36.1046 34.7273 35.8682 34.9636 35.8682 35.3182V65.1591C35.8682 65.5136 36.1046 65.75 36.4591 65.75H61.9864C62.3409 65.75 62.5773 65.5136 62.5773 65.1591C62.5182 64.8045 62.2818 64.5682 61.9273 64.5682Z" fill="url(#paint5_linear)"/>
<rect width="6.08636" height="1.18182" fill="black" fill-opacity="0" transform="translate(28.6 34.9045)"/>
<path d="M34.1546 34.9045H29.1909C28.8364 34.9045 28.6 35.1409 28.6 35.4955C28.6 35.85 28.8364 36.0864 29.1909 36.0864H34.0955C34.45 36.0864 34.6864 35.85 34.6864 35.4955C34.6864 35.1409 34.45 34.9045 34.1546 34.9045Z" fill="url(#paint6_linear)"/>
<rect width="6.09397" height="1.18182" fill="black" fill-opacity="0" transform="translate(28.6 38.6273)"/>
<path d="M34.1546 38.6273H29.1909C28.8364 38.6273 28.6 38.8637 28.6 39.2182C28.6 39.5727 28.8364 39.8091 29.1909 39.8091H34.0955C34.45 39.8091 34.6864 39.5727 34.6864 39.2182C34.7455 38.8637 34.45 38.6273 34.1546 38.6273Z" fill="url(#paint7_linear)"/>
<rect width="6.09397" height="1.18182" fill="black" fill-opacity="0" transform="translate(28.6 42.35)"/>
<path d="M34.1546 42.35H29.1909C28.8364 42.35 28.6 42.5864 28.6 42.9409C28.6 43.2955 28.8364 43.5318 29.1909 43.5318H34.0955C34.45 43.5318 34.6864 43.2955 34.6864 42.9409C34.7455 42.5864 34.45 42.35 34.1546 42.35Z" fill="url(#paint8_linear)"/>
<rect width="6.09397" height="1.18182" fill="black" fill-opacity="0" transform="translate(28.6 46.0136)"/>
<path d="M34.1546 46.0136H29.1909C28.8364 46.0136 28.6 46.25 28.6 46.6046C28.6 46.9591 28.8364 47.1955 29.1909 47.1955H34.0955C34.45 47.1955 34.6864 46.9591 34.6864 46.6046C34.7455 46.3091 34.45 46.0136 34.1546 46.0136Z" fill="url(#paint9_linear)"/>
<rect width="6.09397" height="1.18182" fill="black" fill-opacity="0" transform="translate(28.6 49.7364)"/>
<path d="M34.1546 49.7364H29.1909C28.8364 49.7364 28.6 49.9727 28.6 50.3273C28.6 50.6818 28.8364 50.9182 29.1909 50.9182H34.0955C34.45 50.9182 34.6864 50.6818 34.6864 50.3273C34.7455 50.0318 34.45 49.7364 34.1546 49.7364Z" fill="url(#paint10_linear)"/>
<rect width="6.08636" height="1.18182" fill="black" fill-opacity="0" transform="translate(28.6 53.4591)"/>
<path d="M34.1546 53.4591H29.1909C28.8364 53.4591 28.6 53.6955 28.6 54.05C28.6 54.4046 28.8364 54.6409 29.1909 54.6409H34.0955C34.45 54.6409 34.6864 54.4046 34.6864 54.05C34.6864 53.6955 34.45 53.4591 34.1546 53.4591Z" fill="url(#paint11_linear)"/>
<rect width="6.09397" height="1.18182" fill="black" fill-opacity="0" transform="translate(28.6 57.1818)"/>
<path d="M34.1546 57.1818H29.1909C28.8364 57.1818 28.6 57.4182 28.6 57.7727C28.6 58.1273 28.8364 58.3636 29.1909 58.3636H34.0955C34.45 58.3636 34.6864 58.1273 34.6864 57.7727C34.7455 57.4182 34.45 57.1818 34.1546 57.1818Z" fill="url(#paint12_linear)"/>
<rect width="6.09397" height="1.18182" fill="black" fill-opacity="0" transform="translate(28.6 60.8455)"/>
<path d="M34.1546 60.8455H29.1909C28.8364 60.8455 28.6 61.0818 28.6 61.4364C28.6 61.7909 28.8364 62.0273 29.1909 62.0273H34.0955C34.45 62.0273 34.6864 61.7909 34.6864 61.4364C34.7455 61.1409 34.45 60.8455 34.1546 60.8455Z" fill="url(#paint13_linear)"/>
<rect width="6.09397" height="1.18182" fill="black" fill-opacity="0" transform="translate(28.6 64.5682)"/>
<path d="M34.1546 64.5682H29.1909C28.8364 64.5682 28.6 64.8045 28.6 65.1591C28.6 65.5136 28.8364 65.75 29.1909 65.75H34.0955C34.45 65.75 34.6864 65.5136 34.6864 65.1591C34.7455 64.8045 34.45 64.5682 34.1546 64.5682Z" fill="url(#paint14_linear)"/>
<defs>
<linearGradient id="paint0_linear" x1="0" y1="0" x2="0.621212" y2="52.8684" gradientUnits="userSpaceOnUse">
<stop stop-color="#F41E3D"/>
<stop offset="1" stop-color="#D5122E"/>
</linearGradient>
<linearGradient id="paint1_linear" x1="26" y1="30" x2="26.8118" y2="69.7793" gradientUnits="userSpaceOnUse">
<stop stop-color="#F41E3D"/>
<stop offset="1" stop-color="#D5122E"/>
</linearGradient>
<linearGradient id="paint2_linear" x1="38.4091" y1="35.6136" x2="38.4833" y2="44.8385" gradientUnits="userSpaceOnUse">
<stop stop-color="#F41E3D"/>
<stop offset="1" stop-color="#D5122E"/>
</linearGradient>
<linearGradient id="paint3_linear" x1="38.4091" y1="44.7727" x2="38.4824" y2="53.9373" gradientUnits="userSpaceOnUse">
<stop stop-color="#F41E3D"/>
<stop offset="1" stop-color="#D5122E"/>
</linearGradient>
<linearGradient id="paint4_linear" x1="38.4091" y1="53.8727" x2="38.4833" y2="63.0975" gradientUnits="userSpaceOnUse">
<stop stop-color="#F41E3D"/>
<stop offset="1" stop-color="#D5122E"/>
</linearGradient>
<linearGradient id="paint5_linear" x1="35.8682" y1="34.7273" x2="36.6181" y2="66.3653" gradientUnits="userSpaceOnUse">
<stop stop-color="#F41E3D"/>
<stop offset="1" stop-color="#D5122E"/>
</linearGradient>
<linearGradient id="paint6_linear" x1="28.6" y1="34.9045" x2="28.6048" y2="36.1105" gradientUnits="userSpaceOnUse">
<stop stop-color="#F41E3D"/>
<stop offset="1" stop-color="#D5122E"/>
</linearGradient>
<linearGradient id="paint7_linear" x1="28.6" y1="38.6273" x2="28.6048" y2="39.8332" gradientUnits="userSpaceOnUse">
<stop stop-color="#F41E3D"/>
<stop offset="1" stop-color="#D5122E"/>
</linearGradient>
<linearGradient id="paint8_linear" x1="28.6" y1="42.35" x2="28.6048" y2="43.5559" gradientUnits="userSpaceOnUse">
<stop stop-color="#F41E3D"/>
<stop offset="1" stop-color="#D5122E"/>
</linearGradient>
<linearGradient id="paint9_linear" x1="28.6" y1="46.0136" x2="28.6048" y2="47.2196" gradientUnits="userSpaceOnUse">
<stop stop-color="#F41E3D"/>
<stop offset="1" stop-color="#D5122E"/>
</linearGradient>
<linearGradient id="paint10_linear" x1="28.6" y1="49.7364" x2="28.6048" y2="50.9423" gradientUnits="userSpaceOnUse">
<stop stop-color="#F41E3D"/>
<stop offset="1" stop-color="#D5122E"/>
</linearGradient>
<linearGradient id="paint11_linear" x1="28.6" y1="53.4591" x2="28.6048" y2="54.665" gradientUnits="userSpaceOnUse">
<stop stop-color="#F41E3D"/>
<stop offset="1" stop-color="#D5122E"/>
</linearGradient>
<linearGradient id="paint12_linear" x1="28.6" y1="57.1818" x2="28.6048" y2="58.3877" gradientUnits="userSpaceOnUse">
<stop stop-color="#F41E3D"/>
<stop offset="1" stop-color="#D5122E"/>
</linearGradient>
<linearGradient id="paint13_linear" x1="28.6" y1="60.8455" x2="28.6048" y2="62.0514" gradientUnits="userSpaceOnUse">
<stop stop-color="#F41E3D"/>
<stop offset="1" stop-color="#D5122E"/>
</linearGradient>
<linearGradient id="paint14_linear" x1="28.6" y1="64.5682" x2="28.6048" y2="65.7741" gradientUnits="userSpaceOnUse">
<stop stop-color="#F41E3D"/>
<stop offset="1" stop-color="#D5122E"/>
</linearGradient>
</defs>
</svg>
