<svg width="90" height="69" viewBox="0 0 90 69" fill="none" xmlns="http://www.w3.org/2000/svg">
<rect width="90" height="69" fill="black" fill-opacity="0"/>
<path d="M62.7273 13.6364C70.8004 13.6364 77.5926 19.5106 78.9271 27.3307C85.1421 27.9337 90 33.1722 90 39.5455C90 46.3235 84.5053 51.8182 77.7273 51.8182H69.5455C68.7923 51.8182 68.1818 51.2077 68.1818 50.4545C68.1818 49.7014 68.7923 49.0909 69.5455 49.0909H77.7273C82.9991 49.0909 87.2727 44.8173 87.2727 39.5455C87.2727 34.2736 82.9991 30 77.7273 30C77.0257 30 76.4386 29.4677 76.3701 28.7695C75.6827 21.7619 69.79 16.3636 62.7273 16.3636C61.4539 16.3636 60.2052 16.5378 59.0051 16.8775C58.3215 17.071 57.6039 16.7072 57.3559 16.0415C54.3979 8.10174 46.7962 2.72727 38.1818 2.72727C28.7897 2.72727 20.6703 9.11157 18.3683 18.0802C18.2186 18.6631 17.7045 19.0791 17.1031 19.1036C9.08559 19.4313 2.72727 26.0389 2.72727 34.0909C2.72727 42.3752 9.443 49.0909 17.7273 49.0909H20.4545C21.2077 49.0909 21.8182 49.7014 21.8182 50.4545C21.8182 51.2077 21.2077 51.8182 20.4545 51.8182H17.7273C7.93677 51.8182 0 43.8814 0 34.0909C0 24.9112 6.99176 17.3206 15.9935 16.4474C18.9192 6.7847 27.8734 0 38.1818 0C47.5314 0 55.8282 5.58627 59.4582 13.9632C60.526 13.7466 61.6197 13.6364 62.7273 13.6364Z" fill="url(#paint0_linear)"/>
<rect width="43" height="43" fill="black" fill-opacity="0" transform="translate(24 26)"/>
<rect width="12.0462" height="12.8805" fill="black" fill-opacity="0" transform="translate(24 56.1196)"/>
<path d="M32.1393 62.6249C33.0509 61.9744 33.6369 60.9335 33.6369 59.6975C33.6369 57.746 32.0091 56.1196 30.0557 56.1196C28.1022 56.1196 26.4744 57.746 26.4744 59.6975C26.4744 60.8685 27.0604 61.9744 27.972 62.6249C25.7581 62.9502 24 64.8367 24 67.1786V68.3496C24 68.7399 24.2605 69.0001 24.6511 69.0001H35.395C35.7857 69.0001 36.0462 68.7399 36.0462 68.3496V67.1136C36.0462 64.8367 34.2881 62.9502 32.1393 62.6249ZM30.0557 57.4207C31.2928 57.4207 32.3347 58.4615 32.3347 59.6975C32.3347 60.9335 31.2928 61.9744 30.0557 61.9744C28.8185 61.9744 27.7766 60.9335 27.7766 59.6975C27.7766 58.4615 28.8185 57.4207 30.0557 57.4207ZM34.7439 67.6991H25.3023V67.1136C25.3023 65.2921 26.7999 63.8609 28.558 63.8609H31.4231C33.2463 63.8609 34.6788 65.3571 34.6788 67.1136V67.6991H34.7439Z" fill="url(#paint1_linear)"/>
<rect width="14.8461" height="15.938" fill="black" fill-opacity="0" transform="translate(38.1299 53.062)"/>
<path d="M48.2877 61.1936H47.6366C48.9389 60.478 49.8505 59.0469 49.8505 57.4206C49.8505 55.0136 47.897 53.062 45.5529 53.062C43.1437 53.062 41.2553 55.0136 41.2553 57.4206C41.2553 59.0469 42.167 60.478 43.4692 61.1936H42.6879C40.1484 61.1936 38.1299 63.2753 38.1299 65.7473V68.3495C38.1299 68.7398 38.3903 69 38.781 69H52.3248C52.7155 69 52.976 68.7398 52.976 68.3495V65.8124C52.9108 63.2753 50.8272 61.1936 48.2877 61.1936ZM42.4925 57.4206C42.4925 55.7292 43.8599 54.3631 45.4878 54.3631C47.1808 54.3631 48.4831 55.7292 48.4831 57.4206C48.4831 59.1119 47.1157 60.478 45.4878 60.478C43.8599 60.478 42.4925 59.1119 42.4925 57.4206ZM51.6086 67.6989H39.367V65.8124C39.367 63.9909 40.8647 62.5597 42.6228 62.5597H48.2877C50.1109 62.5597 51.5434 64.056 51.5434 65.8124V67.6989H51.6086Z" fill="url(#paint2_linear)"/>
<rect width="12.0462" height="12.8805" fill="black" fill-opacity="0" transform="translate(54.9294 56.1196)"/>
<path d="M63.0687 62.6249C63.9803 61.9744 64.5663 60.9335 64.5663 59.6975C64.5663 57.746 62.9385 56.1196 60.985 56.1196C59.0316 56.1196 57.4037 57.746 57.4037 59.6975C57.4037 60.8685 57.9898 61.9744 58.9014 62.6249C56.6875 62.9502 54.9294 64.8367 54.9294 67.1786V68.3496C54.9294 68.7399 55.1898 69.0001 55.5805 69.0001H66.3244C66.7151 69.0001 66.9756 68.7399 66.9756 68.3496V67.1136C66.9756 64.8367 65.2826 62.9502 63.0687 62.6249ZM60.985 57.4207C62.2222 57.4207 63.264 58.4615 63.264 59.6975C63.264 60.9335 62.2222 61.9744 60.985 61.9744C59.7479 61.9744 58.706 60.9335 58.706 59.6975C58.7711 58.4615 59.7479 57.4207 60.985 57.4207ZM65.6733 67.6991H56.2317V67.1136C56.2317 65.2921 57.7293 63.8609 59.4874 63.8609H62.4176C64.2408 63.8609 65.6733 65.3571 65.6733 67.1136V67.6991Z" fill="url(#paint3_linear)"/>
<rect width="11.9648" height="11.4552" fill="black" fill-opacity="0" transform="translate(24.0407 42.9788)"/>
<path d="M26.6046 50.3297L26.0186 53.6474C25.9534 53.9077 26.0837 54.1679 26.279 54.298C26.4744 54.4281 26.7348 54.4931 26.9953 54.363L29.9905 52.8018L32.9858 54.363C33.1812 54.4931 33.4416 54.4281 33.7021 54.298C33.8974 54.1679 34.0276 53.9077 33.9625 53.6474L33.3765 50.3297L35.7857 47.9878C35.9811 47.7927 36.0462 47.5325 35.9811 47.3373C35.916 47.0771 35.7206 46.8819 35.4602 46.8819L32.0742 46.3615L30.5766 43.304C30.5115 43.1089 30.251 42.9788 29.9905 42.9788C29.7301 42.9788 29.5347 43.1089 29.4045 43.3691L27.9069 46.3615L24.586 46.8819C24.3256 46.947 24.1302 47.0771 24.0651 47.3373C24 47.5975 24.0651 47.8577 24.2605 47.9878L26.6046 50.3297ZM28.4278 47.5975C28.6231 47.5975 28.8185 47.4024 28.9487 47.2723L29.9905 45.1255L31.0324 47.2723C31.0975 47.4674 31.2928 47.5975 31.5533 47.5975L33.9625 47.9228L32.2044 49.6142C32.0742 49.7443 32.0091 50.0045 32.0091 50.1996L32.3998 52.6066L30.251 51.5007C30.1859 51.4356 30.0557 51.4356 29.9254 51.4356C29.7952 51.4356 29.7301 51.4356 29.5999 51.5007L27.4511 52.6066L27.8418 50.1996C27.9069 50.0045 27.7767 49.7443 27.6464 49.6142L25.8883 47.9228L28.4278 47.5975Z" fill="url(#paint4_linear)"/>
<rect width="17.4995" height="16.6757" fill="black" fill-opacity="0" transform="translate(36.8031 35.8068)"/>
<path d="M53.6271 41.6778L48.4179 40.8972L46.0738 36.1483C45.8785 35.6929 45.0971 35.6929 44.9017 36.1483L42.5576 40.8972L37.3485 41.6778C37.088 41.7428 36.8927 41.873 36.8275 42.1332C36.7624 42.3934 36.8275 42.6536 37.0229 42.7837L40.7995 46.4917L39.8879 51.6959C39.8228 51.9562 39.953 52.2164 40.1484 52.3465C40.3437 52.4766 40.6042 52.5416 40.8646 52.4115L45.5529 49.9395L50.2411 52.4115C50.4365 52.5416 50.6969 52.4766 50.9574 52.3465C51.1527 52.2164 51.283 51.9562 51.2179 51.6959L50.3063 46.4917L54.0829 42.7837C54.2782 42.5885 54.3434 42.3283 54.2782 42.1332C54.0829 41.873 53.8876 41.7428 53.6271 41.6778ZM49.0691 45.7761C48.9388 45.9062 48.8737 46.1664 48.8737 46.3616L49.59 50.59L45.7482 48.5734C45.6831 48.5084 45.5529 48.5084 45.4227 48.5084C45.2924 48.5084 45.2273 48.5084 45.0971 48.5734L41.2553 50.59L41.9716 46.3616C42.0367 46.1664 41.9065 45.9062 41.7763 45.7761L38.7159 42.7837L42.9483 42.1332C43.1437 42.1332 43.339 41.938 43.4692 41.8079L45.3575 37.9698L47.2459 41.8079C47.311 42.0031 47.5063 42.1332 47.7668 42.1332L51.9992 42.7837L49.0691 45.7761Z" fill="url(#paint5_linear)"/>
<rect width="12.0299" height="11.4714" fill="black" fill-opacity="0" transform="translate(54.9701 42.9624)"/>
<path d="M61.571 43.3039C61.3757 42.8486 60.5943 42.8486 60.399 43.3039L58.9014 46.3614L55.5154 46.8818C55.2549 46.9469 55.0596 47.077 54.9945 47.3372C54.9294 47.5974 54.9945 47.8576 55.1898 47.9877L57.5991 50.3296L57.013 53.6474C56.9479 53.9076 57.0781 54.1678 57.2735 54.2979C57.4688 54.428 57.7293 54.493 57.9897 54.3629L60.985 52.8017L63.9803 54.3629C64.1756 54.493 64.4361 54.428 64.6965 54.2979C64.8919 54.1678 65.0221 53.9076 64.957 53.6474L64.371 50.3296L66.7802 47.9877C66.9756 47.7926 67.0407 47.5324 66.9756 47.3372C66.9104 47.077 66.7151 46.9469 66.4546 46.8818L63.0687 46.3614L61.571 43.3039ZM63.1989 49.6141C63.0687 49.7442 63.0036 50.0044 63.0036 50.1995L63.3943 52.6065L61.2455 51.5006C61.1804 51.4355 61.0501 51.4355 60.9199 51.4355C60.7897 51.4355 60.7246 51.4355 60.5943 51.5006L58.5107 52.6065L58.9014 50.1995C58.9665 50.0044 58.8362 49.7442 58.706 49.6141L56.9479 47.9227L59.3572 47.5974C59.5525 47.5974 59.7478 47.4023 59.8781 47.2722L60.9199 45.1254L61.9617 47.2722C62.0268 47.4673 62.2222 47.5974 62.4826 47.5974L64.8919 47.9227L63.1989 49.6141Z" fill="url(#paint6_linear)"/>
<rect width="37.4408" height="15.0272" fill="black" fill-opacity="0" transform="translate(26.7999 26)"/>
<path d="M30.0556 41.0272C31.8788 41.0272 33.3113 39.5961 33.3113 37.7746C33.3113 37.5144 33.2462 37.1891 33.1811 36.9289L42.232 32.5053C42.9483 33.5461 44.1855 34.1967 45.5529 34.1967C46.9203 34.1967 48.1575 33.5461 48.8737 32.5053L57.8595 36.9289C57.7944 37.1891 57.7293 37.4493 57.7293 37.7746C57.7293 39.5961 59.1618 41.0272 60.985 41.0272C62.8082 41.0272 64.2407 39.5961 64.2407 37.7746C64.2407 35.9531 62.8082 34.5219 60.985 34.5219C59.9432 34.5219 59.0316 35.0424 58.4456 35.7579L49.4597 31.3343C49.59 30.944 49.6551 30.5537 49.6551 30.0983C49.6551 27.8215 47.8319 26 45.5529 26C43.2739 26 41.4507 27.8215 41.4507 30.0983C41.4507 30.4887 41.5158 30.944 41.646 31.3343L32.5951 35.823C32.0091 35.0424 31.0975 34.587 30.0556 34.587C28.2324 34.587 26.7999 36.0182 26.7999 37.8396C26.7999 39.5961 28.2324 41.0272 30.0556 41.0272ZM60.985 35.823C62.092 35.823 62.9385 36.6687 62.9385 37.7746C62.9385 38.8805 62.092 39.7262 60.985 39.7262C59.8781 39.7262 59.0316 38.8805 59.0316 37.7746C59.0316 36.7337 59.8781 35.823 60.985 35.823ZM45.5529 27.3661C47.1156 27.3661 48.3528 28.6021 48.3528 30.1634C48.3528 31.7247 47.1156 32.9607 45.5529 32.9607C43.9901 32.9607 42.753 31.7247 42.753 30.1634C42.753 28.6021 43.9901 27.3661 45.5529 27.3661ZM30.0556 35.823C31.1626 35.823 32.0091 36.6687 32.0091 37.7746C32.0091 38.8805 31.1626 39.7262 30.0556 39.7262C28.9487 39.7262 28.1022 38.8805 28.1022 37.7746C28.1022 36.7337 28.9487 35.823 30.0556 35.823Z" fill="url(#paint7_linear)"/>
<defs>
<linearGradient id="paint0_linear" x1="0" y1="0" x2="0.621212" y2="52.8684" gradientUnits="userSpaceOnUse">
<stop stop-color="#F41E3D"/>
<stop offset="1" stop-color="#D5122E"/>
</linearGradient>
<linearGradient id="paint1_linear" x1="24" y1="56.1196" x2="24.2867" y2="69.2567" gradientUnits="userSpaceOnUse">
<stop stop-color="#F41E3D"/>
<stop offset="1" stop-color="#D5122E"/>
</linearGradient>
<linearGradient id="paint2_linear" x1="38.1299" y1="53.062" x2="38.486" y2="69.3174" gradientUnits="userSpaceOnUse">
<stop stop-color="#F41E3D"/>
<stop offset="1" stop-color="#D5122E"/>
</linearGradient>
<linearGradient id="paint3_linear" x1="54.9294" y1="56.1196" x2="55.2161" y2="69.2567" gradientUnits="userSpaceOnUse">
<stop stop-color="#F41E3D"/>
<stop offset="1" stop-color="#D5122E"/>
</linearGradient>
<linearGradient id="paint4_linear" x1="24.0407" y1="42.9788" x2="24.269" y2="54.6633" gradientUnits="userSpaceOnUse">
<stop stop-color="#F41E3D"/>
<stop offset="1" stop-color="#D5122E"/>
</linearGradient>
<linearGradient id="paint5_linear" x1="36.8031" y1="35.8068" x2="37.1339" y2="52.8163" gradientUnits="userSpaceOnUse">
<stop stop-color="#F41E3D"/>
<stop offset="1" stop-color="#D5122E"/>
</linearGradient>
<linearGradient id="paint6_linear" x1="54.9701" y1="42.9624" x2="55.1978" y2="54.6635" gradientUnits="userSpaceOnUse">
<stop stop-color="#F41E3D"/>
<stop offset="1" stop-color="#D5122E"/>
</linearGradient>
<linearGradient id="paint7_linear" x1="26.7999" y1="26" x2="26.9255" y2="41.3329" gradientUnits="userSpaceOnUse">
<stop stop-color="#F41E3D"/>
<stop offset="1" stop-color="#D5122E"/>
</linearGradient>
</defs>
</svg>
