<svg width="90" height="69" viewBox="0 0 90 69" fill="none" xmlns="http://www.w3.org/2000/svg">
<rect width="90" height="69" fill="black" fill-opacity="0"/>
<path d="M62.7273 13.6364C70.8004 13.6364 77.5926 19.5106 78.9271 27.3307C85.1421 27.9337 90 33.1722 90 39.5455C90 46.3235 84.5053 51.8182 77.7273 51.8182H69.5455C68.7923 51.8182 68.1818 51.2077 68.1818 50.4545C68.1818 49.7014 68.7923 49.0909 69.5455 49.0909H77.7273C82.9991 49.0909 87.2727 44.8173 87.2727 39.5455C87.2727 34.2736 82.9991 30 77.7273 30C77.0257 30 76.4386 29.4677 76.3701 28.7695C75.6827 21.7619 69.79 16.3636 62.7273 16.3636C61.4539 16.3636 60.2052 16.5378 59.0051 16.8775C58.3215 17.071 57.6039 16.7072 57.3559 16.0415C54.3979 8.10174 46.7962 2.72727 38.1818 2.72727C28.7897 2.72727 20.6703 9.11157 18.3683 18.0802C18.2186 18.6631 17.7045 19.0791 17.1031 19.1036C9.08559 19.4313 2.72727 26.0389 2.72727 34.0909C2.72727 42.3752 9.443 49.0909 17.7273 49.0909H20.4545C21.2077 49.0909 21.8182 49.7014 21.8182 50.4545C21.8182 51.2077 21.2077 51.8182 20.4545 51.8182H17.7273C7.93677 51.8182 0 43.8814 0 34.0909C0 24.9112 6.99176 17.3206 15.9935 16.4474C18.9192 6.7847 27.8734 0 38.1818 0C47.5314 0 55.8282 5.58627 59.4582 13.9632C60.526 13.7466 61.6197 13.6364 62.7273 13.6364Z" fill="url(#paint0_linear)"/>
<rect width="50" height="50" fill="black" fill-opacity="0" transform="translate(20 19)"/>
<path d="M45 25.6667C43.1617 25.6667 41.6667 24.1717 41.6667 22.3333C41.6667 20.495 43.1617 19 45 19C46.8384 19 48.3334 20.495 48.3334 22.3333C48.3334 24.1717 46.8375 25.6667 45 25.6667ZM45 20.6667C44.0809 20.6667 43.3334 21.4142 43.3334 22.3333C43.3334 23.2525 44.0809 24 45 24C45.9192 24 46.6667 23.2525 46.6667 22.3333C46.6667 21.4142 45.9192 20.6667 45 20.6667Z" fill="url(#paint1_linear)"/>
<path d="M45 69C43.1617 69 41.6667 67.505 41.6667 65.6667C41.6667 63.8283 43.1617 62.3333 45 62.3333C46.8384 62.3333 48.3334 63.8283 48.3334 65.6667C48.3334 67.505 46.8375 69 45 69ZM45 64C44.0809 64 43.3334 64.7475 43.3334 65.6667C43.3334 66.5858 44.0809 67.3333 45 67.3333C45.9192 67.3333 46.6667 66.5858 46.6667 65.6667C46.6667 64.7475 45.9192 64 45 64Z" fill="url(#paint2_linear)"/>
<path d="M66.6667 47.3334C64.8283 47.3334 63.3333 45.8384 63.3333 44C63.3333 42.1617 64.8283 40.6667 66.6667 40.6667C68.505 40.6667 70 42.1617 70 44C70 45.8384 68.5042 47.3334 66.6667 47.3334ZM66.6667 42.3334C65.7475 42.3334 65 43.0809 65 44C65 44.9192 65.7475 45.6667 66.6667 45.6667C67.5858 45.6667 68.3333 44.9192 68.3333 44C68.3333 43.0809 67.5858 42.3334 66.6667 42.3334Z" fill="url(#paint3_linear)"/>
<path d="M23.3333 47.3334C21.495 47.3334 20 45.8384 20 44C20 42.1617 21.495 40.6667 23.3333 40.6667C25.1717 40.6667 26.6667 42.1617 26.6667 44C26.6667 45.8384 25.1708 47.3334 23.3333 47.3334ZM23.3333 42.3334C22.4142 42.3334 21.6667 43.0809 21.6667 44C21.6667 44.9192 22.4142 45.6667 23.3333 45.6667C24.2525 45.6667 25 44.9192 25 44C25 43.0809 24.2525 42.3334 23.3333 42.3334Z" fill="url(#paint4_linear)"/>
<path d="M29.6792 32.0125C28.7892 32.0125 27.9517 31.6658 27.3217 31.0358C26.6925 30.4067 26.3458 29.5692 26.3458 28.6792C26.3458 27.7892 26.6925 26.9517 27.3225 26.3225C28.5808 25.0625 30.7775 25.0625 32.0367 26.3225C32.6658 26.9517 33.0125 27.7892 33.0125 28.6792C33.0125 29.5692 32.6658 30.4067 32.0358 31.0358C31.4067 31.6658 30.5692 32.0125 29.6792 32.0125ZM29.6792 27.0125C29.2342 27.0125 28.8158 27.1858 28.5008 27.5008C28.1858 27.8158 28.0125 28.2342 28.0125 28.6792C28.0125 29.1242 28.1858 29.5425 28.5 29.8575C29.13 30.4875 30.2275 30.4875 30.8575 29.8575C31.1725 29.5425 31.3458 29.1242 31.3458 28.6792C31.3458 28.2342 31.1725 27.8158 30.8583 27.5008C30.5433 27.1858 30.1242 27.0125 29.6792 27.0125Z" fill="url(#paint5_linear)"/>
<path d="M60.3209 62.6542C59.4309 62.6542 58.5934 62.3075 57.9634 61.6775C57.3342 61.0483 56.9875 60.2108 56.9875 59.3208C56.9875 58.4308 57.3342 57.5933 57.9642 56.9642C59.2225 55.7042 61.4192 55.7042 62.6784 56.9642C63.3075 57.5933 63.6542 58.4308 63.6542 59.3208C63.6542 60.2108 63.3075 61.0483 62.6775 61.6775C62.0484 62.3075 61.2109 62.6542 60.3209 62.6542ZM60.3209 57.6542C59.8759 57.6542 59.4575 57.8275 59.1425 58.1425C58.8275 58.4575 58.6542 58.8758 58.6542 59.3208C58.6542 59.7658 58.8275 60.1842 59.1417 60.4992C59.7717 61.1292 60.8692 61.1292 61.4992 60.4992C61.8142 60.1842 61.9875 59.7658 61.9875 59.3208C61.9875 58.8758 61.8142 58.4575 61.5 58.1425C61.1842 57.8275 60.7659 57.6542 60.3209 57.6542Z" fill="url(#paint6_linear)"/>
<path d="M60.3209 32.0125C59.4309 32.0125 58.5934 31.6658 57.9634 31.0358C57.3342 30.4067 56.9875 29.5692 56.9875 28.6792C56.9875 27.7892 57.3342 26.9517 57.9642 26.3225C59.2225 25.0625 61.4192 25.0625 62.6784 26.3225C63.3075 26.9517 63.6542 27.7892 63.6542 28.6792C63.6542 29.5692 63.3075 30.4067 62.6784 31.0358C62.0484 31.6658 61.2109 32.0125 60.3209 32.0125ZM60.3209 27.0125C59.8759 27.0125 59.4575 27.1858 59.1425 27.5008C58.8275 27.8158 58.6542 28.2342 58.6542 28.6792C58.6542 29.1242 58.8275 29.5425 59.1417 29.8575C59.7717 30.4875 60.8692 30.4875 61.4992 29.8575C61.8134 29.5425 61.9867 29.1242 61.9867 28.6792C61.9867 28.2342 61.8134 27.8158 61.4992 27.5008C61.1842 27.1858 60.7659 27.0125 60.3209 27.0125Z" fill="url(#paint7_linear)"/>
<path d="M29.6792 62.6542C28.7892 62.6542 27.9517 62.3075 27.3217 61.6775C26.6925 61.0483 26.3458 60.2108 26.3458 59.3208C26.3458 58.4308 26.6925 57.5933 27.3225 56.9642C28.5808 55.7042 30.7775 55.7042 32.0367 56.9642C32.6658 57.5933 33.0125 58.4308 33.0125 59.3208C33.0125 60.2108 32.6658 61.0483 32.0367 61.6775C31.4067 62.3075 30.5692 62.6542 29.6792 62.6542ZM29.6792 57.6542C29.2342 57.6542 28.8158 57.8275 28.5008 58.1425C28.1858 58.4575 28.0125 58.8758 28.0125 59.3208C28.0125 59.7658 28.1858 60.1842 28.5 60.4992C29.13 61.1292 30.2275 61.1292 30.8575 60.4992C31.1717 60.1842 31.345 59.7658 31.345 59.3208C31.345 58.8758 31.1717 58.4575 30.8575 58.1425C30.5433 57.8275 30.1242 57.6542 29.6792 57.6542Z" fill="url(#paint8_linear)"/>
<rect width="8.33333" height="1.66667" fill="black" fill-opacity="0" transform="translate(25 43.1667)"/>
<path d="M27.5 44.8333H25.8333C25.3733 44.8333 25 44.4608 25 44C25 43.5392 25.3733 43.1667 25.8333 43.1667H27.5C27.96 43.1667 28.3333 43.5392 28.3333 44C28.3333 44.4608 27.96 44.8333 27.5 44.8333Z" fill="url(#paint9_linear)"/>
<path d="M32.5 44.8333H30.8334C30.3734 44.8333 30 44.4608 30 44C30 43.5392 30.3734 43.1667 30.8334 43.1667H32.5C32.96 43.1667 33.3334 43.5392 33.3334 44C33.3334 44.4608 32.96 44.8333 32.5 44.8333Z" fill="url(#paint10_linear)"/>
<rect width="8.33333" height="1.66667" fill="black" fill-opacity="0" transform="translate(56.6667 43.1667)"/>
<path d="M59.1667 44.8333H57.5C57.04 44.8333 56.6667 44.4608 56.6667 44C56.6667 43.5392 57.04 43.1667 57.5 43.1667H59.1667C59.6267 43.1667 60 43.5392 60 44C60 44.4608 59.6267 44.8333 59.1667 44.8333Z" fill="url(#paint11_linear)"/>
<path d="M64.1667 44.8333H62.5C62.04 44.8333 61.6667 44.4608 61.6667 44C61.6667 43.5392 62.04 43.1667 62.5 43.1667H64.1667C64.6267 43.1667 65 43.5392 65 44C65 44.4608 64.6267 44.8333 64.1667 44.8333Z" fill="url(#paint12_linear)"/>
<rect width="1.66667" height="8.33333" fill="black" fill-opacity="0" transform="translate(44.1667 55.6667)"/>
<path d="M45 64C44.54 64 44.1667 63.6275 44.1667 63.1667V61.5C44.1667 61.0392 44.54 60.6667 45 60.6667C45.46 60.6667 45.8333 61.0392 45.8333 61.5V63.1667C45.8333 63.6275 45.46 64 45 64Z" fill="url(#paint13_linear)"/>
<path d="M45 59C44.54 59 44.1667 58.6275 44.1667 58.1667V56.5C44.1667 56.0392 44.54 55.6667 45 55.6667C45.46 55.6667 45.8333 56.0392 45.8333 56.5V58.1667C45.8333 58.6275 45.46 59 45 59Z" fill="url(#paint14_linear)"/>
<rect width="1.66667" height="8.33333" fill="black" fill-opacity="0" transform="translate(44.1667 24)"/>
<path d="M45 32.3333C44.54 32.3333 44.1667 31.9608 44.1667 31.5V29.8333C44.1667 29.3725 44.54 29 45 29C45.46 29 45.8333 29.3725 45.8333 29.8333V31.5C45.8333 31.9608 45.46 32.3333 45 32.3333Z" fill="url(#paint15_linear)"/>
<path d="M45 27.3333C44.54 27.3333 44.1667 26.9608 44.1667 26.5V24.8333C44.1667 24.3725 44.54 24 45 24C45.46 24 45.8333 24.3725 45.8333 24.8333V26.5C45.8333 26.9608 45.46 27.3333 45 27.3333Z" fill="url(#paint16_linear)"/>
<rect width="5.95167" height="5.95271" fill="black" fill-opacity="0" transform="translate(30.6138 52.434)"/>
<path d="M31.4475 58.3867C31.2342 58.3867 31.0209 58.305 30.8575 58.1425C30.5325 57.8167 30.5325 57.29 30.8575 56.9642L32.0359 55.7858C32.3617 55.46 32.8892 55.46 33.215 55.7858C33.54 56.1117 33.54 56.6383 33.215 56.9642L32.0367 58.1425C31.8734 58.305 31.66 58.3867 31.4475 58.3867Z" fill="url(#paint17_linear)"/>
<path d="M34.5542 55.2792C34.3408 55.2792 34.1275 55.1975 33.9642 55.035C33.6392 54.7092 33.6392 54.1825 33.9642 53.8567L35.1425 52.6783C35.4683 52.3525 35.9958 52.3525 36.3217 52.6783C36.6467 53.0042 36.6467 53.5308 36.3217 53.8567L35.1433 55.035C34.9808 55.1983 34.7675 55.2792 34.5542 55.2792Z" fill="url(#paint18_linear)"/>
<rect width="5.95375" height="5.95271" fill="black" fill-opacity="0" transform="translate(53.4331 29.6131)"/>
<path d="M54.2666 35.5658C54.0533 35.5658 53.84 35.4842 53.6775 35.3217C53.3516 34.9958 53.3516 34.4692 53.6775 34.1433L54.8566 32.965C55.1825 32.6392 55.7091 32.6392 56.035 32.965C56.3608 33.2908 56.3608 33.8175 56.035 34.1433L54.8558 35.3217C54.6933 35.4842 54.48 35.5658 54.2666 35.5658Z" fill="url(#paint19_linear)"/>
<path d="M57.3742 32.4583C57.1609 32.4583 56.9475 32.3767 56.785 32.2142C56.4592 31.8883 56.4592 31.3617 56.785 31.0358L57.9642 29.8575C58.29 29.5317 58.8167 29.5317 59.1425 29.8575C59.4684 30.1833 59.4684 30.71 59.1425 31.0358L57.9634 32.2142C57.8009 32.3775 57.5875 32.4583 57.3742 32.4583Z" fill="url(#paint20_linear)"/>
<rect width="5.95292" height="5.95271" fill="black" fill-opacity="0" transform="translate(53.4331 52.434)"/>
<path d="M58.5525 58.3867C58.3392 58.3867 58.1258 58.305 57.9633 58.1425L56.7842 56.9642C56.4583 56.6383 56.4583 56.1117 56.7842 55.7858C57.11 55.46 57.6367 55.46 57.9625 55.7858L59.1417 56.9642C59.4675 57.29 59.4675 57.8167 59.1417 58.1425C58.9792 58.305 58.7658 58.3867 58.5525 58.3867Z" fill="url(#paint21_linear)"/>
<path d="M55.4458 55.2792C55.2325 55.2792 55.0191 55.1975 54.8566 55.035L53.6775 53.8567C53.3516 53.5309 53.3516 53.0042 53.6775 52.6784C54.0033 52.3525 54.53 52.3525 54.8558 52.6784L56.035 53.8567C56.3608 54.1825 56.3608 54.7092 56.035 55.035C55.8725 55.1984 55.6591 55.2792 55.4458 55.2792Z" fill="url(#paint22_linear)"/>
<rect width="5.95292" height="5.95271" fill="black" fill-opacity="0" transform="translate(30.614 29.6131)"/>
<path d="M35.7325 35.5658C35.5192 35.5658 35.3058 35.4842 35.1433 35.3217L33.965 34.1433C33.6392 33.8175 33.6392 33.2908 33.965 32.965C34.2908 32.6392 34.8183 32.6392 35.1442 32.965L36.3225 34.1433C36.6483 34.4692 36.6483 34.9958 36.3225 35.3217C36.1592 35.4842 35.9458 35.5658 35.7325 35.5658Z" fill="url(#paint23_linear)"/>
<path d="M32.6258 32.4583C32.4125 32.4583 32.1992 32.3767 32.0367 32.2142L30.8583 31.0358C30.5325 30.71 30.5325 30.1833 30.8583 29.8575C31.1842 29.5317 31.7117 29.5317 32.0375 29.8575L33.2158 31.0358C33.5417 31.3617 33.5417 31.8883 33.2158 32.2142C33.0525 32.3775 32.8392 32.4583 32.6258 32.4583Z" fill="url(#paint24_linear)"/>
<path d="M45 57.3333C37.6483 57.3333 31.6667 51.3517 31.6667 44C31.6667 36.6483 37.6483 30.6667 45 30.6667C52.3525 30.6667 58.3333 36.6483 58.3333 44C58.3333 51.3517 52.3525 57.3333 45 57.3333ZM45 32.3333C38.5667 32.3333 33.3333 37.5667 33.3333 44C33.3333 50.4333 38.5667 55.6667 45 55.6667C51.4333 55.6667 56.6667 50.4333 56.6667 44C56.6667 37.5667 51.4333 32.3333 45 32.3333Z" fill="url(#paint25_linear)"/>
<path d="M45 44.8333C42.2433 44.8333 40 42.5908 40 39.8333C40 37.0758 42.2433 34.8333 45 34.8333C47.7575 34.8333 50 37.0758 50 39.8333C50 42.5908 47.7567 44.8333 45 44.8333ZM45 36.5C43.1617 36.5 41.6667 37.995 41.6667 39.8333C41.6667 41.6717 43.1617 43.1667 45 43.1667C46.8383 43.1667 48.3333 41.6717 48.3333 39.8333C48.3333 37.995 46.8375 36.5 45 36.5Z" fill="url(#paint26_linear)"/>
<path d="M45 57.3333C42.4858 57.3333 40.0267 56.6183 37.8875 55.265C37.6458 55.1125 37.5 54.8466 37.5 54.5608V50.9658C37.5 48.9633 39.13 47.3341 41.1325 47.3341H48.8683C50.8708 47.3341 52.5 48.9633 52.5 50.9658V54.5608C52.5 54.8466 52.3542 55.1125 52.1125 55.265C49.9733 56.6183 47.5133 57.3333 45 57.3333ZM39.1667 54.0908C42.7242 56.155 47.2758 56.155 50.8333 54.0908V50.965C50.8333 49.8808 49.9517 49 48.8683 49H41.1325C40.0483 49 39.1667 49.8816 39.1667 50.965V54.0908ZM51.6667 54.5608H51.675H51.6667Z" fill="url(#paint27_linear)"/>
<defs>
<linearGradient id="paint0_linear" x1="0" y1="0" x2="0.621212" y2="52.8684" gradientUnits="userSpaceOnUse">
<stop stop-color="#F41E3D"/>
<stop offset="1" stop-color="#D5122E"/>
</linearGradient>
<linearGradient id="paint1_linear" x1="41.6667" y1="19" x2="41.8055" y2="25.7999" gradientUnits="userSpaceOnUse">
<stop stop-color="#F41E3D"/>
<stop offset="1" stop-color="#D5122E"/>
</linearGradient>
<linearGradient id="paint2_linear" x1="41.6667" y1="62.3333" x2="41.8055" y2="69.1332" gradientUnits="userSpaceOnUse">
<stop stop-color="#F41E3D"/>
<stop offset="1" stop-color="#D5122E"/>
</linearGradient>
<linearGradient id="paint3_linear" x1="63.3333" y1="40.6667" x2="63.4721" y2="47.4666" gradientUnits="userSpaceOnUse">
<stop stop-color="#F41E3D"/>
<stop offset="1" stop-color="#D5122E"/>
</linearGradient>
<linearGradient id="paint4_linear" x1="20" y1="40.6667" x2="20.1388" y2="47.4666" gradientUnits="userSpaceOnUse">
<stop stop-color="#F41E3D"/>
<stop offset="1" stop-color="#D5122E"/>
</linearGradient>
<linearGradient id="paint5_linear" x1="26.3458" y1="25.3775" x2="26.4833" y2="32.1451" gradientUnits="userSpaceOnUse">
<stop stop-color="#F41E3D"/>
<stop offset="1" stop-color="#D5122E"/>
</linearGradient>
<linearGradient id="paint6_linear" x1="56.9875" y1="56.0192" x2="57.125" y2="62.7868" gradientUnits="userSpaceOnUse">
<stop stop-color="#F41E3D"/>
<stop offset="1" stop-color="#D5122E"/>
</linearGradient>
<linearGradient id="paint7_linear" x1="56.9875" y1="25.3775" x2="57.125" y2="32.1451" gradientUnits="userSpaceOnUse">
<stop stop-color="#F41E3D"/>
<stop offset="1" stop-color="#D5122E"/>
</linearGradient>
<linearGradient id="paint8_linear" x1="26.3458" y1="56.0192" x2="26.4833" y2="62.7868" gradientUnits="userSpaceOnUse">
<stop stop-color="#F41E3D"/>
<stop offset="1" stop-color="#D5122E"/>
</linearGradient>
<linearGradient id="paint9_linear" x1="25" y1="43.1667" x2="25.0174" y2="44.8672" gradientUnits="userSpaceOnUse">
<stop stop-color="#F41E3D"/>
<stop offset="1" stop-color="#D5122E"/>
</linearGradient>
<linearGradient id="paint10_linear" x1="30" y1="43.1667" x2="30.0174" y2="44.8672" gradientUnits="userSpaceOnUse">
<stop stop-color="#F41E3D"/>
<stop offset="1" stop-color="#D5122E"/>
</linearGradient>
<linearGradient id="paint11_linear" x1="56.6667" y1="43.1667" x2="56.684" y2="44.8672" gradientUnits="userSpaceOnUse">
<stop stop-color="#F41E3D"/>
<stop offset="1" stop-color="#D5122E"/>
</linearGradient>
<linearGradient id="paint12_linear" x1="61.6667" y1="43.1667" x2="61.684" y2="44.8672" gradientUnits="userSpaceOnUse">
<stop stop-color="#F41E3D"/>
<stop offset="1" stop-color="#D5122E"/>
</linearGradient>
<linearGradient id="paint13_linear" x1="44.1667" y1="60.6667" x2="44.3053" y2="64.0624" gradientUnits="userSpaceOnUse">
<stop stop-color="#F41E3D"/>
<stop offset="1" stop-color="#D5122E"/>
</linearGradient>
<linearGradient id="paint14_linear" x1="44.1667" y1="55.6667" x2="44.3053" y2="59.0624" gradientUnits="userSpaceOnUse">
<stop stop-color="#F41E3D"/>
<stop offset="1" stop-color="#D5122E"/>
</linearGradient>
<linearGradient id="paint15_linear" x1="44.1667" y1="29" x2="44.3053" y2="32.3957" gradientUnits="userSpaceOnUse">
<stop stop-color="#F41E3D"/>
<stop offset="1" stop-color="#D5122E"/>
</linearGradient>
<linearGradient id="paint16_linear" x1="44.1667" y1="24" x2="44.3053" y2="27.3957" gradientUnits="userSpaceOnUse">
<stop stop-color="#F41E3D"/>
<stop offset="1" stop-color="#D5122E"/>
</linearGradient>
<linearGradient id="paint17_linear" x1="30.6138" y1="55.5415" x2="30.673" y2="58.4435" gradientUnits="userSpaceOnUse">
<stop stop-color="#F41E3D"/>
<stop offset="1" stop-color="#D5122E"/>
</linearGradient>
<linearGradient id="paint18_linear" x1="33.7204" y1="52.434" x2="33.7797" y2="55.336" gradientUnits="userSpaceOnUse">
<stop stop-color="#F41E3D"/>
<stop offset="1" stop-color="#D5122E"/>
</linearGradient>
<linearGradient id="paint19_linear" x1="53.4331" y1="32.7206" x2="53.4923" y2="35.6227" gradientUnits="userSpaceOnUse">
<stop stop-color="#F41E3D"/>
<stop offset="1" stop-color="#D5122E"/>
</linearGradient>
<linearGradient id="paint20_linear" x1="56.5406" y1="29.6131" x2="56.5999" y2="32.5152" gradientUnits="userSpaceOnUse">
<stop stop-color="#F41E3D"/>
<stop offset="1" stop-color="#D5122E"/>
</linearGradient>
<linearGradient id="paint21_linear" x1="56.5398" y1="55.5415" x2="56.599" y2="58.4435" gradientUnits="userSpaceOnUse">
<stop stop-color="#F41E3D"/>
<stop offset="1" stop-color="#D5122E"/>
</linearGradient>
<linearGradient id="paint22_linear" x1="53.4331" y1="52.434" x2="53.4923" y2="55.3361" gradientUnits="userSpaceOnUse">
<stop stop-color="#F41E3D"/>
<stop offset="1" stop-color="#D5122E"/>
</linearGradient>
<linearGradient id="paint23_linear" x1="33.7206" y1="32.7206" x2="33.7798" y2="35.6227" gradientUnits="userSpaceOnUse">
<stop stop-color="#F41E3D"/>
<stop offset="1" stop-color="#D5122E"/>
</linearGradient>
<linearGradient id="paint24_linear" x1="30.614" y1="29.6131" x2="30.6732" y2="32.5152" gradientUnits="userSpaceOnUse">
<stop stop-color="#F41E3D"/>
<stop offset="1" stop-color="#D5122E"/>
</linearGradient>
<linearGradient id="paint25_linear" x1="31.6667" y1="30.6667" x2="32.2217" y2="57.8662" gradientUnits="userSpaceOnUse">
<stop stop-color="#F41E3D"/>
<stop offset="1" stop-color="#D5122E"/>
</linearGradient>
<linearGradient id="paint26_linear" x1="40" y1="34.8333" x2="40.2082" y2="45.0332" gradientUnits="userSpaceOnUse">
<stop stop-color="#F41E3D"/>
<stop offset="1" stop-color="#D5122E"/>
</linearGradient>
<linearGradient id="paint27_linear" x1="37.5" y1="47.3341" x2="37.6388" y2="57.5355" gradientUnits="userSpaceOnUse">
<stop stop-color="#F41E3D"/>
<stop offset="1" stop-color="#D5122E"/>
</linearGradient>
</defs>
</svg>
