<svg width="90" height="62" viewBox="0 0 90 62" fill="none" xmlns="http://www.w3.org/2000/svg">
<rect width="90" height="62" fill="black" fill-opacity="0"/>
<path d="M62.7273 13.6364C70.8004 13.6364 77.5927 19.5106 78.9271 27.3307C85.1421 27.9337 90 33.1722 90 39.5455C90 46.3235 84.5053 51.8182 77.7273 51.8182H69.5455C68.7923 51.8182 68.1818 51.2077 68.1818 50.4545C68.1818 49.7014 68.7923 49.0909 69.5455 49.0909H77.7273C82.9991 49.0909 87.2727 44.8173 87.2727 39.5455C87.2727 34.2736 82.9991 30 77.7273 30C77.0257 30 76.4386 29.4677 76.3701 28.7695C75.6827 21.7619 69.79 16.3636 62.7273 16.3636C61.4539 16.3636 60.2052 16.5378 59.0051 16.8775C58.3215 17.071 57.6039 16.7072 57.3559 16.0415C54.3979 8.10174 46.7962 2.72727 38.1818 2.72727C28.7897 2.72727 20.6703 9.11157 18.3683 18.0802C18.2186 18.6631 17.7045 19.0791 17.1031 19.1036C9.08559 19.4313 2.72727 26.0389 2.72727 34.0909C2.72727 42.3752 9.443 49.0909 17.7273 49.0909H20.4545C21.2077 49.0909 21.8182 49.7014 21.8182 50.4545C21.8182 51.2077 21.2077 51.8182 20.4545 51.8182H17.7273C7.93677 51.8182 0 43.8814 0 34.0909C0 24.9112 6.99176 17.3206 15.9935 16.4474C18.9192 6.7847 27.8734 0 38.1818 0C47.5314 0 55.8282 5.58627 59.4582 13.9632C60.526 13.7466 61.6197 13.6364 62.7273 13.6364Z" fill="url(#paint0_linear)"/>
<rect width="54" height="37" fill="black" fill-opacity="0" transform="translate(18 25)"/>
<path d="M32.0961 53.4685C32.3746 53.6124 32.6506 53.6855 32.9163 53.6853C33.302 53.6853 33.6456 53.5318 33.8841 53.2531C34.0757 53.0288 34.2812 52.6265 34.1688 51.9848L33.8544 50.1835L35.1872 48.9074C35.6506 48.4645 35.8224 47.9262 35.6597 47.4307C35.4966 46.935 35.0364 46.5984 34.3966 46.5073L32.5518 46.244L31.727 44.6034C31.4411 44.0342 30.9743 43.7078 30.4457 43.7078C29.9168 43.7078 29.4496 44.0344 29.1645 44.6034L28.3401 46.2442L26.4957 46.5073C25.8555 46.5984 25.3949 46.9352 25.2318 47.4311C25.0686 47.9268 25.2408 48.4649 25.7039 48.9072L27.0371 50.1836L26.7231 51.9836C26.6103 52.6257 26.815 53.0282 27.007 53.2529C27.4091 53.7243 28.1119 53.8213 28.7945 53.4685L30.4457 52.6163L32.0961 53.4685ZM28.4748 51.7565L28.8506 49.6015L27.2599 48.0784L29.459 47.7646L30.4457 45.8006L31.4328 47.7648L33.6316 48.0784L32.0409 49.6017L32.4171 51.7568L30.4457 50.7391L28.4748 51.7565Z" fill="url(#paint1_linear)"/>
<path d="M25.9527 42.0863L25.6874 40.4924L26.8051 39.3695C27.2291 38.943 27.3802 38.4276 27.2204 37.9554C27.0618 37.4883 26.6354 37.1702 26.0508 37.0831L24.5385 36.8562L23.855 35.4281C23.4805 34.6462 22.8819 34.5618 22.6417 34.5618C22.4011 34.5618 21.8021 34.6462 21.4289 35.4281L20.745 36.8562L19.2326 37.083C18.6472 37.1704 18.2204 37.4887 18.0622 37.9562C17.9024 38.4286 18.054 38.9438 18.4783 39.3696L19.5956 40.4924L19.3303 42.0855C19.2273 42.7006 19.4254 43.0849 19.61 43.2988C19.996 43.7476 20.6647 43.838 21.2978 43.4953L22.6413 42.767L23.9851 43.4953C24.2455 43.6364 24.5059 43.7078 24.7593 43.7078C25.1206 43.7078 25.4448 43.5629 25.6718 43.2996C25.8559 43.0861 26.0545 42.7022 25.9527 42.0863ZM23.8838 39.9297L24.1788 41.7025L22.6413 40.869L21.1046 41.7009L21.3992 39.9297L20.1093 38.6336L21.8878 38.3669L22.6417 36.7917L23.3956 38.3669L25.1729 38.6346L23.8838 39.9297Z" fill="url(#paint2_linear)"/>
<path d="M63.5047 46.5073L61.6598 46.2442L60.8359 44.6038C60.5504 44.0344 60.0832 43.7078 59.5542 43.7078C59.0257 43.7078 58.5589 44.0342 58.273 44.6032L57.4482 46.244L55.6034 46.5073C54.9636 46.5984 54.5034 46.935 54.3403 47.4307C54.1776 47.9262 54.3493 48.4645 54.8124 48.9072L56.1455 50.1835L55.8312 51.9846C55.7187 52.6265 55.9243 53.0288 56.1159 53.2533C56.5188 53.7235 57.2208 53.8213 57.9043 53.4685L59.5542 52.6163L61.2055 53.4685C61.4839 53.6124 61.7599 53.6853 62.0257 53.6853C62.4113 53.6853 62.7549 53.5318 62.993 53.2529C63.185 53.0284 63.3897 52.6259 63.2768 51.9848L62.9629 50.1836L64.2957 48.9076C64.7591 48.4649 64.9313 47.9268 64.7682 47.4311C64.6051 46.9352 64.1445 46.5984 63.5047 46.5073ZM61.1494 49.6015L61.5251 51.7565L59.5542 50.7391L57.5829 51.7568L57.9591 49.6017L56.3684 48.0784L58.5672 47.7648L59.5542 45.8006L60.5409 47.7646L62.7401 48.0784L61.1494 49.6015Z" fill="url(#paint3_linear)"/>
<path d="M71.9378 37.9562C71.7796 37.4887 71.3528 37.1704 70.7678 37.0831L69.255 36.8562L68.5716 35.4291C68.1979 34.6462 67.5989 34.5618 67.3583 34.5618C67.1181 34.5618 66.5195 34.6462 66.145 35.4284L65.4616 36.8562L63.9496 37.083C63.3646 37.1702 62.9382 37.4883 62.7796 37.9554C62.6198 38.4276 62.771 38.943 63.1953 39.3696L64.3126 40.4924L64.0473 42.0874C63.9455 42.7022 64.1441 43.0861 64.3282 43.2998C64.7151 43.7472 65.3829 43.8371 66.0149 43.4953L67.3587 42.767L68.7026 43.4955C68.9629 43.6364 69.2233 43.7078 69.4767 43.7078C69.8388 43.7078 70.163 43.5627 70.39 43.2988C70.5746 43.0849 70.7728 42.7006 70.6697 42.0863L70.4044 40.4924L71.5213 39.3701C71.9461 38.9438 72.0977 38.4286 71.9378 37.9562ZM68.6008 39.9297L68.8958 41.7023L67.3587 40.869L65.8212 41.7009L66.1162 39.9297L64.8263 38.6336L66.6044 38.3669L67.3583 36.7917L68.1122 38.3669L69.8899 38.6346L68.6008 39.9297Z" fill="url(#paint4_linear)"/>
<path d="M45 39.1348C48.9616 39.1348 52.1717 35.9706 52.1717 32.0666C52.1717 28.1633 48.9616 25 45 25C41.0401 25 37.8284 28.1633 37.8284 32.0666C37.8284 35.9706 41.0401 39.1348 45 39.1348ZM45 26.6629C48.0239 26.6629 50.4842 29.0871 50.4842 32.0666C50.4842 35.0472 48.0239 37.4719 45 37.4719C41.9761 37.4719 39.5158 35.0472 39.5158 32.0666C39.5158 29.0871 41.9761 26.6629 45 26.6629Z" fill="url(#paint5_linear)"/>
<path d="M49.7142 56.7118L51.9315 54.4823C52.5078 53.9038 52.7216 53.2272 52.5186 52.626C52.3179 52.0336 51.7506 51.6262 50.9625 51.5081L47.9275 51.0538L46.5639 48.2029C46.0584 47.1478 45.302 47.0337 45.0004 47.0337C44.698 47.0337 43.9412 47.1478 43.4378 48.2033L42.0733 51.0536L39.0379 51.5081C38.2494 51.6262 37.6817 52.034 37.4814 52.6268C37.2779 53.2282 37.4922 53.9046 38.0677 54.4817L40.2862 56.712L39.7617 59.8682C39.6196 60.7173 39.8734 61.2249 40.1111 61.5012C40.5972 62.066 41.4471 62.1614 42.2941 61.7024L45.0004 60.236L47.7059 61.7024C48.07 61.8999 48.4268 62.0002 48.7655 62C49.2128 62 49.6116 61.823 49.8885 61.5012C50.1266 61.2249 50.3808 60.7175 50.2391 59.8694L49.7142 56.7118ZM48.5739 60.1387C48.583 60.1931 48.5879 60.2407 48.5903 60.2812C48.5685 60.2713 48.545 60.2593 48.5191 60.2453L45.0004 58.3384L41.4813 60.2451C41.4554 60.2591 41.4319 60.2709 41.4105 60.281C41.4125 60.2402 41.4179 60.1927 41.427 60.1381L42.0898 56.1493L39.2719 53.317C39.2204 53.2648 39.1821 53.2189 39.1549 53.1809C39.1915 53.1706 39.2369 53.1604 39.2917 53.1523L43.2162 52.5647L44.9641 48.9118C44.9769 48.8854 44.9889 48.8617 45.0009 48.8403C45.0128 48.8619 45.0251 48.8858 45.0379 48.9126L46.7847 52.5644L50.7087 53.1523C50.7635 53.1604 50.8088 53.1706 50.8451 53.1809C50.8175 53.2191 50.7792 53.2652 50.7269 53.3177L47.9106 56.1495L48.5739 60.1387Z" fill="url(#paint6_linear)"/>
<path d="M33.51 44.4041C33.9632 43.5998 34.4913 42.8875 35.1006 42.2708C36.4358 40.9193 38.202 39.9938 40.3731 39.4979C39.7749 39.1348 39.2183 38.7113 38.7252 38.2229C35.8257 39.1518 33.8396 40.8154 32.4895 42.8637C32.7853 43.1384 33.042 43.4723 33.2394 43.8655L33.51 44.4041Z" fill="url(#paint7_linear)"/>
<path d="M32.0162 55.6968C31.7406 55.6968 31.521 55.4821 31.5165 55.2965C31.514 55.2064 31.5148 55.1207 31.5128 55.0314C31.446 55.0016 31.3793 54.9758 31.313 54.9417L30.4453 54.4937L29.8187 54.8173C29.8216 54.9926 29.8249 55.1676 29.8294 55.3407C29.8591 56.457 30.8585 57.3597 32.0162 57.3597H38.469L38.483 57.2745L36.9134 55.6968H32.0162Z" fill="url(#paint8_linear)"/>
<path d="M49.5321 39.5548C51.6492 40.0746 53.3882 41.0084 54.725 42.352C55.3636 42.9941 55.9206 43.7405 56.3981 44.5862L56.7606 43.8651C56.9291 43.5296 57.143 43.2393 57.3848 42.989C56.0211 40.9418 54.0404 39.2659 51.1887 38.3025C50.6906 38.7828 50.1332 39.2001 49.5321 39.5548Z" fill="url(#paint9_linear)"/>
<path d="M58.6874 54.9415C58.624 54.9744 58.5577 54.9944 58.4934 55.0231C58.4922 55.1189 58.4938 55.2115 58.4917 55.3081C58.4881 55.4841 58.2681 55.6968 58.0003 55.6968H53.0863L51.5174 57.2743L51.5314 57.3597H58.0003C59.1563 57.3597 60.1565 56.457 60.1788 55.3407C60.1821 55.1682 60.1842 54.994 60.1854 54.8195L59.5547 54.4937L58.6874 54.9415Z" fill="url(#paint10_linear)"/>
<defs>
<linearGradient id="paint0_linear" x1="0" y1="0" x2="0.621212" y2="52.8684" gradientUnits="userSpaceOnUse">
<stop stop-color="#F41E3D"/>
<stop offset="1" stop-color="#D5122E"/>
</linearGradient>
<linearGradient id="paint1_linear" x1="25.1716" y1="43.7078" x2="25.3681" y2="53.8851" gradientUnits="userSpaceOnUse">
<stop stop-color="#F41E3D"/>
<stop offset="1" stop-color="#D5122E"/>
</linearGradient>
<linearGradient id="paint2_linear" x1="18" y1="34.5618" x2="18.1876" y2="43.8907" gradientUnits="userSpaceOnUse">
<stop stop-color="#F41E3D"/>
<stop offset="1" stop-color="#D5122E"/>
</linearGradient>
<linearGradient id="paint3_linear" x1="54.2803" y1="43.7078" x2="54.4767" y2="53.8851" gradientUnits="userSpaceOnUse">
<stop stop-color="#F41E3D"/>
<stop offset="1" stop-color="#D5122E"/>
</linearGradient>
<linearGradient id="paint4_linear" x1="62.7173" y1="34.5618" x2="62.9049" y2="43.8907" gradientUnits="userSpaceOnUse">
<stop stop-color="#F41E3D"/>
<stop offset="1" stop-color="#D5122E"/>
</linearGradient>
<linearGradient id="paint5_linear" x1="37.8284" y1="25" x2="38.1183" y2="39.4175" gradientUnits="userSpaceOnUse">
<stop stop-color="#F41E3D"/>
<stop offset="1" stop-color="#D5122E"/>
</linearGradient>
<linearGradient id="paint6_linear" x1="37.4062" y1="47.0337" x2="37.7133" y2="62.2992" gradientUnits="userSpaceOnUse">
<stop stop-color="#F41E3D"/>
<stop offset="1" stop-color="#D5122E"/>
</linearGradient>
<linearGradient id="paint7_linear" x1="32.4895" y1="38.2229" x2="32.5904" y2="44.5286" gradientUnits="userSpaceOnUse">
<stop stop-color="#F41E3D"/>
<stop offset="1" stop-color="#D5122E"/>
</linearGradient>
<linearGradient id="paint8_linear" x1="29.8187" y1="54.4937" x2="29.8385" y2="57.4181" gradientUnits="userSpaceOnUse">
<stop stop-color="#F41E3D"/>
<stop offset="1" stop-color="#D5122E"/>
</linearGradient>
<linearGradient id="paint9_linear" x1="49.5321" y1="38.3025" x2="49.6368" y2="44.7127" gradientUnits="userSpaceOnUse">
<stop stop-color="#F41E3D"/>
<stop offset="1" stop-color="#D5122E"/>
</linearGradient>
<linearGradient id="paint10_linear" x1="51.5174" y1="54.4937" x2="51.5372" y2="57.4181" gradientUnits="userSpaceOnUse">
<stop stop-color="#F41E3D"/>
<stop offset="1" stop-color="#D5122E"/>
</linearGradient>
</defs>
</svg>
