<svg width="90" height="69" viewBox="0 0 90 69" fill="none" xmlns="http://www.w3.org/2000/svg">
<rect width="90" height="69" fill="black" fill-opacity="0"/>
<path d="M62.7273 13.6364C70.8004 13.6364 77.5926 19.5106 78.9271 27.3307C85.1421 27.9337 90 33.1722 90 39.5455C90 46.3235 84.5053 51.8182 77.7273 51.8182H69.5455C68.7923 51.8182 68.1818 51.2077 68.1818 50.4545C68.1818 49.7014 68.7923 49.0909 69.5455 49.0909H77.7273C82.9991 49.0909 87.2727 44.8173 87.2727 39.5455C87.2727 34.2736 82.9991 30 77.7273 30C77.0257 30 76.4386 29.4677 76.3701 28.7695C75.6827 21.7619 69.79 16.3636 62.7273 16.3636C61.4539 16.3636 60.2052 16.5378 59.0051 16.8775C58.3215 17.071 57.6039 16.7072 57.3559 16.0415C54.3979 8.10174 46.7962 2.72727 38.1818 2.72727C28.7897 2.72727 20.6703 9.11157 18.3683 18.0802C18.2186 18.6631 17.7045 19.0791 17.1031 19.1036C9.08559 19.4313 2.72727 26.0389 2.72727 34.0909C2.72727 42.3752 9.443 49.0909 17.7273 49.0909H20.4545C21.2077 49.0909 21.8182 49.7014 21.8182 50.4545C21.8182 51.2077 21.2077 51.8182 20.4545 51.8182H17.7273C7.93677 51.8182 0 43.8814 0 34.0909C0 24.9112 6.99176 17.3206 15.9935 16.4474C18.9192 6.7847 27.8734 0 38.1818 0C47.5314 0 55.8282 5.58627 59.4582 13.9632C60.526 13.7466 61.6197 13.6364 62.7273 13.6364Z" fill="url(#paint0_linear)"/>
<rect width="43" height="43" fill="black" fill-opacity="0" transform="translate(23 26)"/>
<path d="M50.95 40.3334V39.6167C50.95 37.2918 49.3576 35.3368 47.2076 34.7706C47.7458 34.1435 48.0833 33.3394 48.0833 32.45C48.0833 30.4742 46.4758 28.8667 44.5 28.8667C42.5241 28.8667 40.9167 30.4742 40.9167 32.45C40.9167 33.3394 41.2542 34.1435 41.7924 34.7706C39.6424 35.3368 38.05 37.2918 38.05 39.6167V40.3334C38.05 40.729 38.3703 41.05 38.7667 41.05H50.2333C50.6296 41.05 50.95 40.729 50.95 40.3334ZM44.5 30.3C45.6854 30.3 46.65 31.2647 46.65 32.45C46.65 33.6354 45.6854 34.6 44.5 34.6C43.3146 34.6 42.35 33.6354 42.35 32.45C42.35 31.2647 43.3146 30.3 44.5 30.3ZM39.4833 39.6167C39.4833 37.6408 41.0908 36.0334 43.0667 36.0334H45.9333C47.9092 36.0334 49.5167 37.6408 49.5167 39.6167H39.4833Z" fill="url(#paint1_linear)"/>
<path d="M25.8667 64.7V65.4166C25.8667 65.8122 26.187 66.1333 26.5833 66.1333H38.05C38.4463 66.1333 38.7667 65.8122 38.7667 65.4166V64.7C38.7667 62.3751 37.1742 60.42 35.0242 59.8539C35.5625 59.2268 35.9 58.4227 35.9 57.5333C35.9 55.5574 34.2925 53.95 32.3167 53.95C30.3408 53.95 28.7333 55.5574 28.7333 57.5333C28.7333 58.4227 29.0709 59.2268 29.6091 59.8539C27.4591 60.42 25.8667 62.3751 25.8667 64.7ZM32.3167 55.3833C33.502 55.3833 34.4667 56.3479 34.4667 57.5333C34.4667 58.7187 33.502 59.6833 32.3167 59.6833C31.1313 59.6833 30.1667 58.7187 30.1667 57.5333C30.1667 56.3479 31.1313 55.3833 32.3167 55.3833ZM30.8833 61.1166H33.75C35.7259 61.1166 37.3333 62.7241 37.3333 64.7H27.3C27.3 62.7241 28.9075 61.1166 30.8833 61.1166Z" fill="url(#paint2_linear)"/>
<path d="M62.4167 51.0833H57.4V47.5C57.4 47.1044 57.0796 46.7833 56.6833 46.7833H45.2167V43.9167H50.2333C52.2092 43.9167 53.8167 42.3092 53.8167 40.3333V29.5833C53.8167 27.6075 52.2092 26 50.2333 26H38.7667C36.7908 26 35.1833 27.6075 35.1833 29.5833V40.3333C35.1833 42.3092 36.7908 43.9167 38.7667 43.9167H43.7833V46.7833H32.3167C31.9203 46.7833 31.6 47.1044 31.6 47.5V51.0833H26.5833C24.6075 51.0833 23 52.6908 23 54.6667V65.4167C23 67.3925 24.6075 69 26.5833 69H38.05C40.0258 69 41.6333 67.3925 41.6333 65.4167V54.6667C41.6333 52.6908 40.0258 51.0833 38.05 51.0833H33.0333V48.2167H55.9667V51.0833H50.95C48.9741 51.0833 47.3667 52.6908 47.3667 54.6667V65.4167C47.3667 67.3925 48.9741 69 50.95 69H62.4167C64.3925 69 66 67.3925 66 65.4167V54.6667C66 52.6908 64.3925 51.0833 62.4167 51.0833ZM36.6167 40.3333V29.5833C36.6167 28.398 37.5813 27.4333 38.7667 27.4333H50.2333C51.4187 27.4333 52.3833 28.398 52.3833 29.5833V40.3333C52.3833 41.5187 51.4187 42.4833 50.2333 42.4833H38.7667C37.5813 42.4833 36.6167 41.5187 36.6167 40.3333ZM40.2 54.6667V65.4167C40.2 66.602 39.2354 67.5667 38.05 67.5667H26.5833C25.398 67.5667 24.4333 66.602 24.4333 65.4167V54.6667C24.4333 53.4813 25.398 52.5167 26.5833 52.5167H38.05C39.2354 52.5167 40.2 53.4813 40.2 54.6667ZM64.5667 65.4167C64.5667 66.602 63.602 67.5667 62.4167 67.5667H50.95C49.7646 67.5667 48.8 66.602 48.8 65.4167V54.6667C48.8 53.4813 49.7646 52.5167 50.95 52.5167H55.9667H57.4H62.4167C63.602 52.5167 64.5667 53.4813 64.5667 54.6667V65.4167Z" fill="url(#paint3_linear)"/>
<path d="M59.3909 59.8539C59.9291 59.2268 60.2667 58.4227 60.2667 57.5333C60.2667 55.5574 58.6592 53.95 56.6833 53.95C54.7075 53.95 53.1 55.5574 53.1 57.5333C53.1 58.4227 53.4376 59.2268 53.9758 59.8539C51.8258 60.42 50.2333 62.3751 50.2333 64.7V65.4166C50.2333 65.8122 50.5537 66.1333 50.95 66.1333H62.4167C62.813 66.1333 63.1333 65.8122 63.1333 65.4166V64.7C63.1333 62.3751 61.5409 60.42 59.3909 59.8539ZM56.6833 55.3833C57.8687 55.3833 58.8333 56.3479 58.8333 57.5333C58.8333 58.7187 57.8687 59.6833 56.6833 59.6833C55.498 59.6833 54.5333 58.7187 54.5333 57.5333C54.5333 56.3479 55.498 55.3833 56.6833 55.3833ZM51.6667 64.7C51.6667 62.7241 53.2742 61.1166 55.25 61.1166H58.1167C60.0925 61.1166 61.7 62.7241 61.7 64.7H51.6667Z" fill="url(#paint4_linear)"/>
<path d="M56.6833 33.8833H55.25V35.3166H56.6833V33.8833Z" fill="url(#paint5_linear)"/>
<path d="M59.55 33.8833H58.1167V35.3166H59.55V33.8833Z" fill="url(#paint6_linear)"/>
<path d="M62.4167 33.8833H60.9833V35.3166H62.4167V33.8833Z" fill="url(#paint7_linear)"/>
<path d="M65.2834 33.8833H63.85V35.3166H65.2834V33.8833Z" fill="url(#paint8_linear)"/>
<path d="M25.15 33.8833H23.7167V35.3166H25.15V33.8833Z" fill="url(#paint9_linear)"/>
<path d="M28.0167 33.8833H26.5833V35.3166H28.0167V33.8833Z" fill="url(#paint10_linear)"/>
<path d="M30.8833 33.8833H29.45V35.3166H30.8833V33.8833Z" fill="url(#paint11_linear)"/>
<path d="M33.75 33.8833H32.3167V35.3166H33.75V33.8833Z" fill="url(#paint12_linear)"/>
<defs>
<linearGradient id="paint0_linear" x1="0" y1="0" x2="0.621212" y2="52.8684" gradientUnits="userSpaceOnUse">
<stop stop-color="#F41E3D"/>
<stop offset="1" stop-color="#D5122E"/>
</linearGradient>
<linearGradient id="paint1_linear" x1="38.05" y1="28.8667" x2="38.2895" y2="41.2941" gradientUnits="userSpaceOnUse">
<stop stop-color="#F41E3D"/>
<stop offset="1" stop-color="#D5122E"/>
</linearGradient>
<linearGradient id="paint2_linear" x1="25.8667" y1="53.95" x2="26.1062" y2="66.3773" gradientUnits="userSpaceOnUse">
<stop stop-color="#F41E3D"/>
<stop offset="1" stop-color="#D5122E"/>
</linearGradient>
<linearGradient id="paint3_linear" x1="23" y1="26" x2="23.8951" y2="69.8593" gradientUnits="userSpaceOnUse">
<stop stop-color="#F41E3D"/>
<stop offset="1" stop-color="#D5122E"/>
</linearGradient>
<linearGradient id="paint4_linear" x1="50.2333" y1="53.95" x2="50.4729" y2="66.3773" gradientUnits="userSpaceOnUse">
<stop stop-color="#F41E3D"/>
<stop offset="1" stop-color="#D5122E"/>
</linearGradient>
<linearGradient id="paint5_linear" x1="55.25" y1="33.8833" x2="55.2798" y2="35.3453" gradientUnits="userSpaceOnUse">
<stop stop-color="#F41E3D"/>
<stop offset="1" stop-color="#D5122E"/>
</linearGradient>
<linearGradient id="paint6_linear" x1="58.1167" y1="33.8833" x2="58.1465" y2="35.3453" gradientUnits="userSpaceOnUse">
<stop stop-color="#F41E3D"/>
<stop offset="1" stop-color="#D5122E"/>
</linearGradient>
<linearGradient id="paint7_linear" x1="60.9833" y1="33.8833" x2="61.0132" y2="35.3453" gradientUnits="userSpaceOnUse">
<stop stop-color="#F41E3D"/>
<stop offset="1" stop-color="#D5122E"/>
</linearGradient>
<linearGradient id="paint8_linear" x1="63.85" y1="33.8833" x2="63.8799" y2="35.3453" gradientUnits="userSpaceOnUse">
<stop stop-color="#F41E3D"/>
<stop offset="1" stop-color="#D5122E"/>
</linearGradient>
<linearGradient id="paint9_linear" x1="23.7167" y1="33.8833" x2="23.7465" y2="35.3453" gradientUnits="userSpaceOnUse">
<stop stop-color="#F41E3D"/>
<stop offset="1" stop-color="#D5122E"/>
</linearGradient>
<linearGradient id="paint10_linear" x1="26.5833" y1="33.8833" x2="26.6132" y2="35.3453" gradientUnits="userSpaceOnUse">
<stop stop-color="#F41E3D"/>
<stop offset="1" stop-color="#D5122E"/>
</linearGradient>
<linearGradient id="paint11_linear" x1="29.45" y1="33.8833" x2="29.4798" y2="35.3453" gradientUnits="userSpaceOnUse">
<stop stop-color="#F41E3D"/>
<stop offset="1" stop-color="#D5122E"/>
</linearGradient>
<linearGradient id="paint12_linear" x1="32.3167" y1="33.8833" x2="32.3465" y2="35.3453" gradientUnits="userSpaceOnUse">
<stop stop-color="#F41E3D"/>
<stop offset="1" stop-color="#D5122E"/>
</linearGradient>
</defs>
</svg>
