<svg width="90" height="69" viewBox="0 0 90 69" fill="none" xmlns="http://www.w3.org/2000/svg">
<rect width="90" height="69" fill="black" fill-opacity="0"/>
<path d="M62.7273 13.6364C70.8004 13.6364 77.5926 19.5106 78.9271 27.3307C85.1421 27.9337 90 33.1722 90 39.5455C90 46.3235 84.5053 51.8182 77.7273 51.8182H69.5455C68.7923 51.8182 68.1818 51.2077 68.1818 50.4545C68.1818 49.7014 68.7923 49.0909 69.5455 49.0909H77.7273C82.9991 49.0909 87.2727 44.8173 87.2727 39.5455C87.2727 34.2736 82.9991 30 77.7273 30C77.0257 30 76.4386 29.4677 76.3701 28.7695C75.6827 21.7619 69.79 16.3636 62.7273 16.3636C61.4539 16.3636 60.2052 16.5378 59.0051 16.8775C58.3215 17.071 57.6039 16.7072 57.3559 16.0415C54.3979 8.10174 46.7962 2.72727 38.1818 2.72727C28.7897 2.72727 20.6703 9.11157 18.3683 18.0802C18.2186 18.6631 17.7045 19.0791 17.1031 19.1036C9.08559 19.4313 2.72727 26.0389 2.72727 34.0909C2.72727 42.3752 9.443 49.0909 17.7273 49.0909H20.4545C21.2077 49.0909 21.8182 49.7014 21.8182 50.4545C21.8182 51.2077 21.2077 51.8182 20.4545 51.8182H17.7273C7.93677 51.8182 0 43.8814 0 34.0909C0 24.9112 6.99176 17.3206 15.9935 16.4474C18.9192 6.7847 27.8734 0 38.1818 0C47.5314 0 55.8282 5.58627 59.4582 13.9632C60.526 13.7466 61.6197 13.6364 62.7273 13.6364Z" fill="url(#paint0_linear)"/>
<rect width="44" height="44" fill="black" fill-opacity="0" transform="translate(27 25)"/>
<rect width="7.81452" height="6.15188" fill="black" fill-opacity="0" transform="translate(39.5827 49.3611)"/>
<path d="M46.2749 49.5706L42.287 53.8438L40.8248 51.5737C40.6254 51.2398 40.2266 51.1731 39.8943 51.3734C39.5619 51.5737 39.4955 51.9743 39.6949 52.3081L41.6224 55.2459C41.7553 55.4462 41.8882 55.513 42.1541 55.513H42.2205C42.4199 55.513 42.5529 55.4462 42.6858 55.3127L47.2054 50.4386C47.4713 50.1715 47.4713 49.7709 47.139 49.5039C46.9396 49.3036 46.5408 49.3036 46.2749 49.5706Z" fill="url(#paint1_linear)"/>
<rect width="44" height="44" fill="black" fill-opacity="0" transform="translate(27 25)"/>
<path d="M59.7674 26.736C56.71 26.736 53.852 28.0046 51.858 30.0076V29.607C51.858 29.2064 51.5921 28.9393 51.1934 28.9393H49V28.4052C49 26.5357 47.4713 25 45.6103 25H40.8248C38.9637 25 37.435 26.5357 37.435 28.4052V28.8725H35.2417C34.8429 28.8725 34.577 29.1396 34.577 29.5402V31.1426H29.3927C28.0634 31.1426 27 32.2109 27 33.5463V66.5964C27 67.9317 28.0634 69 29.3927 69H56.9758C58.3051 69 59.3686 67.9317 59.3686 66.5964V49.2367C59.5015 49.2367 59.6344 49.2367 59.7674 49.2367C65.9486 49.2367 71 44.1624 71 37.953C71 31.7436 65.9486 26.736 59.7674 26.736ZM38.6979 28.4052C38.6979 27.2701 39.6284 26.3354 40.7583 26.3354H45.5438C46.6737 26.3354 47.6042 27.2701 47.6042 28.4052V28.8725H38.6979V28.4052ZM50.5287 30.2747V31.6768C50.0634 32.3445 49.6647 33.0789 49.3323 33.8801H35.8399V31.9439V30.2747C41.0906 30.2747 45.2115 30.2747 50.5287 30.2747ZM58.0393 66.6631C58.0393 67.264 57.574 67.7314 56.9758 67.7314H29.3927C28.7946 67.7314 28.3293 67.264 28.3293 66.6631V33.613C28.3293 33.0121 28.7946 32.5448 29.3927 32.5448H34.5106V34.481C34.5106 34.8816 34.7764 35.1487 35.1752 35.1487H48.9335C48.6677 36.0835 48.5347 37.0182 48.5347 38.0197C48.5347 43.6282 52.6556 48.302 58.0393 49.17V66.6631V66.6631ZM59.7674 47.9681C54.3172 47.9681 49.864 43.4947 49.864 38.0197C49.864 32.5448 54.3172 28.0713 59.7674 28.0713C65.2175 28.0713 69.6707 32.5448 69.6707 38.0197C69.6707 43.4947 65.2175 47.9681 59.7674 47.9681Z" fill="url(#paint2_linear)"/>
<rect width="1.32931" height="2.27011" fill="black" fill-opacity="0" transform="translate(59.0363 28.8058)"/>
<path d="M59.7009 31.0759C60.0997 31.0759 60.3656 30.8088 60.3656 30.4082V29.4735C60.3656 29.0729 60.0997 28.8058 59.7009 28.8058C59.3021 28.8058 59.0363 29.0729 59.0363 29.4735V30.3414C59.0363 30.7421 59.3021 31.0759 59.7009 31.0759Z" fill="url(#paint3_linear)"/>
<rect width="1.32931" height="2.20334" fill="black" fill-opacity="0" transform="translate(59.1692 45.0304)"/>
<path d="M59.8338 45.0304C59.4351 45.0304 59.1692 45.2975 59.1692 45.6981V46.5661C59.1692 46.9667 59.4351 47.2337 59.8338 47.2337C60.2326 47.2337 60.4985 46.9667 60.4985 46.5661V45.6981C60.4985 45.2975 60.2326 45.0304 59.8338 45.0304Z" fill="url(#paint4_linear)"/>
<rect width="2.19335" height="1.33536" fill="black" fill-opacity="0" transform="translate(66.7462 37.953)"/>
<path d="M68.2749 37.953H67.4109C67.0121 37.953 66.7462 38.2201 66.7462 38.6207C66.7462 39.0213 67.0121 39.2884 67.4109 39.2884H68.2749C68.6737 39.2884 68.9396 39.0213 68.9396 38.6207C68.9396 38.2201 68.6737 37.953 68.2749 37.953Z" fill="url(#paint5_linear)"/>
<rect width="2.19335" height="1.33536" fill="black" fill-opacity="0" transform="translate(50.5952 38.1532)"/>
<path d="M52.1239 38.1532H51.2598C50.861 38.1532 50.5952 38.4203 50.5952 38.8209C50.5952 39.2215 50.861 39.4886 51.2598 39.4886H52.1239C52.5226 39.4886 52.7885 39.2215 52.7885 38.8209C52.7885 38.4203 52.5226 38.1532 52.1239 38.1532Z" fill="url(#paint6_linear)"/>
<rect width="1.92749" height="1.93627" fill="black" fill-opacity="0" transform="translate(64.4199 31.2762)"/>
<path d="M65.5498 33.0122L66.148 32.4113C66.4139 32.1442 66.4139 31.7436 66.148 31.4765C65.8822 31.2095 65.4834 31.2095 65.2175 31.4765L64.6193 32.0775C64.3535 32.3445 64.3535 32.7451 64.6193 33.0122C64.8852 33.2793 65.284 33.2793 65.5498 33.0122Z" fill="url(#paint7_linear)"/>
<rect width="1.92749" height="1.99539" fill="black" fill-opacity="0" transform="translate(53.1873 42.8346)"/>
<path d="M53.9849 43.0272L53.3867 43.6949C53.1209 43.962 53.1209 44.3626 53.3867 44.6297C53.6526 44.8967 54.0514 44.8967 54.3172 44.6297L54.9154 44.0288C55.1813 43.7617 55.1813 43.3611 54.9154 43.094C54.6496 42.7602 54.2508 42.7602 53.9849 43.0272Z" fill="url(#paint8_linear)"/>
<rect width="1.92749" height="1.93627" fill="black" fill-opacity="0" transform="translate(64.5529 42.6935)"/>
<path d="M65.6828 42.8938C65.4169 42.6267 65.0181 42.6267 64.7523 42.8938C64.4864 43.1609 64.4864 43.5615 64.7523 43.8285L65.3504 44.4294C65.6163 44.6965 66.0151 44.6965 66.281 44.4294C66.5468 44.1624 66.5468 43.7618 66.281 43.4947L65.6828 42.8938Z" fill="url(#paint9_linear)"/>
<rect width="1.92749" height="1.93627" fill="black" fill-opacity="0" transform="translate(53.0544 31.4097)"/>
<path d="M53.852 33.1456C54.1178 33.4127 54.5166 33.4127 54.7825 33.1456C55.0483 32.8786 55.0483 32.478 54.7825 32.2109L54.1843 31.61C53.9184 31.3429 53.5196 31.3429 53.2538 31.61C52.9879 31.877 52.9879 32.2777 53.2538 32.5447L53.852 33.1456Z" fill="url(#paint10_linear)"/>
<rect width="6.71299" height="10.9499" fill="black" fill-opacity="0" transform="translate(57.7069 31.6768)"/>
<path d="M61.6284 38.8877C61.7613 38.6206 61.8278 38.3535 61.8278 38.0197C61.8278 37.085 61.2296 36.3505 60.432 36.0834V32.3444C60.432 31.9438 60.1662 31.6768 59.7674 31.6768C59.3686 31.6768 59.1027 31.9438 59.1027 32.3444V36.0834C58.3051 36.3505 57.7069 37.1517 57.7069 38.0197C57.7069 39.1548 58.6375 40.0895 59.7674 40.0895C60.0997 40.0895 60.432 40.0227 60.6979 39.8224L63.29 42.4264C63.5559 42.6934 63.9547 42.6934 64.2205 42.4264C64.4864 42.1593 64.4864 41.7587 64.2205 41.4916L61.6284 38.8877ZM59.0362 38.0197C59.0362 37.6191 59.3686 37.2853 59.7674 37.2853C60.1662 37.2853 60.4985 37.6191 60.4985 38.0197C60.4985 38.4203 60.1662 38.7541 59.7674 38.7541C59.3686 38.7541 59.0362 38.4203 59.0362 38.0197Z" fill="url(#paint11_linear)"/>
<rect width="6.58862" height="6.87709" fill="black" fill-opacity="0" transform="translate(30.855 40.0895)"/>
<path d="M36.8369 40.0895H31.5196C31.1208 40.0895 30.855 40.3565 30.855 40.7572V46.2989C30.855 46.6995 31.1208 46.9666 31.5196 46.9666H36.7704C37.1692 46.9666 37.435 46.6995 37.435 46.2989V40.7572C37.5015 40.4233 37.1692 40.0895 36.8369 40.0895ZM36.1722 45.6312H32.1843V41.4248H36.1057V45.6312H36.1722Z" fill="url(#paint12_linear)"/>
<rect width="6.58006" height="6.87709" fill="black" fill-opacity="0" transform="translate(39.8943 40.0895)"/>
<path d="M40.5589 46.9666H45.8097C46.2085 46.9666 46.4743 46.6995 46.4743 46.2989V40.7572C46.4743 40.3565 46.2085 40.0895 45.8097 40.0895H40.5589C40.1601 40.0895 39.8943 40.3565 39.8943 40.7572V46.2989C39.8943 46.6995 40.1601 46.9666 40.5589 46.9666ZM41.2236 41.4248H45.145V45.6312H41.2236V41.4248V41.4248Z" fill="url(#paint13_linear)"/>
<rect width="6.58862" height="6.87709" fill="black" fill-opacity="0" transform="translate(30.855 49.0364)"/>
<path d="M36.8369 49.0364H31.5196C31.1208 49.0364 30.855 49.3034 30.855 49.7041V55.2458C30.855 55.6464 31.1208 55.9135 31.5196 55.9135H36.7704C37.1692 55.9135 37.435 55.6464 37.435 55.2458V49.7041C37.5015 49.3034 37.1692 49.0364 36.8369 49.0364ZM36.1722 54.5781H32.1843V50.3717H36.1057V54.5781H36.1722Z" fill="url(#paint14_linear)"/>
<rect width="6.58862" height="6.87709" fill="black" fill-opacity="0" transform="translate(30.855 57.9833)"/>
<path d="M36.8369 57.9833H31.5196C31.1208 57.9833 30.855 58.2503 30.855 58.651V64.1927C30.855 64.5933 31.1208 64.8604 31.5196 64.8604H36.7704C37.1692 64.8604 37.435 64.5933 37.435 64.1927V58.651C37.5015 58.2503 37.1692 57.9833 36.8369 57.9833ZM36.1722 63.525H32.1843V59.3186H36.1057V63.525H36.1722Z" fill="url(#paint15_linear)"/>
<rect width="6.58006" height="6.87709" fill="black" fill-opacity="0" transform="translate(39.8943 57.9833)"/>
<path d="M45.8097 57.9833H40.5589C40.1601 57.9833 39.8943 58.2503 39.8943 58.651V64.1927C39.8943 64.5933 40.1601 64.8604 40.5589 64.8604H45.8097C46.2085 64.8604 46.4743 64.5933 46.4743 64.1927V58.651C46.4743 58.2503 46.2085 57.9833 45.8097 57.9833ZM45.145 63.525H41.2236V59.3186H45.145V63.525V63.525Z" fill="url(#paint16_linear)"/>
<rect width="6.58006" height="6.87709" fill="black" fill-opacity="0" transform="translate(49.3323 49.0364)"/>
<path d="M49.3323 49.7041V55.2458C49.3323 55.6464 49.5982 55.9135 49.997 55.9135H55.2477C55.6465 55.9135 55.9124 55.6464 55.9124 55.2458V49.7041C55.9124 49.3034 55.6465 49.0364 55.2477 49.0364H49.997C49.6647 49.0364 49.3323 49.3034 49.3323 49.7041ZM50.6616 50.3717H54.5831V54.5781H50.6616V50.3717Z" fill="url(#paint17_linear)"/>
<rect width="6.58006" height="6.87709" fill="black" fill-opacity="0" transform="translate(49.3988 57.9833)"/>
<path d="M55.3142 57.9833H50.0634C49.6646 57.9833 49.3988 58.2503 49.3988 58.651V64.1927C49.3988 64.5933 49.6646 64.8604 50.0634 64.8604H55.3142C55.713 64.8604 55.9788 64.5933 55.9788 64.1927V58.651C55.9788 58.2503 55.6465 57.9833 55.3142 57.9833ZM54.6495 63.525H50.7281V59.3186H54.6495V63.525Z" fill="url(#paint18_linear)"/>
<defs>
<linearGradient id="paint0_linear" x1="0" y1="0" x2="0.621212" y2="52.8684" gradientUnits="userSpaceOnUse">
<stop stop-color="#F41E3D"/>
<stop offset="1" stop-color="#D5122E"/>
</linearGradient>
<linearGradient id="paint1_linear" x1="39.5827" y1="49.3611" x2="39.6835" y2="55.6369" gradientUnits="userSpaceOnUse">
<stop stop-color="#F41E3D"/>
<stop offset="1" stop-color="#D5122E"/>
</linearGradient>
<linearGradient id="paint2_linear" x1="27" y1="25" x2="27.9159" y2="69.8793" gradientUnits="userSpaceOnUse">
<stop stop-color="#F41E3D"/>
<stop offset="1" stop-color="#D5122E"/>
</linearGradient>
<linearGradient id="paint3_linear" x1="59.0363" y1="28.8058" x2="59.1169" y2="31.1194" gradientUnits="userSpaceOnUse">
<stop stop-color="#F41E3D"/>
<stop offset="1" stop-color="#D5122E"/>
</linearGradient>
<linearGradient id="paint4_linear" x1="59.1692" y1="45.0304" x2="59.2452" y2="47.2761" gradientUnits="userSpaceOnUse">
<stop stop-color="#F41E3D"/>
<stop offset="1" stop-color="#D5122E"/>
</linearGradient>
<linearGradient id="paint5_linear" x1="66.7462" y1="37.953" x2="66.7631" y2="39.3154" gradientUnits="userSpaceOnUse">
<stop stop-color="#F41E3D"/>
<stop offset="1" stop-color="#D5122E"/>
</linearGradient>
<linearGradient id="paint6_linear" x1="50.5952" y1="38.1532" x2="50.6121" y2="39.5156" gradientUnits="userSpaceOnUse">
<stop stop-color="#F41E3D"/>
<stop offset="1" stop-color="#D5122E"/>
</linearGradient>
<linearGradient id="paint7_linear" x1="64.4199" y1="31.2762" x2="64.4604" y2="33.2512" gradientUnits="userSpaceOnUse">
<stop stop-color="#F41E3D"/>
<stop offset="1" stop-color="#D5122E"/>
</linearGradient>
<linearGradient id="paint8_linear" x1="53.1873" y1="42.8346" x2="53.2303" y2="44.8698" gradientUnits="userSpaceOnUse">
<stop stop-color="#F41E3D"/>
<stop offset="1" stop-color="#D5122E"/>
</linearGradient>
<linearGradient id="paint9_linear" x1="64.5529" y1="42.6935" x2="64.5933" y2="44.6684" gradientUnits="userSpaceOnUse">
<stop stop-color="#F41E3D"/>
<stop offset="1" stop-color="#D5122E"/>
</linearGradient>
<linearGradient id="paint10_linear" x1="53.0544" y1="31.4097" x2="53.0949" y2="33.3846" gradientUnits="userSpaceOnUse">
<stop stop-color="#F41E3D"/>
<stop offset="1" stop-color="#D5122E"/>
</linearGradient>
<linearGradient id="paint11_linear" x1="57.7069" y1="31.6768" x2="58.0785" y2="42.8378" gradientUnits="userSpaceOnUse">
<stop stop-color="#F41E3D"/>
<stop offset="1" stop-color="#D5122E"/>
</linearGradient>
<linearGradient id="paint12_linear" x1="30.855" y1="40.0895" x2="31.0044" y2="47.1037" gradientUnits="userSpaceOnUse">
<stop stop-color="#F41E3D"/>
<stop offset="1" stop-color="#D5122E"/>
</linearGradient>
<linearGradient id="paint13_linear" x1="39.8943" y1="40.0895" x2="40.0439" y2="47.1037" gradientUnits="userSpaceOnUse">
<stop stop-color="#F41E3D"/>
<stop offset="1" stop-color="#D5122E"/>
</linearGradient>
<linearGradient id="paint14_linear" x1="30.855" y1="49.0364" x2="31.0044" y2="56.0506" gradientUnits="userSpaceOnUse">
<stop stop-color="#F41E3D"/>
<stop offset="1" stop-color="#D5122E"/>
</linearGradient>
<linearGradient id="paint15_linear" x1="30.855" y1="57.9833" x2="31.0044" y2="64.9975" gradientUnits="userSpaceOnUse">
<stop stop-color="#F41E3D"/>
<stop offset="1" stop-color="#D5122E"/>
</linearGradient>
<linearGradient id="paint16_linear" x1="39.8943" y1="57.9833" x2="40.0439" y2="64.9975" gradientUnits="userSpaceOnUse">
<stop stop-color="#F41E3D"/>
<stop offset="1" stop-color="#D5122E"/>
</linearGradient>
<linearGradient id="paint17_linear" x1="49.3323" y1="49.0364" x2="49.4819" y2="56.0506" gradientUnits="userSpaceOnUse">
<stop stop-color="#F41E3D"/>
<stop offset="1" stop-color="#D5122E"/>
</linearGradient>
<linearGradient id="paint18_linear" x1="49.3988" y1="57.9833" x2="49.5484" y2="64.9975" gradientUnits="userSpaceOnUse">
<stop stop-color="#F41E3D"/>
<stop offset="1" stop-color="#D5122E"/>
</linearGradient>
</defs>
</svg>
