<svg width="90" height="70" viewBox="0 0 90 70" fill="none" xmlns="http://www.w3.org/2000/svg">
<rect width="90" height="69" fill="black" fill-opacity="0"/>
<path d="M62.7273 13.6364C70.8004 13.6364 77.5927 19.5106 78.9271 27.3307C85.1421 27.9337 90 33.1722 90 39.5455C90 46.3235 84.5053 51.8182 77.7273 51.8182H69.5455C68.7923 51.8182 68.1818 51.2077 68.1818 50.4545C68.1818 49.7014 68.7923 49.0909 69.5455 49.0909H77.7273C82.9991 49.0909 87.2727 44.8173 87.2727 39.5455C87.2727 34.2736 82.9991 30 77.7273 30C77.0257 30 76.4386 29.4677 76.3701 28.7695C75.6827 21.7619 69.79 16.3636 62.7273 16.3636C61.4539 16.3636 60.2052 16.5378 59.0051 16.8775C58.3215 17.071 57.6039 16.7072 57.3559 16.0415C54.3979 8.10174 46.7962 2.72727 38.1818 2.72727C28.7897 2.72727 20.6703 9.11157 18.3683 18.0802C18.2186 18.6631 17.7045 19.0791 17.1031 19.1036C9.08559 19.4313 2.72727 26.0389 2.72727 34.0909C2.72727 42.3752 9.443 49.0909 17.7273 49.0909H20.4545C21.2077 49.0909 21.8182 49.7014 21.8182 50.4545C21.8182 51.2077 21.2077 51.8182 20.4545 51.8182H17.7273C7.93677 51.8182 0 43.8814 0 34.0909C0 24.9112 6.99176 17.3206 15.9935 16.4474C18.9192 6.7847 27.8734 0 38.1818 0C47.5314 0 55.8282 5.58627 59.4582 13.9632C60.526 13.7466 61.6197 13.6364 62.7273 13.6364Z" fill="url(#paint0_linear)"/>
<path fill-rule="evenodd" clip-rule="evenodd" d="M40.5303 67.7778V62.8889H28.1105C26.3931 62.8889 25 61.5206 25 59.8332V43.9446C25 42.2567 26.393 40.8889 28.1105 40.8889H52.3333V39.0557C52.3333 37.3685 53.7246 36 55.4389 36H62.8944C64.6094 36 66 37.3685 66 39.0557V54.9443C66 56.6315 64.6088 58 62.8944 58H57.303V59.8332C57.303 61.521 55.9101 62.8889 54.1925 62.8889H41.7727V67.7778H45.5C45.8431 67.7778 46.1212 68.0514 46.1212 68.3889C46.1212 68.7264 45.8431 69 45.5 69H36.803C36.4599 69 36.1818 68.7264 36.1818 68.3889C36.1818 68.0514 36.4599 67.7778 36.803 67.7778H40.5303ZM53.5758 39.0557V54.9443C53.5758 55.9566 54.4102 56.7778 55.4389 56.7778H62.8944C63.9226 56.7778 64.7576 55.9565 64.7576 54.9443V39.0557C64.7576 38.0434 63.9231 37.2222 62.8944 37.2222H55.4389C54.4107 37.2222 53.5758 38.0435 53.5758 39.0557ZM28.1105 42.1111C27.0786 42.1111 26.2424 42.9322 26.2424 43.9446V59.8332C26.2424 60.8452 27.0788 61.6667 28.1105 61.6667H54.1925C55.2244 61.6667 56.0606 60.8455 56.0606 59.8332V58H55.4389C53.7239 58 52.3333 56.6315 52.3333 54.9443V42.1111H28.1105ZM59.1667 54.9444C58.4805 54.9444 57.9242 54.3972 57.9242 53.7222C57.9242 53.0472 58.4805 52.5 59.1667 52.5C59.8528 52.5 60.4091 53.0472 60.4091 53.7222C60.4091 54.3972 59.8528 54.9444 59.1667 54.9444Z" fill="url(#paint1_linear)" stroke="url(#paint2_linear)" stroke-width="0.5"/>
<defs>
<linearGradient id="paint0_linear" x1="0" y1="0" x2="0.621212" y2="52.8684" gradientUnits="userSpaceOnUse">
<stop stop-color="#F41E3D"/>
<stop offset="1" stop-color="#D5122E"/>
</linearGradient>
<linearGradient id="paint1_linear" x1="25" y1="36" x2="25.553" y2="69.6644" gradientUnits="userSpaceOnUse">
<stop stop-color="#F41E3D"/>
<stop offset="1" stop-color="#D5122E"/>
</linearGradient>
<linearGradient id="paint2_linear" x1="25" y1="36" x2="25.553" y2="69.6644" gradientUnits="userSpaceOnUse">
<stop stop-color="#F41E3D"/>
<stop offset="1" stop-color="#D5122E"/>
</linearGradient>
</defs>
</svg>
