<svg width="90" height="75" viewBox="0 0 90 75" fill="none" xmlns="http://www.w3.org/2000/svg">
<rect width="90" height="74.1553" fill="black" fill-opacity="0"/>
<path d="M62.7273 13.6364C70.8004 13.6364 77.5927 19.5106 78.9271 27.3307C85.1421 27.9337 90 33.1722 90 39.5455C90 46.3235 84.5053 51.8182 77.7273 51.8182H69.5455C68.7923 51.8182 68.1818 51.2077 68.1818 50.4545C68.1818 49.7014 68.7923 49.0909 69.5455 49.0909H77.7273C82.9991 49.0909 87.2727 44.8173 87.2727 39.5455C87.2727 34.2736 82.9991 30 77.7273 30C77.0257 30 76.4386 29.4677 76.3701 28.7695C75.6827 21.7619 69.79 16.3636 62.7273 16.3636C61.4539 16.3636 60.2052 16.5378 59.0051 16.8775C58.3215 17.071 57.6039 16.7072 57.3559 16.0415C54.3979 8.10174 46.7962 2.72727 38.1818 2.72727C28.7897 2.72727 20.6703 9.11157 18.3683 18.0802C18.2186 18.6631 17.7045 19.0791 17.1031 19.1036C9.08559 19.4313 2.72727 26.0389 2.72727 34.0909C2.72727 42.3752 9.443 49.0909 17.7273 49.0909H20.4545C21.2077 49.0909 21.8182 49.7014 21.8182 50.4545C21.8182 51.2077 21.2077 51.8182 20.4545 51.8182H17.7273C7.93677 51.8182 0 43.8814 0 34.0909C0 24.9112 6.99176 17.3206 15.9935 16.4474C18.9192 6.7847 27.8734 0 38.1818 0C47.5314 0 55.8282 5.58627 59.4582 13.9632C60.526 13.7466 61.6197 13.6364 62.7273 13.6364Z" fill="url(#paint0_linear)"/>
<path d="M61.736 51.2234C59.7713 51.2234 58.029 52.2047 56.9752 53.7139L48.767 49.9115C48.9365 49.3089 49.0265 48.6796 49.0265 48.0237C49.0265 45.3572 47.5331 43.048 45.346 41.8854L48.3486 33.0433C48.5711 33.0753 48.7988 33.0913 49.0265 33.0913C51.955 33.0913 54.3221 30.7021 54.3221 27.7583C54.3221 24.8145 51.955 22.4254 49.0265 22.4254C46.1033 22.4254 43.7309 24.8145 43.7309 27.7583C43.7309 29.7155 44.7794 31.4328 46.3469 32.3554L43.3443 41.1974C42.9524 41.1281 42.5499 41.0908 42.1422 41.0908C40.0557 41.0908 38.1863 42.0241 36.926 43.5013L26.5942 37.0324C26.716 36.6324 26.7849 36.2004 26.7849 35.7578C26.7849 33.4006 24.889 31.4914 22.5484 31.4914C20.2077 31.4914 18.3119 33.4006 18.3119 35.7578C18.3119 38.115 20.2077 40.0242 22.5484 40.0242C23.6816 40.0242 24.709 39.5762 25.4715 38.8456L35.8033 45.3145C35.4538 46.1464 35.2579 47.0637 35.2579 48.0237C35.2579 49.1649 35.5332 50.2475 36.0204 51.1968L26.5466 58.1616C25.5033 57.1644 24.0947 56.5564 22.5484 56.5564C19.3339 56.5564 16.7232 59.1802 16.7232 62.4227C16.7232 65.6651 19.3339 68.289 22.5484 68.289C25.7681 68.289 28.3735 65.6651 28.3735 62.4227C28.3735 61.5108 28.167 60.6521 27.8016 59.8842L37.2755 52.9247C38.467 54.1246 40.0981 54.892 41.9092 54.9512L43.2384 65.9206C41.6656 66.5398 40.5535 68.081 40.5535 69.8889C40.5535 72.246 42.4493 74.1552 44.79 74.1552C47.1306 74.1552 49.0265 72.246 49.0265 69.8889C49.0265 67.7237 47.4219 65.9318 45.346 65.6598L44.0168 54.6899C45.6214 54.2419 46.9877 53.2126 47.8826 51.8474L56.0908 55.6498C55.9743 56.1084 55.9108 56.5938 55.9108 57.0897C55.9108 60.3322 58.5215 62.956 61.736 62.956C64.9557 62.956 67.5612 60.3322 67.5612 57.0897C67.5612 53.8473 64.9557 51.2234 61.736 51.2234ZM45.8491 27.7583C45.8491 25.9931 47.2736 24.5585 49.0265 24.5585C50.7793 24.5585 52.2039 25.9931 52.2039 27.7583C52.2039 29.5129 50.7952 30.9421 49.0583 30.9581H49.0265C48.2798 30.9581 47.5967 30.7021 47.0565 30.2648C46.3204 29.6835 45.8491 28.7769 45.8491 27.7583ZM24.6613 35.8218C24.6401 36.6111 24.1953 37.2884 23.5439 37.6403C23.2474 37.8003 22.9085 37.891 22.5484 37.891C21.378 37.891 20.4301 36.9364 20.4301 35.7578C20.4301 34.5792 21.378 33.6246 22.5484 33.6246C23.7187 33.6246 24.6666 34.5792 24.6666 35.7578C24.6666 35.7791 24.6666 35.8005 24.6613 35.8218ZM22.5484 66.1558C20.5042 66.1558 18.8414 64.4812 18.8414 62.4227C18.8414 60.3642 20.5042 58.6896 22.5484 58.6896C23.3904 58.6896 24.1635 58.9723 24.7884 59.4522C25.3603 59.8847 25.7999 60.4868 26.0435 61.1801C26.1812 61.5694 26.2553 61.9854 26.2553 62.4227C26.2553 64.4812 24.5925 66.1558 22.5484 66.1558ZM44.79 67.7557C45.0865 67.7557 45.3672 67.8197 45.6214 67.9317C46.3787 68.2516 46.9082 69.0089 46.9082 69.8889C46.9082 71.0675 45.9603 72.0221 44.79 72.0221C43.6197 72.0221 42.6717 71.0675 42.6717 69.8889C42.6717 69.1956 43.0001 68.577 43.5137 68.1876C43.8685 67.9157 44.3134 67.7557 44.79 67.7557ZM46.8076 49.0049C46.6599 49.7195 46.3527 50.3808 45.9232 50.9408C45.3725 51.6661 44.6205 52.226 43.7573 52.5354C43.2543 52.722 42.7088 52.8233 42.1422 52.8233C41.978 52.8233 41.8138 52.8127 41.6497 52.7967C40.6488 52.6953 39.738 52.274 39.0178 51.6447C38.4829 51.1754 38.0487 50.5835 37.7627 49.9169C37.5138 49.3356 37.3761 48.6956 37.3761 48.0237C37.3761 47.4744 37.4661 46.9517 37.6409 46.4611C37.8739 45.7731 38.2605 45.1545 38.7583 44.6479C39.6215 43.7679 40.8183 43.224 42.1422 43.224C42.3116 43.224 42.4811 43.2346 42.6453 43.2506C43.3761 43.3253 44.0539 43.5706 44.647 43.9439C46.0027 44.7919 46.9082 46.3011 46.9082 48.0237C46.9082 48.3596 46.8712 48.6903 46.8076 49.0049ZM61.736 60.8228C59.6919 60.8228 58.029 59.1482 58.029 57.0897C58.029 56.9137 58.0396 56.7377 58.0714 56.5671C58.1667 55.8311 58.4845 55.1592 58.9558 54.6259C59.6336 53.8473 60.6292 53.3566 61.736 53.3566C63.7801 53.3566 65.4429 55.0312 65.4429 57.0897C65.4429 59.1482 63.7801 60.8228 61.736 60.8228Z" fill="url(#paint1_linear)"/>
<defs>
<linearGradient id="paint0_linear" x1="0" y1="0" x2="0.621212" y2="52.8684" gradientUnits="userSpaceOnUse">
<stop stop-color="#F41E3D"/>
<stop offset="1" stop-color="#D5122E"/>
</linearGradient>
<linearGradient id="paint1_linear" x1="16.7232" y1="22.4254" x2="17.8189" y2="75.1882" gradientUnits="userSpaceOnUse">
<stop stop-color="#F41E3D"/>
<stop offset="1" stop-color="#D5122E"/>
</linearGradient>
</defs>
</svg>
