<svg width="90" height="66" viewBox="0 0 90 66" fill="none" xmlns="http://www.w3.org/2000/svg">
<rect width="90" height="66" fill="black" fill-opacity="0"/>
<path d="M62.7273 13.6364C70.8004 13.6364 77.5927 19.5106 78.9271 27.3307C85.1421 27.9337 90 33.1722 90 39.5455C90 46.3235 84.5053 51.8182 77.7273 51.8182H69.5455C68.7923 51.8182 68.1818 51.2077 68.1818 50.4545C68.1818 49.7014 68.7923 49.0909 69.5455 49.0909H77.7273C82.9991 49.0909 87.2727 44.8173 87.2727 39.5455C87.2727 34.2736 82.9991 30 77.7273 30C77.0257 30 76.4386 29.4677 76.3701 28.7695C75.6827 21.7619 69.79 16.3636 62.7273 16.3636C61.4539 16.3636 60.2052 16.5378 59.0051 16.8775C58.3215 17.071 57.6039 16.7072 57.3559 16.0415C54.3979 8.10174 46.7962 2.72727 38.1818 2.72727C28.7897 2.72727 20.6703 9.11157 18.3683 18.0802C18.2186 18.6631 17.7045 19.0791 17.1031 19.1036C9.08559 19.4313 2.72727 26.0389 2.72727 34.0909C2.72727 42.3752 9.443 49.0909 17.7273 49.0909H20.4545C21.2077 49.0909 21.8182 49.7014 21.8182 50.4545C21.8182 51.2077 21.2077 51.8182 20.4545 51.8182H17.7273C7.93677 51.8182 0 43.8814 0 34.0909C0 24.9112 6.99176 17.3206 15.9935 16.4474C18.9192 6.7847 27.8734 0 38.1818 0C47.5314 0 55.8282 5.58627 59.4582 13.9632C60.526 13.7466 61.6197 13.6364 62.7273 13.6364Z" fill="url(#paint0_linear)"/>
<rect width="40" height="40" fill="black" fill-opacity="0" transform="translate(25 26)"/>
<path d="M64.9908 41.1624C64.9908 40.3829 64.659 39.6329 64.081 39.1053C63.5039 38.5786 62.7225 38.3205 61.9522 38.3923C60.5449 38.5255 59.4427 39.7902 59.4427 41.2715L59.4431 46.4102C59.078 46.531 58.7435 46.7226 58.476 46.9918C58.4209 47.0426 57.1198 48.2422 56.8186 48.5497C56.6098 48.7627 56.3979 48.9838 56.182 49.2088C55.126 50.3113 54.0336 51.4512 52.7827 52.1874C52.4912 52.3581 52.2056 52.5159 51.927 52.6692C50.4917 53.4606 49.1359 54.2084 48.2456 56.0462C47.4753 57.6269 47.143 59.5244 47.1994 62.016L47.0448 65.2054C47.024 65.6377 47.3674 65.9995 47.7987 65.9995H47.7992C48.2016 65.9995 48.5335 65.6827 48.553 65.2789L48.7085 62.0623C48.7085 62.0458 48.709 62.0289 48.709 62.0124C48.6548 59.7566 48.9382 58.0725 49.6023 56.7098C50.2838 55.3033 51.3295 54.7267 52.6538 53.9963C52.9439 53.8367 53.2411 53.6723 53.545 53.4941C54.9772 52.6514 56.1953 51.3799 57.2704 50.2578C57.4818 50.0372 57.6897 49.8202 57.895 49.6108C58.1229 49.3777 59.1286 48.4459 59.52 48.0845C59.9052 47.6985 60.5835 47.6985 60.9691 48.0845C61.1619 48.2779 61.2681 48.5368 61.2685 48.8135C61.2685 49.0898 61.1632 49.3483 60.9718 49.5404L55.2233 55.3069C54.975 55.556 54.9306 55.9442 55.1162 56.2432C55.158 56.3105 55.2149 56.396 55.2975 56.4865C55.5218 56.7321 55.8683 56.8172 56.1718 56.6826C56.4516 56.5587 56.5978 56.3096 56.6164 56.0507L56.9421 55.724L61.9367 50.7137C62.7261 49.9218 62.9926 48.7097 62.5133 47.6981C62.1814 46.998 61.6066 46.5742 60.9522 46.3835L60.9518 41.272C60.9518 40.5634 61.4533 39.9609 62.093 39.9003C62.1344 39.8963 62.1752 39.8945 62.2161 39.8945C62.5306 39.8945 62.8278 40.0099 63.0641 40.2256C63.3285 40.4672 63.4804 40.8085 63.4804 41.1628V53.0092C63.4804 53.31 63.3827 53.6389 63.1512 53.7962L62.7794 54.1692L56.6626 60.3061C56.4299 60.5391 56.2193 60.7446 56.0047 60.8841C55.8062 61.0133 55.66 61.2089 55.6289 61.4442L55.1398 65.143C55.0798 65.5967 55.4317 65.9995 55.8879 65.9995C56.2664 65.9995 56.5862 65.7183 56.636 65.3418L57.082 61.9701C57.3374 61.7695 57.5565 61.5498 57.7297 61.3765L64.2258 54.8599C64.4075 54.6777 64.5954 54.4887 64.7714 54.2712C64.9308 54.0738 65.0361 54.048 64.973 53.8203C65.0206 53.6322 64.9908 53.2111 64.9908 53.0088V41.1624Z" fill="url(#paint1_linear)"/>
<path d="M25.2287 54.2717C25.4086 54.4941 25.6067 54.6924 25.7808 54.8671L32.2703 61.3774C32.4431 61.5508 32.6626 61.7705 32.918 61.9706L33.3636 65.3423C33.4133 65.7188 33.7332 66 34.1117 66C34.5679 66 34.9198 65.5972 34.8598 65.1435L34.3707 61.4447C34.3396 61.2094 34.1934 61.0138 33.9948 60.8846C33.7803 60.7446 33.5697 60.5396 33.3369 60.3066L27.2197 54.1692L26.8479 53.7958C26.6165 53.6385 26.5187 53.31 26.5187 53.0092V41.1624C26.5187 40.8081 26.6707 40.4668 26.935 40.2252C27.1713 40.0095 27.4685 39.8941 27.7826 39.8941C27.8235 39.8941 27.8643 39.8959 27.9056 39.8999C28.5458 39.9605 29.0473 40.563 29.0473 41.2716V46.3831C28.393 46.5733 27.8177 46.9976 27.4863 47.6977C27.0069 48.7093 27.2735 49.9214 28.0634 50.7133L33.0575 55.7232L33.3649 56.0316C33.3756 56.2677 33.4973 56.4999 33.7265 56.6465C34.0308 56.8413 34.42 56.7767 34.6723 56.5177C34.77 56.4175 34.8367 56.3186 34.8838 56.2423C35.0695 55.9433 35.0255 55.5552 34.7767 55.3061L29.0282 49.5408C28.8363 49.3483 28.7315 49.0903 28.7315 48.814C28.7319 48.5373 28.8386 48.2784 29.0309 48.0849C29.4161 47.699 30.0718 47.6767 30.5027 48.1068C30.8709 48.4464 31.8767 49.3786 32.1055 49.6117C32.3103 49.8207 32.5182 50.0377 32.7301 50.2588C33.8047 51.3804 35.0224 52.6514 36.4555 53.4945C36.7585 53.6724 37.0561 53.8363 37.3457 53.9959C38.6696 54.7263 39.7158 55.3029 40.3977 56.7107C41.0614 58.0717 41.3448 59.7562 41.2906 62.012C41.2906 62.0285 41.291 62.0454 41.291 62.0619L41.4465 65.2785C41.4661 65.6818 41.7979 65.9991 42.2004 65.9991C42.6318 65.9991 42.9752 65.6373 42.9543 65.2055L42.7997 62.0156C42.8565 59.524 42.5238 57.6265 41.7539 56.0472C40.8632 54.2076 39.5074 53.4602 38.0721 52.6688C37.7935 52.515 37.5079 52.3577 37.2174 52.1875C35.9655 51.4508 34.8736 50.3109 33.8176 49.2088C33.6017 48.9834 33.3898 48.7619 33.181 48.5493C32.8789 48.2409 31.5786 47.0422 31.5462 47.0132C31.2645 46.7307 30.9243 46.5337 30.556 46.4111V41.272C30.556 39.7907 29.4538 38.526 28.0465 38.3928C26.7897 38.2747 25.5472 39.0233 25.1225 40.362C25.0416 40.6196 25.0092 40.8919 25.0092 41.1624V53.0088C25.0092 53.2111 24.9794 53.6327 25.027 53.8203C24.9643 54.0485 25.0692 54.0743 25.2287 54.2717Z" fill="url(#paint2_linear)"/>
<path d="M54.1935 35.6365C55.3872 34.9448 55.7977 33.4083 55.1087 32.2104L54.4956 31.1449C54.0505 30.3713 53.2202 29.8904 52.3295 29.8904C51.8924 29.8904 51.4606 30.0067 51.0808 30.2264L50.6756 30.4608C50.6623 30.4684 50.6507 30.4702 50.6432 30.4702C49.8746 29.849 49.0364 29.3637 48.1319 29.0219C48.1274 29.0201 48.1137 29.0032 48.1137 28.9764V28.508C48.1137 27.1252 46.992 26 45.6135 26H44.3869C43.0085 26 41.8868 27.1252 41.8868 28.508V28.9769C41.8868 29.004 41.873 29.0205 41.8685 29.0223C40.9641 29.3641 40.1258 29.8494 39.3768 30.4648C39.3657 30.4671 39.3573 30.468 39.3506 30.468C39.3386 30.468 39.3315 30.4653 39.3248 30.4613L38.9201 30.2269C38.5403 30.0072 38.1085 29.8909 37.6714 29.8909C36.7802 29.8909 35.9499 30.3713 35.5048 31.1453L34.8918 32.2109C34.2027 33.4083 34.6132 34.9453 35.8069 35.6365L36.2072 35.8686C36.2285 35.8811 36.2382 35.8998 36.2365 35.911C36.1574 36.3883 36.1174 36.874 36.1174 37.3548C36.1174 37.8357 36.1574 38.3214 36.2365 38.7987C36.2382 38.8099 36.2289 38.829 36.2072 38.8411L35.8069 39.0732C34.6132 39.7649 34.2027 41.3014 34.8918 42.4988L35.5048 43.5644C35.9499 44.338 36.7802 44.8188 37.6709 44.8188C38.1081 44.8188 38.5399 44.7025 38.9197 44.4828L39.3248 44.2484C39.3382 44.2408 39.3497 44.2391 39.3573 44.2391C40.1258 44.8603 40.9641 45.3456 41.8685 45.6874C41.873 45.6892 41.8868 45.7061 41.8868 45.7328V46.2012C41.8868 47.584 43.0085 48.7093 44.3869 48.7093H45.6135C46.992 48.7093 48.1137 47.584 48.1137 46.2012V45.7328C48.1137 45.7057 48.1274 45.6892 48.1319 45.6874C49.0359 45.3456 49.8742 44.8603 50.6236 44.2449C50.6347 44.2431 50.6432 44.2422 50.6498 44.2422C50.6618 44.2422 50.6689 44.2449 50.6756 44.2489L51.0803 44.4833C51.4601 44.703 51.8919 44.8193 52.3291 44.8193C53.2202 44.8193 54.0505 44.3384 54.4956 43.5648L55.1087 42.4993C55.7977 41.3019 55.3872 39.7649 54.1935 39.0737L53.7933 38.8415C53.772 38.829 53.7622 38.8103 53.764 38.7992C53.843 38.3219 53.883 37.8361 53.883 37.3553C53.883 36.8745 53.843 36.3887 53.764 35.9114C53.7622 35.8998 53.7715 35.8811 53.7933 35.8686L54.1935 35.6365ZM53.5179 34.4622L53.1176 34.6944C52.6134 34.9863 52.3357 35.5567 52.4312 36.1329C52.497 36.5304 52.5321 36.9386 52.5321 37.3548C52.5321 37.7711 52.497 38.1793 52.4312 38.5768C52.3362 39.1526 52.6138 39.723 53.1176 40.0153L53.5179 40.2475C54.0674 40.5657 54.2557 41.2707 53.9385 41.8219L53.3255 42.8874C53.1127 43.2573 52.7267 43.4641 52.3295 43.4641C52.1345 43.4641 51.9372 43.4142 51.756 43.3095L51.3513 43.0751C51.1309 42.9476 50.8866 42.8843 50.6432 42.8843C50.3304 42.8843 50.0199 42.989 49.7671 43.1967C49.1399 43.7123 48.4282 44.1277 47.6557 44.4195C47.1137 44.6245 46.7627 45.1526 46.7627 45.7337V46.2021C46.7627 46.8385 46.2483 47.3545 45.6139 47.3545H44.3874C43.753 47.3545 43.2386 46.8385 43.2386 46.2021V45.7337C43.2386 45.1526 42.8876 44.6245 42.3457 44.4195C41.5731 44.1277 40.8615 43.7123 40.2342 43.1967C39.9814 42.989 39.6709 42.8843 39.3581 42.8843C39.1151 42.8843 38.8704 42.9476 38.65 43.0751L38.2449 43.3095C38.0641 43.4142 37.8664 43.4641 37.6718 43.4641C37.2747 43.4641 36.8886 43.2573 36.6758 42.8879L36.0623 41.8219C35.7451 41.2707 35.9335 40.5661 36.4826 40.2475L36.8828 40.0153C37.3871 39.7234 37.6647 39.153 37.5692 38.5768C37.5034 38.1793 37.4683 37.7711 37.4683 37.3548C37.4683 36.9386 37.5034 36.5304 37.5692 36.1329C37.6647 35.5571 37.3866 34.9867 36.8828 34.6944L36.4826 34.4622C35.9331 34.144 35.7451 33.439 36.0623 32.8878L36.6754 31.8223C36.8882 31.4524 37.2742 31.2456 37.6714 31.2456C37.8664 31.2456 38.0636 31.2955 38.2449 31.4002L38.6496 31.6346C38.8699 31.7621 39.1143 31.8254 39.3577 31.8254C39.6704 31.8254 39.981 31.7207 40.2337 31.513C40.861 30.9974 41.5727 30.582 42.3452 30.2902C42.8872 30.0852 43.2381 29.5571 43.2381 28.976V28.5076C43.2381 27.8712 43.7526 27.3552 44.3869 27.3552H45.6135C46.2479 27.3552 46.7623 27.8712 46.7623 28.5076V28.9769C46.7623 29.558 47.1132 30.0861 47.6552 30.291C48.4277 30.5829 49.1394 30.9983 49.7667 31.5139C50.0195 31.7215 50.33 31.8263 50.6427 31.8263C50.8857 31.8263 51.1305 31.763 51.3508 31.6355L51.756 31.4011C51.9368 31.2964 52.1345 31.2465 52.3291 31.2465C52.7262 31.2465 53.1123 31.4533 53.3251 31.8227L53.9385 32.8887C54.2557 33.4395 54.0674 34.144 53.5179 34.4622Z" fill="url(#paint3_linear)"/>
<path d="M45 32.9502C42.5789 32.9502 40.6096 34.9262 40.6096 37.3549C40.6096 39.7836 42.5789 41.7591 45 41.7591C47.4211 41.7591 49.3909 39.7832 49.3909 37.3544C49.3909 34.9257 47.4211 32.9502 45 32.9502ZM45 40.4035C43.3212 40.4035 41.9605 39.0385 41.9605 37.3544C41.9605 35.6704 43.3212 34.3054 45 34.3054C46.6788 34.3054 48.0395 35.6704 48.0395 37.3544C48.0395 39.0385 46.6788 40.4035 45 40.4035Z" fill="url(#paint4_linear)"/>
<defs>
<linearGradient id="paint0_linear" x1="0" y1="0" x2="0.621212" y2="52.8684" gradientUnits="userSpaceOnUse">
<stop stop-color="#F41E3D"/>
<stop offset="1" stop-color="#D5122E"/>
</linearGradient>
<linearGradient id="paint1_linear" x1="47.0439" y1="38.3805" x2="47.9277" y2="66.5355" gradientUnits="userSpaceOnUse">
<stop stop-color="#F41E3D"/>
<stop offset="1" stop-color="#D5122E"/>
</linearGradient>
<linearGradient id="paint2_linear" x1="25" y1="38.3806" x2="25.8839" y2="66.5359" gradientUnits="userSpaceOnUse">
<stop stop-color="#F41E3D"/>
<stop offset="1" stop-color="#D5122E"/>
</linearGradient>
<linearGradient id="paint3_linear" x1="34.5575" y1="26" x2="35.0714" y2="49.1613" gradientUnits="userSpaceOnUse">
<stop stop-color="#F41E3D"/>
<stop offset="1" stop-color="#D5122E"/>
</linearGradient>
<linearGradient id="paint4_linear" x1="40.6096" y1="32.9502" x2="40.7935" y2="41.9351" gradientUnits="userSpaceOnUse">
<stop stop-color="#F41E3D"/>
<stop offset="1" stop-color="#D5122E"/>
</linearGradient>
</defs>
</svg>
