<svg width="90" height="62" viewBox="0 0 90 62" fill="none" xmlns="http://www.w3.org/2000/svg">
<rect width="90" height="62" fill="black" fill-opacity="0"/>
<path d="M62.7273 13.6364C70.8004 13.6364 77.5927 19.5106 78.9271 27.3307C85.1421 27.9337 90 33.1722 90 39.5455C90 46.3235 84.5053 51.8182 77.7273 51.8182H69.5455C68.7923 51.8182 68.1818 51.2077 68.1818 50.4545C68.1818 49.7014 68.7923 49.0909 69.5455 49.0909H77.7273C82.9991 49.0909 87.2727 44.8173 87.2727 39.5455C87.2727 34.2736 82.9991 30 77.7273 30C77.0257 30 76.4386 29.4677 76.3701 28.7695C75.6827 21.7619 69.79 16.3636 62.7273 16.3636C61.4539 16.3636 60.2052 16.5378 59.0051 16.8775C58.3215 17.071 57.6039 16.7072 57.3559 16.0415C54.3979 8.10174 46.7962 2.72727 38.1818 2.72727C28.7897 2.72727 20.6703 9.11157 18.3683 18.0802C18.2186 18.6631 17.7045 19.0791 17.1031 19.1036C9.08559 19.4313 2.72727 26.0389 2.72727 34.0909C2.72727 42.3752 9.443 49.0909 17.7273 49.0909H20.4545C21.2077 49.0909 21.8182 49.7014 21.8182 50.4545C21.8182 51.2077 21.2077 51.8182 20.4545 51.8182H17.7273C7.93677 51.8182 0 43.8814 0 34.0909C0 24.9112 6.99176 17.3206 15.9935 16.4474C18.9192 6.7847 27.8734 0 38.1818 0C47.5314 0 55.8282 5.58627 59.4582 13.9632C60.526 13.7466 61.6197 13.6364 62.7273 13.6364Z" fill="url(#paint0_linear)"/>
<rect width="42" height="42" fill="black" fill-opacity="0" transform="translate(24 20)"/>
<path d="M58.2725 20.0031C58.0416 20.0238 57.8196 20.1321 57.6611 20.3014L50.9813 27.46C50.7259 27.73 50.6511 28.1561 50.7994 28.497C50.9477 28.8379 51.3105 29.0736 51.6821 29.0706C53.0213 29.0622 53.6541 29.0683 54.5449 29.0706V41.4639C54.5378 41.9681 54.995 42.4319 55.4992 42.4319C56.0033 42.4319 56.4605 41.9681 56.4534 41.4639V28.1162C56.4534 27.6164 55.9988 27.1617 55.4992 27.1617C54.7838 27.1617 54.3208 27.1631 53.8739 27.1617L58.3619 22.3446L62.8499 27.1617C62.4034 27.1614 61.9486 27.1668 61.2247 27.1617C60.7251 27.1617 60.2705 27.6164 60.2704 28.1162V60.0911H56.4534V55.7512C56.4605 55.247 56.0033 54.7831 55.4992 54.7831C54.995 54.7831 54.5378 55.247 54.5449 55.7512V61.0455C54.5449 61.5453 54.9995 62 55.4992 62H61.2247C61.7243 62 62.1789 61.5453 62.1789 61.0455V29.0706C63.0834 29.0745 63.7232 29.0771 65.0417 29.0706C65.4134 29.0735 65.7761 28.8379 65.9244 28.497C66.0727 28.1561 65.998 27.73 65.7425 27.46L59.0478 20.3014C58.8518 20.0924 58.558 19.9793 58.2725 20.0031ZM44.9129 28.5934C44.7166 28.6102 44.5262 28.6895 44.3761 28.8171L37.7112 34.544C37.4122 34.7953 37.2946 35.2411 37.4307 35.6073C37.5667 35.9735 37.9469 36.2342 38.3374 36.2292C39.6757 36.2227 40.2966 36.2273 41.1853 36.2292V37.1688C41.1754 37.6722 41.6286 38.1381 42.132 38.142C42.6355 38.1458 43.0958 37.6872 43.0938 37.1836V35.2747C43.0938 34.7749 42.6392 34.3203 42.1396 34.3202C41.5945 34.3202 41.2613 34.3212 40.902 34.3202L45.0023 30.8006L49.1176 34.3203C48.7552 34.3193 48.4336 34.3231 47.88 34.3203C47.3804 34.3124 46.9186 34.76 46.9108 35.2598V37.1688C46.901 37.6722 47.3541 38.1381 47.8576 38.142C48.361 38.1458 48.8214 37.6872 48.8194 37.1836V36.2292C49.7251 36.232 50.3767 36.2341 51.697 36.2292C52.0851 36.2282 52.459 35.9651 52.5914 35.6002C52.7237 35.2353 52.6054 34.7937 52.3084 34.5439L45.6286 28.8171C45.4332 28.6503 45.1684 28.5675 44.9129 28.5934V28.5934ZM31.5384 35.752C31.3472 35.7717 31.1626 35.8508 31.0165 35.9757L24.3367 41.7025C24.0377 41.9539 23.9202 42.3997 24.0562 42.7658C24.1923 43.1319 24.5724 43.3927 24.9629 43.3877C26.3037 43.3829 26.9349 43.3877 27.8257 43.3877V61.0455C27.8257 61.5453 28.2803 62 28.78 62H34.5055C35.0051 62 35.4597 61.5453 35.4598 61.0455V53.887C35.4669 53.3827 35.0097 52.9189 34.5055 52.9189C34.0013 52.9189 33.5441 53.3827 33.5512 53.887V60.0911H29.7342V42.4333C29.7342 41.9335 29.2796 41.4789 28.78 41.4788H27.5275L31.6427 37.9443L33.8942 39.8234C34.2806 40.1436 34.9235 40.0832 35.2436 39.6966C35.5636 39.3101 35.5033 38.6671 35.1168 38.3469L32.2391 35.9607C32.0451 35.8029 31.7872 35.7261 31.5384 35.752ZM45.0023 39.5698C40.0069 39.5698 35.9369 43.6408 35.9369 48.6374C35.9369 53.6339 40.0069 57.7049 45.0023 57.7049C49.9977 57.7049 54.0678 53.6339 54.0678 48.6374C54.0678 43.6408 49.9977 39.5698 45.0023 39.5698ZM45.0023 41.4788C48.9663 41.4788 52.1592 44.6725 52.1592 48.6374C52.1592 52.6022 48.9663 55.7959 45.0023 55.7959C41.0384 55.7959 37.8454 52.6022 37.8454 48.6374C37.8454 44.6725 41.0384 41.4788 45.0023 41.4788ZM44.898 43.3728C44.4291 43.4244 44.0379 43.8705 44.0481 44.3422V44.4914C43.591 44.6036 43.1806 44.7667 42.8254 44.9984C42.2449 45.3772 41.7854 45.9325 41.6922 46.6389C41.5991 47.3454 41.9329 48.0769 42.4974 48.5628C43.0619 49.0487 43.8391 49.3695 44.8383 49.562C45.6152 49.7118 46.0792 49.9669 46.2846 50.1436C46.3797 50.2254 46.4225 50.2751 46.4407 50.3067C46.4655 50.3568 46.4447 50.3884 46.4366 50.4016C46.4125 50.4519 46.3447 50.5486 46.1653 50.6656C45.934 50.8166 45.5381 50.9761 45.005 51.02C44.9545 51.0267 44.8973 51.02 44.8499 51.0248C44.2811 51.008 43.5286 50.8076 42.8702 50.638C42.3862 50.5132 41.8323 50.84 41.7074 51.324C41.5826 51.8081 41.9091 52.3622 42.393 52.4873C42.8498 52.605 43.4255 52.7668 44.0481 52.8601V52.9347C44.0409 53.4389 44.4981 53.9028 45.0023 53.9028C45.5065 53.9028 45.9637 53.4389 45.9566 52.9347V52.7855C46.4249 52.6779 46.8467 52.5149 47.2091 52.2785C47.7896 51.8997 48.249 51.3295 48.3422 50.6231C48.4354 49.9167 48.1016 49.1851 47.5371 48.6992C46.9726 48.2134 46.1953 47.8926 45.1962 47.7C44.4193 47.5503 43.9553 47.2951 43.7499 47.1184C43.6558 47.0374 43.6129 46.988 43.5943 46.9563C43.5636 46.9068 43.5938 46.8896 43.5936 46.8701C43.6132 46.8234 43.6775 46.7214 43.8692 46.5964C44.1073 46.441 44.5199 46.2914 45.0769 46.2534C45.081 46.2533 45.0877 46.2534 45.0918 46.2534C45.68 46.2486 46.4658 46.4433 47.1643 46.6262C47.6483 46.751 48.2022 46.4242 48.3271 45.9401C48.452 45.4561 48.1254 44.902 47.6415 44.7769C47.1745 44.6547 46.5905 44.5061 45.9566 44.419V44.3444C45.9683 43.803 45.4362 43.3158 44.898 43.375L44.898 43.3728ZM42.0352 59.1217C41.5663 59.1732 41.1752 59.6193 41.1853 60.0911V61.0455C41.1853 61.5453 41.6399 62 42.1396 62H47.8651C48.3647 62 48.8193 61.5453 48.8194 61.0455V60.0911C48.8265 59.5868 48.3693 59.123 47.8651 59.123C47.3609 59.123 46.9037 59.5868 46.9108 60.0911H43.0938C43.1055 59.5496 42.5734 59.0624 42.0352 59.1217Z" fill="url(#paint1_linear)"/>
<defs>
<linearGradient id="paint0_linear" x1="0" y1="0" x2="0.621212" y2="52.8684" gradientUnits="userSpaceOnUse">
<stop stop-color="#F41E3D"/>
<stop offset="1" stop-color="#D5122E"/>
</linearGradient>
<linearGradient id="paint1_linear" x1="24" y1="20" x2="24.8743" y2="62.8393" gradientUnits="userSpaceOnUse">
<stop stop-color="#F41E3D"/>
<stop offset="1" stop-color="#D5122E"/>
</linearGradient>
</defs>
</svg>
