<svg width="90" height="67" viewBox="0 0 90 67" fill="none" xmlns="http://www.w3.org/2000/svg">
<rect width="90" height="67" fill="black" fill-opacity="0"/>
<path d="M62.7273 13.6364C70.8004 13.6364 77.5927 19.5106 78.9271 27.3307C85.1421 27.9337 90 33.1722 90 39.5455C90 46.3235 84.5053 51.8182 77.7273 51.8182H69.5455C68.7923 51.8182 68.1818 51.2077 68.1818 50.4545C68.1818 49.7014 68.7923 49.0909 69.5455 49.0909H77.7273C82.9991 49.0909 87.2727 44.8173 87.2727 39.5455C87.2727 34.2736 82.9991 30 77.7273 30C77.0257 30 76.4386 29.4677 76.3701 28.7695C75.6827 21.7619 69.79 16.3636 62.7273 16.3636C61.4539 16.3636 60.2052 16.5378 59.0051 16.8775C58.3215 17.071 57.6039 16.7072 57.3559 16.0415C54.3979 8.10174 46.7962 2.72727 38.1818 2.72727C28.7897 2.72727 20.6703 9.11157 18.3683 18.0802C18.2186 18.6631 17.7045 19.0791 17.1031 19.1036C9.08559 19.4313 2.72727 26.0389 2.72727 34.0909C2.72727 42.3752 9.443 49.0909 17.7273 49.0909H20.4545C21.2077 49.0909 21.8182 49.7014 21.8182 50.4545C21.8182 51.2077 21.2077 51.8182 20.4545 51.8182H17.7273C7.93677 51.8182 0 43.8814 0 34.0909C0 24.9112 6.99176 17.3206 15.9935 16.4474C18.9192 6.7847 27.8734 0 38.1818 0C47.5314 0 55.8282 5.58627 59.4582 13.9632C60.526 13.7466 61.6197 13.6364 62.7273 13.6364Z" fill="url(#paint0_linear)"/>
<rect width="46" height="46" fill="black" fill-opacity="0" transform="translate(22 21)"/>
<path d="M59.1835 28.6666C58.956 28.6666 58.7337 28.734 58.5445 28.8604C58.3554 28.9867 58.208 29.1663 58.121 29.3765C58.0339 29.5866 58.0112 29.8178 58.0555 30.0409C58.0999 30.264 58.2094 30.4689 58.3703 30.6298C58.5311 30.7906 58.736 30.9001 58.9591 30.9445C59.1822 30.9889 59.4134 30.9661 59.6235 30.879C59.8337 30.792 60.0133 30.6446 60.1396 30.4555C60.266 30.2664 60.3335 30.044 60.3335 29.8166C60.3335 29.5116 60.2123 29.2191 59.9966 29.0034C59.781 28.7877 59.4885 28.6666 59.1835 28.6666Z" fill="url(#paint1_linear)"/>
<path d="M62.4089 21.2245C62.2651 21.0807 62.0701 21 61.8668 21C61.6635 21 61.4686 21.0807 61.3248 21.2245L55.1914 27.3578C55.0476 27.5016 54.9668 27.6966 54.9668 27.8999V33.2666C54.9668 33.4699 55.0476 33.6649 55.1913 33.8087C55.3351 33.9525 55.5301 34.0333 55.7335 34.0333H61.1002C61.3035 34.0332 61.4984 33.9524 61.6422 33.8086L67.7755 27.6753C67.9193 27.5315 68 27.3365 68 27.1332C68 26.9299 67.9193 26.7349 67.7755 26.5912L62.4089 21.2245ZM60.7827 32.4999H56.5001V28.2173L61.8668 22.8506L66.1494 27.1332L60.7827 32.4999Z" fill="url(#paint2_linear)"/>
<path d="M22.7667 47.0667H25.0667V47.1648C25.0682 47.8348 25.2962 48.4846 25.7138 49.0085C26.1314 49.5324 26.7139 49.8997 27.3667 50.0506V57.0334C27.3667 57.2368 27.4475 57.4318 27.5912 57.5756C27.735 57.7193 27.93 57.8001 28.1334 57.8001H32.7334C32.9367 57.8001 33.1317 57.7193 33.2755 57.5756C33.4193 57.4318 33.5 57.2368 33.5 57.0334V53.9667H34.2728C34.8807 53.9651 35.4632 53.7229 35.8931 53.2931C36.3229 52.8633 36.5651 52.2807 36.5667 51.6729V50.0506C37.0486 49.9375 37.4946 49.7057 37.8639 49.3761C38.2333 49.0466 38.5142 48.6298 38.6812 48.1638L51.5888 53.9008C51.7056 53.9527 51.8334 53.9745 51.9607 53.9644C52.0881 53.9543 52.2109 53.9126 52.318 53.843C52.4251 53.7733 52.5131 53.6781 52.574 53.5658C52.6349 53.4535 52.6668 53.3278 52.6668 53.2001V34.7999C52.6668 34.6722 52.6349 34.5465 52.574 34.4342C52.5131 34.3219 52.4251 34.2267 52.318 34.1571C52.2109 34.0874 52.0881 34.0457 51.9607 34.0356C51.8334 34.0255 51.7056 34.0473 51.5888 34.0992L38.6812 39.8362C38.4766 39.2613 38.0994 38.7636 37.6013 38.4111C37.1032 38.0585 36.5084 37.8684 35.8982 37.8666H28.0352C27.2482 37.8674 26.4936 38.1805 25.937 38.737C25.3805 39.2935 25.0675 40.0481 25.0667 40.8352V40.9333H22.7667C22.5633 40.9333 22.3683 41.0141 22.2246 41.1579C22.0808 41.3017 22 41.4967 22 41.7V46.3C22 46.5034 22.0808 46.6984 22.2246 46.8421C22.3683 46.9859 22.5633 47.0667 22.7667 47.0667ZM48.0668 37.3422L51.1334 35.9799V52.0202L48.0668 50.6578V37.3422ZM38.8667 41.4317L46.5334 38.0238V49.9801L38.8667 46.5684V41.4317ZM31.9667 53.2001V56.2668H28.9V50.1334H31.9667V53.2001ZM35.0334 51.6729C35.0332 51.8745 34.953 52.0678 34.8104 52.2104C34.6678 52.353 34.4745 52.4332 34.2728 52.4334H33.5V50.1334H35.0334V51.6729ZM26.6 46.3V40.8352C26.6004 40.4547 26.7518 40.0899 27.0208 39.8208C27.2899 39.5517 27.6547 39.4004 28.0352 39.4H35.8982C36.2787 39.4004 36.6435 39.5517 36.9126 39.8208C37.1816 40.0899 37.333 40.4547 37.3334 40.8352V47.1648C37.333 47.5453 37.1816 47.9102 36.9126 48.1792C36.6435 48.4483 36.2787 48.5996 35.8982 48.6H28.0352C27.6547 48.5996 27.2899 48.4483 27.0208 48.1792C26.7518 47.9102 26.6004 47.5453 26.6 47.1648V46.3ZM23.5333 42.4667H25.0667V45.5334H23.5333V42.4667Z" fill="url(#paint3_linear)"/>
<path d="M60.1863 51.1469C60.0425 51.0032 59.8475 50.9224 59.6442 50.9224C59.4409 50.9224 59.246 51.0032 59.1022 51.1469L53.6803 56.5688C53.5366 56.7126 53.4558 56.9075 53.4558 57.1108C53.4558 57.3141 53.5366 57.5091 53.6803 57.6529L61.2703 65.2429C61.4141 65.3867 61.6091 65.4674 61.8124 65.4674C62.0157 65.4674 62.2106 65.3867 62.3544 65.2429L67.7755 59.8218C67.9193 59.678 68 59.483 68 59.2798C68 59.0765 67.9193 58.8815 67.7755 58.7377L60.1863 51.1469ZM65.2264 58.3536L60.9 58.0216L60.5673 53.6953L65.2264 58.3536ZM61.8124 63.6145L55.3064 57.1101L59.0071 53.4093L59.4219 58.7945C59.4358 58.977 59.5146 59.1485 59.6439 59.278C59.7733 59.4075 59.9447 59.4864 60.1272 59.5006L65.5131 59.9146L61.8124 63.6145Z" fill="url(#paint4_linear)"/>
<path d="M42.7001 35.5666C43.6963 35.5689 44.6734 35.2933 45.5216 34.7707C46.3698 34.2482 47.0555 33.4995 47.5015 32.6087C47.9475 31.7178 48.1363 30.7203 48.0465 29.7281C47.9568 28.7359 47.5921 27.7884 46.9934 26.9921L51.677 22.3085L50.5914 21.2245L45.9078 25.9065C45.2271 25.396 44.4348 25.0547 43.5962 24.9106C42.7576 24.7666 41.8967 24.8241 41.0847 25.0782C40.2727 25.3324 39.5327 25.776 38.9259 26.3725C38.3191 26.9689 37.8627 27.7011 37.5946 28.5086C37.3265 29.3162 37.2542 30.1759 37.3837 31.0168C37.5132 31.8578 37.8408 32.6559 38.3395 33.3453C38.8382 34.0348 39.4937 34.5957 40.2519 34.9819C41.0101 35.3681 41.8492 35.5685 42.7001 35.5666ZM42.7001 26.3665C43.4582 26.3665 44.1994 26.5914 44.8298 27.0126C45.4602 27.4338 45.9515 28.0325 46.2416 28.7329C46.5318 29.4334 46.6077 30.2042 46.4598 30.9478C46.3119 31.6914 45.9468 32.3744 45.4107 32.9105C44.8746 33.4466 44.1915 33.8117 43.4479 33.9596C42.7043 34.1075 41.9336 34.0316 41.2331 33.7415C40.5327 33.4513 39.934 32.96 39.5128 32.3296C39.0915 31.6992 38.8667 30.9581 38.8667 30.1999C38.8679 29.1836 39.2722 28.2093 39.9908 27.4907C40.7095 26.772 41.6838 26.3678 42.7001 26.3665Z" fill="url(#paint5_linear)"/>
<path d="M54.9668 47.8334H58.8001V48.6C58.8001 48.8034 58.8809 48.9984 59.0247 49.1422C59.1685 49.2859 59.3635 49.3667 59.5668 49.3667H65.7001C65.9035 49.3667 66.0985 49.2859 66.2423 49.1422C66.386 48.9984 66.4668 48.8034 66.4668 48.6V44.7812C66.4648 44.1459 66.2662 43.5267 65.8981 43.0087C65.5301 42.4908 65.0107 42.0995 64.4114 41.8886C64.9412 41.5116 65.3374 40.976 65.5429 40.3592C65.7484 39.7423 65.7526 39.076 65.5547 38.4567C65.3568 37.8373 64.9672 37.2968 64.4421 36.9133C63.9171 36.5298 63.2837 36.3232 62.6335 36.3232C61.9833 36.3232 61.3499 36.5298 60.8248 36.9133C60.2997 37.2968 59.9101 37.8373 59.7122 38.4567C59.5144 39.076 59.5185 39.7423 59.724 40.3592C59.9295 40.976 60.3258 41.5116 60.8556 41.8886C60.3594 42.0657 59.917 42.3671 59.5706 42.7641C59.3033 42.4562 58.9772 42.2047 58.6115 42.0243C59.0062 41.7399 59.3005 41.3376 59.4522 40.8754C59.6038 40.4132 59.605 39.9148 59.4556 39.4518C59.3061 38.9889 59.0138 38.5852 58.6205 38.2989C58.2272 38.0126 57.7533 37.8583 57.2668 37.8583C56.7803 37.8583 56.3064 38.0126 55.9131 38.2989C55.5198 38.5852 55.2274 38.9889 55.078 39.4518C54.9285 39.9148 54.9297 40.4132 55.0814 40.8754C55.2331 41.3376 55.5274 41.7399 55.922 42.0243C55.4072 42.2746 54.973 42.6642 54.6686 43.149C54.3642 43.6338 54.2019 44.1943 54.2001 44.7667V47.0667C54.2001 47.27 54.2809 47.465 54.4247 47.6088C54.5684 47.7526 54.7634 47.8334 54.9668 47.8334ZM62.6335 37.8666C62.9367 37.8666 63.2332 37.9566 63.4853 38.125C63.7375 38.2935 63.934 38.533 64.0501 38.8132C64.1661 39.0934 64.1965 39.4017 64.1373 39.6991C64.0782 39.9966 63.9321 40.2698 63.7177 40.4842C63.5033 40.6987 63.23 40.8447 62.9326 40.9039C62.6352 40.963 62.3269 40.9327 62.0467 40.8166C61.7665 40.7005 61.527 40.504 61.3585 40.2519C61.1901 39.9997 61.1001 39.7032 61.1001 39.4C61.1001 38.9933 61.2617 38.6033 61.5492 38.3157C61.8368 38.0282 62.2268 37.8666 62.6335 37.8666ZM60.3335 47.0667V44.7812C60.3341 44.3709 60.4973 43.9775 60.7875 43.6874C61.0777 43.3972 61.471 43.2339 61.8814 43.2333H63.3856C63.7959 43.2339 64.1893 43.3972 64.4794 43.6874C64.7696 43.9775 64.9329 44.3709 64.9335 44.7812V47.8334H60.3335V47.0667ZM57.2668 39.4C57.4184 39.4 57.5666 39.4449 57.6927 39.5292C57.8188 39.6134 57.9171 39.7332 57.9751 39.8733C58.0331 40.0133 58.0483 40.1675 58.0187 40.3162C57.9891 40.4649 57.9161 40.6015 57.8089 40.7088C57.7017 40.816 57.5651 40.889 57.4164 40.9186C57.2676 40.9482 57.1135 40.933 56.9734 40.875C56.8333 40.8169 56.7136 40.7187 56.6293 40.5926C56.5451 40.4665 56.5001 40.3183 56.5001 40.1666C56.5001 39.9633 56.5809 39.7683 56.7247 39.6245C56.8684 39.4807 57.0634 39.4 57.2668 39.4ZM55.7334 44.7667C55.7334 44.36 55.895 43.97 56.1825 43.6824C56.4701 43.3949 56.8601 43.2333 57.2668 43.2333C57.6734 43.2333 58.0635 43.3949 58.351 43.6824C58.6386 43.97 58.8001 44.36 58.8001 44.7667V46.3H55.7334V44.7667Z" fill="url(#paint6_linear)"/>
<path d="M43.4667 52.4334H40.4001C40.1967 52.4334 40.0018 52.5142 39.858 52.658L35.258 57.258C35.1143 57.4018 35.0335 57.5968 35.0335 57.8001C35.0335 58.0034 35.1143 58.1984 35.258 58.3421L43.6914 66.7755C43.8351 66.9192 44.0301 67 44.2334 67C44.4367 67 44.6317 66.9192 44.7754 66.7755L50.9088 60.6421C51.0525 60.4984 51.1333 60.3034 51.1333 60.1001C51.1333 59.8968 51.0525 59.7018 50.9088 59.5581L44.0088 52.658C43.865 52.5142 43.6701 52.4334 43.4667 52.4334ZM44.2334 65.1494L36.8841 57.8001L40.7175 53.9667H43.1493L49.2827 60.1001L44.2334 65.1494Z" fill="url(#paint7_linear)"/>
<path d="M42.9252 55.7246L39.8584 58.7914L40.9427 59.8756L44.0094 56.8088L42.9252 55.7246Z" fill="url(#paint8_linear)"/>
<path d="M45.2249 58.0246L42.1581 61.0914L43.2424 62.1756L46.3091 59.1088L45.2249 58.0246Z" fill="url(#paint9_linear)"/>
<defs>
<linearGradient id="paint0_linear" x1="0" y1="0" x2="0.621212" y2="52.8684" gradientUnits="userSpaceOnUse">
<stop stop-color="#F41E3D"/>
<stop offset="1" stop-color="#D5122E"/>
</linearGradient>
<linearGradient id="paint1_linear" x1="58.0334" y1="28.6666" x2="58.0813" y2="31.0125" gradientUnits="userSpaceOnUse">
<stop stop-color="#F41E3D"/>
<stop offset="1" stop-color="#D5122E"/>
</linearGradient>
<linearGradient id="paint2_linear" x1="54.9668" y1="21" x2="55.2381" y2="34.2937" gradientUnits="userSpaceOnUse">
<stop stop-color="#F41E3D"/>
<stop offset="1" stop-color="#D5122E"/>
</linearGradient>
<linearGradient id="paint3_linear" x1="22" y1="34.0332" x2="22.3835" y2="58.2791" gradientUnits="userSpaceOnUse">
<stop stop-color="#F41E3D"/>
<stop offset="1" stop-color="#D5122E"/>
</linearGradient>
<linearGradient id="paint4_linear" x1="53.4558" y1="50.9224" x2="53.7586" y2="65.7581" gradientUnits="userSpaceOnUse">
<stop stop-color="#F41E3D"/>
<stop offset="1" stop-color="#D5122E"/>
</linearGradient>
<linearGradient id="paint5_linear" x1="37.3211" y1="21.2245" x2="37.6194" y2="35.8532" gradientUnits="userSpaceOnUse">
<stop stop-color="#F41E3D"/>
<stop offset="1" stop-color="#D5122E"/>
</linearGradient>
<linearGradient id="paint6_linear" x1="54.2001" y1="36.3232" x2="54.4888" y2="49.6266" gradientUnits="userSpaceOnUse">
<stop stop-color="#F41E3D"/>
<stop offset="1" stop-color="#D5122E"/>
</linearGradient>
<linearGradient id="paint7_linear" x1="35.0335" y1="52.4334" x2="35.3079" y2="67.2922" gradientUnits="userSpaceOnUse">
<stop stop-color="#F41E3D"/>
<stop offset="1" stop-color="#D5122E"/>
</linearGradient>
<linearGradient id="paint8_linear" x1="39.8584" y1="58.7914" x2="40.9727" y2="59.8897" gradientUnits="userSpaceOnUse">
<stop stop-color="#F41E3D"/>
<stop offset="1" stop-color="#D5122E"/>
</linearGradient>
<linearGradient id="paint9_linear" x1="42.1581" y1="61.0914" x2="43.2724" y2="62.1897" gradientUnits="userSpaceOnUse">
<stop stop-color="#F41E3D"/>
<stop offset="1" stop-color="#D5122E"/>
</linearGradient>
</defs>
</svg>
