<svg width="90" height="69" viewBox="0 0 90 69" fill="none" xmlns="http://www.w3.org/2000/svg">
<rect width="90" height="69" fill="black" fill-opacity="0"/>
<rect width="42" height="40" fill="black" fill-opacity="0" transform="translate(24 29)"/>
<path d="M38.9092 29C38.848 29 38.7892 29.0069 38.7286 29.0088C38.7136 29.0081 38.7005 29 38.6848 29C35.8811 29 33.5835 31.2303 33.3917 34.0438C33.0611 33.9794 32.7281 33.9444 32.3938 33.9444C29.3819 33.9444 26.9318 36.4453 26.9318 39.5201C26.9318 40.9259 27.4361 42.2367 28.3272 43.2424C27.9854 43.3162 27.6567 43.4261 27.3418 43.5624C25.3859 44.3632 24 46.314 24 48.5925C24 48.5993 24.0037 48.605 24.0037 48.6106C24.0037 48.6399 24 48.6681 24 48.6975C24 51.3641 25.8433 53.5987 28.2978 54.1444C27.4255 55.1476 26.9312 56.4478 26.9312 57.8318C26.9312 60.9053 29.3813 63.4061 32.3931 63.4061C32.7499 63.4061 33.1024 63.3712 33.4479 63.3024C33.4472 63.3412 33.4466 63.3818 33.4466 63.4243C33.4466 66.499 35.8967 69 38.9086 69C41.9204 69 44.3711 66.499 44.3711 63.4243V34.9407C44.3717 31.776 41.8192 29 38.9092 29ZM43.122 63.4243C43.122 65.809 41.2324 67.7498 38.9092 67.7498C36.586 67.7498 34.697 65.8096 34.697 63.4243C34.697 63.138 34.717 63.0774 34.792 62.8542C34.817 62.7811 34.8451 62.6936 34.8763 62.5923C36.4954 61.6628 37.5932 59.8939 37.5932 57.8655C37.5932 57.5198 37.3133 57.2404 36.9683 57.2404C36.6235 57.2404 36.3435 57.5198 36.3435 57.8655C36.3435 60.1658 34.5214 62.0373 32.2819 62.0373C30.0424 62.0373 28.2203 60.1658 28.2203 57.8655C28.2203 57.8111 28.2022 57.7623 28.1891 57.7117C28.2278 56.2534 28.9639 54.9295 30.1843 54.1544C30.4273 54.0006 30.5335 53.6993 30.4411 53.4268C30.3486 53.1543 30.0836 52.9724 29.7956 53.0042C29.6856 53.0136 29.5744 53.0211 29.4619 53.0211C27.1393 53.0211 25.2497 51.0809 25.2497 48.6968C25.2497 46.9191 26.3007 45.3896 27.7973 44.7251C28.2659 44.5301 28.7758 44.4213 29.3113 44.4213C31.5508 44.4213 33.3729 46.2922 33.3729 48.5918C33.3729 48.9375 33.6529 49.2169 33.9977 49.2169C34.3427 49.2169 34.6226 48.9375 34.6226 48.5918C34.6226 45.9427 32.7487 43.7343 30.283 43.2661C30.2698 43.2568 30.2617 43.2443 30.248 43.2355C28.9539 42.446 28.1809 41.0571 28.1809 39.5195C28.1809 37.1347 30.0705 35.1939 32.3931 35.1939C32.7499 35.1939 33.1055 35.2589 33.4567 35.3552C33.8921 37.8992 36.0679 39.842 38.6842 39.842C39.0292 39.842 39.3091 39.5626 39.3091 39.2169C39.3091 38.8712 39.0292 38.5918 38.6842 38.5918C36.6484 38.5918 34.9625 37.0448 34.6714 35.0364C34.697 34.9545 34.712 34.8689 34.7063 34.7857C34.702 34.7163 34.6964 34.6457 34.6964 34.5751C34.6964 32.1904 36.586 30.2495 38.9086 30.2495C41.1524 30.2495 43.1213 32.4417 43.1213 34.9401V63.4243H43.122Z" fill="url(#paint0_linear)"/>
<path d="M66 48.5925C66 46.314 64.6141 44.3632 62.6582 43.5624C62.3433 43.4261 62.0146 43.3162 61.6729 43.2424C62.5645 42.2367 63.0682 40.9259 63.0682 39.5201C63.0682 36.4453 60.6181 33.9444 57.6062 33.9444C57.2451 33.9444 56.8852 33.9819 56.5296 34.0563C56.2722 31.2247 53.9315 29 51.0908 29C48.1808 29 45.6283 31.776 45.6283 34.9407V63.4243C45.6283 66.499 48.0784 69 51.0908 69C54.1027 69 56.5528 66.499 56.5528 63.4243C56.5528 63.3818 56.5521 63.3405 56.5515 63.3024C56.897 63.3712 57.2495 63.4061 57.6062 63.4061C60.6181 63.4061 63.0682 60.9053 63.0682 57.8318C63.0682 56.4472 62.5745 55.1476 61.7016 54.1444C64.156 53.5987 65.9994 51.3641 65.9994 48.6975C65.9994 48.6681 65.9963 48.6399 65.9956 48.6106C65.9963 48.6043 66 48.5987 66 48.5925ZM51.0914 63.4012C50.3991 63.4012 49.8355 62.838 49.8355 62.1454C49.8355 61.4528 50.3985 60.889 51.0914 60.889C51.7838 60.889 52.3468 61.4522 52.3468 62.1454C52.3468 62.838 51.7832 63.4012 51.0914 63.4012ZM57.6313 58.7424C56.9389 58.7424 56.3753 58.1793 56.3753 57.4867C56.3753 56.7941 56.9383 56.2303 57.6313 56.2303C58.3236 56.2303 58.8866 56.7935 58.8866 57.4867C58.8872 58.1786 58.3236 58.7424 57.6313 58.7424ZM60.5381 53.0211C60.4256 53.0211 60.315 53.013 60.2044 53.0042C59.9176 52.9761 59.6514 53.1537 59.5589 53.4268C59.4665 53.6999 59.5727 54.0006 59.8157 54.1544C61.0699 54.9507 61.8184 56.3259 61.8184 57.8318C61.8184 59.9882 60.2707 61.7766 58.2561 62.0992V59.9039C59.3346 59.6245 60.1363 58.6512 60.1363 57.4867C60.1363 56.1047 59.0128 54.9801 57.6313 54.9801C56.2497 54.9801 55.1255 56.1047 55.1255 57.4867C55.1255 58.6512 55.9279 59.6245 57.0064 59.9039V62.1066C56.6489 62.0541 56.299 61.9604 55.9629 61.8147C55.7398 61.7191 55.4805 61.7597 55.2993 61.9216C55.1174 62.0835 55.0462 62.3361 55.1168 62.5686C55.1512 62.683 55.1818 62.7736 55.208 62.8536C55.283 63.0768 55.303 63.1374 55.303 63.4237C55.303 65.5902 53.7421 67.3848 51.7157 67.6961V64.562C52.7942 64.2825 53.5965 63.3099 53.5965 62.1448C53.5965 60.7627 52.473 59.6382 51.0914 59.6382C49.7099 59.6382 48.5858 60.7627 48.5858 62.1448C48.5858 63.3093 49.3881 64.2825 50.466 64.562V67.6961C48.4389 67.3848 46.878 65.5902 46.878 63.4237V50.5702H48.6739C48.9532 51.6491 49.9267 52.4517 51.0914 52.4517C52.473 52.4517 53.5965 51.3278 53.5965 49.9457C53.5965 48.5637 52.473 47.4392 51.0914 47.4392C49.9273 47.4392 48.9544 48.2411 48.6745 49.3201H46.878V40.8127H51.0908H51.9119H54.5807C54.8606 41.8916 55.8329 42.6936 56.9977 42.6936C58.3792 42.6936 59.5027 41.5697 59.5027 40.1876C59.5027 38.8056 58.3792 37.6811 56.9977 37.6811C55.8329 37.6811 54.86 38.4837 54.5807 39.5626H52.5368V37.0735C53.6153 36.7941 54.4176 35.8215 54.4176 34.6563C54.4176 33.2743 53.2941 32.1498 51.9125 32.1498C50.531 32.1498 49.4068 33.2743 49.4068 34.6563C49.4068 35.8208 50.2091 36.7941 51.287 37.0735V39.5626H51.0908H46.878V34.9401C46.878 32.4417 48.8464 30.2495 51.0908 30.2495C53.4134 30.2495 55.303 32.1898 55.303 34.5751C55.303 34.6457 55.2974 34.7163 55.2886 34.8457C55.2749 35.0583 55.3699 35.2633 55.5411 35.3896C55.7123 35.5158 55.9354 35.547 56.1347 35.4708C56.6159 35.287 57.1108 35.1945 57.6056 35.1945C59.9282 35.1945 61.8178 37.1347 61.8178 39.5201C61.8178 41.0577 61.0455 42.4473 59.7508 43.2362C59.7377 43.2449 59.7289 43.2574 59.7158 43.2668C57.2501 43.7343 55.3761 45.9427 55.3761 48.5925C55.3761 48.9381 55.6561 49.2176 56.001 49.2176C56.3459 49.2176 56.6258 48.9381 56.6258 48.5925C56.6258 46.2928 58.4479 44.4219 60.6874 44.4219C61.2229 44.4219 61.7329 44.5313 62.2015 44.7251C63.698 45.3896 64.7491 46.9198 64.7491 48.6968C64.7503 51.0815 62.8607 53.0211 60.5381 53.0211ZM49.8355 49.9457C49.8355 49.2531 50.3985 48.6893 51.0914 48.6893C51.7838 48.6893 52.3468 49.2525 52.3468 49.9457C52.3468 50.6377 51.7838 51.2016 51.0914 51.2016C50.3985 51.2009 49.8355 50.6377 49.8355 49.9457ZM51.9125 35.9115C51.2202 35.9115 50.6566 35.3483 50.6566 34.6557C50.6566 33.9631 51.2195 33.3993 51.9125 33.3993C52.6049 33.3993 53.1679 33.9625 53.1679 34.6557C53.1679 35.3483 52.6042 35.9115 51.9125 35.9115ZM55.7423 40.1876C55.7423 39.495 56.3053 38.9312 56.9983 38.9312C57.6906 38.9312 58.2536 39.4944 58.2536 40.1876C58.2536 40.8796 57.6906 41.4434 56.9983 41.4434C56.3053 41.4434 55.7423 40.8802 55.7423 40.1876Z" fill="url(#paint1_linear)"/>
<path d="M62.7273 13.6364C70.8004 13.6364 77.5927 19.5106 78.9271 27.3307C85.1421 27.9337 90 33.1722 90 39.5455C90 46.3235 84.5053 51.8182 77.7273 51.8182H69.5455C68.7923 51.8182 68.1818 51.2077 68.1818 50.4545C68.1818 49.7014 68.7923 49.0909 69.5455 49.0909H77.7273C82.9991 49.0909 87.2727 44.8173 87.2727 39.5455C87.2727 34.2736 82.9991 30 77.7273 30C77.0257 30 76.4386 29.4677 76.3701 28.7695C75.6827 21.7619 69.79 16.3636 62.7273 16.3636C61.4539 16.3636 60.2052 16.5378 59.0051 16.8775C58.3215 17.071 57.6039 16.7072 57.3559 16.0415C54.3979 8.10174 46.7962 2.72727 38.1818 2.72727C28.7897 2.72727 20.6703 9.11157 18.3683 18.0802C18.2186 18.6631 17.7045 19.0791 17.1031 19.1036C9.08559 19.4313 2.72727 26.0389 2.72727 34.0909C2.72727 42.3752 9.443 49.0909 17.7273 49.0909H20.4545C21.2077 49.0909 21.8182 49.7014 21.8182 50.4545C21.8182 51.2077 21.2077 51.8182 20.4545 51.8182H17.7273C7.93677 51.8182 0 43.8814 0 34.0909C0 24.9112 6.99176 17.3206 15.9935 16.4474C18.9192 6.7847 27.8734 0 38.1818 0C47.5314 0 55.8282 5.58627 59.4582 13.9632C60.526 13.7466 61.6197 13.6364 62.7273 13.6364Z" fill="url(#paint2_linear)"/>
<defs>
<linearGradient id="paint0_linear" x1="24" y1="29" x2="25.633" y2="69.7509" gradientUnits="userSpaceOnUse">
<stop stop-color="#F41E3D"/>
<stop offset="1" stop-color="#D5122E"/>
</linearGradient>
<linearGradient id="paint1_linear" x1="45.6283" y1="29" x2="47.2613" y2="69.7509" gradientUnits="userSpaceOnUse">
<stop stop-color="#F41E3D"/>
<stop offset="1" stop-color="#D5122E"/>
</linearGradient>
<linearGradient id="paint2_linear" x1="0" y1="0" x2="0.832832" y2="61.2132" gradientUnits="userSpaceOnUse">
<stop stop-color="#F41E3D"/>
<stop offset="1" stop-color="#D5122E"/>
</linearGradient>
</defs>
</svg>
