<svg width="90" height="60" viewBox="0 0 90 60" fill="none" xmlns="http://www.w3.org/2000/svg">
<rect width="90" height="60" fill="black" fill-opacity="0"/>
<path d="M62.7273 13.6364C70.8004 13.6364 77.5927 19.5106 78.9271 27.3307C85.1421 27.9337 90 33.1722 90 39.5455C90 46.3235 84.5053 51.8182 77.7273 51.8182H69.5455C68.7923 51.8182 68.1818 51.2077 68.1818 50.4545C68.1818 49.7014 68.7923 49.0909 69.5455 49.0909H77.7273C82.9991 49.0909 87.2727 44.8173 87.2727 39.5455C87.2727 34.2736 82.9991 30 77.7273 30C77.0257 30 76.4386 29.4677 76.3701 28.7695C75.6827 21.7619 69.79 16.3636 62.7273 16.3636C61.4539 16.3636 60.2052 16.5378 59.0051 16.8775C58.3215 17.071 57.6039 16.7072 57.3559 16.0415C54.3979 8.10174 46.7962 2.72727 38.1818 2.72727C28.7897 2.72727 20.6703 9.11157 18.3683 18.0802C18.2186 18.6631 17.7045 19.0791 17.1031 19.1036C9.08559 19.4313 2.72727 26.0389 2.72727 34.0909C2.72727 42.3752 9.443 49.0909 17.7273 49.0909H20.4545C21.2077 49.0909 21.8182 49.7014 21.8182 50.4545C21.8182 51.2077 21.2077 51.8182 20.4545 51.8182H17.7273C7.93677 51.8182 0 43.8814 0 34.0909C0 24.9112 6.99176 17.3206 15.9935 16.4474C18.9192 6.7847 27.8734 0 38.1818 0C47.5314 0 55.8282 5.58627 59.4582 13.9632C60.526 13.7466 61.6197 13.6364 62.7273 13.6364ZM31.3636 55.9091C31.3636 56.6622 30.7531 57.2727 30 57.2727C29.2469 57.2727 28.6364 56.6622 28.6364 55.9091C28.6364 46.8711 35.9614 39.5455 45 39.5455C54.038 39.5455 61.3636 46.8705 61.3636 55.9091C61.3636 56.6622 60.7531 57.2727 60 57.2727C59.2469 57.2727 58.6364 56.6622 58.6364 55.9091C58.6364 48.3768 52.5318 42.2727 45 42.2727C37.4677 42.2727 31.3636 48.3773 31.3636 55.9091ZM44.8366 54.5503L47.8712 48.4811C48.208 47.8075 49.0271 47.5345 49.7007 47.8713C50.3744 48.2081 50.6474 49.0271 50.3106 49.7007L47.2761 55.7697C47.5612 56.2006 47.7273 56.7173 47.7273 57.2727C47.7273 58.779 46.5062 60 45 60C43.4938 60 42.2727 58.779 42.2727 57.2727C42.2727 55.8213 43.4065 54.6348 44.8366 54.5503Z" fill="url(#paint0_linear)"/>
<defs>
<linearGradient id="paint0_linear" x1="0" y1="0" x2="0.832832" y2="61.2132" gradientUnits="userSpaceOnUse">
<stop stop-color="#F41E3D"/>
<stop offset="1" stop-color="#D5122E"/>
</linearGradient>
</defs>
</svg>
