<svg width="90" height="70" viewBox="0 0 90 70" fill="none" xmlns="http://www.w3.org/2000/svg">
<rect width="90" height="69" fill="black" fill-opacity="0"/>
<path d="M62.7273 13.6364C70.8004 13.6364 77.5926 19.5106 78.9271 27.3307C85.1421 27.9337 90 33.1722 90 39.5455C90 46.3235 84.5053 51.8182 77.7273 51.8182H69.5455C68.7923 51.8182 68.1818 51.2077 68.1818 50.4545C68.1818 49.7014 68.7923 49.0909 69.5455 49.0909H77.7273C82.9991 49.0909 87.2727 44.8173 87.2727 39.5455C87.2727 34.2736 82.9991 30 77.7273 30C77.0257 30 76.4386 29.4677 76.3701 28.7695C75.6827 21.7619 69.79 16.3636 62.7273 16.3636C61.4539 16.3636 60.2052 16.5378 59.0051 16.8775C58.3215 17.071 57.6039 16.7072 57.3559 16.0415C54.3979 8.10174 46.7962 2.72727 38.1818 2.72727C28.7897 2.72727 20.6703 9.11157 18.3683 18.0802C18.2186 18.6631 17.7045 19.0791 17.1031 19.1036C9.08559 19.4313 2.72727 26.0389 2.72727 34.0909C2.72727 42.3752 9.443 49.0909 17.7273 49.0909H20.4545C21.2077 49.0909 21.8182 49.7014 21.8182 50.4545C21.8182 51.2077 21.2077 51.8182 20.4545 51.8182H17.7273C7.93677 51.8182 0 43.8814 0 34.0909C0 24.9112 6.99176 17.3206 15.9935 16.4474C18.9192 6.7847 27.8734 0 38.1818 0C47.5314 0 55.8282 5.58627 59.4582 13.9632C60.526 13.7466 61.6197 13.6364 62.7273 13.6364Z" fill="url(#paint0_linear)"/>
<rect width="44" height="44" fill="black" fill-opacity="0" transform="translate(23 25)"/>
<path d="M67 34.5337C66.9989 32.0708 66.0442 29.704 64.3361 27.9297C62.628 26.1554 60.2992 25.1113 57.8381 25.0165C55.3771 24.9216 52.9749 25.7834 51.1353 27.421C49.2957 29.0586 48.1617 31.3449 47.971 33.8004H42.0311C41.8918 31.9832 41.2343 30.2441 40.1365 28.7893C39.0388 27.3345 37.5469 26.225 35.8377 25.5924C34.1284 24.9598 32.2737 24.8307 30.4933 25.2202C28.7129 25.6098 27.0816 26.5018 25.7928 27.7904C24.504 29.079 23.6117 30.7102 23.2219 32.4905C22.8321 34.2708 22.961 36.1256 23.5933 37.8348C24.2257 39.5441 25.335 41.0362 26.7896 42.1341C28.2443 43.232 29.9833 43.8898 31.8005 44.0294V49.9692C29.9833 50.1085 28.2442 50.766 26.7894 51.8637C25.3345 52.9614 24.225 54.4534 23.5924 56.1625C22.9598 57.8717 22.8307 59.7265 23.2202 61.5068C23.6098 63.2872 24.5018 64.9185 25.7904 66.2073C27.0791 67.4961 28.7103 68.3883 30.4906 68.7781C32.2709 69.1679 34.1257 69.039 35.835 68.4067C37.5443 67.7743 39.0364 66.6651 40.1343 65.2104C41.2323 63.7558 41.8901 62.0168 42.0296 60.1996H47.9695C48.1088 62.0168 48.7663 63.7559 49.8641 65.2107C50.9618 66.6655 52.4538 67.775 54.163 68.4076C55.8722 69.0402 57.7269 69.1693 59.5073 68.7798C61.2877 68.3902 62.9191 67.4982 64.2079 66.2096C65.4967 64.921 66.3889 63.2898 66.7787 61.5095C67.1686 59.7292 67.0397 57.8744 66.4073 56.1652C65.7749 54.4559 64.6657 52.9638 63.211 51.8659C61.7563 50.768 60.0173 50.1102 58.2001 49.9706V44.0308C60.5925 43.8447 62.8269 42.7638 64.4579 41.0036C66.0888 39.2435 66.9965 36.9333 67 34.5337V34.5337ZM57.4668 26.4672C59.0622 26.4672 60.6218 26.9403 61.9483 27.8267C63.2749 28.713 64.3088 29.9728 64.9193 31.4468C65.5299 32.9207 65.6896 34.5426 65.3784 36.1074C65.0671 37.6721 64.2988 39.1094 63.1707 40.2375C62.0426 41.3656 60.6053 42.1339 59.0405 42.4451C57.4757 42.7564 55.8538 42.5966 54.3799 41.9861C52.9059 41.3756 51.6461 40.3417 50.7597 39.0152C49.8733 37.6886 49.4002 36.1291 49.4002 34.5337C49.4028 32.3951 50.2534 30.3448 51.7657 28.8326C53.2779 27.3204 55.3282 26.4698 57.4668 26.4672ZM52.0761 42.3882C52.1693 42.4527 52.2668 42.5107 52.3629 42.5715C52.5147 42.6683 52.6665 42.7637 52.8241 42.8524C52.9297 42.911 53.0383 42.9653 53.1461 43.0203C53.3008 43.0995 53.4563 43.1765 53.6154 43.2469C53.7305 43.2975 53.8464 43.3444 53.9637 43.3936C54.1236 43.4566 54.2842 43.516 54.4484 43.571C54.5697 43.6121 54.6919 43.6505 54.8151 43.6862C54.9816 43.7346 55.1502 43.7764 55.3196 43.816C55.445 43.8446 55.5704 43.8739 55.6973 43.8974C55.8726 43.9311 56.0508 43.956 56.2297 43.9795C56.3551 43.9956 56.479 44.014 56.6059 44.025C56.6491 44.0294 56.6909 44.0374 56.7342 44.0411V49.9633C56.6909 49.967 56.6491 49.975 56.6059 49.9794C56.479 49.9904 56.3551 50.0088 56.2297 50.0249C56.0508 50.0484 55.8726 50.0733 55.6973 50.107C55.5704 50.1305 55.445 50.1598 55.3196 50.1884C55.1502 50.228 54.9816 50.2698 54.8151 50.3182C54.6919 50.3544 54.5697 50.3928 54.4484 50.4334C54.2842 50.4884 54.1236 50.5478 53.9637 50.6108C53.8464 50.6578 53.7305 50.7047 53.6154 50.7575C53.4563 50.8308 53.3008 50.9042 53.1461 50.9841C53.0383 51.0391 52.9297 51.0933 52.8241 51.152C52.6665 51.2407 52.5147 51.3361 52.3629 51.4329C52.2668 51.4937 52.1693 51.5517 52.0761 51.6162C51.9119 51.7291 51.7549 51.8509 51.5988 51.9733C51.5254 52.0305 51.4521 52.0841 51.3788 52.1435C50.9288 52.5169 50.514 52.9308 50.1394 53.3798C50.08 53.4532 50.0265 53.5265 49.9693 53.5998C49.8468 53.756 49.7251 53.9129 49.6122 54.0772C49.5476 54.1703 49.4897 54.2679 49.4288 54.3639C49.3321 54.5157 49.2367 54.6675 49.148 54.8252C49.0893 54.9308 49.0351 55.0393 48.9801 55.1471C48.9009 55.3018 48.8239 55.4573 48.7535 55.6164C48.7029 55.7316 48.6559 55.8474 48.6068 55.9647C48.5437 56.1246 48.4843 56.2852 48.4293 56.4495C48.3883 56.5707 48.3499 56.6929 48.3142 56.8161C48.2658 56.9826 48.224 57.1512 48.1844 57.3206C48.1558 57.446 48.1265 57.5714 48.103 57.6983C48.0693 57.8736 48.0443 58.0518 48.0209 58.2307C48.0047 58.3561 47.9864 58.48 47.9754 58.6069C47.971 58.6501 47.9629 58.6919 47.9593 58.7352H42.0392C42.0392 58.6919 42.0274 58.6501 42.023 58.6069C42.012 58.48 41.9937 58.3561 41.9776 58.2307C41.9541 58.0518 41.9292 57.8736 41.8954 57.6983C41.872 57.5714 41.8426 57.446 41.814 57.3206C41.7744 57.1512 41.7326 56.9826 41.6842 56.8161C41.648 56.6929 41.6097 56.5707 41.5691 56.4495C41.5141 56.2852 41.4547 56.1246 41.3916 55.9647C41.3447 55.8474 41.2978 55.7316 41.245 55.6164C41.1716 55.4573 41.0983 55.3018 41.0184 55.1471C40.9634 55.0393 40.9091 54.9308 40.8504 54.8252C40.7617 54.6675 40.6664 54.5157 40.5696 54.3639C40.5087 54.2679 40.4508 54.1703 40.3862 54.0772C40.2733 53.9129 40.1516 53.756 40.0291 53.5998C39.9719 53.5265 39.9184 53.4532 39.859 53.3798C39.4849 52.9293 39.0703 52.5139 38.6204 52.1391C38.5471 52.0797 38.4737 52.0261 38.4004 51.9689C38.2442 51.8465 38.0873 51.7247 37.923 51.6118C37.8299 51.5473 37.7323 51.4893 37.6363 51.4285C37.4845 51.3317 37.3327 51.2363 37.175 51.1476C37.0694 51.0889 36.9609 51.0347 36.8531 50.9797C36.6984 50.9005 36.5429 50.8235 36.3838 50.7531C36.2686 50.7025 36.1528 50.6556 36.0354 50.6064C35.8756 50.5434 35.715 50.484 35.5507 50.429C35.43 50.3879 35.3077 50.3495 35.1841 50.3138C35.0176 50.2654 34.8489 50.2236 34.6795 50.184C34.5541 50.1554 34.4287 50.1261 34.3019 50.1026C34.1266 50.0689 33.9484 50.044 33.7695 50.0205C33.6441 50.0044 33.5201 49.986 33.3933 49.975C33.35 49.9706 33.3082 49.9626 33.2649 49.9589V44.0389C33.3082 44.0389 33.35 44.0272 33.3933 44.0228C33.5201 44.0118 33.6441 43.9934 33.7695 43.9773C33.9484 43.9538 34.1266 43.9289 34.3019 43.8952C34.4287 43.8717 34.5541 43.8424 34.6795 43.8138C34.8489 43.7742 35.0176 43.7324 35.1841 43.684C35.3072 43.6478 35.4295 43.6094 35.5507 43.5688C35.715 43.5138 35.8756 43.4544 36.0354 43.3914C36.1528 43.3444 36.2686 43.2975 36.3838 43.2447C36.5429 43.1714 36.6984 43.098 36.8531 43.0181C36.9609 42.9631 37.0731 42.9088 37.175 42.8502C37.3327 42.7615 37.4845 42.6661 37.6363 42.5693C37.7323 42.5085 37.8299 42.4505 37.923 42.386C38.0873 42.2731 38.2442 42.1513 38.4004 42.0289C38.4737 41.9717 38.5471 41.9181 38.6204 41.8587C39.071 41.4847 39.4863 41.0701 39.8612 40.6202C39.9206 40.5468 39.9741 40.4735 40.0313 40.4002C40.1538 40.244 40.2755 40.0871 40.3884 39.9228C40.453 39.8297 40.5109 39.7321 40.5718 39.6361C40.6686 39.4843 40.7639 39.3325 40.8526 39.1748C40.9113 39.0692 40.9656 38.9607 41.0206 38.8529C41.0998 38.6982 41.1768 38.5427 41.2472 38.3836C41.2978 38.2684 41.3447 38.1526 41.3938 38.0353C41.4569 37.8754 41.5163 37.7148 41.5713 37.5505C41.6124 37.4298 41.6507 37.3076 41.6864 37.1839C41.7348 37.0174 41.7766 36.8488 41.8162 36.6794C41.8448 36.554 41.8742 36.4286 41.8976 36.3017C41.9314 36.1264 41.9563 35.9482 41.9798 35.7693C41.9959 35.6439 42.0142 35.52 42.0252 35.3931C42.0296 35.3499 42.0377 35.3081 42.0414 35.2648H47.9637C47.9673 35.3081 47.9754 35.3499 47.9798 35.3931C47.9908 35.52 48.0091 35.6439 48.0253 35.7693C48.0487 35.9482 48.0737 36.1264 48.1074 36.3017C48.1309 36.4286 48.1602 36.554 48.1888 36.6794C48.2284 36.8488 48.2702 37.0174 48.3186 37.1839C48.3548 37.3071 48.3932 37.4293 48.4337 37.5505C48.4887 37.7148 48.5481 37.8754 48.6112 38.0353C48.6581 38.1526 48.7051 38.2684 48.7579 38.3836C48.8312 38.5427 48.9045 38.6982 48.9845 38.8529C49.0395 38.9607 49.0937 39.0729 49.1524 39.1748C49.2411 39.3325 49.3364 39.4843 49.4332 39.6361C49.4941 39.7321 49.552 39.8297 49.6166 39.9228C49.7295 40.0871 49.8512 40.244 49.9737 40.4002C50.0309 40.4735 50.0844 40.5468 50.1438 40.6202C50.5172 41.0706 50.9311 41.486 51.3802 41.8609C51.4536 41.9203 51.5269 41.9739 51.6002 42.0311C51.7549 42.1535 51.9119 42.2753 52.0761 42.3882ZM24.4673 34.5337C24.4673 32.9383 24.9404 31.3787 25.8267 30.0522C26.7131 28.7257 27.9729 27.6918 29.4469 27.0813C30.9209 26.4707 32.5428 26.311 34.1075 26.6222C35.6723 26.9335 37.1096 27.7017 38.2377 28.8299C39.3659 29.958 40.1341 31.3953 40.4454 32.96C40.7566 34.5247 40.5969 36.1466 39.9863 37.6206C39.3758 39.0945 38.3419 40.3543 37.0154 41.2407C35.6888 42.127 34.1292 42.6001 32.5338 42.6001C30.3952 42.5976 28.3449 41.7469 26.8327 40.2347C25.3205 38.7225 24.4698 36.6723 24.4673 34.5337V34.5337ZM32.5338 67.5328C30.9384 67.5328 29.3788 67.0597 28.0523 66.1733C26.7257 65.287 25.6918 64.0272 25.0813 62.5532C24.4708 61.0793 24.311 59.4574 24.6223 57.8926C24.9335 56.3279 25.7018 54.8906 26.8299 53.7625C27.958 52.6344 29.3954 51.8661 30.9601 51.5549C32.5249 51.2436 34.1468 51.4034 35.6208 52.0139C37.0947 52.6244 38.3546 53.6583 39.2409 54.9848C40.1273 56.3114 40.6004 57.8709 40.6004 59.4663C40.5979 61.6049 39.7472 63.6552 38.2349 65.1674C36.7227 66.6796 34.6724 67.5302 32.5338 67.5328V67.5328ZM65.5334 59.4663C65.5334 61.0617 65.0603 62.6213 64.1739 63.9478C63.2875 65.2743 62.0277 66.3082 60.5537 66.9187C59.0798 67.5293 57.4579 67.689 55.8931 67.3778C54.3283 67.0665 52.891 66.2983 51.7629 65.1701C50.6348 64.042 49.8665 62.6047 49.5552 61.04C49.244 59.4753 49.4037 57.8534 50.0143 56.3794C50.6248 54.9055 51.6587 53.6457 52.9853 52.7593C54.3118 51.873 55.8714 51.3999 57.4668 51.3999C59.6054 51.4024 61.6557 52.2531 63.1679 53.7653C64.6802 55.2775 65.5308 57.3277 65.5334 59.4663Z" fill="url(#paint1_linear)" stroke="url(#paint2_linear)" stroke-width="0.5"/>
<path d="M28.8672 33.067H27.4006V37.4669H28.8672V33.067Z" fill="url(#paint3_linear)"/>
<path d="M31.8005 29.4005H30.3338V37.467H31.8005V29.4005Z" fill="url(#paint4_linear)"/>
<path d="M34.7338 31.6004H33.2672V37.4669H34.7338V31.6004Z" fill="url(#paint5_linear)"/>
<path d="M37.6671 30.8671H36.2004V37.467H37.6671V30.8671Z" fill="url(#paint6_linear)"/>
<path d="M56.8427 33.3325L59.2268 35.1203C59.3792 35.2347 59.5701 35.2853 59.7591 35.2613C59.9482 35.2374 60.1204 35.1408 60.2395 34.992L63.1728 31.3255L62.0273 30.4088L59.534 33.5203L57.1735 31.7471C57.0244 31.6355 56.8385 31.5848 56.6534 31.6052C56.4684 31.6256 56.298 31.7157 56.1769 31.8571L51.7769 36.9903L52.8901 37.9436L56.8427 33.3325Z" fill="url(#paint7_linear)"/>
<path d="M52.7002 58.733C52.4827 58.733 52.27 58.7975 52.0891 58.9184C51.9082 59.0392 51.7672 59.211 51.684 59.412C51.6007 59.613 51.5789 59.8342 51.6214 60.0476C51.6638 60.2609 51.7686 60.4569 51.9224 60.6108C52.0763 60.7646 52.2723 60.8694 52.4856 60.9118C52.699 60.9542 52.9202 60.9325 53.1212 60.8492C53.3222 60.766 53.494 60.625 53.6148 60.4441C53.7357 60.2632 53.8002 60.0505 53.8002 59.833C53.8002 59.5412 53.6843 59.2615 53.478 59.0552C53.2718 58.8489 52.992 58.733 52.7002 58.733ZM52.7002 60.1996C52.6277 60.1996 52.5568 60.1781 52.4965 60.1378C52.4362 60.0975 52.3892 60.0403 52.3615 59.9733C52.3337 59.9063 52.3265 59.8326 52.3406 59.7614C52.3548 59.6903 52.3897 59.625 52.441 59.5737C52.4922 59.5224 52.5576 59.4875 52.6287 59.4734C52.6998 59.4592 52.7736 59.4665 52.8405 59.4942C52.9075 59.522 52.9648 59.569 53.0051 59.6293C53.0454 59.6896 53.0669 59.7605 53.0669 59.833C53.0669 59.9302 53.0283 60.0235 52.9595 60.0922C52.8907 60.161 52.7975 60.1996 52.7002 60.1996Z" fill="url(#paint8_linear)"/>
<path d="M56.3668 60.933C56.1493 60.933 55.9366 60.9975 55.7557 61.1183C55.5748 61.2392 55.4338 61.411 55.3506 61.612C55.2673 61.813 55.2455 62.0341 55.288 62.2475C55.3304 62.4609 55.4352 62.6569 55.589 62.8107C55.7429 62.9646 55.9389 63.0693 56.1522 63.1118C56.3656 63.1542 56.5868 63.1324 56.7878 63.0492C56.9888 62.9659 57.1606 62.8249 57.2814 62.644C57.4023 62.4631 57.4668 62.2505 57.4668 62.0329C57.4668 61.7412 57.3509 61.4614 57.1446 61.2551C56.9383 61.0488 56.6586 60.933 56.3668 60.933ZM56.3668 62.3996C56.2943 62.3996 56.2234 62.3781 56.1631 62.3378C56.1028 62.2975 56.0558 62.2402 56.0281 62.1732C56.0003 62.1062 55.9931 62.0325 56.0072 61.9614C56.0214 61.8903 56.0563 61.8249 56.1076 61.7737C56.1588 61.7224 56.2242 61.6875 56.2953 61.6733C56.3664 61.6592 56.4401 61.6664 56.5071 61.6942C56.5741 61.7219 56.6314 61.7689 56.6717 61.8292C56.712 61.8895 56.7335 61.9604 56.7335 62.0329C56.7335 62.1302 56.6949 62.2234 56.6261 62.2922C56.5573 62.3609 56.4641 62.3996 56.3668 62.3996Z" fill="url(#paint9_linear)"/>
<path d="M56.7335 56.1664C56.7335 55.9489 56.669 55.7362 56.5481 55.5553C56.4272 55.3744 56.2554 55.2335 56.0544 55.1502C55.8534 55.0669 55.6323 55.0452 55.4189 55.0876C55.2055 55.13 55.0095 55.2348 54.8557 55.3886C54.7018 55.5425 54.5971 55.7385 54.5546 55.9518C54.5122 56.1652 54.534 56.3864 54.6172 56.5874C54.7005 56.7884 54.8415 56.9602 55.0224 57.081C55.2033 57.2019 55.4159 57.2664 55.6335 57.2664C55.9252 57.2664 56.205 57.1505 56.4113 56.9442C56.6176 56.7379 56.7335 56.4582 56.7335 56.1664ZM55.2668 56.1664C55.2668 56.0939 55.2883 56.023 55.3286 55.9627C55.3689 55.9024 55.4262 55.8554 55.4932 55.8277C55.5602 55.7999 55.6339 55.7927 55.705 55.8068C55.7761 55.821 55.8415 55.8559 55.8928 55.9072C55.944 55.9584 55.979 56.0238 55.9931 56.0949C56.0073 56.166 56 56.2398 55.9722 56.3067C55.9445 56.3737 55.8975 56.431 55.8372 56.4713C55.7769 56.5116 55.706 56.5331 55.6335 56.5331C55.5362 56.5331 55.443 56.4945 55.3742 56.4257C55.3055 56.3569 55.2668 56.2637 55.2668 56.1664Z" fill="url(#paint10_linear)"/>
<path d="M59.3001 59.4663C59.5177 59.4663 59.7303 59.4018 59.9112 59.2809C60.0921 59.16 60.2331 58.9883 60.3164 58.7873C60.3996 58.5863 60.4214 58.3651 60.379 58.1517C60.3365 57.9384 60.2318 57.7424 60.0779 57.5885C59.9241 57.4347 59.7281 57.3299 59.5147 57.2875C59.3013 57.2451 59.0802 57.2668 58.8792 57.3501C58.6782 57.4333 58.5064 57.5743 58.3855 57.7552C58.2646 57.9361 58.2001 58.1488 58.2001 58.3663C58.2001 58.6581 58.316 58.9378 58.5223 59.1441C58.7286 59.3504 59.0084 59.4663 59.3001 59.4663V59.4663ZM59.3001 57.9997C59.3726 57.9997 59.4435 58.0212 59.5038 58.0615C59.5641 58.1018 59.6111 58.159 59.6389 58.226C59.6666 58.293 59.6739 58.3667 59.6597 58.4379C59.6456 58.509 59.6107 58.5743 59.5594 58.6256C59.5081 58.6769 59.4428 58.7118 59.3717 58.7259C59.3005 58.7401 59.2268 58.7328 59.1598 58.7051C59.0928 58.6773 59.0355 58.6303 58.9953 58.57C58.955 58.5097 58.9335 58.4388 58.9335 58.3663C58.9335 58.2691 58.9721 58.1758 59.0408 58.1071C59.1096 58.0383 59.2029 57.9997 59.3001 57.9997Z" fill="url(#paint11_linear)"/>
<path d="M62.2334 62.3996C62.451 62.3996 62.6636 62.3351 62.8445 62.2142C63.0254 62.0933 63.1664 61.9215 63.2497 61.7206C63.3329 61.5196 63.3547 61.2984 63.3123 61.085C63.2698 60.8716 63.1651 60.6757 63.0112 60.5218C62.8574 60.368 62.6614 60.2632 62.448 60.2208C62.2346 60.1783 62.0135 60.2001 61.8125 60.2834C61.6115 60.3666 61.4397 60.5076 61.3188 60.6885C61.1979 60.8694 61.1334 61.0821 61.1334 61.2996C61.1334 61.5913 61.2493 61.8711 61.4556 62.0774C61.6619 62.2837 61.9417 62.3996 62.2334 62.3996V62.3996ZM62.2334 60.933C62.3059 60.933 62.3768 60.9545 62.4371 60.9948C62.4974 61.035 62.5444 61.0923 62.5722 61.1593C62.5999 61.2263 62.6072 61.3 62.593 61.3711C62.5789 61.4423 62.544 61.5076 62.4927 61.5589C62.4414 61.6102 62.3761 61.6451 62.3049 61.6592C62.2338 61.6734 62.1601 61.6661 62.0931 61.6384C62.0261 61.6106 61.9688 61.5636 61.9285 61.5033C61.8883 61.443 61.8667 61.3721 61.8667 61.2996C61.8667 61.2024 61.9054 61.1091 61.9741 61.0403C62.0429 60.9716 62.1362 60.933 62.2334 60.933Z" fill="url(#paint12_linear)"/>
<path d="M34.0005 53.5998C33.806 53.5998 33.6195 53.6771 33.4819 53.8146C33.3444 53.9521 33.2672 54.1386 33.2672 54.3331V57.9997C33.2672 58.1942 33.3444 58.3807 33.4819 58.5182C33.6195 58.6558 33.806 58.733 34.0005 58.733H37.6671C37.8616 58.733 38.0481 58.6558 38.1856 58.5182C38.3232 58.3807 38.4004 58.1942 38.4004 57.9997C38.3992 56.8331 37.9353 55.7147 37.1104 54.8898C36.2855 54.0649 35.1671 53.601 34.0005 53.5998ZM34.7338 57.2664V55.1596C35.2407 55.2916 35.7031 55.5564 36.0735 55.9267C36.4438 56.2971 36.7087 56.7595 36.8406 57.2664H34.7338Z" fill="url(#paint13_linear)"/>
<path d="M35.4671 59.4663H32.5338V56.5331C32.5338 56.3386 32.4566 56.1521 32.3191 56.0146C32.1815 55.877 31.995 55.7998 31.8005 55.7998C30.9303 55.7998 30.0796 56.0578 29.356 56.5413C28.6325 57.0248 28.0685 57.7119 27.7355 58.5159C27.4025 59.3199 27.3153 60.2045 27.4851 61.058C27.6549 61.9115 28.0739 62.6955 28.6893 63.3108C29.3046 63.9262 30.0886 64.3452 30.9421 64.515C31.7956 64.6848 32.6803 64.5976 33.4843 64.2646C34.2883 63.9316 34.9755 63.3676 35.4589 62.6441C35.9424 61.9205 36.2005 61.0699 36.2005 60.1996C36.2005 60.0052 36.1232 59.8186 35.9857 59.6811C35.8481 59.5436 35.6616 59.4663 35.4671 59.4663ZM31.8005 63.1329C31.0866 63.1329 30.3971 62.8725 29.8614 62.4006C29.3257 61.9286 28.9805 61.2775 28.8906 60.5693C28.8006 59.861 28.972 59.1443 29.3727 58.5534C29.7734 57.9625 30.3759 57.538 31.0672 57.3595V60.1996C31.0672 60.3941 31.1445 60.5807 31.282 60.7182C31.4195 60.8557 31.606 60.933 31.8005 60.933H34.6407C34.4775 61.5623 34.1102 62.1197 33.5962 62.5178C33.0822 62.9159 32.4507 63.1323 31.8005 63.1329Z" fill="url(#paint14_linear)"/>
<defs>
<linearGradient id="paint0_linear" x1="0" y1="0" x2="0.621212" y2="52.8684" gradientUnits="userSpaceOnUse">
<stop stop-color="#F41E3D"/>
<stop offset="1" stop-color="#D5122E"/>
</linearGradient>
<linearGradient id="paint1_linear" x1="23" y1="25" x2="23.9159" y2="69.8793" gradientUnits="userSpaceOnUse">
<stop stop-color="#F41E3D"/>
<stop offset="1" stop-color="#D5122E"/>
</linearGradient>
<linearGradient id="paint2_linear" x1="23" y1="25" x2="23.9159" y2="69.8793" gradientUnits="userSpaceOnUse">
<stop stop-color="#F41E3D"/>
<stop offset="1" stop-color="#D5122E"/>
</linearGradient>
<linearGradient id="paint3_linear" x1="27.4006" y1="33.067" x2="27.6744" y2="37.54" gradientUnits="userSpaceOnUse">
<stop stop-color="#F41E3D"/>
<stop offset="1" stop-color="#D5122E"/>
</linearGradient>
<linearGradient id="paint4_linear" x1="30.3338" y1="29.4005" x2="31.2462" y2="37.5292" gradientUnits="userSpaceOnUse">
<stop stop-color="#F41E3D"/>
<stop offset="1" stop-color="#D5122E"/>
</linearGradient>
<linearGradient id="paint5_linear" x1="33.2672" y1="31.6004" x2="33.7526" y2="37.547" gradientUnits="userSpaceOnUse">
<stop stop-color="#F41E3D"/>
<stop offset="1" stop-color="#D5122E"/>
</linearGradient>
<linearGradient id="paint6_linear" x1="36.2004" y1="30.8671" x2="36.8137" y2="37.5453" gradientUnits="userSpaceOnUse">
<stop stop-color="#F41E3D"/>
<stop offset="1" stop-color="#D5122E"/>
</linearGradient>
<linearGradient id="paint7_linear" x1="51.7769" y1="30.4088" x2="51.8807" y2="38.096" gradientUnits="userSpaceOnUse">
<stop stop-color="#F41E3D"/>
<stop offset="1" stop-color="#D5122E"/>
</linearGradient>
<linearGradient id="paint8_linear" x1="51.6003" y1="58.733" x2="51.646" y2="60.9769" gradientUnits="userSpaceOnUse">
<stop stop-color="#F41E3D"/>
<stop offset="1" stop-color="#D5122E"/>
</linearGradient>
<linearGradient id="paint9_linear" x1="55.2668" y1="60.933" x2="55.3126" y2="63.1769" gradientUnits="userSpaceOnUse">
<stop stop-color="#F41E3D"/>
<stop offset="1" stop-color="#D5122E"/>
</linearGradient>
<linearGradient id="paint10_linear" x1="54.5335" y1="55.0665" x2="54.5793" y2="57.3104" gradientUnits="userSpaceOnUse">
<stop stop-color="#F41E3D"/>
<stop offset="1" stop-color="#D5122E"/>
</linearGradient>
<linearGradient id="paint11_linear" x1="58.2001" y1="57.2664" x2="58.2459" y2="59.5103" gradientUnits="userSpaceOnUse">
<stop stop-color="#F41E3D"/>
<stop offset="1" stop-color="#D5122E"/>
</linearGradient>
<linearGradient id="paint12_linear" x1="61.1334" y1="60.1996" x2="61.1792" y2="62.4435" gradientUnits="userSpaceOnUse">
<stop stop-color="#F41E3D"/>
<stop offset="1" stop-color="#D5122E"/>
</linearGradient>
<linearGradient id="paint13_linear" x1="33.2672" y1="53.5998" x2="33.374" y2="58.8356" gradientUnits="userSpaceOnUse">
<stop stop-color="#F41E3D"/>
<stop offset="1" stop-color="#D5122E"/>
</linearGradient>
<linearGradient id="paint14_linear" x1="27.4006" y1="55.7998" x2="27.5837" y2="64.7754" gradientUnits="userSpaceOnUse">
<stop stop-color="#F41E3D"/>
<stop offset="1" stop-color="#D5122E"/>
</linearGradient>
</defs>
</svg>
