<svg width="90" height="69" viewBox="0 0 90 69" fill="none" xmlns="http://www.w3.org/2000/svg">
<rect width="90" height="69" fill="black" fill-opacity="0"/>
<path d="M62.7273 13.6078C70.8004 13.6078 77.5927 19.4697 78.9271 27.2735C85.1421 27.8752 90 33.1027 90 39.4627C90 46.2265 84.5053 51.7097 77.7273 51.7097H69.5455C68.7923 51.7097 68.1818 51.1005 68.1818 50.3488C68.1818 49.5973 68.7923 48.9881 69.5455 48.9881H77.7273C82.9991 48.9881 87.2727 44.7234 87.2727 39.4627C87.2727 34.2018 82.9991 29.9372 77.7273 29.9372C77.0257 29.9372 76.4386 29.406 76.3701 28.7093C75.6827 21.7163 69.79 16.3293 62.7273 16.3293C61.4539 16.3293 60.2052 16.5032 59.0051 16.8422C58.3215 17.0353 57.6039 16.6722 57.3559 16.0079C54.3979 8.08477 46.7962 2.72156 38.1818 2.72156C28.7897 2.72156 20.6703 9.09249 18.3683 18.0423C18.2186 18.624 17.7045 19.0391 17.1031 19.0636C9.08559 19.3906 2.72727 25.9844 2.72727 34.0195C2.72727 42.2865 9.443 48.9881 17.7273 48.9881H20.4545C21.2077 48.9881 21.8182 49.5973 21.8182 50.3488C21.8182 51.1005 21.2077 51.7097 20.4545 51.7097H17.7273C7.93677 51.7097 0 43.7895 0 34.0195C0 24.859 6.99176 17.2843 15.9935 16.413C18.9192 6.77049 27.8734 0 38.1818 0C47.5314 0 55.8282 5.57457 59.4582 13.934C60.526 13.7178 61.6197 13.6078 62.7273 13.6078Z" fill="url(#paint0_linear)"/>
<path d="M61.6146 47.2783C59.7982 47.2783 58.1874 48.2078 57.2132 49.6374L49.6247 46.0356C49.7814 45.4648 49.8646 44.8688 49.8646 44.2475C49.8646 41.7217 48.4839 39.5343 46.4619 38.4331L49.2378 30.0576C49.4435 30.0879 49.6541 30.1031 49.8646 30.1031C52.572 30.1031 54.7604 27.8399 54.7604 25.0515C54.7604 22.263 52.572 20 49.8646 20C47.1621 20 44.9688 22.263 44.9688 25.0515C44.9688 26.9054 45.9381 28.5321 47.3873 29.406L44.6113 37.7814C44.249 37.7158 43.8769 37.6804 43.5 37.6804C41.571 37.6804 39.8427 38.5645 38.6776 39.9637L29.1258 33.8362C29.2384 33.4573 29.3021 33.0481 29.3021 32.6288C29.3021 30.396 27.5493 28.5876 25.3854 28.5876C23.2214 28.5876 21.4688 30.396 21.4688 32.6288C21.4688 34.8617 23.2214 36.6701 25.3854 36.6701C26.4331 36.6701 27.3829 36.2457 28.0878 35.5537L37.6397 41.6812C37.3165 42.4692 37.1354 43.3381 37.1354 44.2475C37.1354 45.3284 37.3899 46.3539 37.8404 47.2531L29.0818 53.8504C28.1172 52.9058 26.815 52.3299 25.3854 52.3299C22.4136 52.3299 20 54.8152 20 57.8866C20 60.9579 22.4136 63.4434 25.3854 63.4434C28.3621 63.4434 30.7708 60.9579 30.7708 57.8866C30.7708 57.0229 30.5799 56.2095 30.242 55.4821L39.0007 48.8898C40.1023 50.0264 41.6102 50.7533 43.2846 50.8094L44.5134 61.1999C43.0594 61.7865 42.0312 63.2463 42.0312 64.9588C42.0312 67.1916 43.7839 69 45.9479 69C48.1118 69 49.8646 67.1916 49.8646 64.9588C49.8646 62.9079 48.3811 61.2106 46.4619 60.9529L45.2331 50.5619C46.7165 50.1375 47.9797 49.1626 48.807 47.8694L56.3955 51.4711C56.2878 51.9055 56.2291 52.3653 56.2291 52.8351C56.2291 55.9064 58.6427 58.3918 61.6146 58.3918C64.5912 58.3918 67 55.9064 67 52.8351C67 49.7638 64.5912 47.2783 61.6146 47.2783ZM46.927 25.0515C46.927 23.3794 48.244 22.0205 49.8646 22.0205C51.485 22.0205 52.8021 23.3794 52.8021 25.0515C52.8021 26.7135 51.4997 28.0673 49.894 28.0824H49.8646C49.1742 28.0824 48.5427 27.8399 48.0433 27.4257C47.3628 26.8751 46.927 26.0163 46.927 25.0515ZM27.3388 32.6895C27.3192 33.4371 26.908 34.0787 26.3058 34.412C26.0317 34.5636 25.7183 34.6495 25.3854 34.6495C24.3034 34.6495 23.427 33.7453 23.427 32.6288C23.427 31.5124 24.3034 30.6082 25.3854 30.6082C26.4674 30.6082 27.3437 31.5124 27.3437 32.6288C27.3437 32.649 27.3437 32.6693 27.3388 32.6895ZM25.3854 61.4227C23.4956 61.4227 21.9583 59.8365 21.9583 57.8866C21.9583 55.9368 23.4956 54.3505 25.3854 54.3505C26.1639 54.3505 26.8786 54.6183 27.4563 55.0729C27.985 55.4826 28.3915 56.0529 28.6167 56.7096C28.744 57.0784 28.8125 57.4724 28.8125 57.8866C28.8125 59.8365 27.2752 61.4227 25.3854 61.4227ZM45.9479 62.9382C46.222 62.9382 46.4815 62.9988 46.7165 63.1049C47.4167 63.4079 47.9062 64.1253 47.9062 64.9588C47.9062 66.0752 47.0299 66.9795 45.9479 66.9795C44.866 66.9795 43.9895 66.0752 43.9895 64.9588C43.9895 64.3021 44.2931 63.7162 44.768 63.3473C45.096 63.0898 45.5073 62.9382 45.9479 62.9382ZM47.8132 45.1769C47.6766 45.8538 47.3926 46.4802 46.9956 47.0106C46.4864 47.6977 45.7912 48.228 44.9932 48.5211C44.5281 48.6978 44.0238 48.7938 43.5 48.7938C43.3482 48.7938 43.1964 48.7838 43.0447 48.7686C42.1193 48.6725 41.2773 48.2735 40.6115 47.6774C40.117 47.2329 39.7155 46.6722 39.4511 46.0408C39.221 45.4901 39.0937 44.8839 39.0937 44.2475C39.0937 43.7272 39.1769 43.232 39.3385 42.7673C39.5539 42.1156 39.9113 41.5297 40.3716 41.0498C41.1696 40.2162 42.276 39.7011 43.5 39.7011C43.6566 39.7011 43.8133 39.7111 43.9651 39.7262C44.6407 39.797 45.2674 40.0294 45.8157 40.383C47.069 41.1862 47.9062 42.6158 47.9062 44.2475C47.9062 44.5656 47.872 44.8789 47.8132 45.1769ZM61.6146 56.3712C59.7248 56.3712 58.1874 54.7849 58.1874 52.8351C58.1874 52.6683 58.1972 52.5016 58.2266 52.34C58.3147 51.6429 58.6085 51.0064 59.0443 50.5013C59.6709 49.7638 60.5913 49.299 61.6146 49.299C63.5043 49.299 65.0416 50.8852 65.0416 52.8351C65.0416 54.7849 63.5043 56.3712 61.6146 56.3712Z" fill="url(#paint1_linear)"/>
<defs>
<linearGradient id="paint0_linear" x1="0" y1="0" x2="0.618613" y2="52.7577" gradientUnits="userSpaceOnUse">
<stop stop-color="#F41E3D"/>
<stop offset="1" stop-color="#D5122E"/>
</linearGradient>
<linearGradient id="paint1_linear" x1="20" y1="20" x2="21.0634" y2="69.9774" gradientUnits="userSpaceOnUse">
<stop stop-color="#F41E3D"/>
<stop offset="1" stop-color="#D5122E"/>
</linearGradient>
</defs>
</svg>
