<svg width="90" height="69" viewBox="0 0 90 69" fill="none" xmlns="http://www.w3.org/2000/svg">
<rect width="90" height="69" fill="black" fill-opacity="0"/>
<path d="M62.7273 13.6364C70.8004 13.6364 77.5927 19.5106 78.9271 27.3307C85.1421 27.9337 90 33.1722 90 39.5455C90 46.3235 84.5053 51.8182 77.7273 51.8182H69.5455C68.7923 51.8182 68.1818 51.2077 68.1818 50.4545C68.1818 49.7014 68.7923 49.0909 69.5455 49.0909H77.7273C82.9991 49.0909 87.2727 44.8173 87.2727 39.5455C87.2727 34.2736 82.9991 30 77.7273 30C77.0257 30 76.4386 29.4677 76.3701 28.7695C75.6827 21.7619 69.79 16.3636 62.7273 16.3636C61.4539 16.3636 60.2052 16.5378 59.0051 16.8775C58.3215 17.071 57.6039 16.7072 57.3559 16.0415C54.3979 8.10174 46.7962 2.72727 38.1818 2.72727C28.7897 2.72727 20.6703 9.11157 18.3683 18.0802C18.2186 18.6631 17.7045 19.0791 17.1031 19.1036C9.08559 19.4313 2.72727 26.0389 2.72727 34.0909C2.72727 42.3752 9.443 49.0909 17.7273 49.0909H20.4545C21.2077 49.0909 21.8182 49.7014 21.8182 50.4545C21.8182 51.2077 21.2077 51.8182 20.4545 51.8182H17.7273C7.93677 51.8182 0 43.8814 0 34.0909C0 24.9112 6.99176 17.3206 15.9935 16.4474C18.9192 6.7847 27.8734 0 38.1818 0C47.5314 0 55.8282 5.58627 59.4582 13.9632C60.526 13.7466 61.6197 13.6364 62.7273 13.6364Z" fill="url(#paint0_linear)"/>
<path d="M24.7916 65.4C25.7811 65.4 26.5832 64.5941 26.5832 63.6C26.5832 53.658 34.6034 45.5999 44.5 45.5999C54.396 45.5999 62.4167 53.6573 62.4167 63.6C62.4167 64.5941 63.2189 65.4 64.2084 65.4C65.1979 65.4 66 64.5941 66 63.6C66 51.669 56.375 42 44.5 42C32.6243 42 23 51.6698 23 63.6C23 64.5941 23.8021 65.4 24.7916 65.4Z" fill="url(#paint1_linear)"/>
<path d="M48.2724 53.795L44.2853 61.8064C42.4063 61.9179 40.9166 63.4841 40.9166 65.4C40.9166 67.3883 42.521 69 44.5 69C46.479 69 48.0834 67.3883 48.0834 65.4C48.0834 64.6668 47.8651 63.9848 47.4905 63.416L51.4776 55.4049C51.9201 54.5157 51.5614 53.4347 50.6762 52.9901C49.7912 52.5455 48.715 52.9059 48.2724 53.795Z" fill="url(#paint2_linear)"/>
<defs>
<linearGradient id="paint0_linear" x1="0" y1="0" x2="0.832832" y2="61.2132" gradientUnits="userSpaceOnUse">
<stop stop-color="#F41E3D"/>
<stop offset="1" stop-color="#D5122E"/>
</linearGradient>
<linearGradient id="paint1_linear" x1="-14.6251" y1="-22.0803" x2="-13.5207" y2="58.7212" gradientUnits="userSpaceOnUse">
<stop stop-color="#F41E3D"/>
<stop offset="1" stop-color="#D5122E"/>
</linearGradient>
<linearGradient id="paint2_linear" x1="-14.6251" y1="-22.0803" x2="-13.5207" y2="58.7212" gradientUnits="userSpaceOnUse">
<stop stop-color="#F41E3D"/>
<stop offset="1" stop-color="#D5122E"/>
</linearGradient>
</defs>
</svg>
