<svg width="90" height="69" viewBox="0 0 90 69" fill="none" xmlns="http://www.w3.org/2000/svg">
<rect width="90" height="69" fill="black" fill-opacity="0"/>
<path d="M62.7273 13.6364C70.8004 13.6364 77.5927 19.5106 78.9271 27.3307C85.1421 27.9337 90 33.1722 90 39.5455C90 46.3235 84.5053 51.8182 77.7273 51.8182H69.5455C68.7923 51.8182 68.1818 51.2077 68.1818 50.4545C68.1818 49.7014 68.7923 49.0909 69.5455 49.0909H77.7273C82.9991 49.0909 87.2727 44.8173 87.2727 39.5455C87.2727 34.2736 82.9991 30 77.7273 30C77.0257 30 76.4386 29.4677 76.3701 28.7695C75.6827 21.7619 69.79 16.3636 62.7273 16.3636C61.4539 16.3636 60.2052 16.5378 59.0051 16.8775C58.3215 17.071 57.6039 16.7072 57.3559 16.0415C54.3979 8.10174 46.7962 2.72727 38.1818 2.72727C28.7897 2.72727 20.6703 9.11157 18.3683 18.0802C18.2186 18.6631 17.7045 19.0791 17.1031 19.1036C9.08559 19.4313 2.72727 26.0389 2.72727 34.0909C2.72727 42.3752 9.443 49.0909 17.7273 49.0909H20.4545C21.2077 49.0909 21.8182 49.7014 21.8182 50.4545C21.8182 51.2077 21.2077 51.8182 20.4545 51.8182H17.7273C7.93677 51.8182 0 43.8814 0 34.0909C0 24.9112 6.99176 17.3206 15.9935 16.4474C18.9192 6.7847 27.8734 0 38.1818 0C47.5314 0 55.8282 5.58627 59.4582 13.9632C60.526 13.7466 61.6197 13.6364 62.7273 13.6364Z" fill="url(#paint0_linear)"/>
<rect width="43" height="43" fill="black" fill-opacity="0" transform="translate(24 26)"/>
<path d="M58.7585 33.1666C58.5458 33.1666 58.338 33.2296 58.1612 33.3478C57.9844 33.4658 57.8466 33.6337 57.7653 33.8302C57.6839 34.0266 57.6626 34.2427 57.7041 34.4513C57.7456 34.6598 57.8479 34.8514 57.9983 35.0018C58.1486 35.1521 58.3402 35.2545 58.5487 35.296C58.7573 35.3375 58.9734 35.3162 59.1698 35.2347C59.3663 35.1534 59.5342 35.0156 59.6522 34.8389C59.7704 34.6621 59.8335 34.4542 59.8335 34.2416C59.8335 33.9565 59.7202 33.6831 59.5186 33.4815C59.317 33.2798 59.0436 33.1666 58.7585 33.1666Z" fill="url(#paint1_linear)"/>
<path d="M61.7735 26.2099C61.6391 26.0754 61.4568 26 61.2668 26C61.0767 26 60.8946 26.0754 60.7601 26.2099L55.0267 31.9432C54.8923 32.0776 54.8168 32.2599 54.8168 32.4499V37.4666C54.8168 37.6566 54.8923 37.8389 55.0266 37.9734C55.1611 38.1078 55.3434 38.1833 55.5335 38.1833H60.5502C60.7402 38.1832 60.9224 38.1077 61.0568 37.9733L66.7901 32.24C66.9246 32.1055 67 31.9232 67 31.7332C67 31.5432 66.9246 31.3609 66.7901 31.2266L61.7735 26.2099ZM60.2534 36.7499H56.2501V32.7466L61.2668 27.7299L65.2701 31.7332L60.2534 36.7499Z" fill="url(#paint2_linear)"/>
<path d="M24.7167 50.3667H26.8667V50.4584C26.8681 51.0847 27.0812 51.6921 27.4716 52.1819C27.862 52.6716 28.4065 53.015 29.0167 53.156V59.6834C29.0167 59.8736 29.0922 60.0558 29.2266 60.1903C29.361 60.3246 29.5433 60.4001 29.7334 60.4001H34.0334C34.2234 60.4001 34.4057 60.3246 34.5401 60.1903C34.6746 60.0558 34.75 59.8736 34.75 59.6834V56.8167H35.4724C36.0407 56.8152 36.5852 56.5888 36.987 56.1871C37.3888 55.7853 37.6152 55.2407 37.6167 54.6725V53.156C38.0672 53.0503 38.4841 52.8336 38.8293 52.5255C39.1746 52.2175 39.4372 51.8279 39.5933 51.3923L51.6591 56.7551C51.7683 56.8036 51.8877 56.824 52.0067 56.8146C52.1258 56.8051 52.2406 56.7661 52.3407 56.7011C52.4409 56.6359 52.5231 56.5469 52.58 56.442C52.637 56.337 52.6668 56.2195 52.6668 56.1001V38.8999C52.6668 38.7806 52.637 38.6631 52.58 38.5581C52.5231 38.4531 52.4409 38.3641 52.3407 38.2991C52.2406 38.2339 52.1258 38.1949 52.0067 38.1855C51.8877 38.176 51.7683 38.1964 51.6591 38.2449L39.5933 43.6078C39.402 43.0704 39.0494 42.6051 38.5838 42.2756C38.1182 41.946 37.5622 41.7683 36.9918 41.7666H29.6416C28.9059 41.7674 28.2005 42.0601 27.6802 42.5803C27.16 43.1005 26.8674 43.8059 26.8667 44.5416V44.6333H24.7167C24.5266 44.6333 24.3443 44.7089 24.21 44.8433C24.0755 44.9777 24 45.16 24 45.35V49.65C24 49.8402 24.0755 50.0224 24.21 50.1568C24.3443 50.2912 24.5266 50.3667 24.7167 50.3667ZM48.3668 41.2764L51.2334 40.003V54.9972L48.3668 53.7236V41.2764ZM39.7667 45.0992L46.9334 41.9136V53.0901L39.7667 49.9009V45.0992ZM33.3167 56.1001V58.9668H30.45V53.2334H33.3167V56.1001ZM36.1834 54.6725C36.1832 54.861 36.1082 55.0417 35.9749 55.175C35.8416 55.3083 35.6609 55.3832 35.4724 55.3834H34.75V53.2334H36.1834V54.6725ZM28.3 49.65V44.5416C28.3004 44.1859 28.4419 43.8449 28.6934 43.5934C28.9449 43.3418 29.2859 43.2004 29.6416 43.2H36.9918C37.3475 43.2004 37.6885 43.3418 37.94 43.5934C38.1915 43.8449 38.333 44.1859 38.3334 44.5416V50.4584C38.333 50.8141 38.1915 51.1552 37.94 51.4067C37.6885 51.6582 37.3475 51.7996 36.9918 51.8H29.6416C29.2859 51.7996 28.9449 51.6582 28.6934 51.4067C28.4419 51.1552 28.3004 50.8141 28.3 50.4584V49.65ZM25.4333 46.0667H26.8667V48.9334H25.4333V46.0667Z" fill="url(#paint3_linear)"/>
<path d="M59.6959 54.1807C59.5615 54.0464 59.3792 53.9708 59.1891 53.9708C58.9991 53.9708 58.8169 54.0464 58.6825 54.1807L53.6142 59.249C53.4799 59.3834 53.4043 59.5656 53.4043 59.7556C53.4043 59.9457 53.4799 60.128 53.6142 60.2624L60.7092 67.3574C60.8436 67.4918 61.0259 67.5672 61.2159 67.5672C61.406 67.5672 61.5882 67.4918 61.7226 67.3574L66.7901 62.2898C66.9246 62.1554 67 61.9731 67 61.7832C67 61.5931 66.9246 61.4109 66.7901 61.2764L59.6959 54.1807ZM64.4073 60.9174L60.363 60.607L60.052 56.5629L64.4073 60.9174ZM61.2159 65.8352L55.1342 59.755L58.5936 56.2955L58.9813 61.3295C58.9943 61.5001 59.068 61.6604 59.1889 61.7815C59.3098 61.9025 59.47 61.9763 59.6406 61.9896L64.6753 62.3766L61.2159 65.8352Z" fill="url(#paint4_linear)"/>
<path d="M43.3501 39.6166C44.2813 39.6187 45.1947 39.3611 45.9876 38.8726C46.7805 38.3842 47.4214 37.6843 47.8384 36.8516C48.2553 36.0188 48.4318 35.0863 48.3478 34.1589C48.264 33.2314 47.9231 32.3457 47.3634 31.6013L51.7415 27.2231L50.7267 26.2098L46.3486 30.5865C45.7123 30.1093 44.9717 29.7902 44.1878 29.6555C43.4038 29.5209 42.5991 29.5747 41.84 29.8122C41.081 30.0498 40.3893 30.4645 39.822 31.0221C39.2548 31.5796 38.8282 32.2641 38.5776 33.0189C38.3269 33.7738 38.2594 34.5775 38.3804 35.3635C38.5015 36.1497 38.8077 36.8957 39.2739 37.5402C39.7401 38.1847 40.3528 38.709 41.0616 39.07C41.7703 39.431 42.5547 39.6184 43.3501 39.6166ZM43.3501 31.0165C44.0588 31.0165 44.7516 31.2267 45.3409 31.6205C45.9302 32.0142 46.3894 32.5738 46.6606 33.2286C46.9319 33.8834 47.0029 34.6039 46.8646 35.299C46.7263 35.9941 46.3851 36.6326 45.8839 37.1337C45.3828 37.6348 44.7442 37.9761 44.0491 38.1144C43.354 38.2526 42.6336 38.1817 41.9788 37.9105C41.324 37.6392 40.7644 37.18 40.3707 36.5907C39.9768 36.0014 39.7667 35.3086 39.7667 34.5999C39.7678 33.6499 40.1458 32.7391 40.8175 32.0674C41.4893 31.3955 42.4001 31.0177 43.3501 31.0165Z" fill="url(#paint5_linear)"/>
<path d="M54.8168 51.0834H58.4001V51.8C58.4001 51.9901 58.4756 52.1724 58.6101 52.3068C58.7445 52.4412 58.9268 52.5167 59.1168 52.5167H64.8501C65.0402 52.5167 65.2225 52.4412 65.3569 52.3068C65.4913 52.1724 65.5668 51.9901 65.5668 51.8V48.2302C65.5649 47.6364 65.3793 47.0576 65.0352 46.5733C64.6912 46.0892 64.2057 45.7234 63.6454 45.5263C64.1407 45.1739 64.5111 44.6732 64.7032 44.0966C64.8952 43.52 64.8992 42.8971 64.7142 42.3182C64.5292 41.7392 64.165 41.234 63.6741 40.8755C63.1834 40.517 62.5913 40.3239 61.9835 40.3239C61.3757 40.3239 60.7836 40.517 60.2928 40.8755C59.8019 41.234 59.4377 41.7392 59.2527 42.3182C59.0678 42.8971 59.0716 43.52 59.2637 44.0966C59.4558 44.6732 59.8263 45.1739 60.3215 45.5263C59.8577 45.6918 59.4442 45.9736 59.1203 46.3447C58.8705 46.0569 58.5656 45.8218 58.2238 45.6531C58.5928 45.3873 58.8679 45.0112 59.0097 44.5792C59.1514 44.1471 59.1525 43.6812 59.0128 43.2484C58.8731 42.8157 58.5999 42.4383 58.2322 42.1707C57.8646 41.9031 57.4216 41.7588 56.9668 41.7588C56.512 41.7588 56.069 41.9031 55.7014 42.1707C55.3337 42.4383 55.0604 42.8157 54.9207 43.2484C54.781 43.6812 54.7821 44.1471 54.9239 44.5792C55.0657 45.0112 55.3408 45.3873 55.7097 45.6531C55.2285 45.8871 54.8226 46.2513 54.538 46.7045C54.2535 47.1577 54.1018 47.6816 54.1001 48.2167V50.3667C54.1001 50.5567 54.1756 50.739 54.3101 50.8734C54.4444 51.0079 54.6267 51.0834 54.8168 51.0834ZM61.9835 41.7666C62.2669 41.7666 62.5441 41.8507 62.7797 42.0081C63.0155 42.1657 63.1992 42.3895 63.3077 42.6515C63.4161 42.9134 63.4446 43.2016 63.3892 43.4796C63.334 43.7577 63.1974 44.0131 62.997 44.2135C62.7966 44.414 62.5411 44.5505 62.2631 44.6058C61.9851 44.6611 61.6969 44.6327 61.435 44.5242C61.173 44.4157 60.9492 44.232 60.7916 43.9963C60.6342 43.7606 60.5501 43.4834 60.5501 43.2C60.5501 42.8198 60.7012 42.4553 60.9699 42.1864C61.2388 41.9177 61.6033 41.7666 61.9835 41.7666ZM59.8335 50.3667V48.2302C59.8341 47.8467 59.9866 47.479 60.2579 47.2078C60.5292 46.9365 60.8968 46.7839 61.2804 46.7833H62.6865C63.0701 46.7839 63.4378 46.9365 63.709 47.2078C63.9803 47.479 64.1329 47.8467 64.1335 48.2302V51.0834H59.8335V50.3667ZM56.9668 43.2C57.1085 43.2 57.247 43.242 57.3649 43.3208C57.4828 43.3995 57.5747 43.5115 57.6289 43.6424C57.6831 43.7733 57.6973 43.9174 57.6697 44.0564C57.642 44.1954 57.5737 44.3231 57.4735 44.4234C57.3733 44.5236 57.2456 44.5919 57.1066 44.6196C56.9675 44.6472 56.8235 44.633 56.6925 44.5788C56.5616 44.5245 56.4497 44.4327 56.3709 44.3148C56.2922 44.1969 56.2501 44.0584 56.2501 43.9166C56.2501 43.7266 56.3256 43.5443 56.4601 43.4099C56.5944 43.2754 56.7767 43.2 56.9668 43.2ZM55.5334 48.2167C55.5334 47.8365 55.6845 47.4719 55.9532 47.2031C56.2221 46.9344 56.5866 46.7833 56.9668 46.7833C57.3469 46.7833 57.7115 46.9344 57.9803 47.2031C58.2491 47.4719 58.4001 47.8365 58.4001 48.2167V49.65H55.5334V48.2167Z" fill="url(#paint6_linear)"/>
<path d="M44.0667 55.3833H41.2001C41.01 55.3833 40.8278 55.4588 40.6934 55.5933L36.3934 59.8933C36.259 60.0277 36.1835 60.21 36.1835 60.4C36.1835 60.59 36.259 60.7723 36.3934 60.9066L44.2767 68.79C44.4111 68.9244 44.5934 68.9999 44.7834 68.9999C44.9734 68.9999 45.1557 68.9244 45.2901 68.79L51.0234 63.0567C51.1578 62.9223 51.2333 62.74 51.2333 62.55C51.2333 62.36 51.1578 62.1777 51.0234 62.0433L44.5734 55.5933C44.439 55.4588 44.2568 55.3833 44.0667 55.3833ZM44.7834 67.27L37.9134 60.4L41.4968 56.8166H43.77L49.5034 62.55L44.7834 67.27Z" fill="url(#paint7_linear)"/>
<path d="M43.5605 58.46L40.6937 61.3268L41.7073 62.3402L44.574 59.4735L43.5605 58.46Z" fill="url(#paint8_linear)"/>
<path d="M45.7102 60.61L42.8434 63.4768L43.857 64.4903L46.7237 61.6235L45.7102 60.61Z" fill="url(#paint9_linear)"/>
<defs>
<linearGradient id="paint0_linear" x1="0" y1="0" x2="0.621212" y2="52.8684" gradientUnits="userSpaceOnUse">
<stop stop-color="#F41E3D"/>
<stop offset="1" stop-color="#D5122E"/>
</linearGradient>
<linearGradient id="paint1_linear" x1="57.6834" y1="33.1666" x2="57.7282" y2="35.3595" gradientUnits="userSpaceOnUse">
<stop stop-color="#F41E3D"/>
<stop offset="1" stop-color="#D5122E"/>
</linearGradient>
<linearGradient id="paint2_linear" x1="54.8168" y1="26" x2="55.0704" y2="38.4267" gradientUnits="userSpaceOnUse">
<stop stop-color="#F41E3D"/>
<stop offset="1" stop-color="#D5122E"/>
</linearGradient>
<linearGradient id="paint3_linear" x1="24" y1="38.1832" x2="24.3585" y2="60.8479" gradientUnits="userSpaceOnUse">
<stop stop-color="#F41E3D"/>
<stop offset="1" stop-color="#D5122E"/>
</linearGradient>
<linearGradient id="paint4_linear" x1="53.4043" y1="53.9708" x2="53.6874" y2="67.839" gradientUnits="userSpaceOnUse">
<stop stop-color="#F41E3D"/>
<stop offset="1" stop-color="#D5122E"/>
</linearGradient>
<linearGradient id="paint5_linear" x1="38.3219" y1="26.2098" x2="38.6007" y2="39.8845" gradientUnits="userSpaceOnUse">
<stop stop-color="#F41E3D"/>
<stop offset="1" stop-color="#D5122E"/>
</linearGradient>
<linearGradient id="paint6_linear" x1="54.1001" y1="40.3239" x2="54.37" y2="52.7596" gradientUnits="userSpaceOnUse">
<stop stop-color="#F41E3D"/>
<stop offset="1" stop-color="#D5122E"/>
</linearGradient>
<linearGradient id="paint7_linear" x1="36.1835" y1="55.3833" x2="36.44" y2="69.273" gradientUnits="userSpaceOnUse">
<stop stop-color="#F41E3D"/>
<stop offset="1" stop-color="#D5122E"/>
</linearGradient>
<linearGradient id="paint8_linear" x1="40.6937" y1="61.3268" x2="41.7353" y2="62.3534" gradientUnits="userSpaceOnUse">
<stop stop-color="#F41E3D"/>
<stop offset="1" stop-color="#D5122E"/>
</linearGradient>
<linearGradient id="paint9_linear" x1="42.8434" y1="63.4768" x2="43.8851" y2="64.5034" gradientUnits="userSpaceOnUse">
<stop stop-color="#F41E3D"/>
<stop offset="1" stop-color="#D5122E"/>
</linearGradient>
</defs>
</svg>
