<svg width="90" height="69" viewBox="0 0 90 69" fill="none" xmlns="http://www.w3.org/2000/svg">
<rect width="90" height="69.0001" fill="black" fill-opacity="0"/>
<path d="M62.7273 13.6364C70.8004 13.6364 77.5927 19.5106 78.9271 27.3307C85.1421 27.9337 90 33.1722 90 39.5455C90 46.3235 84.5053 51.8182 77.7273 51.8182H69.5455C68.7923 51.8182 68.1818 51.2077 68.1818 50.4545C68.1818 49.7014 68.7923 49.0909 69.5455 49.0909H77.7273C82.9991 49.0909 87.2727 44.8173 87.2727 39.5455C87.2727 34.2736 82.9991 30 77.7273 30C77.0257 30 76.4386 29.4677 76.3701 28.7695C75.6827 21.7619 69.79 16.3636 62.7273 16.3636C61.4539 16.3636 60.2052 16.5378 59.0051 16.8775C58.3215 17.071 57.6039 16.7072 57.3559 16.0415C54.3979 8.10174 46.7962 2.72727 38.1818 2.72727C28.7897 2.72727 20.6703 9.11157 18.3683 18.0802C18.2186 18.6631 17.7045 19.0791 17.1031 19.1036C9.08559 19.4313 2.72727 26.0389 2.72727 34.0909C2.72727 42.3752 9.443 49.0909 17.7273 49.0909H20.4545C21.2077 49.0909 21.8182 49.7014 21.8182 50.4545C21.8182 51.2077 21.2077 51.8182 20.4545 51.8182H17.7273C7.93677 51.8182 0 43.8814 0 34.0909C0 24.9112 6.99176 17.3206 15.9935 16.4474C18.9192 6.7847 27.8734 0 38.1818 0C47.5314 0 55.8282 5.58627 59.4582 13.9632C60.526 13.7466 61.6197 13.6364 62.7273 13.6364Z" fill="url(#paint0_linear)"/>
<rect width="47" height="46.0001" fill="black" fill-opacity="0" transform="translate(22 23)"/>
<path d="M32.4872 52.9447C32.9664 53.7875 33.5913 54.6733 34.2524 55.6118C35.6508 57.5941 37.2072 59.8261 37.3768 61.7638C37.0851 61.969 36.8484 62.2421 36.6873 62.5591C36.5261 62.8762 36.4453 63.2277 36.4522 63.5829C36.4543 64.1008 36.6343 64.6026 36.9622 65.0049C36.7364 65.2264 36.5576 65.4907 36.4361 65.7821C36.3146 66.0734 36.253 66.386 36.2549 66.7014C36.2549 67.3111 36.4984 67.8957 36.9319 68.3268C37.3654 68.7578 37.9533 69.0001 38.5663 69.0001H51.6648C51.9723 68.9982 52.2765 68.9357 52.5595 68.8161C52.8427 68.6966 53.0991 68.5224 53.3141 68.3036C53.529 68.0848 53.6982 67.8259 53.812 67.5416C53.9256 67.2574 53.9814 66.9535 53.9762 66.6477C53.9759 66.3394 53.913 66.0341 53.7912 65.7506C53.6693 65.4669 53.4912 65.2107 53.2673 64.9973C53.599 64.5791 53.7793 64.0619 53.7789 63.5293C53.7785 63.2325 53.7175 62.9388 53.5997 62.6661C53.482 62.3934 53.31 62.1473 53.0939 61.9425C52.8779 61.7377 52.6225 61.5785 52.343 61.4746C52.0634 61.3707 51.7656 61.3242 51.4675 61.3379H45.8853V46.7528H47.4263V49.0515C47.4263 49.2548 47.5074 49.4496 47.6519 49.5933C47.7964 49.737 47.9924 49.8177 48.1967 49.8177H50.5082V50.725C49.9941 50.9057 49.5608 51.2613 49.2849 51.7291C49.009 52.1967 48.9083 52.7464 49.0006 53.2808C49.0927 53.8152 49.372 54.3001 49.7889 54.6496C50.2058 54.9991 50.7335 55.1908 51.2787 55.1908C51.824 55.1908 52.3517 54.9991 52.7686 54.6496C53.1854 54.3001 53.4647 53.8152 53.5569 53.2808C53.6491 52.7464 53.5484 52.1967 53.2724 51.7291C52.9965 51.2613 52.5633 50.9057 52.0492 50.725V49.0515C52.0492 48.8483 51.968 48.6535 51.8235 48.5097C51.679 48.366 51.4831 48.2853 51.2787 48.2853H48.9672V46.7528H52.0492C52.2535 46.7528 52.4495 46.6722 52.5941 46.5285C52.7385 46.3847 52.8197 46.1899 52.8197 45.9866V44.4542H57.5844C57.7662 44.9654 58.1239 45.3963 58.5941 45.6706C59.0644 45.945 59.6172 46.0453 60.1546 45.9535C60.6919 45.8618 61.1794 45.5842 61.531 45.1696C61.8824 44.755 62.0751 44.2303 62.0751 43.6879C62.0751 43.1457 61.8824 42.621 61.531 42.2064C61.1794 41.7918 60.6919 41.5141 60.1546 41.4224C59.6172 41.3307 59.0644 41.4309 58.5941 41.7053C58.1239 41.9797 57.7662 42.4105 57.5844 42.9217H52.8197V39.8568H55.9017C56.106 39.8568 56.302 39.7762 56.4464 39.6325C56.5909 39.4887 56.6721 39.2939 56.6721 39.0906V35.8848C57.1862 35.7041 57.6195 35.3484 57.8954 34.8807C58.1713 34.4129 58.272 33.8633 58.1798 33.3288C58.0877 32.7944 57.8084 32.3097 57.3915 31.9602C56.9746 31.6106 56.4469 31.4189 55.9017 31.4189C55.3564 31.4189 54.8287 31.6106 54.4118 31.9602C53.9949 32.3097 53.7157 32.7944 53.6235 33.3288C53.5312 33.8633 53.6321 34.4129 53.908 34.8807C54.1838 35.3484 54.6171 35.7041 55.1311 35.8848V38.3244H52.8197V36.7919C52.8197 36.5888 52.7385 36.3939 52.5941 36.2502C52.4495 36.1065 52.2535 36.0257 52.0492 36.0257H50.5082V32.0537C51.0223 31.8729 51.4556 31.5173 51.7315 31.0496C52.0074 30.5818 52.1081 30.0322 52.0158 29.4978C51.9237 28.9633 51.6444 28.4786 51.2275 28.1291C50.8107 27.7795 50.283 27.5878 49.7378 27.5878C49.1924 27.5878 48.6647 27.7795 48.2479 28.1291C47.831 28.4786 47.5518 28.9633 47.4596 29.4978C47.3673 30.0322 47.4681 30.5818 47.744 31.0496C48.0199 31.5173 48.4531 31.8729 48.9672 32.0537V36.0257H45.8853V23.7931C45.8853 23.5898 45.8041 23.395 45.6596 23.2513C45.515 23.1075 45.3192 23.0269 45.1147 23.0269C35.61 23.0269 28.1639 29.8707 28.1639 38.6065C28.1639 42.7563 29.8205 48.2508 32.4872 52.9447ZM51.2787 52.1164C51.431 52.1164 51.58 52.1614 51.7067 52.2455C51.8335 52.3297 51.9322 52.4494 51.9906 52.5894C52.0489 52.7294 52.0641 52.8834 52.0344 53.0321C52.0047 53.1807 51.9312 53.3173 51.8235 53.4244C51.7158 53.5316 51.5785 53.6046 51.4291 53.6341C51.2796 53.6637 51.1246 53.6485 50.9838 53.5905C50.8431 53.5325 50.7228 53.4343 50.638 53.3083C50.5534 53.1823 50.5082 53.0342 50.5082 52.8826C50.5082 52.6794 50.5894 52.4845 50.7339 52.3408C50.8783 52.1971 51.0743 52.1164 51.2787 52.1164ZM59.7542 42.9217C59.9064 42.9217 60.0554 42.9667 60.1822 43.0509C60.3089 43.1351 60.4076 43.2547 60.466 43.3947C60.5243 43.5347 60.5395 43.6889 60.5098 43.8375C60.4801 43.9861 60.4066 44.1226 60.2989 44.2298C60.1911 44.3369 60.0539 44.4099 59.9044 44.4395C59.755 44.469 59.6 44.4539 59.4592 44.3959C59.3185 44.3378 59.1982 44.2397 59.1134 44.1136C59.0288 43.9876 58.9836 43.8395 58.9836 43.6879C58.9836 43.4847 59.0648 43.2899 59.2093 43.1462C59.3538 43.0025 59.5497 42.9217 59.7542 42.9217ZM55.9017 32.9608C56.0541 32.9608 56.203 33.0058 56.3297 33.09C56.4564 33.1742 56.5552 33.2939 56.6135 33.4339C56.6718 33.5739 56.6871 33.728 56.6573 33.8766C56.6276 34.0252 56.5543 34.1618 56.4464 34.2689C56.3387 34.3761 56.2014 34.449 56.052 34.4786C55.9025 34.5082 55.7475 34.493 55.6068 34.435C55.466 34.3771 55.3457 34.2788 55.261 34.1528C55.1764 34.0268 55.1311 33.8786 55.1311 33.7272C55.1311 33.5239 55.2123 33.329 55.3568 33.1853C55.5014 33.0416 55.6974 32.9608 55.9017 32.9608ZM49.7378 29.1298C49.8902 29.1298 50.039 29.1747 50.1658 29.2589C50.2925 29.3431 50.3913 29.4628 50.4496 29.6028C50.5079 29.7429 50.5231 29.8969 50.4934 30.0455C50.4637 30.1941 50.3904 30.3307 50.2825 30.4378C50.1747 30.545 50.0375 30.6179 49.888 30.6475C49.7386 30.6771 49.5836 30.6619 49.4428 30.6039C49.3021 30.546 49.1817 30.4477 49.097 30.3217C49.0124 30.1957 48.9672 30.0475 48.9672 29.8961C48.9672 29.6928 49.0484 29.4979 49.1929 29.3542C49.3374 29.2106 49.5334 29.1298 49.7378 29.1298ZM45.8853 37.5583H51.2787V45.2204H45.8853V37.5583ZM51.6639 67.4676H38.5656C38.4603 67.4659 38.3565 67.4432 38.2602 67.4006C38.1639 67.3581 38.0773 67.2968 38.0054 67.2203C37.9335 67.1438 37.8778 67.0537 37.8417 66.9553C37.8055 66.8569 37.7897 66.7523 37.7951 66.6477C37.7951 66.4445 37.8763 66.2496 38.0208 66.106C38.1653 65.9623 38.3613 65.8815 38.5656 65.8815H51.6639C51.7692 65.8833 51.8731 65.906 51.9693 65.9485C52.0655 65.991 52.1523 66.0523 52.2242 66.1288C52.2961 66.2054 52.3518 66.2955 52.3879 66.3939C52.424 66.4922 52.4398 66.5968 52.4344 66.7014C52.4344 66.9046 52.3533 67.0994 52.2088 67.2432C52.0643 67.3869 51.8683 67.4676 51.6639 67.4676ZM51.4667 62.8703C51.5656 62.8612 51.6653 62.873 51.7593 62.9048C51.8533 62.9367 51.9395 62.988 52.0122 63.0552C52.0849 63.1225 52.1425 63.2042 52.1813 63.2951C52.2201 63.3861 52.2391 63.4841 52.2372 63.5829C52.2372 63.786 52.156 63.981 52.0115 64.1247C51.867 64.2683 51.6711 64.3491 51.4667 64.3491H38.7628C38.6575 64.3474 38.5536 64.3246 38.4574 64.2821C38.3612 64.2397 38.2746 64.1783 38.2027 64.1018C38.1308 64.0252 38.0751 63.9351 38.0389 63.8368C38.0028 63.7384 37.9869 63.6338 37.9923 63.5293C37.996 63.4344 38.0193 63.3415 38.0607 63.256C38.1021 63.1706 38.1608 63.0945 38.2331 63.0327C38.3055 62.9709 38.3898 62.9245 38.4809 62.8966C38.5721 62.8686 38.6681 62.8597 38.7628 62.8703H51.4667ZM39.6382 47.8148C39.283 47.5152 38.9531 47.1872 38.6519 46.8341C38.5525 46.7184 38.4208 46.6348 38.2733 46.5938C38.1259 46.5529 37.9697 46.5564 37.8244 46.6042L36.8065 46.9367C36.5534 46.5679 36.3258 46.1824 36.1254 45.7828L36.9337 45.0626C37.0479 44.9608 37.1291 44.8276 37.1667 44.6798C37.2043 44.5319 37.1966 44.3763 37.1448 44.2327C36.9876 43.7984 36.8667 43.352 36.7834 42.898C36.756 42.748 36.6843 42.6096 36.5774 42.5004C36.4705 42.3912 36.3332 42.3163 36.1832 42.285L35.1262 42.0635C35.1076 41.8261 35.0984 41.6039 35.0984 41.3916C35.0984 41.1794 35.1076 40.9572 35.1262 40.7196L36.1832 40.4982C36.3332 40.467 36.4705 40.392 36.5774 40.2827C36.6843 40.1736 36.756 40.0352 36.7834 39.8853C36.8668 39.4309 36.9876 38.9843 37.1448 38.5497C37.1966 38.4062 37.2043 38.2506 37.1667 38.1027C37.1291 37.9549 37.0479 37.8216 36.9337 37.7198L36.1254 37.0004C36.3264 36.6011 36.554 36.2156 36.8065 35.8465L37.8244 36.1791C37.9699 36.2261 38.1261 36.2296 38.2735 36.1886C38.4209 36.1477 38.5528 36.0644 38.6527 35.9492C38.9543 35.5954 39.2844 35.2666 39.6397 34.9661C39.7559 34.8674 39.8399 34.7364 39.881 34.59C39.9222 34.4436 39.9186 34.2884 39.8708 34.144L39.5372 33.1318C39.9068 32.8806 40.2929 32.6543 40.693 32.4544L41.4172 33.2582C41.5195 33.3718 41.6535 33.4525 41.8022 33.4899C41.9508 33.5272 42.1073 33.5197 42.2516 33.4681C42.6881 33.3112 43.1371 33.191 43.5938 33.1088C43.7446 33.0815 43.8838 33.0102 43.9935 32.9039C44.1034 32.7975 44.1788 32.661 44.2102 32.5119L44.3443 31.9043V34.5385C42.6536 34.732 41.0934 35.537 39.9609 36.8003C38.8284 38.0635 38.2025 39.6969 38.2025 41.3893C38.2025 43.0818 38.8284 44.715 39.9609 45.9784C41.0934 47.2416 42.6536 48.0466 44.3443 48.24V50.8751L44.2163 50.2721C44.1851 50.1227 44.1097 49.9862 44 49.8796C43.8901 49.7733 43.7509 49.7018 43.6 49.6744C43.1433 49.5921 42.6943 49.4719 42.2578 49.3151C42.1742 49.2854 42.0862 49.2701 41.9973 49.2699C41.889 49.2699 41.782 49.2926 41.683 49.3366C41.5841 49.3806 41.4956 49.4448 41.4233 49.5251L40.6991 50.3288C40.2975 50.1292 39.9097 49.903 39.5388 49.6514L39.8732 48.6393C39.921 48.4942 39.9243 48.3382 39.8823 48.1913C39.8405 48.0445 39.7554 47.9133 39.6382 47.8148ZM44.3443 36.0871V46.6916C43.0615 46.5083 41.8882 45.8714 41.0395 44.8975C40.1908 43.9236 39.7235 42.6781 39.7235 41.3893C39.7235 40.1005 40.1908 38.855 41.0395 37.8812C41.8882 36.9073 43.0615 36.2703 44.3443 36.0871ZM44.3443 24.5761V29.929C44.1401 29.9443 43.9313 29.9627 43.7079 29.9895C43.5482 30.0087 43.3988 30.0771 43.2802 30.1852C43.1616 30.2932 43.08 30.4353 43.0467 30.5917L42.8156 31.702C42.6222 31.748 42.4303 31.7993 42.237 31.8552L41.4665 31.0033C41.3591 30.8839 41.2169 30.8011 41.0598 30.7663C40.9027 30.7316 40.7386 30.7466 40.5904 30.8093C39.7282 31.1792 38.9143 31.6519 38.1665 32.2169C38.0381 32.3132 37.9431 32.4471 37.8949 32.5997C37.8469 32.7524 37.8481 32.9161 37.8983 33.0682L38.252 34.1409C38.1061 34.2773 37.9646 34.418 37.8275 34.5631L36.7487 34.2113C36.5961 34.1622 36.4318 34.1613 36.2786 34.209C36.1254 34.2566 35.9908 34.3503 35.8936 34.4772C35.3263 35.2216 34.8523 36.0318 34.482 36.8901C34.4189 37.0374 34.4038 37.2005 34.4388 37.3568C34.4737 37.5131 34.557 37.6545 34.677 37.7612L35.5337 38.5274C35.4756 38.719 35.4243 38.9109 35.3796 39.1029L34.2631 39.3328C34.1059 39.3658 33.9629 39.447 33.8543 39.5649C33.7457 39.6827 33.6769 39.8315 33.6575 39.9902C33.5323 40.9187 33.5323 41.8598 33.6575 42.7885C33.6769 42.9471 33.7457 43.0958 33.8543 43.2138C33.9629 43.3316 34.1059 43.4128 34.2631 43.4459L35.3796 43.6757C35.4258 43.8683 35.4773 44.0601 35.5337 44.2511L34.677 45.0173C34.557 45.1242 34.4737 45.2656 34.4388 45.4218C34.4038 45.5781 34.4189 45.7413 34.482 45.8885C34.8538 46.7468 35.3293 47.5568 35.8981 48.3007C35.9956 48.4276 36.1303 48.5214 36.2837 48.569C36.437 48.6167 36.6014 48.6157 36.7541 48.5665L37.8329 48.2148C37.97 48.3599 38.1115 48.5006 38.2574 48.6369L37.9037 49.7097C37.8533 49.8616 37.852 50.0253 37.9 50.1779C37.948 50.3307 38.0428 50.4646 38.1711 50.5609C38.9188 51.1268 39.7331 51.5999 40.5958 51.9701C40.744 52.0328 40.9081 52.0478 41.0652 52.0131C41.2223 51.9783 41.3645 51.8955 41.4719 51.7761L42.2423 50.9242C42.4342 50.9824 42.6276 51.0338 42.821 51.0774L43.0521 52.1868C43.0853 52.3434 43.1667 52.4856 43.285 52.5938C43.4035 52.7018 43.5529 52.7705 43.7125 52.7899C43.936 52.8167 44.1448 52.8359 44.3497 52.8504V61.3379H38.8962C38.581 59.0806 36.9607 56.7827 35.5144 54.7315C34.875 53.8243 34.2709 52.9692 33.8294 52.1907C31.3229 47.7811 29.705 42.449 29.705 38.6065C29.705 30.9687 36.0746 24.9302 44.3443 24.5761Z" fill="url(#paint1_linear)"/>
<path d="M51.8257 59.5489L53.2581 60.1135C53.4421 59.6606 53.6546 59.2197 53.8946 58.7933L52.5454 58.0525C52.2737 58.5355 52.0334 59.0354 51.8257 59.5489Z" fill="url(#paint2_linear)"/>
<path d="M55.5433 56.2278L54.279 55.3528C53.9754 55.7849 53.6734 56.2248 53.3845 56.6691L54.678 57.5012C54.9578 57.0721 55.2506 56.6469 55.5433 56.2278Z" fill="url(#paint3_linear)"/>
<path d="M57.3355 53.6188L56.031 52.8059C55.7714 53.2166 55.4817 53.6403 55.1781 54.0762L56.444 54.9497C56.7615 54.4915 57.0643 54.0479 57.3355 53.6188Z" fill="url(#paint4_linear)"/>
<path d="M58.8681 50.7923L57.4811 50.1326C57.2603 50.5922 57.0291 51.0463 56.7878 51.4949L58.1469 52.2181C58.3957 51.7493 58.6368 51.2734 58.8681 50.7923Z" fill="url(#paint5_linear)"/>
<path d="M60.1231 47.8589L58.6808 47.3225C58.5021 47.7961 58.3109 48.2712 58.109 48.7416L59.5276 49.3416C59.7382 48.8481 59.9366 48.3539 60.1231 47.8589Z" fill="url(#paint6_linear)"/>
<path d="M62.0008 40.0868C62.044 39.5773 62.0656 39.08 62.0656 38.6096V38.4563L60.5246 38.4686V38.6088C60.5246 39.0364 60.5045 39.4907 60.4644 39.9574L62.0008 40.0868Z" fill="url(#paint7_linear)"/>
<path d="M60.1718 35.5408C60.2849 36.0208 60.3706 36.5069 60.4283 36.9966L61.9593 36.8151C61.8937 36.2703 61.798 35.7295 61.6726 35.1953L60.1718 35.5408Z" fill="url(#paint8_linear)"/>
<path d="M59.1793 32.7664C59.3963 33.2087 59.5882 33.6627 59.754 34.1264L61.2057 33.6138C61.0208 33.0963 60.8067 32.5896 60.5646 32.0959L59.1793 32.7664Z" fill="url(#paint9_linear)"/>
<path d="M57.5967 30.2744C57.9053 30.6603 58.1928 31.0624 58.4581 31.4789L59.7594 30.6621C59.4642 30.1993 59.1448 29.7523 58.8025 29.3228L57.5967 30.2744Z" fill="url(#paint10_linear)"/>
<path d="M55.511 28.1634C55.894 28.4784 56.2605 28.8129 56.6089 29.1656L57.7076 28.0928C57.3221 27.703 56.9169 27.3329 56.4934 26.9841L55.511 28.1634Z" fill="url(#paint11_linear)"/>
<path d="M55.1743 26.0019C54.7243 25.7008 54.2498 25.4165 53.7666 25.1592L53.0339 26.5077C53.4746 26.7444 53.9053 27.0034 54.3144 27.2739L55.1743 26.0019Z" fill="url(#paint12_linear)"/>
<path d="M52.2873 24.4557C51.7911 24.245 51.2726 24.055 50.7463 23.8887L50.2771 25.346C50.7571 25.4993 51.2294 25.6702 51.6809 25.8609L52.2873 24.4557Z" fill="url(#paint13_linear)"/>
<path d="M49.1645 23.4599C48.6358 23.3434 48.0927 23.2491 47.5502 23.1787L47.353 24.6997C47.85 24.7632 48.3469 24.849 48.8308 24.9563L49.1645 23.4599Z" fill="url(#paint14_linear)"/>
<path d="M25.082 64.376H23.541V65.9084H25.082V64.376Z" fill="url(#paint15_linear)"/>
<path d="M25.082 67.4407H23.541V68.9731H25.082V67.4407Z" fill="url(#paint16_linear)"/>
<path d="M26.6229 65.9084H25.0819V67.4408H26.6229V65.9084Z" fill="url(#paint17_linear)"/>
<path d="M23.541 65.9084H22V67.4408H23.541V65.9084Z" fill="url(#paint18_linear)"/>
<path d="M67.459 23H65.918V24.5324H67.459V23Z" fill="url(#paint19_linear)"/>
<path d="M67.459 26.0652H65.918V27.5977H67.459V26.0652Z" fill="url(#paint20_linear)"/>
<path d="M69 24.5322H67.459V26.0646H69V24.5322Z" fill="url(#paint21_linear)"/>
<path d="M65.9181 24.5322H64.3771V26.0646H65.9181V24.5322Z" fill="url(#paint22_linear)"/>
<defs>
<linearGradient id="paint0_linear" x1="0" y1="0" x2="0.621212" y2="52.8684" gradientUnits="userSpaceOnUse">
<stop stop-color="#F41E3D"/>
<stop offset="1" stop-color="#D5122E"/>
</linearGradient>
<linearGradient id="paint1_linear" x1="28.1639" y1="23.0269" x2="29.4609" y2="69.9023" gradientUnits="userSpaceOnUse">
<stop stop-color="#F41E3D"/>
<stop offset="1" stop-color="#D5122E"/>
</linearGradient>
<linearGradient id="paint2_linear" x1="51.8257" y1="58.0525" x2="51.8685" y2="60.1548" gradientUnits="userSpaceOnUse">
<stop stop-color="#F41E3D"/>
<stop offset="1" stop-color="#D5122E"/>
</linearGradient>
<linearGradient id="paint3_linear" x1="53.3845" y1="55.3528" x2="53.4289" y2="57.5441" gradientUnits="userSpaceOnUse">
<stop stop-color="#F41E3D"/>
<stop offset="1" stop-color="#D5122E"/>
</linearGradient>
<linearGradient id="paint4_linear" x1="55.1781" y1="52.8059" x2="55.2225" y2="54.9925" gradientUnits="userSpaceOnUse">
<stop stop-color="#F41E3D"/>
<stop offset="1" stop-color="#D5122E"/>
</linearGradient>
<linearGradient id="paint5_linear" x1="56.7878" y1="50.1326" x2="56.8312" y2="52.2599" gradientUnits="userSpaceOnUse">
<stop stop-color="#F41E3D"/>
<stop offset="1" stop-color="#D5122E"/>
</linearGradient>
<linearGradient id="paint6_linear" x1="58.109" y1="47.3225" x2="58.1512" y2="49.3819" gradientUnits="userSpaceOnUse">
<stop stop-color="#F41E3D"/>
<stop offset="1" stop-color="#D5122E"/>
</linearGradient>
<linearGradient id="paint7_linear" x1="60.4644" y1="38.4563" x2="60.499" y2="40.1194" gradientUnits="userSpaceOnUse">
<stop stop-color="#F41E3D"/>
<stop offset="1" stop-color="#D5122E"/>
</linearGradient>
<linearGradient id="paint8_linear" x1="60.1718" y1="35.1953" x2="60.2095" y2="37.0326" gradientUnits="userSpaceOnUse">
<stop stop-color="#F41E3D"/>
<stop offset="1" stop-color="#D5122E"/>
</linearGradient>
<linearGradient id="paint9_linear" x1="59.1793" y1="32.0959" x2="59.2216" y2="34.167" gradientUnits="userSpaceOnUse">
<stop stop-color="#F41E3D"/>
<stop offset="1" stop-color="#D5122E"/>
</linearGradient>
<linearGradient id="paint10_linear" x1="57.5967" y1="29.3228" x2="57.6415" y2="31.522" gradientUnits="userSpaceOnUse">
<stop stop-color="#F41E3D"/>
<stop offset="1" stop-color="#D5122E"/>
</linearGradient>
<linearGradient id="paint11_linear" x1="55.511" y1="26.9841" x2="55.5561" y2="29.2092" gradientUnits="userSpaceOnUse">
<stop stop-color="#F41E3D"/>
<stop offset="1" stop-color="#D5122E"/>
</linearGradient>
<linearGradient id="paint12_linear" x1="53.0339" y1="25.1592" x2="53.0773" y2="27.3162" gradientUnits="userSpaceOnUse">
<stop stop-color="#F41E3D"/>
<stop offset="1" stop-color="#D5122E"/>
</linearGradient>
<linearGradient id="paint13_linear" x1="50.2771" y1="23.8887" x2="50.3174" y2="25.9004" gradientUnits="userSpaceOnUse">
<stop stop-color="#F41E3D"/>
<stop offset="1" stop-color="#D5122E"/>
</linearGradient>
<linearGradient id="paint14_linear" x1="47.353" y1="23.1787" x2="47.3893" y2="24.9918" gradientUnits="userSpaceOnUse">
<stop stop-color="#F41E3D"/>
<stop offset="1" stop-color="#D5122E"/>
</linearGradient>
<linearGradient id="paint15_linear" x1="23.541" y1="64.376" x2="23.5727" y2="65.939" gradientUnits="userSpaceOnUse">
<stop stop-color="#F41E3D"/>
<stop offset="1" stop-color="#D5122E"/>
</linearGradient>
<linearGradient id="paint16_linear" x1="23.541" y1="67.4407" x2="23.5727" y2="69.0037" gradientUnits="userSpaceOnUse">
<stop stop-color="#F41E3D"/>
<stop offset="1" stop-color="#D5122E"/>
</linearGradient>
<linearGradient id="paint17_linear" x1="25.0819" y1="65.9084" x2="25.1136" y2="67.4715" gradientUnits="userSpaceOnUse">
<stop stop-color="#F41E3D"/>
<stop offset="1" stop-color="#D5122E"/>
</linearGradient>
<linearGradient id="paint18_linear" x1="22" y1="65.9084" x2="22.0317" y2="67.4715" gradientUnits="userSpaceOnUse">
<stop stop-color="#F41E3D"/>
<stop offset="1" stop-color="#D5122E"/>
</linearGradient>
<linearGradient id="paint19_linear" x1="65.918" y1="23" x2="65.9497" y2="24.5631" gradientUnits="userSpaceOnUse">
<stop stop-color="#F41E3D"/>
<stop offset="1" stop-color="#D5122E"/>
</linearGradient>
<linearGradient id="paint20_linear" x1="65.918" y1="26.0652" x2="65.9497" y2="27.6282" gradientUnits="userSpaceOnUse">
<stop stop-color="#F41E3D"/>
<stop offset="1" stop-color="#D5122E"/>
</linearGradient>
<linearGradient id="paint21_linear" x1="67.459" y1="24.5322" x2="67.4907" y2="26.0953" gradientUnits="userSpaceOnUse">
<stop stop-color="#F41E3D"/>
<stop offset="1" stop-color="#D5122E"/>
</linearGradient>
<linearGradient id="paint22_linear" x1="64.3771" y1="24.5322" x2="64.4088" y2="26.0953" gradientUnits="userSpaceOnUse">
<stop stop-color="#F41E3D"/>
<stop offset="1" stop-color="#D5122E"/>
</linearGradient>
</defs>
</svg>
