<svg width="90" height="69" viewBox="0 0 90 69" fill="none" xmlns="http://www.w3.org/2000/svg">
<rect width="90" height="69" fill="black" fill-opacity="0"/>
<path d="M62.7273 13.6364C70.8004 13.6364 77.5926 19.5106 78.9271 27.3307C85.1421 27.9337 90 33.1722 90 39.5455C90 46.3235 84.5053 51.8182 77.7273 51.8182H69.5455C68.7923 51.8182 68.1818 51.2077 68.1818 50.4545C68.1818 49.7014 68.7923 49.0909 69.5455 49.0909H77.7273C82.9991 49.0909 87.2727 44.8173 87.2727 39.5455C87.2727 34.2736 82.9991 30 77.7273 30C77.0257 30 76.4386 29.4677 76.3701 28.7695C75.6827 21.7619 69.79 16.3636 62.7273 16.3636C61.4539 16.3636 60.2052 16.5378 59.0051 16.8775C58.3215 17.071 57.6039 16.7072 57.3559 16.0415C54.3979 8.10174 46.7962 2.72727 38.1818 2.72727C28.7897 2.72727 20.6703 9.11157 18.3683 18.0802C18.2186 18.6631 17.7045 19.0791 17.1031 19.1036C9.08559 19.4313 2.72727 26.0389 2.72727 34.0909C2.72727 42.3752 9.443 49.0909 17.7273 49.0909H20.4545C21.2077 49.0909 21.8182 49.7014 21.8182 50.4545C21.8182 51.2077 21.2077 51.8182 20.4545 51.8182H17.7273C7.93677 51.8182 0 43.8814 0 34.0909C0 24.9112 6.99176 17.3206 15.9935 16.4474C18.9192 6.7847 27.8734 0 38.1818 0C47.5314 0 55.8282 5.58627 59.4582 13.9632C60.526 13.7466 61.6197 13.6364 62.7273 13.6364Z" fill="url(#paint0_linear)"/>
<rect width="52" height="52" fill="black" fill-opacity="0" transform="translate(19 17)"/>
<rect width="16.5455" height="17.7273" fill="black" fill-opacity="0" transform="translate(19 51.2727)"/>
<path d="M30.0303 60.2545H29.9515C31.2909 59.3879 32.2364 57.8909 32.2364 56.1576C32.2364 53.4788 30.0303 51.2727 27.3515 51.2727C24.6727 51.2727 22.4667 53.4788 22.4667 56.1576C22.4667 57.8909 23.4121 59.3879 24.7515 60.2545H24.5152C21.4424 60.2545 19 62.7757 19 65.7697V68.2121C19 68.6848 19.3152 69 19.7879 69H34.7576C35.2303 69 35.5455 68.6848 35.5455 68.2121V65.7697C35.5455 62.7757 33.103 60.2545 30.0303 60.2545ZM27.3515 52.8485C29.1636 52.8485 30.6606 54.3454 30.6606 56.1576C30.6606 57.9697 29.1636 59.4666 27.3515 59.4666C25.5394 59.4666 24.0424 57.9697 24.0424 56.1576C24.0424 54.3454 25.5394 52.8485 27.3515 52.8485ZM33.9697 67.4242H20.5758V65.7697C20.5758 63.5636 22.3879 61.8303 24.5152 61.8303H30.0303C32.2364 61.8303 33.9697 63.6424 33.9697 65.7697V67.4242Z" fill="url(#paint1_linear)"/>
<rect width="16.5455" height="17.7273" fill="black" fill-opacity="0" transform="translate(36.7273 51.2727)"/>
<path d="M47.7576 60.2545H47.6788C49.0182 59.3879 49.9636 57.8909 49.9636 56.1576C49.9636 53.4788 47.7576 51.2727 45.0788 51.2727C42.4 51.2727 40.1939 53.4788 40.1939 56.1576C40.1939 57.8909 41.1394 59.3879 42.4788 60.2545H42.2424C39.1697 60.2545 36.7273 62.7757 36.7273 65.7697V68.2121C36.7273 68.6848 37.0424 69 37.5151 69H52.4848C52.9576 69 53.2727 68.6848 53.2727 68.2121V65.7697C53.2727 62.7757 50.8303 60.2545 47.7576 60.2545ZM45.0788 52.8485C46.8909 52.8485 48.3879 54.3454 48.3879 56.1576C48.3879 57.9697 46.8909 59.4666 45.0788 59.4666C43.2667 59.4666 41.7697 57.9697 41.7697 56.1576C41.7697 54.3454 43.2667 52.8485 45.0788 52.8485ZM51.697 67.4242H38.303V65.7697C38.303 63.5636 40.1151 61.8303 42.2424 61.8303H47.7576C49.9636 61.8303 51.697 63.6424 51.697 65.7697V67.4242Z" fill="url(#paint2_linear)"/>
<rect width="16.5455" height="17.7273" fill="black" fill-opacity="0" transform="translate(54.4545 51.2727)"/>
<path d="M65.4848 60.2545H65.4061C66.7455 59.3879 67.6909 57.8909 67.6909 56.1576C67.6909 53.4788 65.4848 51.2727 62.8061 51.2727C60.1273 51.2727 57.9212 53.4788 57.9212 56.1576C57.9212 57.8909 58.8667 59.3879 60.2061 60.2545H59.9697C56.897 60.2545 54.4545 62.7757 54.4545 65.7697V68.2121C54.4545 68.6848 54.7697 69 55.2424 69H70.2121C70.6848 69 71 68.6848 71 68.2121V65.7697C71 62.7757 68.4788 60.2545 65.4848 60.2545ZM62.8061 52.8485C64.6182 52.8485 66.1151 54.3454 66.1151 56.1576C66.1151 57.9697 64.6182 59.4666 62.8061 59.4666C60.9939 59.4666 59.497 57.9697 59.497 56.1576C59.497 54.3454 60.9151 52.8485 62.8061 52.8485ZM69.4242 67.4242H56.0303V65.7697C56.0303 63.5636 57.8424 61.8303 59.9697 61.8303H65.4848C67.6909 61.8303 69.4242 63.6424 69.4242 65.7697V67.4242Z" fill="url(#paint3_linear)"/>
<rect width="30.5697" height="32.697" fill="black" fill-opacity="0" transform="translate(29.7151 17)"/>
<path d="M30.0303 49.4606C30.1879 49.6182 30.4242 49.697 30.5818 49.697H34.2061C34.6788 49.697 34.9939 49.3818 34.9939 48.9091C34.9939 48.4364 34.6788 48.1212 34.2061 48.1212H32.5515L40.5091 40.0848C41.6909 40.4788 42.9515 40.7939 44.2909 40.7939V46.5455L43.1091 45.3636C42.7939 45.0485 42.3212 45.0485 42.0061 45.3636C41.6909 45.6788 41.6909 46.1515 42.0061 46.4667L44.5273 48.9879C44.8424 49.303 45.3151 49.303 45.6303 48.9879L48.1515 46.4667C48.4667 46.1515 48.4667 45.6788 48.1515 45.3636C47.8364 45.0485 47.3636 45.0485 47.0485 45.3636L45.7879 46.5455V40.7152C47.0485 40.5576 48.1515 40.2424 49.2545 39.7697L57.5273 48.0424H55.8727C55.4 48.0424 55.0848 48.3576 55.0848 48.8303C55.0848 49.303 55.4 49.6182 55.8727 49.6182H59.497C59.6545 49.6182 59.8909 49.5394 60.0485 49.3818C60.2061 49.2242 60.2848 48.9879 60.2848 48.8303V45.3636C60.2848 44.8909 59.9697 44.5758 59.497 44.5758C59.0242 44.5758 58.7091 44.8909 58.7091 45.3636V47.0182L50.7515 39.0606C54.4545 36.7758 56.4242 32.9152 56.4242 28.897C56.4242 22.3576 51.0667 17 44.4485 17C37.8303 17 32.5515 22.3576 32.5515 28.897C32.5515 33.3091 35.0727 37.3273 38.8545 39.3758L31.2909 46.9394V45.3636C31.2909 44.8909 30.9758 44.5758 30.503 44.5758C30.0303 44.5758 29.7151 44.8909 29.7151 45.3636V48.9091C29.7939 49.1455 29.9515 49.4606 30.0303 49.4606ZM44.5273 28.8182C42.5576 28.8182 40.9818 27.2424 40.9818 25.2727C40.9818 23.303 42.5576 21.7273 44.5273 21.7273C46.497 21.7273 48.0727 23.303 48.0727 25.2727C48.0727 27.2424 46.497 28.8182 44.5273 28.8182ZM46.1818 31.2606C49.097 31.2606 51.4606 33.5455 51.6182 36.3818C49.7273 38.1939 47.2848 39.2182 44.4485 39.2182C41.6909 39.2182 39.1697 38.1152 37.2788 36.3818C37.4364 33.5455 39.8 31.2606 42.7151 31.2606H46.1818ZM44.4485 18.5758C50.1212 18.5758 54.7697 23.2242 54.7697 28.897C54.7697 31.103 54.0606 33.1515 52.8788 34.8061C52.0909 32.1273 49.8061 30.0788 46.9697 29.6848C48.5455 28.8182 49.5697 27.1636 49.5697 25.2727C49.5697 22.4364 47.2848 20.1515 44.4485 20.1515C41.6121 20.1515 39.3273 22.4364 39.3273 25.2727C39.3273 27.1636 40.3515 28.8182 41.9273 29.6848C39.0121 30 36.6485 32.0485 35.9394 34.8061C34.7576 33.1515 34.0485 31.103 34.0485 28.897C34.1273 23.2242 38.7758 18.5758 44.4485 18.5758Z" fill="url(#paint4_linear)"/>
<defs>
<linearGradient id="paint0_linear" x1="0" y1="0" x2="0.621212" y2="52.8684" gradientUnits="userSpaceOnUse">
<stop stop-color="#F41E3D"/>
<stop offset="1" stop-color="#D5122E"/>
</linearGradient>
<linearGradient id="paint1_linear" x1="19" y1="51.2727" x2="19.3953" y2="69.3531" gradientUnits="userSpaceOnUse">
<stop stop-color="#F41E3D"/>
<stop offset="1" stop-color="#D5122E"/>
</linearGradient>
<linearGradient id="paint2_linear" x1="36.7273" y1="51.2727" x2="37.1226" y2="69.3531" gradientUnits="userSpaceOnUse">
<stop stop-color="#F41E3D"/>
<stop offset="1" stop-color="#D5122E"/>
</linearGradient>
<linearGradient id="paint3_linear" x1="54.4545" y1="51.2727" x2="54.8499" y2="69.3531" gradientUnits="userSpaceOnUse">
<stop stop-color="#F41E3D"/>
<stop offset="1" stop-color="#D5122E"/>
</linearGradient>
<linearGradient id="paint4_linear" x1="29.7151" y1="17" x2="30.4431" y2="50.3484" gradientUnits="userSpaceOnUse">
<stop stop-color="#F41E3D"/>
<stop offset="1" stop-color="#D5122E"/>
</linearGradient>
</defs>
</svg>
