<svg width="90" height="69" viewBox="0 0 90 69" fill="none" xmlns="http://www.w3.org/2000/svg">
<rect width="90" height="69" fill="black" fill-opacity="0"/>
<path d="M62.7273 13.6364C70.8004 13.6364 77.5926 19.5106 78.9271 27.3307C85.1421 27.9337 90 33.1722 90 39.5455C90 46.3235 84.5053 51.8182 77.7273 51.8182H69.5455C68.7923 51.8182 68.1818 51.2077 68.1818 50.4545C68.1818 49.7014 68.7923 49.0909 69.5455 49.0909H77.7273C82.9991 49.0909 87.2727 44.8173 87.2727 39.5455C87.2727 34.2736 82.9991 30 77.7273 30C77.0257 30 76.4386 29.4677 76.3701 28.7695C75.6827 21.7619 69.79 16.3636 62.7273 16.3636C61.4539 16.3636 60.2052 16.5378 59.0051 16.8775C58.3215 17.071 57.6039 16.7072 57.3559 16.0415C54.3979 8.10174 46.7962 2.72727 38.1818 2.72727C28.7897 2.72727 20.6703 9.11157 18.3683 18.0802C18.2186 18.6631 17.7045 19.0791 17.1031 19.1036C9.08559 19.4313 2.72727 26.0389 2.72727 34.0909C2.72727 42.3752 9.443 49.0909 17.7273 49.0909H20.4545C21.2077 49.0909 21.8182 49.7014 21.8182 50.4545C21.8182 51.2077 21.2077 51.8182 20.4545 51.8182H17.7273C7.93677 51.8182 0 43.8814 0 34.0909C0 24.9112 6.99176 17.3206 15.9935 16.4474C18.9192 6.7847 27.8734 0 38.1818 0C47.5314 0 55.8282 5.58627 59.4582 13.9632C60.526 13.7466 61.6197 13.6364 62.7273 13.6364Z" fill="url(#paint0_linear)"/>
<rect width="51" height="45" fill="black" fill-opacity="0" transform="translate(18 24)"/>
<path d="M37.0964 32.0774C37.6988 31.8245 37.9792 31.1417 37.7242 30.549C37.468 29.958 36.7732 29.6813 36.1701 29.9331C29.4062 32.757 25.0353 39.2488 25.0353 46.4721C25.0353 51.27 26.9367 55.7812 30.3887 59.1718C30.6196 59.3998 30.9231 59.5143 31.2254 59.5143C31.5289 59.5143 31.8324 59.3998 32.0633 59.1718C32.5261 58.718 32.5261 57.9809 32.0633 57.5266C29.0588 54.5737 27.4052 50.648 27.4052 46.4716C27.4052 40.1845 31.2085 34.5339 37.0964 32.0774Z" fill="url(#paint1_linear)"/>
<path d="M62.3897 68.6597C62.6216 68.8866 62.9251 69.0001 63.2275 69.0001C63.531 69.0001 63.8344 68.8866 64.0653 68.6597L68.6519 64.1507C69.1158 63.697 69.1158 62.9598 68.653 62.5044L64.0653 57.9954C63.6036 57.5405 62.8536 57.5416 62.3902 57.9954C61.9274 58.4503 61.9274 59.1863 62.3891 59.6417L64.8952 62.106H56.4332C55.7789 62.106 55.2485 62.6267 55.2485 63.2703C55.2485 63.9139 55.7783 64.4346 56.4332 64.4346H65.0146L62.3897 67.0134C61.9274 67.4677 61.9274 68.2048 62.3897 68.6597Z" fill="url(#paint2_linear)"/>
<path d="M19.1847 68.2369H26.9255C27.5797 68.2369 28.1107 67.7161 28.1107 67.0726V64.4329H43.3107C51.484 64.4329 58.6201 59.111 60.861 51.4383C63.4212 51.1129 65.5467 49.2983 66.1683 46.7788C66.322 46.154 65.9318 45.5237 65.2961 45.3721C64.6604 45.2221 64.0191 45.6045 63.8654 46.2287C63.4375 47.9652 61.8672 49.1766 60.0463 49.1766C57.8796 49.1766 56.1167 47.4439 56.1167 45.3145C56.1167 43.1851 57.8796 41.4524 60.0463 41.4524C61.0569 41.4524 62.0226 41.8448 62.7461 42.5194L60.834 44.3937L60.3773 43.7645C59.9967 43.2415 59.258 43.1203 58.7242 43.4933C58.1921 43.8674 58.0677 44.5934 58.4483 45.1181L59.7163 46.8651C59.9173 47.144 60.2343 47.3211 60.5817 47.3493C60.6149 47.3515 60.6465 47.3537 60.6797 47.3537C60.9933 47.3537 61.2934 47.2314 61.5164 47.0134L67.452 41.1995C67.916 40.7446 67.9171 40.0075 67.4554 39.551C66.9937 39.0972 66.2426 39.095 65.7792 39.5488L64.4223 40.878C63.2568 39.7712 61.6892 39.1238 60.0468 39.1238C60.0249 39.1238 60.0029 39.1271 59.9787 39.1271C57.106 32.8268 50.8776 28.7328 43.8569 28.5297L46.4424 25.9875C46.9041 25.5326 46.9041 24.7966 46.4424 24.3412C45.9796 23.8863 45.2285 23.8863 44.7662 24.3412L40.1779 28.8513C39.7151 29.305 39.7151 30.0421 40.1779 30.4965L44.7662 35.0055C44.9982 35.2324 45.3017 35.3469 45.604 35.3469C45.9075 35.3469 46.211 35.2324 46.4419 35.0055C46.9047 34.5506 46.9047 33.8146 46.4419 33.358L43.898 30.8589C49.7869 31.0709 55.0261 34.4244 57.5981 39.6102C55.338 40.5515 53.748 42.7545 53.748 45.314C53.748 48.1794 55.7406 50.5888 58.4326 51.2911C56.3245 57.7004 50.2453 62.1037 43.3102 62.1037H28.1107V59.4635C28.1107 58.8205 27.5797 58.2986 26.9255 58.2986H19.1847C18.5304 58.2986 18 58.8205 18 59.4635V67.0731C18 67.7161 18.5304 68.2369 19.1847 68.2369ZM20.3699 60.6289H25.7408V65.9077H20.3699V60.6289Z" fill="url(#paint3_linear)"/>
<defs>
<linearGradient id="paint0_linear" x1="0" y1="0" x2="0.621212" y2="52.8684" gradientUnits="userSpaceOnUse">
<stop stop-color="#F41E3D"/>
<stop offset="1" stop-color="#D5122E"/>
</linearGradient>
<linearGradient id="paint1_linear" x1="25.0353" y1="29.84" x2="26.4666" y2="60.0521" gradientUnits="userSpaceOnUse">
<stop stop-color="#F41E3D"/>
<stop offset="1" stop-color="#D5122E"/>
</linearGradient>
<linearGradient id="paint2_linear" x1="55.2485" y1="57.6547" x2="55.4434" y2="69.2283" gradientUnits="userSpaceOnUse">
<stop stop-color="#F41E3D"/>
<stop offset="1" stop-color="#D5122E"/>
</linearGradient>
<linearGradient id="paint3_linear" x1="18" y1="24" x2="18.818" y2="69.1248" gradientUnits="userSpaceOnUse">
<stop stop-color="#F41E3D"/>
<stop offset="1" stop-color="#D5122E"/>
</linearGradient>
</defs>
</svg>
