<svg width="90" height="63" viewBox="0 0 90 63" fill="none" xmlns="http://www.w3.org/2000/svg">
<rect width="90" height="63" fill="black" fill-opacity="0"/>
<path d="M62.7273 13.6364C70.8004 13.6364 77.5926 19.5106 78.9271 27.3307C85.1421 27.9337 90 33.1722 90 39.5455C90 46.3235 84.5053 51.8182 77.7273 51.8182H69.5455C68.7923 51.8182 68.1818 51.2077 68.1818 50.4545C68.1818 49.7014 68.7923 49.0909 69.5455 49.0909H77.7273C82.9991 49.0909 87.2727 44.8173 87.2727 39.5455C87.2727 34.2736 82.9991 30 77.7273 30C77.0257 30 76.4386 29.4677 76.3701 28.7695C75.6827 21.7619 69.79 16.3636 62.7273 16.3636C61.4539 16.3636 60.2052 16.5378 59.0051 16.8775C58.3215 17.071 57.6039 16.7072 57.3559 16.0415C54.3979 8.10174 46.7962 2.72727 38.1818 2.72727C28.7897 2.72727 20.6703 9.11157 18.3683 18.0802C18.2186 18.6631 17.7045 19.0791 17.1031 19.1036C9.08559 19.4313 2.72727 26.0389 2.72727 34.0909C2.72727 42.3752 9.443 49.0909 17.7273 49.0909H20.4545C21.2077 49.0909 21.8182 49.7014 21.8182 50.4545C21.8182 51.2077 21.2077 51.8182 20.4545 51.8182H17.7273C7.93677 51.8182 0 43.8814 0 34.0909C0 24.9112 6.99176 17.3206 15.9935 16.4474C18.9192 6.7847 27.8734 0 38.1818 0C47.5314 0 55.8282 5.58627 59.4582 13.9632C60.526 13.7466 61.6197 13.6364 62.7273 13.6364Z" fill="url(#paint0_linear)"/>
<rect width="45" height="39" fill="black" fill-opacity="0" transform="translate(27 24)"/>
<rect width="45" height="39" fill="black" fill-opacity="0" transform="translate(27 24)"/>
<path d="M29.1086 63H56.3089C57.5037 63 58.4174 62.0848 58.4174 60.8881V54.0596C59.2608 53.5668 60.034 53.0036 60.8071 52.37L62.0722 53.6372L61.0882 54.6227C60.8071 54.9043 60.8071 55.3267 61.0882 55.6083L67.2733 61.8032C68.3276 62.8592 70.0847 62.8592 71.2093 61.8032C72.2636 60.7473 72.2636 58.9874 71.2093 57.861L65.0242 51.6661C64.7431 51.3845 64.3214 51.3845 64.0402 51.6661L63.0562 52.6516L61.7911 51.3845C66.1488 46.4567 66.0082 38.9242 61.2991 34.2076C60.4557 33.3628 59.4717 32.5884 58.4174 32.0253V26.1119C58.4174 24.9152 57.5037 24 56.3089 24H36.1371C35.9965 24 35.7856 24.0704 35.6451 24.2112L27.2109 32.6588C27.0703 32.7292 27 32.9404 27 33.1516V60.9585C27 62.0848 27.9137 63 29.1086 63ZM64.5322 53.2148L70.2253 58.917C70.7876 59.4801 70.7876 60.3249 70.2253 60.8881C69.7333 61.3809 68.8196 61.3809 68.2573 60.8881L62.5642 55.1859L63.5482 54.2004L64.5322 53.2148ZM60.2448 50.8917C55.8872 55.2563 48.9289 55.2563 44.5713 50.8917C40.2136 46.5271 40.2136 39.4874 44.5713 35.1931C48.9289 30.8285 55.8872 30.8285 60.2448 35.1931C64.6025 39.5578 64.6025 46.5975 60.2448 50.8917ZM36.8399 25.4079H56.3089C56.7306 25.4079 57.0117 25.6895 57.0117 26.1119V31.4621C52.4432 29.7022 47.2421 30.6877 43.6576 34.278C38.8079 39.1354 38.8079 47.0903 43.6576 51.9477C47.2421 55.5379 52.5135 56.5235 57.0117 54.7635V60.9585C57.0117 61.3809 56.7306 61.6625 56.3089 61.6625H29.1086C28.6868 61.6625 28.4057 61.3809 28.4057 60.9585V33.8556H36.1371C36.5588 33.8556 36.8399 33.574 36.8399 33.1516V25.4079ZM35.4342 26.3935V32.4477H29.3897L35.4342 26.3935Z" fill="url(#paint1_linear)"/>
<rect width="4.14682" height="6.33574" fill="black" fill-opacity="0" transform="translate(50.3347 41.0361)"/>
<path d="M52.2324 41.0361V41.3881C51.3186 41.4585 50.5455 42.0217 50.5455 42.9369C50.5455 43.9224 51.1781 44.204 52.2324 44.4856V45.9639C51.8106 45.8935 51.3186 45.6823 50.8969 45.3304L50.3347 45.9639C50.8969 46.4567 51.5295 46.7383 52.2324 46.8087V47.3719H52.7243V46.8087C53.7083 46.7383 54.4815 46.2455 54.4815 45.26C54.4815 44.2744 53.7786 43.9224 52.7946 43.7112V42.3033C53.2163 42.3737 53.5678 42.5145 53.9192 42.7257L54.4112 42.0217C53.9192 41.6697 53.3569 41.4585 52.7946 41.4585V41.0361H52.2324V41.0361ZM52.2324 43.5C51.8106 43.3592 51.5295 43.2184 51.5295 42.7961C51.5295 42.3737 51.8809 42.2329 52.2324 42.1625V43.5ZM53.5678 45.3304C53.5678 45.7527 53.2163 45.9639 52.7946 45.9639V44.556C53.2163 44.7672 53.5678 44.908 53.5678 45.3304Z" fill="url(#paint2_linear)"/>
<rect width="16.9387" height="14.1606" fill="black" fill-opacity="0" transform="translate(43.8333 36.0272)"/>
<path d="M51.7404 36.6715V38.2203C50.9672 38.2906 50.1941 38.5018 49.4209 38.7834L48.8587 37.1643C48.7181 36.8123 48.3667 36.6011 47.945 36.6715C47.5935 36.8123 47.3827 37.1643 47.453 37.5867L48.0152 39.417C46.469 40.4026 45.0633 41.8809 43.9387 43.852C43.7981 44.0632 43.7981 44.3448 43.9387 44.556C45.9067 48.1462 48.9289 50.1878 52.3026 50.1878C55.606 50.1878 58.6986 48.1462 60.6666 44.556C60.8071 44.3448 60.8071 44.0632 60.6666 43.852C59.6123 41.8809 58.2066 40.4026 56.59 39.4874L57.1523 37.6571C57.2929 37.3051 57.082 36.8827 56.6603 36.7419C56.3089 36.6011 55.8872 36.8123 55.7466 37.2347L55.2546 38.8538C54.4815 38.5722 53.7083 38.361 52.9352 38.2906V36.7419C52.9352 36.3195 52.6541 36.0379 52.2323 36.0379C52.0215 35.9675 51.7404 36.2491 51.7404 36.6715ZM59.3311 44.204C57.574 47.0903 55.114 48.7798 52.4432 48.7798C49.7724 48.7798 47.2421 47.0903 45.5553 44.204C47.2421 41.3177 49.7724 39.6282 52.4432 39.6282C55.114 39.6282 57.6443 41.2473 59.3311 44.204Z" fill="url(#paint3_linear)"/>
<rect width="5.6228" height="1.40794" fill="black" fill-opacity="0" transform="translate(31.4279 38.4314)"/>
<path d="M32.1308 38.4314C31.7091 38.4314 31.4279 38.713 31.4279 39.1354C31.4279 39.5578 31.7091 39.8393 32.1308 39.8393H36.3479C36.7696 39.8393 37.0508 39.5578 37.0508 39.1354C37.0508 38.713 36.7696 38.4314 36.3479 38.4314H32.1308Z" fill="url(#paint4_linear)"/>
<rect width="5.6228" height="1.40794" fill="black" fill-opacity="0" transform="translate(31.4279 44.1335)"/>
<path d="M32.1308 45.5415H36.3479C36.7696 45.5415 37.0508 45.2599 37.0508 44.8375C37.0508 44.4151 36.7696 44.1335 36.3479 44.1335H32.1308C31.7091 44.1335 31.4279 44.4151 31.4279 44.8375C31.4279 45.2599 31.7091 45.5415 32.1308 45.5415Z" fill="url(#paint5_linear)"/>
<rect width="5.6228" height="1.40794" fill="black" fill-opacity="0" transform="translate(31.4279 49.9061)"/>
<path d="M32.1308 51.3141H36.3479C36.7696 51.3141 37.0508 51.0325 37.0508 50.6101C37.0508 50.1877 36.7696 49.9061 36.3479 49.9061H32.1308C31.7091 49.9061 31.4279 50.1877 31.4279 50.6101C31.4279 50.9621 31.7091 51.3141 32.1308 51.3141Z" fill="url(#paint6_linear)"/>
<rect width="11.2456" height="1.40794" fill="black" fill-opacity="0" transform="translate(31.4279 55.6083)"/>
<path d="M31.4279 56.3123C31.4279 56.7347 31.7091 57.0163 32.1308 57.0163H41.9707C42.3924 57.0163 42.6736 56.7347 42.6736 56.3123C42.6736 55.8899 42.3924 55.6083 41.9707 55.6083H32.1308C31.7091 55.6083 31.4279 55.8899 31.4279 56.3123Z" fill="url(#paint7_linear)"/>
<rect width="1.4057" height="1.40794" fill="black" fill-opacity="0" transform="translate(40.2136 28.2238)"/>
<path d="M41.6193 28.2238H40.2136V29.6318H41.6193V28.2238Z" fill="url(#paint8_linear)"/>
<rect width="1.4057" height="1.40794" fill="black" fill-opacity="0" transform="translate(45.1335 28.2238)"/>
<path d="M46.5392 28.2238H45.1335V29.6318H46.5392V28.2238Z" fill="url(#paint9_linear)"/>
<defs>
<linearGradient id="paint0_linear" x1="0" y1="0" x2="0.621212" y2="52.8684" gradientUnits="userSpaceOnUse">
<stop stop-color="#F41E3D"/>
<stop offset="1" stop-color="#D5122E"/>
</linearGradient>
<linearGradient id="paint1_linear" x1="27" y1="24" x2="27.7037" y2="63.7835" gradientUnits="userSpaceOnUse">
<stop stop-color="#F41E3D"/>
<stop offset="1" stop-color="#D5122E"/>
</linearGradient>
<linearGradient id="paint2_linear" x1="50.3347" y1="41.0361" x2="50.536" y2="47.4949" gradientUnits="userSpaceOnUse">
<stop stop-color="#F41E3D"/>
<stop offset="1" stop-color="#D5122E"/>
</linearGradient>
<linearGradient id="paint3_linear" x1="43.8333" y1="36.0272" x2="44.0797" y2="50.4725" gradientUnits="userSpaceOnUse">
<stop stop-color="#F41E3D"/>
<stop offset="1" stop-color="#D5122E"/>
</linearGradient>
<linearGradient id="paint4_linear" x1="31.4279" y1="38.4314" x2="31.4353" y2="39.868" gradientUnits="userSpaceOnUse">
<stop stop-color="#F41E3D"/>
<stop offset="1" stop-color="#D5122E"/>
</linearGradient>
<linearGradient id="paint5_linear" x1="31.4279" y1="44.1335" x2="31.4353" y2="45.5702" gradientUnits="userSpaceOnUse">
<stop stop-color="#F41E3D"/>
<stop offset="1" stop-color="#D5122E"/>
</linearGradient>
<linearGradient id="paint6_linear" x1="31.4279" y1="49.9061" x2="31.4353" y2="51.3428" gradientUnits="userSpaceOnUse">
<stop stop-color="#F41E3D"/>
<stop offset="1" stop-color="#D5122E"/>
</linearGradient>
<linearGradient id="paint7_linear" x1="31.4279" y1="55.6083" x2="31.4316" y2="57.045" gradientUnits="userSpaceOnUse">
<stop stop-color="#F41E3D"/>
<stop offset="1" stop-color="#D5122E"/>
</linearGradient>
<linearGradient id="paint8_linear" x1="40.2136" y1="28.2238" x2="40.2429" y2="29.6599" gradientUnits="userSpaceOnUse">
<stop stop-color="#F41E3D"/>
<stop offset="1" stop-color="#D5122E"/>
</linearGradient>
<linearGradient id="paint9_linear" x1="45.1335" y1="28.2238" x2="45.1629" y2="29.6599" gradientUnits="userSpaceOnUse">
<stop stop-color="#F41E3D"/>
<stop offset="1" stop-color="#D5122E"/>
</linearGradient>
</defs>
</svg>
