<svg width="90" height="69" viewBox="0 0 90 69" fill="none" xmlns="http://www.w3.org/2000/svg">
<rect width="90" height="69" fill="black" fill-opacity="0"/>
<path d="M62.7273 13.6364C70.8004 13.6364 77.5926 19.5106 78.9271 27.3307C85.1421 27.9337 90 33.1722 90 39.5455C90 46.3235 84.5053 51.8182 77.7273 51.8182H69.5455C68.7923 51.8182 68.1818 51.2077 68.1818 50.4545C68.1818 49.7014 68.7923 49.0909 69.5455 49.0909H77.7273C82.9991 49.0909 87.2727 44.8173 87.2727 39.5455C87.2727 34.2736 82.9991 30 77.7273 30C77.0257 30 76.4386 29.4677 76.3701 28.7695C75.6827 21.7619 69.79 16.3636 62.7273 16.3636C61.4539 16.3636 60.2052 16.5378 59.0051 16.8775C58.3215 17.071 57.6039 16.7072 57.3559 16.0415C54.3979 8.10174 46.7962 2.72727 38.1818 2.72727C28.7897 2.72727 20.6703 9.11157 18.3683 18.0802C18.2186 18.6631 17.7045 19.0791 17.1031 19.1036C9.08559 19.4313 2.72727 26.0389 2.72727 34.0909C2.72727 42.3752 9.443 49.0909 17.7273 49.0909H20.4545C21.2077 49.0909 21.8182 49.7014 21.8182 50.4545C21.8182 51.2077 21.2077 51.8182 20.4545 51.8182H17.7273C7.93677 51.8182 0 43.8814 0 34.0909C0 24.9112 6.99176 17.3206 15.9935 16.4474C18.9192 6.7847 27.8734 0 38.1818 0C47.5314 0 55.8282 5.58627 59.4582 13.9632C60.526 13.7466 61.6197 13.6364 62.7273 13.6364Z" fill="url(#paint0_linear)"/>
<rect width="45" height="45" fill="black" fill-opacity="0" transform="translate(23 24)"/>
<rect width="45" height="45" fill="black" fill-opacity="0" transform="translate(23 24)"/>
<path d="M67.3192 53.0212L64.6641 52.6798C64.3918 51.519 63.9834 50.4947 63.3707 49.4704C63.8472 48.8558 64.8003 47.5584 65.0045 47.3536C65.1407 47.0804 65.1407 46.8073 65.0045 46.5341C65.0045 46.4659 64.9365 46.4659 64.9365 46.3976L62.8941 44.349C62.6218 44.0759 62.2814 44.0759 62.0091 44.2807L59.8986 45.9196C59.2859 45.5099 58.6051 45.2367 57.9244 44.9636C58.1286 43.871 58.2648 42.7785 58.2648 41.6859C58.1967 31.9211 50.2995 24 40.6324 24C30.8971 24 23 31.9211 23 41.6859C23 51.4507 30.8971 59.3718 40.6324 59.3718C41.8578 59.3718 43.0151 59.2352 44.1044 59.0303C44.3767 59.6449 44.649 60.3278 44.9894 60.8741C44.4448 61.5569 43.3555 62.9909 43.3555 62.9909C43.1513 63.264 43.1513 63.6737 43.4236 63.8786L45.534 65.9954C45.8064 66.2686 46.1467 66.2686 46.4191 66.0637L48.5295 64.4249C49.4826 65.0395 50.5719 65.4492 51.6611 65.7223L52.0015 68.3854C52.0696 68.7269 52.3419 69 52.6823 69H55.6778C56.0182 69 56.2905 68.7269 56.3585 68.3854L56.6989 65.7223C57.7882 65.4492 58.8775 65.0395 59.8306 64.4249C60.4433 64.9029 61.6687 65.8589 61.941 66.0637C62.0091 66.0637 62.0091 66.132 62.0772 66.132C62.3495 66.2686 62.6899 66.2003 62.9622 65.9954L65.0045 63.9469C65.2769 63.6737 65.2769 63.3323 65.0726 63.0592L63.4387 60.9423C64.0514 59.9863 64.4599 58.8938 64.7322 57.7329L67.3873 57.3915C67.7277 57.3232 68 57.0501 68 56.7087V53.7041C67.9319 53.3627 67.6596 53.0895 67.3192 53.0212ZM42.6067 57.7329C43.6959 55.6844 44.3086 51.9287 44.649 48.3096C46.6233 48.173 48.4614 47.8316 50.1634 47.4901C48.8699 52.6115 46.0787 56.5721 42.6067 57.7329ZM44.7171 46.8756C44.8533 45.2367 44.8533 43.7344 44.9213 42.3687H50.7761C50.7761 43.5979 50.6399 44.7587 50.4357 45.9196C48.7337 46.3293 46.8275 46.6707 44.7171 46.8756ZM43.5598 42.3687C43.5598 44.0076 43.4917 45.5781 43.4236 46.9439C41.5855 47.0804 39.7474 47.0804 37.9092 46.9439C37.8412 45.5099 37.7731 44.0076 37.7731 42.3687H43.5598V42.3687ZM37.705 41.003C37.705 39.3642 37.7731 37.7936 37.8412 36.4279C39.6793 36.2914 41.5174 36.2914 43.3555 36.4279C43.4236 37.8619 43.4917 39.3642 43.4917 41.003H37.705ZM52.0696 42.3687H56.6989C56.2224 43.4613 54.4523 44.6222 51.8654 45.5099C52.0015 44.4856 52.0696 43.4613 52.0696 42.3687ZM52.0696 41.003C52.0696 39.9105 51.9334 38.8862 51.7973 37.8619C54.4523 38.7496 56.1543 39.8422 56.6309 41.003H52.0696ZM50.708 41.003H44.8533C44.8533 39.6373 44.7852 38.1351 44.649 36.4962C46.7595 36.7011 48.6657 37.0425 50.2995 37.4522C50.5719 38.6131 50.708 39.7739 50.708 41.003ZM44.5809 35.1305C44.2405 31.5114 43.6278 27.7557 42.5386 25.7071C46.0106 26.7997 48.8018 30.7602 50.0272 35.9499C48.4614 35.5402 46.6233 35.2671 44.5809 35.1305ZM43.2194 35.0622C41.4493 34.9939 39.6793 34.9939 37.9092 35.0622C38.5219 28.7117 39.8154 25.3657 40.6324 25.3657C41.3812 25.3657 42.6747 28.7117 43.2194 35.0622ZM38.59 25.7071C37.5008 27.7557 36.888 31.5114 36.5477 35.1305C34.5734 35.2671 32.7353 35.6085 31.0333 35.9499C32.3268 30.7602 35.1861 26.7997 38.59 25.7071ZM36.4796 36.4962C36.3434 38.1351 36.3434 39.6373 36.2753 41.003H30.4887C30.4887 39.7739 30.6248 38.6131 30.829 37.4522C32.4629 37.0425 34.3691 36.7011 36.4796 36.4962ZM29.1271 41.003H24.4977C24.9743 39.9105 26.7443 38.7496 29.3313 37.8619C29.2632 38.8862 29.1271 39.9105 29.1271 41.003ZM29.1271 42.3687C29.1271 43.4613 29.2632 44.4856 29.3994 45.5099C26.7443 44.6222 25.0424 43.5296 24.5658 42.3687H29.1271ZM30.4887 42.3687H36.3434C36.3434 43.7344 36.4115 45.2367 36.5477 46.8756C34.4372 46.6707 32.531 46.3293 30.8971 45.9196C30.6248 44.7587 30.4887 43.5979 30.4887 42.3687ZM36.6157 48.2413C36.9561 51.8604 37.5688 55.6161 38.6581 57.6646C35.1861 56.5721 32.3949 52.6115 31.1694 47.4219C32.7353 47.8316 34.6415 48.1047 36.6157 48.2413ZM37.9773 48.3778C39.7474 48.4461 41.5174 48.4461 43.2874 48.3778C42.7428 54.6601 41.3812 58.0744 40.6324 58.0744C39.8154 58.0061 38.5219 54.6601 37.9773 48.3778ZM51.593 47.0121C53.7716 46.3976 55.4735 45.5781 56.6309 44.6222C55.6097 50.2898 51.7292 54.9332 46.4871 56.9135C48.8699 54.7284 50.708 51.2458 51.593 47.0121ZM55.8139 50.563C57.7201 51.2458 59.0817 53.0895 59.0817 55.2064C59.0817 57.9378 56.9032 60.1229 54.18 60.1229C52.1377 60.1229 50.2995 58.8255 49.6188 56.9135C52.2057 55.3429 54.3162 53.1578 55.8139 50.563ZM56.5628 38.7496C55.4054 37.7936 53.7035 36.9742 51.525 36.3596C50.708 32.1942 48.8699 28.6434 46.4191 26.4583C51.6611 28.5068 55.5416 33.1502 56.5628 38.7496ZM34.7776 26.4583C32.3268 28.6434 30.4887 32.1942 29.6717 36.3596C27.4932 36.9742 25.7912 37.7936 24.6339 38.7496C25.6551 33.1502 29.5356 28.5068 34.7776 26.4583ZM24.6339 44.6222C25.7912 45.5781 27.4932 46.3976 29.6717 47.0121C30.5567 51.1775 32.3949 54.7284 34.7776 56.9135C29.5356 54.9332 25.6551 50.2898 24.6339 44.6222ZM66.5704 56.0941L64.0514 56.4355C63.7791 56.5038 63.5068 56.7086 63.4387 56.9818C63.2345 58.2792 62.6899 59.4401 62.0091 60.5326C61.8729 60.8058 61.8729 61.0789 62.0091 61.352L63.5749 63.4006L62.3495 64.6297C61.6006 64.0835 60.3071 63.0592 60.3071 63.0592C60.1029 62.8543 59.7625 62.8543 59.4902 63.0592C58.4009 63.8103 57.2436 64.2883 55.9501 64.5615C55.6778 64.6297 55.4735 64.8346 55.4054 65.176L55.0651 67.7026H53.295L52.9546 65.1077C52.8865 64.8346 52.6823 64.5615 52.41 64.4932C51.1165 64.22 49.9592 63.742 48.8699 62.9909C48.5976 62.8543 48.3253 62.8543 48.053 62.9909L46.0106 64.5615L44.7852 63.3323C45.2617 62.6495 46.1467 61.4886 46.351 61.2838C46.4871 61.0106 46.4871 60.7375 46.351 60.4643C45.9425 59.8498 45.6702 59.2352 45.3979 58.6206C46.4191 58.3475 47.4402 57.9378 48.3933 57.4598C49.3464 59.7815 51.593 61.4203 54.18 61.4203C57.652 61.4203 60.4433 58.6206 60.4433 55.1381C60.4433 52.5432 58.8775 50.2215 56.4947 49.2656C56.9713 48.3096 57.3117 47.2853 57.652 46.261C58.3328 46.5341 58.9455 46.8756 59.5582 47.2853C59.8306 47.4219 60.1029 47.4219 60.3752 47.2853L62.4176 45.7147L63.643 46.9439C63.0983 47.695 62.0772 48.9924 62.0772 48.9924C61.8729 49.1973 61.8729 49.5387 62.0772 49.8118C62.826 50.9044 63.3026 52.0653 63.5068 53.3627C63.5749 53.6358 63.7791 53.909 64.0514 53.909L66.5704 54.2504V56.0941Z" fill="url(#paint1_linear)"/>
<defs>
<linearGradient id="paint0_linear" x1="0" y1="0" x2="0.621212" y2="52.8684" gradientUnits="userSpaceOnUse">
<stop stop-color="#F41E3D"/>
<stop offset="1" stop-color="#D5122E"/>
</linearGradient>
<linearGradient id="paint1_linear" x1="23" y1="24" x2="23.9367" y2="69.8992" gradientUnits="userSpaceOnUse">
<stop stop-color="#F41E3D"/>
<stop offset="1" stop-color="#D5122E"/>
</linearGradient>
</defs>
</svg>
