<svg width="90" height="76" viewBox="0 0 90 76" fill="none" xmlns="http://www.w3.org/2000/svg">
<rect width="90" height="76" fill="black" fill-opacity="0"/>
<path d="M62.7273 13.6364C70.8004 13.6364 77.5927 19.5106 78.9271 27.3307C85.1421 27.9337 90 33.1722 90 39.5455C90 46.3235 84.5053 51.8182 77.7273 51.8182H69.5455C68.7923 51.8182 68.1818 51.2077 68.1818 50.4545C68.1818 49.7014 68.7923 49.0909 69.5455 49.0909H77.7273C82.9991 49.0909 87.2727 44.8173 87.2727 39.5455C87.2727 34.2736 82.9991 30 77.7273 30C77.0257 30 76.4386 29.4677 76.3701 28.7695C75.6827 21.7619 69.79 16.3636 62.7273 16.3636C61.4539 16.3636 60.2052 16.5378 59.0051 16.8775C58.3215 17.071 57.6039 16.7072 57.3559 16.0415C54.3979 8.10174 46.7962 2.72727 38.1818 2.72727C28.7897 2.72727 20.6703 9.11157 18.3683 18.0802C18.2186 18.6631 17.7045 19.0791 17.1031 19.1036C9.08559 19.4313 2.72727 26.0389 2.72727 34.0909C2.72727 42.3752 9.443 49.0909 17.7273 49.0909H20.4545C21.2077 49.0909 21.8182 49.7014 21.8182 50.4545C21.8182 51.2077 21.2077 51.8182 20.4545 51.8182H17.7273C7.93677 51.8182 0 43.8814 0 34.0909C0 24.9112 6.99176 17.3206 15.9935 16.4474C18.9192 6.7847 27.8734 0 38.1818 0C47.5314 0 55.8282 5.58627 59.4582 13.9632C60.526 13.7466 61.6197 13.6364 62.7273 13.6364Z" fill="url(#paint0_linear)"/>
<rect width="44" height="53" fill="black" fill-opacity="0" transform="translate(22 23)"/>
<path d="M52.7054 59.5342C52.5297 60.5288 51.9856 62.0417 50.2783 62.0417H41.072V63.7133H50.2783C53.626 63.7133 54.463 60.4369 54.463 58.6983C54.463 58.4767 54.3748 58.2641 54.2178 58.1073C54.0609 57.9506 53.848 57.8625 53.626 57.8625H32.7026C32.5924 57.8619 32.4832 57.883 32.3813 57.9245C32.2793 57.9661 32.1866 58.0274 32.1084 58.1049L22.0651 68.1349L23.2452 69.3134L33.0457 59.5342H52.7054Z" fill="url(#paint1_linear)"/>
<path d="M64.2635 52.254C64.1067 52.0984 63.8946 52.011 63.6735 52.011C63.4524 52.011 63.2403 52.0984 63.0834 52.254L55.551 59.7765L56.7311 60.955L63.6023 54.0929C64.1485 54.8163 64.398 55.7204 64.3001 56.6211C64.2021 57.5218 63.764 58.3513 63.0751 58.9407L53.2829 68.7283H36.0503C35.9402 68.7276 35.831 68.7487 35.729 68.7903C35.6271 68.8319 35.5343 68.8932 35.4561 68.9706L29.5975 74.8215L30.7776 76L36.3935 70.3999H53.626C53.7362 70.4006 53.8454 70.3795 53.9473 70.3379C54.0493 70.2963 54.1421 70.235 54.2203 70.1575L64.2635 60.1276C67.3769 57.0266 65.6194 53.6164 64.2635 52.254Z" fill="url(#paint2_linear)"/>
<path d="M39.3981 62.0416H37.7242V63.7133H39.3981V62.0416Z" fill="url(#paint3_linear)"/>
<path d="M35.2971 39.4742C35.4728 38.4796 36.0169 36.9667 37.7242 36.9667H46.9305V35.2951H37.7242C34.3765 35.2951 33.5395 38.5715 33.5395 40.31C33.5395 40.5317 33.6277 40.7443 33.7847 40.9011C33.9416 41.0578 34.1545 41.1459 34.3765 41.1459H55.2999C55.4101 41.1465 55.5193 41.1254 55.6212 41.0838C55.7232 41.0422 55.8159 40.981 55.8941 40.9035L65.9374 30.8735L64.749 29.6866L54.9568 39.4742H35.2971Z" fill="url(#paint4_linear)"/>
<path d="M24.3332 46.9967C24.4433 46.9973 24.5525 46.9762 24.6545 46.9346C24.7565 46.8931 24.8492 46.8318 24.9274 46.7543L32.4599 39.2318L31.2798 38.0533L24.4002 44.9155C23.854 44.1921 23.6045 43.288 23.7024 42.3873C23.8004 41.4866 24.2385 40.6571 24.9274 40.0677L34.7196 30.2801H51.9522C52.0623 30.2807 52.1715 30.2596 52.2735 30.218C52.3754 30.1764 52.4682 30.1152 52.5464 30.0377L58.405 24.1869L57.2165 23L51.609 28.6084H34.3765C34.2663 28.6078 34.1571 28.6289 34.0552 28.6705C33.9532 28.7121 33.8604 28.7733 33.7822 28.8508L23.739 38.8808C20.6256 41.9901 22.3748 45.3919 23.739 46.7459C23.8165 46.8249 23.9089 46.8877 24.0109 46.9308C24.1129 46.9738 24.2225 46.9962 24.3332 46.9967Z" fill="url(#paint5_linear)"/>
<path d="M50.2783 35.2951H48.6044V36.9667H50.2783V35.2951Z" fill="url(#paint6_linear)"/>
<path d="M48.6044 49.5042C48.6044 48.8429 48.4081 48.1965 48.0402 47.6467C47.6724 47.0969 47.1495 46.6684 46.5378 46.4154C45.9261 46.1623 45.2529 46.0961 44.6035 46.2251C43.9541 46.3541 43.3576 46.6725 42.8894 47.1401C42.4213 47.6077 42.1024 48.2034 41.9732 48.8519C41.8441 49.5005 41.9104 50.1727 42.1637 50.7836C42.4171 51.3945 42.8462 51.9167 43.3967 52.2841C43.9473 52.6514 44.5945 52.8475 45.2567 52.8475C46.1445 52.8475 46.9961 52.4953 47.6239 51.8683C48.2517 51.2413 48.6044 50.3909 48.6044 49.5042ZM43.5828 49.5042C43.5828 49.1736 43.681 48.8504 43.8649 48.5755C44.0488 48.3006 44.3102 48.0863 44.6161 47.9598C44.922 47.8332 45.2585 47.8001 45.5832 47.8646C45.9079 47.9291 46.2062 48.0884 46.4403 48.3221C46.6744 48.5559 46.8338 48.8538 46.8984 49.1781C46.963 49.5023 46.9298 49.8384 46.8031 50.1439C46.6764 50.4494 46.4619 50.7104 46.1866 50.8941C45.9114 51.0778 45.5877 51.1758 45.2567 51.1758C44.8127 51.1758 44.387 50.9997 44.0731 50.6862C43.7591 50.3727 43.5828 49.9475 43.5828 49.5042Z" fill="url(#paint7_linear)"/>
<path d="M54.463 42.8175H45.2567C43.4809 42.8175 41.7779 43.522 40.5222 44.776C39.2666 46.03 38.5612 47.7308 38.5612 49.5042H40.235C40.235 48.1741 40.7641 46.8985 41.7058 45.958C42.6476 45.0176 43.9248 44.4892 45.2567 44.4892H54.463V42.8175Z" fill="url(#paint8_linear)"/>
<path d="M36.0504 56.1908H45.2567C47.0324 56.1908 48.7355 55.4863 49.9911 54.2323C51.2468 52.9784 51.9522 51.2776 51.9522 49.5042H50.2783C50.2783 50.8342 49.7492 52.1098 48.8075 53.0503C47.8658 53.9908 46.5885 54.5192 45.2567 54.5192H36.0504V56.1908Z" fill="url(#paint9_linear)"/>
<path d="M57.8107 42.8175H56.1369V44.4892H57.8107V42.8175Z" fill="url(#paint10_linear)"/>
<path d="M61.1585 42.8175H59.4846V44.4892H61.1585V42.8175Z" fill="url(#paint11_linear)"/>
<path d="M34.3765 54.5192H32.7026V56.1908H34.3765V54.5192Z" fill="url(#paint12_linear)"/>
<path d="M31.0287 54.5192H29.3548V56.1908H31.0287V54.5192Z" fill="url(#paint13_linear)"/>
<defs>
<linearGradient id="paint0_linear" x1="0" y1="0" x2="0.621212" y2="52.8684" gradientUnits="userSpaceOnUse">
<stop stop-color="#F41E3D"/>
<stop offset="1" stop-color="#D5122E"/>
</linearGradient>
<linearGradient id="paint1_linear" x1="22.0651" y1="57.8625" x2="22.1494" y2="69.5465" gradientUnits="userSpaceOnUse">
<stop stop-color="#F41E3D"/>
<stop offset="1" stop-color="#D5122E"/>
</linearGradient>
<linearGradient id="paint2_linear" x1="29.5975" y1="52.011" x2="29.9267" y2="76.4851" gradientUnits="userSpaceOnUse">
<stop stop-color="#F41E3D"/>
<stop offset="1" stop-color="#D5122E"/>
</linearGradient>
<linearGradient id="paint3_linear" x1="37.7242" y1="62.0416" x2="37.759" y2="63.7467" gradientUnits="userSpaceOnUse">
<stop stop-color="#F41E3D"/>
<stop offset="1" stop-color="#D5122E"/>
</linearGradient>
<linearGradient id="paint4_linear" x1="33.5395" y1="29.6866" x2="33.6239" y2="41.3791" gradientUnits="userSpaceOnUse">
<stop stop-color="#F41E3D"/>
<stop offset="1" stop-color="#D5122E"/>
</linearGradient>
<linearGradient id="paint5_linear" x1="22" y1="23" x2="22.3293" y2="47.482" gradientUnits="userSpaceOnUse">
<stop stop-color="#F41E3D"/>
<stop offset="1" stop-color="#D5122E"/>
</linearGradient>
<linearGradient id="paint6_linear" x1="48.6044" y1="35.2951" x2="48.6392" y2="37.0001" gradientUnits="userSpaceOnUse">
<stop stop-color="#F41E3D"/>
<stop offset="1" stop-color="#D5122E"/>
</linearGradient>
<linearGradient id="paint7_linear" x1="41.9089" y1="46.1609" x2="42.0479" y2="52.9811" gradientUnits="userSpaceOnUse">
<stop stop-color="#F41E3D"/>
<stop offset="1" stop-color="#D5122E"/>
</linearGradient>
<linearGradient id="paint8_linear" x1="38.5612" y1="42.8175" x2="38.6197" y2="49.6401" gradientUnits="userSpaceOnUse">
<stop stop-color="#F41E3D"/>
<stop offset="1" stop-color="#D5122E"/>
</linearGradient>
<linearGradient id="paint9_linear" x1="36.0504" y1="49.5042" x2="36.1089" y2="56.3268" gradientUnits="userSpaceOnUse">
<stop stop-color="#F41E3D"/>
<stop offset="1" stop-color="#D5122E"/>
</linearGradient>
<linearGradient id="paint10_linear" x1="56.1369" y1="42.8175" x2="56.1716" y2="44.5226" gradientUnits="userSpaceOnUse">
<stop stop-color="#F41E3D"/>
<stop offset="1" stop-color="#D5122E"/>
</linearGradient>
<linearGradient id="paint11_linear" x1="59.4846" y1="42.8175" x2="59.5194" y2="44.5226" gradientUnits="userSpaceOnUse">
<stop stop-color="#F41E3D"/>
<stop offset="1" stop-color="#D5122E"/>
</linearGradient>
<linearGradient id="paint12_linear" x1="32.7026" y1="54.5192" x2="32.7373" y2="56.2242" gradientUnits="userSpaceOnUse">
<stop stop-color="#F41E3D"/>
<stop offset="1" stop-color="#D5122E"/>
</linearGradient>
<linearGradient id="paint13_linear" x1="29.3548" y1="54.5192" x2="29.3896" y2="56.2242" gradientUnits="userSpaceOnUse">
<stop stop-color="#F41E3D"/>
<stop offset="1" stop-color="#D5122E"/>
</linearGradient>
</defs>
</svg>
