<svg width="90" height="69" viewBox="0 0 90 69" fill="none" xmlns="http://www.w3.org/2000/svg">
<rect width="90" height="69" fill="black" fill-opacity="0"/>
<path d="M62.7273 13.6364C70.8004 13.6364 77.5927 19.5106 78.9271 27.3307C85.1421 27.9337 90 33.1722 90 39.5455C90 46.3235 84.5053 51.8182 77.7273 51.8182H69.5455C68.7923 51.8182 68.1818 51.2077 68.1818 50.4545C68.1818 49.7014 68.7923 49.0909 69.5455 49.0909H77.7273C82.9991 49.0909 87.2727 44.8173 87.2727 39.5455C87.2727 34.2736 82.9991 30 77.7273 30C77.0257 30 76.4386 29.4677 76.3701 28.7695C75.6827 21.7619 69.79 16.3636 62.7273 16.3636C61.4539 16.3636 60.2052 16.5378 59.0051 16.8775C58.3215 17.071 57.6039 16.7072 57.3559 16.0415C54.3979 8.10174 46.7962 2.72727 38.1818 2.72727C28.7897 2.72727 20.6703 9.11157 18.3683 18.0802C18.2186 18.6631 17.7045 19.0791 17.1031 19.1036C9.08559 19.4313 2.72727 26.0389 2.72727 34.0909C2.72727 42.3752 9.443 49.0909 17.7273 49.0909H20.4545C21.2077 49.0909 21.8182 49.7014 21.8182 50.4545C21.8182 51.2077 21.2077 51.8182 20.4545 51.8182H17.7273C7.93677 51.8182 0 43.8814 0 34.0909C0 24.9112 6.99176 17.3206 15.9935 16.4474C18.9192 6.7847 27.8734 0 38.1818 0C47.5314 0 55.8282 5.58627 59.4582 13.9632C60.526 13.7466 61.6197 13.6364 62.7273 13.6364Z" fill="url(#paint0_linear)"/>
<rect width="41" height="49" fill="black" fill-opacity="0" transform="translate(22 20)"/>
<path d="M50.6118 53.777C50.4481 54.6965 49.9411 56.0952 48.3502 56.0952H39.7716V57.6407H48.3502C51.4697 57.6407 52.2496 54.6116 52.2496 53.0042C52.2496 52.7993 52.1674 52.6027 52.0211 52.4578C51.8749 52.3129 51.6765 52.2315 51.4697 52.2315H31.9729C31.8702 52.2309 31.7684 52.2504 31.6735 52.2888C31.5784 52.3272 31.4921 52.3839 31.4192 52.4556L22.0607 61.7286L23.1603 62.8181L32.2926 53.777H50.6118Z" fill="url(#paint1_linear)"/>
<path d="M61.3819 47.0462C61.2358 46.9023 61.0382 46.8215 60.8321 46.8215C60.6261 46.8215 60.4285 46.9023 60.2823 47.0462L53.2634 54.001L54.3631 55.0905L60.7658 48.7463C61.2747 49.4151 61.5072 50.251 61.416 51.0837C61.3247 51.9164 60.9165 52.6833 60.2745 53.2282L51.15 62.2772H35.0923C34.9897 62.2765 34.888 62.296 34.7929 62.3345C34.698 62.3729 34.6115 62.4296 34.5386 62.5012L29.0795 67.9105L30.1791 69L35.4121 63.8226H51.4697C51.5724 63.8232 51.6741 63.8037 51.7691 63.7653C51.8641 63.7268 51.9506 63.6701 52.0235 63.5985L61.3819 54.3256C64.283 51.4586 62.6454 48.3058 61.3819 47.0462Z" fill="url(#paint2_linear)"/>
<path d="M38.2119 56.0951H36.6521V57.6406H38.2119V56.0951Z" fill="url(#paint3_linear)"/>
<path d="M34.3905 35.2309C34.5542 34.3114 35.0612 32.9127 36.6521 32.9127H45.2307V31.3672H36.6521C33.5326 31.3672 32.7527 34.3963 32.7527 36.0036C32.7527 36.2086 32.8349 36.4052 32.9812 36.5501C33.1274 36.695 33.3258 36.7765 33.5326 36.7765H53.0295C53.1321 36.777 53.2339 36.7575 53.3288 36.719C53.4239 36.6806 53.5103 36.624 53.5831 36.5523L62.9417 27.2793L61.8343 26.182L52.7097 35.2309H34.3905Z" fill="url(#paint4_linear)"/>
<path d="M24.1741 42.1856C24.2767 42.1862 24.3785 42.1667 24.4735 42.1282C24.5686 42.0898 24.6549 42.0332 24.7278 41.9615L31.7467 35.0068L30.6471 33.9172L24.2365 40.2615C23.7276 39.5927 23.4951 38.7568 23.5863 37.9241C23.6776 37.0914 24.0859 36.3245 24.7278 35.7796L33.8524 26.7307H49.91C50.0126 26.7312 50.1143 26.7117 50.2094 26.6732C50.3043 26.6348 50.3908 26.5782 50.4637 26.5066L55.9228 21.0973L54.8154 20L49.5902 25.1851H33.5326C33.43 25.1846 33.3282 25.2041 33.2332 25.2425C33.1382 25.281 33.0517 25.3376 32.9789 25.4092L23.6204 34.6822C20.7193 37.5569 22.3492 40.7019 23.6204 41.9538C23.6926 42.0268 23.7787 42.0849 23.8738 42.1247C23.9688 42.1645 24.071 42.1852 24.1741 42.1856Z" fill="url(#paint5_linear)"/>
<path d="M48.3502 31.3671H46.7905V32.9125H48.3502V31.3671Z" fill="url(#paint6_linear)"/>
<path d="M46.7905 44.5039C46.7905 43.8925 46.6075 43.2948 46.2647 42.7865C45.922 42.2782 45.4348 41.8821 44.8648 41.6482C44.2948 41.4142 43.6675 41.353 43.0624 41.4722C42.4572 41.5915 41.9014 41.8859 41.4651 42.3182C41.0289 42.7505 40.7318 43.3012 40.6114 43.9008C40.4911 44.5004 40.5529 45.1219 40.7889 45.6867C41.025 46.2515 41.4249 46.7343 41.9378 47.0739C42.4509 47.4135 43.054 47.5948 43.671 47.5948C44.4983 47.5948 45.2918 47.2692 45.8768 46.6895C46.4618 46.1099 46.7905 45.3236 46.7905 44.5039ZM42.1112 44.5039C42.1112 44.1982 42.2028 43.8994 42.3741 43.6452C42.5455 43.3911 42.7891 43.193 43.0741 43.076C43.3591 42.959 43.6727 42.9284 43.9753 42.988C44.2778 43.0476 44.5558 43.1949 44.7739 43.411C44.9921 43.6271 45.1406 43.9025 45.2008 44.2024C45.261 44.5021 45.23 44.8128 45.112 45.0953C44.9939 45.3777 44.794 45.619 44.5375 45.7889C44.2811 45.9587 43.9794 46.0493 43.671 46.0493C43.2573 46.0493 42.8606 45.8865 42.5681 45.5966C42.2755 45.3068 42.1112 44.9137 42.1112 44.5039Z" fill="url(#paint7_linear)"/>
<path d="M52.2496 38.3219H43.671C42.0163 38.3219 40.4294 38.9732 39.2593 40.1326C38.0893 41.2919 37.432 42.8644 37.432 44.5039H38.9917C38.9917 43.2742 39.4847 42.0949 40.3622 41.2254C41.2398 40.356 42.4299 39.8674 43.671 39.8674H52.2496V38.3219Z" fill="url(#paint8_linear)"/>
<path d="M35.0924 50.6857H43.671C45.3256 50.6857 46.9126 50.0344 48.0826 48.875C49.2527 47.7158 49.91 46.1433 49.91 44.5038H48.3502C48.3502 45.7334 47.8572 46.9127 46.9797 47.7823C46.1022 48.6518 44.912 49.1403 43.671 49.1403H35.0924V50.6857Z" fill="url(#paint9_linear)"/>
<path d="M55.3691 38.3219H53.8094V39.8674H55.3691V38.3219Z" fill="url(#paint10_linear)"/>
<path d="M58.4886 38.3219H56.9288V39.8674H58.4886V38.3219Z" fill="url(#paint11_linear)"/>
<path d="M33.5327 49.1404H31.9729V50.6858H33.5327V49.1404Z" fill="url(#paint12_linear)"/>
<path d="M30.4131 49.1404H28.8533V50.6858H30.4131V49.1404Z" fill="url(#paint13_linear)"/>
<defs>
<linearGradient id="paint0_linear" x1="0" y1="0" x2="0.621212" y2="52.8684" gradientUnits="userSpaceOnUse">
<stop stop-color="#F41E3D"/>
<stop offset="1" stop-color="#D5122E"/>
</linearGradient>
<linearGradient id="paint1_linear" x1="22.0607" y1="52.2315" x2="22.138" y2="63.0337" gradientUnits="userSpaceOnUse">
<stop stop-color="#F41E3D"/>
<stop offset="1" stop-color="#D5122E"/>
</linearGradient>
<linearGradient id="paint2_linear" x1="29.0795" y1="46.8215" x2="29.3815" y2="69.4486" gradientUnits="userSpaceOnUse">
<stop stop-color="#F41E3D"/>
<stop offset="1" stop-color="#D5122E"/>
</linearGradient>
<linearGradient id="paint3_linear" x1="36.6521" y1="56.0951" x2="36.684" y2="57.6715" gradientUnits="userSpaceOnUse">
<stop stop-color="#F41E3D"/>
<stop offset="1" stop-color="#D5122E"/>
</linearGradient>
<linearGradient id="paint4_linear" x1="32.7527" y1="26.182" x2="32.8301" y2="36.9921" gradientUnits="userSpaceOnUse">
<stop stop-color="#F41E3D"/>
<stop offset="1" stop-color="#D5122E"/>
</linearGradient>
<linearGradient id="paint5_linear" x1="22" y1="20" x2="22.3021" y2="42.6344" gradientUnits="userSpaceOnUse">
<stop stop-color="#F41E3D"/>
<stop offset="1" stop-color="#D5122E"/>
</linearGradient>
<linearGradient id="paint6_linear" x1="46.7905" y1="31.3671" x2="46.8224" y2="32.9434" gradientUnits="userSpaceOnUse">
<stop stop-color="#F41E3D"/>
<stop offset="1" stop-color="#D5122E"/>
</linearGradient>
<linearGradient id="paint7_linear" x1="40.5515" y1="41.4129" x2="40.679" y2="47.7184" gradientUnits="userSpaceOnUse">
<stop stop-color="#F41E3D"/>
<stop offset="1" stop-color="#D5122E"/>
</linearGradient>
<linearGradient id="paint8_linear" x1="37.432" y1="38.3219" x2="37.4857" y2="44.6296" gradientUnits="userSpaceOnUse">
<stop stop-color="#F41E3D"/>
<stop offset="1" stop-color="#D5122E"/>
</linearGradient>
<linearGradient id="paint9_linear" x1="35.0924" y1="44.5038" x2="35.1461" y2="50.8115" gradientUnits="userSpaceOnUse">
<stop stop-color="#F41E3D"/>
<stop offset="1" stop-color="#D5122E"/>
</linearGradient>
<linearGradient id="paint10_linear" x1="53.8094" y1="38.3219" x2="53.8412" y2="39.8983" gradientUnits="userSpaceOnUse">
<stop stop-color="#F41E3D"/>
<stop offset="1" stop-color="#D5122E"/>
</linearGradient>
<linearGradient id="paint11_linear" x1="56.9288" y1="38.3219" x2="56.9608" y2="39.8983" gradientUnits="userSpaceOnUse">
<stop stop-color="#F41E3D"/>
<stop offset="1" stop-color="#D5122E"/>
</linearGradient>
<linearGradient id="paint12_linear" x1="31.9729" y1="49.1404" x2="32.0047" y2="50.7167" gradientUnits="userSpaceOnUse">
<stop stop-color="#F41E3D"/>
<stop offset="1" stop-color="#D5122E"/>
</linearGradient>
<linearGradient id="paint13_linear" x1="28.8533" y1="49.1404" x2="28.8853" y2="50.7167" gradientUnits="userSpaceOnUse">
<stop stop-color="#F41E3D"/>
<stop offset="1" stop-color="#D5122E"/>
</linearGradient>
</defs>
</svg>
