<svg width="90" height="69" viewBox="0 0 90 69" fill="none" xmlns="http://www.w3.org/2000/svg">
<rect width="90" height="69" fill="black" fill-opacity="0"/>
<path d="M62.7273 13.6364C70.8004 13.6364 77.5927 19.5106 78.9271 27.3307C85.1421 27.9337 90 33.1722 90 39.5455C90 46.3235 84.5053 51.8182 77.7273 51.8182H69.5455C68.7923 51.8182 68.1818 51.2077 68.1818 50.4545C68.1818 49.7014 68.7923 49.0909 69.5455 49.0909H77.7273C82.9991 49.0909 87.2727 44.8173 87.2727 39.5455C87.2727 34.2736 82.9991 30 77.7273 30C77.0257 30 76.4386 29.4677 76.3701 28.7695C75.6827 21.7619 69.79 16.3636 62.7273 16.3636C61.4539 16.3636 60.2052 16.5378 59.0051 16.8775C58.3215 17.071 57.6039 16.7072 57.3559 16.0415C54.3979 8.10174 46.7962 2.72727 38.1818 2.72727C28.7897 2.72727 20.6703 9.11157 18.3683 18.0802C18.2186 18.6631 17.7045 19.0791 17.1031 19.1036C9.08559 19.4313 2.72727 26.0389 2.72727 34.0909C2.72727 42.3752 9.443 49.0909 17.7273 49.0909H20.4545C21.2077 49.0909 21.8182 49.7014 21.8182 50.4545C21.8182 51.2077 21.2077 51.8182 20.4545 51.8182H17.7273C7.93677 51.8182 0 43.8814 0 34.0909C0 24.9112 6.99176 17.3206 15.9935 16.4474C18.9192 6.7847 27.8734 0 38.1818 0C47.5314 0 55.8282 5.58627 59.4582 13.9632C60.526 13.7466 61.6197 13.6364 62.7273 13.6364Z" fill="url(#paint0_linear)"/>
<path d="M58.2725 27.0031C58.0416 27.0238 57.8196 27.1321 57.6611 27.3014L50.9813 34.46C50.7259 34.73 50.6511 35.1561 50.7994 35.497C50.9477 35.8379 51.3105 36.0736 51.6821 36.0706C53.0213 36.0622 53.6541 36.0683 54.5449 36.0706V48.4639C54.5378 48.9681 54.995 49.4319 55.4992 49.4319C56.0033 49.4319 56.4605 48.9681 56.4534 48.4639V35.1162C56.4534 34.6164 55.9988 34.1617 55.4992 34.1617C54.7838 34.1617 54.3208 34.1631 53.8739 34.1617L58.3619 29.3446L62.8499 34.1617C62.4034 34.1614 61.9486 34.1668 61.2247 34.1617C60.7251 34.1617 60.2705 34.6164 60.2704 35.1162V67.0911H56.4534V62.7512C56.4605 62.247 56.0033 61.7831 55.4992 61.7831C54.995 61.7831 54.5378 62.247 54.5449 62.7512V68.0455C54.5449 68.5453 54.9995 69 55.4992 69H61.2247C61.7243 69 62.1789 68.5453 62.1789 68.0455V36.0706C63.0834 36.0745 63.7232 36.0771 65.0417 36.0706C65.4134 36.0735 65.7761 35.8379 65.9244 35.497C66.0727 35.1561 65.998 34.73 65.7425 34.46L59.0478 27.3014C58.8518 27.0924 58.558 26.9793 58.2725 27.0031ZM44.9129 35.5934C44.7166 35.6102 44.5262 35.6895 44.3761 35.8171L37.7112 41.544C37.4122 41.7953 37.2946 42.2411 37.4307 42.6073C37.5667 42.9735 37.9469 43.2342 38.3374 43.2292C39.6757 43.2227 40.2966 43.2273 41.1853 43.2292V44.1688C41.1754 44.6722 41.6286 45.1381 42.132 45.142C42.6355 45.1458 43.0958 44.6872 43.0938 44.1836V42.2747C43.0938 41.7749 42.6392 41.3203 42.1396 41.3202C41.5945 41.3202 41.2613 41.3212 40.902 41.3202L45.0023 37.8006L49.1176 41.3203C48.7552 41.3193 48.4336 41.3231 47.88 41.3203C47.3804 41.3124 46.9186 41.76 46.9108 42.2598V44.1688C46.901 44.6722 47.3541 45.1381 47.8576 45.142C48.361 45.1458 48.8214 44.6872 48.8194 44.1836V43.2292C49.7251 43.232 50.3767 43.2341 51.697 43.2292C52.0851 43.2282 52.459 42.9651 52.5914 42.6002C52.7237 42.2353 52.6054 41.7937 52.3084 41.5439L45.6286 35.8171C45.4332 35.6503 45.1684 35.5675 44.9129 35.5934ZM31.5384 42.752C31.3472 42.7717 31.1626 42.8508 31.0165 42.9757L24.3367 48.7025C24.0377 48.9539 23.9202 49.3997 24.0562 49.7658C24.1923 50.1319 24.5724 50.3927 24.9629 50.3877C26.3037 50.3829 26.9349 50.3877 27.8257 50.3877V68.0455C27.8257 68.5453 28.2803 69 28.78 69H34.5055C35.0051 69 35.4597 68.5453 35.4598 68.0455V60.887C35.4669 60.3827 35.0097 59.9189 34.5055 59.9189C34.0013 59.9189 33.5441 60.3827 33.5512 60.887V67.0911H29.7342V49.4333C29.7342 48.9335 29.2796 48.4789 28.78 48.4788H27.5275L31.6427 44.9443L33.8942 46.8234C34.2806 47.1436 34.9235 47.0832 35.2436 46.6966C35.5636 46.3101 35.5033 45.6671 35.1168 45.3469L32.2391 42.9607C32.0451 42.8029 31.7872 42.7261 31.5384 42.752ZM45.0023 46.5698C40.0069 46.5698 35.9369 50.6408 35.9369 55.6374C35.9369 60.6339 40.0069 64.7049 45.0023 64.7049C49.9977 64.7049 54.0678 60.6339 54.0678 55.6374C54.0678 50.6408 49.9977 46.5698 45.0023 46.5698ZM45.0023 48.4788C48.9663 48.4788 52.1592 51.6725 52.1592 55.6374C52.1592 59.6022 48.9663 62.7959 45.0023 62.7959C41.0384 62.7959 37.8454 59.6022 37.8454 55.6374C37.8454 51.6725 41.0384 48.4788 45.0023 48.4788ZM44.898 50.3728C44.4291 50.4244 44.0379 50.8705 44.0481 51.3422V51.4914C43.591 51.6036 43.1806 51.7667 42.8254 51.9984C42.2449 52.3772 41.7854 52.9325 41.6922 53.6389C41.5991 54.3454 41.9329 55.0769 42.4974 55.5628C43.0619 56.0487 43.8391 56.3695 44.8383 56.562C45.6152 56.7118 46.0792 56.9669 46.2846 57.1436C46.3797 57.2254 46.4225 57.2751 46.4407 57.3067C46.4655 57.3568 46.4447 57.3884 46.4366 57.4016C46.4125 57.4519 46.3447 57.5486 46.1653 57.6656C45.934 57.8166 45.5381 57.9761 45.005 58.02C44.9545 58.0267 44.8973 58.02 44.8499 58.0248C44.2811 58.008 43.5286 57.8076 42.8702 57.638C42.3862 57.5132 41.8323 57.84 41.7074 58.324C41.5826 58.8081 41.9091 59.3622 42.393 59.4873C42.8498 59.605 43.4255 59.7668 44.0481 59.8601V59.9347C44.0409 60.4389 44.4981 60.9028 45.0023 60.9028C45.5065 60.9028 45.9637 60.4389 45.9566 59.9347V59.7855C46.4249 59.6779 46.8467 59.5149 47.2091 59.2785C47.7896 58.8997 48.249 58.3295 48.3422 57.6231C48.4354 56.9167 48.1016 56.1851 47.5371 55.6992C46.9726 55.2134 46.1953 54.8926 45.1962 54.7C44.4193 54.5503 43.9553 54.2951 43.7499 54.1184C43.6558 54.0374 43.6129 53.988 43.5943 53.9563C43.5636 53.9068 43.5938 53.8896 43.5936 53.8701C43.6132 53.8234 43.6775 53.7214 43.8692 53.5964C44.1073 53.441 44.5199 53.2914 45.0769 53.2534C45.081 53.2533 45.0877 53.2534 45.0918 53.2534C45.68 53.2486 46.4658 53.4433 47.1643 53.6262C47.6483 53.751 48.2022 53.4242 48.3271 52.9401C48.452 52.4561 48.1254 51.902 47.6415 51.7769C47.1745 51.6547 46.5905 51.5061 45.9566 51.419V51.3444C45.9683 50.803 45.4362 50.3158 44.898 50.375V50.3728ZM42.0352 66.1217C41.5663 66.1732 41.1752 66.6193 41.1853 67.0911V68.0455C41.1853 68.5453 41.6399 69 42.1396 69H47.8651C48.3647 69 48.8193 68.5453 48.8194 68.0455V67.0911C48.8265 66.5868 48.3693 66.123 47.8651 66.123C47.3609 66.123 46.9037 66.5868 46.9108 67.0911H43.0938C43.1055 66.5496 42.5734 66.0624 42.0352 66.1217Z" fill="url(#paint1_linear)"/>
<defs>
<linearGradient id="paint0_linear" x1="0" y1="0" x2="0.621212" y2="52.8684" gradientUnits="userSpaceOnUse">
<stop stop-color="#F41E3D"/>
<stop offset="1" stop-color="#D5122E"/>
</linearGradient>
<linearGradient id="paint1_linear" x1="24" y1="27" x2="24.8743" y2="69.8393" gradientUnits="userSpaceOnUse">
<stop stop-color="#F41E3D"/>
<stop offset="1" stop-color="#D5122E"/>
</linearGradient>
</defs>
</svg>
