<svg width="1082" height="820" viewBox="0 0 1082 820" fill="none" xmlns="http://www.w3.org/2000/svg">
<rect width="1081.29" height="820" fill="black" fill-opacity="0" transform="translate(0.708496)"/>
<path d="M1015.01 180H432V30H1015.01C1052.05 30 1082 63.5294 1082 105C1082 146.25 1052.05 180 1015.01 180Z" fill="#827DDC"/>
<path d="M1014.17 600H466V450H1014.17C1051.18 450 1081.1 483.529 1081.1 525C1081.1 566.471 1051.18 600 1014.17 600Z" fill="#3FD4FB"/>
<path d="M67.9285 400H623.531V250H67.9285C30.921 250 1 283.529 1 325C1 366.471 30.921 400 67.9285 400Z" fill="#EF5350"/>
<path d="M67.637 792.351H649.956V642.351H67.637C30.6295 642.351 0.708496 675.88 0.708496 717.351C0.708496 758.601 30.6295 792.351 67.637 792.351Z" fill="#E9B300"/>
<path d="M724.167 582.959C693.853 582.369 666.097 593.189 644.838 611.286C629.09 624.663 606.846 627.417 588.342 617.975L513.54 582.173C495.233 572.73 484.8 553.256 486.178 532.797C486.178 531.814 486.374 530.83 486.374 529.65C487.162 513.323 495.43 498.176 509.209 489.127L600.153 428.932C617.279 417.523 639.523 417.916 656.845 429.129C676.924 442.309 701.136 449.587 727.12 448.407C789.324 445.653 839.324 394.507 840.702 332.346C842.08 265.463 788.34 210.973 721.805 210.973C698.774 210.973 677.121 217.465 659.011 228.874C642.869 238.906 622.594 239.497 606.058 230.054L506.65 172.614C489.721 162.975 480.272 144.484 481.256 125.009C484.603 62.0603 436.966 5.01322 371.021 0.292076C303.502 -4.42906 245.038 48.6838 243.463 116.157C242.085 183.04 295.825 237.529 362.36 237.529C383.816 237.529 403.698 231.825 421.218 221.989C436.965 212.94 456.454 212.94 472.201 221.989L577.318 282.577C593.263 291.822 603.302 308.937 602.909 327.231C602.909 327.428 602.909 327.624 602.909 327.821C602.712 344.739 594.247 360.476 580.074 369.721L493.658 426.965C476.138 438.571 453.304 438.375 436.178 426.178C416.887 412.605 393.462 404.54 368.069 404.343C303.699 404.146 250.156 456.079 248.778 520.208C247.204 587.09 300.943 641.974 367.675 641.974C387.95 641.974 407.045 636.859 423.777 627.81C438.54 619.942 456.257 619.745 471.02 627.417L576.925 679.153C591.885 686.825 601.925 701.381 604.287 718.102C612.554 775.739 662.16 820 722.002 820C788.537 820 842.473 765.313 840.899 698.234C839.324 635.679 787.553 584.14 724.167 582.959Z" fill="url(#paint0_radial)"/>
<path d="M722.002 807.213C669.837 807.213 624.956 768.461 617.672 716.922C614.719 695.676 601.727 677.382 583.224 667.94L477.122 616.204C468.067 611.483 457.831 609.122 447.792 609.122C437.162 609.122 426.729 611.68 417.477 616.794C402.32 625.056 384.997 629.187 367.675 629.187C339.132 629.187 312.163 617.974 292.282 597.516C272.203 577.058 261.573 549.911 262.361 521.388C263.739 464.734 310.982 418.506 367.872 418.506H368.265C390.115 418.506 410.981 425.194 428.698 437.784C439.524 445.456 452.319 449.587 465.508 449.587C478.303 449.587 490.508 445.849 501.138 438.768L587.554 381.524C605.271 369.721 616.097 350.05 616.491 328.608V328.214C617.082 305.002 604.68 283.364 584.208 271.561L479.091 210.776C469.248 205.071 458.225 202.121 447.005 202.121C435.784 202.121 424.564 205.071 414.721 210.776C398.974 219.825 380.864 224.546 362.557 224.546C334.014 224.546 307.242 213.333 287.164 192.875C267.085 172.417 256.455 145.467 257.046 116.747C258.227 59.8963 305.667 13.6685 362.753 13.6685C365.116 13.6685 367.675 13.6685 370.234 13.8652C427.123 17.7995 471.02 67.3714 467.871 124.419C466.493 149.205 478.894 172.023 499.957 184.22L599.365 241.66C609.011 247.365 620.231 250.316 631.452 250.316C643.656 250.316 655.664 246.775 666.097 240.283C682.829 229.857 702.12 224.349 721.805 224.349C750.348 224.349 777.12 235.562 797.198 256.02C817.277 276.479 827.906 303.428 827.316 331.952C826.135 387.229 781.844 432.473 726.529 434.833C724.955 434.833 723.38 435.03 721.805 435.03C701.333 435.03 681.254 429.129 664.128 417.916C653.302 410.834 640.9 407.097 628.105 407.097C615.507 407.097 603.105 410.834 592.672 417.719L501.728 477.914C484.799 489.127 473.973 508.208 472.989 528.863C472.989 529.846 472.792 530.633 472.792 531.617C470.823 557.78 484.406 582.172 507.24 593.975L582.24 629.777C591.295 634.302 601.334 636.859 611.373 636.859C626.727 636.859 641.688 631.351 653.302 621.319C672.396 604.991 696.608 596.139 721.608 596.139C722.199 596.139 722.986 596.139 723.577 596.139C750.742 596.533 776.332 607.549 795.82 626.827C815.308 646.105 826.332 671.677 826.922 698.824C827.513 727.544 816.883 754.494 797.001 774.952C777.513 795.804 750.545 807.213 722.002 807.213Z" fill="#827DDC"/>
<path d="M796.214 627.22C776.726 607.942 751.135 596.926 723.97 596.533C723.38 596.533 722.592 596.533 722.002 596.533C697.002 596.533 672.593 605.385 653.695 621.712C641.885 631.745 626.854 637 611.5 637C601.46 637 591.491 634.892 582.633 630.171L551.334 615.221L537.161 645.515L583.421 668.137C601.924 677.579 614.916 696.07 617.869 717.118C625.152 768.658 670.034 807.41 722.199 807.41C750.742 807.41 777.71 796.198 797.592 775.739C817.67 755.281 828.3 728.134 827.513 699.611C826.725 672.071 815.702 646.498 796.214 627.22Z" fill="#E9B300"/>
<path d="M507.437 594.321C484.406 582.518 470.823 558.126 472.989 531.963C472.989 530.979 473.185 530.192 473.185 529.209C474.17 508.554 484.996 489.473 501.925 478.26L563.736 437.343L544.838 410L501.138 438.72C490.508 445.802 478.107 449.54 465.508 449.54C452.123 449.54 439.328 445.409 428.698 437.737C410.981 425.147 390.115 418.459 368.265 418.459H367.872C310.982 418.459 263.739 464.49 262.361 521.34C261.77 550.06 272.4 577.01 292.282 597.469C312.36 617.927 339.132 629.14 367.675 629.14C384.997 629.14 402.32 624.812 417.477 616.747C426.729 611.829 437.162 609.075 447.792 609.075C458.028 609.075 468.067 611.435 477.122 616.156L536.964 645.27L551.137 614.976L507.437 594.321Z" fill="#3FD4FB"/>
<path d="M592.87 417.779C603.303 410.894 615.704 407.157 628.302 407.157C641.098 407.157 653.499 410.894 664.326 417.976C681.452 429.189 701.53 435.09 722.002 435.09C723.577 435.09 725.152 435.09 726.727 434.894C782.041 432.533 826.332 387.289 827.513 332.012C828.104 303.489 817.474 276.342 797.395 256.08C777.317 235.622 750.545 224.409 722.002 224.409C702.317 224.409 683.026 229.917 666.294 240.343C655.861 246.835 643.853 250.376 631.649 250.376C620.428 250.376 609.208 247.425 599.563 241.72L549.957 213L533.225 241.72L584.405 271.227C604.877 283.03 617.082 304.669 616.688 327.881V328.275C616.295 349.716 605.468 369.584 587.752 381.191L545.036 409.517L563.933 436.861L592.87 417.779Z" fill="#EF5350"/>
<path d="M362.598 207.076C410.976 207.076 450.195 167.884 450.195 119.538C450.195 71.192 410.976 32 362.598 32C314.219 32 275 71.192 275 119.538C275 167.884 314.219 207.076 362.598 207.076Z" fill="url(#paint1_radial)"/>
<rect width="100" height="100" fill="black" fill-opacity="0" transform="translate(313 70)"/>
<path d="M363.991 93.4285C344.011 93.4285 332.234 115.654 343.133 132.067C349.454 141.58 355.7 139.905 355.7 143.455L355.713 158.23C364.267 158.23 363.652 157.38 363.652 165.205H364.906C364.906 157.405 364.317 158.23 372.695 158.23V143.267C372.695 139.78 378.803 141.317 384.949 131.892C395.66 115.466 383.858 93.4285 363.991 93.4285ZM342.945 97.3536C361.645 78.7032 393.754 91.991 393.754 118.329C393.754 129.592 387.37 139.73 377.474 144.767V160.605C377.474 163.78 373.222 162.993 369.685 162.993C369.685 170.88 370.362 169.968 361.269 169.968C358.159 169.968 358.874 166.03 358.874 162.993C349.053 162.993 350.934 165.23 350.934 144.98C332.635 136.054 328.458 111.791 342.945 97.3536Z" fill="url(#paint2_linear)"/>
<path d="M394.995 84.5783C397.228 82.3658 400.602 85.7284 398.382 87.9409L392.148 94.141C389.928 96.3661 386.554 92.991 388.774 90.7785L394.995 84.5783Z" fill="url(#paint3_linear)"/>
<path d="M398.382 151.73C400.602 153.942 397.228 157.317 394.995 155.092L388.774 148.892C386.554 146.68 389.928 143.317 392.148 145.53L398.382 151.73Z" fill="url(#paint4_linear)"/>
<path d="M315.352 122.217C312.216 122.217 312.216 117.454 315.352 117.454H324.156C327.305 117.454 327.305 122.217 324.156 122.217H315.352Z" fill="url(#paint5_linear)"/>
<path d="M333.839 145.53C336.072 143.317 339.446 146.68 337.226 148.892L331.005 155.092C328.772 157.317 325.398 153.942 327.618 151.73L333.839 145.53Z" fill="url(#paint6_linear)"/>
<path d="M337.226 90.7785C339.446 92.991 336.072 96.3661 333.839 94.141L327.618 87.9409C325.398 85.7284 328.772 82.3658 331.005 84.5783L337.226 90.7785Z" fill="url(#paint7_linear)"/>
<path d="M365.383 81.1284C365.383 84.2659 360.604 84.2659 360.604 81.1284V72.3532C360.604 69.2156 365.383 69.2156 365.383 72.3532V81.1284Z" fill="url(#paint8_linear)"/>
<path d="M401.844 122.217C398.695 122.217 398.695 117.454 401.844 117.454H410.648C413.784 117.454 413.784 122.217 410.648 122.217H401.844Z" fill="url(#paint9_linear)"/>
<path d="M367.598 611.076C415.976 611.076 455.195 571.884 455.195 523.538C455.195 475.192 415.976 436 367.598 436C319.219 436 280 475.192 280 523.538C280 571.884 319.219 611.076 367.598 611.076Z" fill="url(#paint10_radial)"/>
<rect width="69.8413" height="100" fill="black" fill-opacity="0" transform="translate(333 474)"/>
<path d="M402.841 574V543.841V524.794V508.921C402.841 489.635 387.206 474 367.921 474C348.635 474 333 489.635 333 508.921V529.556H340.937V550.19H366.333V572.413H353.635" stroke="url(#paint11_linear)" stroke-width="4" stroke-miterlimit="10"/>
<path d="M363.159 550.19H372.683" stroke="url(#paint12_linear)" stroke-width="4" stroke-miterlimit="10"/>
<path d="M358.397 488.286H352.048V507.333H358.397V488.286Z" stroke="url(#paint13_linear)" stroke-width="4" stroke-miterlimit="10"/>
<path d="M352.048 493.048H345.698V502.571H352.048V493.048Z" stroke="url(#paint14_linear)" stroke-width="4" stroke-miterlimit="10"/>
<path d="M377.444 507.333L383.794 507.333L383.794 488.286L377.444 488.286L377.444 507.333Z" stroke="url(#paint15_linear)" stroke-width="4" stroke-miterlimit="10"/>
<path d="M383.794 502.572L390.143 502.572L390.143 493.048L383.794 493.048L383.794 502.572Z" stroke="url(#paint16_linear)" stroke-width="4" stroke-miterlimit="10"/>
<path d="M358.397 497.81H377.444" stroke="url(#paint17_linear)" stroke-width="4" stroke-miterlimit="10"/>
<path d="M375.857 513.683H379.032" stroke="url(#paint18_linear)" stroke-width="4" stroke-miterlimit="10"/>
<path d="M382.206 513.683H385.381" stroke="url(#paint19_linear)" stroke-width="4" stroke-miterlimit="10"/>
<path d="M388.556 513.683H391.73" stroke="url(#paint20_linear)" stroke-width="4" stroke-miterlimit="10"/>
<path d="M721.598 417.076C769.976 417.076 809.195 377.884 809.195 329.538C809.195 281.192 769.976 242 721.598 242C673.219 242 634 281.192 634 329.538C634 377.884 673.219 417.076 721.598 417.076Z" fill="url(#paint21_radial)"/>
<rect width="100" height="100" fill="black" fill-opacity="0" transform="translate(672 280)"/>
<rect width="49.5207" height="49.5332" fill="black" fill-opacity="0" transform="translate(697.239 305.229)"/>
<rect width="35.0208" height="37.0429" fill="black" fill-opacity="0" transform="translate(704.489 317.72)"/>
<rect width="35.0208" height="37.0429" fill="black" fill-opacity="0" transform="translate(704.489 317.72)"/>
<rect width="35.0208" height="37.0429" fill="black" fill-opacity="0" transform="translate(704.489 317.72)"/>
<path d="M739.51 347.511C735.03 351.991 728.843 354.763 722.01 354.763C715.155 354.763 708.968 351.991 704.489 347.511C707.885 341.343 714.447 337.175 722.01 337.175C729.551 337.175 736.114 341.343 739.51 347.511Z" stroke="url(#paint22_linear)" stroke-width="4" stroke-miterlimit="10" stroke-linecap="round" stroke-linejoin="round"/>
<path d="M722 337.185C717.149 337.185 713.207 331.368 713.207 326.515C713.207 321.662 717.149 317.72 722 317.72C726.851 317.72 730.793 321.662 730.793 326.515C730.793 331.368 726.851 337.185 722 337.185Z" stroke="url(#paint23_linear)" stroke-width="4" stroke-miterlimit="10" stroke-linecap="round" stroke-linejoin="round"/>
<rect width="49.5207" height="49.5332" fill="black" fill-opacity="0" transform="translate(697.239 305.229)"/>
<rect width="49.5207" height="49.5332" fill="black" fill-opacity="0" transform="translate(697.239 305.229)"/>
<rect width="49.5207" height="49.5332" fill="black" fill-opacity="0" transform="translate(697.239 305.229)"/>
<path d="M746.76 330.006C746.76 336.842 743.989 343.031 739.51 347.511C735.03 351.991 728.843 354.763 722.01 354.763C715.155 354.763 708.968 351.991 704.489 347.511C700.01 343.031 697.239 336.842 697.239 330.006C697.239 316.315 708.322 305.229 722.01 305.229C735.676 305.229 746.76 316.315 746.76 330.006Z" stroke="url(#paint24_linear)" stroke-width="4" stroke-miterlimit="10" stroke-linecap="round" stroke-linejoin="round"/>
<path d="M772 324.637V335.363L762.231 339.081C761.176 343.728 759.343 348.098 756.857 352.017L761.126 361.562L753.567 369.148L743.999 364.853C740.107 367.34 735.737 369.174 731.091 370.229L727.349 380H716.651L712.909 370.229C708.263 369.174 703.893 367.34 700.001 364.853L690.433 369.148L682.874 361.562L687.143 352.017C684.657 348.098 682.824 343.728 681.769 339.081L672 335.363V324.637L681.769 320.919C682.824 316.247 684.657 311.876 687.143 307.983L682.874 298.437L690.433 290.852L700.001 295.147C703.893 292.66 708.263 290.826 712.909 289.771L716.651 280H727.349L731.091 289.771C735.737 290.826 740.107 292.66 743.999 295.147L753.567 290.852L761.126 298.437L756.857 307.983C759.343 311.876 761.176 316.247 762.231 320.919L772 324.637Z" stroke="url(#paint25_linear)" stroke-width="4" stroke-miterlimit="10" stroke-linecap="round" stroke-linejoin="round"/>
<path d="M722.598 789.076C770.976 789.076 810.195 749.884 810.195 701.538C810.195 653.192 770.976 614 722.598 614C674.219 614 635 653.192 635 701.538C635 749.884 674.219 789.076 722.598 789.076Z" fill="url(#paint26_radial)"/>
<rect width="100" height="100.001" fill="black" fill-opacity="0" transform="translate(673 651)"/>
<path d="M675.333 723.214C678.054 729.053 686.878 730.722 691.699 735.146C696.35 739.412 698.702 748.119 705.002 750.414C706.132 750.815 707.323 751.014 708.522 751.001C713.948 751.001 719.845 747.504 725.008 747.278C725.216 747.269 725.426 747.264 725.637 747.264C730.466 747.264 735.929 749.56 740.748 749.56C742.284 749.595 743.809 749.29 745.214 748.667C751.052 745.947 752.722 737.122 757.145 732.301C761.412 727.651 770.118 725.298 772.413 718.999C774.708 712.699 769.554 705.298 769.277 698.992C768.991 692.456 773.388 684.625 770.667 678.787C767.946 672.949 759.122 671.279 754.301 666.856C749.65 662.589 747.298 653.882 740.998 651.588C739.868 651.186 738.677 650.988 737.478 651.001C732.052 651.001 726.155 654.497 720.992 654.723C720.784 654.733 720.574 654.737 720.363 654.737C715.534 654.737 710.071 652.442 705.252 652.442C703.716 652.406 702.191 652.711 700.786 653.334C694.948 656.055 693.278 664.879 688.855 669.7C684.588 674.351 675.882 676.703 673.587 683.003C671.292 689.302 676.447 696.703 676.723 703.009C677.009 709.545 672.612 717.376 675.333 723.214ZM676.538 684.077C677.569 681.245 680.77 679.24 684.158 677.118C686.647 675.559 689.22 673.947 691.169 671.823C693.207 669.602 694.648 666.828 696.042 664.144C697.851 660.66 699.561 657.37 702.113 656.18C703.103 655.753 704.174 655.548 705.252 655.582C707.571 655.7 709.871 656.059 712.115 656.653C714.812 657.359 717.578 657.77 720.363 657.877C720.62 657.877 720.876 657.872 721.129 657.861C724.009 657.735 726.899 656.801 729.693 655.898C732.488 654.994 735.128 654.141 737.479 654.141C738.311 654.128 739.138 654.262 739.923 654.538C742.756 655.57 744.76 658.77 746.883 662.159C748.442 664.647 750.054 667.221 752.178 669.17C754.398 671.207 757.173 672.648 759.856 674.042C763.34 675.852 766.631 677.561 767.82 680.114C769.01 682.666 768.202 686.285 767.347 690.116C766.689 693.067 766.008 696.119 766.14 699.13C766.266 702.01 767.2 704.899 768.103 707.693C769.333 711.498 770.494 715.091 769.462 717.924C768.431 720.756 765.23 722.761 761.842 724.883C759.353 726.442 756.78 728.054 754.831 730.178C752.794 732.399 751.352 735.174 749.958 737.857C748.149 741.341 746.439 744.632 743.887 745.821C742.897 746.249 741.826 746.453 740.748 746.419C738.429 746.302 736.129 745.943 733.885 745.348C731.188 744.642 728.422 744.232 725.637 744.124C725.38 744.124 725.125 744.129 724.871 744.14C721.991 744.267 719.102 745.2 716.307 746.104C713.512 747.007 710.872 747.86 708.522 747.86C707.69 747.873 706.862 747.739 706.077 747.463C703.244 746.431 701.24 743.231 699.117 739.842C697.558 737.354 695.946 734.78 693.822 732.831C691.602 730.794 688.827 729.353 686.144 727.959C682.66 726.149 679.369 724.44 678.18 721.888C676.99 719.336 677.798 715.717 678.653 711.885C679.311 708.934 679.992 705.882 679.86 702.871C679.734 699.991 678.8 697.102 677.897 694.308C676.667 690.503 675.506 686.91 676.538 684.077Z" fill="url(#paint27_linear)"/>
<path d="M723 732.405C729.211 732.405 735.283 730.563 740.447 727.112C745.612 723.661 749.637 718.757 752.014 713.018C754.391 707.28 755.013 700.966 753.801 694.874C752.589 688.782 749.598 683.186 745.206 678.794C740.814 674.402 735.219 671.411 729.127 670.2C723.035 668.988 716.721 669.61 710.982 671.987C705.244 674.364 700.339 678.389 696.888 683.553C693.438 688.718 691.596 694.789 691.596 701C691.596 705.125 692.408 709.208 693.986 713.018C695.564 716.829 697.878 720.29 700.794 723.207C703.71 726.123 707.172 728.436 710.982 730.014C714.792 731.592 718.876 732.405 723 732.405ZM723 672.737C728.59 672.737 734.055 674.394 738.703 677.5C743.351 680.606 746.973 685.02 749.112 690.184C751.252 695.349 751.811 701.032 750.721 706.514C749.63 711.997 746.938 717.033 742.986 720.986C739.033 724.939 733.997 727.631 728.514 728.721C723.031 729.812 717.348 729.252 712.184 727.113C707.019 724.974 702.605 721.351 699.5 716.703C696.394 712.055 694.736 706.591 694.736 701C694.745 693.507 697.725 686.323 703.024 681.024C708.322 675.726 715.507 672.745 723 672.737Z" fill="url(#paint28_linear)"/>
<path d="M723 738.686C730.453 738.686 737.739 736.476 743.937 732.335C750.134 728.194 754.964 722.308 757.817 715.422C760.669 708.536 761.415 700.959 759.961 693.649C758.507 686.338 754.918 679.624 749.647 674.353C744.377 669.083 737.662 665.494 730.352 664.04C723.042 662.585 715.465 663.332 708.579 666.184C701.692 669.036 695.807 673.867 691.666 680.064C687.525 686.261 685.315 693.547 685.315 701.001C685.315 705.949 686.29 710.85 688.183 715.422C690.077 719.994 692.853 724.149 696.353 727.648C699.852 731.147 704.006 733.923 708.579 735.817C713.151 737.711 718.051 738.686 723 738.686ZM723 666.456C729.832 666.456 736.511 668.482 742.192 672.278C747.873 676.074 752.301 681.469 754.915 687.781C757.53 694.093 758.214 701.039 756.881 707.74C755.548 714.441 752.258 720.596 747.427 725.427C742.596 730.259 736.44 733.549 729.739 734.882C723.038 736.214 716.093 735.53 709.78 732.916C703.468 730.301 698.073 725.873 694.277 720.193C690.481 714.512 688.455 707.833 688.455 701.001C688.466 691.842 692.109 683.061 698.585 676.585C705.061 670.109 713.841 666.466 723 666.456V666.456Z" fill="url(#paint29_linear)"/>
<path d="M715.509 716.805C715.892 716.805 716.261 716.666 716.547 716.413L744.157 692.066C744.312 691.93 744.438 691.765 744.529 691.579C744.619 691.394 744.673 691.193 744.686 690.987C744.699 690.781 744.671 690.575 744.604 690.38C744.537 690.185 744.433 690.005 744.296 689.85L740.142 685.14C740.006 684.985 739.84 684.859 739.655 684.768C739.47 684.677 739.269 684.624 739.063 684.611C738.857 684.598 738.651 684.626 738.456 684.693C738.261 684.759 738.081 684.864 737.926 685L715.877 704.442L708.464 696.945C708.171 696.649 707.773 696.482 707.356 696.479C706.94 696.477 706.539 696.64 706.243 696.933L701.778 701.349C701.631 701.494 701.514 701.667 701.434 701.857C701.354 702.047 701.313 702.251 701.311 702.457C701.31 702.663 701.35 702.868 701.428 703.059C701.505 703.249 701.62 703.423 701.765 703.57L714.392 716.339C714.538 716.487 714.712 716.604 714.904 716.684C715.096 716.764 715.301 716.805 715.509 716.805ZM707.335 700.27L713.645 706.65L715.73 708.759L717.954 706.798L738.825 688.394L740.902 690.75L715.583 713.076L705.102 702.478L707.335 700.27Z" fill="url(#paint30_linear)"/>
<defs>
<radialGradient id="paint0_radial" cx="0" cy="0" r="1" gradientUnits="userSpaceOnUse" gradientTransform="translate(542.253 410.439) scale(358.913 358.668)">
<stop stop-color="white"/>
<stop offset="1" stop-color="#F2F2F2"/>
</radialGradient>
<radialGradient id="paint1_radial" cx="0" cy="0" r="1" gradientUnits="userSpaceOnUse" gradientTransform="translate(362.549 119.53) scale(87.559 87.4993)">
<stop stop-color="white"/>
<stop offset="1" stop-color="#F2F2F2"/>
</radialGradient>
<linearGradient id="paint2_linear" x1="334.225" y1="88.6411" x2="336.539" y2="171.596" gradientUnits="userSpaceOnUse">
<stop stop-color="#F41E3D"/>
<stop offset="1" stop-color="#D5122E"/>
</linearGradient>
<linearGradient id="paint3_linear" x1="388.048" y1="83.8546" x2="388.277" y2="95.09" gradientUnits="userSpaceOnUse">
<stop stop-color="#F41E3D"/>
<stop offset="1" stop-color="#D5122E"/>
</linearGradient>
<linearGradient id="paint4_linear" x1="388.048" y1="144.806" x2="388.277" y2="156.041" gradientUnits="userSpaceOnUse">
<stop stop-color="#F41E3D"/>
<stop offset="1" stop-color="#D5122E"/>
</linearGradient>
<linearGradient id="paint5_linear" x1="313" y1="117.454" x2="313.035" y2="122.314" gradientUnits="userSpaceOnUse">
<stop stop-color="#F41E3D"/>
<stop offset="1" stop-color="#D5122E"/>
</linearGradient>
<linearGradient id="paint6_linear" x1="326.892" y1="144.806" x2="327.12" y2="156.041" gradientUnits="userSpaceOnUse">
<stop stop-color="#F41E3D"/>
<stop offset="1" stop-color="#D5122E"/>
</linearGradient>
<linearGradient id="paint7_linear" x1="326.892" y1="83.8546" x2="327.12" y2="95.09" gradientUnits="userSpaceOnUse">
<stop stop-color="#F41E3D"/>
<stop offset="1" stop-color="#D5122E"/>
</linearGradient>
<linearGradient id="paint8_linear" x1="360.604" y1="70" x2="361.394" y2="83.7112" gradientUnits="userSpaceOnUse">
<stop stop-color="#F41E3D"/>
<stop offset="1" stop-color="#D5122E"/>
</linearGradient>
<linearGradient id="paint9_linear" x1="399.483" y1="117.454" x2="399.517" y2="122.314" gradientUnits="userSpaceOnUse">
<stop stop-color="#F41E3D"/>
<stop offset="1" stop-color="#D5122E"/>
</linearGradient>
<radialGradient id="paint10_radial" cx="0" cy="0" r="1" gradientUnits="userSpaceOnUse" gradientTransform="translate(367.615 523.578) scale(87.559 87.4993)">
<stop stop-color="white"/>
<stop offset="1" stop-color="#F2F2F2"/>
</radialGradient>
<linearGradient id="paint11_linear" x1="333" y1="474" x2="335.979" y2="575.954" gradientUnits="userSpaceOnUse">
<stop stop-color="#F41E3D"/>
<stop offset="1" stop-color="#D5122E"/>
</linearGradient>
<linearGradient id="paint12_linear" x1="363.159" y1="550.19" x2="363.161" y2="551.211" gradientUnits="userSpaceOnUse">
<stop stop-color="#F41E3D"/>
<stop offset="1" stop-color="#D5122E"/>
</linearGradient>
<linearGradient id="paint13_linear" x1="352.048" y1="488.286" x2="353.233" y2="507.649" gradientUnits="userSpaceOnUse">
<stop stop-color="#F41E3D"/>
<stop offset="1" stop-color="#D5122E"/>
</linearGradient>
<linearGradient id="paint14_linear" x1="345.698" y1="493.048" x2="345.996" y2="502.757" gradientUnits="userSpaceOnUse">
<stop stop-color="#F41E3D"/>
<stop offset="1" stop-color="#D5122E"/>
</linearGradient>
<linearGradient id="paint15_linear" x1="383.794" y1="507.333" x2="382.608" y2="487.969" gradientUnits="userSpaceOnUse">
<stop stop-color="#F41E3D"/>
<stop offset="1" stop-color="#D5122E"/>
</linearGradient>
<linearGradient id="paint16_linear" x1="390.143" y1="502.572" x2="389.846" y2="492.862" gradientUnits="userSpaceOnUse">
<stop stop-color="#F41E3D"/>
<stop offset="1" stop-color="#D5122E"/>
</linearGradient>
<linearGradient id="paint17_linear" x1="358.397" y1="497.81" x2="358.398" y2="498.83" gradientUnits="userSpaceOnUse">
<stop stop-color="#F41E3D"/>
<stop offset="1" stop-color="#D5122E"/>
</linearGradient>
<linearGradient id="paint18_linear" x1="375.857" y1="513.683" x2="375.864" y2="514.703" gradientUnits="userSpaceOnUse">
<stop stop-color="#F41E3D"/>
<stop offset="1" stop-color="#D5122E"/>
</linearGradient>
<linearGradient id="paint19_linear" x1="382.206" y1="513.683" x2="382.213" y2="514.703" gradientUnits="userSpaceOnUse">
<stop stop-color="#F41E3D"/>
<stop offset="1" stop-color="#D5122E"/>
</linearGradient>
<linearGradient id="paint20_linear" x1="388.556" y1="513.683" x2="388.562" y2="514.703" gradientUnits="userSpaceOnUse">
<stop stop-color="#F41E3D"/>
<stop offset="1" stop-color="#D5122E"/>
</linearGradient>
<radialGradient id="paint21_radial" cx="0" cy="0" r="1" gradientUnits="userSpaceOnUse" gradientTransform="translate(721.683 329.592) scale(87.5592 87.4994)">
<stop stop-color="white"/>
<stop offset="1" stop-color="#F2F2F2"/>
</radialGradient>
<linearGradient id="paint22_linear" x1="704.489" y1="337.175" x2="704.673" y2="355.12" gradientUnits="userSpaceOnUse">
<stop stop-color="#F41E3D"/>
<stop offset="1" stop-color="#D5122E"/>
</linearGradient>
<linearGradient id="paint23_linear" x1="713.207" y1="317.72" x2="713.655" y2="337.572" gradientUnits="userSpaceOnUse">
<stop stop-color="#F41E3D"/>
<stop offset="1" stop-color="#D5122E"/>
</linearGradient>
<linearGradient id="paint24_linear" x1="697.239" y1="305.229" x2="698.27" y2="355.752" gradientUnits="userSpaceOnUse">
<stop stop-color="#F41E3D"/>
<stop offset="1" stop-color="#D5122E"/>
</linearGradient>
<linearGradient id="paint25_linear" x1="672" y1="280" x2="674.082" y2="381.998" gradientUnits="userSpaceOnUse">
<stop stop-color="#F41E3D"/>
<stop offset="1" stop-color="#D5122E"/>
</linearGradient>
<radialGradient id="paint26_radial" cx="0" cy="0" r="1" gradientUnits="userSpaceOnUse" gradientTransform="translate(722.593 701.536) scale(87.559 87.4993)">
<stop stop-color="white"/>
<stop offset="1" stop-color="#F2F2F2"/>
</radialGradient>
<linearGradient id="paint27_linear" x1="673" y1="651" x2="675.082" y2="753" gradientUnits="userSpaceOnUse">
<stop stop-color="#F41E3D"/>
<stop offset="1" stop-color="#D5122E"/>
</linearGradient>
<linearGradient id="paint28_linear" x1="691.596" y1="669.596" x2="692.903" y2="733.66" gradientUnits="userSpaceOnUse">
<stop stop-color="#F41E3D"/>
<stop offset="1" stop-color="#D5122E"/>
</linearGradient>
<linearGradient id="paint29_linear" x1="685.315" y1="663.315" x2="686.884" y2="740.192" gradientUnits="userSpaceOnUse">
<stop stop-color="#F41E3D"/>
<stop offset="1" stop-color="#D5122E"/>
</linearGradient>
<linearGradient id="paint30_linear" x1="701.311" y1="684.608" x2="701.809" y2="717.455" gradientUnits="userSpaceOnUse">
<stop stop-color="#F41E3D"/>
<stop offset="1" stop-color="#D5122E"/>
</linearGradient>
</defs>
</svg>
