<svg width="1698" height="632" viewBox="0 0 1698 632" fill="none" xmlns="http://www.w3.org/2000/svg">
<path d="M75.369 241.848C24.169 96.6479 126.369 25.0145 183.869 7.34788C270.669 -20.2521 346.702 36.5145 373.869 68.3479C385.369 50.5145 425.269 15.1479 492.869 16.3479C560.469 17.5479 613.036 72.1812 630.869 99.3479C664.869 76.8479 743.869 78.8479 817.869 121.848C877.069 156.248 896.869 242.181 899.369 280.848C880.169 467.648 736.036 486.348 666.369 472.348C658.536 485.681 633.669 516.548 596.869 533.348C560.069 550.148 504.202 540.348 480.869 533.348C472.536 565.515 431.769 630.148 335.369 631.348C238.969 632.548 194.202 560.515 183.869 524.348C155.869 522.848 23.3691 533.348 2.86912 411.348C-13.5309 313.748 44.369 257.681 75.369 241.848Z" fill="#15A0DB"/>
<path d="M3.588 101.4C6.396 102.544 9.464 103.48 12.792 104.208C16.224 104.832 19.604 105.144 22.932 105.144C25.324 105.144 27.612 104.884 29.796 104.364C31.98 103.844 33.852 103.064 35.412 102.024C37.076 100.984 38.376 99.736 39.312 98.28C40.352 96.72 40.872 95.004 40.872 93.132C40.872 91.052 40.456 89.336 39.624 87.984C38.896 86.632 37.856 85.488 36.504 84.552C35.256 83.616 33.748 82.836 31.98 82.212C30.316 81.484 28.496 80.808 26.52 80.184L21.06 78.156C14.404 75.66 9.568 72.852 6.552 69.732C3.536 66.612 2.028 62.4 2.028 57.096C2.028 50.024 4.524 44.408 9.516 40.248C14.612 36.088 22.048 34.008 31.824 34.008C35.88 34.008 39.832 34.424 43.68 35.256C47.632 35.984 51.064 36.868 53.976 37.908C53.768 39.988 53.352 42.068 52.728 44.148C52.208 46.228 51.532 48.152 50.7 49.92C48.412 49.088 45.656 48.308 42.432 47.58C39.312 46.748 35.932 46.332 32.292 46.332C28.444 46.332 25.012 47.008 21.996 48.36C19.084 49.712 17.628 52.104 17.628 55.536C17.628 57.304 17.992 58.812 18.72 60.06C19.448 61.308 20.436 62.4 21.684 63.336C22.932 64.168 24.336 64.896 25.896 65.52C27.56 66.144 29.328 66.768 31.2 67.392L38.064 69.732C40.56 70.564 42.9 71.552 45.084 72.696C47.372 73.84 49.296 75.296 50.856 77.064C52.52 78.728 53.82 80.808 54.756 83.304C55.796 85.696 56.316 88.608 56.316 92.04C56.316 95.888 55.536 99.424 53.976 102.648C52.416 105.768 50.18 108.472 47.268 110.76C44.46 112.944 41.028 114.66 36.972 115.908C32.916 117.156 28.444 117.78 23.556 117.78C18.564 117.78 14.196 117.416 10.452 116.688C6.708 116.064 3.224 115.18 0 114.036C0.208 111.956 0.624 109.876 1.248 107.796C1.976 105.612 2.756 103.48 3.588 101.4Z" transform="translate(129.857 220.44)" fill="white"/>
<path d="M115.92 78.312C114.36 78.104 112.384 77.896 109.992 77.688C107.6 77.48 105.572 77.376 103.908 77.376C97.4602 77.376 92.5202 78.572 89.0882 80.964C85.7602 83.356 84.0962 86.996 84.0962 91.884C84.0962 95.004 84.6682 97.448 85.8122 99.216C86.9562 100.984 88.3602 102.336 90.0242 103.272C91.7922 104.208 93.7162 104.78 95.7962 104.988C97.8762 105.196 99.8522 105.3 101.724 105.3C104.116 105.3 106.56 105.196 109.056 104.988C111.656 104.676 113.944 104.26 115.92 103.74V78.312ZM115.92 63.18C115.92 57.044 114.36 52.78 111.24 50.388C108.12 47.996 103.596 46.8 97.6682 46.8C94.0282 46.8 90.5962 47.112 87.3722 47.736C84.2522 48.256 81.1842 48.984 78.1682 49.92C76.1922 46.488 75.2042 42.38 75.2042 37.596C78.7402 36.452 82.6402 35.568 86.9042 34.944C91.1682 34.32 95.2762 34.008 99.2282 34.008C109.628 34.008 117.532 36.4 122.94 41.184C128.348 45.864 131.052 53.404 131.052 63.804V113.88C127.412 114.712 122.992 115.544 117.792 116.376C112.592 117.312 107.288 117.78 101.88 117.78C96.7842 117.78 92.1562 117.312 87.9962 116.376C83.9402 115.44 80.4562 113.932 77.5442 111.852C74.7362 109.772 72.5522 107.12 70.9922 103.896C69.4322 100.672 68.6522 96.772 68.6522 92.196C68.6522 87.724 69.5362 83.824 71.3042 80.496C73.1762 77.064 75.6722 74.256 78.7922 72.072C81.9122 69.784 85.5002 68.12 89.5562 67.08C93.6122 65.936 97.8762 65.364 102.348 65.364C105.676 65.364 108.38 65.468 110.46 65.676C112.644 65.78 114.464 65.936 115.92 66.144V63.18Z" transform="translate(129.857 220.44)" fill="white"/>
<path d="M151.582 1.56C152.726 1.352 153.974 1.196 155.326 1.092C156.782 0.987997 158.082 0.935997 159.226 0.935997C160.37 0.935997 161.618 0.987997 162.97 1.092C164.426 1.196 165.726 1.352 166.87 1.56V91.728C166.87 94.64 167.13 96.928 167.65 98.592C168.17 100.256 168.846 101.556 169.678 102.492C170.614 103.324 171.654 103.896 172.798 104.208C174.046 104.416 175.346 104.52 176.698 104.52C177.634 104.52 178.674 104.468 179.818 104.364C181.066 104.26 182.106 104.104 182.938 103.896C183.874 107.536 184.342 111.488 184.342 115.752C182.886 116.272 181.118 116.584 179.038 116.688C176.958 116.896 175.034 117 173.266 117C170.25 117 167.442 116.636 164.842 115.908C162.242 115.18 159.954 113.984 157.978 112.32C156.002 110.656 154.442 108.42 153.298 105.612C152.154 102.804 151.582 99.32 151.582 95.16V1.56Z" transform="translate(129.857 220.44)" fill="white"/>
<path d="M207.563 79.716C207.771 88.452 210.007 94.848 214.271 98.904C218.639 102.96 225.035 104.988 233.459 104.988C240.843 104.988 247.863 103.688 254.519 101.088C255.351 102.648 256.027 104.572 256.547 106.86C257.067 109.044 257.379 111.228 257.483 113.412C254.051 114.868 250.255 115.96 246.095 116.688C242.039 117.416 237.515 117.78 232.523 117.78C225.243 117.78 219.003 116.792 213.803 114.816C208.603 112.736 204.287 109.876 200.855 106.236C197.527 102.492 195.083 98.124 193.523 93.132C191.963 88.036 191.183 82.472 191.183 76.44C191.183 70.512 191.911 65 193.367 59.904C194.927 54.704 197.267 50.232 200.387 46.488C203.507 42.64 207.407 39.624 212.087 37.44C216.871 35.152 222.487 34.008 228.935 34.008C234.447 34.008 239.283 34.944 243.443 36.816C247.603 38.688 251.087 41.288 253.895 44.616C256.703 47.84 258.835 51.74 260.291 56.316C261.747 60.788 262.475 65.676 262.475 70.98C262.475 72.436 262.423 73.996 262.319 75.66C262.215 77.22 262.111 78.572 262.007 79.716H207.563ZM247.187 68.172C247.187 65.26 246.771 62.504 245.939 59.904C245.211 57.2 244.067 54.86 242.507 52.884C241.051 50.908 239.127 49.348 236.735 48.204C234.447 46.956 231.691 46.332 228.467 46.332C222.123 46.332 217.235 48.256 213.803 52.104C210.475 55.952 208.447 61.308 207.719 68.172H247.187Z" transform="translate(129.857 220.44)" fill="white"/>
<path d="M278.958 101.4C281.766 102.544 284.834 103.48 288.162 104.208C291.594 104.832 294.974 105.144 298.302 105.144C300.694 105.144 302.982 104.884 305.166 104.364C307.35 103.844 309.222 103.064 310.782 102.024C312.446 100.984 313.746 99.736 314.682 98.28C315.722 96.72 316.242 95.004 316.242 93.132C316.242 91.052 315.826 89.336 314.994 87.984C314.266 86.632 313.226 85.488 311.874 84.552C310.626 83.616 309.118 82.836 307.35 82.212C305.686 81.484 303.866 80.808 301.89 80.184L296.43 78.156C289.774 75.66 284.938 72.852 281.922 69.732C278.906 66.612 277.398 62.4 277.398 57.096C277.398 50.024 279.894 44.408 284.886 40.248C289.982 36.088 297.418 34.008 307.194 34.008C311.25 34.008 315.202 34.424 319.05 35.256C323.002 35.984 326.434 36.868 329.346 37.908C329.138 39.988 328.722 42.068 328.098 44.148C327.578 46.228 326.902 48.152 326.07 49.92C323.782 49.088 321.026 48.308 317.802 47.58C314.682 46.748 311.302 46.332 307.662 46.332C303.814 46.332 300.382 47.008 297.366 48.36C294.454 49.712 292.998 52.104 292.998 55.536C292.998 57.304 293.362 58.812 294.09 60.06C294.818 61.308 295.806 62.4 297.054 63.336C298.302 64.168 299.706 64.896 301.266 65.52C302.93 66.144 304.698 66.768 306.57 67.392L313.434 69.732C315.93 70.564 318.27 71.552 320.454 72.696C322.742 73.84 324.666 75.296 326.226 77.064C327.89 78.728 329.19 80.808 330.126 83.304C331.166 85.696 331.686 88.608 331.686 92.04C331.686 95.888 330.906 99.424 329.346 102.648C327.786 105.768 325.55 108.472 322.638 110.76C319.83 112.944 316.398 114.66 312.342 115.908C308.286 117.156 303.814 117.78 298.926 117.78C293.934 117.78 289.566 117.416 285.822 116.688C282.078 116.064 278.594 115.18 275.37 114.036C275.578 111.956 275.994 109.876 276.618 107.796C277.346 105.612 278.126 103.48 278.958 101.4Z" transform="translate(129.857 220.44)" fill="white"/>
<path d="M364.147 48.204H351.199C351.199 46.124 351.303 44.148 351.511 42.276C351.823 40.3 352.395 38.168 353.227 35.88H366.175L366.955 31.356C368.723 20.852 372.155 13 377.251 7.8C382.451 2.6 389.731 0 399.091 0C401.795 0 404.135 0.208 406.111 0.624001C408.087 0.935997 409.907 1.352 411.571 1.872C410.947 4.576 410.271 6.864 409.543 8.736C408.919 10.504 408.087 12.376 407.047 14.352C405.903 13.936 404.707 13.572 403.459 13.26C402.211 12.948 400.755 12.792 399.091 12.792C396.907 12.792 394.931 13.104 393.163 13.728C391.395 14.248 389.783 15.236 388.327 16.692C386.975 18.044 385.779 19.968 384.739 22.464C383.699 24.856 382.867 27.924 382.243 31.668C382.035 32.396 381.879 33.124 381.775 33.852C381.671 34.476 381.515 35.152 381.307 35.88H400.495C400.495 38.064 400.339 40.092 400.027 41.964C399.819 43.836 399.299 45.916 398.467 48.204H379.279L367.267 116.376C366.019 123.344 364.459 129.22 362.587 134.004C360.819 138.788 358.583 142.636 355.879 145.548C353.175 148.564 350.003 150.696 346.363 151.944C342.827 153.296 338.667 153.972 333.883 153.972C331.595 153.972 329.411 153.764 327.331 153.348C325.251 153.036 323.431 152.568 321.871 151.944C322.287 149.552 322.807 147.368 323.431 145.392C324.055 143.52 324.887 141.648 325.927 139.776C326.967 140.192 328.163 140.504 329.515 140.712C330.763 141.024 332.063 141.18 333.415 141.18C335.807 141.18 337.939 140.868 339.811 140.244C341.787 139.62 343.503 138.372 344.959 136.5C346.415 134.628 347.715 131.976 348.859 128.544C350.107 125.216 351.199 120.848 352.135 115.44L364.147 48.204Z" transform="translate(129.857 220.44)" fill="white"/>
<path d="M431.529 117.78C425.289 117.78 419.829 116.74 415.149 114.66C410.469 112.476 406.569 109.512 403.449 105.768C400.329 102.024 397.989 97.604 396.429 92.508C394.973 87.412 394.245 81.9 394.245 75.972C394.245 70.044 394.973 64.532 396.429 59.436C397.989 54.34 400.329 49.92 403.449 46.176C406.569 42.432 410.469 39.468 415.149 37.284C419.829 35.1 425.289 34.008 431.529 34.008C437.769 34.008 443.229 35.1 447.909 37.284C452.589 39.468 456.489 42.432 459.609 46.176C462.729 49.92 465.017 54.34 466.473 59.436C468.033 64.532 468.813 70.044 468.813 75.972C468.813 81.9 468.033 87.412 466.473 92.508C465.017 97.604 462.729 102.024 459.609 105.768C456.489 109.512 452.589 112.476 447.909 114.66C443.229 116.74 437.769 117.78 431.529 117.78ZM431.529 105.456C438.705 105.456 444.009 102.856 447.441 97.656C450.873 92.456 452.589 85.228 452.589 75.972C452.589 66.716 450.873 59.54 447.441 54.444C444.009 49.244 438.705 46.644 431.529 46.644C424.353 46.644 419.049 49.244 415.617 54.444C412.289 59.54 410.625 66.716 410.625 75.972C410.625 85.228 412.289 92.456 415.617 97.656C419.049 102.856 424.353 105.456 431.529 105.456Z" transform="translate(129.857 220.44)" fill="white"/>
<path d="M486.776 35.88C487.92 35.672 489.012 35.516 490.052 35.412C491.092 35.308 492.184 35.256 493.328 35.256C494.472 35.256 495.616 35.308 496.76 35.412C497.904 35.516 498.944 35.672 499.88 35.88C500.192 37.44 500.504 39.52 500.816 42.12C501.128 44.616 501.284 46.748 501.284 48.516C503.468 44.98 506.328 41.912 509.864 39.312C513.504 36.712 518.132 35.412 523.748 35.412C524.58 35.412 525.412 35.464 526.244 35.568C527.18 35.568 527.96 35.62 528.584 35.724C528.792 36.66 528.948 37.648 529.052 38.688C529.156 39.728 529.208 40.82 529.208 41.964C529.208 43.212 529.104 44.512 528.896 45.864C528.792 47.216 528.636 48.516 528.428 49.764C527.596 49.556 526.712 49.452 525.776 49.452C524.944 49.452 524.268 49.452 523.748 49.452C520.94 49.452 518.236 49.868 515.636 50.7C513.14 51.428 510.852 52.78 508.772 54.756C506.796 56.732 505.184 59.436 503.936 62.868C502.792 66.3 502.22 70.72 502.22 76.128V115.908C501.076 116.116 499.776 116.272 498.32 116.376C496.968 116.48 495.72 116.532 494.576 116.532C493.432 116.532 492.132 116.48 490.676 116.376C489.324 116.272 488.024 116.116 486.776 115.908V35.88Z" transform="translate(129.857 220.44)" fill="white"/>
<path d="M593.546 102.024C594.378 103.48 595.106 105.3 595.73 107.484C596.354 109.668 596.718 111.904 596.822 114.192C590.686 116.584 583.666 117.78 575.762 117.78C562.45 117.78 552.414 114.036 545.654 106.548C538.894 98.956 535.514 88.764 535.514 75.972C535.514 70.044 536.346 64.532 538.01 59.436C539.674 54.34 542.118 49.92 545.342 46.176C548.67 42.432 552.778 39.468 557.666 37.284C562.554 35.1 568.222 34.008 574.67 34.008C579.038 34.008 582.886 34.268 586.214 34.788C589.542 35.308 592.714 36.14 595.73 37.284C595.73 39.052 595.47 41.132 594.95 43.524C594.534 45.812 593.91 47.84 593.078 49.608C587.982 47.84 582.158 46.956 575.606 46.956C567.598 46.956 561.618 49.608 557.666 54.912C553.714 60.216 551.738 67.236 551.738 75.972C551.738 85.956 553.974 93.288 558.446 97.968C562.918 102.544 569.054 104.832 576.854 104.832C579.974 104.832 582.834 104.624 585.434 104.208C588.138 103.792 590.842 103.064 593.546 102.024Z" transform="translate(129.857 220.44)" fill="white"/>
<path d="M621.609 79.716C621.817 88.452 624.053 94.848 628.317 98.904C632.685 102.96 639.081 104.988 647.505 104.988C654.889 104.988 661.909 103.688 668.565 101.088C669.397 102.648 670.073 104.572 670.593 106.86C671.113 109.044 671.425 111.228 671.529 113.412C668.097 114.868 664.301 115.96 660.141 116.688C656.085 117.416 651.561 117.78 646.569 117.78C639.289 117.78 633.049 116.792 627.849 114.816C622.649 112.736 618.333 109.876 614.901 106.236C611.573 102.492 609.129 98.124 607.569 93.132C606.009 88.036 605.229 82.472 605.229 76.44C605.229 70.512 605.957 65 607.413 59.904C608.973 54.704 611.313 50.232 614.433 46.488C617.553 42.64 621.453 39.624 626.133 37.44C630.917 35.152 636.533 34.008 642.981 34.008C648.493 34.008 653.329 34.944 657.489 36.816C661.649 38.688 665.133 41.288 667.941 44.616C670.749 47.84 672.881 51.74 674.337 56.316C675.793 60.788 676.521 65.676 676.521 70.98C676.521 72.436 676.469 73.996 676.365 75.66C676.261 77.22 676.157 78.572 676.053 79.716H621.609ZM661.233 68.172C661.233 65.26 660.817 62.504 659.985 59.904C659.257 57.2 658.113 54.86 656.553 52.884C655.097 50.908 653.173 49.348 650.781 48.204C648.493 46.956 645.737 46.332 642.513 46.332C636.169 46.332 631.281 48.256 627.849 52.104C624.521 55.952 622.493 61.308 621.765 68.172H661.233Z" transform="translate(129.857 220.44)" fill="white"/>
<path d="M56.2793 173.914C48.4076 173.914 41.1979 172.479 34.6504 169.61C28.1764 166.668 22.7324 162.18 18.3184 156.147H16.9941C17.877 163.21 18.3184 169.905 18.3184 176.231V226H0V50.7617H14.8975L17.4355 67.3145H18.3184C23.0267 60.6934 28.5075 55.9115 34.7607 52.9688C41.014 50.026 48.1868 48.5547 56.2793 48.5547C72.3171 48.5547 84.6764 54.0355 93.3574 64.9971C102.112 75.9587 106.489 91.3343 106.489 111.124C106.489 130.987 102.038 146.437 93.1367 157.472C84.3086 168.433 72.0228 173.914 56.2793 173.914ZM53.6309 64.1143C41.2715 64.1143 32.333 67.5352 26.8154 74.377C21.2979 81.2188 18.4655 92.1068 18.3184 107.041V111.124C18.3184 128.118 21.1507 140.294 26.8154 147.65C32.4801 154.934 41.5658 158.575 54.0723 158.575C64.5189 158.575 72.6849 154.345 78.5703 145.885C84.5293 137.424 87.5088 125.764 87.5088 110.903C87.5088 95.8219 84.5293 84.2718 78.5703 76.2529C72.6849 68.1605 64.3717 64.1143 53.6309 64.1143Z" transform="translate(987.791 172.641)" fill="#808A8F"/>
<path d="M217.499 171.707L213.857 154.492H212.974C206.942 162.07 200.909 167.219 194.876 169.941C188.917 172.59 181.45 173.914 172.475 173.914C160.484 173.914 151.067 170.824 144.225 164.645C137.457 158.465 134.073 149.674 134.073 138.271C134.073 113.846 153.605 101.045 192.669 99.8682L213.195 99.2061V91.7021C213.195 82.2119 211.135 75.223 207.015 70.7354C202.969 66.1742 196.458 63.8936 187.483 63.8936C177.404 63.8936 166.001 66.9834 153.274 73.1631L147.646 59.1484C153.605 55.9115 160.116 53.3734 167.178 51.5342C174.314 49.695 181.45 48.7754 188.586 48.7754C203.006 48.7754 213.673 51.9756 220.588 58.376C227.577 64.7764 231.072 75.0391 231.072 89.1641V171.707H217.499ZM176.117 158.796C187.52 158.796 196.458 155.669 202.932 149.416C209.48 143.163 212.753 134.408 212.753 123.152V112.228L194.435 113C179.869 113.515 169.348 115.796 162.874 119.842C156.474 123.814 153.274 130.031 153.274 138.491C153.274 145.112 155.26 150.152 159.233 153.609C163.279 157.067 168.907 158.796 176.117 158.796Z" transform="translate(987.791 172.641)" fill="#808A8F"/>
<path d="M328.618 48.5547C333.989 48.5547 338.807 48.9961 343.074 49.8789L340.536 66.873C335.533 65.7695 331.119 65.2178 327.294 65.2178C317.509 65.2178 309.123 69.1904 302.134 77.1357C295.218 85.0811 291.761 94.9759 291.761 106.82V171.707H273.442V50.7617H288.561L290.657 73.1631H291.54C296.028 65.2913 301.435 59.222 307.762 54.9551C314.089 50.6882 321.041 48.5547 328.618 48.5547Z" transform="translate(987.791 172.641)" fill="#808A8F"/>
<path d="M452.539 155.485H451.545C443.085 167.771 430.431 173.914 413.584 173.914C397.767 173.914 385.445 168.507 376.617 157.692C367.862 146.878 363.485 131.502 363.485 111.565C363.485 91.6286 367.899 76.1426 376.727 65.1074C385.555 54.0723 397.841 48.5547 413.584 48.5547C429.99 48.5547 442.57 54.5137 451.325 66.4316H452.759L451.987 57.7139L451.545 49.2168V0H469.864V171.707H454.966L452.539 155.485ZM415.902 158.575C428.408 158.575 437.457 155.191 443.048 148.423C448.713 141.581 451.545 130.583 451.545 115.428V111.565C451.545 94.4242 448.676 82.2119 442.938 74.9287C437.273 67.5719 428.188 63.8936 415.681 63.8936C404.94 63.8936 396.701 68.0869 390.962 76.4736C385.298 84.7868 382.465 96.5576 382.465 111.786C382.465 127.235 385.298 138.896 390.962 146.768C396.627 154.639 404.94 158.575 415.902 158.575Z" transform="translate(987.791 172.641)" fill="#808A8F"/>
<path d="M617.73 111.124C617.73 130.84 612.765 146.253 602.833 157.361C592.901 168.396 579.181 173.914 561.672 173.914C550.857 173.914 541.257 171.376 532.87 166.3C524.483 161.224 518.009 153.94 513.448 144.45C508.887 134.96 506.606 123.851 506.606 111.124C506.606 91.4079 511.535 76.069 521.393 65.1074C531.252 54.0723 544.935 48.5547 562.444 48.5547C579.365 48.5547 592.791 54.1826 602.723 65.4385C612.728 76.6943 617.73 91.9229 617.73 111.124ZM525.587 111.124C525.587 126.573 528.677 138.344 534.856 146.437C541.036 154.529 550.122 158.575 562.113 158.575C574.105 158.575 583.19 154.566 589.37 146.547C595.623 138.454 598.75 126.647 598.75 111.124C598.75 95.7484 595.623 84.0879 589.37 76.1426C583.19 68.1237 574.031 64.1143 561.893 64.1143C549.901 64.1143 540.852 68.0501 534.746 75.9219C528.64 83.7936 525.587 95.5277 525.587 111.124Z" transform="translate(987.791 172.641)" fill="#808A8F"/>
<path d="M693.538 158.796C696.775 158.796 699.901 158.575 702.917 158.134C705.934 157.619 708.325 157.104 710.09 156.589V170.604C708.104 171.56 705.161 172.332 701.262 172.921C697.437 173.583 693.979 173.914 690.889 173.914C667.495 173.914 655.797 161.591 655.797 136.946V64.9971H638.472V56.1689L655.797 48.5547L663.522 22.7324H674.116V50.7617H709.207V64.9971H674.116V136.174C674.116 143.457 675.845 149.048 679.302 152.947C682.76 156.846 687.505 158.796 693.538 158.796Z" transform="translate(987.791 172.641)" fill="#808A8F"/>
</svg>
