<svg width="1740" height="631" viewBox="0 0 1740 631" fill="none" xmlns="http://www.w3.org/2000/svg">
<path d="M541.397 43.5987C545.818 45.872 551.244 44.1315 553.517 39.7112C555.79 35.291 554.05 29.8648 549.63 27.5915L541.397 43.5987ZM405.513 35.5951L401.397 27.5915L401.397 27.5915L405.513 35.5951ZM164.514 472.595L173.469 471.705C173.465 471.665 173.461 471.625 173.457 471.585L164.514 472.595ZM253.014 594.595L249.278 602.783L249.278 602.783L253.014 594.595ZM461.514 360.095L469.864 356.738L469.864 356.738L461.514 360.095ZM293.014 204.595L295.197 195.864L295.197 195.864L293.014 204.595ZM104.514 197.095L108.272 205.273L108.272 205.273L104.514 197.095ZM1.01403 350.595L9.94074 351.741L9.94074 351.741L1.01403 350.595ZM126.014 512.595L124.614 521.485C124.633 521.488 124.651 521.491 124.67 521.494L126.014 512.595ZM238.014 486.095L243.924 492.883C244.002 492.815 244.078 492.746 244.154 492.676L238.014 486.095ZM341.514 369.095L349.196 373.785L349.196 373.785L341.514 369.095ZM537.899 159.306C541.882 156.332 542.7 150.693 539.726 146.71C536.752 142.727 531.112 141.91 527.129 144.884L537.899 159.306ZM709.167 73.1693C704.238 72.5323 699.725 76.0121 699.088 80.9417C698.451 85.8713 701.931 90.3839 706.861 91.0209L709.167 73.1693ZM667.014 467.595L666.144 476.553C666.455 476.583 666.767 476.597 667.079 476.595L667.014 467.595ZM518.514 330.595L526.644 326.735L526.638 326.723L518.514 330.595ZM378.014 82.0951L371.007 87.7428L371.007 87.7428L378.014 82.0951ZM584.514 522.595L582.087 513.928L582.087 513.928L584.514 522.595ZM690.514 407.595L699.455 408.617L699.455 408.617L690.514 407.595ZM661.951 186.462C660.221 181.803 655.041 179.428 650.381 181.158C645.721 182.888 643.346 188.068 645.076 192.728L661.951 186.462ZM549.63 27.5915C524.796 14.8197 460.9 -3.01009 401.397 27.5915L409.63 43.5987C462.126 16.6003 519.565 32.3705 541.397 43.5987L549.63 27.5915ZM401.397 27.5915C383.48 36.8061 359.741 58.0207 334.492 85.9937C309.004 114.231 281.254 150.175 255.364 189.782L270.431 199.63C295.86 160.728 323.048 125.536 347.853 98.0544C372.897 70.3087 394.806 51.2222 409.63 43.5987L401.397 27.5915ZM255.364 189.782C225.911 234.839 198.717 284.863 180.003 333.905C161.346 382.798 150.815 431.501 155.57 473.605L173.457 471.585C169.164 433.582 178.623 388.011 196.82 340.323C214.96 292.783 241.482 243.916 270.431 199.63L255.364 189.782ZM155.558 473.485C156.636 484.328 160.123 499.371 166.919 515.644L183.529 508.707C177.356 493.928 174.355 480.617 173.469 471.705L155.558 473.485ZM166.919 515.644C179.742 546.346 204.824 582.501 249.278 602.783L256.75 586.407C217.565 568.529 195.158 536.55 183.529 508.707L166.919 515.644ZM249.278 602.783C332.665 640.828 421.099 613.718 458.4 569.39L444.628 557.8C412.929 595.471 333.363 621.362 256.75 586.407L249.278 602.783ZM458.4 569.39C495.582 525.203 510.758 458.461 469.864 356.738L453.163 363.452C492.27 460.729 476.446 519.987 444.628 557.8L458.4 569.39ZM469.864 356.738C456.545 323.607 435.612 295.719 412.967 273.042L400.23 285.762C421.634 307.195 440.967 333.113 453.163 363.452L469.864 356.738ZM412.967 273.042C388.789 248.832 362.466 230.366 340.827 217.607C319.46 205.008 301.925 197.546 295.197 195.864L290.831 213.326C294.999 214.368 310.741 220.763 331.685 233.112C352.357 245.302 377.377 262.878 400.23 285.762L412.967 273.042ZM295.197 195.864C293.4 195.414 290.113 194.27 284.743 192.414C279.622 190.644 273.112 188.415 265.526 186.098L260.269 203.314C267.529 205.53 273.785 207.672 278.864 209.427C283.694 211.096 288.043 212.629 290.831 213.326L295.197 195.864ZM265.526 186.098C228.105 174.673 162.588 160.508 100.757 188.917L108.272 205.273C163.8 179.76 223.778 192.172 260.269 203.314L265.526 186.098ZM100.757 188.917C22.528 224.86 -2.26632 305.476 -7.91268 349.449L9.94074 351.741C15.2944 310.048 38.4994 237.33 108.272 205.273L100.757 188.917ZM-7.91268 349.449C-11.789 379.637 -5.56089 418.232 15.0406 451.519C35.8211 485.095 71.1207 513.061 124.614 521.485L127.414 503.705C79.3074 496.129 48.4795 471.345 30.3463 442.046C12.034 412.458 6.56213 378.053 9.94074 351.741L-7.91268 349.449ZM124.67 521.494C136.591 523.295 155.796 524.088 176.516 521.082L173.932 503.268C155.018 506.013 137.591 505.242 127.358 503.696L124.67 521.494ZM176.516 521.082C199.056 517.812 224.378 509.9 243.924 492.883L232.105 479.307C216.164 493.185 194.651 500.262 173.932 503.268L176.516 521.082ZM244.154 492.676C268.943 469.55 325.276 412.963 349.196 373.785L333.833 364.405C311.352 401.227 256.752 456.306 231.875 479.514L244.154 492.676ZM349.196 373.785C361.652 353.383 384.894 320.469 413.59 285.069L399.607 273.735C370.566 309.56 346.818 343.137 333.833 364.405L349.196 373.785ZM413.59 285.069C450.365 239.704 495.56 190.923 537.899 159.306L527.129 144.884C483.019 177.823 436.722 227.948 399.607 273.735L413.59 285.069ZM706.861 91.0209C735.073 94.6663 777.505 108.843 812.116 139.324C846.4 169.519 873.324 215.94 871.019 285.296L889.009 285.894C891.504 210.85 862.094 159.355 824.012 125.816C786.256 92.5642 740.288 77.1905 709.167 73.1693L706.861 91.0209ZM871.019 285.296C868.733 354.062 834.7 396.872 792.835 422.916C750.546 449.223 700.224 458.354 666.949 458.595L667.079 476.595C702.804 476.336 756.582 466.667 802.343 438.2C848.528 409.468 886.495 361.528 889.009 285.894L871.019 285.296ZM667.884 458.637C666.856 458.537 665.738 458.392 664.535 458.195L661.626 475.958C663.188 476.214 664.696 476.412 666.144 476.553L667.884 458.637ZM664.535 458.195C636.669 453.631 572.292 422.894 526.644 326.735L510.384 334.455C558.192 435.167 627.125 470.308 661.626 475.958L664.535 458.195ZM526.638 326.723C512.162 296.348 487.763 247.475 461.552 199.446C435.442 151.605 407.186 103.948 385.021 76.4473L371.007 87.7428C392.042 113.842 419.619 160.186 445.751 208.069C471.782 255.766 496.032 304.342 510.389 334.467L526.638 326.723ZM385.021 76.4473C357.493 42.2923 329.918 18.519 299.028 4.86349C268.016 -8.84553 234.484 -11.9968 195.708 -6.30967L198.32 11.4998C234.544 6.18688 264.512 9.28566 291.75 21.3266C319.11 33.4211 344.535 54.8978 371.007 87.7428L385.021 76.4473ZM195.708 -6.30967C115.986 5.38282 73.4834 72.5848 61.4095 111.956L78.6185 117.234C89.5446 81.6052 128.042 21.8073 198.32 11.4998L195.708 -6.30967ZM61.4095 111.956C55.3712 131.647 50.3529 159.079 55.7554 192.35C61.1624 225.649 76.9152 264.221 111.565 306.315L125.463 294.875C92.6128 254.969 78.3656 219.29 73.5226 189.465C68.6751 159.611 73.1568 135.043 78.6185 117.234L61.4095 111.956ZM111.565 306.315C179.526 388.874 246.511 451.44 339.132 495.715L346.895 479.475C257.517 436.75 192.502 376.316 125.463 294.875L111.565 306.315ZM339.132 495.715C431.531 539.884 521.805 549.5 586.94 531.262L582.087 513.928C522.223 530.69 436.496 522.306 346.895 479.475L339.132 495.715ZM586.94 531.262C622.665 521.259 651.013 497.648 670.227 472.547L655.934 461.606C638.437 484.464 613.137 505.234 582.087 513.928L586.94 531.262ZM670.227 472.547C686.884 450.785 697.353 427.012 699.455 408.617L681.572 406.573C679.948 420.784 671.285 441.55 655.934 461.606L670.227 472.547ZM699.455 408.617C703.634 372.053 699.884 288.63 661.951 186.462L645.076 192.728C682.143 292.56 685.393 373.137 681.572 406.573L699.455 408.617Z" transform="translate(9 9.90503)" fill="#119FDA"/>
<circle cx="33" cy="33" r="33" transform="translate(114.514 5)" fill="#119FDA"/>
<circle cx="33" cy="33" r="33" transform="translate(314.514 347)" fill="#119FDA"/>
<path fill-rule="evenodd" clip-rule="evenodd" d="M70 140C108.66 140 140 108.66 140 70C140 31.3401 108.66 0 70 0C31.3398 0 0 31.3401 0 70C0 108.66 31.3398 140 70 140ZM70 103C88.2246 103 103 88.2253 103 70C103 51.7747 88.2246 37 70 37C51.7754 37 37 51.7747 37 70C37 88.2253 51.7754 103 70 103Z" transform="translate(552.514 41)" fill="#4E748B"/>
<path d="M57.8242 168.065C39.9473 168.065 25.8223 162.621 15.4492 151.733C5.14974 140.845 0 125.727 0 106.379C0 86.8835 4.7819 71.3975 14.3457 59.9209C23.9831 48.4443 36.8942 42.7061 53.0791 42.7061C68.234 42.7061 80.2256 47.7087 89.0537 57.7139C97.8818 67.6455 102.296 80.7773 102.296 97.1094V108.696H18.9805C19.3483 122.895 22.9163 133.673 29.6846 141.029C36.5264 148.386 46.127 152.064 58.4863 152.064C71.5078 152.064 84.3822 149.342 97.1094 143.898V160.23C90.6354 163.026 84.4925 165.012 78.6807 166.189C72.9424 167.44 65.9902 168.065 57.8242 168.065ZM52.8584 58.0449C43.1475 58.0449 35.3861 61.2083 29.5742 67.5352C23.8359 73.862 20.4518 82.6165 19.4219 93.7988H82.6533C82.6533 82.2487 80.0785 73.4206 74.9287 67.3145C69.779 61.1348 62.4222 58.0449 52.8584 58.0449Z" transform="translate(984.203 173.142)" fill="#808A8F"/>
<path d="M145.174 165.858H126.856V44.9131H145.174V165.858ZM125.311 12.1387C125.311 7.94531 126.341 4.89225 128.401 2.97949C130.461 0.993164 133.035 0 136.125 0C139.068 0 141.606 0.993164 143.74 2.97949C145.873 4.96582 146.94 8.01888 146.94 12.1387C146.94 16.2585 145.873 19.3483 143.74 21.4082C141.606 23.3945 139.068 24.3877 136.125 24.3877C133.035 24.3877 130.461 23.3945 128.401 21.4082C126.341 19.3483 125.311 16.2585 125.311 12.1387Z" transform="translate(984.203 173.142)" fill="#808A8F"/>
<path d="M260.002 165.858V87.6191C260.002 77.7611 257.758 70.4043 253.27 65.5488C248.782 60.6934 241.757 58.2656 232.193 58.2656C219.539 58.2656 210.27 61.6865 204.384 68.5283C198.499 75.3701 195.556 86.6628 195.556 102.406V165.858H177.238V44.9131H192.135L195.115 61.4658H195.998C199.75 55.5068 205.01 50.9089 211.778 47.6719C218.546 44.3613 226.087 42.7061 234.4 42.7061C248.966 42.7061 259.928 46.2373 267.285 53.2998C274.641 60.2887 278.32 71.5078 278.32 86.957V165.858H260.002Z" transform="translate(984.203 173.142)" fill="#808A8F"/>
<path d="M387.299 132.863C387.299 144.119 383.105 152.8 374.719 158.906C366.332 165.012 354.561 168.065 339.406 168.065C323.368 168.065 310.862 165.527 301.887 160.451V143.457C307.698 146.4 313.915 148.717 320.536 150.409C327.231 152.101 333.668 152.947 339.848 152.947C349.411 152.947 356.768 151.439 361.918 148.423C367.068 145.333 369.642 140.661 369.642 134.408C369.642 129.7 367.583 125.69 363.463 122.38C359.417 118.996 351.471 115.023 339.627 110.462C328.371 106.269 320.352 102.627 315.57 99.5371C310.862 96.3737 307.331 92.8057 304.976 88.833C302.696 84.8604 301.556 80.1152 301.556 74.5977C301.556 64.7396 305.565 56.9782 313.584 51.3135C321.603 45.5752 332.601 42.7061 346.579 42.7061C359.6 42.7061 372.328 45.3545 384.761 50.6514L378.25 65.5488C366.111 60.5462 355.113 58.0449 345.255 58.0449C336.574 58.0449 330.026 59.4059 325.612 62.1279C321.198 64.8499 318.991 68.6019 318.991 73.3838C318.991 76.6208 319.8 79.3796 321.419 81.6602C323.111 83.9408 325.796 86.111 329.474 88.1709C333.153 90.2308 340.215 93.2103 350.662 97.1094C365.008 102.333 374.682 107.593 379.684 112.89C384.761 118.187 387.299 124.844 387.299 132.863Z" transform="translate(984.203 173.142)" fill="#808A8F"/>
<path d="M449.488 152.947C452.725 152.947 455.852 152.727 458.868 152.285C461.885 151.77 464.276 151.255 466.041 150.74V164.755C464.055 165.711 461.112 166.484 457.213 167.072C453.387 167.734 449.93 168.065 446.84 168.065C423.445 168.065 411.748 155.743 411.748 131.098V59.1484H394.423V50.3203L411.748 42.7061L419.473 16.8838H430.067V44.9131H465.158V59.1484H430.067V130.325C430.067 137.608 431.795 143.2 435.253 147.099C438.711 150.998 443.456 152.947 449.488 152.947Z" transform="translate(984.203 173.142)" fill="#808A8F"/>
<path d="M534.631 168.065C516.754 168.065 502.629 162.621 492.256 151.733C481.957 140.845 476.807 125.727 476.807 106.379C476.807 86.8835 481.589 71.3975 491.153 59.9209C500.79 48.4443 513.701 42.7061 529.886 42.7061C545.041 42.7061 557.033 47.7087 565.861 57.7139C574.689 67.6455 579.103 80.7773 579.103 97.1094V108.696H495.788C496.155 122.895 499.723 133.673 506.492 141.029C513.333 148.386 522.934 152.064 535.293 152.064C548.315 152.064 561.189 149.342 573.916 143.898V160.23C567.442 163.026 561.3 165.012 555.488 166.189C549.749 167.44 542.797 168.065 534.631 168.065ZM529.665 58.0449C519.954 58.0449 512.193 61.2083 506.381 67.5352C500.643 73.862 497.259 82.6165 496.229 93.7988H559.46C559.46 82.2487 556.885 73.4206 551.736 67.3145C546.586 61.1348 539.229 58.0449 529.665 58.0449Z" transform="translate(984.203 173.142)" fill="#808A8F"/>
<path d="M621.981 165.858H603.663V44.9131H621.981V165.858ZM602.118 12.1387C602.118 7.94531 603.148 4.89225 605.208 2.97949C607.268 0.993164 609.842 0 612.932 0C615.875 0 618.413 0.993164 620.547 2.97949C622.68 4.96582 623.747 8.01888 623.747 12.1387C623.747 16.2585 622.68 19.3483 620.547 21.4082C618.413 23.3945 615.875 24.3877 612.932 24.3877C609.842 24.3877 607.268 23.3945 605.208 21.4082C603.148 19.3483 602.118 16.2585 602.118 12.1387Z" transform="translate(984.203 173.142)" fill="#808A8F"/>
<path d="M736.809 165.858V87.6191C736.809 77.7611 734.565 70.4043 730.077 65.5488C725.59 60.6934 718.564 58.2656 709 58.2656C696.346 58.2656 687.077 61.6865 681.191 68.5283C675.306 75.3701 672.363 86.6628 672.363 102.406V165.858H654.045V44.9131H668.942L671.922 61.4658H672.805C676.557 55.5068 681.817 50.9089 688.585 47.6719C695.353 44.3613 702.894 42.7061 711.207 42.7061C725.773 42.7061 736.735 46.2373 744.092 53.2998C751.449 60.2887 755.127 71.5078 755.127 86.957V165.858H736.809Z" transform="translate(984.203 173.142)" fill="#808A8F"/>
</svg>
