<svg width="1166" height="548" viewBox="0 0 1166 548" fill="none" xmlns="http://www.w3.org/2000/svg">
<path d="M0 0.5H564.055L563.249 0V60.5205H505.607L402.417 129.65L363.72 203.791L368.961 254.159L341.954 233.206L309.707 254.159H0V0.5Z" fill="url(#paint0_linear)"/>
<path d="M0 0H564.055H564L542.5 33L563.249 61.0205H505.607L402.417 130.15L363.72 204.291L368.961 254.659L341.954 233.706L309.707 254.659H0V0Z" transform="translate(1166) scale(-1 1)" fill="url(#paint1_linear)"/>
<path d="M0 0H564V30.5L563.249 61.0205H505.607L402.417 130.15L363.72 204.291L368.961 254.659L341.954 233.706L309.707 254.659H0V0Z" transform="translate(1166 548) rotate(-180)" fill="url(#paint2_linear)"/>
<path d="M1 0.5H565.055L563.249 0L540.676 34.1529L563.249 60.5205H505.607L402.417 129.65L363.72 203.791L368.961 254.159L341.954 233.206L309.707 254.159H0L1 0.5Z" transform="translate(0 547) scale(1 -1)" fill="url(#paint3_linear)"/>
<path d="M255.105 487.462L234.753 514.34L255.105 548C118.504 538.676 9.32777 429.539 0 292.988L30.28 272.644L60.5599 292.988C69.624 396.188 151.867 478.401 255.105 487.462Z" transform="translate(309)" fill="url(#paint4_radial)"/>
<path d="M487.639 292.988C478.575 396.188 396.332 478.401 293.094 487.462L272.743 517.731L293.094 548C429.695 538.676 538.871 429.539 548.199 292.988L515.206 313.332L487.639 292.988Z" transform="translate(309)" fill="url(#paint5_radial)"/>
<path d="M548.199 255.012L517.919 275.356L487.639 255.012C478.575 151.812 396.332 69.5987 293.094 60.5379L313.446 32.9815L293.094 0C429.695 9.32438 538.871 118.461 548.199 255.012Z" transform="translate(309)" fill="url(#paint6_radial)"/>
<path d="M60.5599 255.012L32.9935 234.668L0 255.012C9.32777 118.461 118.504 9.32438 255.105 0L275.456 30.269L255.105 60.5379C151.867 69.5987 69.624 151.812 60.5599 255.012Z" transform="translate(309)" fill="url(#paint7_radial)"/>
<circle cx="244" cy="244" r="244" transform="translate(339 30)" stroke="white" stroke-width="1.5" stroke-linecap="round" stroke-dasharray="2 5"/>
<path d="M112.229 9.90401C181.881 21.8724 214.374 13.3012 229.488 3.44942C228.445 2.37801 227.377 1.2282 226.283 0C210.857 9.61655 178.311 17.7436 109.78 5.95808C51.2028 -4.12885 18.9698 0.339725 1.17258 7.86572C0.729608 9.74722 0.338746 11.6026 0 13.4579C16.8852 4.9912 49.483 -0.914612 112.229 9.90401Z" transform="translate(461.348 316.53)" fill="#A4B0BE"/>
<path d="M14.071 0C10.3708 2.22121 5.78475 4.3379 0 6.11487C0.130287 7.55213 0.208461 9.06778 0.286633 10.688C7.86934 8.54514 13.602 5.85355 17.9014 3.05744C16.5986 1.93376 15.2957 0.914618 14.071 0Z" transform="translate(575.845 137.421)" fill="#A4B0BE"/>
<path d="M117.936 4.54695C117.415 3.08357 116.92 1.51565 116.399 0C101.989 9.77334 70.9022 18.5798 4.0389 7.83958C2.70997 8.80646 1.38104 9.77334 0 10.7141C0.312689 10.7664 0.599327 10.8186 0.885959 10.8709C70.2248 22.787 102.744 14.3464 117.936 4.54695Z" transform="translate(530.166 237.062)" fill="#A4B0BE"/>
<path d="M23.5559 0C18.5008 3.78913 11.0483 7.55213 0.130287 10.1915C0.10423 11.6548 0.0781723 13.1705 0 14.7123C12.8724 11.9162 21.2629 7.65665 26.6828 3.39715C25.6144 2.19508 24.5721 1.04528 23.5559 0Z" transform="translate(576.183 146.123)" fill="#A4B0BE"/>
<path d="M88.8298 4.54696C88.2565 3.00518 87.6832 1.51565 87.11 0C76.4264 8.96325 53.1832 18.4491 2.84026 14.268C1.92825 15.444 1.01624 16.5938 0 17.7436C52.8705 22.9177 77.4427 13.6147 88.8298 4.54696Z" transform="translate(550.673 212.133)" fill="#A4B0BE"/>
<path d="M102.275 9.77662C168.539 21.1701 201.163 13.9839 217.189 4.75929C216.277 3.55722 215.365 2.30288 214.427 0.996283C198.271 10.1163 165.621 17.1458 99.826 5.83069C51.4374 -2.47926 21.0283 -0.859081 1.85008 4.18438C1.17258 5.90909 0.547206 7.65993 0 9.38464C18.8135 3.40043 50.1084 0.813369 102.275 9.77662Z" transform="translate(465.205 305.42)" fill="#A4B0BE"/>
<path d="M102.562 4.59922C102.041 3.05744 101.52 1.48952 101.025 0C88.6213 9.4075 61.6779 18.6843 3.41352 11.498C2.29305 12.5695 1.17258 13.667 0 14.6861C60.8962 23.0484 89.3248 14.0851 102.562 4.59922Z" transform="translate(541.344 224.545)" fill="#A4B0BE"/>
<path d="M90.4193 9.76759C154.99 20.8737 187.613 14.3145 204.082 5.45582C203.274 4.17535 202.466 2.86876 201.632 1.5099C185.164 10.3686 152.54 16.9277 87.9699 5.82167C49.014 -0.868102 21.7058 -1.1033 2.52757 1.66669C1.61556 3.2346 0.781723 4.82866 0 6.4227C19.3346 2.8165 47.9457 2.47678 90.4193 9.76759Z" transform="translate(471.016 294.219)" fill="#A4B0BE"/>
<path d="M0 0C0 0 0.442978 1.95989 0.938069 5.35705C3.46564 4.46856 5.75869 3.50168 7.84329 2.50867C2.91843 0.156792 0 0 0 0Z" transform="translate(574.021 130)" fill="#A4B0BE"/>
<path d="M32.8063 0C26.9173 5.06959 17.0416 10.3744 0.521148 13.3012C0.364804 14.7645 0.208459 16.2541 0 17.7697C18.6571 14.8952 29.3928 9.12004 35.5423 3.65847C34.6303 2.40414 33.7183 1.17594 32.8063 0Z" transform="translate(575.089 155.662)" fill="#A4B0BE"/>
<path d="M76.4525 9.77904C140.45 20.7806 173.073 14.4305 189.672 5.67633C188.942 4.36973 188.213 3.01087 187.483 1.62588C170.937 10.4323 138.339 16.9131 74.0031 5.85925C44.0892 0.68513 21.0283 -0.647605 3.25718 0.267013C2.11065 1.70427 1.01624 3.14152 0 4.60491C18.4487 3.03699 43.2293 4.08228 76.4525 9.77904Z" transform="translate(478.885 282.997)" fill="#A4B0BE"/>
<path d="M126.639 15.9927C214.635 31.1231 243.35 13.4579 252.601 1.8815C251.376 1.43726 249.943 0.81009 248.353 0C237.383 11.4458 207.104 26.341 124.19 12.073C41.1707 -2.19508 10.9181 12.7262 0 24.1982C0.0260574 26.4978 0.10423 28.6929 0.234517 30.7311C8.98981 19.1547 37.1579 0.62717 126.639 15.9927Z" transform="translate(459.081 332.836)" fill="#A4B0BE"/>
<path d="M62.8505 0C54.7727 7.76118 37.679 16.5154 1.82402 16.8551C1.25076 18.1617 0.651436 19.4944 0 20.801C38.1741 21.1407 56.3362 12.2559 64.883 4.31177C64.2316 2.82225 63.528 1.41112 62.8505 0Z" transform="translate(564.562 188.091)" fill="#A4B0BE"/>
<path d="M52.167 0C44.9751 7.00336 30.4611 14.8952 1.4071 16.6722C0.964123 18.0572 0.495091 19.416 0 20.801C31.3471 19.5467 46.8252 11.3935 54.4079 4.15498C53.6783 2.69159 52.9226 1.33273 52.167 0Z" transform="translate(569.33 176.724)" fill="#A4B0BE"/>
<path d="M136.723 4.41629C136.176 2.97904 135.603 1.51565 135.056 0C119.499 9.59042 86.9015 17.5345 18.7874 5.82743C14.1231 5.01734 9.6673 4.3379 5.34177 3.71074C4.16919 4.3379 3.02266 5.01733 1.79796 5.61836C1.17258 5.93195 0.599321 6.27167 0 6.58525C6.6707 7.42147 13.7323 8.46674 21.2368 9.77334C88.2565 21.2714 120.88 13.7715 136.723 4.41629Z" transform="translate(515.886 249.397)" fill="#A4B0BE"/>
<path d="M74.42 0C65.1957 8.38835 45.2096 17.7174 2.29305 16.045C1.53738 17.2993 0.80778 18.5275 0 19.7557C45.2878 22.2644 66.4725 13.0137 76.2701 4.46856C75.6447 2.97904 75.0454 1.46339 74.42 0Z" transform="translate(558.412 199.903)" fill="#A4B0BE"/>
<path d="M156.371 4.31178C155.771 2.90065 155.172 1.43726 154.573 0C138.521 9.19844 105.871 16.3847 39.6855 5.01733C26.8131 2.79611 15.2696 1.33273 4.82062 0.391979C3.15295 1.48952 1.56345 2.6132 0 3.73687C12.273 4.54696 26.2138 6.2194 42.1088 8.96326C107.461 20.1739 140.085 13.3273 156.371 4.31178Z" transform="translate(501.06 261.417)" fill="#A4B0BE"/>
<path d="M60.5575 9.66881C124.867 20.7488 157.491 14.268 174.038 5.46158C173.36 4.10272 172.709 2.71773 172.031 1.28047C155.641 10.2176 123.017 16.9074 58.1081 5.74902C36.7931 2.09055 18.9959 0.365847 4.06496 0C2.65786 1.28046 1.30287 2.56093 0 3.86752C16.1817 3.81526 36.0374 5.46157 60.5575 9.66881Z" transform="translate(488.708 271.896)" fill="#A4B0BE"/>
<path d="M42.2391 0C35.7508 6.141 23.582 12.8569 0.938069 15.4962C0.651437 16.9074 0.338746 18.3446 0 19.7819C24.8327 17.43 37.8875 10.3482 44.6885 3.91979C43.8807 2.56093 43.0469 1.28046 42.2391 0Z" transform="translate(572.822 165.879)" fill="#A4B0BE"/>
<path d="M120.307 12.0468C196.186 25.1128 227.95 13.7454 241.214 2.9529C240.041 2.09055 238.79 1.09754 237.513 0C223.521 10.4789 191.418 20.7488 117.858 8.1009C48.102 -3.89366 15.6084 4.72988 0.521148 14.5816C0.286632 16.6722 0.10423 18.6843 0 20.6442C13.602 10.0085 45.5744 -0.810096 120.307 12.0468Z" transform="translate(459.316 325.598)" fill="#A4B0BE"/>
<path d="M0 14.1835C0 14.1835 25.5363 -16.2863 126.379 12.0929C227.221 40.4722 252.757 10.0285 252.757 10.0285C252.757 10.0285 284.729 38.3033 190.766 127.544C96.7773 216.758 128.75 245.033 128.75 245.033C128.75 245.033 47.1379 213.283 64.3879 129.608C81.6379 45.9338 0 14.1835 0 14.1835Z" transform="translate(454 172.967)" fill="white"/>
<path d="M0 13.6749C0 13.6749 24.2334 -15.7235 119.942 11.6889C215.651 39.1274 239.885 9.72899 239.885 9.72899C239.885 9.72899 270.215 37.0369 181.073 123.142C91.9045 209.246 122.235 236.528 122.235 236.528C122.235 236.528 44.7667 205.875 61.1307 125.101C77.4687 44.3277 0 13.6749 0 13.6749Z" transform="translate(460.202 176.376)" fill="#D80F2C"/>
<circle cx="38" cy="38" r="38" transform="translate(742 388)" fill="white"/>
<path d="M34.3311 0C15.4009 0 0 15.4009 0 34.3311C0 53.2614 15.4009 68.6623 34.3311 68.6623C53.2614 68.6623 68.6623 53.2614 68.6623 34.3311C68.6623 15.4009 53.2614 0 34.3311 0ZM24.5866 52.8437L10.1232 38.3813L13.1969 35.3068L24.5866 46.6964L55.4654 15.8185L58.5408 18.8922L24.5866 52.8437Z" transform="translate(745.169 391.169)" fill="#51545F"/>
<path d="M38.5 -1C16.7185 -1 -1 16.7185 -1 38.5C-1 60.2815 16.7185 78 38.5 78C60.2815 78 78 60.2815 78 38.5C78 16.7185 60.2815 -1 38.5 -1ZM38.5 75.0494C18.3478 75.0494 1.95062 58.6522 1.95062 38.5C1.95062 18.3478 18.3478 1.95062 38.5 1.95062C58.6522 1.95062 75.0494 18.3478 75.0494 38.5C75.0494 58.6522 58.6522 75.0494 38.5 75.0494Z" transform="translate(741 387)" fill="#51545F" stroke="#51545F" stroke-width="2"/>
<rect width="81" height="53" transform="translate(731 85)" fill="white"/>
<path d="M31.9757 6.68176C30.5707 8.08876 28.1727 8.19077 26.8787 6.89377C26.2087 6.22477 25.8636 5.27177 25.9356 4.28177C26.0016 3.35877 26.4127 2.47577 27.0907 1.79677L28.8287 0.058765C27.6667 -0.061235 24.9837 -0.144235 23.4717 1.36677C21.9097 2.92877 21.8827 5.56877 21.8827 5.59577C21.8907 7.23177 21.0217 9.34577 19.8607 10.5068L10.5037 19.8638C9.35065 21.0178 7.24565 21.8868 5.60765 21.8878C5.56565 21.8878 2.92565 21.9138 1.36365 23.4768C-0.140348 24.9818 -0.0613478 27.6618 0.0576522 28.8308L1.79365 27.0948C3.19965 25.6878 5.59465 25.5848 6.89165 26.8838C7.56065 27.5518 7.90465 28.5038 7.83365 29.4938C7.76765 30.4178 7.35765 31.3008 6.67865 31.9788L4.94165 33.7158C6.10065 33.8388 8.78465 33.9198 10.2967 32.4088C11.8597 30.8468 11.8867 28.2068 11.8867 28.1798C11.8797 26.5428 12.7497 24.4298 13.9097 23.2698L23.2667 13.9128C24.4187 12.7598 26.5237 11.8898 28.1627 11.8898C28.2047 11.8898 30.8447 11.8628 32.4067 10.2998C33.9197 8.78676 33.8357 6.11476 33.7137 4.94476L31.9757 6.68176Z" transform="translate(754.115 95.1122)" fill="#51545F"/>
<path d="M72 0H0V44.5H72V0ZM53.643 17.533C51.245 19.932 47.691 20.002 47.293 20.002C46.439 20.002 45.091 20.558 44.503 21.147L35.146 30.504C34.554 31.096 33.998 32.447 34.001 33.285C34.002 33.442 33.992 37.184 31.532 39.643C29.677 41.498 27.054 41.887 25.181 41.887C23.914 41.887 23 41.713 22.9 41.694C21.759 41.466 20.944 40.805 20.663 39.879C20.382 38.952 20.692 37.95 21.514 37.129L23.672 34.971C23.839 34.805 23.942 34.594 23.956 34.394C23.96 34.336 23.961 34.194 23.884 34.117C23.823 34.055 23.724 34.043 23.652 34.043C23.441 34.043 23.208 34.15 23.029 34.329L20.871 36.487C20.085 37.273 19.31 37.438 18.799 37.438C17.567 37.438 16.588 36.521 16.305 35.102C16.261 34.877 15.25 29.575 18.356 26.468C20.755 24.069 24.308 24 24.705 24C25.559 24 26.908 23.444 27.496 22.855L36.853 13.498C37.445 12.906 38 11.554 37.997 10.717C37.996 10.559 38.007 6.818 40.465 4.359C43.575 1.249 48.852 2.257 49.099 2.308C50.24 2.535 51.054 3.197 51.335 4.123C51.616 5.049 51.306 6.052 50.484 6.873L48.326 9.031C48.16 9.198 48.056 9.408 48.042 9.609C48.038 9.667 48.037 9.808 48.113 9.885C48.175 9.947 48.274 9.96 48.346 9.96C48.557 9.96 48.789 9.853 48.968 9.674L51.126 7.516C51.912 6.73 52.686 6.565 53.197 6.565C54.429 6.565 55.408 7.482 55.69 8.901C55.737 9.125 56.748 14.428 53.643 17.533Z" transform="translate(735 90)" fill="#51545F"/>
<path d="M84 0H4C1.794 0 0 1.794 0 4V56.5C0 58.706 1.794 60.5 4 60.5H37.423C36.662 68.463 30.112 73.724 30.045 73.777C28.606 74.904 28.707 75.989 28.895 76.536C29.083 77.083 29.672 78 31.5 78H56.5C58.328 78 58.917 77.083 59.105 76.536C59.293 75.989 59.395 74.904 57.958 73.779C57.887 73.724 51.338 68.463 50.577 60.5H84C86.206 60.5 88 58.706 88 56.5V4C88 1.794 86.206 0 84 0ZM83 55.5H5V5H83V55.5Z" transform="translate(727 82)" fill="#51545F"/>
<rect width="54" height="53" transform="translate(366 86)" fill="white"/>
<path d="M9.21875 0.000732422C4.1263 0.000732422 0 4.20328 0 9.34448V53.4069C0 58.5481 4.1263 62.7507 9.21875 62.7507H49.8125L74.1875 77.5007C74.2085 77.5207 74.25 77.5627 74.25 77.5627H74.2812C74.3352 77.5777 74.906 77.7502 74.9062 77.7502C74.9065 77.7502 75.5309 77.5317 75.5312 77.5315C75.5315 77.5313 75.7809 77.2819 75.7812 77.2815C75.7815 77.2812 75.8531 77.1378 75.8749 77.094C75.897 77.05 75.9263 77.029 75.9374 77C75.9595 76.942 75.9607 76.905 75.9686 76.875C76.0156 76.7127 76.0263 76.5419 75.9998 76.375C75.9948 76.2561 75.9709 76.0009 75.9686 75.6875C75.9636 75.0607 75.9656 74.097 75.9686 72.8125C75.9746 70.4511 75.989 66.7874 75.9998 62.5C80.4989 61.8785 83.9998 58.1177 83.9998 53.4062V9.34375C83.9998 4.20255 79.9048 0 74.8123 0H9.21855L9.21875 0.000732422ZM42 7.56323C50.1706 7.56323 56.8125 14.3046 56.8125 22.5632C56.8125 27.364 55.3939 29.9008 54.125 32.0007C52.8705 34.0769 51.8053 35.7034 51.7812 39.6257C51.7835 39.6674 51.7835 39.7091 51.7812 39.7507C51.785 39.8888 51.7638 40.0264 51.7188 40.1569L49.5312 51.5632C49.2724 52.9121 48.0506 53.6257 46.7812 53.6257H44.4062H39.625H37.25C35.9807 53.6257 34.7592 52.9112 34.5 51.5632L32.3438 40.2194C32.3136 40.1387 32.2927 40.0548 32.2812 39.9694C32.2639 39.8977 32.2534 39.8245 32.25 39.7507C32.25 35.7295 31.1752 34.1007 29.9063 32.0007C28.6374 29.9008 27.2188 27.364 27.2188 22.5632C27.2188 14.3047 33.8295 7.56323 42 7.56323H42ZM42 9.84448C35.0912 9.84448 29.5312 15.5295 29.5312 22.5632C29.5312 26.9425 30.6205 28.737 31.875 30.8132C33.0087 32.6895 34.2325 34.8989 34.4688 38.5944H39.625H40.875V28.8757C38.7361 28.356 37.125 26.4522 37.125 24.157C37.125 21.466 39.3462 19.2507 42.0312 19.2507C44.7163 19.2507 46.9062 21.466 46.9062 24.157C46.9062 26.4522 45.2912 28.356 43.1562 28.8757V38.5944H49.5625C49.7987 34.8989 51.0226 32.6895 52.1562 30.8132C53.4108 28.737 54.5 26.9425 54.5 22.5632C54.5 15.5295 48.9089 9.84448 42 9.84448ZM42.0312 21.5632C40.5878 21.5632 39.4375 22.7104 39.4375 24.157C39.4375 25.6036 40.5878 26.7507 42.0312 26.7507C43.4746 26.7507 44.5937 25.6036 44.5937 24.157C44.5937 22.7104 43.4746 21.5632 42.0312 21.5632ZM34.8125 40.9069L36.7812 51.1569C36.7589 51.0412 36.9776 51.3132 37.25 51.3132H39.625H44.4062H46.7812C47.0537 51.3132 47.2724 51.0403 47.25 51.1569L49.2187 40.9069H42.5625C42.3945 40.9977 42.2065 41.0453 42.0156 41.0453C41.8246 41.0453 41.6367 40.9977 41.4687 40.9069H34.8125Z" transform="translate(349 82)" fill="#51545F"/>
<circle cx="18" cy="18" r="18" transform="translate(375 394)" fill="white"/>
<path d="M13.9568 28.0706C21.665 28.0706 27.9136 21.7855 27.9136 14.0353C27.9136 6.28436 21.665 0 13.9568 0C6.249 0 0 6.28436 0 14.0353C0 21.7855 6.249 28.0706 13.9568 28.0706ZM13.9568 3.92984C19.5062 3.92984 24.0056 8.45446 24.0056 14.0353C24.0056 19.6162 19.5062 24.1408 13.9568 24.1408C8.4074 24.1408 3.90796 19.6162 3.90796 14.0353C3.90796 8.45446 8.4074 3.92984 13.9568 3.92984Z" transform="translate(379.453 398.323)" fill="#51545F"/>
<path d="M6.97802 14.0345C10.8317 14.0345 13.9564 10.8931 13.9564 7.01746C13.9564 3.1418 10.8317 0 6.97802 0C3.12431 0 0 3.1418 0 7.01746C0 10.8931 3.12431 14.0345 6.97802 14.0345ZM6.97802 3.21134C9.06802 3.21134 10.7622 4.91576 10.7622 7.01746C10.7622 9.11878 9.06802 10.8232 6.97802 10.8232C4.88839 10.8232 3.19347 9.11878 3.19347 7.01746C3.19347 4.91576 4.88839 3.21134 6.97802 3.21134Z" transform="translate(386.432 405.34)" fill="#51545F"/>
<path d="M66.9084 28.8932V20.3715H75.6345V24.6676L82 18.2668L75.6345 11.8652V16.1608H71.2137V6.40078L75.5168 6.4004L69.1512 0L62.785 6.40117L67.0261 6.40078V16.1608H62.7215V24.6825H42.4557V21.5327H58.3665V10.1654L62.639 10.165L56.2742 3.76462L49.9079 10.1658L54.1796 10.1654V17.322H48.485V10.2323H27.316V6.46034L31.5881 6.45957L25.2226 0.0591705L18.857 6.46072L23.1287 6.46034V14.443H30.8667V19.3103H16.6375L16.6371 14.9866L10.272 21.3874L16.6379 27.789L16.6375 23.5206H35.054V14.443H44.2982V17.322H38.2685V30.7606C21.7494 31.2647 8.50979 44.8793 8.50979 61.6134V69.5699L0 86.2098H8.50979V108.771L27.4914 108.244V120H63.7799V80.1399C67.6351 74.979 69.9208 68.5655 69.9208 61.6134C69.9208 59.7138 69.7404 57.8564 69.4141 56.0513C67.7788 45.781 59.1116 38.1065 59.1116 38.1065C54.5258 34.1759 48.777 31.5817 42.4557 30.9135V28.8932H66.9084ZM61.735 55.3578C61.735 64.9799 53.9787 72.7812 44.4097 72.7812C34.8412 72.7812 27.0841 64.9799 27.0841 55.3578C27.0841 45.7357 34.8412 37.9348 44.4097 37.9348C53.9787 37.9348 61.735 45.7357 61.735 55.3578Z" transform="translate(349 357)" fill="#51545F"/>
<defs>
<linearGradient id="paint0_linear" x2="1" gradientUnits="userSpaceOnUse" gradientTransform="translate(5.48016e-06 -460.694) scale(522 1153.93)">
<stop stop-color="#A4B0BE" stop-opacity="0"/>
<stop offset="1" stop-color="#A4B0BE" stop-opacity="0.29"/>
</linearGradient>
<linearGradient id="paint1_linear" x2="1" gradientUnits="userSpaceOnUse" gradientTransform="translate(5.48016e-06 -461.6) scale(522 1156.2)">
<stop stop-color="#A4B0BE" stop-opacity="0"/>
<stop offset="1" stop-color="#A4B0BE" stop-opacity="0.29"/>
</linearGradient>
<linearGradient id="paint2_linear" x2="1" gradientUnits="userSpaceOnUse" gradientTransform="translate(5.47963e-06 -461.6) scale(521.949 1156.2)">
<stop stop-color="#A4B0BE" stop-opacity="0"/>
<stop offset="1" stop-color="#A4B0BE" stop-opacity="0.29"/>
</linearGradient>
<linearGradient id="paint3_linear" x2="1" gradientUnits="userSpaceOnUse" gradientTransform="translate(5.48988e-06 -460.694) scale(522.925 1153.93)">
<stop stop-color="#A4B0BE" stop-opacity="0"/>
<stop offset="1" stop-color="#A4B0BE" stop-opacity="0.29"/>
</linearGradient>
<radialGradient id="paint4_radial" cx="0.5" cy="0.5" r="0.5" gradientUnits="userSpaceOnUse" gradientTransform="translate(548.199) scale(548.199 548) rotate(90)">
<stop stop-color="#6E6F75"/>
<stop offset="0.890376" stop-color="#6E6F75"/>
<stop offset="0.89158" stop-color="#A4B0BE"/>
<stop offset="1" stop-color="#A4B0BE"/>
</radialGradient>
<radialGradient id="paint5_radial" cx="0.5" cy="0.5" r="0.5" gradientUnits="userSpaceOnUse" gradientTransform="translate(548.199) scale(548.199 548) rotate(90)">
<stop stop-color="#6E6F75"/>
<stop offset="0.890376" stop-color="#6E6F75"/>
<stop offset="0.89158" stop-color="#A4B0BE"/>
<stop offset="1" stop-color="#A4B0BE"/>
</radialGradient>
<radialGradient id="paint6_radial" cx="0.5" cy="0.5" r="0.5" gradientUnits="userSpaceOnUse" gradientTransform="translate(548.199) scale(548.199 548) rotate(90)">
<stop stop-color="#6E6F75"/>
<stop offset="0.890376" stop-color="#6E6F75"/>
<stop offset="0.89158" stop-color="#A4B0BE"/>
<stop offset="1" stop-color="#A4B0BE"/>
</radialGradient>
<radialGradient id="paint7_radial" cx="0.5" cy="0.5" r="0.5" gradientUnits="userSpaceOnUse" gradientTransform="translate(548.199) scale(548.199 548) rotate(90)">
<stop stop-color="#6E6F75"/>
<stop offset="0.890376" stop-color="#6E6F75"/>
<stop offset="0.89158" stop-color="#A4B0BE"/>
<stop offset="1" stop-color="#A4B0BE"/>
</radialGradient>
</defs>
</svg>
