<svg width="2724" height="632" viewBox="0 0 2724 632" fill="none" xmlns="http://www.w3.org/2000/svg">
<path d="M75.369 241.848C24.169 96.6479 126.369 25.0145 183.869 7.34788C270.669 -20.2521 346.702 36.5145 373.869 68.3479C385.369 50.5145 425.269 15.1479 492.869 16.3479C560.469 17.5479 613.036 72.1812 630.869 99.3479C664.869 76.8479 743.869 78.8479 817.869 121.848C877.069 156.248 896.869 242.181 899.369 280.848C880.169 467.648 736.036 486.348 666.369 472.348C658.536 485.681 633.669 516.548 596.869 533.348C560.069 550.148 504.202 540.348 480.869 533.348C472.536 565.515 431.769 630.148 335.369 631.348C238.969 632.548 194.202 560.515 183.869 524.348C155.869 522.848 23.3691 533.348 2.86912 411.348C-13.5309 313.748 44.369 257.681 75.369 241.848Z" fill="#15A0DB"/>
<path d="M3.588 101.4C6.396 102.544 9.464 103.48 12.792 104.208C16.224 104.832 19.604 105.144 22.932 105.144C25.324 105.144 27.612 104.884 29.796 104.364C31.98 103.844 33.852 103.064 35.412 102.024C37.076 100.984 38.376 99.736 39.312 98.28C40.352 96.72 40.872 95.004 40.872 93.132C40.872 91.052 40.456 89.336 39.624 87.984C38.896 86.632 37.856 85.488 36.504 84.552C35.256 83.616 33.748 82.836 31.98 82.212C30.316 81.484 28.496 80.808 26.52 80.184L21.06 78.156C14.404 75.66 9.568 72.852 6.552 69.732C3.536 66.612 2.028 62.4 2.028 57.096C2.028 50.024 4.524 44.408 9.516 40.248C14.612 36.088 22.048 34.008 31.824 34.008C35.88 34.008 39.832 34.424 43.68 35.256C47.632 35.984 51.064 36.868 53.976 37.908C53.768 39.988 53.352 42.068 52.728 44.148C52.208 46.228 51.532 48.152 50.7 49.92C48.412 49.088 45.656 48.308 42.432 47.58C39.312 46.748 35.932 46.332 32.292 46.332C28.444 46.332 25.012 47.008 21.996 48.36C19.084 49.712 17.628 52.104 17.628 55.536C17.628 57.304 17.992 58.812 18.72 60.06C19.448 61.308 20.436 62.4 21.684 63.336C22.932 64.168 24.336 64.896 25.896 65.52C27.56 66.144 29.328 66.768 31.2 67.392L38.064 69.732C40.56 70.564 42.9 71.552 45.084 72.696C47.372 73.84 49.296 75.296 50.856 77.064C52.52 78.728 53.82 80.808 54.756 83.304C55.796 85.696 56.316 88.608 56.316 92.04C56.316 95.888 55.536 99.424 53.976 102.648C52.416 105.768 50.18 108.472 47.268 110.76C44.46 112.944 41.028 114.66 36.972 115.908C32.916 117.156 28.444 117.78 23.556 117.78C18.564 117.78 14.196 117.416 10.452 116.688C6.708 116.064 3.224 115.18 0 114.036C0.208 111.956 0.624 109.876 1.248 107.796C1.976 105.612 2.756 103.48 3.588 101.4Z" transform="translate(129.857 220.44)" fill="white"/>
<path d="M115.92 78.312C114.36 78.104 112.384 77.896 109.992 77.688C107.6 77.48 105.572 77.376 103.908 77.376C97.4602 77.376 92.5202 78.572 89.0882 80.964C85.7602 83.356 84.0962 86.996 84.0962 91.884C84.0962 95.004 84.6682 97.448 85.8122 99.216C86.9562 100.984 88.3602 102.336 90.0242 103.272C91.7922 104.208 93.7162 104.78 95.7962 104.988C97.8762 105.196 99.8522 105.3 101.724 105.3C104.116 105.3 106.56 105.196 109.056 104.988C111.656 104.676 113.944 104.26 115.92 103.74V78.312ZM115.92 63.18C115.92 57.044 114.36 52.78 111.24 50.388C108.12 47.996 103.596 46.8 97.6682 46.8C94.0282 46.8 90.5962 47.112 87.3722 47.736C84.2522 48.256 81.1842 48.984 78.1682 49.92C76.1922 46.488 75.2042 42.38 75.2042 37.596C78.7402 36.452 82.6402 35.568 86.9042 34.944C91.1682 34.32 95.2762 34.008 99.2282 34.008C109.628 34.008 117.532 36.4 122.94 41.184C128.348 45.864 131.052 53.404 131.052 63.804V113.88C127.412 114.712 122.992 115.544 117.792 116.376C112.592 117.312 107.288 117.78 101.88 117.78C96.7842 117.78 92.1562 117.312 87.9962 116.376C83.9402 115.44 80.4562 113.932 77.5442 111.852C74.7362 109.772 72.5522 107.12 70.9922 103.896C69.4322 100.672 68.6522 96.772 68.6522 92.196C68.6522 87.724 69.5362 83.824 71.3042 80.496C73.1762 77.064 75.6722 74.256 78.7922 72.072C81.9122 69.784 85.5002 68.12 89.5562 67.08C93.6122 65.936 97.8762 65.364 102.348 65.364C105.676 65.364 108.38 65.468 110.46 65.676C112.644 65.78 114.464 65.936 115.92 66.144V63.18Z" transform="translate(129.857 220.44)" fill="white"/>
<path d="M151.582 1.56C152.726 1.352 153.974 1.196 155.326 1.092C156.782 0.987997 158.082 0.935997 159.226 0.935997C160.37 0.935997 161.618 0.987997 162.97 1.092C164.426 1.196 165.726 1.352 166.87 1.56V91.728C166.87 94.64 167.13 96.928 167.65 98.592C168.17 100.256 168.846 101.556 169.678 102.492C170.614 103.324 171.654 103.896 172.798 104.208C174.046 104.416 175.346 104.52 176.698 104.52C177.634 104.52 178.674 104.468 179.818 104.364C181.066 104.26 182.106 104.104 182.938 103.896C183.874 107.536 184.342 111.488 184.342 115.752C182.886 116.272 181.118 116.584 179.038 116.688C176.958 116.896 175.034 117 173.266 117C170.25 117 167.442 116.636 164.842 115.908C162.242 115.18 159.954 113.984 157.978 112.32C156.002 110.656 154.442 108.42 153.298 105.612C152.154 102.804 151.582 99.32 151.582 95.16V1.56Z" transform="translate(129.857 220.44)" fill="white"/>
<path d="M207.563 79.716C207.771 88.452 210.007 94.848 214.271 98.904C218.639 102.96 225.035 104.988 233.459 104.988C240.843 104.988 247.863 103.688 254.519 101.088C255.351 102.648 256.027 104.572 256.547 106.86C257.067 109.044 257.379 111.228 257.483 113.412C254.051 114.868 250.255 115.96 246.095 116.688C242.039 117.416 237.515 117.78 232.523 117.78C225.243 117.78 219.003 116.792 213.803 114.816C208.603 112.736 204.287 109.876 200.855 106.236C197.527 102.492 195.083 98.124 193.523 93.132C191.963 88.036 191.183 82.472 191.183 76.44C191.183 70.512 191.911 65 193.367 59.904C194.927 54.704 197.267 50.232 200.387 46.488C203.507 42.64 207.407 39.624 212.087 37.44C216.871 35.152 222.487 34.008 228.935 34.008C234.447 34.008 239.283 34.944 243.443 36.816C247.603 38.688 251.087 41.288 253.895 44.616C256.703 47.84 258.835 51.74 260.291 56.316C261.747 60.788 262.475 65.676 262.475 70.98C262.475 72.436 262.423 73.996 262.319 75.66C262.215 77.22 262.111 78.572 262.007 79.716H207.563ZM247.187 68.172C247.187 65.26 246.771 62.504 245.939 59.904C245.211 57.2 244.067 54.86 242.507 52.884C241.051 50.908 239.127 49.348 236.735 48.204C234.447 46.956 231.691 46.332 228.467 46.332C222.123 46.332 217.235 48.256 213.803 52.104C210.475 55.952 208.447 61.308 207.719 68.172H247.187Z" transform="translate(129.857 220.44)" fill="white"/>
<path d="M278.958 101.4C281.766 102.544 284.834 103.48 288.162 104.208C291.594 104.832 294.974 105.144 298.302 105.144C300.694 105.144 302.982 104.884 305.166 104.364C307.35 103.844 309.222 103.064 310.782 102.024C312.446 100.984 313.746 99.736 314.682 98.28C315.722 96.72 316.242 95.004 316.242 93.132C316.242 91.052 315.826 89.336 314.994 87.984C314.266 86.632 313.226 85.488 311.874 84.552C310.626 83.616 309.118 82.836 307.35 82.212C305.686 81.484 303.866 80.808 301.89 80.184L296.43 78.156C289.774 75.66 284.938 72.852 281.922 69.732C278.906 66.612 277.398 62.4 277.398 57.096C277.398 50.024 279.894 44.408 284.886 40.248C289.982 36.088 297.418 34.008 307.194 34.008C311.25 34.008 315.202 34.424 319.05 35.256C323.002 35.984 326.434 36.868 329.346 37.908C329.138 39.988 328.722 42.068 328.098 44.148C327.578 46.228 326.902 48.152 326.07 49.92C323.782 49.088 321.026 48.308 317.802 47.58C314.682 46.748 311.302 46.332 307.662 46.332C303.814 46.332 300.382 47.008 297.366 48.36C294.454 49.712 292.998 52.104 292.998 55.536C292.998 57.304 293.362 58.812 294.09 60.06C294.818 61.308 295.806 62.4 297.054 63.336C298.302 64.168 299.706 64.896 301.266 65.52C302.93 66.144 304.698 66.768 306.57 67.392L313.434 69.732C315.93 70.564 318.27 71.552 320.454 72.696C322.742 73.84 324.666 75.296 326.226 77.064C327.89 78.728 329.19 80.808 330.126 83.304C331.166 85.696 331.686 88.608 331.686 92.04C331.686 95.888 330.906 99.424 329.346 102.648C327.786 105.768 325.55 108.472 322.638 110.76C319.83 112.944 316.398 114.66 312.342 115.908C308.286 117.156 303.814 117.78 298.926 117.78C293.934 117.78 289.566 117.416 285.822 116.688C282.078 116.064 278.594 115.18 275.37 114.036C275.578 111.956 275.994 109.876 276.618 107.796C277.346 105.612 278.126 103.48 278.958 101.4Z" transform="translate(129.857 220.44)" fill="white"/>
<path d="M364.147 48.204H351.199C351.199 46.124 351.303 44.148 351.511 42.276C351.823 40.3 352.395 38.168 353.227 35.88H366.175L366.955 31.356C368.723 20.852 372.155 13 377.251 7.8C382.451 2.6 389.731 0 399.091 0C401.795 0 404.135 0.208 406.111 0.624001C408.087 0.935997 409.907 1.352 411.571 1.872C410.947 4.576 410.271 6.864 409.543 8.736C408.919 10.504 408.087 12.376 407.047 14.352C405.903 13.936 404.707 13.572 403.459 13.26C402.211 12.948 400.755 12.792 399.091 12.792C396.907 12.792 394.931 13.104 393.163 13.728C391.395 14.248 389.783 15.236 388.327 16.692C386.975 18.044 385.779 19.968 384.739 22.464C383.699 24.856 382.867 27.924 382.243 31.668C382.035 32.396 381.879 33.124 381.775 33.852C381.671 34.476 381.515 35.152 381.307 35.88H400.495C400.495 38.064 400.339 40.092 400.027 41.964C399.819 43.836 399.299 45.916 398.467 48.204H379.279L367.267 116.376C366.019 123.344 364.459 129.22 362.587 134.004C360.819 138.788 358.583 142.636 355.879 145.548C353.175 148.564 350.003 150.696 346.363 151.944C342.827 153.296 338.667 153.972 333.883 153.972C331.595 153.972 329.411 153.764 327.331 153.348C325.251 153.036 323.431 152.568 321.871 151.944C322.287 149.552 322.807 147.368 323.431 145.392C324.055 143.52 324.887 141.648 325.927 139.776C326.967 140.192 328.163 140.504 329.515 140.712C330.763 141.024 332.063 141.18 333.415 141.18C335.807 141.18 337.939 140.868 339.811 140.244C341.787 139.62 343.503 138.372 344.959 136.5C346.415 134.628 347.715 131.976 348.859 128.544C350.107 125.216 351.199 120.848 352.135 115.44L364.147 48.204Z" transform="translate(129.857 220.44)" fill="white"/>
<path d="M431.529 117.78C425.289 117.78 419.829 116.74 415.149 114.66C410.469 112.476 406.569 109.512 403.449 105.768C400.329 102.024 397.989 97.604 396.429 92.508C394.973 87.412 394.245 81.9 394.245 75.972C394.245 70.044 394.973 64.532 396.429 59.436C397.989 54.34 400.329 49.92 403.449 46.176C406.569 42.432 410.469 39.468 415.149 37.284C419.829 35.1 425.289 34.008 431.529 34.008C437.769 34.008 443.229 35.1 447.909 37.284C452.589 39.468 456.489 42.432 459.609 46.176C462.729 49.92 465.017 54.34 466.473 59.436C468.033 64.532 468.813 70.044 468.813 75.972C468.813 81.9 468.033 87.412 466.473 92.508C465.017 97.604 462.729 102.024 459.609 105.768C456.489 109.512 452.589 112.476 447.909 114.66C443.229 116.74 437.769 117.78 431.529 117.78ZM431.529 105.456C438.705 105.456 444.009 102.856 447.441 97.656C450.873 92.456 452.589 85.228 452.589 75.972C452.589 66.716 450.873 59.54 447.441 54.444C444.009 49.244 438.705 46.644 431.529 46.644C424.353 46.644 419.049 49.244 415.617 54.444C412.289 59.54 410.625 66.716 410.625 75.972C410.625 85.228 412.289 92.456 415.617 97.656C419.049 102.856 424.353 105.456 431.529 105.456Z" transform="translate(129.857 220.44)" fill="white"/>
<path d="M486.776 35.88C487.92 35.672 489.012 35.516 490.052 35.412C491.092 35.308 492.184 35.256 493.328 35.256C494.472 35.256 495.616 35.308 496.76 35.412C497.904 35.516 498.944 35.672 499.88 35.88C500.192 37.44 500.504 39.52 500.816 42.12C501.128 44.616 501.284 46.748 501.284 48.516C503.468 44.98 506.328 41.912 509.864 39.312C513.504 36.712 518.132 35.412 523.748 35.412C524.58 35.412 525.412 35.464 526.244 35.568C527.18 35.568 527.96 35.62 528.584 35.724C528.792 36.66 528.948 37.648 529.052 38.688C529.156 39.728 529.208 40.82 529.208 41.964C529.208 43.212 529.104 44.512 528.896 45.864C528.792 47.216 528.636 48.516 528.428 49.764C527.596 49.556 526.712 49.452 525.776 49.452C524.944 49.452 524.268 49.452 523.748 49.452C520.94 49.452 518.236 49.868 515.636 50.7C513.14 51.428 510.852 52.78 508.772 54.756C506.796 56.732 505.184 59.436 503.936 62.868C502.792 66.3 502.22 70.72 502.22 76.128V115.908C501.076 116.116 499.776 116.272 498.32 116.376C496.968 116.48 495.72 116.532 494.576 116.532C493.432 116.532 492.132 116.48 490.676 116.376C489.324 116.272 488.024 116.116 486.776 115.908V35.88Z" transform="translate(129.857 220.44)" fill="white"/>
<path d="M593.546 102.024C594.378 103.48 595.106 105.3 595.73 107.484C596.354 109.668 596.718 111.904 596.822 114.192C590.686 116.584 583.666 117.78 575.762 117.78C562.45 117.78 552.414 114.036 545.654 106.548C538.894 98.956 535.514 88.764 535.514 75.972C535.514 70.044 536.346 64.532 538.01 59.436C539.674 54.34 542.118 49.92 545.342 46.176C548.67 42.432 552.778 39.468 557.666 37.284C562.554 35.1 568.222 34.008 574.67 34.008C579.038 34.008 582.886 34.268 586.214 34.788C589.542 35.308 592.714 36.14 595.73 37.284C595.73 39.052 595.47 41.132 594.95 43.524C594.534 45.812 593.91 47.84 593.078 49.608C587.982 47.84 582.158 46.956 575.606 46.956C567.598 46.956 561.618 49.608 557.666 54.912C553.714 60.216 551.738 67.236 551.738 75.972C551.738 85.956 553.974 93.288 558.446 97.968C562.918 102.544 569.054 104.832 576.854 104.832C579.974 104.832 582.834 104.624 585.434 104.208C588.138 103.792 590.842 103.064 593.546 102.024Z" transform="translate(129.857 220.44)" fill="white"/>
<path d="M621.609 79.716C621.817 88.452 624.053 94.848 628.317 98.904C632.685 102.96 639.081 104.988 647.505 104.988C654.889 104.988 661.909 103.688 668.565 101.088C669.397 102.648 670.073 104.572 670.593 106.86C671.113 109.044 671.425 111.228 671.529 113.412C668.097 114.868 664.301 115.96 660.141 116.688C656.085 117.416 651.561 117.78 646.569 117.78C639.289 117.78 633.049 116.792 627.849 114.816C622.649 112.736 618.333 109.876 614.901 106.236C611.573 102.492 609.129 98.124 607.569 93.132C606.009 88.036 605.229 82.472 605.229 76.44C605.229 70.512 605.957 65 607.413 59.904C608.973 54.704 611.313 50.232 614.433 46.488C617.553 42.64 621.453 39.624 626.133 37.44C630.917 35.152 636.533 34.008 642.981 34.008C648.493 34.008 653.329 34.944 657.489 36.816C661.649 38.688 665.133 41.288 667.941 44.616C670.749 47.84 672.881 51.74 674.337 56.316C675.793 60.788 676.521 65.676 676.521 70.98C676.521 72.436 676.469 73.996 676.365 75.66C676.261 77.22 676.157 78.572 676.053 79.716H621.609ZM661.233 68.172C661.233 65.26 660.817 62.504 659.985 59.904C659.257 57.2 658.113 54.86 656.553 52.884C655.097 50.908 653.173 49.348 650.781 48.204C648.493 46.956 645.737 46.332 642.513 46.332C636.169 46.332 631.281 48.256 627.849 52.104C624.521 55.952 622.493 61.308 621.765 68.172H661.233Z" transform="translate(129.857 220.44)" fill="white"/>
<path d="M154.161 171.707V93.0264C154.161 83.389 152.101 76.1794 147.981 71.3975C143.862 66.542 137.461 64.1143 128.78 64.1143C117.377 64.1143 108.954 67.388 103.51 73.9355C98.0658 80.4831 95.3438 90.5618 95.3438 104.172V171.707H77.0254V93.0264C77.0254 83.389 74.9655 76.1794 70.8457 71.3975C66.7259 66.542 60.2887 64.1143 51.5342 64.1143C40.0576 64.1143 31.6341 67.5719 26.2637 74.4873C20.9668 81.3291 18.3184 92.585 18.3184 108.255V171.707H0V50.7617H14.8975L17.877 67.3145H18.7598C22.2174 61.429 27.0729 56.8311 33.3262 53.5205C39.653 50.21 46.7155 48.5547 54.5137 48.5547C73.4206 48.5547 85.7799 55.3965 91.5918 69.0801H92.4746C96.0794 62.7533 101.303 57.7507 108.145 54.0723C114.986 50.3939 122.785 48.5547 131.539 48.5547C145.223 48.5547 155.449 52.0859 162.217 59.1484C169.059 66.1374 172.479 77.3564 172.479 92.8057V171.707H154.161Z" transform="translate(987.791 172.293)" fill="#808A8F"/>
<path d="M289.227 171.707L285.585 154.492H284.703C278.67 162.07 272.638 167.219 266.605 169.941C260.646 172.59 253.179 173.914 244.204 173.914C232.212 173.914 222.795 170.824 215.954 164.645C209.185 158.465 205.801 149.674 205.801 138.271C205.801 113.846 225.333 101.045 264.398 99.8682L284.923 99.2061V91.7021C284.923 82.2119 282.863 75.223 278.744 70.7354C274.697 66.1742 268.187 63.8936 259.211 63.8936C249.133 63.8936 237.73 66.9834 225.002 73.1631L219.374 59.1484C225.333 55.9115 231.844 53.3734 238.907 51.5342C246.043 49.695 253.179 48.7754 260.315 48.7754C274.734 48.7754 285.402 51.9756 292.317 58.376C299.306 64.7764 302.8 75.0391 302.8 89.1641V171.707H289.227ZM247.845 158.796C259.248 158.796 268.187 155.669 274.661 149.416C281.208 143.163 284.482 134.408 284.482 123.152V112.228L266.164 113C251.597 113.515 241.077 115.796 234.603 119.842C228.203 123.814 225.002 130.031 225.002 138.491C225.002 145.112 226.989 150.152 230.961 153.609C235.008 157.067 240.636 158.796 247.845 158.796Z" transform="translate(987.791 172.293)" fill="#808A8F"/>
<path d="M400.347 48.5547C405.717 48.5547 410.536 48.9961 414.803 49.8789L412.265 66.873C407.262 65.7695 402.848 65.2178 399.022 65.2178C389.238 65.2178 380.851 69.1904 373.862 77.1357C366.947 85.0811 363.489 94.9759 363.489 106.82V171.707H345.171V50.7617H360.289L362.386 73.1631H363.269C367.756 65.2913 373.163 59.222 379.49 54.9551C385.817 50.6882 392.769 48.5547 400.347 48.5547Z" transform="translate(987.791 172.293)" fill="#808A8F"/>
<path d="M460.042 109.8C463.206 105.312 468.025 99.4268 474.498 92.1436L513.563 50.7617H535.302L486.306 102.296L538.723 171.707H516.542L473.836 114.545L460.042 126.463V171.707H441.945V0H460.042V91.04C460.042 95.0863 459.748 101.34 459.16 109.8H460.042Z" transform="translate(987.791 172.293)" fill="#808A8F"/>
<path d="M616.296 173.914C598.419 173.914 584.294 168.47 573.921 157.582C563.621 146.694 558.472 131.576 558.472 112.228C558.472 92.7321 563.254 77.2461 572.817 65.7695C582.455 54.293 595.366 48.5547 611.551 48.5547C626.706 48.5547 638.697 53.5573 647.525 63.5625C656.353 73.4941 660.768 86.626 660.768 102.958V114.545H577.452C577.82 128.743 581.388 139.521 588.156 146.878C594.998 154.235 604.599 157.913 616.958 157.913C629.979 157.913 642.854 155.191 655.581 149.747V166.079C649.107 168.875 642.964 170.861 637.152 172.038C631.414 173.289 624.462 173.914 616.296 173.914ZM611.33 63.8936C601.619 63.8936 593.858 67.057 588.046 73.3838C582.308 79.7106 578.923 88.4652 577.893 99.6475H641.125C641.125 88.0973 638.55 79.2692 633.4 73.1631C628.251 66.9834 620.894 63.8936 611.33 63.8936Z" transform="translate(987.791 172.293)" fill="#808A8F"/>
<path d="M735.692 158.796C738.929 158.796 742.055 158.575 745.072 158.134C748.088 157.619 750.479 157.104 752.245 156.589V170.604C750.258 171.56 747.315 172.332 743.416 172.921C739.591 173.583 736.133 173.914 733.043 173.914C709.649 173.914 697.952 161.591 697.952 136.946V64.9971H680.626V56.1689L697.952 48.5547L705.676 22.7324H716.27V50.7617H751.362V64.9971H716.27V136.174C716.27 143.457 717.999 149.048 721.456 152.947C724.914 156.846 729.659 158.796 735.692 158.796Z" transform="translate(987.791 172.293)" fill="#808A8F"/>
<path d="M799.36 171.707H781.042V50.7617H799.36V171.707ZM779.497 17.9873C779.497 13.7939 780.527 10.7409 782.587 8.82812C784.647 6.8418 787.222 5.84863 790.311 5.84863C793.254 5.84863 795.792 6.8418 797.926 8.82812C800.059 10.8145 801.126 13.8675 801.126 17.9873C801.126 22.1071 800.059 25.1969 797.926 27.2568C795.792 29.2432 793.254 30.2363 790.311 30.2363C787.222 30.2363 784.647 29.2432 782.587 27.2568C780.527 25.1969 779.497 22.1071 779.497 17.9873Z" transform="translate(987.791 172.293)" fill="#808A8F"/>
<path d="M925.488 171.707V93.4678C925.488 83.6097 923.244 76.2529 918.756 71.3975C914.269 66.542 907.243 64.1143 897.679 64.1143C885.025 64.1143 875.756 67.5352 869.87 74.377C863.985 81.2188 861.042 92.5114 861.042 108.255V171.707H842.724V50.7617H857.621L860.601 67.3145H861.484C865.236 61.3555 870.496 56.7575 877.264 53.5205C884.032 50.21 891.573 48.5547 899.886 48.5547C914.453 48.5547 925.414 52.0859 932.771 59.1484C940.128 66.1374 943.806 77.3564 943.806 92.8057V171.707H925.488Z" transform="translate(987.791 172.293)" fill="#808A8F"/>
<path d="M1085.05 50.7617V62.3486L1062.65 64.9971C1064.71 67.5719 1066.55 70.9561 1068.17 75.1494C1069.79 79.2692 1070.6 83.9408 1070.6 89.1641C1070.6 101.008 1066.55 110.462 1058.46 117.524C1050.36 124.587 1039.26 128.118 1025.13 128.118C1021.53 128.118 1018.14 127.824 1014.98 127.235C1007.18 131.355 1003.28 136.542 1003.28 142.795C1003.28 146.105 1004.64 148.57 1007.36 150.188C1010.09 151.733 1014.76 152.506 1021.38 152.506H1042.79C1055.88 152.506 1065.92 155.265 1072.91 160.782C1079.98 166.3 1083.51 174.319 1083.51 184.839C1083.51 198.228 1078.14 208.417 1067.4 215.406C1056.65 222.469 1040.98 226 1020.39 226C1004.57 226 992.356 223.057 983.749 217.172C975.215 211.286 970.948 202.973 970.948 192.232C970.948 184.876 973.302 178.512 978.011 173.142C982.719 167.771 989.34 164.13 997.874 162.217C994.784 160.819 992.172 158.649 990.039 155.706C987.979 152.763 986.949 149.342 986.949 145.443C986.949 141.029 988.126 137.167 990.48 133.856C992.835 130.546 996.55 127.346 1001.63 124.256C995.373 121.681 990.26 117.304 986.287 111.124C982.388 104.944 980.438 97.8818 980.438 89.9365C980.438 76.6943 984.411 66.5052 992.356 59.3691C1000.3 52.1595 1011.56 48.5547 1026.12 48.5547C1032.45 48.5547 1038.15 49.2904 1043.23 50.7617H1085.05ZM988.604 192.012C988.604 198.559 991.363 203.525 996.881 206.909C1002.4 210.293 1010.31 211.985 1020.61 211.985C1035.98 211.985 1047.35 209.668 1054.7 205.033C1062.14 200.472 1065.85 194.256 1065.85 186.384C1065.85 179.836 1063.83 175.275 1059.78 172.7C1055.73 170.199 1048.12 168.948 1036.94 168.948H1014.98C1006.67 168.948 1000.19 170.935 995.557 174.907C990.922 178.88 988.604 184.581 988.604 192.012ZM998.536 89.4951C998.536 97.9554 1000.93 104.356 1005.71 108.696C1010.49 113.037 1017.15 115.207 1025.68 115.207C1043.56 115.207 1052.5 106.526 1052.5 89.1641C1052.5 70.9928 1043.45 61.9072 1025.35 61.9072C1016.74 61.9072 1010.12 64.2246 1005.49 68.8594C1000.85 73.4941 998.536 80.3727 998.536 89.4951Z" transform="translate(987.791 172.293)" fill="#808A8F"/>
<path d="M1225.96 173.914C1208.45 173.914 1194.88 168.544 1185.24 157.803C1175.68 146.988 1170.9 131.723 1170.9 112.007C1170.9 91.7757 1175.75 76.1426 1185.46 65.1074C1195.25 54.0723 1209.15 48.5547 1227.18 48.5547C1232.99 48.5547 1238.8 49.18 1244.61 50.4307C1250.42 51.6813 1254.98 53.1527 1258.29 54.8447L1252.67 70.4043C1248.62 68.7858 1244.21 67.4616 1239.42 66.4316C1234.64 65.3281 1230.41 64.7764 1226.73 64.7764C1202.16 64.7764 1189.88 80.4463 1189.88 111.786C1189.88 126.647 1192.86 138.05 1198.82 145.995C1204.85 153.94 1213.75 157.913 1225.52 157.913C1235.6 157.913 1245.94 155.743 1256.53 151.402V167.624C1248.44 171.817 1238.25 173.914 1225.96 173.914Z" transform="translate(987.791 172.293)" fill="#808A8F"/>
<path d="M1308.17 171.707H1289.85V0H1308.17V171.707Z" transform="translate(987.791 172.293)" fill="#808A8F"/>
<path d="M1455.93 111.124C1455.93 130.84 1450.96 146.253 1441.03 157.361C1431.1 168.396 1417.38 173.914 1399.87 173.914C1389.05 173.914 1379.45 171.376 1371.07 166.3C1362.68 161.224 1356.2 153.94 1351.64 144.45C1347.08 134.96 1344.8 123.851 1344.8 111.124C1344.8 91.4079 1349.73 76.069 1359.59 65.1074C1369.45 54.0723 1383.13 48.5547 1400.64 48.5547C1417.56 48.5547 1430.99 54.1826 1440.92 65.4385C1450.92 76.6943 1455.93 91.9229 1455.93 111.124ZM1363.78 111.124C1363.78 126.573 1366.87 138.344 1373.05 146.437C1379.23 154.529 1388.32 158.575 1400.31 158.575C1412.3 158.575 1421.39 154.566 1427.57 146.547C1433.82 138.454 1436.95 126.647 1436.95 111.124C1436.95 95.7484 1433.82 84.0879 1427.57 76.1426C1421.39 68.1237 1412.23 64.1143 1400.09 64.1143C1388.1 64.1143 1379.05 68.0501 1372.94 75.9219C1366.84 83.7936 1363.78 95.5277 1363.78 111.124Z" transform="translate(987.791 172.293)" fill="#808A8F"/>
<path d="M1509.88 50.7617V129.222C1509.88 139.08 1512.13 146.437 1516.61 151.292C1521.1 156.147 1528.13 158.575 1537.69 158.575C1550.35 158.575 1559.58 155.118 1565.39 148.202C1571.28 141.287 1574.22 129.994 1574.22 114.324V50.7617H1592.54V171.707H1577.42L1574.77 155.485H1573.78C1570.02 161.444 1564.8 166.006 1558.11 169.169C1551.49 172.332 1543.91 173.914 1535.37 173.914C1520.66 173.914 1509.63 170.42 1502.27 163.431C1494.99 156.442 1491.34 145.259 1491.34 129.884V50.7617H1509.88Z" transform="translate(987.791 172.293)" fill="#808A8F"/>
<path d="M1718.33 155.485H1717.34C1708.88 167.771 1696.23 173.914 1679.38 173.914C1663.56 173.914 1651.24 168.507 1642.41 157.692C1633.66 146.878 1629.28 131.502 1629.28 111.565C1629.28 91.6286 1633.69 76.1426 1642.52 65.1074C1651.35 54.0723 1663.64 48.5547 1679.38 48.5547C1695.78 48.5547 1708.36 54.5137 1717.12 66.4316H1718.55L1717.78 57.7139L1717.34 49.2168V0H1735.66V171.707H1720.76L1718.33 155.485ZM1681.7 158.575C1694.2 158.575 1703.25 155.191 1708.84 148.423C1714.51 141.581 1717.34 130.583 1717.34 115.428V111.565C1717.34 94.4242 1714.47 82.2119 1708.73 74.9287C1703.07 67.5719 1693.98 63.8936 1681.48 63.8936C1670.73 63.8936 1662.49 68.0869 1656.76 76.4736C1651.09 84.7868 1648.26 96.5576 1648.26 111.786C1648.26 127.235 1651.09 138.896 1656.76 146.768C1662.42 154.639 1670.73 158.575 1681.7 158.575Z" transform="translate(987.791 172.293)" fill="#808A8F"/>
</svg>
