<svg width="2158" height="632" viewBox="0 0 2158 632" fill="none" xmlns="http://www.w3.org/2000/svg">
<path d="M75.369 241.848C24.169 96.6479 126.369 25.0145 183.869 7.34788C270.669 -20.2521 346.702 36.5145 373.869 68.3479C385.369 50.5145 425.269 15.1479 492.869 16.3479C560.469 17.5479 613.036 72.1812 630.869 99.3479C664.869 76.8479 743.869 78.8479 817.869 121.848C877.069 156.248 896.869 242.181 899.369 280.848C880.169 467.648 736.036 486.348 666.369 472.348C658.536 485.681 633.669 516.548 596.869 533.348C560.069 550.148 504.202 540.348 480.869 533.348C472.536 565.515 431.769 630.148 335.369 631.348C238.969 632.548 194.202 560.515 183.869 524.348C155.869 522.848 23.3691 533.348 2.86912 411.348C-13.5309 313.748 44.369 257.681 75.369 241.848Z" fill="#15A0DB"/>
<path d="M3.588 101.4C6.396 102.544 9.464 103.48 12.792 104.208C16.224 104.832 19.604 105.144 22.932 105.144C25.324 105.144 27.612 104.884 29.796 104.364C31.98 103.844 33.852 103.064 35.412 102.024C37.076 100.984 38.376 99.736 39.312 98.28C40.352 96.72 40.872 95.004 40.872 93.132C40.872 91.052 40.456 89.336 39.624 87.984C38.896 86.632 37.856 85.488 36.504 84.552C35.256 83.616 33.748 82.836 31.98 82.212C30.316 81.484 28.496 80.808 26.52 80.184L21.06 78.156C14.404 75.66 9.568 72.852 6.552 69.732C3.536 66.612 2.028 62.4 2.028 57.096C2.028 50.024 4.524 44.408 9.516 40.248C14.612 36.088 22.048 34.008 31.824 34.008C35.88 34.008 39.832 34.424 43.68 35.256C47.632 35.984 51.064 36.868 53.976 37.908C53.768 39.988 53.352 42.068 52.728 44.148C52.208 46.228 51.532 48.152 50.7 49.92C48.412 49.088 45.656 48.308 42.432 47.58C39.312 46.748 35.932 46.332 32.292 46.332C28.444 46.332 25.012 47.008 21.996 48.36C19.084 49.712 17.628 52.104 17.628 55.536C17.628 57.304 17.992 58.812 18.72 60.06C19.448 61.308 20.436 62.4 21.684 63.336C22.932 64.168 24.336 64.896 25.896 65.52C27.56 66.144 29.328 66.768 31.2 67.392L38.064 69.732C40.56 70.564 42.9 71.552 45.084 72.696C47.372 73.84 49.296 75.296 50.856 77.064C52.52 78.728 53.82 80.808 54.756 83.304C55.796 85.696 56.316 88.608 56.316 92.04C56.316 95.888 55.536 99.424 53.976 102.648C52.416 105.768 50.18 108.472 47.268 110.76C44.46 112.944 41.028 114.66 36.972 115.908C32.916 117.156 28.444 117.78 23.556 117.78C18.564 117.78 14.196 117.416 10.452 116.688C6.708 116.064 3.224 115.18 0 114.036C0.208 111.956 0.624 109.876 1.248 107.796C1.976 105.612 2.756 103.48 3.588 101.4Z" transform="translate(129.857 220.44)" fill="white"/>
<path d="M115.92 78.312C114.36 78.104 112.384 77.896 109.992 77.688C107.6 77.48 105.572 77.376 103.908 77.376C97.4602 77.376 92.5202 78.572 89.0882 80.964C85.7602 83.356 84.0962 86.996 84.0962 91.884C84.0962 95.004 84.6682 97.448 85.8122 99.216C86.9562 100.984 88.3602 102.336 90.0242 103.272C91.7922 104.208 93.7162 104.78 95.7962 104.988C97.8762 105.196 99.8522 105.3 101.724 105.3C104.116 105.3 106.56 105.196 109.056 104.988C111.656 104.676 113.944 104.26 115.92 103.74V78.312ZM115.92 63.18C115.92 57.044 114.36 52.78 111.24 50.388C108.12 47.996 103.596 46.8 97.6682 46.8C94.0282 46.8 90.5962 47.112 87.3722 47.736C84.2522 48.256 81.1842 48.984 78.1682 49.92C76.1922 46.488 75.2042 42.38 75.2042 37.596C78.7402 36.452 82.6402 35.568 86.9042 34.944C91.1682 34.32 95.2762 34.008 99.2282 34.008C109.628 34.008 117.532 36.4 122.94 41.184C128.348 45.864 131.052 53.404 131.052 63.804V113.88C127.412 114.712 122.992 115.544 117.792 116.376C112.592 117.312 107.288 117.78 101.88 117.78C96.7842 117.78 92.1562 117.312 87.9962 116.376C83.9402 115.44 80.4562 113.932 77.5442 111.852C74.7362 109.772 72.5522 107.12 70.9922 103.896C69.4322 100.672 68.6522 96.772 68.6522 92.196C68.6522 87.724 69.5362 83.824 71.3042 80.496C73.1762 77.064 75.6722 74.256 78.7922 72.072C81.9122 69.784 85.5002 68.12 89.5562 67.08C93.6122 65.936 97.8762 65.364 102.348 65.364C105.676 65.364 108.38 65.468 110.46 65.676C112.644 65.78 114.464 65.936 115.92 66.144V63.18Z" transform="translate(129.857 220.44)" fill="white"/>
<path d="M151.582 1.56C152.726 1.352 153.974 1.196 155.326 1.092C156.782 0.987997 158.082 0.935997 159.226 0.935997C160.37 0.935997 161.618 0.987997 162.97 1.092C164.426 1.196 165.726 1.352 166.87 1.56V91.728C166.87 94.64 167.13 96.928 167.65 98.592C168.17 100.256 168.846 101.556 169.678 102.492C170.614 103.324 171.654 103.896 172.798 104.208C174.046 104.416 175.346 104.52 176.698 104.52C177.634 104.52 178.674 104.468 179.818 104.364C181.066 104.26 182.106 104.104 182.938 103.896C183.874 107.536 184.342 111.488 184.342 115.752C182.886 116.272 181.118 116.584 179.038 116.688C176.958 116.896 175.034 117 173.266 117C170.25 117 167.442 116.636 164.842 115.908C162.242 115.18 159.954 113.984 157.978 112.32C156.002 110.656 154.442 108.42 153.298 105.612C152.154 102.804 151.582 99.32 151.582 95.16V1.56Z" transform="translate(129.857 220.44)" fill="white"/>
<path d="M207.563 79.716C207.771 88.452 210.007 94.848 214.271 98.904C218.639 102.96 225.035 104.988 233.459 104.988C240.843 104.988 247.863 103.688 254.519 101.088C255.351 102.648 256.027 104.572 256.547 106.86C257.067 109.044 257.379 111.228 257.483 113.412C254.051 114.868 250.255 115.96 246.095 116.688C242.039 117.416 237.515 117.78 232.523 117.78C225.243 117.78 219.003 116.792 213.803 114.816C208.603 112.736 204.287 109.876 200.855 106.236C197.527 102.492 195.083 98.124 193.523 93.132C191.963 88.036 191.183 82.472 191.183 76.44C191.183 70.512 191.911 65 193.367 59.904C194.927 54.704 197.267 50.232 200.387 46.488C203.507 42.64 207.407 39.624 212.087 37.44C216.871 35.152 222.487 34.008 228.935 34.008C234.447 34.008 239.283 34.944 243.443 36.816C247.603 38.688 251.087 41.288 253.895 44.616C256.703 47.84 258.835 51.74 260.291 56.316C261.747 60.788 262.475 65.676 262.475 70.98C262.475 72.436 262.423 73.996 262.319 75.66C262.215 77.22 262.111 78.572 262.007 79.716H207.563ZM247.187 68.172C247.187 65.26 246.771 62.504 245.939 59.904C245.211 57.2 244.067 54.86 242.507 52.884C241.051 50.908 239.127 49.348 236.735 48.204C234.447 46.956 231.691 46.332 228.467 46.332C222.123 46.332 217.235 48.256 213.803 52.104C210.475 55.952 208.447 61.308 207.719 68.172H247.187Z" transform="translate(129.857 220.44)" fill="white"/>
<path d="M278.958 101.4C281.766 102.544 284.834 103.48 288.162 104.208C291.594 104.832 294.974 105.144 298.302 105.144C300.694 105.144 302.982 104.884 305.166 104.364C307.35 103.844 309.222 103.064 310.782 102.024C312.446 100.984 313.746 99.736 314.682 98.28C315.722 96.72 316.242 95.004 316.242 93.132C316.242 91.052 315.826 89.336 314.994 87.984C314.266 86.632 313.226 85.488 311.874 84.552C310.626 83.616 309.118 82.836 307.35 82.212C305.686 81.484 303.866 80.808 301.89 80.184L296.43 78.156C289.774 75.66 284.938 72.852 281.922 69.732C278.906 66.612 277.398 62.4 277.398 57.096C277.398 50.024 279.894 44.408 284.886 40.248C289.982 36.088 297.418 34.008 307.194 34.008C311.25 34.008 315.202 34.424 319.05 35.256C323.002 35.984 326.434 36.868 329.346 37.908C329.138 39.988 328.722 42.068 328.098 44.148C327.578 46.228 326.902 48.152 326.07 49.92C323.782 49.088 321.026 48.308 317.802 47.58C314.682 46.748 311.302 46.332 307.662 46.332C303.814 46.332 300.382 47.008 297.366 48.36C294.454 49.712 292.998 52.104 292.998 55.536C292.998 57.304 293.362 58.812 294.09 60.06C294.818 61.308 295.806 62.4 297.054 63.336C298.302 64.168 299.706 64.896 301.266 65.52C302.93 66.144 304.698 66.768 306.57 67.392L313.434 69.732C315.93 70.564 318.27 71.552 320.454 72.696C322.742 73.84 324.666 75.296 326.226 77.064C327.89 78.728 329.19 80.808 330.126 83.304C331.166 85.696 331.686 88.608 331.686 92.04C331.686 95.888 330.906 99.424 329.346 102.648C327.786 105.768 325.55 108.472 322.638 110.76C319.83 112.944 316.398 114.66 312.342 115.908C308.286 117.156 303.814 117.78 298.926 117.78C293.934 117.78 289.566 117.416 285.822 116.688C282.078 116.064 278.594 115.18 275.37 114.036C275.578 111.956 275.994 109.876 276.618 107.796C277.346 105.612 278.126 103.48 278.958 101.4Z" transform="translate(129.857 220.44)" fill="white"/>
<path d="M364.147 48.204H351.199C351.199 46.124 351.303 44.148 351.511 42.276C351.823 40.3 352.395 38.168 353.227 35.88H366.175L366.955 31.356C368.723 20.852 372.155 13 377.251 7.8C382.451 2.6 389.731 0 399.091 0C401.795 0 404.135 0.208 406.111 0.624001C408.087 0.935997 409.907 1.352 411.571 1.872C410.947 4.576 410.271 6.864 409.543 8.736C408.919 10.504 408.087 12.376 407.047 14.352C405.903 13.936 404.707 13.572 403.459 13.26C402.211 12.948 400.755 12.792 399.091 12.792C396.907 12.792 394.931 13.104 393.163 13.728C391.395 14.248 389.783 15.236 388.327 16.692C386.975 18.044 385.779 19.968 384.739 22.464C383.699 24.856 382.867 27.924 382.243 31.668C382.035 32.396 381.879 33.124 381.775 33.852C381.671 34.476 381.515 35.152 381.307 35.88H400.495C400.495 38.064 400.339 40.092 400.027 41.964C399.819 43.836 399.299 45.916 398.467 48.204H379.279L367.267 116.376C366.019 123.344 364.459 129.22 362.587 134.004C360.819 138.788 358.583 142.636 355.879 145.548C353.175 148.564 350.003 150.696 346.363 151.944C342.827 153.296 338.667 153.972 333.883 153.972C331.595 153.972 329.411 153.764 327.331 153.348C325.251 153.036 323.431 152.568 321.871 151.944C322.287 149.552 322.807 147.368 323.431 145.392C324.055 143.52 324.887 141.648 325.927 139.776C326.967 140.192 328.163 140.504 329.515 140.712C330.763 141.024 332.063 141.18 333.415 141.18C335.807 141.18 337.939 140.868 339.811 140.244C341.787 139.62 343.503 138.372 344.959 136.5C346.415 134.628 347.715 131.976 348.859 128.544C350.107 125.216 351.199 120.848 352.135 115.44L364.147 48.204Z" transform="translate(129.857 220.44)" fill="white"/>
<path d="M431.529 117.78C425.289 117.78 419.829 116.74 415.149 114.66C410.469 112.476 406.569 109.512 403.449 105.768C400.329 102.024 397.989 97.604 396.429 92.508C394.973 87.412 394.245 81.9 394.245 75.972C394.245 70.044 394.973 64.532 396.429 59.436C397.989 54.34 400.329 49.92 403.449 46.176C406.569 42.432 410.469 39.468 415.149 37.284C419.829 35.1 425.289 34.008 431.529 34.008C437.769 34.008 443.229 35.1 447.909 37.284C452.589 39.468 456.489 42.432 459.609 46.176C462.729 49.92 465.017 54.34 466.473 59.436C468.033 64.532 468.813 70.044 468.813 75.972C468.813 81.9 468.033 87.412 466.473 92.508C465.017 97.604 462.729 102.024 459.609 105.768C456.489 109.512 452.589 112.476 447.909 114.66C443.229 116.74 437.769 117.78 431.529 117.78ZM431.529 105.456C438.705 105.456 444.009 102.856 447.441 97.656C450.873 92.456 452.589 85.228 452.589 75.972C452.589 66.716 450.873 59.54 447.441 54.444C444.009 49.244 438.705 46.644 431.529 46.644C424.353 46.644 419.049 49.244 415.617 54.444C412.289 59.54 410.625 66.716 410.625 75.972C410.625 85.228 412.289 92.456 415.617 97.656C419.049 102.856 424.353 105.456 431.529 105.456Z" transform="translate(129.857 220.44)" fill="white"/>
<path d="M486.776 35.88C487.92 35.672 489.012 35.516 490.052 35.412C491.092 35.308 492.184 35.256 493.328 35.256C494.472 35.256 495.616 35.308 496.76 35.412C497.904 35.516 498.944 35.672 499.88 35.88C500.192 37.44 500.504 39.52 500.816 42.12C501.128 44.616 501.284 46.748 501.284 48.516C503.468 44.98 506.328 41.912 509.864 39.312C513.504 36.712 518.132 35.412 523.748 35.412C524.58 35.412 525.412 35.464 526.244 35.568C527.18 35.568 527.96 35.62 528.584 35.724C528.792 36.66 528.948 37.648 529.052 38.688C529.156 39.728 529.208 40.82 529.208 41.964C529.208 43.212 529.104 44.512 528.896 45.864C528.792 47.216 528.636 48.516 528.428 49.764C527.596 49.556 526.712 49.452 525.776 49.452C524.944 49.452 524.268 49.452 523.748 49.452C520.94 49.452 518.236 49.868 515.636 50.7C513.14 51.428 510.852 52.78 508.772 54.756C506.796 56.732 505.184 59.436 503.936 62.868C502.792 66.3 502.22 70.72 502.22 76.128V115.908C501.076 116.116 499.776 116.272 498.32 116.376C496.968 116.48 495.72 116.532 494.576 116.532C493.432 116.532 492.132 116.48 490.676 116.376C489.324 116.272 488.024 116.116 486.776 115.908V35.88Z" transform="translate(129.857 220.44)" fill="white"/>
<path d="M593.546 102.024C594.378 103.48 595.106 105.3 595.73 107.484C596.354 109.668 596.718 111.904 596.822 114.192C590.686 116.584 583.666 117.78 575.762 117.78C562.45 117.78 552.414 114.036 545.654 106.548C538.894 98.956 535.514 88.764 535.514 75.972C535.514 70.044 536.346 64.532 538.01 59.436C539.674 54.34 542.118 49.92 545.342 46.176C548.67 42.432 552.778 39.468 557.666 37.284C562.554 35.1 568.222 34.008 574.67 34.008C579.038 34.008 582.886 34.268 586.214 34.788C589.542 35.308 592.714 36.14 595.73 37.284C595.73 39.052 595.47 41.132 594.95 43.524C594.534 45.812 593.91 47.84 593.078 49.608C587.982 47.84 582.158 46.956 575.606 46.956C567.598 46.956 561.618 49.608 557.666 54.912C553.714 60.216 551.738 67.236 551.738 75.972C551.738 85.956 553.974 93.288 558.446 97.968C562.918 102.544 569.054 104.832 576.854 104.832C579.974 104.832 582.834 104.624 585.434 104.208C588.138 103.792 590.842 103.064 593.546 102.024Z" transform="translate(129.857 220.44)" fill="white"/>
<path d="M621.609 79.716C621.817 88.452 624.053 94.848 628.317 98.904C632.685 102.96 639.081 104.988 647.505 104.988C654.889 104.988 661.909 103.688 668.565 101.088C669.397 102.648 670.073 104.572 670.593 106.86C671.113 109.044 671.425 111.228 671.529 113.412C668.097 114.868 664.301 115.96 660.141 116.688C656.085 117.416 651.561 117.78 646.569 117.78C639.289 117.78 633.049 116.792 627.849 114.816C622.649 112.736 618.333 109.876 614.901 106.236C611.573 102.492 609.129 98.124 607.569 93.132C606.009 88.036 605.229 82.472 605.229 76.44C605.229 70.512 605.957 65 607.413 59.904C608.973 54.704 611.313 50.232 614.433 46.488C617.553 42.64 621.453 39.624 626.133 37.44C630.917 35.152 636.533 34.008 642.981 34.008C648.493 34.008 653.329 34.944 657.489 36.816C661.649 38.688 665.133 41.288 667.941 44.616C670.749 47.84 672.881 51.74 674.337 56.316C675.793 60.788 676.521 65.676 676.521 70.98C676.521 72.436 676.469 73.996 676.365 75.66C676.261 77.22 676.157 78.572 676.053 79.716H621.609ZM661.233 68.172C661.233 65.26 660.817 62.504 659.985 59.904C659.257 57.2 658.113 54.86 656.553 52.884C655.097 50.908 653.173 49.348 650.781 48.204C648.493 46.956 645.737 46.332 642.513 46.332C636.169 46.332 631.281 48.256 627.849 52.104C624.521 55.952 622.493 61.308 621.765 68.172H661.233Z" transform="translate(129.857 220.44)" fill="white"/>
<path d="M85.7432 138.712C85.7432 149.968 81.5498 158.649 73.1631 164.755C64.7764 170.861 53.0055 173.914 37.8506 173.914C21.8128 173.914 9.30632 171.376 0.331055 166.3V149.306C6.1429 152.248 12.3594 154.566 18.9805 156.258C25.6751 157.95 32.1123 158.796 38.292 158.796C47.8558 158.796 55.2126 157.288 60.3623 154.271C65.512 151.182 68.0869 146.51 68.0869 140.257C68.0869 135.549 66.027 131.539 61.9072 128.229C57.861 124.844 49.9157 120.872 38.0713 116.311C26.8154 112.117 18.7965 108.476 14.0146 105.386C9.30631 102.222 5.77507 98.6543 3.4209 94.6816C1.1403 90.709 0 85.9639 0 80.4463C0 70.5882 4.00944 62.8268 12.0283 57.1621C20.0472 51.4238 31.0456 48.5547 45.0234 48.5547C58.0449 48.5547 70.7721 51.2031 83.2051 56.5L76.6943 71.3975C64.5557 66.3949 53.5573 63.8936 43.6992 63.8936C35.0182 63.8936 28.4707 65.2546 24.0566 67.9766C19.6426 70.6986 17.4355 74.4505 17.4355 79.2324C17.4355 82.4694 18.2448 85.2282 19.8633 87.5088C21.5553 89.7894 24.2406 91.9596 27.9189 94.0195C31.5973 96.0794 38.6598 99.0589 49.1064 102.958C63.4521 108.181 73.1263 113.441 78.1289 118.738C83.2051 124.035 85.7432 130.693 85.7432 138.712Z" transform="translate(980.066 172.641)" fill="#808A8F"/>
<path d="M194.545 171.707L190.904 154.492H190.021C183.988 162.07 177.956 167.219 171.923 169.941C165.964 172.59 158.497 173.914 149.522 173.914C137.53 173.914 128.114 170.824 121.272 164.645C114.504 158.465 111.12 149.674 111.12 138.271C111.12 113.846 130.652 101.045 169.716 99.8682L190.242 99.2061V91.7021C190.242 82.2119 188.182 75.223 184.062 70.7354C180.016 66.1742 173.505 63.8936 164.53 63.8936C154.451 63.8936 143.048 66.9834 130.321 73.1631L124.693 59.1484C130.652 55.9115 137.163 53.3734 144.225 51.5342C151.361 49.695 158.497 48.7754 165.633 48.7754C180.053 48.7754 190.72 51.9756 197.635 58.376C204.624 64.7764 208.119 75.0391 208.119 89.1641V171.707H194.545ZM153.164 158.796C164.567 158.796 173.505 155.669 179.979 149.416C186.526 143.163 189.8 134.408 189.8 123.152V112.228L171.482 113C156.915 113.515 146.395 115.796 139.921 119.842C133.521 123.814 130.321 130.031 130.321 138.491C130.321 145.112 132.307 150.152 136.28 153.609C140.326 157.067 145.954 158.796 153.164 158.796Z" transform="translate(980.066 172.641)" fill="#808A8F"/>
<path d="M268.808 171.707H250.489V0H268.808V171.707Z" transform="translate(980.066 172.641)" fill="#808A8F"/>
<path d="M363.264 173.914C345.387 173.914 331.262 168.47 320.889 157.582C310.59 146.694 305.44 131.576 305.44 112.228C305.44 92.7321 310.222 77.2461 319.786 65.7695C329.423 54.293 342.334 48.5547 358.519 48.5547C373.674 48.5547 385.665 53.5573 394.494 63.5625C403.322 73.4941 407.736 86.626 407.736 102.958V114.545H324.42C324.788 128.743 328.356 139.521 335.124 146.878C341.966 154.235 351.567 157.913 363.926 157.913C376.948 157.913 389.822 155.191 402.549 149.747V166.079C396.075 168.875 389.932 170.861 384.121 172.038C378.382 173.289 371.43 173.914 363.264 173.914ZM358.298 63.8936C348.587 63.8936 340.826 67.057 335.014 73.3838C329.276 79.7106 325.892 88.4652 324.862 99.6475H388.093C388.093 88.0973 385.518 79.2692 380.369 73.1631C375.219 66.9834 367.862 63.8936 358.298 63.8936Z" transform="translate(980.066 172.641)" fill="#808A8F"/>
<path d="M521.614 138.712C521.614 149.968 517.421 158.649 509.034 164.755C500.647 170.861 488.877 173.914 473.722 173.914C457.684 173.914 445.177 171.376 436.202 166.3V149.306C442.014 152.248 448.23 154.566 454.852 156.258C461.546 157.95 467.983 158.796 474.163 158.796C483.727 158.796 491.084 157.288 496.233 154.271C501.383 151.182 503.958 146.51 503.958 140.257C503.958 135.549 501.898 131.539 497.778 128.229C493.732 124.844 485.787 120.872 473.942 116.311C462.686 112.117 454.668 108.476 449.886 105.386C445.177 102.222 441.646 98.6543 439.292 94.6816C437.011 90.709 435.871 85.9639 435.871 80.4463C435.871 70.5882 439.88 62.8268 447.899 57.1621C455.918 51.4238 466.917 48.5547 480.894 48.5547C493.916 48.5547 506.643 51.2031 519.076 56.5L512.565 71.3975C500.427 66.3949 489.428 63.8936 479.57 63.8936C470.889 63.8936 464.342 65.2546 459.928 67.9766C455.514 70.6986 453.307 74.4505 453.307 79.2324C453.307 82.4694 454.116 85.2282 455.734 87.5088C457.426 89.7894 460.112 91.9596 463.79 94.0195C467.468 96.0794 474.531 99.0589 484.977 102.958C499.323 108.181 508.997 113.441 514 118.738C519.076 124.035 521.614 130.693 521.614 138.712Z" transform="translate(980.066 172.641)" fill="#808A8F"/>
<path d="M667.6 173.914C650.091 173.914 636.518 168.544 626.881 157.803C617.317 146.988 612.535 131.723 612.535 112.007C612.535 91.7757 617.391 76.1426 627.101 65.1074C636.886 54.0723 650.79 48.5547 668.814 48.5547C674.626 48.5547 680.438 49.18 686.25 50.4307C692.062 51.6813 696.623 53.1527 699.933 54.8447L694.306 70.4043C690.259 68.7858 685.845 67.4616 681.063 66.4316C676.281 65.3281 672.051 64.7764 668.373 64.7764C643.801 64.7764 631.516 80.4463 631.516 111.786C631.516 126.647 634.495 138.05 640.454 145.995C646.487 153.94 655.388 157.913 667.159 157.913C677.238 157.913 687.574 155.743 698.168 151.402V167.624C690.075 171.817 679.886 173.914 667.6 173.914Z" transform="translate(980.066 172.641)" fill="#808A8F"/>
<path d="M749.808 171.707H731.49V0H749.808V171.707Z" transform="translate(980.066 172.641)" fill="#808A8F"/>
<path d="M897.564 111.124C897.564 130.84 892.598 146.253 882.667 157.361C872.735 168.396 859.015 173.914 841.506 173.914C830.691 173.914 821.091 171.376 812.704 166.3C804.317 161.224 797.843 153.94 793.282 144.45C788.721 134.96 786.44 123.851 786.44 111.124C786.44 91.4079 791.369 76.069 801.227 65.1074C811.085 54.0723 824.769 48.5547 842.278 48.5547C859.199 48.5547 872.625 54.1826 882.556 65.4385C892.562 76.6943 897.564 91.9229 897.564 111.124ZM805.421 111.124C805.421 126.573 808.511 138.344 814.69 146.437C820.87 154.529 829.956 158.575 841.947 158.575C853.939 158.575 863.024 154.566 869.204 146.547C875.457 138.454 878.584 126.647 878.584 111.124C878.584 95.7484 875.457 84.0879 869.204 76.1426C863.024 68.1237 853.865 64.1143 841.726 64.1143C829.735 64.1143 820.686 68.0501 814.58 75.9219C808.474 83.7936 805.421 95.5277 805.421 111.124Z" transform="translate(980.066 172.641)" fill="#808A8F"/>
<path d="M951.522 50.7617V129.222C951.522 139.08 953.766 146.437 958.253 151.292C962.741 156.147 969.767 158.575 979.33 158.575C991.984 158.575 1001.22 155.118 1007.03 148.202C1012.91 141.287 1015.86 129.994 1015.86 114.324V50.7617H1034.18V171.707H1019.06L1016.41 155.485H1015.42C1011.66 161.444 1006.44 166.006 999.745 169.169C993.124 172.332 985.547 173.914 977.013 173.914C962.299 173.914 951.264 170.42 943.908 163.431C936.624 156.442 932.983 145.259 932.983 129.884V50.7617H951.522Z" transform="translate(980.066 172.641)" fill="#808A8F"/>
<path d="M1159.97 155.485H1158.98C1150.52 167.771 1137.86 173.914 1121.02 173.914C1105.2 173.914 1092.88 168.507 1084.05 157.692C1075.3 146.878 1070.92 131.502 1070.92 111.565C1070.92 91.6286 1075.33 76.1426 1084.16 65.1074C1092.99 54.0723 1105.27 48.5547 1121.02 48.5547C1137.42 48.5547 1150 54.5137 1158.76 66.4316H1160.19L1159.42 57.7139L1158.98 49.2168V0H1177.3V171.707H1162.4L1159.97 155.485ZM1123.33 158.575C1135.84 158.575 1144.89 155.191 1150.48 148.423C1156.15 141.581 1158.98 130.583 1158.98 115.428V111.565C1158.98 94.4242 1156.11 82.2119 1150.37 74.9287C1144.71 67.5719 1135.62 63.8936 1123.11 63.8936C1112.37 63.8936 1104.13 68.0869 1098.4 76.4736C1092.73 84.7868 1089.9 96.5576 1089.9 111.786C1089.9 127.235 1092.73 138.896 1098.4 146.768C1104.06 154.639 1112.37 158.575 1123.33 158.575Z" transform="translate(980.066 172.641)" fill="#808A8F"/>
</svg>
