<svg width="26" height="19" viewBox="0 0 26 19" fill="none" xmlns="http://www.w3.org/2000/svg">
<rect width="24" height="17" fill="black" fill-opacity="0" transform="translate(1 1)"/>
<path d="M6.89759 18C6.89759 18.2761 7.12145 18.5 7.39759 18.5C7.67373 18.5 7.89759 18.2761 7.89759 18H6.89759ZM4.99849 14.6219L4.82975 14.1513C4.63433 14.2213 4.50253 14.4049 4.49858 14.6124C4.49464 14.82 4.61937 15.0084 4.81199 15.0859L4.99849 14.6219ZM3.3991 14.6219L3.5856 15.0859C3.77822 15.0084 3.90295 14.82 3.89901 14.6124C3.89506 14.4049 3.76327 14.2213 3.56784 14.1513L3.3991 14.6219ZM0.5 18C0.5 18.2761 0.723858 18.5 1 18.5C1.27614 18.5 1.5 18.2761 1.5 18H0.5ZM24.7003 2.61818C24.7003 2.34203 24.4764 2.11818 24.2003 2.11818C23.9242 2.11818 23.7003 2.34203 23.7003 2.61818H24.7003ZM24.2003 14.7591V15.2591C24.4764 15.2591 24.7003 15.0352 24.7003 14.7591H24.2003ZM8.19729 14.2591C7.92115 14.2591 7.69729 14.4829 7.69729 14.7591C7.69729 15.0352 7.92115 15.2591 8.19729 15.2591V14.2591ZM4.49398 8.2818C4.49398 8.55794 4.71783 8.7818 4.99398 8.7818C5.27012 8.7818 5.49398 8.55794 5.49398 8.2818H4.49398ZM5.49398 2.61818C5.49398 2.34203 5.27012 2.11818 4.99398 2.11818C4.71783 2.11818 4.49398 2.34203 4.49398 2.61818H5.49398ZM4.19428 1V0.5C3.91813 0.5 3.69428 0.723858 3.69428 1H4.19428ZM25 1H25.5C25.5 0.723858 25.2761 0.5 25 0.5V1ZM25 2.61818V3.11818C25.2761 3.11818 25.5 2.89432 25.5 2.61818H25ZM4.19428 2.61818H3.69428C3.69428 2.89432 3.91813 3.11818 4.19428 3.11818V2.61818ZM15.0994 14.7591C15.0994 14.4829 14.8755 14.2591 14.5994 14.2591C14.3233 14.2591 14.0994 14.4829 14.0994 14.7591H15.0994ZM14.0994 16.3818C14.0994 16.658 14.3233 16.8818 14.5994 16.8818C14.8755 16.8818 15.0994 16.658 15.0994 16.3818H14.0994ZM7.27108 3.91463C6.99494 3.91463 6.77108 4.13849 6.77108 4.41463C6.77108 4.69077 6.99494 4.91463 7.27108 4.91463V3.91463ZM22.0723 4.91463C22.3484 4.91463 22.5723 4.69077 22.5723 4.41463C22.5723 4.13849 22.3484 3.91463 22.0723 3.91463V4.91463ZM9.36747 11.201C9.09133 11.201 8.86747 11.4249 8.86747 11.701C8.86747 11.9771 9.09133 12.201 9.36747 12.201V11.201ZM20.012 12.201C20.2882 12.201 20.512 11.9771 20.512 11.701C20.512 11.4249 20.2882 11.201 20.012 11.201V12.201ZM7.25301 8.77373C6.97687 8.77373 6.75301 8.99759 6.75301 9.27373C6.75301 9.54987 6.97687 9.77373 7.25301 9.77373V8.77373ZM22.0542 9.77373C22.3304 9.77373 22.5542 9.54987 22.5542 9.27373C22.5542 8.99759 22.3304 8.77373 22.0542 8.77373V9.77373ZM7.30723 6.34646C7.03109 6.34646 6.80723 6.57032 6.80723 6.84646C6.80723 7.12261 7.03109 7.34646 7.30723 7.34646V6.34646ZM22.1084 7.34646C22.3846 7.34646 22.6084 7.12261 22.6084 6.84646C22.6084 6.57032 22.3846 6.34646 22.1084 6.34646V7.34646ZM7.89759 18C7.89759 16.6084 7.20068 15.639 6.53356 15.0352C6.20047 14.7337 5.86904 14.5173 5.62086 14.3759C5.49628 14.3049 5.3913 14.2521 5.3157 14.2163C5.27786 14.1983 5.24726 14.1846 5.2251 14.175C5.21402 14.1701 5.20504 14.1663 5.19831 14.1635C5.19494 14.1621 5.19214 14.1609 5.18991 14.16C5.1888 14.1596 5.18784 14.1592 5.18702 14.1588C5.18661 14.1587 5.18623 14.1585 5.1859 14.1584C5.18573 14.1583 5.1855 14.1582 5.18542 14.1582C5.18521 14.1581 5.185 14.158 4.99849 14.6219C4.81199 15.0859 4.8118 15.0858 4.81162 15.0857C4.81157 15.0857 4.8114 15.0856 4.81131 15.0856C4.81112 15.0855 4.81097 15.0854 4.81085 15.0854C4.81061 15.0853 4.81051 15.0853 4.81055 15.0853C4.81063 15.0853 4.81127 15.0856 4.81244 15.0861C4.81479 15.087 4.81928 15.0889 4.82577 15.0918C4.83876 15.0974 4.8597 15.1068 4.88746 15.1199C4.94306 15.1463 5.02552 15.1876 5.12585 15.2448C5.3275 15.3597 5.59584 15.5352 5.86253 15.7766C6.39495 16.2585 6.89759 16.9781 6.89759 18H7.89759ZM5.16724 15.0926C6.29304 14.689 7.09789 13.6026 7.09789 12.3318H6.09789C6.09789 13.1728 5.56539 13.8875 4.82975 14.1513L5.16724 15.0926ZM7.09789 12.3318C7.09789 10.7218 5.80422 9.40454 4.1988 9.40454V10.4045C5.24096 10.4045 6.09789 11.2631 6.09789 12.3318H7.09789ZM4.1988 9.40454C2.59337 9.40454 1.2997 10.7218 1.2997 12.3318H2.2997C2.2997 11.2631 3.15663 10.4045 4.1988 10.4045V9.40454ZM1.2997 12.3318C1.2997 13.6026 2.10455 14.689 3.23035 15.0926L3.56784 14.1513C2.8322 13.8875 2.2997 13.1728 2.2997 12.3318H1.2997ZM3.3991 14.6219C3.21259 14.158 3.21238 14.1581 3.21217 14.1582C3.21209 14.1582 3.21186 14.1583 3.21169 14.1584C3.21136 14.1585 3.21098 14.1587 3.21057 14.1588C3.20975 14.1592 3.20879 14.1596 3.20768 14.16C3.20545 14.1609 3.20265 14.1621 3.19928 14.1635C3.19255 14.1663 3.18357 14.1701 3.17249 14.175C3.15033 14.1846 3.11973 14.1983 3.08189 14.2163C3.00629 14.2521 2.90132 14.3049 2.77673 14.3759C2.52856 14.5173 2.19712 14.7337 1.86403 15.0352C1.19691 15.639 0.5 16.6084 0.5 18H1.5C1.5 16.9781 2.00264 16.2585 2.53506 15.7766C2.80175 15.5352 3.07009 15.3597 3.27174 15.2448C3.37208 15.1876 3.45453 15.1463 3.51013 15.1199C3.53789 15.1068 3.55883 15.0974 3.57182 15.0918C3.57831 15.0889 3.5828 15.087 3.58515 15.0861C3.58632 15.0856 3.58696 15.0853 3.58704 15.0853C3.58708 15.0853 3.58698 15.0853 3.58674 15.0854C3.58663 15.0854 3.58647 15.0855 3.58628 15.0856C3.58619 15.0856 3.58602 15.0857 3.58597 15.0857C3.58579 15.0858 3.5856 15.0859 3.3991 14.6219ZM23.7003 2.61818V14.7591H24.7003V2.61818H23.7003ZM24.2003 14.2591H8.19729V15.2591H24.2003V14.2591ZM5.49398 8.2818V2.61818H4.49398V8.2818H5.49398ZM4.19428 1.5H25V0.5H4.19428V1.5ZM24.5 1V2.61818H25.5V1H24.5ZM25 2.11818H4.19428V3.11818H25V2.11818ZM4.69428 2.61818V1H3.69428V2.61818H4.69428ZM14.0994 14.7591V16.3818H15.0994V14.7591H14.0994ZM14.6596 16.3818C14.6596 16.4242 14.6272 16.4486 14.5994 16.4486V17.4486C15.1904 17.4486 15.6596 16.9655 15.6596 16.3818H14.6596ZM14.5994 16.4486C14.5716 16.4486 14.5392 16.4242 14.5392 16.3818H13.5392C13.5392 16.9655 14.0084 17.4486 14.5994 17.4486V16.4486ZM14.5392 16.3818C14.5392 16.3394 14.5716 16.315 14.5994 16.315V15.315C14.0084 15.315 13.5392 15.7982 13.5392 16.3818H14.5392ZM14.5994 16.315C14.6272 16.315 14.6596 16.3394 14.6596 16.3818H15.6596C15.6596 15.7982 15.1904 15.315 14.5994 15.315V16.315ZM7.27108 4.91463H22.0723V3.91463H7.27108V4.91463ZM9.36747 12.201H20.012V11.201H9.36747V12.201ZM7.25301 9.77373H22.0542V8.77373H7.25301V9.77373ZM7.30723 7.34646H22.1084V6.34646H7.30723V7.34646Z" fill="url(#paint0_linear)"/>
<defs>
<linearGradient id="paint0_linear" x1="1" y1="1" x2="1.25071" y2="18.3433" gradientUnits="userSpaceOnUse">
<stop stop-color="#F41E3D"/>
<stop offset="1" stop-color="#D5122E"/>
</linearGradient>
</defs>
</svg>
