<svg width="24" height="23" viewBox="0 0 24 23" fill="none" xmlns="http://www.w3.org/2000/svg">
<rect width="24" height="23" fill="black" fill-opacity="0"/>
<path d="M6.48649 19.1681C6.48649 18.1759 5.61081 17.3577 4.35568 17.0484C4.69555 16.8132 4.95099 16.4764 5.08482 16.0871C5.21866 15.6977 5.22391 15.2761 5.09981 14.8835C4.9757 14.491 4.72873 14.148 4.39481 13.9045C4.0609 13.661 3.65748 13.5298 3.24324 13.5298C2.82901 13.5298 2.42559 13.661 2.09167 13.9045C1.75776 14.148 1.51078 14.491 1.38668 14.8835C1.26258 15.2761 1.26783 15.6977 1.40166 16.0871C1.5355 16.4764 1.79094 16.8132 2.13081 17.0484C0.875676 17.3577 0 18.1759 0 19.1681C0 19.2962 0.0512547 19.4191 0.142489 19.5098C0.233723 19.6004 0.357462 19.6513 0.486487 19.6513H6C6.12902 19.6513 6.25276 19.6004 6.344 19.5098C6.43523 19.4191 6.48649 19.2962 6.48649 19.1681ZM3.24324 14.4971C3.43568 14.4971 3.62379 14.5538 3.7838 14.66C3.9438 14.7662 4.06851 14.9171 4.14215 15.0937C4.2158 15.2703 4.23506 15.4646 4.19752 15.6521C4.15998 15.8395 4.06731 16.0117 3.93124 16.1469C3.79517 16.282 3.6218 16.3741 3.43306 16.4114C3.24432 16.4486 3.04869 16.4295 2.8709 16.3564C2.69312 16.2832 2.54116 16.1593 2.43425 16.0004C2.32733 15.8415 2.27027 15.6547 2.27027 15.4635C2.27027 15.2072 2.37278 14.9614 2.55525 14.7802C2.73772 14.5989 2.98519 14.4971 3.24324 14.4971V14.4971ZM1.15135 18.6849C1.50162 18.221 2.33189 17.8795 3.24324 17.8795C4.15459 17.8795 4.98162 18.221 5.33514 18.6849H1.15135Z" fill="url(#paint0_linear)"/>
<path d="M21.8692 17.0484C22.2091 16.8132 22.4645 16.4764 22.5983 16.0871C22.7322 15.6977 22.7374 15.2761 22.6133 14.8835C22.4892 14.491 22.2422 14.148 21.9083 13.9045C21.5744 13.661 21.171 13.5298 20.7568 13.5298C20.3425 13.5298 19.9391 13.661 19.6052 13.9045C19.2713 14.148 19.0243 14.491 18.9002 14.8835C18.7761 15.2761 18.7813 15.6977 18.9152 16.0871C19.049 16.4764 19.3045 16.8132 19.6443 17.0484C18.3892 17.3577 17.5135 18.1759 17.5135 19.1681C17.5135 19.2962 17.5648 19.4191 17.656 19.5098C17.7472 19.6004 17.871 19.6513 18 19.6513H23.5135C23.6425 19.6513 23.7663 19.6004 23.8575 19.5098C23.9488 19.4191 24 19.2962 24 19.1681C24 18.1759 23.1243 17.3577 21.8692 17.0484ZM20.7568 14.4971C20.9492 14.4971 21.1373 14.5538 21.2973 14.66C21.4573 14.7662 21.582 14.9171 21.6557 15.0937C21.7293 15.2703 21.7486 15.4646 21.711 15.6521C21.6735 15.8395 21.5808 16.0117 21.4448 16.1469C21.3087 16.282 21.1353 16.3741 20.9466 16.4114C20.7578 16.4486 20.5622 16.4295 20.3844 16.3564C20.2066 16.2832 20.0547 16.1593 19.9478 16.0004C19.8409 15.8415 19.7838 15.6547 19.7838 15.4635C19.7838 15.2072 19.8863 14.9614 20.0688 14.7802C20.2512 14.5989 20.4987 14.4971 20.7568 14.4971V14.4971ZM18.6649 18.6849C19.0151 18.221 19.8454 17.8795 20.7568 17.8795C21.6681 17.8795 22.4951 18.221 22.8487 18.6849H18.6649Z" fill="url(#paint1_linear)"/>
<path d="M9.24325 6.12154H14.7568C14.8858 6.12154 15.0095 6.07063 15.1008 5.98001C15.192 5.88939 15.2432 5.76649 15.2432 5.63833C15.2432 4.64615 14.3676 3.82793 13.1124 3.51867C13.4523 3.28347 13.7077 2.94667 13.8416 2.5573C13.9754 2.16793 13.9807 1.7463 13.8566 1.35376C13.7325 0.961218 13.4855 0.618255 13.1516 0.374774C12.8177 0.131293 12.4142 0 12 0C11.5858 0 11.1823 0.131293 10.8484 0.374774C10.5145 0.618255 10.2675 0.961218 10.1434 1.35376C10.0193 1.7463 10.0246 2.16793 10.1584 2.5573C10.2923 2.94667 10.5477 3.28347 10.8876 3.51867C9.63244 3.82793 8.75676 4.64615 8.75676 5.63833C8.75676 5.76649 8.80801 5.88939 8.89925 5.98001C8.99048 6.07063 9.11422 6.12154 9.24325 6.12154ZM12 0.96735C12.1924 0.96735 12.3806 1.02403 12.5406 1.13022C12.7006 1.23641 12.8253 1.38734 12.8989 1.56393C12.9726 1.74052 12.9918 1.93483 12.9543 2.1223C12.9167 2.30976 12.8241 2.48196 12.688 2.61712C12.5519 2.75227 12.3786 2.84431 12.1898 2.8816C12.0011 2.91889 11.8055 2.89975 11.6277 2.82661C11.4499 2.75346 11.2979 2.62959 11.191 2.47067C11.0841 2.31174 11.027 2.1249 11.027 1.93376C11.027 1.67745 11.1295 1.43164 11.312 1.25041C11.4945 1.06917 11.742 0.96735 12 0.96735ZM12 4.34979C12.9114 4.34979 13.7384 4.69125 14.0919 5.15513H9.90811C10.2616 4.69125 11.0887 4.34979 12 4.34979Z" fill="url(#paint2_linear)"/>
<path d="M16.7027 20.7047C15.3289 21.4566 13.7924 21.8675 12.2241 21.9023C10.6559 21.937 9.10247 21.5947 7.69621 20.9044L8.79892 20.7369C8.88493 20.7241 8.9623 20.6779 9.014 20.6084C9.0657 20.5389 9.08749 20.4519 9.07459 20.3664C9.06169 20.281 9.01515 20.2042 8.9452 20.1528C8.87525 20.1015 8.78763 20.0798 8.70162 20.0926L6.64865 20.4148C6.60069 20.4221 6.555 20.44 6.51494 20.4672C6.47489 20.4945 6.4415 20.5302 6.41722 20.572C6.39295 20.6137 6.37841 20.6603 6.37468 20.7084C6.37095 20.7564 6.37812 20.8047 6.39567 20.8496L7.15135 22.7825C7.16556 22.8236 7.18801 22.8614 7.21734 22.8937C7.24666 22.926 7.28227 22.952 7.322 22.9703C7.36173 22.9885 7.40477 22.9986 7.44853 22.9999C7.49228 23.0012 7.53584 22.9936 7.57659 22.9777C7.61734 22.9619 7.65443 22.9379 7.68562 22.9074C7.71682 22.8769 7.74147 22.8405 7.7581 22.8003C7.77473 22.76 7.783 22.7169 7.78239 22.6734C7.78179 22.63 7.77233 22.5871 7.75459 22.5473L7.32324 21.452C8.83169 22.2077 10.5033 22.5854 12.1924 22.5522C13.8815 22.5191 15.5368 22.0762 17.014 21.262C17.0513 21.2408 17.084 21.2126 17.1103 21.1789C17.1366 21.1452 17.1559 21.1067 17.1672 21.0655C17.1785 21.0244 17.1815 20.9815 17.1761 20.9392C17.1707 20.8969 17.157 20.8561 17.1357 20.819C17.1144 20.782 17.0859 20.7495 17.052 20.7234C17.0181 20.6973 16.9793 20.6781 16.9379 20.6669C16.8965 20.6557 16.8532 20.6527 16.8107 20.6581C16.7681 20.6634 16.727 20.6771 16.6897 20.6982L16.7027 20.7047Z" fill="url(#paint3_linear)"/>
<path d="M1.94595 12.3807C2.03197 12.3807 2.11446 12.3467 2.17528 12.2863C2.23611 12.2259 2.27028 12.144 2.27028 12.0585C2.29437 10.4951 2.70222 8.96107 3.45843 7.58965C4.21464 6.21822 5.29637 5.05081 6.60974 4.18871L6.19784 5.23566C6.18187 5.27564 6.17399 5.31835 6.17463 5.36135C6.17528 5.40436 6.18445 5.44681 6.20161 5.4863C6.21878 5.52578 6.24361 5.56152 6.27468 5.59148C6.30575 5.62143 6.34246 5.64502 6.38271 5.66088C6.42296 5.67674 6.46596 5.68458 6.50925 5.68394C6.55255 5.68329 6.5953 5.67419 6.63505 5.65714C6.6748 5.64009 6.71079 5.61543 6.74095 5.58456C6.7711 5.5537 6.79485 5.51724 6.81082 5.47726L7.56649 3.54444C7.58404 3.49951 7.59122 3.45123 7.58749 3.40318C7.58376 3.35512 7.56922 3.30851 7.54494 3.26678C7.52067 3.22504 7.48727 3.18925 7.44722 3.16204C7.40717 3.13483 7.36148 3.1169 7.31352 3.10956L5.26055 2.78742C5.17453 2.7746 5.08691 2.79625 5.01697 2.8476C4.94702 2.89895 4.90048 2.9758 4.88757 3.06124C4.87467 3.14667 4.89647 3.2337 4.94817 3.30317C4.99987 3.37265 5.07723 3.41888 5.16325 3.43169L6.31784 3.60565C4.89673 4.52278 3.72488 5.77343 2.90583 7.24711C2.08678 8.72079 1.64572 10.3721 1.62163 12.0553C1.6212 12.0979 1.62927 12.1401 1.64538 12.1796C1.66149 12.219 1.68531 12.2549 1.71547 12.2852C1.74563 12.3154 1.78152 12.3394 1.82109 12.3558C1.86065 12.3722 1.90309 12.3807 1.94595 12.3807V12.3807Z" fill="url(#paint4_linear)"/>
<path d="M17.0205 3.96323C18.3695 4.76633 19.501 5.88397 20.3171 7.21935C21.1331 8.55473 21.6091 10.0676 21.7038 11.6269L21.0033 10.7603C20.9485 10.6967 20.871 10.6567 20.7871 10.6488C20.7032 10.6409 20.6196 10.6658 20.5538 10.7181C20.4881 10.7704 20.4454 10.8461 20.4348 10.9292C20.4243 11.0122 20.4467 11.0961 20.4973 11.163L21.7946 12.7737C21.825 12.8113 21.8635 12.8417 21.9073 12.8625C21.9511 12.8834 21.999 12.8942 22.0476 12.8942C22.0961 12.8942 22.1441 12.8834 22.1879 12.8625C22.2316 12.8417 22.2702 12.8113 22.3005 12.7737L23.5978 11.163C23.6485 11.0961 23.6709 11.0122 23.6603 10.9292C23.6498 10.8461 23.6071 10.7704 23.5413 10.7181C23.4756 10.6658 23.3919 10.6409 23.308 10.6488C23.2241 10.6567 23.1466 10.6967 23.0919 10.7603L22.3557 11.6752C22.2686 9.99646 21.7672 8.36476 20.8956 6.92385C20.0241 5.48294 18.8091 4.27704 17.3578 3.41237C17.3214 3.38387 17.2793 3.36345 17.2342 3.3525C17.1892 3.34155 17.1423 3.34032 17.0968 3.34889C17.0512 3.35745 17.008 3.37562 16.9702 3.40217C16.9323 3.42872 16.9006 3.46303 16.8772 3.50278C16.8537 3.54253 16.8392 3.58681 16.8345 3.63262C16.8298 3.67844 16.835 3.72472 16.8498 3.76836C16.8646 3.812 16.8887 3.85197 16.9204 3.88559C16.9521 3.9192 16.9907 3.94568 17.0335 3.96323H17.0205Z" fill="url(#paint5_linear)"/>
<path d="M10.6346 13.2569C10.7206 13.2569 10.8031 13.2229 10.8639 13.1625C10.9248 13.1021 10.9589 13.0202 10.9589 12.9347C10.9598 12.6608 11.0697 12.3982 11.2648 12.2045C11.4598 12.0108 11.7242 11.9015 12 11.9007C12.086 11.9007 12.1685 11.8667 12.2293 11.8063C12.2902 11.7459 12.3243 11.664 12.3243 11.5785C12.3243 11.4931 12.2902 11.4112 12.2293 11.3508C12.1685 11.2903 12.086 11.2564 12 11.2564C11.5521 11.2573 11.1228 11.4344 10.8061 11.7489C10.4894 12.0635 10.3111 12.4899 10.3103 12.9347C10.3103 13.0202 10.3444 13.1021 10.4053 13.1625C10.4661 13.2229 10.5486 13.2569 10.6346 13.2569Z" fill="url(#paint6_linear)"/>
<path d="M8.57188 12.9347C8.57242 13.4398 8.68587 13.9385 8.90405 14.3948C9.12223 14.851 9.43969 15.2535 9.83351 15.573V16.3816C9.85519 16.9383 10.0931 17.4651 10.4973 17.8513C10.9016 18.2376 11.4407 18.4534 12.0016 18.4534C12.5625 18.4534 13.1017 18.2376 13.5059 17.8513C13.9101 17.4651 14.148 16.9383 14.1697 16.3816V15.5698C14.6174 15.2063 14.9652 14.7363 15.1808 14.2034C15.3964 13.6706 15.4728 13.0922 15.403 12.5221C15.3331 11.9521 15.1192 11.4088 14.7812 10.9429C14.4431 10.477 13.992 10.1036 13.4696 9.85738C12.9472 9.61119 12.3707 9.50022 11.7935 9.53481C11.2164 9.56939 10.6575 9.7484 10.1687 10.0552C9.67991 10.362 9.2772 10.7866 8.99802 11.2895C8.71883 11.7924 8.57224 12.3572 8.57188 12.9315V12.9347ZM12 17.5671C11.6923 17.5665 11.3967 17.4479 11.1749 17.236C10.9531 17.0241 10.8223 16.7353 10.8097 16.4299H13.1903C13.1777 16.7353 13.0469 17.0241 12.8251 17.236C12.6033 17.4479 12.3077 17.5665 12 17.5671ZM12 10.48C12.5226 10.48 13.0316 10.6455 13.4529 10.9527C13.8742 11.2598 14.1859 11.6924 14.3425 12.1876C14.4992 12.6828 14.4927 13.2147 14.3239 13.706C14.1552 14.1973 13.833 14.6222 13.4043 14.9191L13.1967 15.064V15.7856H10.8032V15.0802L10.5957 14.9352C10.1655 14.6388 9.84204 14.2137 9.67239 13.7218C9.50274 13.2299 9.49582 12.697 9.65264 12.201C9.80946 11.7049 10.1218 11.2716 10.5441 10.9643C10.9664 10.657 11.4765 10.4919 12 10.4929V10.48Z" fill="url(#paint7_linear)"/>
<path d="M12.4865 8.65353V7.41009C12.4865 7.28193 12.4352 7.15903 12.344 7.06841C12.2528 6.97779 12.129 6.92688 12 6.92688C11.871 6.92688 11.7472 6.97779 11.656 7.06841C11.5648 7.15903 11.5135 7.28193 11.5135 7.41009V8.6632C11.5135 8.79135 11.5648 8.91426 11.656 9.00488C11.7472 9.09549 11.871 9.1464 12 9.1464C12.129 9.1464 12.2528 9.09549 12.344 9.00488C12.4352 8.91426 12.4865 8.79135 12.4865 8.6632V8.65353Z" fill="url(#paint8_linear)"/>
<path d="M7.64433 9.39444L8.53622 10.2803C8.62844 10.3657 8.75042 10.4121 8.87645 10.4099C9.00249 10.4077 9.12274 10.357 9.21187 10.2685C9.301 10.1799 9.35206 10.0605 9.35428 9.93532C9.35651 9.81014 9.30972 9.68899 9.22379 9.59739L8.3319 8.69863C8.23968 8.61327 8.1177 8.56681 7.99167 8.56901C7.86563 8.57122 7.74538 8.62194 7.65625 8.71047C7.56712 8.799 7.51606 8.91844 7.51384 9.04362C7.51162 9.1688 7.5584 9.28996 7.64433 9.38156V9.39444Z" fill="url(#paint9_linear)"/>
<path d="M8.07242 13.0378C8.07242 12.9096 8.02117 12.7867 7.92994 12.6961C7.8387 12.6055 7.71496 12.5546 7.58594 12.5546H6.32432C6.19529 12.5546 6.07155 12.6055 5.98032 12.6961C5.88908 12.7867 5.83783 12.9096 5.83783 13.0378C5.83783 13.166 5.88908 13.2889 5.98032 13.3795C6.07155 13.4701 6.19529 13.521 6.32432 13.521H7.58594C7.71496 13.521 7.8387 13.4701 7.92994 13.3795C8.02117 13.2889 8.07242 13.166 8.07242 13.0378Z" fill="url(#paint10_linear)"/>
<path d="M18.1622 13.0378C18.1596 12.9113 18.1072 12.7909 18.0163 12.7024C17.9253 12.6138 17.803 12.5642 17.6757 12.5643H16.4141C16.285 12.5643 16.1613 12.6152 16.0701 12.7058C15.9788 12.7964 15.9276 12.9193 15.9276 13.0475C15.9276 13.1756 15.9788 13.2985 16.0701 13.3892C16.1613 13.4798 16.285 13.5307 16.4141 13.5307H17.6757C17.7404 13.5307 17.8045 13.5179 17.8641 13.493C17.9238 13.4681 17.9779 13.4317 18.0232 13.3858C18.0685 13.3399 18.1041 13.2854 18.128 13.2257C18.1518 13.1659 18.1635 13.1021 18.1622 13.0378V13.0378Z" fill="url(#paint11_linear)"/>
<path d="M14.7762 10.2803C14.8674 10.3708 14.9911 10.4216 15.12 10.4216C15.2489 10.4216 15.3726 10.3708 15.4638 10.2803L16.3557 9.39444C16.4486 9.30388 16.5014 9.18037 16.5027 9.05109C16.5039 8.92181 16.4533 8.79734 16.3622 8.70507C16.271 8.6128 16.1466 8.56028 16.0165 8.55907C15.8863 8.55786 15.761 8.60806 15.6681 8.69863L14.7762 9.5845C14.7291 9.62958 14.6917 9.68362 14.6661 9.7434C14.6405 9.80317 14.6273 9.86746 14.6273 9.93241C14.6273 9.99736 14.6405 10.0616 14.6661 10.1214C14.6917 10.1812 14.7291 10.2352 14.7762 10.2803Z" fill="url(#paint12_linear)"/>
<defs>
<linearGradient id="paint0_linear" x1="0" y1="13.5298" x2="0.120262" y2="19.7739" gradientUnits="userSpaceOnUse">
<stop stop-color="#F41E3D"/>
<stop offset="1" stop-color="#D5122E"/>
</linearGradient>
<linearGradient id="paint1_linear" x1="17.5135" y1="13.5298" x2="17.6338" y2="19.7739" gradientUnits="userSpaceOnUse">
<stop stop-color="#F41E3D"/>
<stop offset="1" stop-color="#D5122E"/>
</linearGradient>
<linearGradient id="paint2_linear" x1="8.75676" y1="0" x2="8.87702" y2="6.24415" gradientUnits="userSpaceOnUse">
<stop stop-color="#F41E3D"/>
<stop offset="1" stop-color="#D5122E"/>
</linearGradient>
<linearGradient id="paint3_linear" x1="6.37372" y1="20.089" x2="6.39005" y2="23.0593" gradientUnits="userSpaceOnUse">
<stop stop-color="#F41E3D"/>
<stop offset="1" stop-color="#D5122E"/>
</linearGradient>
<linearGradient id="paint4_linear" x1="1.62161" y1="2.78381" x2="1.9427" y2="12.566" gradientUnits="userSpaceOnUse">
<stop stop-color="#F41E3D"/>
<stop offset="1" stop-color="#D5122E"/>
</linearGradient>
<linearGradient id="paint5_linear" x1="16.8328" y1="3.34326" x2="17.1107" y2="13.0812" gradientUnits="userSpaceOnUse">
<stop stop-color="#F41E3D"/>
<stop offset="1" stop-color="#D5122E"/>
</linearGradient>
<linearGradient id="paint6_linear" x1="10.3103" y1="11.2564" x2="10.3516" y2="13.2969" gradientUnits="userSpaceOnUse">
<stop stop-color="#F41E3D"/>
<stop offset="1" stop-color="#D5122E"/>
</linearGradient>
<linearGradient id="paint7_linear" x1="8.57188" y1="9.52863" x2="8.81364" y2="18.6291" gradientUnits="userSpaceOnUse">
<stop stop-color="#F41E3D"/>
<stop offset="1" stop-color="#D5122E"/>
</linearGradient>
<linearGradient id="paint8_linear" x1="11.5135" y1="6.92688" x2="11.6187" y2="9.1868" gradientUnits="userSpaceOnUse">
<stop stop-color="#F41E3D"/>
<stop offset="1" stop-color="#D5122E"/>
</linearGradient>
<linearGradient id="paint9_linear" x1="7.51376" y1="8.56894" x2="7.5521" y2="10.4468" gradientUnits="userSpaceOnUse">
<stop stop-color="#F41E3D"/>
<stop offset="1" stop-color="#D5122E"/>
</linearGradient>
<linearGradient id="paint10_linear" x1="5.83783" y1="12.5546" x2="5.84653" y2="13.5407" gradientUnits="userSpaceOnUse">
<stop stop-color="#F41E3D"/>
<stop offset="1" stop-color="#D5122E"/>
</linearGradient>
<linearGradient id="paint11_linear" x1="15.9276" y1="12.5643" x2="15.9363" y2="13.5503" gradientUnits="userSpaceOnUse">
<stop stop-color="#F41E3D"/>
<stop offset="1" stop-color="#D5122E"/>
</linearGradient>
<linearGradient id="paint12_linear" x1="14.6273" y1="8.55905" x2="14.6658" y2="10.4589" gradientUnits="userSpaceOnUse">
<stop stop-color="#F41E3D"/>
<stop offset="1" stop-color="#D5122E"/>
</linearGradient>
</defs>
</svg>
