<svg width="67" height="56" viewBox="0 0 67 56" fill="none" xmlns="http://www.w3.org/2000/svg">
<rect width="67" height="56" fill="black" fill-opacity="0"/>
<rect width="67" height="44" fill="black" fill-opacity="0" transform="translate(0 6)"/>
<path d="M46.697 16.1173C52.707 16.1173 57.7634 20.4756 58.7568 26.2776C63.3835 26.725 67 30.6117 67 35.3402C67 40.369 62.9095 44.4457 57.8636 44.4457H51.7727C51.2121 44.4457 50.7576 43.9928 50.7576 43.434C50.7576 42.8753 51.2121 42.4223 51.7727 42.4223H57.8636C61.7882 42.4223 64.9697 39.2515 64.9697 35.3402C64.9697 31.4288 61.7882 28.2581 57.8636 28.2581C57.3414 28.2581 56.9043 27.8632 56.8533 27.3451C56.3416 22.1459 51.9548 18.1408 46.697 18.1408C45.749 18.1408 44.8194 18.27 43.926 18.522C43.4171 18.6656 42.8829 18.3957 42.6983 17.9017C40.4962 12.011 34.8372 8.02346 28.4242 8.02346C21.4323 8.02346 15.3879 12.7602 13.6741 19.4143C13.5628 19.8468 13.18 20.1554 12.7323 20.1737C6.76372 20.4168 2.0303 25.3192 2.0303 31.2933C2.0303 37.4396 7.02979 42.4223 13.197 42.4223H15.2273C15.7879 42.4223 16.2424 42.8753 16.2424 43.434C16.2424 43.9928 15.7879 44.4457 15.2273 44.4457H13.197C5.90848 44.4457 0 38.5572 0 31.2933C0 24.4825 5.20498 18.8507 11.9063 18.2029C14.0843 11.0338 20.7502 6 28.4242 6C35.3845 6 41.561 10.1447 44.2633 16.3598C45.0583 16.1991 45.8724 16.1173 46.697 16.1173Z" fill="url(#paint0_linear)"/>
<path d="M46.6815 36.1321C47.2741 35.5774 47.6296 34.8245 47.6296 33.9528C47.6296 32.3283 46.2864 30.9811 44.6667 30.9811C43.0469 30.9811 41.7037 32.3283 41.7037 33.9528C41.7037 34.8245 42.0593 35.5774 42.6519 36.1321C40.9136 36.8453 39.6099 38.4698 39.3728 40.4113C38.5827 39.9358 37.7136 39.5792 36.8444 39.3019C38.4642 38.3509 39.5309 36.5679 39.5309 34.5472C39.5309 31.4962 37.042 29 34 29C30.958 29 28.4691 31.4962 28.4691 34.5472C28.4691 36.5679 29.5358 38.3113 31.1556 39.3019C30.2469 39.5396 29.3778 39.9358 28.6272 40.4113C28.3901 38.4698 27.0864 36.8453 25.3481 36.1321C25.9407 35.5774 26.2963 34.8245 26.2963 33.9528C26.2963 32.3283 24.9531 30.9811 23.3333 30.9811C21.7136 30.9811 20.3704 32.3283 20.3704 33.9528C20.3704 34.8245 20.7259 35.5774 21.3185 36.1321C19.3827 36.9245 18 38.866 18 41.0849C18 41.4019 18.2765 41.6792 18.5926 41.6792C18.9086 41.6792 19.1852 41.4019 19.1852 41.0849C19.1852 38.7868 21.042 36.9245 23.3333 36.9245C25.6247 36.9245 27.4815 38.7868 27.4815 41.0849C27.4815 41.1245 27.4815 41.1642 27.4815 41.2038C25.0716 43.1453 23.5309 46.0774 23.5309 49.4057C23.5309 49.7226 23.8074 50 24.1235 50C24.4395 50 24.716 49.7226 24.716 49.4057C24.716 44.2547 28.8642 40.0943 34 40.0943C39.1358 40.0943 43.284 44.2547 43.284 49.4057C43.284 49.7226 43.5605 50 43.8765 50C44.1926 50 44.4691 49.7226 44.4691 49.4057C44.4691 46.0774 42.9284 43.1057 40.5185 41.2038C40.5185 41.1642 40.5185 41.1245 40.5185 41.0849C40.5185 38.7868 42.3753 36.9245 44.6667 36.9245C46.958 36.9245 48.8148 38.7868 48.8148 41.0849C48.8148 41.4019 49.0914 41.6792 49.4074 41.6792C49.7235 41.6792 50 41.4019 50 41.0849C50 38.866 48.6173 36.9245 46.6815 36.1321ZM21.5556 33.9528C21.5556 32.9623 22.3457 32.1698 23.3333 32.1698C24.321 32.1698 25.1111 32.9623 25.1111 33.9528C25.1111 34.9434 24.321 35.7358 23.3333 35.7358C22.3457 35.7358 21.5556 34.9434 21.5556 33.9528ZM29.6543 34.5472C29.6543 32.1302 31.5901 30.1887 34 30.1887C36.4099 30.1887 38.3457 32.1302 38.3457 34.5472C38.3457 36.9642 36.4099 38.9057 34 38.9057C31.5901 38.9057 29.6543 36.9642 29.6543 34.5472ZM42.8889 33.9528C42.8889 32.9623 43.679 32.1698 44.6667 32.1698C45.6543 32.1698 46.4444 32.9623 46.4444 33.9528C46.4444 34.9434 45.6543 35.7358 44.6667 35.7358C43.679 35.7358 42.8889 34.9434 42.8889 33.9528Z" fill="url(#paint1_linear)"/>
<circle cx="17.5" cy="27.5" r="2" stroke="url(#paint2_linear)"/>
<circle cx="25.5" cy="21.5" r="2" stroke="url(#paint3_linear)"/>
<circle cx="33.5" cy="17.5" r="2" stroke="url(#paint4_linear)"/>
<circle cx="41.5" cy="21.5" r="2" stroke="url(#paint5_linear)"/>
<circle cx="48.5" cy="27.5" r="2" stroke="url(#paint6_linear)"/>
<defs>
<linearGradient id="paint0_linear" x1="0" y1="6" x2="0.459346" y2="45.225" gradientUnits="userSpaceOnUse">
<stop stop-color="#F41E3D"/>
<stop offset="1" stop-color="#D5122E"/>
</linearGradient>
<linearGradient id="paint1_linear" x1="18" y1="29" x2="18.2869" y2="50.4247" gradientUnits="userSpaceOnUse">
<stop stop-color="#F41E3D"/>
<stop offset="1" stop-color="#D5122E"/>
</linearGradient>
<linearGradient id="paint2_linear" x1="15" y1="25" x2="15.1041" y2="30.0999" gradientUnits="userSpaceOnUse">
<stop stop-color="#F41E3D"/>
<stop offset="1" stop-color="#D5122E"/>
</linearGradient>
<linearGradient id="paint3_linear" x1="23" y1="19" x2="23.1041" y2="24.0999" gradientUnits="userSpaceOnUse">
<stop stop-color="#F41E3D"/>
<stop offset="1" stop-color="#D5122E"/>
</linearGradient>
<linearGradient id="paint4_linear" x1="31" y1="15" x2="31.1041" y2="20.0999" gradientUnits="userSpaceOnUse">
<stop stop-color="#F41E3D"/>
<stop offset="1" stop-color="#D5122E"/>
</linearGradient>
<linearGradient id="paint5_linear" x1="39" y1="19" x2="39.1041" y2="24.0999" gradientUnits="userSpaceOnUse">
<stop stop-color="#F41E3D"/>
<stop offset="1" stop-color="#D5122E"/>
</linearGradient>
<linearGradient id="paint6_linear" x1="46" y1="25" x2="46.1041" y2="30.0999" gradientUnits="userSpaceOnUse">
<stop stop-color="#F41E3D"/>
<stop offset="1" stop-color="#D5122E"/>
</linearGradient>
</defs>
</svg>
