<svg width="67" height="56" viewBox="0 0 67 56" fill="none" xmlns="http://www.w3.org/2000/svg">
<rect width="67" height="56" fill="black" fill-opacity="0"/>
<rect width="67" height="47" fill="black" fill-opacity="0" transform="translate(0 5)"/>
<path d="M46.697 15.1173C52.707 15.1173 57.7634 19.4756 58.7568 25.2776C63.3835 25.725 67 29.6117 67 34.3402C67 39.369 62.9095 43.4457 57.8636 43.4457H51.7727C51.2121 43.4457 50.7576 42.9928 50.7576 42.434C50.7576 41.8753 51.2121 41.4223 51.7727 41.4223H57.8636C61.7882 41.4223 64.9697 38.2515 64.9697 34.3402C64.9697 30.4288 61.7882 27.2581 57.8636 27.2581C57.3414 27.2581 56.9043 26.8632 56.8533 26.3451C56.3416 21.1459 51.9548 17.1408 46.697 17.1408C45.749 17.1408 44.8194 17.27 43.926 17.522C43.4171 17.6656 42.8829 17.3957 42.6983 16.9017C40.4962 11.011 34.8372 7.02346 28.4242 7.02346C21.4323 7.02346 15.3879 11.7602 13.6741 18.4143C13.5628 18.8468 13.18 19.1554 12.7323 19.1737C6.76372 19.4168 2.0303 24.3192 2.0303 30.2933C2.0303 36.4396 7.02979 41.4223 13.197 41.4223H15.2273C15.7879 41.4223 16.2424 41.8753 16.2424 42.434C16.2424 42.9928 15.7879 43.4457 15.2273 43.4457H13.197C5.90848 43.4457 0 37.5572 0 30.2933C0 23.4825 5.20498 17.8507 11.9063 17.2029C14.0843 10.0338 20.7502 5 28.4242 5C35.3845 5 41.561 9.14465 44.2633 15.3598C45.0583 15.1991 45.8724 15.1173 46.697 15.1173Z" fill="url(#paint0_linear)"/>
<path d="M20.8182 30C19.2061 30 18 31.4444 18 33.0938V48.9062C18 50.5556 19.2061 52 20.8182 52H46.1818C47.7939 52 49 50.5556 49 48.9062V33.0938C49 31.4444 47.7939 30 46.1818 30H20.8182ZM20.8182 31.375H46.1818C46.9116 31.375 47.5909 32.077 47.5909 33.0938V48.9062C47.5909 49.923 46.9116 50.625 46.1818 50.625H20.8182C20.0884 50.625 19.4091 49.923 19.4091 48.9062V33.0938C19.4091 32.077 20.0884 31.375 20.8182 31.375ZM22.1612 33.4375C22.0687 33.4417 21.9779 33.4637 21.8941 33.5021C21.8102 33.5406 21.735 33.5948 21.6726 33.6616C21.6102 33.7284 21.562 33.8066 21.5306 33.8917C21.4992 33.9767 21.4852 34.0669 21.4896 34.1572C21.4939 34.2475 21.5164 34.3361 21.5558 34.4179C21.5953 34.4997 21.6508 34.5731 21.7193 34.634C21.7878 34.6948 21.8679 34.7419 21.9551 34.7725C22.0423 34.8032 22.1347 34.8168 22.2273 34.8125H44.7727C44.8661 34.8138 44.9588 34.797 45.0454 34.763C45.132 34.729 45.2109 34.6786 45.2774 34.6146C45.3439 34.5506 45.3967 34.4744 45.4327 34.3904C45.4687 34.3063 45.4873 34.2161 45.4873 34.125C45.4873 34.0339 45.4687 33.9437 45.4327 33.8596C45.3967 33.7756 45.3439 33.6994 45.2774 33.6354C45.2109 33.5714 45.132 33.521 45.0454 33.487C44.9588 33.453 44.8661 33.4362 44.7727 33.4375H22.2273C22.2053 33.4365 22.1832 33.4365 22.1612 33.4375ZM30.957 36.1768C30.8472 36.1882 30.7417 36.2246 30.649 36.2831C30.5562 36.3416 30.4789 36.4206 30.4232 36.5136C30.3675 36.6066 30.335 36.7112 30.3283 36.8187C30.3216 36.9263 30.3408 37.0339 30.3846 37.1328L35.3164 48.8203C35.3443 48.9124 35.3917 48.9977 35.4554 49.0708C35.5192 49.144 35.5979 49.2033 35.6866 49.2449C35.7753 49.2865 35.8719 49.3095 35.9702 49.3125C36.0686 49.3155 36.1664 49.2984 36.2576 49.2622C36.3487 49.226 36.4311 49.1716 36.4994 49.1025C36.5677 49.0334 36.6203 48.9511 36.6541 48.8609C36.6878 48.7707 36.7017 48.6746 36.6951 48.5788C36.6884 48.483 36.6613 48.3896 36.6154 48.3047L31.6836 36.6172C31.6322 36.4871 31.5416 36.3753 31.4236 36.2966C31.3056 36.218 31.166 36.1762 31.0231 36.1768C31.0011 36.1758 30.979 36.1758 30.957 36.1768V36.1768ZM28.5572 37.208C28.3731 37.2151 28.1993 37.2922 28.0728 37.4229L23.141 42.2354C23.0106 42.3641 22.9374 42.5378 22.9374 42.7188C22.9374 42.8997 23.0106 43.0734 23.141 43.2021L28.0728 48.0146C28.1348 48.0898 28.2124 48.1513 28.3004 48.1953C28.3885 48.2393 28.485 48.2646 28.5837 48.2698C28.6825 48.275 28.7812 48.2598 28.8736 48.2253C28.9659 48.1907 29.0498 48.1376 29.1197 48.0694C29.1896 48.0012 29.244 47.9193 29.2794 47.8292C29.3148 47.7391 29.3303 47.6428 29.3251 47.5464C29.3198 47.4501 29.2937 47.3559 29.2487 47.27C29.2036 47.1841 29.1406 47.1084 29.0636 47.0479L24.6271 42.7188L29.0636 38.3896C29.1655 38.2935 29.2353 38.1695 29.2639 38.034C29.2925 37.8985 29.2785 37.7578 29.2238 37.6301C29.1691 37.5025 29.0762 37.3939 28.9573 37.3186C28.8384 37.2433 28.6989 37.2048 28.5572 37.208V37.208ZM38.3548 37.208C38.2205 37.2208 38.0927 37.2709 37.9868 37.3524C37.8808 37.4339 37.8011 37.5434 37.757 37.6678C37.713 37.7923 37.7064 37.9265 37.7383 38.0544C37.7701 38.1824 37.8388 38.2987 37.9364 38.3896L42.3729 42.7188L37.9364 47.0479C37.8594 47.1084 37.7964 47.1841 37.7513 47.27C37.7063 47.3559 37.6802 47.4501 37.6749 47.5464C37.6697 47.6428 37.6852 47.7391 37.7206 47.8292C37.756 47.9193 37.8104 48.0012 37.8803 48.0694C37.9502 48.1376 38.0341 48.1907 38.1264 48.2253C38.2188 48.2598 38.3175 48.275 38.4163 48.2698C38.515 48.2646 38.6115 48.2393 38.6996 48.1953C38.7876 48.1513 38.8652 48.0898 38.9272 48.0146L43.859 43.2021C43.9894 43.0734 44.0626 42.8997 44.0626 42.7188C44.0626 42.5378 43.9894 42.3641 43.859 42.2354L38.9272 37.4229C38.862 37.3556 38.7835 37.3019 38.6965 37.265C38.6095 37.2281 38.5157 37.2087 38.4208 37.208C38.3988 37.207 38.3768 37.207 38.3548 37.208Z" fill="url(#paint1_linear)"/>
<defs>
<linearGradient id="paint0_linear" x1="0" y1="5" x2="0.459346" y2="44.225" gradientUnits="userSpaceOnUse">
<stop stop-color="#F41E3D"/>
<stop offset="1" stop-color="#D5122E"/>
</linearGradient>
<linearGradient id="paint1_linear" x1="18" y1="30" x2="18.3251" y2="52.4443" gradientUnits="userSpaceOnUse">
<stop stop-color="#F41E3D"/>
<stop offset="1" stop-color="#D5122E"/>
</linearGradient>
</defs>
</svg>
