<svg width="69" height="40" viewBox="0 0 69 40" fill="none" xmlns="http://www.w3.org/2000/svg">
<path fill-rule="evenodd" clip-rule="evenodd" d="M47.6492 40C50.393 40 52.9115 39.0167 54.8654 37.3832C53.4341 37.3001 51.9391 37.0862 50.4191 36.7307C48.5939 36.3039 46.8914 35.7101 45.3639 34.9958H13.3942C8.7766 34.9958 5.0105 31.2673 5.0105 26.6557C5.0105 22.0441 8.7766 18.3156 13.3942 18.3156C15.621 18.3156 17.717 19.1985 19.2889 20.7686C21.6501 23.1266 25.2186 19.5604 22.8586 17.2035C21.1228 15.5027 18.9942 14.3254 16.7018 13.7366C19.0597 8.50366 24.3651 5.00403 30.2598 5.00403C35.0626 5.00403 39.34 7.28186 42.0662 10.8067C43.3286 9.91864 44.8634 9.14124 46.5957 8.5282C42.9942 3.37799 37.0129 0 30.2597 0C21.7122 0 14.1474 5.49475 11.4292 13.4751C4.97774 14.4235 0 19.951 0 26.6558C0 34.0148 5.99292 40 13.3942 40H47.6492ZM48.4118 32.4441L51.2533 33.2687C51.5514 33.3572 51.8588 33.1848 51.9473 32.8867L58.3055 10.9813C58.3893 10.6831 58.2216 10.371 57.9235 10.2871L55.0821 9.46252C54.784 9.37866 54.4719 9.54639 54.3881 9.84454L48.0299 31.7499C47.9461 32.0481 48.1137 32.3602 48.4118 32.4441ZM47.9693 25.8799L45.9431 28.0416C45.7335 28.2698 45.3795 28.2792 45.1512 28.0649L38.439 21.7709C38.2015 21.5519 38.2015 21.1746 38.439 20.9556L45.1512 14.6663C45.3795 14.452 45.7335 14.466 45.9431 14.6896L47.9693 16.8513C48.1883 17.0796 48.1696 17.4429 47.9321 17.6526L43.7119 21.3656L47.9321 25.0786C48.1696 25.2883 48.1836 25.6517 47.9693 25.8799ZM67.8964 21.7756L61.1842 28.0695C60.9559 28.2792 60.6019 28.2698 60.3923 28.0416L58.3661 25.8799C58.1471 25.6517 58.1658 25.2883 58.4033 25.0786L62.6235 21.3656L58.4033 17.6479C58.1658 17.4383 58.1518 17.0749 58.3661 16.8466L60.3923 14.685C60.6066 14.4614 60.9606 14.452 61.1842 14.6617L67.8964 20.9603C68.1339 21.1793 68.1339 21.5566 67.8964 21.7756Z" fill="url(#paint0_linear)"/>
<defs>
<linearGradient id="paint0_linear" x2="1" gradientUnits="userSpaceOnUse" gradientTransform="translate(67.373 -0.403915) scale(68.0745 40) rotate(88.8309)">
<stop stop-color="#F41E3D"/>
<stop offset="1" stop-color="#D5122E"/>
</linearGradient>
</defs>
</svg>
