<svg width="67" height="56" viewBox="0 0 67 56" fill="none" xmlns="http://www.w3.org/2000/svg">
<rect width="67" height="56" fill="black" fill-opacity="0"/>
<rect width="67" height="49.8042" fill="black" fill-opacity="0" transform="translate(0 3)"/>
<path d="M46.697 13.1173C52.707 13.1173 57.7634 17.4756 58.7568 23.2776C63.3835 23.725 67 27.6117 67 32.3402C67 37.369 62.9095 41.4457 57.8636 41.4457H51.7727C51.2121 41.4457 50.7576 40.9928 50.7576 40.434C50.7576 39.8753 51.2121 39.4223 51.7727 39.4223H57.8636C61.7882 39.4223 64.9697 36.2515 64.9697 32.3402C64.9697 28.4288 61.7882 25.2581 57.8636 25.2581C57.3414 25.2581 56.9043 24.8632 56.8533 24.3451C56.3416 19.1459 51.9548 15.1408 46.697 15.1408C45.749 15.1408 44.8194 15.27 43.926 15.522C43.4171 15.6656 42.8829 15.3957 42.6983 14.9017C40.4962 9.01097 34.8372 5.02346 28.4242 5.02346C21.4323 5.02346 15.3879 9.76019 13.6741 16.4143C13.5628 16.8468 13.18 17.1554 12.7323 17.1737C6.76372 17.4168 2.0303 22.3192 2.0303 28.2933C2.0303 34.4396 7.02979 39.4223 13.197 39.4223H15.2273C15.7879 39.4223 16.2424 39.8753 16.2424 40.434C16.2424 40.9928 15.7879 41.4457 15.2273 41.4457H13.197C5.90848 41.4457 0 35.5572 0 28.2933C0 21.4825 5.20498 15.8507 11.9063 15.2029C14.0843 8.03381 20.7502 3 28.4242 3C35.3845 3 41.561 7.14465 44.2633 13.3598C45.0583 13.1991 45.8724 13.1173 46.697 13.1173Z" fill="url(#paint0_linear)"/>
<path d="M52.8125 47.9081L46.8578 41.9535C48.236 40.3668 49.073 38.2982 49.073 36.0365C49.073 31.0539 45.0192 27 40.0364 27C35.0535 27 31 31.0542 31 36.0367C31 41.0193 35.0535 45.073 40.0364 45.073C42.2979 45.073 44.3665 44.236 45.953 42.8578L51.9082 48.8127C52.0331 48.9376 52.1968 49 52.3606 49C52.5241 49 52.6879 48.9376 52.8125 48.8127C53.0625 48.563 53.0625 48.1579 52.8125 47.9081ZM32.2794 36.0365C32.2794 31.7592 35.7592 28.2794 40.0364 28.2794C44.3138 28.2794 47.7935 31.7594 47.7935 36.0365C47.7935 40.3136 44.3138 43.7933 40.0364 43.7933C35.7592 43.7933 32.2794 40.3136 32.2794 36.0365Z" fill="url(#paint1_linear)"/>
<path d="M35.5881 31.7074C34.7149 31.9948 33.9773 32.5915 33.5142 33.385C33.0512 34.1785 32.8948 35.1139 33.0746 36.0147L30.7037 36.8496C30.3286 36.0353 29.742 35.3362 29.0049 34.8252C28.2678 34.3141 27.4071 34.0098 26.5123 33.9439L26.3631 30.5014C26.5543 30.4694 26.7427 30.4228 26.9268 30.3622C27.8134 30.0769 28.5652 29.4781 29.0411 28.6782C29.5171 27.8783 29.6844 26.9323 29.5118 26.0178C29.3391 25.1033 28.8383 24.2833 28.1034 23.7116C27.3685 23.1399 26.4501 22.8559 25.5205 22.9129C24.5908 22.97 23.714 23.3641 23.0547 24.0213C22.3953 24.6786 21.9987 25.5537 21.9393 26.4824C21.8799 27.4111 22.1618 28.3296 22.7322 29.0653C23.3025 29.801 24.122 30.3034 25.0368 30.4782L25.186 34.03C24.4684 34.1643 23.7898 34.4567 23.1995 34.8859C22.6093 35.3152 22.1223 35.8706 21.7739 36.5117L17.3305 35.0306C17.4423 34.0976 17.2004 33.1565 16.6525 32.3928C16.1046 31.629 15.2903 31.0979 14.3701 30.904C13.4499 30.7102 12.4903 30.8676 11.6804 31.3453C10.8706 31.823 10.269 32.5863 9.99424 33.485C9.71948 34.3837 9.79142 35.3527 10.1959 36.201C10.6004 37.0494 11.3081 37.7157 12.1796 38.0688C13.0512 38.4218 14.0235 38.436 14.905 38.1086C15.7865 37.7812 16.5134 37.1358 16.9426 36.2996L21.2864 37.7475C21.116 38.4217 21.0896 39.1242 21.209 39.8093C21.3284 40.4943 21.5909 41.1465 21.9795 41.7235L20.033 43.7114C19.9083 43.6277 19.7788 43.5513 19.6451 43.4828C18.8199 43.0662 17.8706 42.9665 16.9768 43.2025C16.083 43.4385 15.3069 43.9939 14.7955 44.7634C14.2841 45.5328 14.0729 46.463 14.2019 47.3777C14.3309 48.2924 14.7912 49.128 15.4955 49.7263C16.1998 50.3246 17.0993 50.644 18.0236 50.624C18.9478 50.604 19.8326 50.246 20.5104 49.6178C21.1881 48.9896 21.6117 48.1348 21.701 47.2154C21.7902 46.296 21.5389 45.3758 20.9946 44.6292L22.8648 42.7108C23.5176 43.284 24.3088 43.6771 25.1601 43.8514C26.0114 44.0257 26.8935 43.9752 27.7193 43.7048C27.8122 43.675 27.9017 43.6352 27.9946 43.5988L29.2546 45.8617C28.4599 46.3653 27.8827 47.1478 27.6364 48.0553C27.3902 48.9628 27.4928 49.9295 27.924 50.7652C28.3553 51.6009 29.084 52.2451 29.9667 52.5709C30.8494 52.8968 31.8222 52.8807 32.6936 52.5259C33.565 52.171 34.272 51.5032 34.6754 50.6537C35.0787 49.8042 35.1493 48.8346 34.8731 47.9357C34.597 47.0369 33.9941 46.2738 33.1832 45.7968C32.3723 45.3198 31.4121 45.1633 30.4915 45.3581L29.1651 42.9427C29.898 42.3914 30.4657 41.6499 30.8065 40.7988C31.1473 39.9478 31.2482 39.0196 31.0983 38.1153L33.5587 37.2572C33.9288 37.86 34.4614 38.3465 35.0955 38.6608C35.7296 38.9751 36.4395 39.1046 37.1438 39.0343C37.8482 38.9641 38.5184 38.6969 39.0778 38.2636C39.6372 37.8302 40.063 37.2481 40.3066 36.584C40.5501 35.9199 40.6014 35.2007 40.4547 34.5088C40.3079 33.8169 39.9691 33.1803 39.4769 32.672C38.9848 32.1637 38.3592 31.8042 37.672 31.6348C36.9848 31.4654 36.2637 31.4928 35.5914 31.7141L35.5881 31.7074ZM15.7787 35.6834C15.5976 36.0409 15.3311 36.3484 15.0028 36.5786C14.6745 36.8088 14.2945 36.9546 13.8963 37.0031C13.4982 37.0516 13.0943 37.0013 12.7202 36.8566C12.3462 36.712 12.0136 36.4775 11.7518 36.1738C11.4901 35.8702 11.3073 35.5068 11.2196 35.1157C11.1319 34.7247 11.142 34.318 11.249 33.9318C11.356 33.5456 11.5566 33.1917 11.8331 32.9014C12.1095 32.6111 12.4534 32.3933 12.8341 32.2674C13.1385 32.1664 13.46 32.1267 13.7798 32.1506C14.0997 32.1745 14.4117 32.2614 14.6977 32.4065C14.9841 32.5507 15.2393 32.7498 15.4486 32.9925C15.658 33.2352 15.8174 33.5168 15.9178 33.8211C16.0182 34.1254 16.0576 34.4465 16.0337 34.7661C16.0098 35.0856 15.9232 35.3973 15.7787 35.6834V35.6834ZM18.7199 49.1386C18.2615 49.2891 17.7687 49.3006 17.3038 49.1714C16.8389 49.0422 16.4227 48.7782 16.1079 48.4128C15.7932 48.0473 15.5939 47.5968 15.5352 47.1183C15.4766 46.6397 15.5613 46.1544 15.7786 45.7239C15.9958 45.2934 16.336 44.9369 16.756 44.6995C17.176 44.4621 17.657 44.3544 18.1382 44.3901C18.6194 44.4258 19.0793 44.6032 19.4596 44.8999C19.84 45.1966 20.1237 45.5994 20.2751 46.0572C20.4773 46.6719 20.4272 47.3417 20.1356 47.9194C19.844 48.4971 19.3348 48.9356 18.7199 49.1386V49.1386ZM30.4915 46.7298C30.7959 46.6288 31.1173 46.5891 31.4372 46.613C31.7571 46.6369 32.069 46.7239 32.355 46.869C32.859 47.1232 33.2592 47.5442 33.4875 48.0601C33.7157 48.5761 33.7578 49.1552 33.6067 49.6988C33.4555 50.2423 33.1204 50.7167 32.6585 51.041C32.1965 51.3654 31.6364 51.5197 31.0733 51.4777C30.5103 51.4356 29.9793 51.1998 29.5708 50.8105C29.1622 50.4211 28.9014 49.9022 28.8328 49.3423C28.7642 48.7823 28.892 48.2159 29.1944 47.7396C29.4969 47.2632 29.9552 46.9064 30.4915 46.7298ZM24.6554 28.974C24.1514 28.7198 23.7512 28.2988 23.523 27.7828C23.2948 27.2668 23.2526 26.6877 23.4038 26.1442C23.555 25.6006 23.89 25.1263 24.352 24.8019C24.8139 24.4775 25.3741 24.3232 25.9371 24.3653C26.5001 24.4073 27.0311 24.6431 27.4397 25.0325C27.8482 25.4218 28.109 25.9407 28.1777 26.5006C28.2463 27.0606 28.1185 27.627 27.816 28.1034C27.5136 28.5797 27.0552 28.9366 26.519 29.1131C26.2146 29.2143 25.8931 29.2541 25.5732 29.2302C25.2533 29.2063 24.9414 29.1192 24.6554 28.974V28.974ZM27.3082 42.4391C26.6158 42.6674 25.8712 42.6852 25.1687 42.4904C24.4661 42.2955 23.8372 41.8968 23.3616 41.3446C22.886 40.7924 22.5851 40.1117 22.4969 39.3885C22.4088 38.6654 22.5374 37.9323 22.8664 37.2822C23.1954 36.6321 23.7101 36.0942 24.3453 35.7365C24.9805 35.3789 25.7076 35.2176 26.4346 35.2731C27.1615 35.3286 27.8557 35.5984 28.4291 36.0483C29.0026 36.4982 29.4295 37.108 29.6559 37.8005C29.9567 38.7263 29.8786 39.7335 29.4388 40.602C28.9989 41.4705 28.2329 42.1297 27.3082 42.4358V42.4391ZM38.9471 36.3825C38.6927 36.8861 38.2714 37.286 37.755 37.514C37.2386 37.742 36.659 37.7841 36.115 37.6331C35.571 37.482 35.0963 37.1472 34.7717 36.6857C34.447 36.2241 34.2926 35.6644 34.3347 35.1018C34.3768 34.5392 34.6127 34.0086 35.0024 33.6004C35.3921 33.1922 35.9114 32.9316 36.4718 32.863C37.0322 32.7945 37.599 32.9222 38.0758 33.2244C38.5525 33.5266 38.9097 33.9846 39.0864 34.5204C39.1876 34.8245 39.2274 35.1457 39.2035 35.4654C39.1796 35.785 39.0925 36.0967 38.9471 36.3825V36.3825Z" fill="url(#paint2_linear)"/>
<defs>
<linearGradient id="paint0_linear" x1="0" y1="3" x2="0.459346" y2="42.225" gradientUnits="userSpaceOnUse">
<stop stop-color="#F41E3D"/>
<stop offset="1" stop-color="#D5122E"/>
</linearGradient>
<linearGradient id="paint1_linear" x1="31" y1="27" x2="31.458" y2="49.4396" gradientUnits="userSpaceOnUse">
<stop stop-color="#F41E3D"/>
<stop offset="1" stop-color="#D5122E"/>
</linearGradient>
<linearGradient id="paint2_linear" x1="9.83004" y1="22.9058" x2="10.436" y2="53.4023" gradientUnits="userSpaceOnUse">
<stop stop-color="#F41E3D"/>
<stop offset="1" stop-color="#D5122E"/>
</linearGradient>
</defs>
</svg>
