<svg width="71" height="40" viewBox="0 0 71 40" fill="none" xmlns="http://www.w3.org/2000/svg">
<path fill-rule="evenodd" clip-rule="evenodd" d="M47.4342 40C50.7762 40 53.7826 38.5278 55.8342 36.1941C53.7907 36.436 51.6217 36.4006 49.406 36.0467C47.9523 35.8145 46.5602 35.4582 45.2472 34.9958H13.3337C8.737 34.9958 4.98788 31.2673 4.98788 26.6557C4.98788 22.0441 8.737 18.3156 13.3337 18.3156C15.5505 18.3156 17.6371 19.1985 19.2019 20.7686C21.5524 23.1266 25.1048 19.5604 22.7554 17.2035C21.0275 15.5027 18.9085 14.3254 16.6265 13.7366C18.9737 8.50366 24.2552 5.00403 30.1233 5.00403C34.2235 5.00403 37.9389 6.6792 40.6258 9.37946C42.1002 8.539 43.7282 7.84052 45.4767 7.32263C41.8389 2.8573 36.306 0 30.1232 0C21.6143 0 14.0836 5.49475 11.3777 13.4751C4.95529 14.4235 0 19.951 0 26.6558C0 34.0148 5.96588 40 13.3337 40H47.4342ZM52.4552 9.45007C60.17 9.45007 66.9413 13.576 70.572 19.7495C70.8522 20.2258 71 20.7687 71 21.3217C71 21.8747 70.8522 22.4176 70.572 22.894C66.943 29.0645 60.1732 33.1934 52.4552 33.1934C44.7405 33.1934 37.9691 29.0674 34.3384 22.894C34.0582 22.4177 33.9104 21.8748 33.9104 21.3218C33.9104 20.7687 34.0582 20.2258 34.3384 19.7495C37.9674 13.579 44.7372 9.45007 52.4552 9.45007ZM37.0013 21.3217C40.0862 26.5671 45.8515 30.0964 52.4552 30.0964C59.0589 30.0964 64.8243 26.5671 67.9091 21.3217C65.978 18.038 62.9963 15.4271 59.4163 13.9332C60.5428 15.4099 61.2125 17.2549 61.2125 19.2571C61.2125 24.1032 57.2917 28.0318 52.4552 28.0318C47.6187 28.0318 43.698 24.1032 43.698 19.2571C43.698 17.7631 44.071 16.3564 44.7283 15.1251L44.7282 15.1278C44.7282 17.1233 46.3427 18.7409 48.3342 18.7409C50.3257 18.7409 51.9401 17.1233 51.9401 15.1278C51.9401 14.149 51.551 13.2618 50.9203 12.6111C44.965 13.1103 39.8446 16.4871 37.0013 21.3217Z" fill="url(#paint0_linear)"/>
<defs>
<linearGradient id="paint0_linear" x2="1" gradientUnits="userSpaceOnUse" gradientTransform="translate(70.2683 -0.403915) scale(71 40) rotate(88.8309)">
<stop stop-color="#F41E3D"/>
<stop offset="1" stop-color="#D5122E"/>
</linearGradient>
</defs>
</svg>
