<svg width="65" height="40" viewBox="0 0 65 40" fill="none" xmlns="http://www.w3.org/2000/svg">
<path fill-rule="evenodd" clip-rule="evenodd" d="M47.4001 40C50.4716 40 53.2594 38.7547 55.2821 36.7391C54.222 36.8725 53.1183 36.9429 51.9846 36.9429C48.3264 36.9429 44.9803 36.2095 42.4073 34.9958H13.3242C8.73071 34.9958 4.98431 31.2673 4.98431 26.6557C4.98431 22.0441 8.73071 18.3156 13.3242 18.3156C15.5393 18.3156 17.6244 19.1985 19.1881 20.7686C21.5369 23.1266 25.0867 19.5604 22.7391 17.2035C21.0124 15.5027 18.8949 14.3254 16.6145 13.7366C18.9601 8.50366 24.2377 5.00403 30.1016 5.00403C32.945 5.00403 35.6033 5.81085 37.8614 7.20715C38.3501 6.84845 38.8592 6.50378 39.3879 6.17523C40.4511 5.51447 41.5369 4.95392 42.6269 4.49261C39.2112 1.68634 34.848 0 30.1015 0C21.5987 0 14.0734 5.49475 11.3695 13.4751C4.95172 14.4235 0 19.951 0 26.6558C0 34.0148 5.96158 40 13.3242 40H47.4001ZM46.4611 12.5316C47.3807 11.6045 47.3807 10.1013 46.4611 9.17419C45.5415 8.24719 44.0506 8.24719 43.131 9.17419C42.2114 10.1013 42.2114 11.6045 43.131 12.5316C44.0506 13.4587 45.5415 13.4587 46.4611 12.5316ZM57.5615 12.5316C58.481 13.4587 59.972 13.4587 60.8916 12.5316C61.8112 11.6045 61.8112 10.1013 60.8916 9.17419C59.972 8.24719 58.481 8.24719 57.5615 9.17419C56.6418 10.1013 56.6418 11.6045 57.5615 12.5316ZM53.6763 9.51855C54.5959 8.59143 54.5959 7.08826 53.6763 6.16113C52.7567 5.23401 51.2658 5.23401 50.3462 6.16113C49.4266 7.08826 49.4266 8.59143 50.3462 9.51855C51.2658 10.4456 52.7568 10.4456 53.6763 9.51855ZM43.4725 19.8059C44.3921 18.8788 44.3921 17.3756 43.4725 16.4485C42.5529 15.5214 41.062 15.5214 40.1424 16.4485C39.2228 17.3756 39.2228 18.8788 40.1424 19.8059C41.0619 20.7329 42.5529 20.733 43.4725 19.8059ZM63.8802 19.8059C64.7998 18.8788 64.7998 17.3756 63.8802 16.4485C62.9606 15.5214 61.4697 15.5214 60.5501 16.4485C59.6305 17.3756 59.6305 18.8788 60.5501 19.8059C61.4697 20.733 62.9606 20.7329 63.8802 19.8059ZM51.9012 19.4547C53.8865 19.4547 55.5034 17.828 55.5034 15.8307C55.5034 13.8334 53.8865 12.2067 51.9012 12.2067C49.9159 12.2067 48.299 13.8334 48.299 15.8307C48.299 17.828 49.9159 19.4547 51.9012 19.4547ZM41.2502 27.197C41.6677 27.827 42.4495 27.9301 43.0062 27.6006C43.6693 27.2052 45.3067 26.295 47.3166 25.5991V34.3384H56.4858V25.6031C58.4956 26.295 60.133 27.2094 60.7961 27.6046C61.3528 27.9341 62.1346 27.8229 62.5522 27.201L63.2808 26.1016C63.641 25.5579 63.5919 24.6766 62.8715 24.2441C62.3843 23.9518 61.6557 23.5441 60.7797 23.1158C59.6295 25.0143 56.7109 23.8489 57.1898 21.6703C55.5566 21.1514 53.7473 20.7726 51.9012 20.7726C49.5679 20.7726 47.2797 21.3696 45.3517 22.0986C45.3435 23.7542 43.4033 24.7054 42.1098 23.5812C41.6513 23.8282 41.2379 24.0588 40.935 24.2401C40.2145 24.6725 40.1654 25.5497 40.5256 26.0974L41.2502 27.197Z" fill="url(#paint0_linear)"/>
<defs>
<linearGradient id="paint0_linear" x2="1" gradientUnits="userSpaceOnUse" gradientTransform="translate(63.9044 -0.403915) scale(64.5699 40) rotate(88.8309)">
<stop stop-color="#F41E3D"/>
<stop offset="1" stop-color="#D5122E"/>
</linearGradient>
</defs>
</svg>
