<svg width="72" height="40" viewBox="0 0 72 40" fill="none" xmlns="http://www.w3.org/2000/svg">
<path fill-rule="evenodd" clip-rule="evenodd" d="M54.4232 37.9799C52.5874 39.2531 50.3533 40 47.947 40H13.4779C6.03038 40 0 34.0148 0 26.6558C0 19.951 5.00885 14.4235 11.5007 13.4751C14.2358 5.49475 21.8479 0 30.4488 0C36.9932 0 42.8171 3.13306 46.4756 7.96478C44.9403 8.92047 43.6145 9.98676 42.552 11.1005C39.8223 7.409 35.4147 5.00403 30.449 5.00403C24.5174 5.00403 19.1788 8.50366 16.8062 13.7366C19.1129 14.3254 21.2549 15.5027 23.0014 17.2035C25.3762 19.5604 21.7854 23.1266 19.4095 20.7686C17.8277 19.1985 15.7186 18.3156 13.4779 18.3156C8.83145 18.3156 5.04182 22.0441 5.04182 26.6557C5.04182 31.2673 8.83145 34.9958 13.4779 34.9958H46.2396C48.2126 36.1599 50.596 37.1177 53.2342 37.7308C53.6324 37.8233 54.029 37.9063 54.4232 37.9799ZM71.5886 35.6801L65.6977 29.8268C65.4318 29.5626 65.0714 29.4158 64.6932 29.4158H63.7301C65.3609 27.3433 66.3299 24.7366 66.3299 21.901C66.3299 15.1553 60.829 9.68945 54.04 9.68945C47.2509 9.68945 41.75 15.1553 41.75 21.901C41.75 28.6467 47.2509 34.1125 54.04 34.1125C56.8938 34.1125 59.5173 33.1497 61.603 31.5293V32.4863C61.603 32.862 61.7507 33.2202 62.0166 33.4843L67.9075 39.3376C68.4629 39.8895 69.3611 39.8895 69.9106 39.3376L71.5827 37.6762C72.1381 37.1243 72.1381 36.2319 71.5886 35.6801ZM54.04 29.4158C49.8625 29.4158 46.4769 26.0576 46.4769 21.901C46.4769 17.7502 49.8566 14.3862 54.04 14.3862C58.2174 14.3862 61.603 17.7444 61.603 21.901C61.603 26.0518 58.2233 29.4158 54.04 29.4158ZM29.4935 16.3732H32.4674C32.8779 16.3732 33.2109 16.0413 33.2109 15.632V12.6667C33.2109 12.2574 32.8779 11.9255 32.4674 11.9255H29.4935C29.0829 11.9255 28.75 12.2574 28.75 12.6667V15.632C28.75 16.0413 29.0829 16.3732 29.4935 16.3732ZM32.3188 17.1428H31.2835L32.1544 20.3727H33.1896L32.3188 17.1428ZM31.7435 21.3665H32.4223H33.4576H34.7174C35.1279 21.3665 35.4609 21.6984 35.4609 22.1077V25.0729C35.4609 25.4822 35.1279 25.8142 34.7174 25.8142H31.7435C31.6643 25.8142 31.588 25.8019 31.5164 25.779L31.4937 25.792L31.4784 25.7657C31.1987 25.6592 31 25.3892 31 25.0729V24.9422L30.9937 24.9313L31 24.9277V22.1077C31 21.6984 31.3329 21.3665 31.7435 21.3665ZM30.6277 26.2889L30.1277 25.4282L27.25 27.0793V28.2269L30.6277 26.2889ZM36.25 24.0253L41.3087 23.4935L41.173 22.5084L36.25 23.0259V24.0253ZM46.6711 21.9305L46.8068 22.9155L50.25 22.5536V21.5543L46.6711 21.9305ZM51.25 21.4492V19.8344C51.25 19.3085 51.6792 18.882 52.2083 18.882H56.0417C56.5708 18.882 57 19.3085 57 19.8344V23.6439C57 24.1697 56.5708 24.5963 56.0417 24.5963H52.2083C51.6792 24.5963 51.25 24.1697 51.25 23.6439V22.4485V21.4492ZM22.7435 31.0316H25.7174C26.1279 31.0316 26.4609 30.6996 26.4609 30.2903V27.3251C26.4609 26.9158 26.1279 26.5839 25.7174 26.5839H22.7435C22.3329 26.5839 22 26.9158 22 27.3251V30.2903C22 30.6996 22.3329 31.0316 22.7435 31.0316Z" fill="url(#paint0_linear)"/>
<defs>
<linearGradient id="paint0_linear" x2="1" gradientUnits="userSpaceOnUse" gradientTransform="translate(71.258 -0.403915) scale(72 40) rotate(88.8309)">
<stop stop-color="#F41E3D"/>
<stop offset="1" stop-color="#D5122E"/>
</linearGradient>
</defs>
</svg>
