<svg width="45" height="37" viewBox="0 0 45 37" fill="none" xmlns="http://www.w3.org/2000/svg">
<path d="M35.424 36.288C31.68 36.288 28.848 34.752 26.928 31.68C25.296 29.088 24.48 25.92 24.48 22.176C24.48 17.376 25.68 13.056 28.08 9.216C30.576 5.376 34.32 2.304 39.312 0L40.608 2.592C37.632 3.84 35.04 5.808 32.832 8.496C30.72 11.184 29.664 13.92 29.664 16.704C29.664 17.856 29.808 18.864 30.096 19.728C31.632 18.48 33.408 17.856 35.424 17.856C38.016 17.856 40.176 18.72 41.904 20.448C43.728 22.08 44.64 24.288 44.64 27.072C44.64 29.664 43.728 31.872 41.904 33.696C40.176 35.424 38.016 36.288 35.424 36.288ZM10.944 36.288C7.2 36.288 4.368 34.752 2.448 31.68C0.816 29.088 0 25.92 0 22.176C0 17.376 1.2 13.056 3.6 9.216C6.096 5.376 9.84 2.304 14.832 0L16.128 2.592C13.152 3.84 10.56 5.808 8.352 8.496C6.24 11.184 5.184 13.92 5.184 16.704C5.184 17.856 5.328 18.864 5.616 19.728C7.152 18.48 8.928 17.856 10.944 17.856C13.536 17.856 15.696 18.72 17.424 20.448C19.248 22.08 20.16 24.288 20.16 27.072C20.16 29.664 19.248 31.872 17.424 33.696C15.696 35.424 13.536 36.288 10.944 36.288Z" transform="translate(0.326263 0.0319824)" fill="url(#paint0_linear)"/>
<defs>
<linearGradient id="paint0_linear" x2="1" gradientUnits="userSpaceOnUse" gradientTransform="translate(44.1799 -0.366431) scale(44.64 36.288) rotate(88.8309)">
<stop stop-color="#F41E3D"/>
<stop offset="1" stop-color="#D5122E"/>
</linearGradient>
</defs>
</svg>
