<svg width="67" height="56" viewBox="0 0 67 56" fill="none" xmlns="http://www.w3.org/2000/svg">
<rect width="67" height="56" fill="black" fill-opacity="0"/>
<rect width="67" height="53" fill="black" fill-opacity="0" transform="translate(0 2)"/>
<path d="M46.697 12.1173C52.707 12.1173 57.7634 16.4756 58.7568 22.2776C63.3835 22.725 67 26.6117 67 31.3402C67 36.369 62.9095 40.4457 57.8636 40.4457H51.7727C51.2121 40.4457 50.7576 39.9928 50.7576 39.434C50.7576 38.8753 51.2121 38.4223 51.7727 38.4223H57.8636C61.7882 38.4223 64.9697 35.2515 64.9697 31.3402C64.9697 27.4288 61.7882 24.2581 57.8636 24.2581C57.3414 24.2581 56.9043 23.8632 56.8533 23.3451C56.3416 18.1459 51.9548 14.1408 46.697 14.1408C45.749 14.1408 44.8194 14.27 43.926 14.522C43.4171 14.6656 42.8829 14.3957 42.6983 13.9017C40.4962 8.01097 34.8372 4.02346 28.4242 4.02346C21.4323 4.02346 15.3879 8.76019 13.6741 15.4143C13.5628 15.8468 13.18 16.1554 12.7323 16.1737C6.76372 16.4168 2.0303 21.3192 2.0303 27.2933C2.0303 33.4396 7.02979 38.4223 13.197 38.4223H15.2273C15.7879 38.4223 16.2424 38.8753 16.2424 39.434C16.2424 39.9928 15.7879 40.4457 15.2273 40.4457H13.197C5.90848 40.4457 0 34.5572 0 27.2933C0 20.4825 5.20498 14.8507 11.9063 14.2029C14.0843 7.03381 20.7502 2 28.4242 2C35.3845 2 41.561 6.14465 44.2633 12.3598C45.0583 12.1991 45.8724 12.1173 46.697 12.1173Z" fill="url(#paint0_linear)"/>
<rect width="31" height="31" fill="black" fill-opacity="0" transform="translate(18 24)"/>
<path d="M33.5 44C35.979 44 37.9955 41.981 37.9955 39.5C37.9955 37.019 35.979 35 33.5 35C31.021 35 29.0045 37.019 29.0045 39.5C29.0045 41.981 31.021 44 33.5 44ZM33.0005 39.5C33.0005 39.2245 33.2243 39 33.5 39C33.7757 39 33.9995 39.2245 33.9995 39.5C33.9995 39.7755 33.7757 40 33.5 40C33.2243 40 33.0005 39.7755 33.0005 39.5ZM33.5 36C35.4276 36 36.9965 37.57 36.9965 39.5C36.9965 41.2595 35.6908 42.716 33.9995 42.96V40.908C34.5794 40.701 34.9985 40.151 34.9985 39.5C34.9985 38.673 34.3262 38 33.5 38C32.6738 38 32.0015 38.673 32.0015 39.5C32.0015 40.151 32.4206 40.701 33.0005 40.908V42.96C31.3092 42.716 30.0035 41.2595 30.0035 39.5C30.0035 37.57 31.5724 36 33.5 36Z" fill="url(#paint1_linear)"/>
<path d="M39.2977 36.584L38.4051 37.033C38.529 37.2795 38.6328 37.5285 38.7133 37.7725L38.8077 38.059L40.9925 38.4235V40.5765L38.8082 40.941L38.7138 41.2275C38.6333 41.4715 38.5295 41.7205 38.4056 41.967L38.2702 42.237L39.5589 44.0425L38.0379 45.5645L36.2342 44.2745L35.9645 44.4105C35.7193 44.5345 35.4705 44.6385 35.2263 44.719L34.94 44.8135L34.5749 47H32.4246L32.0604 44.8135L31.7742 44.719C31.5305 44.6385 31.2817 44.5345 31.0359 44.4105L30.7662 44.2745L28.9625 45.5645L27.1418 43.7425L26.4355 44.4495L28.8541 46.8705L30.8626 45.4345C30.966 45.481 31.0694 45.5245 31.1733 45.5645L31.5779 48H35.4211L35.8267 45.565C35.9306 45.5245 36.0339 45.4815 36.1373 45.435L38.1458 46.871L40.8636 44.1505L39.4286 42.1405C39.475 42.037 39.5185 41.933 39.5584 41.8295L41.9915 41.4235V37.5765L39.5584 37.1705C39.483 36.975 39.3956 36.7785 39.2977 36.584Z" fill="url(#paint2_linear)"/>
<path d="M25.0085 37.5765V41.4235L27.4416 41.8295C27.517 42.0255 27.6044 42.2215 27.7018 42.416L28.5944 41.967C28.4706 41.7205 28.3667 41.4715 28.2862 41.2275L28.1918 40.941L26.0075 40.5765V38.4235L28.1918 38.059L28.2862 37.7725C28.3667 37.5285 28.4706 37.2795 28.5944 37.033L28.7298 36.763L27.4411 34.9575L28.9621 33.4355L30.7658 34.7255L31.0355 34.5895C31.2807 34.4655 31.5295 34.3615 31.7738 34.281L32.06 34.1865L32.4251 32H34.5754L34.9396 34.1865L35.2258 34.281C35.4696 34.3615 35.7183 34.4655 35.9641 34.5895L36.2338 34.7255L38.0375 33.4355L39.8582 35.2575L40.5645 34.5505L38.1459 32.1295L36.1374 33.565C36.034 33.5185 35.9306 33.475 35.8267 33.435L35.4221 31H31.5789L31.1733 33.435C31.0695 33.4755 30.9661 33.5185 30.8627 33.565L28.8542 32.129L26.1364 34.85L27.5715 36.86C27.525 36.9635 27.4815 37.0675 27.4416 37.171L25.0085 37.5765Z" fill="url(#paint3_linear)"/>
<path d="M33.9995 33H33.0005V34H33.9995V33Z" fill="url(#paint4_linear)"/>
<path d="M29.2617 34.5502L28.5553 35.2573L29.2617 35.9644L29.9681 35.2573L29.2617 34.5502Z" fill="url(#paint5_linear)"/>
<path d="M28.0055 39H27.0065V40H28.0055V39Z" fill="url(#paint6_linear)"/>
<path d="M29.2614 43.0353L28.555 43.7424L29.2614 44.4495L29.9677 43.7424L29.2614 43.0353Z" fill="url(#paint7_linear)"/>
<path d="M33.9995 45H33.0005V46H33.9995V45Z" fill="url(#paint8_linear)"/>
<path d="M37.7379 43.0356L37.0315 43.7427L37.7379 44.4498L38.4443 43.7427L37.7379 43.0356Z" fill="url(#paint9_linear)"/>
<path d="M39.9935 39H38.9945V40H39.9935V39Z" fill="url(#paint10_linear)"/>
<path d="M37.7382 34.5505L37.0318 35.2576L37.7382 35.9647L38.4446 35.2576L37.7382 34.5505Z" fill="url(#paint11_linear)"/>
<path d="M48.9695 39.3785C48.9436 39.275 46.2303 29 33.5 29C20.7697 29 18.0564 39.275 18.0305 39.3785L18 39.5L18.031 39.6215C18.0564 39.725 20.7697 50 33.5 50C46.2303 50 48.9436 39.725 48.9695 39.6215L49 39.5L48.9695 39.3785ZM19.0335 39.5025C19.2947 38.6355 21.1414 33.279 27.3497 31.0125C24.7263 32.923 23.0105 36.011 23.0105 39.5C23.0105 43.0125 24.7488 46.1195 27.4026 48.027C21.1004 45.797 19.3002 40.4295 19.0335 39.5025ZM33.5 30C38.7333 30 42.9905 34.2615 42.9905 39.5C42.9905 44.7385 38.7333 49 33.5 49C28.2667 49 24.0095 44.7385 24.0095 39.5C24.0095 34.2615 28.2667 30 33.5 30ZM39.6503 47.9875C42.2737 46.077 43.9895 42.989 43.9895 39.5C43.9895 35.9875 42.2512 32.8805 39.5974 30.973C45.8996 33.203 47.6993 38.5705 47.9665 39.497C47.7053 40.3645 45.8586 45.7205 39.6503 47.9875Z" fill="url(#paint12_linear)"/>
<path d="M33.0005 52.5C33.0005 52.7755 32.7767 53 32.501 53H24.4171C24.2103 52.4195 23.6608 52 23.0105 52C22.1843 52 21.512 52.673 21.512 53.5C21.512 54.327 22.1843 55 23.0105 55C23.6608 55 24.2103 54.5805 24.4171 54H32.501C33.3272 54 33.9995 53.327 33.9995 52.5V51H33.0005V52.5ZM23.0105 54C22.7348 54 22.511 53.7755 22.511 53.5C22.511 53.2245 22.7348 53 23.0105 53C23.2862 53 23.51 53.2245 23.51 53.5C23.51 53.7755 23.2862 54 23.0105 54Z" fill="url(#paint13_linear)"/>
<path d="M23.0105 50.5C23.8367 50.5 24.509 49.827 24.509 49V48.5H23.51V49C23.51 49.2755 23.2862 49.5 23.0105 49.5H20.9206C20.7138 48.9195 20.1644 48.5 19.514 48.5C18.6878 48.5 18.0155 49.173 18.0155 50C18.0155 50.827 18.6878 51.5 19.514 51.5C20.1644 51.5 20.7138 51.0805 20.9206 50.5H23.0105ZM19.514 50.5C19.2383 50.5 19.0145 50.2755 19.0145 50C19.0145 49.7245 19.2383 49.5 19.514 49.5C19.7897 49.5 20.0135 49.7245 20.0135 50C20.0135 50.2755 19.7897 50.5 19.514 50.5Z" fill="url(#paint14_linear)"/>
<path d="M33.9995 26.5C33.9995 26.2245 34.2233 26 34.499 26H42.5829C42.7897 26.5805 43.3391 27 43.9895 27C44.8157 27 45.488 26.327 45.488 25.5C45.488 24.673 44.8157 24 43.9895 24C43.3391 24 42.7897 24.4195 42.5829 25H34.499C33.6728 25 33.0005 25.673 33.0005 26.5V28H33.9995V26.5ZM43.9895 25C44.2652 25 44.489 25.2245 44.489 25.5C44.489 25.7755 44.2652 26 43.9895 26C43.7138 26 43.49 25.7755 43.49 25.5C43.49 25.2245 43.7138 25 43.9895 25Z" fill="url(#paint15_linear)"/>
<path d="M43.9895 28.5C43.1633 28.5 42.491 29.173 42.491 30V30.5H43.49V30C43.49 29.7245 43.7138 29.5 43.9895 29.5H46.0794C46.2862 30.0805 46.8357 30.5 47.486 30.5C48.3122 30.5 48.9845 29.827 48.9845 29C48.9845 28.173 48.3122 27.5 47.486 27.5C46.8357 27.5 46.2862 27.9195 46.0794 28.5H43.9895ZM47.486 28.5C47.7617 28.5 47.9855 28.7245 47.9855 29C47.9855 29.2755 47.7617 29.5 47.486 29.5C47.2103 29.5 46.9865 29.2755 46.9865 29C46.9865 28.7245 47.2103 28.5 47.486 28.5Z" fill="url(#paint16_linear)"/>
<defs>
<linearGradient id="paint0_linear" x1="0" y1="2" x2="0.459346" y2="41.225" gradientUnits="userSpaceOnUse">
<stop stop-color="#F41E3D"/>
<stop offset="1" stop-color="#D5122E"/>
</linearGradient>
<linearGradient id="paint1_linear" x1="29.0045" y1="35" x2="29.192" y2="44.1798" gradientUnits="userSpaceOnUse">
<stop stop-color="#F41E3D"/>
<stop offset="1" stop-color="#D5122E"/>
</linearGradient>
<linearGradient id="paint2_linear" x1="26.4355" y1="36.584" x2="26.61" y2="48.2304" gradientUnits="userSpaceOnUse">
<stop stop-color="#F41E3D"/>
<stop offset="1" stop-color="#D5122E"/>
</linearGradient>
<linearGradient id="paint3_linear" x1="25.0085" y1="31" x2="25.1829" y2="42.6464" gradientUnits="userSpaceOnUse">
<stop stop-color="#F41E3D"/>
<stop offset="1" stop-color="#D5122E"/>
</linearGradient>
<linearGradient id="paint4_linear" x1="33.0005" y1="33" x2="33.0213" y2="34.02" gradientUnits="userSpaceOnUse">
<stop stop-color="#F41E3D"/>
<stop offset="1" stop-color="#D5122E"/>
</linearGradient>
<linearGradient id="paint5_linear" x1="28.5553" y1="35.2573" x2="29.2912" y2="35.963" gradientUnits="userSpaceOnUse">
<stop stop-color="#F41E3D"/>
<stop offset="1" stop-color="#D5122E"/>
</linearGradient>
<linearGradient id="paint6_linear" x1="27.0065" y1="39" x2="27.0273" y2="40.02" gradientUnits="userSpaceOnUse">
<stop stop-color="#F41E3D"/>
<stop offset="1" stop-color="#D5122E"/>
</linearGradient>
<linearGradient id="paint7_linear" x1="28.555" y1="43.7424" x2="29.2909" y2="44.4482" gradientUnits="userSpaceOnUse">
<stop stop-color="#F41E3D"/>
<stop offset="1" stop-color="#D5122E"/>
</linearGradient>
<linearGradient id="paint8_linear" x1="33.0005" y1="45" x2="33.0213" y2="46.02" gradientUnits="userSpaceOnUse">
<stop stop-color="#F41E3D"/>
<stop offset="1" stop-color="#D5122E"/>
</linearGradient>
<linearGradient id="paint9_linear" x1="37.0315" y1="43.7427" x2="37.7674" y2="44.4485" gradientUnits="userSpaceOnUse">
<stop stop-color="#F41E3D"/>
<stop offset="1" stop-color="#D5122E"/>
</linearGradient>
<linearGradient id="paint10_linear" x1="38.9945" y1="39" x2="39.0153" y2="40.02" gradientUnits="userSpaceOnUse">
<stop stop-color="#F41E3D"/>
<stop offset="1" stop-color="#D5122E"/>
</linearGradient>
<linearGradient id="paint11_linear" x1="37.0318" y1="35.2576" x2="37.7677" y2="35.9633" gradientUnits="userSpaceOnUse">
<stop stop-color="#F41E3D"/>
<stop offset="1" stop-color="#D5122E"/>
</linearGradient>
<linearGradient id="paint12_linear" x1="18" y1="29" x2="18.2962" y2="50.4245" gradientUnits="userSpaceOnUse">
<stop stop-color="#F41E3D"/>
<stop offset="1" stop-color="#D5122E"/>
</linearGradient>
<linearGradient id="paint13_linear" x1="21.512" y1="51" x2="21.5387" y2="55.0815" gradientUnits="userSpaceOnUse">
<stop stop-color="#F41E3D"/>
<stop offset="1" stop-color="#D5122E"/>
</linearGradient>
<linearGradient id="paint14_linear" x1="18.0155" y1="48.5" x2="18.0444" y2="51.561" gradientUnits="userSpaceOnUse">
<stop stop-color="#F41E3D"/>
<stop offset="1" stop-color="#D5122E"/>
</linearGradient>
<linearGradient id="paint15_linear" x1="33.0005" y1="24" x2="33.0272" y2="28.0815" gradientUnits="userSpaceOnUse">
<stop stop-color="#F41E3D"/>
<stop offset="1" stop-color="#D5122E"/>
</linearGradient>
<linearGradient id="paint16_linear" x1="42.491" y1="27.5" x2="42.5199" y2="30.561" gradientUnits="userSpaceOnUse">
<stop stop-color="#F41E3D"/>
<stop offset="1" stop-color="#D5122E"/>
</linearGradient>
</defs>
</svg>
