<svg width="71" height="43" viewBox="0 0 71 43" fill="none" xmlns="http://www.w3.org/2000/svg">
<path fill-rule="evenodd" clip-rule="evenodd" d="M50.7971 42.653C54.0952 42.653 57.088 41.3199 59.2567 39.1632C56.511 39.2593 53.5847 38.8563 50.6669 37.8917C50.1326 37.7151 49.6093 37.5231 49.0977 37.3169H14.2791C9.35641 37.3169 5.34152 33.3411 5.34152 28.4236C5.34152 23.5061 9.35641 19.5303 14.2791 19.5303C16.653 19.5303 18.8875 20.4719 20.5632 22.146C23.0804 24.6605 26.8846 20.8578 24.3687 18.3445C22.5183 16.5309 20.249 15.2755 17.8052 14.6477C20.3189 9.06763 25.9747 5.33594 32.2589 5.33594C36.7083 5.33594 40.7346 7.17017 43.6204 10.1172C44.7481 8.66559 46.0638 7.43774 47.4977 6.45844C43.6366 2.47858 38.2308 0 32.2588 0C23.1466 0 15.082 5.85919 12.1843 14.3688C5.30658 15.3801 0 21.2742 0 28.4237C0 36.2709 6.38882 42.653 14.2791 42.653H50.7971ZM43.4478 21.7239C43.4478 14.1154 49.6154 7.94775 57.2239 7.94775C64.8324 7.94775 71 14.1154 71 21.7239C71 29.3324 64.8324 35.5 57.2239 35.5C49.6154 35.5 43.4478 29.3324 43.4478 21.7239ZM66.1117 20.3035V19.9185C66.1117 19.4431 66.4972 19.0576 66.9727 19.0576H67.9965C66.9371 14.7814 63.4026 11.4823 59.002 10.7691V11.9745C59.002 12.45 58.6165 12.8355 58.141 12.8355H56.7961C56.5084 12.8355 56.2395 12.9794 56.0801 13.2188L55.6313 13.8915C55.5124 14.0698 55.3313 14.197 55.1236 14.2492L54.3209 14.4498C53.9376 14.5458 53.6687 14.8903 53.6687 15.2852V15.5296C53.6687 16.0051 54.0543 16.3906 54.5298 16.3906H59.5319C59.645 16.3906 59.757 16.4128 59.8614 16.4561C59.9659 16.4994 60.0608 16.5629 60.1407 16.6428L60.5251 17.0272C60.6868 17.1888 60.9056 17.2794 61.134 17.2794H61.6945C62.17 17.2794 62.5555 17.6649 62.5555 18.1404C62.5555 18.5109 62.3183 18.8398 61.9666 18.957L59.3386 19.833C59.122 19.9052 58.8859 19.8885 58.6815 19.7863L57.8638 19.3775C57.4427 19.1664 56.9778 19.0569 56.5067 19.0569H56.4573C55.8007 19.0571 55.1617 19.2702 54.6364 19.6641L53.1044 20.8134C52.3406 21.3867 51.8906 22.286 51.8906 23.2409V24.0219C51.8908 24.8267 52.2104 25.5986 52.7794 26.1678C53.3488 26.7366 54.1204 27.0566 54.9253 27.0566H56.3629C56.8384 27.0566 57.2239 27.4421 57.2239 27.9175V29.5779C57.2238 30.2584 57.3823 30.9296 57.6866 31.5383C57.9477 32.0604 58.4815 32.3904 59.0653 32.3904C59.3191 32.3903 59.569 32.3276 59.7927 32.2079C60.0164 32.0881 60.2072 31.9149 60.3479 31.7038L61.0717 30.6178C61.4677 30.0239 61.9341 29.48 62.4604 28.998C62.5977 28.8719 62.6904 28.7053 62.7249 28.5225L62.9637 27.2543C62.9882 27.1249 63.0421 27.0027 63.1209 26.8972L64.1619 25.5095C64.2736 25.3607 64.3341 25.179 64.3341 24.9929V24.363C64.3341 23.8875 63.9486 23.502 63.4731 23.502H63.0171C62.7293 23.502 62.4605 23.3581 62.301 23.1187L61.5656 22.0155C61.2506 21.5428 61.4706 20.9006 62.0094 20.7212L62.1566 20.6724C62.281 20.631 62.4132 20.6185 62.5432 20.6359C62.6731 20.6534 62.7974 20.7002 62.9065 20.7729L63.9181 21.4473C64.0443 21.5316 64.1906 21.5809 64.3421 21.5904C64.4937 21.5999 64.645 21.5691 64.7807 21.5011L65.6357 21.0734C65.9273 20.9279 66.1117 20.6296 66.1117 20.3035Z" fill="url(#paint0_linear)"/>
<defs>
<linearGradient id="paint0_linear" x2="1" gradientUnits="userSpaceOnUse" gradientTransform="translate(70.2683 -0.430704) scale(71 42.653) rotate(88.8309)">
<stop stop-color="#F41E3D"/>
<stop offset="1" stop-color="#D5122E"/>
</linearGradient>
</defs>
</svg>
