<svg width="71" height="43" viewBox="0 0 71 43" fill="none" xmlns="http://www.w3.org/2000/svg">
<path fill-rule="evenodd" clip-rule="evenodd" d="M50.3315 42.262C54.268 42.262 57.7657 40.3452 59.9258 37.3941C52.9848 40.9228 45.4161 40.7166 40.8918 36.9748H14.1482C9.27065 36.9748 5.29255 33.0355 5.29255 28.163C5.29255 23.2906 9.27065 19.3513 14.1482 19.3513C16.5003 19.3513 18.7143 20.2842 20.3747 21.943C22.8688 24.4344 26.6382 20.6666 24.1453 18.1763C22.3119 16.3794 20.0634 15.1354 17.642 14.5134C20.1326 8.9845 25.7366 5.28705 31.9632 5.28705C36.6995 5.28705 40.9521 7.38477 43.8393 10.6938C45.0898 9.39075 46.5839 8.38965 48.2254 7.70129C44.365 3.00372 38.5071 0 31.9631 0C22.9344 0 14.9438 5.80548 12.0726 14.2371C5.25794 15.2391 0 21.0792 0 28.1631C0 35.9383 6.33027 42.262 14.1482 42.262H50.3315ZM54.8704 19.501L62.7591 21.6148C63.4493 21.7997 63.857 22.4996 63.6734 23.1847L63.0109 25.657C62.8274 26.3421 62.1244 26.7444 61.4341 26.5594L61.0189 26.4482L60.1357 29.7447C59.8914 30.6564 58.9519 31.194 58.0332 30.9479L57.2029 30.7254C56.7157 32.5436 54.8301 33.6227 52.9981 33.1319L45.9087 31.2323L39.7184 32.8693C38.8029 33.1099 37.8574 32.5695 37.6119 31.659L35.3728 23.4076C35.1221 22.4958 35.6676 21.5599 36.5831 21.3195L41.3727 20.0523L42.0255 17.616C42.3346 16.4623 43.2355 15.5499 44.3959 15.2259L48.3023 14.1196L46.6241 20.3829C46.0762 22.4278 47.3067 24.5406 49.3671 25.0927C51.4275 25.6448 53.5496 24.4303 54.0975 22.3854L54.8704 19.501ZM68.7016 13.491L70.9407 21.7424C71.1862 22.6528 70.6472 23.5849 69.7304 23.8305L64.9408 25.0977L65.3342 23.6297C65.7606 22.0381 64.8044 20.3962 63.2007 19.9666L53.6513 17.4078L52.4368 21.9404C52.1318 23.0787 50.9557 23.7518 49.8088 23.4445C48.6618 23.1371 47.9799 21.9662 48.2849 20.8279L50.028 14.3226C50.1798 13.756 50.6126 13.3033 51.1805 13.1353L53.2075 12.5247C53.8239 12.342 54.478 12.3296 55.1008 12.4965L60.4049 13.9177L66.5951 12.2806C67.5106 12.0402 68.4561 12.5806 68.7016 13.491Z" fill="url(#paint0_linear)"/>
<defs>
<linearGradient id="paint0_linear" x2="1" gradientUnits="userSpaceOnUse" gradientTransform="translate(70.2683 -0.426756) scale(71 42.262) rotate(88.8309)">
<stop stop-color="#F41E3D"/>
<stop offset="1" stop-color="#D5122E"/>
</linearGradient>
</defs>
</svg>
