<svg width="71" height="45" viewBox="0 0 71 45" fill="none" xmlns="http://www.w3.org/2000/svg">
<path fill-rule="evenodd" clip-rule="evenodd" d="M52.9713 44.4786C57.2407 44.4786 61.0196 42.3362 63.2729 39.0682C60.504 40.1218 57.3611 40.7092 54.0319 40.6924C50.6406 40.6754 47.4492 40.0333 44.6547 38.9141H14.8902C9.7569 38.9141 5.57013 34.7681 5.57013 29.6402C5.57013 24.5122 9.7569 20.3662 14.8902 20.3662C17.3658 20.3662 19.6959 21.3481 21.4434 23.0939C24.0683 25.7161 28.0353 21.7505 25.4117 19.1297C23.4821 17.2385 21.1157 15.9293 18.5673 15.2747C21.1885 9.45575 27.0865 5.56433 33.6396 5.56433C38.9328 5.56433 43.6518 8.05365 46.6858 11.9155C46.7439 11.8984 46.8022 11.8814 46.8605 11.8647C48.1937 10.6987 49.7437 9.72614 51.4541 9.00189C47.4195 3.54669 40.9346 0 33.6395 0C24.1373 0 15.7275 6.10999 12.7058 14.9838C5.53372 16.0385 0 22.1848 0 29.6403C0 37.8233 6.66229 44.4786 14.8902 44.4786H52.9713ZM59.4751 18.4762L57.0374 17.7817C55.9551 17.4709 55.0873 16.5823 54.9459 15.4653C54.7509 13.9113 55.8722 12.5807 57.3494 12.4059V11.5512C57.3494 11.1239 57.7005 10.7742 58.1295 10.7742H58.9095C59.3386 10.7742 59.6896 11.1239 59.6896 11.5512V12.4108C60.2502 12.4788 60.7768 12.6633 61.2399 12.9692C61.5422 13.1683 61.5714 13.6054 61.313 13.8628L60.4599 14.7126C60.2795 14.8923 60.0065 14.9166 59.7725 14.8098C59.6165 14.7418 59.4458 14.7029 59.2703 14.7029H57.6712C57.4469 14.7029 57.2617 14.8875 57.2617 15.1108C57.2617 15.2905 57.3835 15.4556 57.5591 15.5042L59.9967 16.1986C61.079 16.5094 61.9468 17.3981 62.0882 18.515C62.2833 20.069 61.1619 21.3996 59.6847 21.5745V22.4291C59.6847 22.8565 59.3337 23.2061 58.9047 23.2061H58.1246C57.6956 23.2061 57.3445 22.8565 57.3445 22.4291V21.5696C56.7839 21.5016 56.2574 21.3171 55.7942 21.0111C55.4919 20.812 55.4627 20.3749 55.7211 20.1176L56.5742 19.2678C56.7546 19.0881 57.0276 19.0638 57.2617 19.1707C57.4177 19.2386 57.5883 19.2775 57.7638 19.2775H59.3629C59.5872 19.2775 59.7725 19.0929 59.7725 18.8696C59.7725 18.6899 59.6506 18.5247 59.4751 18.4762ZM68.5432 26.7075C69.1184 26.2219 69.9619 26.1879 70.5079 26.7075C71.2002 27.3679 71.1466 28.4946 70.4445 29.0822L63.4826 34.9582C62.9561 35.4001 62.3076 35.638 61.6397 35.638H45.2148C44.8101 35.638 44.4786 35.2884 44.4786 34.861V30.1991C44.4786 29.7717 44.8101 29.4221 45.2148 29.4221H47.7694L49.9097 27.5913C50.8701 26.7657 52.0743 26.3141 53.3175 26.3141H60.6841C61.5763 26.3141 62.2881 27.1591 62.137 28.1303C62.02 28.8928 61.3423 29.4221 60.6061 29.4221H57.0033C56.5986 29.4221 56.2671 29.7717 56.2671 30.1991C56.2671 30.6264 56.5986 30.9761 57.0033 30.9761H62.449C63.1218 30.9761 63.7702 30.7381 64.2919 30.2962L68.5432 26.7075Z" fill="url(#paint0_linear)"/>
<defs>
<linearGradient id="paint0_linear" x2="1" gradientUnits="userSpaceOnUse" gradientTransform="translate(70.2683 -0.449139) scale(71 44.4786) rotate(88.8309)">
<stop stop-color="#F41E3D"/>
<stop offset="1" stop-color="#D5122E"/>
</linearGradient>
</defs>
</svg>
