<svg width="71" height="43" viewBox="0 0 71 43" fill="none" xmlns="http://www.w3.org/2000/svg">
<path fill-rule="evenodd" clip-rule="evenodd" d="M50.7971 42.653C54.6739 42.653 58.1289 40.8109 60.3195 37.9545C58.9677 38.2742 57.5535 38.4891 56.0932 38.5852C52.8904 38.796 49.8326 38.4113 47.1106 37.5541C46.551 37.5034 46.0021 37.4244 45.4662 37.3169H14.2791C9.35645 37.3169 5.34149 33.3411 5.34149 28.4236C5.34149 23.5061 9.35645 19.5303 14.2791 19.5303C16.653 19.5303 18.8875 20.4719 20.5632 22.146C23.0804 24.6605 26.8846 20.8578 24.3687 18.3445C22.5183 16.5309 20.249 15.2755 17.8052 14.6477C20.3188 9.06763 25.9747 5.33594 32.2589 5.33594C36.9398 5.33594 41.1524 7.36597 44.0615 10.5862C44.3053 10.3842 44.5541 10.1854 44.808 9.99011C46.0098 9.06586 47.2587 8.27002 48.5307 7.60291C44.6337 2.95935 38.7842 0 32.2588 0C23.1466 0 15.082 5.85919 12.1843 14.3688C5.30658 15.3801 0 21.2742 0 28.4237C0 36.2709 6.38885 42.653 14.2791 42.653H50.7971ZM71 24.3731H59.8732V25.5322C59.8732 25.9162 59.5618 26.2276 59.1777 26.2276H53.1506C52.7666 26.2276 52.4553 25.9162 52.4553 25.5322V24.3731H41.3284V32.7183C41.3284 34.2546 42.5738 35.5 44.1101 35.5H68.2183C69.7546 35.5 71 34.2546 71 32.7183V24.3731ZM71 22.5186V17.8824C71 16.3461 69.7546 15.1007 68.2183 15.1007H63.5821V12.319C63.5821 10.7827 62.3367 9.53729 60.8004 9.53729H51.528C49.9917 9.53729 48.7463 10.7827 48.7463 12.319V15.1007H44.1101C42.5738 15.1007 41.3284 16.3461 41.3284 17.8824V22.5186H71ZM52.4553 13.2463H59.8732V15.1007H52.4553V13.2463Z" fill="url(#paint0_linear)"/>
<defs>
<linearGradient id="paint0_linear" x2="1" gradientUnits="userSpaceOnUse" gradientTransform="translate(70.2683 -0.430704) scale(71 42.653) rotate(88.8309)">
<stop stop-color="#F41E3D"/>
<stop offset="1" stop-color="#D5122E"/>
</linearGradient>
</defs>
</svg>
