<svg width="53" height="60" viewBox="0 0 53 60" fill="none" xmlns="http://www.w3.org/2000/svg">
<path d="M23.0549 2.06333C37.3631 4.55675 44.0382 2.77107 47.1428 0.718628C46.9287 0.495418 46.7092 0.255875 46.4844 0C43.3155 2.00345 36.6298 3.69657 22.5517 1.24126C10.5184 -0.860175 3.8969 0.0707759 0.24088 1.63869C0.149881 2.03067 0.0695875 2.4172 0 2.80373C3.46867 1.03983 10.1651 -0.190544 23.0549 2.06333Z" transform="translate(1.50952 38.8603)" fill="#95A5A6"/>
<path d="M2.89055 0C2.13045 0.462752 1.18834 0.903728 0 1.27393C0.0267644 1.57336 0.0428234 1.88912 0.058882 2.22666C1.61657 1.78024 2.7942 1.21949 3.67743 0.636965C3.40979 0.402867 3.14214 0.190545 2.89055 0Z" transform="translate(25.0302 1.54613)" fill="#95A5A6"/>
<path d="M24.2271 0.947281C24.1201 0.642409 24.0184 0.31576 23.9113 0C20.9512 2.03611 14.5652 3.87079 0.829697 1.63324C0.5567 1.83468 0.283703 2.03611 0 2.2321C0.0642346 2.24299 0.123118 2.25387 0.181999 2.26476C14.426 4.74729 21.1064 2.98884 24.2271 0.947281Z" transform="translate(15.6465 22.3046)" fill="#95A5A6"/>
<path d="M4.83901 0C3.80055 0.789401 2.26962 1.57336 0.0267644 2.12322C0.0214115 2.42809 0.0160586 2.74385 0 3.06505C2.64432 2.48253 4.36795 1.59513 5.48135 0.707739C5.26188 0.457308 5.04777 0.217766 4.83901 0Z" transform="translate(25.0997 3.35911)" fill="#95A5A6"/>
<path d="M18.248 0.947282C18.1302 0.626078 18.0124 0.31576 17.8947 0C15.7 1.86734 10.9252 3.84357 0.583464 2.9725C0.396113 3.21749 0.208762 3.45703 0 3.69658C10.861 4.77452 15.9088 2.8364 18.248 0.947282Z" transform="translate(19.8593 17.1109)" fill="#95A5A6"/>
<path d="M21.0101 2.03679C34.6224 4.41044 41.3242 2.9133 44.6163 0.991517C44.4289 0.741086 44.2416 0.479766 44.0489 0.207559C40.7301 2.10756 34.0229 3.57204 20.5069 1.21473C10.5666 -0.516513 4.31978 -0.178975 0.380055 0.871745C0.24088 1.23106 0.112411 1.59582 0 1.95513C3.86478 0.708422 10.2936 0.169452 21.0101 2.03679Z" transform="translate(2.30164 36.5459)" fill="#95A5A6"/>
<path d="M21.0689 0.95817C20.9619 0.636965 20.8548 0.310316 20.7531 0C18.2052 1.95989 12.6703 3.89256 0.701226 2.39542C0.471052 2.61863 0.24088 2.84729 0 3.05961C12.5097 4.80174 18.3497 2.93439 21.0689 0.95817Z" transform="translate(17.9429 19.6969)" fill="#95A5A6"/>
<path d="M18.5745 2.03491C31.8389 4.34867 38.5407 2.98219 41.9238 1.13663C41.7578 0.869864 41.5919 0.597658 41.4206 0.314563C38.0376 2.16013 31.3358 3.52661 18.0713 1.21285C10.0688 -0.180854 4.45895 -0.229853 0.519229 0.347226C0.331879 0.673875 0.160586 1.00597 0 1.33806C3.97184 0.586769 9.8493 0.515995 18.5745 2.03491Z" transform="translate(3.49536 34.2122)" fill="#95A5A6"/>
<path d="M0 0C0 0 0.0909993 0.408311 0.192704 1.11605C0.711934 0.930949 1.18299 0.729515 1.61122 0.522638C0.599523 0.0326649 0 0 0 0Z" transform="translate(24.6554)" fill="#95A5A6"/>
<path d="M6.73928 0C5.52952 1.05616 3.50078 2.16133 0.107058 2.77107C0.0749403 3.07594 0.0428231 3.38626 0 3.70202C3.83266 3.10316 6.03805 1.90001 7.30133 0.76218C7.11398 0.500861 6.92663 0.244986 6.73928 0Z" transform="translate(24.8749 5.34611)" fill="#95A5A6"/>
<path d="M15.7054 2.0373C28.852 4.32928 35.5538 3.00635 38.9636 1.18257C38.8138 0.910359 38.6639 0.627263 38.514 0.338724C35.1149 2.1734 28.4185 3.52355 15.2022 1.22068C9.05708 0.142735 4.31978 -0.134917 0.66911 0.0556276C0.433583 0.355056 0.208762 0.654482 0 0.959354C3.78984 0.632706 8.88043 0.850474 15.7054 2.0373Z" transform="translate(5.11218 31.8743)" fill="#95A5A6"/>
<path d="M26.015 3.33182C44.0917 6.48398 49.9906 2.80374 51.8908 0.391979C51.6392 0.299429 51.3448 0.168768 51.0183 0C48.7647 2.38454 42.5447 5.4877 25.5118 2.5152C8.45755 -0.457307 2.24286 2.6513 0 5.04128C0.00535288 5.52036 0.0214115 5.97767 0.0481759 6.40231C1.84674 3.99056 7.63321 0.13066 26.015 3.33182Z" transform="translate(1.04382 42.2574)" fill="#95A5A6"/>
<path d="M12.9112 0C11.2518 1.61691 7.74027 3.4407 0.374702 3.51147C0.256938 3.78368 0.133822 4.06133 0 4.33354C7.84197 4.40431 11.5729 2.5533 13.3287 0.898284C13.1949 0.587968 13.0503 0.293984 12.9112 0Z" transform="translate(22.7123 12.1023)" fill="#95A5A6"/>
<path d="M10.7165 0C9.23907 1.45903 6.25752 3.10316 0.289055 3.47336C0.198056 3.7619 0.101705 4.045 0 4.33354C6.43952 4.07222 9.61913 2.37365 11.1768 0.865619C11.0269 0.560747 10.8717 0.277651 10.7165 0Z" transform="translate(23.6919 9.73411)" fill="#95A5A6"/>
<path d="M28.0866 0.92006C27.9742 0.620632 27.8564 0.31576 27.744 0C24.5483 1.998 17.8519 3.65302 3.85943 1.21405C2.90126 1.04528 1.98592 0.903729 1.09734 0.773069C0.856461 0.903729 0.620934 1.04528 0.369348 1.17049C0.240879 1.23582 0.123116 1.3066 0 1.37192C1.37034 1.54614 2.82097 1.7639 4.3626 2.03611C18.1302 4.43153 24.832 2.86906 28.0866 0.92006Z" transform="translate(12.713 24.8744)" fill="#95A5A6"/>
<path d="M15.2878 0C13.3929 1.74757 9.28725 3.69113 0.471053 3.3427C0.315819 3.60402 0.165939 3.8599 0 4.11577C9.30331 4.63841 13.6552 2.71118 15.6679 0.930949C15.5394 0.620633 15.4163 0.304872 15.2878 0Z" transform="translate(21.449 14.5631)" fill="#95A5A6"/>
<path d="M32.1226 0.898286C31.9995 0.604302 31.8764 0.299428 31.7533 0C28.4559 1.91634 21.7488 3.41348 8.15244 1.04527C5.50812 0.582522 3.13679 0.277651 0.990283 0.0816622C0.647699 0.310316 0.321173 0.544415 0 0.778514C2.52121 0.947282 5.385 1.29571 8.65026 1.86734C22.0753 4.20288 28.7771 2.77652 32.1226 0.898286Z" transform="translate(9.66736 27.3786)" fill="#95A5A6"/>
<path d="M12.4401 2.01433C25.651 4.32265 32.3528 2.9725 35.7519 1.13783C35.6127 0.854732 35.4789 0.566192 35.3397 0.266764C31.9728 2.12866 25.271 3.52236 11.9369 1.19771C7.55827 0.435532 3.90225 0.076218 0.83505 0C0.545994 0.266763 0.267644 0.533526 0 0.805733C3.32414 0.794844 7.40304 1.13783 12.4401 2.01433Z" transform="translate(7.13 29.5617)" fill="#95A5A6"/>
<path d="M8.67702 0C7.34415 1.27937 4.84436 2.67852 0.192704 3.22838C0.133822 3.52236 0.0695875 3.82179 0 4.12122C5.1013 3.63124 7.78309 2.15588 9.18019 0.816622C9.01425 0.533526 8.84296 0.266763 8.67702 0Z" transform="translate(24.4092 7.47483)" fill="#95A5A6"/>
<path d="M24.7143 2.50975C40.3018 5.23182 46.827 2.86362 49.5516 0.615188C49.3107 0.435531 49.0538 0.228654 48.7915 0C45.917 2.1831 39.3223 4.32265 24.2111 1.68768C9.88142 -0.811178 3.20638 0.985389 0.107058 3.03783C0.0588817 3.47336 0.0214115 3.89256 0 4.30087C2.7942 2.08511 9.36219 -0.16877 24.7143 2.50975Z" transform="translate(1.09216 40.7494)" fill="#95A5A6"/>
<path d="M0 2.95489C0 2.95489 5.24582 -3.39298 25.9615 2.51936C46.6771 8.4317 51.923 2.08927 51.923 2.08927C51.923 2.08927 58.4909 7.97984 39.1884 26.5716C19.8806 45.1579 26.4486 51.0485 26.4486 51.0485C26.4486 51.0485 9.68336 44.4338 13.227 27.0017C16.7706 9.56953 0 2.95489 0 2.95489Z" transform="translate(0 8.95154)" fill="white"/>
<path d="M0 2.84894C0 2.84894 4.97818 -3.27573 24.6393 2.43518C44.3004 8.15153 49.2786 2.02687 49.2786 2.02687C49.2786 2.02687 55.5094 7.716 37.1972 25.6545C18.8796 43.5929 25.1104 49.2766 25.1104 49.2766C25.1104 49.2766 9.19625 42.8906 12.5579 26.0628C15.9141 9.23492 0 2.84894 0 2.84894Z" transform="translate(1.27393 9.66167)" fill="url(#paint0_linear)"/>
<defs>
<linearGradient id="paint0_linear" x2="1" gradientUnits="userSpaceOnUse" gradientTransform="translate(49.7819 -0.497589) scale(50.3003 49.2766) rotate(88.8309)">
<stop stop-color="#F41E3D"/>
<stop offset="1" stop-color="#D5122E"/>
</linearGradient>
</defs>
</svg>
