<svg xmlns="http://www.w3.org/2000/svg" viewBox="0 0 487.92 401.54"><defs><style>.cls-1{fill:#bfbfbf;}.cls-2{fill:#022a35;}.cls-10,.cls-3{fill:#936151;}.cls-4{fill:#f2e9c2;}.cls-5{fill:#e0d5a6;}.cls-6{fill:#1d434c;}.cls-7{fill:#163338;opacity:0.6;}.cls-8{fill:#ba826e;}.cls-9{fill:#133338;}.cls-10,.cls-17,.cls-22{opacity:0.5;}.cls-11{fill:#4c463f;}.cls-12{fill:#eee7de;}.cls-13{fill:#3f3932;}.cls-14,.cls-17{fill:#d3927a;}.cls-15{fill:#e8ae97;}.cls-16{fill:#6d1616;}.cls-18{fill:#79766e;}.cls-19{fill:#635f56;}.cls-20{fill:#d3a597;}.cls-21{fill:#ffd8c5;}.cls-22,.cls-23{fill:#dbad9e;}.cls-24{fill:#845b4a;}.cls-25{fill:#704b3e;}.cls-26{fill:#bc9084;}.cls-27{fill:#dddabc;}.cls-28{fill:#afaea3;}.cls-29{fill:#113144;}.cls-30{fill:#05121c;opacity:0.2;}.cls-31{fill:#edc1b0;}.cls-32{opacity:0.1;}</style></defs><title>img_close_opo_1</title><g id="Camada_2" data-name="Camada 2"><g id="objects"><ellipse class="cls-1" cx="250.36" cy="397.42" rx="237.57" ry="4.12"/><polygon class="cls-2" points="411.03 256.87 425.15 396.54 393.99 396.54 378.45 304.11 371.73 305.07 361.28 396.54 330.35 396.54 339.29 265.74 411.03 256.87"/><polygon class="cls-3" points="383.7 114.66 383.7 137.97 362.62 137.97 362.62 112.86 383.7 114.66"/><path class="cls-4" d="M401.33,135.63c-39.62-4.62-72.48,5.1-72.45,5.51-5.66,4.77-38.41,32.92-54.69,59.41,0,0,9.63,34.61,37.65,60.38l12.61-13.44s-23.23-36.67-23.88-46.94l31.29-26.62c3.27,36.22,10.45,86.54,10.45,88.74,0,1.84,21.61,4.15,40.63,2.86a134.64,134.64,0,0,0,29.64-5.66L412,186.18C410.59,185,415.33,148.53,401.33,135.63Z"/><path class="cls-5" d="M378.68,203.7c-22.49-13.83-44.28-31.22-55.24-55.94-.2-.47-.38-.94-.55-1.42-11.7,10.38-35.56,32.83-48.7,54.21,0,0,9.63,34.61,37.65,60.38l12.61-13.44s-23.23-36.67-23.88-46.94l31.29-26.62c3.27,36.22,10.45,86.54,10.45,88.74,0,1.84,21.61,4.15,40.63,2.86a134.64,134.64,0,0,0,29.64-5.66l-.33-43.16C400.27,215.54,388.83,209.94,378.68,203.7Z"/><path class="cls-6" d="M354,136c-15.32,1.93-29.35,6.27-29.33,6.5-5.66,4.77-34.16,31.57-50.44,58.06,0,0,4.59,29.69,32.61,55.45l14.38-13.78s-20-31.4-20.61-41.67l28.75-19.9c-2.25,30.91-2.91,99.62-2.91,101.83l36.1,4.65-8.46-150.41"/><path class="cls-4" d="M441.29,154.64q-1.25,12.65-2,25.34c-.14,2.44-.22,4.89-.32,7.34l15.54,13.23c-.65,10.27-29.44,47.63-29.44,47.63l12.47,11.4c28-25.77,38.31-57.49,38.31-57.49C465.58,185.33,453.74,166.38,441.29,154.64Z"/><path class="cls-6" d="M430.48,142.49l-33.42-8.1-5.15,152.74,30.51-6.31c0-2.21,2.49-53.8,1.66-101.16L453,202.6c-7.78,10.29-27.91,39.62-27.91,39.62l19.06,12.34c17.68-19.47,36.76-54,36.76-54C464.64,174.06,436.14,147.26,430.48,142.49Z"/><path class="cls-7" d="M326.33,168.66a26.35,26.35,0,0,1-8.4-20c-10.94,10.44-31,31.27-43.74,51.93,0,0,4.59,29.69,32.61,55.45l14.38-13.78s-20-31.4-20.61-41.67l28.75-19.9c-2.25,30.91-2.91,99.62-2.91,101.83l36.1,4.65-5.36-95.35A163.33,163.33,0,0,1,326.33,168.66Z"/><path class="cls-7" d="M439.32,221.71c-7.3,10.42-14.22,20.51-14.22,20.51l19.06,12.34c7.34-8.08,14.91-18.75,21.27-28.48A222.23,222.23,0,0,1,439.32,221.71Z"/><path class="cls-7" d="M394.54,209.05l-2.63,78.08,30.51-6.31c0-1.61,1.32-29.43,1.72-62.72C414.19,215.54,404.27,212.57,394.54,209.05Z"/><path class="cls-8" d="M440.43,256.87s-9.8,8.63-12.31,6.8-6.62-5.44-6.62-5.44-10,11.15-12.09,8.18l6.39-10.27s-5.71,8-13,8.9c0,0-.68-4.11,9.13-12.32,0,0-9,8.44-11.78,6.39s7.44-11.18,9-12.1-8.78,9.13-10.55,7.08S406,242,411.92,242.22s13.18,6,13.18,6l1.29-.94Z"/><polygon class="cls-9" points="381.94 133.6 380.01 144.03 385.98 231.25 377.23 245.02 367.13 230.62 371.48 146.01 365.75 134.15 368.44 130.52 376.86 130.24 381.94 133.6"/><polygon class="cls-5" points="394.12 134.94 381.94 140.71 376.55 128.43 385.63 122.47 394.12 134.94"/><polygon class="cls-5" points="354.05 136.72 366.23 142.49 371.62 130.21 362.54 124.25 354.05 136.72"/><path class="cls-8" d="M328.81,80.43c-.23-11.11,3.45-12.65,6.69-11.9-.06-.74-.12-1.48-.17-2.23C333.21,30.15,360,27.21,360,27.21s34-5.71,43.86,20.73c0,0,22.41,62.52-13.93,69.35-20.13,3.78-41.15-2.66-49.67-26.41C329.79,94.25,328.81,80.43,328.81,80.43Z"/><path class="cls-10" d="M377.33,109.68c-16.51-6.78-25.13-27-24.85-43.88.21-13.17,1.95-26.56,7.23-38.56-2.54.38-26.39,4.83-24.38,39.06.05.75.11,1.49.17,2.23-3.24-.75-6.92.79-6.69,11.9,0,0,1,13.82,11.4,10.45,8.52,23.75,29.54,30.19,49.67,26.41a23,23,0,0,0,13.27-7.09A34.94,34.94,0,0,1,377.33,109.68Z"/><path class="cls-11" d="M401.59,62.13c0,3.73-1.76,6.74-3.92,6.74s-3.92-3-3.92-6.74,1.75-6.74,3.92-6.74S401.59,58.41,401.59,62.13Z"/><path class="cls-11" d="M377.15,64c0,3.73-1.75,6.74-3.92,6.74s-3.92-3-3.92-6.74,1.76-6.74,3.92-6.74S377.15,60.26,377.15,64Z"/><polygon class="cls-3" points="387.46 56.4 400.59 79.8 389.99 84.95 387.46 56.4"/><path class="cls-12" d="M404.26,93l-28.6-.68S387.14,109.16,404.26,93Z"/><path class="cls-11" d="M406.75,22.63s9.26-7,0-12.94c-5.27-3.39-9-1.22-11.27,1.27.87-2.5.61-5.72-4.31-8.27C382.73-1.68,378,9,377.05,11.34c.74-2.05,3.31-10.51-4-11.29-8.29-.88-7.79,9.54-7.79,9.54s-2.45-11.1-8.91-9.35c-4.64,1.26-4.87,6.65-4.64,9.6-.6-3-2.59-8.23-9.19-6.45-9.1,2.45-3.85,14-3.85,14s-8.05-9.44-13.61-2.1,4.4,13.3,4.4,13.3S319.79,24,317,32.08s5.94,13.74,5.94,13.74-8-4-10.05,5.15,8.65,9.41,8.65,9.41c0,12,10.61,9.57,14.09,8.47L340,80.16l8.75-5.65-1.84-11.82c6.64-3.38,9-10.2,9.76-15.32l1.23-1.3c11.55,9.8,14.82-4.2,14.82-4.2C388.63,58.67,389.32,38,389.32,38s3.6,5.94,10.51,5.59,5-8.71,5-8.71,13.3,9.41,13.18-4.65S406.75,22.63,406.75,22.63Z"/><path class="cls-13" d="M356.23,49.78a23.29,23.29,0,0,1-10.65-3.58c-3.1-2-4.95-5.36-3.22-9a6.92,6.92,0,0,1,2.46-2.74,8.59,8.59,0,0,1-1.15-.81c-3.06-2.56-3.77-6.65-2.89-10.39A7.67,7.67,0,0,1,342,20.53a12.6,12.6,0,0,1-3.86-6.24l-.3-.23-.34-.31a20.09,20.09,0,0,0,1.15,3.63s-8.05-9.44-13.61-2.1,4.4,13.3,4.4,13.3S319.79,24,317,32.08s5.94,13.74,5.94,13.74-8-4-10.05,5.15,8.65,9.41,8.65,9.41c0,12,10.61,9.57,14.09,8.47L340,80.16l8.75-5.65-1.84-11.82C352.58,59.82,355.11,54.47,356.23,49.78Z"/><path class="cls-13" d="M376.48,44.75l.17.1c.07-.15.13-.28.19-.39A22.67,22.67,0,0,1,375.13,42c-.51-.37-1-.77-1.47-1.19-.22.13-.45.25-.68.37.47.63,1,1.25,1.49,1.84C374.45,42.94,375.73,44.12,376.48,44.75Z"/><polygon class="cls-9" points="354.07 135.99 347.43 136.72 335.38 162.06 344.42 167.86 341.25 178.8 359.04 223.32 354.07 135.99"/><polygon class="cls-9" points="397.02 134.39 403.67 135.11 415.72 160.45 406.68 166.26 411.98 177.86 394.19 222.39 397.02 134.39"/><path class="cls-8" d="M313.11,259.58s6.94,5.92,9.45,4.09,6.62-5.44,6.62-5.44,10,11.15,12.09,8.18l-6.39-10.27s5.71,8,13,8.9c0,0,.68-4.11-9.13-12.32,0,0,9,8.44,11.78,6.39s-7.44-11.18-9-12.1,8.78,9.13,10.55,7.08-7.36-12.1-13.29-11.87-13.18,6-13.18,6l-1.29-.94Z"/><polygon class="cls-14" points="131.76 114.66 131.76 137.97 152.83 137.97 152.83 112.86 131.76 114.66"/><path class="cls-4" d="M186.46,141.14c0-.46-40.32-12.34-85.51-3.48l-38.46,53L29.8,165.32l-13,12,44.71,43,40.47-39,3.2,81.16s70.27,6.17,70.27,2.8c0-2.2,4.74-55.12,8-91.34l31.28,26.62c-.65,10.27-23.87,46.94-23.87,46.94l12.6,13.44c28-25.77,37.65-60.38,37.65-60.38C224.87,174.06,192.12,145.91,186.46,141.14Z"/><path class="cls-5" d="M186.46,141.14c0-.15-4.8-1.68-13-3.24-1.42,16.12-5.24,32-13.95,45.92-11.73,18.75-28.21,31.69-48.39,40.55a18.33,18.33,0,0,1-7.4,1.54l1.44,36.56s70.27,6.17,70.27,2.8c0-2.2,4.74-55.12,8-91.34l31.28,26.62c-.65,10.27-23.87,46.94-23.87,46.94l12.6,13.44c28-25.77,37.65-60.38,37.65-60.38C224.87,174.06,192.12,145.91,186.46,141.14Z"/><path class="cls-14" d="M202.23,259.58s-6.94,5.92-9.45,4.09-6.61-5.44-6.61-5.44-10,11.15-12.1,8.18l6.39-10.27s-5.7,8-13,8.9c0,0-.69-4.11,9.12-12.32,0,0-9,8.44-11.78,6.39s7.45-11.18,9-12.1-8.77,9.13-10.54,7.08,7.35-12.1,13.28-11.87,13.18,6,13.18,6l1.29-.94Z"/><path class="cls-15" d="M19,175.37l-6.53-3.51s-10.77.25-10.77-6.27c0,0-3.37-4.84,0-7.53,0,0-3.71-4.05,0-6.4,0,0,3.63-2.55,17.3-.94,0,0-.8-14.63,3.91-16.61s4.33,27.1,4.33,27.1l2.61,4.11Z"/><path class="cls-14" d="M27.19,161.21s.38-29.08-4.33-27.1S19,150.72,19,150.72a70.9,70.9,0,0,0-7.91-.53,14.41,14.41,0,0,1,5.23,1c1.57.7,3.12,2.07,2.23,4-.56,1.17-1.82,1.32-3.06,1.3,2,.61,3.17,1.78,2.34,3.88A3,3,0,0,1,16.05,162c2.47.88,1.14,3.68-.94,4.34-2.62.85-9.76,2-13.42,0,.71,5.83,10.73,5.6,10.73,5.6L19,175.37,29.8,165.32Z"/><polygon class="cls-16" points="133.4 133.12 137.78 145.16 133.4 220.57 142.16 232.37 152.26 220.03 145.86 144.75 149.6 133.59 146.9 130.48 138.48 130.24 133.4 133.12"/><polygon class="cls-5" points="121.22 134.94 133.4 140.71 138.79 128.43 129.71 122.47 121.22 134.94"/><polygon class="cls-5" points="161.29 136.72 149.11 142.49 143.73 130.21 152.81 124.25 161.29 136.72"/><path class="cls-15" d="M186.65,80.43c.23-11.11-3.46-12.65-6.7-11.9.06-.74.13-1.48.17-2.23,2.12-36.15-24.61-39.09-24.61-39.09s-34-5.71-43.87,20.73c0,0-22.4,62.52,13.94,69.35,20.12,3.78,41.14-2.66,49.66-26.41C185.66,94.25,186.65,80.43,186.65,80.43Z"/><path class="cls-17" d="M180,68.53c.06-.74.13-1.48.17-2.23,2.12-36.15-24.61-39.09-24.61-39.09a55.14,55.14,0,0,0-11.21-.42c8.68,7,12.78,17.41,15.11,28.53,1.84,8.8,2.36,19.34-.23,28-2.41,8.07-5.3,14-11.89,19.58-5.09,4.35-11.68,6.19-18.09,7.4a39.74,39.74,0,0,1-17.51-.8,22.89,22.89,0,0,0,13.89,7.79c20.12,3.78,41.14-2.66,49.66-26.41,10.42,3.37,11.41-10.45,11.41-10.45C186.88,69.32,183.19,67.78,180,68.53Z"/><path class="cls-11" d="M113.46,65.75c0,3.72,1.75,6.74,3.92,6.74s3.92-3,3.92-6.74S119.54,59,117.38,59,113.46,62,113.46,65.75Z"/><path class="cls-11" d="M137.9,67.6c0,3.72,1.75,6.74,3.92,6.74s3.92-3,3.92-6.74-1.76-6.74-3.92-6.74S137.9,63.88,137.9,67.6Z"/><polygon class="cls-18" points="104.43 256.87 90.31 396.54 121.47 396.54 137 304.11 143.73 305.07 154.18 396.54 185.11 396.54 176.17 265.74 104.43 256.87"/><polygon class="cls-19" points="104.43 256.87 90.31 396.54 121.47 396.54 137 304.11 143.73 305.07 154.18 396.54 185.11 396.54 176.17 265.74 104.43 256.87"/><path class="cls-11" d="M102,30.87S115,57,143.26,47.35c0,0,9.2-1.15,15.15-6.54,0,0-1.34,16,10.1,21.88V83.75h7.58L180,68.53s14.25-19.48,6.71-33.62-16.81-9.38-16.81-9.38S143.26-12.06,102,30.87Z"/><path class="cls-13" d="M186.66,34.91c-7.54-14.14-16.81-9.38-16.81-9.38S161.68,14,147.37,11C152,16.72,155,23.51,155,30.9a26.79,26.79,0,0,1-4.18,14.44,25,25,0,0,0,7.64-4.53s-1.34,16,10.1,21.88V83.75h7.58L180,68.53S194.2,49.05,186.66,34.91Z"/><polygon class="cls-14" points="126.59 60.02 113.46 87.23 124.06 93.22 126.59 60.02"/><path class="cls-14" d="M148.81,90.56s-.1.44-.33,1.17A7.86,7.86,0,0,1,148,93a11.26,11.26,0,0,1-.86,1.63c-.18.29-.37.59-.56.91s-.46.58-.7.89a15.61,15.61,0,0,1-1.68,1.81,17.3,17.3,0,0,1-2.11,1.62,20.3,20.3,0,0,1-2.43,1.33,16.79,16.79,0,0,1-2.63.85,13.69,13.69,0,0,1-5.14.34c-.39,0-.77-.09-1.14-.16l-1-.26a9.64,9.64,0,0,1-1.75-.61c-.25-.1-.49-.19-.7-.3l-.56-.32c-.68-.4-1-.65-1-.65s.46,0,1.21.08a12.42,12.42,0,0,0,1.35.08c.52,0,1.09,0,1.71,0l1,0,1-.1c.7,0,1.41-.21,2.14-.3s1.48-.32,2.22-.59a23.43,23.43,0,0,0,2.21-.8,22.92,22.92,0,0,0,2.1-1.06c.7-.35,1.32-.81,2-1.2s1.22-.85,1.74-1.32l.8-.65.72-.65c.47-.42.87-.82,1.24-1.18s.7-.69.95-1C148.49,90.87,148.81,90.56,148.81,90.56Z"/><polygon class="cls-20" points="241.19 149.74 241.19 165.48 255.41 165.48 255.41 148.53 241.19 149.74"/><path class="cls-21" d="M296.21,107.2c-3.33-8.89-8-9.28-11.36-7.94-.17-.6-.34-1.2-.53-1.81-9.3-29.24-40.59-22.2-40.59-22.2s-40.07,3.25-42.56,26.53c0,0-7.42,43.87,35.11,49.28,32.32,4.11,48.61-12.09,50.5-32.94C299.57,118.42,296.21,107.2,296.21,107.2Z"/><path class="cls-22" d="M296.21,107.2c-3.33-8.89-8-9.28-11.36-7.94-.17-.6-.34-1.2-.53-1.81-4-12.44-11.89-18.31-19.71-21,4.45,12.51,6.29,27.7,3,40.28-4.5,17.34-17,31.53-34.88,33.71,1.14.22,2.3.42,3.52.57,32.32,4.11,48.61-12.09,50.5-32.94C299.57,118.42,296.21,107.2,296.21,107.2Z"/><polygon class="cls-23" points="236.52 106.16 226.76 123.39 236.52 127.98 236.52 106.16"/><path class="cls-11" d="M256.35,110.51c0,3.62,1.71,6.56,3.82,6.56s3.81-2.94,3.81-6.56-1.7-6.56-3.81-6.56S256.35,106.89,256.35,110.51Z"/><path class="cls-11" d="M214.86,110.51c0,3.62,1.7,6.56,3.81,6.56s3.82-2.94,3.82-6.56-1.71-6.56-3.82-6.56S214.86,106.89,214.86,110.51Z"/><path class="cls-24" d="M256.88,81.21s3.41,26.36,28,18.05c0,0,8.47-2.2,10.08,5s.5,11.9-8.15,13.83c0,0-3,26.91-32.06,32.59v9c-2.42-.45,29.17,5.88,41.89-6.49,0,0,22.27-90.16-35.94-92.33,0,0-23.28-23.55-49,0-21,19.25-21.9,48.66-18.41,73.64,2.16,15.53,7.41,23,7.41,23s25.35,8.93,40.78,1.62V151.7s-40.08,0-40.71-45.45C200.74,106.25,233.87,114.78,256.88,81.21Z"/><path class="cls-25" d="M219.32,144.78c-.07.75-.15,1.51-.24,2.26a39.55,39.55,0,0,1-4.49,14c8.38,1.4,18.93,1.94,26.86-1.82V151.7A45.33,45.33,0,0,1,219.32,144.78Z"/><path class="cls-25" d="M260.67,60.9a38.26,38.26,0,0,0-6.94-5.2,83.3,83.3,0,0,1-5.28,35.65,68.61,68.61,0,0,0,8.43-10.14s3.41,26.36,28,18.05c0,0,8.47-2.2,10.08,5s.5,11.9-8.15,13.83c0,0-3,26.91-32.06,32.59v9c2,.36,30.07,5,41.89-6.49C296.61,153.23,318.88,63.07,260.67,60.9Z"/><path class="cls-26" d="M236.52,134.54a31,31,0,0,0,5.37.63,19,19,0,0,0,4.91-.48,9.32,9.32,0,0,0,1.18-.32l.6-.15.58-.23,1.17-.44,1.16-.53c.2-.1.41-.16.6-.27l.57-.31c.39-.21.79-.42,1.2-.62.8-.43,1.57-.93,2.49-1.34a15.15,15.15,0,0,1-1.43,2.54q-.46.57-1,1.11a6.52,6.52,0,0,1-1.07,1c-.39.31-.78.61-1.19.91s-.87.5-1.31.74c-.23.13-.46.24-.68.35l-.72.26a13,13,0,0,1-1.47.44,11.92,11.92,0,0,1-6.05-.18A9.9,9.9,0,0,1,236.52,134.54Z"/><path class="cls-12" d="M328.15,209.27c-27.44-27-61.38-45.74-61.38-45.74l0,.31c-2.91-2.22-6.78-3.76-12.59-5,0,0-2.82,9.28-14.53,1.81a18.79,18.79,0,0,0-10.85,2.92v0s-33.94,18.7-61.39,45.74c0,0-5.45,10.31,39,52.51l9.88-10.5S201,227.32,192.64,215l20.87-14.86c-.73,8.85,1.38,16.7,9.74,19.4,0,0-1.33,15.11,7.95,27.22H272s6.46-15.34,4.44-25c0,0,12.08-4.32,9.29-19.51l19.05,13.58c-8.32,12.27-24.16,36.53-24.16,36.53l9.88,10.49C335.73,219.58,328.15,209.27,328.15,209.27Z"/><path class="cls-12" d="M328.15,209.27c-27.44-27-61.38-45.74-61.38-45.74l0,.31c-2.91-2.22-6.78-3.76-12.59-5,0,0-2.82,9.28-14.53,1.81a18.79,18.79,0,0,0-10.85,2.92v0s-33.94,18.7-61.39,45.74c0,0-5.45,10.31,39,52.51l9.88-10.5S201,227.32,192.64,215l20.87-14.86c-.73,8.85,1.38,16.7,9.74,19.4,0,0-1.33,15.11,7.95,27.22H272s6.46-15.34,4.44-25c0,0,12.08-4.32,9.29-19.51l19.05,13.58c-8.32,12.27-24.16,36.53-24.16,36.53l9.88,10.49C335.73,219.58,328.15,209.27,328.15,209.27Z"/><path class="cls-27" d="M241.19,156s3.73,4.07,7.11,7.55l-8.63,13.67-9.75-17S239.48,154.37,241.19,156Z"/><path class="cls-27" d="M255.47,156s-3.74,4.07-7.12,7.55L257,177.18l9.76-17S257.18,154.37,255.47,156Z"/><path class="cls-28" d="M246.46,180.65a1.86,1.86,0,1,0,1.85-1.85A1.85,1.85,0,0,0,246.46,180.65Z"/><path class="cls-28" d="M246.46,198.77a1.86,1.86,0,1,0,1.85-1.85A1.85,1.85,0,0,0,246.46,198.77Z"/><circle class="cls-28" cx="248.31" cy="216.9" r="1.85"/><circle class="cls-28" cx="248.31" cy="232.47" r="1.85"/><path class="cls-29" d="M271.82,246.8H228.51s-26.81,40.36-23.35,71.84,19.64,77.9,19.64,77.9h51.63s15.29-46.42,18.75-77.9S271.82,246.8,271.82,246.8Z"/><path class="cls-30" d="M271.82,246.8h-7.58c.05.15.13.29.18.44,5.8,16.59,3.29,34.77-2.14,51.06-5.56,16.66-18.72,32.4-37.19,34.29a41.15,41.15,0,0,1-18.23-2.5c5.65,31.36,17.94,66.45,17.94,66.45h51.63s15.29-46.42,18.75-77.9S271.82,246.8,271.82,246.8Z"/><path class="cls-31" d="M207.2,260.58s4.69,5.58,6.62,4.18,5.08-4.18,5.08-4.18,7.72,8.56,9.3,6.28L223.29,259s4.38,6.14,10,6.84c0,0,.53-3.16-7-9.47,0,0,6.88,6.49,9,4.91s-5.72-8.59-6.95-9.3,6.75,7,8.11,5.44-5.65-9.29-10.21-9.12S217.5,253,217.5,253l-2.35-.88Z"/><path class="cls-31" d="M289.25,261.67s-4.69,5.59-6.62,4.18-5.08-4.18-5.08-4.18-7.72,8.57-9.3,6.29l4.91-7.89s-4.38,6.13-10,6.83c0,0-.53-3.15,7-9.46,0,0-6.88,6.48-9.05,4.91s5.72-8.6,6.95-9.3-6.75,7-8.11,5.44,5.65-9.3,10.21-9.12S279,254.1,279,254.1l2.35-.87Z"/><polygon class="cls-27" points="197.66 253.2 213.04 241.75 216.35 251.28 206.47 261.77 197.66 253.2"/><polygon class="cls-27" points="280.58 252.38 283.26 241.75 300.2 253.25 290.46 262.87 280.58 252.38"/><path class="cls-32" d="M328.15,209.27a291,291,0,0,0-39.49-32,50,50,0,0,1-2.62,5.29,99.28,99.28,0,0,1-21.12,25.66,112.74,112.74,0,0,1-40.68,23.06,38.79,38.79,0,0,0,7,15.51H272s6.46-15.34,4.44-25c0,0,12.08-4.32,9.29-19.51l19.05,13.58c-5.14,7.58-13.15,19.73-18.52,27.91l-3-2-2.68,10.62,9.88,10.49C335.73,219.58,328.15,209.27,328.15,209.27Z"/></g></g></svg>