<svg xmlns="http://www.w3.org/2000/svg" viewBox="0 0 378.6 265.62"><defs><style>.cls-1{isolation:isolate;}.cls-2,.cls-32{fill:#231f20;mix-blend-mode:multiply;}.cls-2{opacity:0.17;}.cls-3{fill:#ffc974;}.cls-4{fill:#de5e82;}.cls-5{fill:#5a4a42;}.cls-6{fill:#64594d;}.cls-7{fill:#716558;}.cls-8{fill:#bc4f70;}.cls-9{fill:#f8a36a;}.cls-10{fill:#404041;}.cls-11{fill:#f8a98d;}.cls-12{fill:#fff;}.cls-13{fill:#603813;}.cls-14{fill:#f3847f;}.cls-15{fill:#d3736f;}.cls-16{fill:none;stroke:#716558;stroke-linecap:round;stroke-miterlimit:10;stroke-width:0.59px;}.cls-17{fill:#f0668c;}.cls-18{fill:gold;}.cls-19{fill:#bbbdbf;}.cls-20{fill:#473a33;}.cls-21{fill:#d15f22;}.cls-22{fill:#75b997;}.cls-23{fill:#f37728;}.cls-24{fill:#00b4bc;}.cls-25{fill:#5f554a;}.cls-26{fill:#75b896;}.cls-27{fill:#9a7d47;}.cls-28{fill:#6db3a9;}.cls-29{fill:#80c9a4;}.cls-30{fill:#d0d2d3;}.cls-31{fill:#f37920;}.cls-32{opacity:0.2;}.cls-33{fill:#58595b;}.cls-34{fill:#f05a28;}.cls-35{fill:#f6921e;}.cls-36{fill:#f26e28;}</style></defs><title>img_close_opo</title><g class="cls-1"><g id="Camada_2" data-name="Camada 2"><g id="OBJECTS"><path class="cls-2" d="M99.45,258.82c0,3.46-22.27,6.27-49.73,6.27S0,262.28,0,258.82s22.26-6.27,49.72-6.27S99.45,255.36,99.45,258.82Z"/><ellipse class="cls-2" cx="328.88" cy="259.36" rx="49.72" ry="6.27"/><path class="cls-2" d="M129.84,259.94c0,2.13-6.26,3.87-14,3.87s-14-1.74-14-3.87,6.26-3.87,14-3.87S129.84,257.8,129.84,259.94Z"/><path class="cls-2" d="M174.72,259.94c0,2.13-6.26,3.87-14,3.87s-14-1.74-14-3.87,6.26-3.87,14-3.87S174.72,257.8,174.72,259.94Z"/><path class="cls-3" d="M117.49,51.18A29.19,29.19,0,0,0,119,55.47c.54.85-1.77,1.39-1.77,1.39l-2.88-2.25Z"/><path class="cls-3" d="M112.79,48.24a6.22,6.22,0,0,0-.19,4c.56,1.85,3.79,3.88,3.79,3.88l1.1-2.24Z"/><path class="cls-3" d="M205.92,65.4s1.66-.23,2.46-.27,1.59-5.2,2.53-5.57,1.15,4.34,1.13,4.73c0,.17,1.34,0,3.08-.16,2.53-.22,5.78-.45,5.89-.18.18.45-.69,1.09-.69,1.09a.87.87,0,0,1-.7,1.11s0,1.19-.82,1.24a1.74,1.74,0,0,1-1.23,1.09s.32.61-.95,1a13,13,0,0,1-4.83.24,8,8,0,0,0-5.52-.11Z"/><path class="cls-4" d="M158.45,50.27c-4.06-1.8-8.45,5.28-6.28,9.13s22.44,14.05,24,14.34,31.12-2.86,31.12-2.86l-1-6.6s-27.66.2-28.57.18S162,51.86,158.45,50.27Z"/><path class="cls-5" d="M150.09,174l-1.4,8.74,3.18.4.41-1.1s5.16,1.84,13.53,1.08a20.38,20.38,0,0,0-10.62-8.36Z"/><path class="cls-5" d="M129.68,173.74l-1.41,8.74,3.18.4.41-1.1s5.16,1.84,13.53,1.08a20.38,20.38,0,0,0-10.62-8.36Z"/><path class="cls-6" d="M158,90.54S159.55,124,159.55,127s-3,46-3.15,48.2h-8s1.64-39.6.77-45.27-1-33.19-1-33.19l3-10.08Z"/><path class="cls-7" d="M154.6,89.09l-7.2,45.09-9.07,41.67-9.27-2.26s8.58-37.87,8.78-43c0,0-5.23-27.4-.79-47.39Z"/><polygon class="cls-8" points="148.15 43.74 158.6 46.89 154.6 51.35 148.15 43.74"/><path class="cls-3" d="M152.7,36.3,148.15,49s3.95,7.14,7.29,4l5.62-13.66Z"/><path class="cls-2" d="M151.6,39.39c1.22,1.25,4.93,4.89,7.2,5.36l2.26-5.48-8.36-3Z"/><path class="cls-3" d="M174.23,14.54s3.19,26.27-13.06,26.88-17-19-17-23.23,5.41-10.63,15.16-10.63S174.23,12.26,174.23,14.54Z"/><path class="cls-9" d="M168.88,28.59s2.73,5.31,1.37,5.92a3.22,3.22,0,0,1-2.58,0Z"/><ellipse class="cls-10" cx="162.59" cy="25.12" rx="1.72" ry="2.53"/><path class="cls-10" d="M173.52,25.52c0,1.18-.51,2.13-1.14,2.13s-1.14-.95-1.14-2.13.51-2.13,1.14-2.13S173.52,24.34,173.52,25.52Z"/><path class="cls-11" d="M163.75,29.55c0,.66-1.15,1.19-2.57,1.19s-2.58-.53-2.58-1.19,1.16-1.19,2.58-1.19S163.75,28.89,163.75,29.55Z"/><path class="cls-11" d="M171.24,29.55c0,.54.79,1,1.86,1.15.22-.77.42-1.55.58-2.34C172.32,28.4,171.24,28.91,171.24,29.55Z"/><path class="cls-12" d="M163.75,24.42c0,.39-.15.7-.33.7s-.34-.31-.34-.7.15-.69.34-.69S163.75,24,163.75,24.42Z"/><ellipse class="cls-12" cx="172.72" cy="25.12" rx="0.34" ry="0.7"/><path class="cls-13" d="M150.41,39.29S153,30.9,153,26.58c0,0-3.67.28-3.81-4s4.33-1.26,4.33-1.26,1.05-1,1.44-4.45c0,0,16.65,6.42,22.81,0s-.07-13.28-7.18-11.14A13.39,13.39,0,0,0,158,.1c-9,1-8.79,6.42-8.79,6.42s-8.65-.26-9.69,9.7S144.78,36.54,150.41,39.29Z"/><path class="cls-14" d="M160.24,36.3s-1.82-3.42,0-3.76S161.78,36,161.78,36Z"/><polygon class="cls-15" points="160.72 36.11 160.61 34.17 161.18 36.03 160.72 36.11"/><path class="cls-16" d="M166.73,38.76s-3.73-4.46-7.4-2"/><path class="cls-8" d="M147.14,46.89S133.92,56,133.2,93.67c0,0,6.82,7.11,19.8,9.08l.91-5.24.87,5.24s3-2.1,5.33-3.67l-.78-47.9-4.73.17Z"/><polygon class="cls-17" points="148.97 44.75 154.6 51.35 150.54 55.02 145.56 46.76 148.15 43.74 148.97 44.75"/><polygon class="cls-17" points="154.6 51.35 158.6 46.89 160.11 51.18 157.02 55.47 154.6 51.35"/><path class="cls-18" d="M154.6,51.35S150,78.11,157.36,91.74l3.7.92,1.28-3.93S154.6,75.88,154.6,51.35Z"/><path class="cls-4" d="M145.91,47.68C142.57,45.86,133,63.27,132.14,64s-12-10.22-12-10.22l-5.24,3.7s10.86,16.31,15.75,16.73c1.15.1,2.53.77,4-.22,4.78-3.23,11.29-14.5,12.66-16.64C149.13,54.53,150.8,50.33,145.91,47.68Z"/><rect class="cls-19" x="114.35" y="35.7" width="3.15" height="226.4"/><rect class="cls-19" x="159.17" y="35.7" width="3.15" height="226.4"/><rect class="cls-19" x="136.76" y="33.35" width="3.15" height="48.03" transform="translate(195.69 -80.97) rotate(90)"/><rect class="cls-19" x="136.76" y="58.77" width="3.15" height="48.03" transform="translate(221.12 -55.55) rotate(90)"/><rect class="cls-19" x="136.76" y="84.2" width="3.15" height="48.03" transform="translate(246.54 -30.12) rotate(90)"/><rect class="cls-19" x="136.76" y="109.62" width="3.15" height="48.03" transform="translate(271.97 -4.69) rotate(90)"/><rect class="cls-19" x="136.76" y="135.05" width="3.15" height="48.03" transform="translate(297.39 20.73) rotate(90)"/><rect class="cls-19" x="136.76" y="160.48" width="3.15" height="48.03" transform="translate(322.82 46.16) rotate(90)"/><rect class="cls-19" x="136.76" y="185.9" width="3.15" height="48.03" transform="translate(348.25 71.58) rotate(90)"/><rect class="cls-19" x="136.76" y="211.33" width="3.15" height="48.03" transform="translate(373.67 97.01) rotate(90)"/><path class="cls-20" d="M349.86,251.24l.7,9.76-3.54.14-.34-1.26s-5.87,1.53-15-.11a22.53,22.53,0,0,1,12.49-8.18Z"/><path class="cls-5" d="M340.74,251.91l.85,9.75-3.53.19-.37-1.26s-5.84,1.62-15,.12a22.5,22.5,0,0,1,12.37-8.36Z"/><path class="cls-3" d="M280.18,194.34s-1.67,0-2.47,0-2.22-5-3.19-5.22-.61,4.45-.55,4.84a12.36,12.36,0,0,1-3.07.21c-2.54.1-5.79.27-5.87.54-.13.47.82,1,.82,1a.87.87,0,0,0,.82,1s.18,1.18,1,1.12a1.74,1.74,0,0,0,1.35.94s-.24.64,1.07.92a12.9,12.9,0,0,0,4.83-.36,8.05,8.05,0,0,1,5.46-.78Z"/><path class="cls-21" d="M325.45,173.54c3.81-2.29,9,4.2,7.34,8.29S312.24,198.51,310.73,199s-31.24,1-31.24,1l.24-6.68s27.48-3.17,28.38-3.31S322.1,175.55,325.45,173.54Z"/><path class="cls-3" d="M122.67,120.15s1.36-1,2-1.4-1.07-5.34-.42-6.11,3.07,3.27,3.25,3.63a12.48,12.48,0,0,0,2.63-1.61c2.12-1.39,4.87-3.13,5.09-3,.38.3-.09,1.28-.09,1.28a.87.87,0,0,1-.08,1.31s.54,1.06-.14,1.48a1.73,1.73,0,0,1-.55,1.55s.56.38-.35,1.36a12.76,12.76,0,0,1-4.14,2.51,8,8,0,0,0-4.9,2.52Z"/><path class="cls-22" d="M73.72,129.39c-4.43.34-4.93,8.66-1.18,11s26.41,1.7,27.92,1.21,26-17.29,26-17.29L122.43,119s-24.25,13.31-25.06,13.73S77.62,129.1,73.72,129.39Z"/><path class="cls-23" d="M199,124.5a38.59,38.59,0,0,0-5.6-13.52l6.12-7.24-5-5-5-5-7.23,6.12a38.74,38.74,0,0,0-13.53-5.61L168,84.81H153.83l-.78,9.44a38.74,38.74,0,0,0-13.53,5.61l-7.23-6.12-5,5-5,5L128.4,111a38.59,38.59,0,0,0-5.6,13.52l-9.44.79v14.15l9.44.79a38.75,38.75,0,0,0,5.6,13.52L122.28,161l5,5,5,5,7.23-6.12a38.74,38.74,0,0,0,13.53,5.61l.78,9.43H168l.78-9.43a38.74,38.74,0,0,0,13.53-5.61l7.23,6.12,5-5,5-5-6.12-7.23a38.75,38.75,0,0,0,5.6-13.52l9.44-.79V125.29Zm-38.11,30.91a23,23,0,1,1,23.05-23A23.05,23.05,0,0,1,160.91,155.41Z"/><path class="cls-18" d="M275.24,75.13a38.61,38.61,0,0,0-5.61-13.52l6.12-7.24-5-5-5-5-7.24,6.12A38.61,38.61,0,0,0,245,44.88l-.79-9.44H230.05l-.79,9.44a38.61,38.61,0,0,0-13.52,5.61l-7.23-6.12-5,5-5,5,6.12,7.24A38.61,38.61,0,0,0,199,75.13l-9.44.79V90.07l9.44.79a38.61,38.61,0,0,0,5.61,13.52l-6.12,7.23,5,5,5,5,7.23-6.12a38.61,38.61,0,0,0,13.52,5.61l.79,9.44H244.2l.79-9.44a38.61,38.61,0,0,0,13.52-5.61l7.24,6.12,5-5,5-5-6.12-7.23a38.61,38.61,0,0,0,5.61-13.52l9.44-.79V75.92Zm-38.11,30.92A23.06,23.06,0,1,1,260.18,83,23.05,23.05,0,0,1,237.13,106.05Z"/><path class="cls-24" d="M272.06,182.07A38.51,38.51,0,0,0,268,168l6.87-6.52L270.42,156,266,150.45l-7.86,5.3a38.77,38.77,0,0,0-12.83-7.05l.25-9.47-7-.77-7-.78-1.81,9.3a38.81,38.81,0,0,0-14.06,4.09l-6.52-6.87-5.52,4.43-5.52,4.42,5.29,7.86a38.77,38.77,0,0,0-7.05,12.83l-9.46-.25-.78,7-.77,7,9.29,1.81a38.77,38.77,0,0,0,4.1,14.06L191.8,210l4.42,5.52,4.43,5.52,7.86-5.29a38.77,38.77,0,0,0,12.83,7.05l-.25,9.47,7,.77,7,.77,1.81-9.29a38.72,38.72,0,0,0,14.05-4.1l6.53,6.88,5.52-4.43,5.52-4.43-5.3-7.86a38.61,38.61,0,0,0,7.06-12.83l9.46.25.78-7,.77-7ZM230.8,208.64a23.05,23.05,0,1,1,25.43-20.4A23,23,0,0,1,230.8,208.64Z"/><path class="cls-20" d="M311.82,179.07s13,14,5,32.17l1.58,3.81,4.33-3.28S329,189.79,311.82,179.07Z"/><path class="cls-3" d="M123.25,144.82s1.66-.27,2.46-.33,1.45-5.24,2.38-5.64,1.26,4.31,1.26,4.71a12.47,12.47,0,0,0,3.07-.25c2.52-.28,5.76-.59,5.88-.32.2.44-.66,1.1-.66,1.1a.88.88,0,0,1-.66,1.13s0,1.19-.8,1.26A1.72,1.72,0,0,1,135,147.6s.33.6-.93,1.06a12.78,12.78,0,0,1-4.82.37,8,8,0,0,0-5.52,0Z"/><path class="cls-5" d="M68.75,248.2l-2.15,9.55,3.48.66.53-1.19s5.57,2.38,14.85,2.12a22.53,22.53,0,0,0-11.14-9.95Z"/><path class="cls-5" d="M16.28,232,9,238.55l2.47,2.54,1.12-.67s3.18,5.15,10.92,10.28a22.54,22.54,0,0,0-3.39-14.54Z"/><path class="cls-25" d="M50.45,165.64s-11.07,38.25-11.68,41.05-23.69,25.68-23.69,25.68l6.28,6.28s23.19-19.23,25.91-23.89S66,179.45,67.06,174,57.35,160.16,50.45,165.64Z"/><path class="cls-7" d="M52.59,162.68S47,176,50.06,185.23s18.83,28,20.18,28.79-2.18,34.77-2.18,34.77l8.7,1.91s6.17-33.42,5.53-39.39S72.58,185.23,71.77,182s-1.53-8.69-1.53-8.69Z"/><polygon class="cls-26" points="74.95 123.33 79.05 123.33 76.24 125.99 74.95 123.33"/><polygon class="cls-26" points="83.75 130.54 84.21 134.18 82.06 133.19 83.75 130.54"/><path class="cls-3" d="M78.44,118.17l-4.55,12.68s3.94,7.14,7.28,4l5.62-13.67Z"/><path class="cls-2" d="M77.33,121.25c1.23,1.26,4.94,4.9,7.21,5.37l2.25-5.49-8.35-3Z"/><path class="cls-3" d="M100.15,96.08S103.34,122.35,87.1,123s-17-19-17-23.23,5.42-10.63,15.16-10.63S100.15,93.8,100.15,96.08Z"/><path class="cls-13" d="M82.84,96.23s9.87,5.31,19.9,4c0,0-.09-11.08-9.95-14-11.92-3.5-16.17,2.88-16.17,2.88s-6.38.15-9,7.29,1.06,19.28,8.66,24.75a26.74,26.74,0,0,0,2.42-10.93s-5.49-1.64-4.7-6.88c.6-4,5.46-1.82,5.46,1.26C79.5,104.58,82.54,102.15,82.84,96.23Z"/><path class="cls-9" d="M94.8,110.13s2.74,5.31,1.37,5.92a3.26,3.26,0,0,1-2.58,0Z"/><ellipse class="cls-10" cx="88.51" cy="106.66" rx="1.72" ry="2.53"/><path class="cls-10" d="M99.45,107.05c0,1.18-.52,2.14-1.15,2.14s-1.14-1-1.14-2.14.51-2.13,1.14-2.13S99.45,105.88,99.45,107.05Z"/><path class="cls-27" d="M85.25,115.51s5,2.43,9.82,1.9c0,0-2.2,4.25-6.15,3.27S85.25,115.51,85.25,115.51Z"/><path class="cls-11" d="M89.68,111.09c0,.65-1.16,1.19-2.58,1.19s-2.57-.54-2.57-1.19,1.15-1.2,2.57-1.2S89.68,110.43,89.68,111.09Z"/><path class="cls-11" d="M97.16,111.09c0,.54.79,1,1.86,1.14.23-.77.42-1.55.58-2.33C98.24,109.93,97.16,110.45,97.16,111.09Z"/><path class="cls-12" d="M89.68,106c0,.38-.15.7-.34.7s-.33-.32-.33-.7.15-.69.33-.69S89.68,105.58,89.68,106Z"/><ellipse class="cls-12" cx="98.64" cy="106.66" rx="0.34" ry="0.69"/><path class="cls-12" d="M94.33,117.46a20.39,20.39,0,0,1-8.24-1.58,1.44,1.44,0,0,0,.7,1.57,24.56,24.56,0,0,0,6,1.09A1.43,1.43,0,0,0,94.33,117.46Z"/><path class="cls-28" d="M75.35,124.47S54.4,134.9,47.72,164.66c0,0,11.64,14.58,26.17,16a195.59,195.59,0,0,1,9.87-50.1Z"/><polygon class="cls-29" points="74.95 123.33 83.75 130.54 81.43 134.18 71.99 125.69 74.95 123.33"/><path class="cls-30" d="M83.6,130.92s-11.69,36-7.13,45.41l2.58,3.58L80.92,174S78.29,157,83.6,130.92Z"/><path class="cls-29" d="M75.41,130.92c-4.1-1.7-8.31,5.49-6,9.29s22.79,13.47,24.35,13.72,31-3.66,31-3.66l-1.21-6.57s-27.65.91-28.56.91S79,132.42,75.41,130.92Z"/><path class="cls-25" d="M337.44,223.07c-.21,3,13.68,29.59,13.68,29.59h-7.77s-16.13-22.73-15.93-26.21S337.44,223.07,337.44,223.07Z"/><path class="cls-7" d="M333.14,204s-15.66,16.37-16.27,20.25,16.54,28.42,16.54,28.42h7.77s-9.81-22.09-9.81-25,31.82-14.53,22.6-31Z"/><polygon class="cls-31" points="313.02 170.28 310.37 179.68 314.25 183.36 314.25 178.46 313.02 170.28"/><path class="cls-3" d="M305.25,168.62l13,3.39s3.66,7.29-.86,8.25L303,177.19Z"/><path class="cls-32" d="M303,177.19l6.49,1.38a27.23,27.23,0,0,0,3.77-7.87l-8-2.08Z"/><path class="cls-3" d="M279.86,156.34s4.25,26.12,20,22.18,11.05-23,9.87-27.05-8.16-8.7-17.52-6S279.23,154.15,279.86,156.34Z"/><path class="cls-9" d="M288.91,168.34s-1.15,5.87.33,6.07a3.23,3.23,0,0,0,2.48-.72Z"/><path class="cls-10" d="M292.33,163.74c.39,1.34,1.45,2.21,2.36,1.95s1.34-1.57.95-2.91-1.45-2.22-2.36-1.95S291.94,162.39,292.33,163.74Z"/><path class="cls-10" d="M283.6,166.68c.32,1.14,1.08,1.91,1.69,1.73s.83-1.23.5-2.36-1.08-1.91-1.69-1.73S283.27,165.55,283.6,166.68Z"/><path class="cls-11" d="M294.1,167.84c.18.63,1.44.82,2.81.43s2.32-1.23,2.14-1.87-1.44-.82-2.81-.42S293.92,167.21,294.1,167.84Z"/><path class="cls-11" d="M286.91,169.92c.15.52-.47,1.18-1.47,1.62-.43-.68-.83-1.37-1.2-2.08C285.55,169.11,286.74,169.31,286.91,169.92Z"/><path class="cls-12" d="M292.67,162.91c.11.37.34.63.52.58s.24-.39.13-.76-.34-.63-.52-.58S292.57,162.55,292.67,162.91Z"/><path class="cls-12" d="M283.94,166.17c.1.37.33.63.51.57s.24-.39.13-.76-.34-.62-.51-.57S283.83,165.8,283.94,166.17Z"/><path class="cls-33" d="M293.6,176.44c-.57,0-1,0-1,0a.2.2,0,0,1-.18-.22.2.2,0,0,1,.22-.19s4.12.37,6.08-1.4a3.07,3.07,0,0,0,1-2.37.2.2,0,0,1,.2-.2h0a.2.2,0,0,1,.2.2A3.53,3.53,0,0,1,299,174.9C297.51,176.23,295,176.44,293.6,176.44Z"/><path class="cls-13" d="M281.64,163.26s-5.78-3.36-7.14-8.26l1.29.75L274.5,153a3.65,3.65,0,0,0,5-2c1.7-3.54,5.31-7.28,11.85-9.12s12,1.34,12.59,2.81a8.36,8.36,0,0,1,7.42,6.72c1.57,6.47,1.86,16.66-3,21.67a74.26,74.26,0,0,0-3.2-10.91,5.71,5.71,0,0,0-.21-5.86c-1.9-3.27-3.88,1.38-3.88,1.38l-2.67-6.79s-6.89,9.39-17.26,9.14Z"/><path class="cls-34" d="M313,170.28s36.67-2.85,42.59,27.17c0,0-3.88,5.31-24.31,8.17,0,0,5.42-16.59-20.11-26Z"/><polygon class="cls-35" points="313.02 170.28 311.19 179.58 317.31 182.03 317.31 169.68 313.02 170.28"/><path class="cls-3" d="M274.36,185.88s-1.66-.27-2.46-.34-1.45-5.23-2.38-5.63-1.26,4.31-1.26,4.71a12.47,12.47,0,0,1-3.07-.25c-2.52-.28-5.76-.59-5.88-.33-.2.44.66,1.11.66,1.11a.87.87,0,0,0,.66,1.12s0,1.2.8,1.26c0,0,.33,1,1.19,1.13,0,0-.33.6.93,1.06a13,13,0,0,0,4.82.37,8,8,0,0,1,5.52,0Z"/><path class="cls-36" d="M322.2,172c4.1-1.7,8.31,5.49,6,9.29s-22.8,13.46-24.36,13.71-31-3.65-31-3.65l1.21-6.57s27.65.91,28.56.91S318.59,173.48,322.2,172Z"/><path class="cls-3" d="M113.33,52c-.49-1.11-1-2.85-.54-3.8a24.83,24.83,0,0,1,1.95-2.85c.63-.9,1.11,0,.63.84a1.27,1.27,0,0,1-.21,1.32s.32.38-.1,1a.92.92,0,0,1-.11,1.21,3.84,3.84,0,0,0-1,2.3C114,52.62,113.33,52,113.33,52Z"/><path class="cls-3" d="M117.49,49.38s-1.5-.87-1.57-.28.86,2.06,1.57,2.08S118,49.61,117.49,49.38Z"/><circle class="cls-24" cx="233.32" cy="185.94" r="16.22"/><circle class="cls-18" cx="237.13" cy="83.24" r="16.22" transform="translate(-13.86 96.06) rotate(-22.27)"/><circle class="cls-23" cx="160.61" cy="132.36" r="16.22"/></g></g></g></svg>