<svg width="97" height="100" viewBox="0 0 97 100" fill="none" xmlns="http://www.w3.org/2000/svg">
<rect width="97" height="100" fill="black" fill-opacity="0"/>
<rect width="97" height="100" fill="black" fill-opacity="0"/>
<path d="M74.5304 73.3718C74.5304 71.2144 72.7766 69.4602 70.6197 69.4602H67.9935C66.9899 62.3737 59.8113 59.8989 55.1539 59.4912L53.9173 56.917C56.1895 55.5236 57.8703 53.2658 58.4994 50.5979H66.3299V47.1718H58.7152C58.424 44.4913 57.0847 42.1227 55.1162 40.4827H57.2502V37.0565H30.6712V40.4827H42.1647C39.929 42.3443 38.5029 45.1457 38.5029 48.2761C38.5029 51.933 40.4543 55.1331 43.3636 56.917L43.1866 57.287H30.6712V60.7132H36.8678C33.3134 62.0985 29.9519 64.7721 29.2874 69.4602H26.3929C24.236 69.4602 22.4822 71.2144 22.4822 73.3718V92.1781H0V100H26.3917H70.6185H97V92.1769H74.5304V73.3718ZM3.42542 96.5739V95.6031H22.4811V96.0885C22.4811 96.253 22.4913 96.4151 22.5107 96.5739H3.42542ZM42.3508 50.5991C42.0825 49.8739 41.9283 49.0938 41.9283 48.2773C41.9283 47.9004 41.9672 47.5338 42.0265 47.1729C42.5552 43.9957 45.3149 41.5642 48.6399 41.5642C51.9648 41.5642 54.7246 43.9957 55.2532 47.1729C55.3126 47.5326 55.3514 47.9004 55.3514 48.2773C55.3514 49.0938 55.1973 49.8739 54.929 50.5991C53.9813 53.1584 51.5241 54.9903 48.6387 54.9903C45.7557 54.9903 43.2985 53.1573 42.3508 50.5991ZM43.2711 62.858L44.3216 62.834L46.5492 58.1972C47.2252 58.34 47.9228 58.4165 48.6399 58.4165C49.3569 58.4165 50.0557 58.34 50.7317 58.1972L52.9593 62.834L54.0098 62.858C54.4129 62.8671 63.1431 63.1549 64.5007 69.4614H32.7813C34.1469 63.188 42.8715 62.8671 43.2711 62.858ZM71.1049 92.1781V96.0896C71.1049 96.3523 70.8834 96.575 70.6197 96.575H26.3929C26.1303 96.575 25.9076 96.3535 25.9076 96.0896V92.1781V73.3718C25.9076 73.1091 26.1291 72.8864 26.3929 72.8864H70.6197C70.8823 72.8864 71.1049 73.108 71.1049 73.3718V92.1781ZM93.5769 95.6043V96.5739H74.5007C74.5212 96.4151 74.5304 96.253 74.5304 96.0885V95.6031H93.5769V95.6043Z" fill="url(#paint0_linear)"/>
<path d="M52.0493 79.0603L52.2023 78.5647L48.9288 77.5539L45.0626 90.0812L39.7155 84.7306L45.1733 79.2705L42.7516 76.8481L34.8708 84.7306L42.7516 92.6132L44.9644 90.3998L44.8114 90.8966L48.0838 91.9074L51.95 79.3812L57.2982 84.7306L51.8392 90.1908L54.261 92.6132L62.1418 84.7306L54.261 76.8481L52.0493 79.0603Z" fill="url(#paint1_linear)"/>
<path d="M2.92417 31.9377L18.8901 15.9683L2.92417 0L0.502396 2.42345L14.0454 15.9683L0.502396 29.5154L2.92417 31.9377Z" fill="url(#paint2_linear)"/>
<path d="M39.0898 6.74963H25.8425V10.1758H39.0898V6.74963Z" fill="url(#paint3_linear)"/>
<path d="M67.0584 6.74963H47.3336V10.1758H67.0584V6.74963Z" fill="url(#paint4_linear)"/>
<path d="M81.1734 6.74963H77.7V10.1758H81.1734V6.74963Z" fill="url(#paint5_linear)"/>
<path d="M95.2896 6.74963H90.9929V10.1758H95.2896V6.74963Z" fill="url(#paint6_linear)"/>
<path d="M95.2896 14.2552H82.0423V17.6814H95.2896V14.2552Z" fill="url(#paint7_linear)"/>
<path d="M73.7973 14.2552H54.0737V17.6814H73.7973V14.2552Z" fill="url(#paint8_linear)"/>
<path d="M43.4321 14.2552H39.9587V17.6814H43.4321V14.2552Z" fill="url(#paint9_linear)"/>
<path d="M30.1392 14.2552H25.8425V17.6814H30.1392V14.2552Z" fill="url(#paint10_linear)"/>
<path d="M39.0898 21.7632H25.8425V25.1894H39.0898V21.7632Z" fill="url(#paint11_linear)"/>
<path d="M67.0584 21.7632H47.3336V25.1894H67.0584V21.7632Z" fill="url(#paint12_linear)"/>
<path d="M81.1734 21.7632H77.7V25.1894H81.1734V21.7632Z" fill="url(#paint13_linear)"/>
<path d="M95.2896 21.7632H90.9929V25.1894H95.2896V21.7632Z" fill="url(#paint14_linear)"/>
<path d="M19.5626 37.0576H1.71271V40.4838H19.5626V37.0576Z" fill="url(#paint15_linear)"/>
<path d="M76.2693 37.0576H71.5891V40.4838H76.2693V37.0576Z" fill="url(#paint16_linear)"/>
<path d="M95.2884 37.0576H89.5006V40.4838H95.2884V37.0576Z" fill="url(#paint17_linear)"/>
<path d="M95.2896 47.1729H77.4397V50.599H95.2896V47.1729Z" fill="url(#paint18_linear)"/>
<path d="M25.4132 47.1729H20.733V50.599H25.4132V47.1729Z" fill="url(#paint19_linear)"/>
<path d="M7.50053 47.1729H1.71271V50.599H7.50053V47.1729Z" fill="url(#paint20_linear)"/>
<path d="M19.5626 57.2869H1.71271V60.713H19.5626V57.2869Z" fill="url(#paint21_linear)"/>
<path d="M76.2693 57.2869H71.5891V60.713H76.2693V57.2869Z" fill="url(#paint22_linear)"/>
<path d="M95.2884 57.2869H89.5006V60.713H95.2884V57.2869Z" fill="url(#paint23_linear)"/>
<defs>
<linearGradient id="paint0_linear" x1="0" y1="37.0565" x2="0.850418" y2="101.273" gradientUnits="userSpaceOnUse">
<stop stop-color="#F41E3D"/>
<stop offset="1" stop-color="#D5122E"/>
</linearGradient>
<linearGradient id="paint1_linear" x1="34.8708" y1="76.8481" x2="35.0606" y2="92.9327" gradientUnits="userSpaceOnUse">
<stop stop-color="#F41E3D"/>
<stop offset="1" stop-color="#D5122E"/>
</linearGradient>
<linearGradient id="paint2_linear" x1="0.502396" y1="0" x2="1.65615" y2="32.5486" gradientUnits="userSpaceOnUse">
<stop stop-color="#F41E3D"/>
<stop offset="1" stop-color="#D5122E"/>
</linearGradient>
<linearGradient id="paint3_linear" x1="25.8425" y1="6.74963" x2="25.861" y2="10.2456" gradientUnits="userSpaceOnUse">
<stop stop-color="#F41E3D"/>
<stop offset="1" stop-color="#D5122E"/>
</linearGradient>
<linearGradient id="paint4_linear" x1="47.3336" y1="6.74963" x2="47.346" y2="10.2457" gradientUnits="userSpaceOnUse">
<stop stop-color="#F41E3D"/>
<stop offset="1" stop-color="#D5122E"/>
</linearGradient>
<linearGradient id="paint5_linear" x1="77.7" y1="6.74963" x2="77.7704" y2="10.2443" gradientUnits="userSpaceOnUse">
<stop stop-color="#F41E3D"/>
<stop offset="1" stop-color="#D5122E"/>
</linearGradient>
<linearGradient id="paint6_linear" x1="90.9929" y1="6.74963" x2="91.0498" y2="10.2448" gradientUnits="userSpaceOnUse">
<stop stop-color="#F41E3D"/>
<stop offset="1" stop-color="#D5122E"/>
</linearGradient>
<linearGradient id="paint7_linear" x1="82.0423" y1="14.2552" x2="82.0608" y2="17.7513" gradientUnits="userSpaceOnUse">
<stop stop-color="#F41E3D"/>
<stop offset="1" stop-color="#D5122E"/>
</linearGradient>
<linearGradient id="paint8_linear" x1="54.0737" y1="14.2552" x2="54.0861" y2="17.7513" gradientUnits="userSpaceOnUse">
<stop stop-color="#F41E3D"/>
<stop offset="1" stop-color="#D5122E"/>
</linearGradient>
<linearGradient id="paint9_linear" x1="39.9587" y1="14.2552" x2="40.0291" y2="17.7499" gradientUnits="userSpaceOnUse">
<stop stop-color="#F41E3D"/>
<stop offset="1" stop-color="#D5122E"/>
</linearGradient>
<linearGradient id="paint10_linear" x1="25.8425" y1="14.2552" x2="25.8994" y2="17.7504" gradientUnits="userSpaceOnUse">
<stop stop-color="#F41E3D"/>
<stop offset="1" stop-color="#D5122E"/>
</linearGradient>
<linearGradient id="paint11_linear" x1="25.8425" y1="21.7632" x2="25.861" y2="25.2592" gradientUnits="userSpaceOnUse">
<stop stop-color="#F41E3D"/>
<stop offset="1" stop-color="#D5122E"/>
</linearGradient>
<linearGradient id="paint12_linear" x1="47.3336" y1="21.7632" x2="47.346" y2="25.2592" gradientUnits="userSpaceOnUse">
<stop stop-color="#F41E3D"/>
<stop offset="1" stop-color="#D5122E"/>
</linearGradient>
<linearGradient id="paint13_linear" x1="77.7" y1="21.7632" x2="77.7704" y2="25.2579" gradientUnits="userSpaceOnUse">
<stop stop-color="#F41E3D"/>
<stop offset="1" stop-color="#D5122E"/>
</linearGradient>
<linearGradient id="paint14_linear" x1="90.9929" y1="21.7632" x2="91.0498" y2="25.2584" gradientUnits="userSpaceOnUse">
<stop stop-color="#F41E3D"/>
<stop offset="1" stop-color="#D5122E"/>
</linearGradient>
<linearGradient id="paint15_linear" x1="1.71271" y1="37.0576" x2="1.7264" y2="40.5537" gradientUnits="userSpaceOnUse">
<stop stop-color="#F41E3D"/>
<stop offset="1" stop-color="#D5122E"/>
</linearGradient>
<linearGradient id="paint16_linear" x1="71.5891" y1="37.0576" x2="71.6413" y2="40.5529" gradientUnits="userSpaceOnUse">
<stop stop-color="#F41E3D"/>
<stop offset="1" stop-color="#D5122E"/>
</linearGradient>
<linearGradient id="paint17_linear" x1="89.5006" y1="37.0576" x2="89.5428" y2="40.5532" gradientUnits="userSpaceOnUse">
<stop stop-color="#F41E3D"/>
<stop offset="1" stop-color="#D5122E"/>
</linearGradient>
<linearGradient id="paint18_linear" x1="77.4397" y1="47.1729" x2="77.4534" y2="50.6689" gradientUnits="userSpaceOnUse">
<stop stop-color="#F41E3D"/>
<stop offset="1" stop-color="#D5122E"/>
</linearGradient>
<linearGradient id="paint19_linear" x1="20.733" y1="47.1729" x2="20.7852" y2="50.6682" gradientUnits="userSpaceOnUse">
<stop stop-color="#F41E3D"/>
<stop offset="1" stop-color="#D5122E"/>
</linearGradient>
<linearGradient id="paint20_linear" x1="1.71271" y1="47.1729" x2="1.75494" y2="50.6684" gradientUnits="userSpaceOnUse">
<stop stop-color="#F41E3D"/>
<stop offset="1" stop-color="#D5122E"/>
</linearGradient>
<linearGradient id="paint21_linear" x1="1.71271" y1="57.2869" x2="1.7264" y2="60.7829" gradientUnits="userSpaceOnUse">
<stop stop-color="#F41E3D"/>
<stop offset="1" stop-color="#D5122E"/>
</linearGradient>
<linearGradient id="paint22_linear" x1="71.5891" y1="57.2869" x2="71.6413" y2="60.7822" gradientUnits="userSpaceOnUse">
<stop stop-color="#F41E3D"/>
<stop offset="1" stop-color="#D5122E"/>
</linearGradient>
<linearGradient id="paint23_linear" x1="89.5006" y1="57.2869" x2="89.5428" y2="60.7825" gradientUnits="userSpaceOnUse">
<stop stop-color="#F41E3D"/>
<stop offset="1" stop-color="#D5122E"/>
</linearGradient>
</defs>
</svg>
