<svg width="72" height="73" viewBox="0 0 72 73" fill="none" xmlns="http://www.w3.org/2000/svg">
<rect width="69.0954" height="69.1023" fill="black" fill-opacity="0" transform="translate(2 1.89746)"/>
<rect width="69.0954" height="69.1023" fill="black" fill-opacity="0" transform="translate(2 1.89746)"/>
<path d="M18.6782 1.89746H11.5304V9.04599H18.6782V1.89746Z" stroke="white" stroke-width="2.5" stroke-miterlimit="10" stroke-linejoin="round"/>
<path d="M9.1478 18.5776H2V25.7262H9.1478V18.5776Z" stroke="white" stroke-width="2.5" stroke-miterlimit="10" stroke-linejoin="round"/>
<path d="M28.2087 18.5776H21.0609V25.7262H28.2087V18.5776Z" stroke="white" stroke-width="2.5" stroke-miterlimit="10" stroke-linejoin="round"/>
<path d="M5.5739 18.5775V13.8118H24.6347V18.5775" stroke="white" stroke-width="2.5" stroke-miterlimit="10" stroke-linejoin="round"/>
<path d="M15.1043 9.04578V13.8115" stroke="white" stroke-width="2.5" stroke-miterlimit="10" stroke-linejoin="round"/>
<path d="M61.565 11.4287H56.7998V25.7258H61.565V11.4287Z" stroke="white" stroke-width="2.5" stroke-miterlimit="10" stroke-linejoin="round"/>
<path d="M66.3302 13.8118H61.565V25.726H66.3302V13.8118Z" stroke="white" stroke-width="2.5" stroke-miterlimit="10" stroke-linejoin="round"/>
<path d="M56.7998 17.3857H52.0346V25.7257H56.7998V17.3857Z" stroke="white" stroke-width="2.5" stroke-miterlimit="10" stroke-linejoin="round"/>
<path d="M52.0346 20.96H47.2694V25.7256H52.0346V20.96Z" stroke="white" stroke-width="2.5" stroke-miterlimit="10" stroke-linejoin="round"/>
<path d="M69.9041 25.7258H43.6955" stroke="white" stroke-width="2.5" stroke-miterlimit="10" stroke-linejoin="round"/>
<path d="M41.3129 12.6203L46.0781 7.85457L49.652 10.2374L57.9911 4.2803L62.7563 6.66315L71.0954 1.89746" stroke="white" stroke-width="2.5" stroke-miterlimit="10" stroke-linejoin="round"/>
<path d="M36.5477 57.8939C44.443 57.8939 50.8433 51.4929 50.8433 43.5969C50.8433 35.7008 44.443 29.2998 36.5477 29.2998C28.6525 29.2998 22.2521 35.7008 22.2521 43.5969C22.2521 51.4929 28.6525 57.8939 36.5477 57.8939Z" stroke="white" stroke-width="2.5" stroke-miterlimit="10" stroke-linejoin="round"/>
<path d="M40.1216 41.2144C40.1216 39.2402 38.5217 37.6401 36.5477 37.6401C34.5737 37.6401 32.9738 39.2402 32.9738 41.2144L40.1216 45.9801C40.1216 47.9543 38.5217 49.5544 36.5477 49.5544C34.5737 49.5544 32.9738 47.9543 32.9738 45.9801" stroke="white" stroke-width="2.5" stroke-miterlimit="10" stroke-linejoin="round"/>
<path d="M36.5477 34.0657V37.6399" stroke="white" stroke-width="2.5" stroke-miterlimit="10" stroke-linejoin="round"/>
<path d="M36.5477 53.1287V49.5544" stroke="white" stroke-width="2.5" stroke-miterlimit="10" stroke-linejoin="round"/>
<path d="M59.6554 70.9997H59.2623C57.6957 70.9997 56.2042 70.3302 55.163 69.159L47.2694 60.2769L53.2259 54.3198L62.8004 61.0228C64.2657 62.0486 65.1389 63.7261 65.1389 65.5156C65.1389 68.5442 62.6837 70.9997 59.6554 70.9997Z" stroke="white" stroke-width="2.5" stroke-miterlimit="10" stroke-linejoin="round"/>
<path d="M48.2784 51.7549C47.3075 53.1477 46.0972 54.3581 44.7045 55.3291L48.4607 59.0857L52.0346 55.5114L48.2784 51.7549Z" stroke="white" stroke-width="2.5" stroke-miterlimit="10" stroke-linejoin="round"/>
<path d="M23.4434 10.2373C27.4236 8.37629 31.8635 7.33618 36.5477 7.33618C38.1679 7.33618 39.7595 7.46009 41.3129 7.70076" stroke="white" stroke-width="2.5" stroke-miterlimit="10" stroke-linejoin="round" stroke-dasharray="2 2"/>
<path d="M49.652 67.4253C45.3359 69.7069 40.4158 70.9996 35.1944 70.9996C18.0885 70.9996 4.22057 57.1302 4.22057 40.0226C4.22057 36.2529 4.89365 32.6417 6.12665 29.2998" stroke="white" stroke-width="2.5" stroke-miterlimit="10" stroke-linejoin="round" stroke-dasharray="2 2"/>
<path d="M65.6178 30.6606C66.8484 34.0002 67.5215 37.6102 67.5215 41.3787C67.5215 47.4502 65.7751 53.1142 62.7563 57.8942" stroke="white" stroke-width="2.5" stroke-miterlimit="10" stroke-linejoin="round" stroke-dasharray="2 2"/>
</svg>
