<svg width="100" height="84" viewBox="0 0 100 84" fill="none" xmlns="http://www.w3.org/2000/svg">
<rect width="100" height="84" fill="black" fill-opacity="0"/>
<rect width="100" height="84" fill="black" fill-opacity="0"/>
<path d="M39.2096 0L100 16.427L89.4691 56.0651L81.6454 53.9504V84H0V23.8432H32.8737L39.2096 0ZM77.5219 28.0015H4.12241V79.8417H77.5219V28.0015ZM41.0382 3.19469L35.5523 23.8432H40.3026C39.9991 23.1313 40.1014 22.507 40.2047 21.7818C40.6974 20.1539 41.7904 19.4309 43.398 19.2058C44.2007 19.2546 43.8598 19.1992 44.4283 19.3223C46.268 19.819 47.3599 21.7263 46.8672 23.5815C46.8068 23.7722 46.8354 23.6846 46.7848 23.8432H51.5317L51.711 23.1801L54.1169 23.8432H81.6454V31.4246L86.3089 32.7087L85.6271 35.2247L81.6454 34.128V42.2395L83.6313 42.7862L82.9496 45.3022L81.6454 44.943V51.2503L87.6394 52.8704L96.8332 18.271L41.0382 3.19469Z" fill="url(#paint0_linear)"/>
<path d="M54.5007 12.4061L89.0985 21.9347L88.4168 24.4508L53.8189 14.9222L54.5007 12.4061Z" fill="url(#paint1_linear)"/>
<path d="M45.4103 15.6275C43.5706 15.1296 42.4787 13.2234 42.9724 11.3683C43.4651 9.51311 45.3564 8.41199 47.196 8.90877C49.0357 9.40666 50.1276 11.3128 49.6338 13.168C49.1412 15.0231 47.2499 16.1243 45.4103 15.6275Z" fill="url(#paint2_linear)"/>
<path d="M35.3907 32.7421L38.4234 35.5597C37.8604 36.1752 37.8604 36.1752 35.6117 38.638C33.7479 40.6772 31.8841 42.7176 30.0202 44.7568C27.7595 47.2307 25.4987 49.7046 23.239 52.1785C20.9892 54.6403 20.9892 54.6403 20.4273 55.2557L18.934 56.8891L17.4166 55.2801C16.405 54.2067 16.405 54.2067 13.3712 50.9887C10.3363 47.7707 10.3363 47.7707 9.32573 46.6973L12.3133 43.8331C13.325 44.9054 13.325 44.9054 16.3588 48.1234C17.2022 49.0171 18.0445 49.9109 18.8868 50.8046C19.7104 49.9031 19.2705 50.3844 20.2063 49.3609C22.0701 47.3205 23.9339 45.2813 25.7978 43.241C28.0585 40.767 30.3182 38.2931 32.579 35.8203C34.8288 33.3575 34.8288 33.3575 35.3907 32.7421Z" fill="url(#paint3_linear)"/>
<path d="M66.6172 53.4304L69.6499 56.2481C69.088 56.8646 69.088 56.8646 66.8382 59.3263C64.9744 61.3656 63.1105 63.4059 61.2467 65.4463C58.9859 67.9191 56.7263 70.393 54.4655 72.8669C52.2157 75.3286 52.2157 75.3286 51.6538 75.944L48.6211 73.1264C49.1841 72.5109 49.1841 72.5109 51.4328 70.0492C53.2966 68.01 55.1604 65.9697 57.0243 63.9293C59.285 61.4554 61.5458 58.9826 63.8055 56.5087C66.0553 54.047 66.0553 54.047 66.6172 53.4304Z" fill="url(#paint4_linear)"/>
<path d="M51.6538 53.4304C52.2157 54.047 52.2157 54.047 54.4655 56.5087C56.3293 58.5479 58.1931 60.5883 60.057 62.6275C62.3177 65.1014 64.5774 67.5753 66.8382 70.0492C69.088 72.5109 69.088 72.5109 69.6499 73.1264L66.6172 75.944C66.0553 75.3286 66.0553 75.3286 63.8055 72.8669C61.9417 70.8277 60.0778 68.7873 58.214 66.747C55.9532 64.2742 53.6936 61.8003 51.4328 59.3263C49.1841 56.8646 49.1841 56.8646 48.6211 56.2481L51.6538 53.4304Z" fill="url(#paint5_linear)"/>
<path d="M50.453 34.1146L54.0355 36.1727C53.3406 37.4036 53.3406 37.4036 50.5597 42.3281C47.0828 48.4824 47.0828 48.4824 42.9109 55.8687C38.7401 63.2549 38.7401 63.2549 35.2631 69.4092C32.4822 74.3338 32.4822 74.3338 31.7862 75.5646L28.2037 73.5065C28.8986 72.2757 28.8986 72.2757 31.6806 67.3511C35.1565 61.1968 35.1565 61.1968 39.3284 53.8106C43.5002 46.4243 43.5003 46.4243 46.9761 40.27C49.7581 35.3455 49.7581 35.3455 50.453 34.1146Z" fill="url(#paint6_linear)"/>
<defs>
<linearGradient id="paint0_linear" x1="0" y1="0" x2="1.46896" y2="85.6891" gradientUnits="userSpaceOnUse">
<stop stop-color="#F41E3D"/>
<stop offset="1" stop-color="#D5122E"/>
</linearGradient>
<linearGradient id="paint1_linear" x1="53.8189" y1="12.4061" x2="53.9045" y2="24.696" gradientUnits="userSpaceOnUse">
<stop stop-color="#F41E3D"/>
<stop offset="1" stop-color="#D5122E"/>
</linearGradient>
<linearGradient id="paint2_linear" x1="42.8538" y1="8.78955" x2="42.9998" y2="15.8857" gradientUnits="userSpaceOnUse">
<stop stop-color="#F41E3D"/>
<stop offset="1" stop-color="#D5122E"/>
</linearGradient>
<linearGradient id="paint3_linear" x1="9.32573" y1="32.7421" x2="9.74291" y2="57.3748" gradientUnits="userSpaceOnUse">
<stop stop-color="#F41E3D"/>
<stop offset="1" stop-color="#D5122E"/>
</linearGradient>
<linearGradient id="paint4_linear" x1="48.6211" y1="53.4304" x2="49.1228" y2="76.3925" gradientUnits="userSpaceOnUse">
<stop stop-color="#F41E3D"/>
<stop offset="1" stop-color="#D5122E"/>
</linearGradient>
<linearGradient id="paint5_linear" x1="48.6211" y1="53.4304" x2="49.1228" y2="76.3925" gradientUnits="userSpaceOnUse">
<stop stop-color="#F41E3D"/>
<stop offset="1" stop-color="#D5122E"/>
</linearGradient>
<linearGradient id="paint6_linear" x1="28.2037" y1="34.1146" x2="29.5873" y2="76.3652" gradientUnits="userSpaceOnUse">
<stop stop-color="#F41E3D"/>
<stop offset="1" stop-color="#D5122E"/>
</linearGradient>
</defs>
</svg>
