<svg width="100" height="101" viewBox="0 0 100 101" fill="none" xmlns="http://www.w3.org/2000/svg">
<rect width="100" height="100.001" fill="black" fill-opacity="0"/>
<path d="M2.33326 72.2143C5.05405 78.0527 13.8782 79.7223 18.6993 84.1455C23.3501 88.4125 25.7024 97.119 32.0022 99.4136C33.1317 99.8148 34.3232 100.014 35.5218 100.001C40.9477 100.001 46.8453 96.5041 52.0082 96.2778C52.2165 96.2687 52.426 96.2642 52.6367 96.2643C57.4664 96.2644 62.9292 98.5596 67.748 98.5596C69.2841 98.5948 70.809 98.2901 72.2137 97.6674C78.0521 94.9466 79.7217 86.1225 84.145 81.3013C88.4119 76.6506 97.1184 74.2982 99.413 67.9985C101.708 61.6988 96.5536 54.2979 96.2772 47.9925C95.9908 41.456 100.388 33.6253 97.6668 27.7869C94.946 21.9486 86.1218 20.2789 81.3007 15.8557C76.65 11.5887 74.2977 2.88217 67.9979 0.587565C66.8684 0.186328 65.6768 -0.0123768 64.4782 0.000596603C59.0524 0.000791915 53.1547 3.49716 47.9918 3.72339C47.7836 3.73254 47.5741 3.73704 47.3633 3.7369C42.5337 3.7369 37.0709 1.44159 32.2521 1.44159C30.716 1.40641 29.191 1.71107 27.7864 2.33378C21.9479 5.05462 20.2783 13.8787 15.8551 18.6999C11.5881 23.3506 2.88159 25.7029 0.586982 32.0027C-1.70763 38.3025 3.44651 45.7033 3.72281 52.0088C4.00922 58.5452 -0.38755 66.3759 2.33326 72.2143ZM3.53779 33.0775C4.56949 30.2449 7.76991 28.2402 11.1582 26.1179C13.6469 24.559 16.2204 22.947 18.1691 20.823C20.2065 18.6023 21.6479 15.8275 23.0418 13.1441C24.8514 9.66029 26.5607 6.36968 29.1129 5.18033C30.1026 4.75256 31.1744 4.54827 32.252 4.58201C34.5709 4.69958 36.8711 5.05863 39.1155 5.65334C41.8122 6.35925 44.5778 6.76966 47.3633 6.87733C47.6203 6.87733 47.8756 6.87182 48.1293 6.8608C51.009 6.73463 53.8985 5.80078 56.6929 4.89765C59.4879 3.99435 62.1279 3.14107 64.4787 3.14103C65.3106 3.12798 66.1382 3.26249 66.9231 3.53832C69.7557 4.57007 71.7604 7.77049 73.8828 11.1588C75.4417 13.6475 77.0536 16.2209 79.1777 18.1697C81.3983 20.2071 84.1731 21.6485 86.8565 23.0423C90.3403 24.852 93.6309 26.5612 94.8203 29.1135C96.0097 31.6656 95.2022 35.2847 94.3473 39.1161C93.6888 42.0674 93.0079 45.1191 93.1399 48.13C93.266 51.0098 94.1999 53.8991 95.103 56.6934C96.3326 60.4978 97.494 64.0911 96.4623 66.9237C95.4306 69.7563 92.2302 71.761 88.8419 73.8834C86.3532 75.4423 83.7797 77.0542 81.8309 79.1782C79.7935 81.3989 78.3521 84.1737 76.9583 86.8571C75.1487 90.341 73.4394 93.6316 70.8872 94.8209C69.8975 95.2487 68.8256 95.453 67.748 95.4192C65.4292 95.3017 63.1289 94.9426 60.8846 94.3479C58.1878 93.642 55.4223 93.2316 52.6367 93.1239C52.3798 93.1239 52.1245 93.1294 51.8708 93.1404C48.9911 93.2666 46.1016 94.2005 43.3072 95.1036C40.5123 96.0069 37.8723 96.8602 35.5219 96.8602C34.6898 96.8733 33.8621 96.7387 33.077 96.4629C30.2444 95.4311 28.2397 92.2307 26.1173 88.8424C24.5584 86.3537 22.9465 83.7803 20.8224 81.8315C18.6018 79.7941 15.827 78.3527 13.1436 76.9589C9.65975 75.1493 6.36915 73.44 5.17971 70.8877C3.99036 68.3356 4.79784 64.7166 5.65272 60.8851C6.31122 57.9339 6.99211 54.8821 6.86019 51.8713C6.73401 48.9915 5.80011 46.1021 4.89699 43.3078C3.66747 39.5034 2.50605 35.9101 3.53779 33.0775Z" fill="url(#paint0_linear)"/>
<path d="M50 81.4047C56.2112 81.4047 62.2829 79.5629 67.4473 76.1122C72.6117 72.6614 76.6369 67.7568 79.0138 62.0184C81.3907 56.28 82.0126 49.9656 80.8009 43.8738C79.5891 37.782 76.5982 32.1863 72.2062 27.7943C67.8142 23.4023 62.2185 20.4114 56.1267 19.1996C50.0349 17.9879 43.7205 18.6098 37.9821 20.9867C32.2438 23.3636 27.3391 27.3888 23.8883 32.5532C20.4376 37.7176 18.5958 43.7893 18.5958 50.0005C18.5958 54.1245 19.4081 58.2082 20.9863 62.0184C22.5645 65.8285 24.8777 69.2905 27.7939 72.2066C30.71 75.1228 34.172 77.436 37.9821 79.0142C41.7923 80.5924 45.876 81.4047 50 81.4047ZM50 21.7366C55.5901 21.7366 61.0546 23.3943 65.7026 26.4999C70.3506 29.6056 73.9732 34.0198 76.1124 39.1844C78.2517 44.3489 78.8114 50.0318 77.7208 55.5145C76.6302 60.9971 73.9384 66.0333 69.9856 69.986C66.0328 73.9388 60.9967 76.6307 55.514 77.7212C50.0314 78.8118 44.3485 78.2521 39.1839 76.1129C34.0194 73.9736 29.6052 70.351 26.4995 65.703C23.3938 61.0551 21.7362 55.5905 21.7362 50.0005C21.7447 42.507 24.7252 35.3229 30.0238 30.0243C35.3225 24.7256 42.5066 21.7451 50 21.7366Z" fill="url(#paint1_linear)"/>
<path d="M50 87.6858C57.4534 87.6858 64.7395 85.4756 70.9368 81.3347C77.1341 77.1938 81.9643 71.3082 84.8166 64.4221C87.6689 57.536 88.4152 49.9588 86.9611 42.6486C85.507 35.3384 81.9178 28.6235 76.6475 23.3532C71.3771 18.0828 64.6622 14.4936 57.352 13.0396C50.0418 11.5855 42.4646 12.3318 35.5785 15.1841C28.6925 18.0364 22.8069 22.8666 18.666 29.0639C14.5251 35.2611 12.3149 42.5472 12.3149 50.0006C12.3149 54.9495 13.2896 59.8499 15.1835 64.4221C17.0773 68.9943 19.8532 73.1487 23.3526 76.6481C26.852 80.1474 31.0064 82.9233 35.5785 84.8172C40.1507 86.711 45.0511 87.6858 50 87.6858ZM50 15.4559C56.8323 15.4559 63.5112 17.482 69.192 21.2778C74.8729 25.0736 79.3006 30.4688 81.9152 36.781C84.5298 43.0932 85.2139 50.039 83.881 56.74C82.548 63.441 79.258 69.5963 74.4268 74.4275C69.5956 79.2586 63.4404 82.5487 56.7393 83.8816C50.0383 85.2145 43.0925 84.5304 36.7803 81.9158C30.4681 79.3012 25.073 74.8735 21.2771 69.1926C17.4813 63.5118 15.4553 56.8329 15.4553 50.0006C15.4657 40.842 19.1085 32.0614 25.5847 25.5853C32.0608 19.1091 40.8414 15.4663 50 15.4559V15.4559Z" fill="url(#paint2_linear)"/>
<path d="M42.5091 65.805C42.8915 65.8054 43.2609 65.6658 43.5474 65.4126L71.157 41.0665C71.3116 40.9301 71.4379 40.7646 71.5286 40.5794C71.6193 40.3942 71.6726 40.193 71.6856 39.9872C71.6985 39.7814 71.6708 39.575 71.6039 39.3799C71.5371 39.1849 71.4325 39.0048 71.2962 38.8502L67.1422 34.1396C67.0058 33.985 66.8403 33.8587 66.6552 33.768C66.47 33.6773 66.2687 33.6239 66.0629 33.611C65.8571 33.5981 65.6508 33.6258 65.4557 33.6926C65.2607 33.7594 65.0807 33.864 64.926 34.0004L42.8775 53.4422L35.4639 45.9455C35.171 45.6494 34.7726 45.4817 34.3561 45.4794C33.9397 45.4771 33.5394 45.6403 33.2433 45.9331L28.7775 50.3493C28.6309 50.4943 28.5143 50.6667 28.4343 50.8568C28.3543 51.0468 28.3126 51.2508 28.3114 51.457C28.3103 51.6632 28.3498 51.8676 28.4276 52.0585C28.5055 52.2495 28.6202 52.4232 28.7652 52.5698L41.3924 65.3389C41.5383 65.4868 41.7122 65.6042 41.9039 65.6842C42.0956 65.7642 42.3014 65.8053 42.5091 65.805ZM34.335 49.2702L40.6445 55.6504L42.73 57.7592L44.9545 55.7977L65.8253 37.3944L67.9022 39.7496L42.5826 62.0763L32.1022 51.4782L34.335 49.2702Z" fill="url(#paint3_linear)"/>
<defs>
<linearGradient id="paint0_linear" x1="0" y1="0" x2="2.08165" y2="102" gradientUnits="userSpaceOnUse">
<stop stop-color="#F41E3D"/>
<stop offset="1" stop-color="#D5122E"/>
</linearGradient>
<linearGradient id="paint1_linear" x1="18.5958" y1="18.5962" x2="19.9032" y2="82.6599" gradientUnits="userSpaceOnUse">
<stop stop-color="#F41E3D"/>
<stop offset="1" stop-color="#D5122E"/>
</linearGradient>
<linearGradient id="paint2_linear" x1="12.3149" y1="12.3154" x2="13.8838" y2="89.1919" gradientUnits="userSpaceOnUse">
<stop stop-color="#F41E3D"/>
<stop offset="1" stop-color="#D5122E"/>
</linearGradient>
<linearGradient id="paint3_linear" x1="28.3114" y1="33.6079" x2="28.809" y2="66.4546" gradientUnits="userSpaceOnUse">
<stop stop-color="#F41E3D"/>
<stop offset="1" stop-color="#D5122E"/>
</linearGradient>
</defs>
</svg>
