<svg width="100" height="84" viewBox="0 0 100 84" fill="none" xmlns="http://www.w3.org/2000/svg">
<rect width="100" height="84" fill="black" fill-opacity="0"/>
<rect width="100" height="84" fill="black" fill-opacity="0"/>
<path d="M82.3877 49.1732H76.9184V4.03555C76.9184 2.96526 76.4883 1.9388 75.7229 1.18199C74.9574 0.425173 73.9193 0 72.8367 0H27.1735C26.091 0 25.0528 0.425173 24.2873 1.18199C23.5219 1.9388 23.0918 2.96526 23.0918 4.03555V49.1732H17.6122C12.9412 49.1732 8.46144 51.0078 5.15851 54.2735C1.85557 57.5391 0 61.9683 0 66.5866C0 71.2049 1.85557 75.6341 5.15851 78.8997C8.46144 82.1654 12.9412 84 17.6122 84H82.3877C87.0588 84 91.5386 82.1654 94.8415 78.8997C98.1444 75.6341 100 71.2049 100 66.5866C100 61.9683 98.1444 57.5391 94.8415 54.2735C91.5386 51.0078 87.0588 49.1732 82.3877 49.1732ZM27.1735 4.03555H72.8367V49.1732H27.1735V4.03555ZM82.3877 79.9644H17.6122C14.0237 79.9644 10.5821 78.555 8.04466 76.0462C5.50718 73.5373 4.08163 70.1346 4.08163 66.5866C4.08163 63.0386 5.50718 59.6359 8.04466 57.127C10.5821 54.6182 14.0237 53.2087 17.6122 53.2087H82.3877C85.9763 53.2087 89.4179 54.6182 91.9553 57.127C94.4928 59.6359 95.9184 63.0386 95.9184 66.5866C95.9184 70.1346 94.4928 73.5373 91.9553 76.0462C89.4179 78.555 85.9763 79.9644 82.3877 79.9644Z" fill="url(#paint0_linear)"/>
<path d="M59.1837 15.1334H40.8163V19.169H59.1837V15.1334Z" fill="url(#paint1_linear)"/>
<path d="M20.2245 55.418C17.9904 55.418 15.8064 56.073 13.9488 57.3002C12.0912 58.5274 10.6434 60.2716 9.78841 62.3124C8.93345 64.3532 8.70976 66.5987 9.14561 68.7652C9.58147 70.9317 10.6573 72.9217 12.2371 74.4836C13.8168 76.0455 15.8296 77.1092 18.0208 77.5402C20.212 77.9711 22.4832 77.7499 24.5472 76.9046C26.6113 76.0593 28.3755 74.6278 29.6167 72.7912C30.8579 70.9546 31.5204 68.7953 31.5204 66.5864C31.5177 63.6251 30.3267 60.786 28.2089 58.6921C26.0911 56.5982 23.2195 55.4206 20.2245 55.418ZM20.2245 73.7192C18.7976 73.7192 17.4028 73.3009 16.2164 72.5171C15.0301 71.7333 14.1054 70.6193 13.5594 69.316C13.0133 68.0126 12.8705 66.5785 13.1488 65.1948C13.4272 63.8112 14.1143 62.5402 15.1232 61.5427C16.1321 60.5451 17.4176 59.8658 18.817 59.5906C20.2165 59.3154 21.667 59.4566 22.9853 59.9965C24.3035 60.5363 25.4302 61.4506 26.2229 62.6236C27.0157 63.7966 27.4388 65.1756 27.4388 66.5864C27.4361 68.4773 26.6751 70.29 25.3228 71.6271C23.9704 72.9642 22.137 73.7165 20.2245 73.7192Z" fill="url(#paint2_linear)"/>
<path d="M50 55.418C47.7659 55.418 45.5819 56.073 43.7243 57.3002C41.8667 58.5274 40.4189 60.2716 39.5639 62.3124C38.709 64.3532 38.4853 66.5987 38.9211 68.7652C39.357 70.9317 40.4328 72.9217 42.0126 74.4836C43.5923 76.0455 45.6051 77.1092 47.7963 77.5402C49.9875 77.9711 52.2587 77.7499 54.3228 76.9046C56.3868 76.0593 58.151 74.6278 59.3922 72.7912C60.6334 70.9546 61.2959 68.7953 61.2959 66.5864C61.2932 63.6251 60.1022 60.786 57.9844 58.6921C55.8666 56.5982 52.995 55.4206 50 55.418ZM50 73.7192C48.5731 73.7192 47.1783 73.3009 45.992 72.5171C44.8056 71.7333 43.8809 70.6193 43.3349 69.316C42.7888 68.0126 42.646 66.5785 42.9243 65.1948C43.2027 63.8112 43.8898 62.5402 44.8987 61.5427C45.9077 60.5451 47.1931 59.8658 48.5926 59.5906C49.992 59.3154 51.4425 59.4566 52.7608 59.9965C54.079 60.5363 55.2057 61.4506 55.9985 62.6236C56.7912 63.7966 57.2143 65.1756 57.2143 66.5864C57.2116 68.4773 56.4506 70.29 55.0983 71.6271C53.7459 72.9642 51.9125 73.7165 50 73.7192Z" fill="url(#paint3_linear)"/>
<path d="M79.7755 55.418C77.5414 55.418 75.3574 56.073 73.4998 57.3002C71.6422 58.5274 70.1944 60.2716 69.3394 62.3124C68.4845 64.3532 68.2608 66.5987 68.6966 68.7652C69.1325 70.9317 70.2083 72.9217 71.7881 74.4836C73.3678 76.0455 75.3806 77.1092 77.5718 77.5402C79.763 77.9711 82.0342 77.7499 84.0983 76.9046C86.1623 76.0593 87.9265 74.6278 89.1677 72.7912C90.4089 70.9546 91.0714 68.7953 91.0714 66.5864C91.0687 63.6251 89.8778 60.786 87.7599 58.6921C85.6421 56.5982 82.7705 55.4206 79.7755 55.418ZM79.7755 73.7192C78.3487 73.7192 76.9538 73.3009 75.7675 72.5171C74.5811 71.7333 73.6564 70.6193 73.1104 69.316C72.5643 68.0126 72.4215 66.5785 72.6998 65.1948C72.9782 63.8112 73.6653 62.5402 74.6742 61.5427C75.6832 60.5451 76.9686 59.8658 78.3681 59.5906C79.7675 59.3154 81.2181 59.4566 82.5363 59.9965C83.8545 60.5363 84.9812 61.4506 85.774 62.6236C86.5667 63.7966 86.9898 65.1756 86.9898 66.5864C86.9871 68.4773 86.2262 70.29 84.8738 71.6271C83.5214 72.9642 81.688 73.7165 79.7755 73.7192Z" fill="url(#paint4_linear)"/>
<defs>
<linearGradient id="paint0_linear" x1="0" y1="0" x2="1.46896" y2="85.6891" gradientUnits="userSpaceOnUse">
<stop stop-color="#F41E3D"/>
<stop offset="1" stop-color="#D5122E"/>
</linearGradient>
<linearGradient id="paint1_linear" x1="40.8163" y1="15.1334" x2="40.8348" y2="19.2512" gradientUnits="userSpaceOnUse">
<stop stop-color="#F41E3D"/>
<stop offset="1" stop-color="#D5122E"/>
</linearGradient>
<linearGradient id="paint2_linear" x1="8.92856" y1="55.418" x2="9.38828" y2="78.2013" gradientUnits="userSpaceOnUse">
<stop stop-color="#F41E3D"/>
<stop offset="1" stop-color="#D5122E"/>
</linearGradient>
<linearGradient id="paint3_linear" x1="38.7041" y1="55.418" x2="39.1638" y2="78.2013" gradientUnits="userSpaceOnUse">
<stop stop-color="#F41E3D"/>
<stop offset="1" stop-color="#D5122E"/>
</linearGradient>
<linearGradient id="paint4_linear" x1="68.4796" y1="55.418" x2="68.9393" y2="78.2013" gradientUnits="userSpaceOnUse">
<stop stop-color="#F41E3D"/>
<stop offset="1" stop-color="#D5122E"/>
</linearGradient>
</defs>
</svg>
