<svg width="70" height="70" viewBox="0 0 70 70" fill="none" xmlns="http://www.w3.org/2000/svg">
<rect width="69.9928" height="69.9999" fill="black" fill-opacity="0"/>
<rect width="69.9928" height="69.9999" fill="black" fill-opacity="0"/>
<rect width="69.9928" height="69.9999" fill="black" fill-opacity="0"/>
<path d="M16.3317 21.0002V18.6668C16.3317 17.3782 15.2871 16.3335 13.9986 16.3335H6.99929C5.71076 16.3335 4.6662 17.3782 4.6662 18.6668V21.0002C4.6662 22.2888 5.71076 23.3335 6.99929 23.3335H13.9986C15.2871 23.3335 16.3317 22.2888 16.3317 21.0002ZM6.99929 18.6668H13.9986V21.0002H6.99929V18.6668Z" fill="white"/>
<path d="M27.9971 16.3335H20.9978C19.7093 16.3335 18.6647 17.3782 18.6647 18.6668V21.0002C18.6647 22.2888 19.7093 23.3335 20.9978 23.3335H27.9971C29.2856 23.3335 30.3302 22.2888 30.3302 21.0002V18.6668C30.3302 17.3782 29.2856 16.3335 27.9971 16.3335ZM20.9978 21.0002V18.6668H27.9971V21.0002H20.9978Z" fill="white"/>
<path d="M32.6633 18.6668V21.0002C32.6633 22.2888 33.7078 23.3335 34.9964 23.3335H41.9956C43.2842 23.3335 44.3287 22.2888 44.3287 21.0002V18.6668C44.3287 17.3782 43.2842 16.3335 41.9956 16.3335H34.9964C33.7078 16.3335 32.6633 17.3782 32.6633 18.6668ZM41.9956 21.0002H34.9964V18.6668H41.9956V21.0002Z" fill="white"/>
<path d="M6.99925 8.1667H36.1629C36.8072 8.1667 37.3294 7.64437 37.3294 7.00004C37.3294 6.35571 36.8072 5.83337 36.1629 5.83337H6.99925C6.35498 5.83337 5.8327 6.35571 5.8327 7.00004C5.8327 7.64437 6.35498 8.1667 6.99925 8.1667Z" fill="white"/>
<path d="M6.99925 12.8333H25.664C26.3083 12.8333 26.8305 12.311 26.8305 11.6667C26.8305 11.0223 26.3083 10.5 25.664 10.5H6.99925C6.35498 10.5 5.8327 11.0223 5.8327 11.6667C5.8327 12.311 6.35498 12.8333 6.99925 12.8333Z" fill="white"/>
<path d="M26.8305 41.9999V39.6666C26.8305 38.3779 25.786 37.3333 24.4974 37.3333H17.4982C16.2096 37.3333 15.1651 38.3779 15.1651 39.6666V41.9999C15.1651 43.2886 16.2096 44.3332 17.4982 44.3332H24.4974C25.786 44.3332 26.8305 43.2886 26.8305 41.9999ZM17.4982 39.6666H24.4974V41.9999H17.4982V39.6666Z" fill="white"/>
<path d="M29.1636 39.6666V41.9999C29.1636 43.2886 30.2082 44.3332 31.4967 44.3332H38.496C39.7845 44.3332 40.8291 43.2886 40.8291 41.9999V39.6666C40.8291 38.3779 39.7845 37.3333 38.496 37.3333H31.4967C30.2082 37.3333 29.1636 38.3779 29.1636 39.6666ZM38.496 41.9999H31.4967V39.6666H38.496V41.9999Z" fill="white"/>
<path d="M45.4953 44.3332H52.4945C53.7831 44.3332 54.8276 43.2886 54.8276 41.9999V39.6666C54.8276 38.3779 53.7831 37.3333 52.4945 37.3333H45.4953C44.2067 37.3333 43.1622 38.3779 43.1622 39.6666V41.9999C43.1622 43.2886 44.2067 44.3332 45.4953 44.3332ZM45.4953 39.6666H52.4945V41.9999H45.4953V39.6666Z" fill="white"/>
<path d="M17.4982 33.8331H36.1629C36.8072 33.8331 37.3295 33.3108 37.3295 32.6664C37.3295 32.0221 36.8072 31.4998 36.1629 31.4998H17.4982C16.8539 31.4998 16.3316 32.0221 16.3316 32.6664C16.3316 33.3108 16.8539 33.8331 17.4982 33.8331Z" fill="white"/>
<path d="M66.4931 41.9999H59.4938V24.5C59.4938 22.567 57.927 21 55.9942 21H48.9949V3.49999C48.9949 1.567 47.4281 0 45.4953 0H3.49964C1.56684 0 0 1.567 0 3.49999V24.5C0 26.433 1.56684 28 3.49964 28H10.4989V45.4999C10.4989 47.4329 12.0658 48.9999 13.9986 48.9999H20.9978V66.4999C20.9978 68.4329 22.5647 69.9999 24.4975 69.9999H66.4931C68.4259 69.9999 69.9928 68.4329 69.9928 66.4999V45.4999C69.9928 43.5669 68.4259 41.9999 66.4931 41.9999ZM2.33309 24.5V3.49999C2.33309 2.85566 2.85537 2.33333 3.49964 2.33333H45.4953C46.1396 2.33333 46.6618 2.85566 46.6618 3.49999V24.5C46.6618 25.1443 46.1396 25.6666 45.4953 25.6666H3.49964C2.85537 25.6666 2.33309 25.1443 2.33309 24.5ZM12.832 45.4999V28H45.4953C47.4281 28 48.9949 26.433 48.9949 24.5V23.3333H55.9942C56.6385 23.3333 57.1607 23.8556 57.1607 24.5V45.4999C57.1607 46.1443 56.6385 46.6666 55.9942 46.6666H13.9986C13.3543 46.6666 12.832 46.1443 12.832 45.4999ZM67.6597 66.4999C67.6597 67.1442 67.1374 67.6666 66.4931 67.6666H24.4975C23.8532 67.6666 23.3309 67.1442 23.3309 66.4999V48.9999H55.9942C57.927 48.9999 59.4938 47.4329 59.4938 45.4999V44.3333H66.4931C67.1374 44.3333 67.6597 44.8556 67.6597 45.4999V66.4999Z" fill="white"/>
<path d="M34.9964 58.3333H27.9971C26.7086 58.3333 25.664 59.3779 25.664 60.6666V62.9999C25.664 64.2886 26.7086 65.3332 27.9971 65.3332H34.9964C36.2849 65.3332 37.3295 64.2886 37.3295 62.9999V60.6666C37.3295 59.3779 36.2849 58.3333 34.9964 58.3333ZM27.9971 62.9999V60.6666H34.9964V62.9999H27.9971Z" fill="white"/>
<path d="M48.9949 58.3333H41.9957C40.7071 58.3333 39.6626 59.3779 39.6626 60.6666V62.9999C39.6626 64.2886 40.7071 65.3332 41.9957 65.3332H48.9949C50.2835 65.3332 51.328 64.2886 51.328 62.9999V60.6666C51.328 59.3779 50.2835 58.3333 48.9949 58.3333ZM41.9957 62.9999V60.6666H48.9949V62.9999H41.9957Z" fill="white"/>
<path d="M62.9934 58.3333H55.9942C54.7056 58.3333 53.6611 59.3779 53.6611 60.6666V62.9999C53.6611 64.2886 54.7056 65.3332 55.9942 65.3332H62.9934C64.282 65.3332 65.3265 64.2886 65.3265 62.9999V60.6666C65.3265 59.3779 64.282 58.3333 62.9934 58.3333ZM55.9942 62.9999V60.6666H62.9934V62.9999H55.9942Z" fill="white"/>
<path d="M27.9971 54.8333H46.6618C47.3061 54.8333 47.8284 54.311 47.8284 53.6667C47.8284 53.0223 47.3061 52.5 46.6618 52.5H27.9971C27.3528 52.5 26.8306 53.0223 26.8306 53.6667C26.8306 54.311 27.3528 54.8333 27.9971 54.8333Z" fill="white"/>
</svg>
