<svg width="60" height="36" viewBox="0 0 60 36" fill="none" xmlns="http://www.w3.org/2000/svg">
<rect width="60" height="36" fill="black" fill-opacity="0"/>
<rect width="60" height="36" fill="black" fill-opacity="0"/>
<path fill-rule="evenodd" clip-rule="evenodd" d="M29.9558 13.2596C27.3392 13.2596 25.1809 15.4342 25.1809 18.0896C25.1809 20.7492 27.3425 22.9196 29.9558 22.9196C32.5691 22.9196 34.7306 20.7492 34.7306 18.0896C34.7306 15.4342 32.5723 13.2596 29.9558 13.2596ZM29.9558 16.0295C31.1055 16.0295 32.0037 16.9416 32.0037 18.0896C32.0037 19.2472 31.1087 20.1497 29.9558 20.1497C28.8028 20.1497 27.9078 19.2472 27.9078 18.0896C27.9078 16.9416 28.8061 16.0295 29.9558 16.0295Z" fill="white"/>
<path fill-rule="evenodd" clip-rule="evenodd" d="M1.36737 0C1.00474 5.47975e-05 0.656974 0.145529 0.400555 0.404473C0.144135 0.663417 5.57619e-05 1.01463 0 1.38083V8.27103C5.39438e-05 8.63723 0.144133 8.9884 0.400552 9.24735C0.656972 9.50629 1.00474 9.65181 1.36737 9.65186H8.19036C8.55299 9.65181 8.90075 9.50629 9.15717 9.24735C9.41359 8.9884 9.55767 8.63723 9.55773 8.27103V1.38083C9.55767 1.01463 9.41359 0.663417 9.15717 0.404473C8.90075 0.145529 8.55299 5.47975e-05 8.19036 0H1.36737ZM2.73473 2.76166H6.82299V6.8902H2.73473V2.76166Z" fill="white"/>
<path fill-rule="evenodd" clip-rule="evenodd" d="M55.2308 26.3483C54.9753 26.3465 54.7244 26.417 54.5065 26.5519C54.2886 26.6868 54.1126 26.8806 53.9982 27.1114L50.5867 34.0016C50.4825 34.2121 50.4334 34.446 50.4439 34.6811C50.4544 34.9162 50.5242 35.1447 50.6467 35.3449C50.7692 35.5451 50.9404 35.7104 51.1439 35.8251C51.3475 35.9397 51.5767 35.9999 51.8097 35.9999H58.6327C58.8658 35.9999 59.095 35.9397 59.2985 35.8251C59.5021 35.7104 59.6732 35.5451 59.7957 35.3449C59.9183 35.1447 59.9881 34.9162 59.9986 34.6811C60.0091 34.446 59.9599 34.2121 59.8557 34.0016L56.4443 27.1114C56.3314 26.8835 56.1583 26.6917 55.9441 26.557C55.73 26.4223 55.4831 26.3501 55.2308 26.3483ZM55.2212 30.8166L56.4204 33.2382H54.0221L55.2212 30.8166Z" fill="white"/>
<path fill-rule="evenodd" clip-rule="evenodd" d="M14.8292 3.44093C14.6486 3.43834 14.4692 3.47224 14.3015 3.54068C14.1339 3.60911 13.9812 3.71071 13.8526 3.83957C13.7239 3.96843 13.6217 4.12198 13.552 4.2913C13.4823 4.46062 13.4464 4.64233 13.4464 4.82586C13.4464 5.0094 13.4823 5.19111 13.552 5.36043C13.6217 5.52975 13.7239 5.68329 13.8526 5.81215C13.9812 5.94101 14.1339 6.04261 14.3015 6.11105C14.4692 6.17948 14.6486 6.21339 14.8292 6.21079H53.3598V16.7047H42.8064L43.9873 15.711C44.1269 15.5955 44.2427 15.4531 44.3279 15.292C44.4131 15.1308 44.466 14.9541 44.4836 14.7721C44.5012 14.5901 44.4831 14.4063 44.4304 14.2314C44.3777 14.0565 44.2914 13.8939 44.1765 13.7531C44.0616 13.6123 43.9204 13.4959 43.761 13.4108C43.6016 13.3257 43.4272 13.2735 43.2479 13.2572C43.0685 13.2409 42.8878 13.2609 42.716 13.316C42.5443 13.371 42.385 13.4601 42.2474 13.578L38.1536 17.0232C37.9992 17.1532 37.8749 17.3162 37.7897 17.5005C37.7044 17.6848 37.6601 17.886 37.6601 18.0896C37.6601 18.2933 37.7044 18.4945 37.7897 18.6788C37.8749 18.8631 37.9992 19.0261 38.1536 19.156L42.2474 22.6013C42.385 22.7192 42.5443 22.8083 42.716 22.8634C42.8878 22.9185 43.0686 22.9385 43.2479 22.9223C43.4273 22.906 43.6018 22.8538 43.7612 22.7687C43.9206 22.6835 44.0618 22.5672 44.1767 22.4263C44.2916 22.2855 44.3779 22.1229 44.4306 21.948C44.4833 21.773 44.5014 21.5892 44.4838 21.4072C44.4662 21.2251 44.4132 21.0484 44.328 20.8873C44.2428 20.7261 44.127 20.5837 43.9873 20.4682L42.8064 19.4746H54.7233C55.0849 19.4745 55.4316 19.3286 55.6873 19.0689C55.943 18.8092 56.0867 18.4569 56.0867 18.0896V4.82586C56.0867 4.45857 55.943 4.10635 55.6873 3.84663C55.4316 3.58692 55.0849 3.44097 54.7233 3.44093H14.8292Z" fill="white"/>
<path fill-rule="evenodd" clip-rule="evenodd" d="M5.31122 16.422C4.94961 16.4221 4.60283 16.568 4.34714 16.8277C4.09145 17.0874 3.94779 17.4396 3.94775 17.8069V31.0776C3.94779 31.4449 4.09145 31.7971 4.34714 32.0569C4.60283 32.3166 4.94961 32.4625 5.31122 32.4626H42.1321L40.9512 33.4562C40.8106 33.5713 40.6939 33.7137 40.608 33.875C40.522 34.0364 40.4684 34.2135 40.4503 34.396C40.4322 34.5785 40.45 34.7629 40.5027 34.9383C40.5553 35.1138 40.6418 35.277 40.757 35.4182C40.8722 35.5595 41.0139 35.6761 41.1739 35.7612C41.3338 35.8464 41.5088 35.8985 41.6888 35.9144C41.8687 35.9303 42.0499 35.9098 42.222 35.854C42.394 35.7981 42.5534 35.7081 42.6909 35.5892L46.7847 32.144C46.9391 32.014 47.0634 31.8511 47.1487 31.6668C47.2339 31.4825 47.2782 31.2813 47.2782 31.0776C47.2782 30.874 47.2339 30.6728 47.1487 30.4885C47.0634 30.3041 46.9391 30.1412 46.7847 30.0113L42.6909 26.566C42.5534 26.4471 42.394 26.3571 42.222 26.3013C42.0499 26.2455 41.8687 26.2249 41.6888 26.2409C41.5088 26.2568 41.3338 26.3088 41.1739 26.394C41.0139 26.4792 40.8722 26.5958 40.757 26.7371C40.6418 26.8784 40.5553 27.0414 40.5027 27.2169C40.45 27.3924 40.4322 27.5768 40.4503 27.7593C40.4684 27.9418 40.522 28.1189 40.608 28.2802C40.6939 28.4415 40.8106 28.5839 40.9512 28.699L42.1321 29.6927H6.67468V19.1919H20.6493C20.83 19.1945 21.0094 19.1606 21.177 19.0921C21.3447 19.0237 21.4973 18.9221 21.626 18.7932C21.7546 18.6644 21.8568 18.5108 21.9265 18.3415C21.9963 18.1722 22.0322 17.9905 22.0322 17.8069C22.0322 17.6234 21.9963 17.4417 21.9265 17.2724C21.8568 17.1031 21.7546 16.9495 21.626 16.8207C21.4973 16.6918 21.3447 16.5902 21.177 16.5218C21.0094 16.4533 20.83 16.4194 20.6493 16.422H5.31122Z" fill="white"/>
</svg>
