<svg width="53" height="60" viewBox="0 0 53 60" fill="none" xmlns="http://www.w3.org/2000/svg">
<rect width="53" height="60" fill="black" fill-opacity="0"/>
<rect width="53" height="60" fill="black" fill-opacity="0"/>
<path d="M52.7575 18.8449L49.2029 15.2777L48.8288 10.2085C48.7352 9.26979 47.6127 8.98817 47.145 9.73916L42.1873 17.4368L35.5458 20.5346C34.704 19.0326 33.7685 17.6245 32.5525 16.4042L37.6038 11.0534L46.3967 8.80042C47.2386 8.61267 47.3321 7.39232 46.4902 7.01682L41.8131 5.04548L39.5681 0.53954C39.194 -0.305323 37.9779 -0.117575 37.7908 0.821161L36.2006 9.83303L31.1494 14.9961C28.2496 12.5554 24.6015 11.0534 20.5792 10.8656V9.9269C20.5792 9.36366 20.205 8.98817 19.6438 8.98817C19.0825 8.98817 18.7083 9.36366 18.7083 9.9269V10.8656C9.63479 11.335 2.33854 18.6572 1.87083 27.7629H0.935417C0.374167 27.7629 0 28.1384 0 28.7016C0 29.2649 0.374167 29.6404 0.935417 29.6404H1.87083C2.15146 35.5544 5.33188 40.6236 9.91542 43.7214L2.245 58.5534C1.96438 59.0228 2.15146 59.5861 2.61917 59.8677C3.08688 60.1493 3.64813 59.9616 3.83521 59.4922L11.5056 44.6602C13.6571 45.7866 16.0892 46.4437 18.7083 46.6315V47.5702C18.7083 48.1335 19.0825 48.509 19.6438 48.509C20.205 48.509 20.5792 48.1335 20.5792 47.5702V46.6315C23.1983 46.5376 25.6304 45.7866 27.7819 44.6602L35.4523 59.4922C35.7329 59.9616 36.2942 60.1493 36.6683 59.8677C37.1361 59.5861 37.3231 59.0228 37.0425 58.6473L29.3721 43.7214C33.9556 40.7175 37.1361 35.5544 37.4167 29.6404H38.3521C38.9133 29.6404 39.2875 29.2649 39.2875 28.7016C39.2875 28.1384 38.9133 27.7629 38.3521 27.7629H37.4167C37.3231 25.7915 36.8554 23.9141 36.2006 22.1305L42.8421 19.0326L51.8221 20.3469H51.9156C52.8511 20.4408 53.3188 19.4081 52.7575 18.8449ZM39.1004 3.73124L40.2229 6.07808C40.3165 6.26583 40.5036 6.45358 40.6906 6.54745L43.1227 7.58006L38.165 8.80042L39.1004 3.73124ZM33.7685 21.2856L29.4656 23.257C29.0915 22.506 28.5302 21.8489 27.969 21.1917L31.1494 17.7184C32.1783 18.751 33.1138 19.9714 33.7685 21.2856ZM19.6438 31.5178C18.0535 31.5178 16.8375 30.2036 16.8375 28.7016C16.8375 27.1058 18.1471 25.8854 19.6438 25.8854C20.0179 25.8854 20.3921 25.9793 20.7663 26.167L18.989 28.0445C18.7083 28.3261 18.7083 28.7016 18.8019 29.0771C18.989 29.5465 19.5502 29.7342 20.0179 29.5465L22.45 28.42C22.45 28.5139 22.45 28.6078 22.45 28.7016C22.45 30.2975 21.234 31.5178 19.6438 31.5178ZM22.0758 24.7589C21.6081 24.4773 21.1404 24.2896 20.5792 24.1018V19.3143C22.3565 19.502 23.9467 20.1591 25.3498 21.1917L22.0758 24.7589ZM18.7083 24.1018C16.8375 24.4773 15.4344 25.9793 15.0602 27.7629H10.2896C10.7573 23.3508 14.3119 19.7836 18.7083 19.3143V24.1018ZM15.0602 29.6404C15.4344 31.5178 16.931 32.9259 18.7083 33.3014V38.089C14.3119 37.6196 10.7573 34.0524 10.2896 29.6404H15.0602ZM20.5792 33.3014C22.45 32.9259 23.8531 31.424 24.2273 29.6404H28.9979C28.5302 34.0524 24.9756 37.6196 20.5792 38.089V33.3014ZM24.2273 27.7629V27.669L28.5302 25.6977C28.7173 26.3548 28.9044 27.1058 28.9979 27.7629H24.2273ZM23.5725 25.8854L26.7529 22.506C27.1271 22.9753 27.5013 23.4447 27.7819 24.008L23.5725 25.8854ZM29.8398 16.4042L26.6594 19.8775C24.9756 18.5633 22.9177 17.7184 20.6727 17.5307V12.837C24.1338 12.9309 27.3142 14.2451 29.8398 16.4042ZM18.7083 12.7431V17.4368C13.2829 17.9062 8.88646 22.3182 8.41875 27.7629H3.74167C4.20938 19.6898 10.6638 13.2125 18.7083 12.7431ZM3.74167 29.6404H8.41875C8.88646 35.085 13.2829 39.4971 18.7083 39.9665V44.6602C10.6638 44.2847 4.20938 37.8074 3.74167 29.6404ZM20.5792 44.754V40.0603C26.0046 39.591 30.401 35.1789 30.8688 29.7342H35.5458C35.0781 37.8074 28.6238 44.2847 20.5792 44.754ZM35.5458 27.7629H30.8688C30.7752 26.7303 30.5881 25.7915 30.214 24.8528L34.5169 22.8815C35.1717 24.4773 35.4523 26.0732 35.5458 27.7629ZM44.3388 17.4368L47.145 13.1186L47.3321 15.7471C47.3321 15.9348 47.4256 16.2164 47.6127 16.3103L49.4836 18.1878L44.3388 17.4368Z" fill="white"/>
</svg>
