<svg width="100" height="97" viewBox="0 0 100 97" fill="none" xmlns="http://www.w3.org/2000/svg">
<rect width="100" height="97" fill="black" fill-opacity="0"/>
<path d="M49.3827 28.6744C50.7295 28.6744 51.7396 27.5543 51.7396 26.3222V17.8095C55.78 16.9134 58.8103 13.3291 58.8103 8.96074C58.8103 4.03233 54.7699 0 49.8317 0C44.8934 0 40.853 4.03233 40.853 8.96074C40.853 12.8811 43.4343 16.3533 47.0258 17.4734V26.2102C47.0258 27.5543 48.0359 28.6744 49.3827 28.6744ZM45.5668 8.96074C45.5668 6.60854 47.4748 4.70439 49.8317 4.70439C52.1886 4.70439 54.0965 6.60854 54.0965 8.96074C54.0965 11.3129 52.1886 13.2171 49.8317 13.2171C47.4748 13.2171 45.5668 11.3129 45.5668 8.96074ZM32.8844 35.6189C33.4456 35.6189 34.119 35.3949 34.5679 34.9469C35.4658 34.0508 35.4658 32.4827 34.5679 31.5866L28.5073 25.5381C29.2929 24.194 29.8541 22.5139 29.8541 20.9457C29.8541 18.5935 28.9562 16.2413 27.1605 14.5612C25.3648 12.8811 23.2323 11.873 20.7632 11.873C18.2941 11.873 16.0494 12.7691 14.3659 14.5612C12.6824 16.2413 11.6723 18.4815 11.6723 20.9457C11.6723 23.4099 12.5701 25.6501 14.3659 27.3303C16.0494 29.0104 18.2941 30.0185 20.7632 30.0185C22.3345 30.0185 23.7935 29.6824 25.0281 28.8984L31.0887 34.9469C31.6498 35.3949 32.3232 35.6189 32.8844 35.6189ZM17.7329 23.97C16.9473 23.1859 16.4983 22.0658 16.4983 20.9457C16.4983 19.8256 16.9473 18.7055 17.7329 17.9215C18.5185 17.1374 19.6409 16.6894 20.7632 16.6894C21.8855 16.6894 23.0079 17.1374 23.7935 17.9215C24.5791 18.7055 25.0281 19.8256 25.0281 20.9457C25.0281 22.0658 24.5791 23.1859 23.7935 23.97C23.0079 24.754 21.8855 25.2021 20.7632 25.2021C19.6409 25.2021 18.5185 24.754 17.7329 23.97ZM82.1549 47.9399H72.3906C71.0438 47.9399 70.0337 49.06 70.0337 50.2921C70.0337 51.6362 71.156 52.6443 72.3906 52.6443H82.3793C83.5017 56.3406 86.9809 58.9169 91.0213 58.9169C95.9596 58.9169 100 54.8845 100 49.9561C100 45.0277 95.9596 40.9954 91.0213 40.9954C86.6442 40.8834 83.0527 43.9076 82.1549 47.9399ZM90.9091 45.6998C93.266 45.6998 95.174 47.6039 95.174 49.9561C95.174 52.3083 93.266 54.2125 90.9091 54.2125C88.5522 54.2125 86.6442 52.3083 86.6442 49.9561C86.6442 47.6039 88.5522 45.6998 90.9091 45.6998ZM78.9001 11.873C76.5432 11.873 74.1863 12.7691 72.5028 14.5612C70.8193 16.2413 69.8092 18.4815 69.8092 20.9457C69.8092 22.4018 70.1459 23.858 70.8193 25.0901L64.7587 31.1386C63.8608 32.0346 63.8608 33.6028 64.7587 34.4988C65.2076 34.9469 65.881 35.1709 66.4422 35.1709C67.0034 35.1709 67.6768 34.9469 68.1257 34.4988L74.0741 28.5624C75.5331 29.4584 77.1044 29.9065 78.7879 29.9065C81.1448 29.9065 83.5017 29.0104 85.1852 27.2182C86.8687 25.5381 87.8788 23.2979 87.8788 20.8337C87.8788 18.3695 86.9809 16.1293 85.1852 14.4492C83.6139 12.8811 81.3693 11.873 78.9001 11.873ZM81.9304 23.97C81.1448 24.754 80.0225 25.2021 78.9001 25.2021C77.7778 25.2021 76.6554 24.754 75.8698 23.97C75.0842 23.1859 74.6352 22.0658 74.6352 20.9457C74.6352 19.8256 75.0842 18.7055 75.8698 17.9215C76.6554 17.1374 77.7778 16.6894 78.9001 16.6894C80.0225 16.6894 81.1448 17.1374 81.9304 17.9215C82.716 18.7055 83.165 19.8256 83.165 20.9457C83.165 22.0658 82.716 23.1859 81.9304 23.97ZM43.4343 72.694C43.4343 73.8141 42.7609 74.8222 41.8631 75.2702C40.5163 75.9423 33.3333 79.5266 26.7116 84.903C26.0382 85.463 25.7015 86.2471 25.7015 87.1432V94.6478C25.7015 95.9919 24.5791 97 23.3446 97C22.11 97 20.9877 95.8799 20.9877 94.6478V87.1432C20.9877 84.791 21.9978 82.6628 23.7935 81.2067C29.7419 76.2783 36.1392 72.806 38.8328 71.4619V63.1732C37.486 61.8291 36.5881 59.9249 36.5881 57.9088V46.9319C36.5881 40.2113 42.0875 34.7229 48.8215 34.7229H51.0662C57.8002 34.7229 63.2997 40.2113 63.2997 46.9319V57.9088C63.2997 59.9249 62.514 61.7171 61.055 63.1732V71.4619C63.7486 72.806 70.1459 76.3903 76.0943 81.2067C77.89 82.6628 78.9001 84.791 78.9001 87.1432V94.6478C78.9001 95.9919 77.7778 97 76.5432 97C75.3086 97 74.1863 95.8799 74.1863 94.6478V87.1432C74.1863 86.2471 73.8496 85.463 73.1762 84.903C66.5544 79.5266 59.3715 75.8303 58.0247 75.2702C57.0146 74.8222 56.4534 73.8141 56.4534 72.694V62.1651C56.4534 61.3811 56.9024 60.597 57.4635 60.149C58.1369 59.7009 58.5859 58.9169 58.5859 58.0208V47.0439C58.5859 42.8995 55.2189 39.5393 51.0662 39.5393H48.7093C44.5567 39.5393 41.1897 42.8995 41.1897 47.0439V58.0208C41.1897 58.9169 41.6386 59.7009 42.312 60.149C42.9854 60.597 43.3221 61.3811 43.3221 62.1651V72.694H43.4343ZM17.7329 52.1963H26.936C28.2828 52.1963 29.2929 51.0762 29.2929 49.8441C29.2929 48.5 28.1706 47.4919 26.936 47.4919H17.6207C16.4983 43.7956 13.0191 40.9954 8.97868 40.9954C4.0404 40.9954 0 45.0277 0 49.9561C0 54.8845 4.0404 58.9169 8.97868 58.9169C13.1313 58.9169 16.7228 56.0046 17.7329 52.1963ZM4.7138 49.9561C4.7138 47.6039 6.62177 45.6998 8.97868 45.6998C11.3356 45.6998 13.2435 47.6039 13.2435 49.9561C13.2435 52.3083 11.3356 54.2125 8.97868 54.2125C6.62177 54.2125 4.7138 52.3083 4.7138 49.9561Z" fill="url(#paint0_linear)"/>
<defs>
<linearGradient id="paint0_linear" x1="0" y1="0" x2="1.95862" y2="98.9408" gradientUnits="userSpaceOnUse">
<stop stop-color="#F41E3D"/>
<stop offset="1" stop-color="#D5122E"/>
</linearGradient>
</defs>
</svg>
