<svg width="60" height="60" viewBox="0 0 60 60" fill="none" xmlns="http://www.w3.org/2000/svg">
<rect width="60" height="60" fill="black" fill-opacity="0"/>
<rect width="60" height="60" fill="black" fill-opacity="0"/>
<rect width="40.5029" height="48.1818" fill="black" fill-opacity="0" transform="translate(8.40909 11.8181)"/>
<rect width="40.5029" height="48.1818" fill="black" fill-opacity="0" transform="translate(8.40909 11.8181)"/>
<path d="M31.0909 11.8181H30.1818C20.5455 11.8181 14.2727 17.0908 11.6364 27.4545C11.5455 27.7272 10.8182 29.9999 11.9091 31.5454C12.1818 31.909 12.5455 32.2727 13.2727 32.5454L8.54545 41.0908C8.36363 41.3636 8.36363 41.7272 8.54545 41.9999C8.72727 42.2727 9 42.4545 9.36363 42.4545H13.8182L13.1818 49.909C13.1818 50.909 13.5455 51.909 14.2727 52.6363C15.1818 53.5454 16.4545 54.0908 17.8182 54.0908C18.7273 54.0908 20.1818 53.8181 21.7273 52.5454V59.0908C21.7273 59.6363 22.0909 59.9999 22.6364 59.9999H40C40.5455 59.9999 40.9091 59.6363 40.9091 59.0908V50.1818C42.4545 47.9999 52.6364 32.2727 47.4545 22.2727C41.8182 11.8181 33.7273 11.8181 31.0909 11.8181ZM39.0909 49.4545C39 49.6363 38.9091 49.8181 38.9091 49.9999V58.1818H23.3636V49.9999C23.3636 49.6363 23.0909 49.2727 22.7273 49.0908C22.3636 48.9999 21.9091 49.0908 21.7273 49.4545C20.5455 51.1818 19.0909 52.1818 17.6364 52.1818C16.8182 52.1818 16 51.8181 15.4545 51.2727C15.0909 50.8181 14.8182 50.3636 14.9091 49.909L15.6364 41.5454C15.6364 41.2727 15.5455 40.9999 15.3636 40.8181C15.1818 40.6363 14.9091 40.5454 14.7273 40.5454H10.8182L15.4545 32.1818C15.6364 31.909 15.6364 31.5454 15.4545 31.2727C15.2727 30.9999 15 30.8181 14.6364 30.8181H14.5455C13.7273 30.8181 13.4545 30.5454 13.4545 30.4545C13 29.8181 13.2727 28.4545 13.4545 27.9999C17.0909 13.6363 26.9091 13.6363 30.1818 13.6363H31.0909C33.4545 13.6363 40.6364 13.6363 45.6364 23.1818C50.6364 32.7272 39.1818 49.2727 39.0909 49.4545Z" fill="white"/>
<rect width="26" height="25.9091" fill="black" fill-opacity="0" transform="translate(17.3636 15.5457)"/>
<rect width="26" height="25.9091" fill="black" fill-opacity="0" transform="translate(17.3636 15.5457)"/>
<path d="M42.3636 26.182L40.0909 25.9093C39.8182 25.0002 39.4546 24.0911 39 23.2729L40.3636 21.5457C40.6364 21.182 40.6364 20.6366 40.2727 20.2729L38.3636 18.3638C38 18.0002 37.5455 18.0002 37.1818 18.2729L35.3636 19.6366C34.5455 19.182 33.6364 18.8184 32.7273 18.5457L32.5455 16.3638C32.4546 15.9093 32.0909 15.5457 31.6364 15.5457H28.9091C28.4546 15.5457 28.0909 15.9093 28 16.3638L27.7273 18.6366C26.8182 18.9093 25.9091 19.2729 25.0909 19.7275L23.2727 18.3638C22.9091 18.0911 22.3636 18.0911 22.0909 18.4547L20.1818 20.3638C19.8182 20.7275 19.8182 21.182 20.0909 21.5457L21.4546 23.3638C21 24.182 20.6364 25.0911 20.3636 26.0002L18.1818 26.182C17.7273 26.2729 17.3636 26.6366 17.3636 27.0911V29.8184C17.3636 30.2729 17.7273 30.6366 18.1818 30.7275L20.4546 31.0002C20.7273 31.9093 21.0909 32.8184 21.5455 33.6366L20.1818 35.4547C19.9091 35.8184 19.9091 36.3638 20.2727 36.6366L22.1818 38.5457C22.5455 38.9093 23 38.9093 23.3636 38.6366L25.1818 37.2729C26 37.7275 26.9091 38.0911 27.8182 38.3638L28.0909 40.6366C28.1818 41.0911 28.5455 41.4547 29 41.4547H31.7273C32.1818 41.4547 32.5455 41.0911 32.6364 40.6366L32.9091 38.3638C33.8182 38.0911 34.7273 37.7275 35.5455 37.2729L37.2727 38.6366C37.6364 38.9093 38.1818 38.8184 38.5455 38.5457L40.4546 36.6366C40.8182 36.2729 40.8182 35.8184 40.5455 35.4547L39.1818 33.6366C39.6364 32.8184 40 31.9093 40.2727 31.0002L42.5455 30.7275C43 30.6366 43.3636 30.2729 43.3636 29.8184V27.0911C43.1818 26.6366 42.8182 26.182 42.3636 26.182ZM41.3636 29.0002L39.2727 29.2729C38.9091 29.3638 38.5455 29.6366 38.4546 30.0002C38.2727 31.0911 37.8182 32.182 37.1818 33.0911C37 33.4547 37 33.8184 37.1818 34.182L38.4546 35.8184L37.6364 36.6366L36 35.3638C35.7273 35.0911 35.2727 35.0911 34.9091 35.3638C34 36.0002 32.9091 36.4547 31.8182 36.6366C31.4546 36.7275 31.1818 37.0002 31.0909 37.3638L30.8182 39.4547H29.7273L29.4546 37.3638C29.3636 37.0002 29.0909 36.6366 28.7273 36.5457C27.6364 36.3638 26.5455 35.9093 25.6364 35.2729C25.2727 35.0911 24.9091 35.0911 24.5455 35.2729L22.9091 36.5457L22.0909 35.7275L23.3636 34.0911C23.6364 33.8184 23.6364 33.2729 23.3636 33.0002C22.7273 32.0911 22.2727 31.0002 22.0909 29.9093C22 29.5457 21.7273 29.2729 21.2727 29.182L19.1818 28.9093V27.8184L21.2727 27.5457C21.6364 27.4547 22 27.182 22.0909 26.8184C22.2727 25.7275 22.7273 24.6366 23.3636 23.7275C23.5455 23.3638 23.5455 23.0002 23.3636 22.6366L22.0909 21.0002L22.9091 20.182L24.5455 21.4547C24.8182 21.7275 25.3636 21.7275 25.6364 21.4547C26.5455 20.8184 27.6364 20.3638 28.7273 20.182C29.0909 20.0911 29.3636 19.8184 29.4546 19.3638L29.7273 17.2729H30.8182L31.0909 19.3638C31.1818 19.7275 31.4546 20.0911 31.8182 20.182C32.9091 20.3638 34 20.8184 34.9091 21.4547C35.2727 21.6366 35.6364 21.6366 36 21.4547L37.6364 20.182L38.4546 21.0002L37.1818 22.6366C36.9091 22.9093 36.9091 23.3638 37.1818 23.7275C37.8182 24.6366 38.2727 25.7275 38.4546 26.8184C38.5455 27.182 38.8182 27.4547 39.2727 27.5457L41.3636 27.8184V29.0002Z" fill="white"/>
<rect width="11.4545" height="11.4545" fill="black" fill-opacity="0" transform="translate(24.5454 22.7273)"/>
<rect width="11.4545" height="11.4545" fill="black" fill-opacity="0" transform="translate(24.5454 22.7273)"/>
<path d="M30.2727 22.7273C27.0909 22.7273 24.5454 25.2727 24.5454 28.4546C24.5454 31.6364 27.0909 34.1818 30.2727 34.1818C33.4545 34.1818 36 31.6364 36 28.4546C36 25.2727 33.4545 22.7273 30.2727 22.7273ZM30.2727 32.2727C28.0909 32.2727 26.3636 30.5455 26.3636 28.3637C26.3636 26.1818 28.0909 24.4546 30.2727 24.4546C32.4545 24.4546 34.1818 26.1818 34.1818 28.3637C34.1818 30.5455 32.4545 32.2727 30.2727 32.2727Z" fill="white"/>
<rect width="8" height="10.0909" fill="black" fill-opacity="0" transform="translate(26.2727)"/>
<rect width="8" height="10.0909" fill="black" fill-opacity="0" transform="translate(26.2727)"/>
<path d="M27.8182 4.63636L29.3636 3.09091V9.18182C29.3636 9.72727 29.7273 10.0909 30.2727 10.0909C30.8182 10.0909 31.1818 9.72727 31.1818 9.18182V3.09091L32.7273 4.63636C33.0909 5 33.6364 5 34 4.63636C34.3636 4.27273 34.3636 3.72727 34 3.36364L30.9091 0.272727C30.7273 0.090909 30.5455 0 30.2727 0C30.0909 0 29.8182 0.090909 29.6364 0.272727L26.5455 3.27273C26.1818 3.63636 26.1818 4.18182 26.5455 4.54545C26.9091 4.90909 27.4546 4.90909 27.8182 4.63636Z" fill="white"/>
<rect width="10.1818" height="7.90909" fill="black" fill-opacity="0" transform="translate(49.8182 26)"/>
<rect width="10.1818" height="7.90909" fill="black" fill-opacity="0" transform="translate(49.8182 26)"/>
<path d="M60 30C60 29.8182 59.9091 29.5455 59.7273 29.3636L56.6364 26.2727C56.2727 25.9091 55.7273 25.9091 55.3636 26.2727C55 26.6364 55 27.1818 55.3636 27.5455L56.9091 29.0909H50.7273C50.1818 29.0909 49.8182 29.4545 49.8182 30C49.8182 30.5455 50.1818 30.9091 50.7273 30.9091H56.8182L55.3636 32.3636C55 32.7273 55 33.2727 55.3636 33.6364C55.7273 34 56.2727 34 56.6364 33.6364L59.7273 30.6364C59.9091 30.4545 60 30.1818 60 30Z" fill="white"/>
<rect width="10.0909" height="7.90909" fill="black" fill-opacity="0" transform="translate(0 26)"/>
<rect width="10.0909" height="7.90909" fill="black" fill-opacity="0" transform="translate(0 26)"/>
<path d="M3.09091 30.9091H9.18182C9.72727 30.9091 10.0909 30.5455 10.0909 30C10.0909 29.4545 9.72727 29.0909 9.18182 29.0909H3.09091L4.63636 27.5455C5 27.1818 5 26.6364 4.63636 26.2727C4.27273 25.9091 3.72727 25.9091 3.36364 26.2727L0.272727 29.3636C0.090909 29.5455 0 29.7273 0 30C0 30.2727 0.090909 30.4545 0.272727 30.6364L3.36364 33.6364C3.72727 34 4.27273 34 4.63636 33.6364C5 33.2727 5 32.7273 4.63636 32.3636L3.09091 30.9091Z" fill="white"/>
<rect width="7.72727" height="7.64895" fill="black" fill-opacity="0" transform="translate(44.0909 8.54541)"/>
<rect width="7.72727" height="7.64895" fill="black" fill-opacity="0" transform="translate(44.0909 8.54541)"/>
<path d="M45.6364 15.909L50 11.6363V13.7272C50 14.2727 50.3636 14.6363 50.9091 14.6363C51.4545 14.6363 51.8182 14.2727 51.8182 13.7272V9.4545C51.8182 9.18177 51.7273 8.99996 51.5455 8.81814C51.3636 8.63632 51.0909 8.54541 50.9091 8.54541H46.5455C46.0909 8.54541 45.6364 8.90905 45.6364 9.4545C45.6364 9.99996 46 10.3636 46.5455 10.3636H48.7273L44.3636 14.7272C44 15.0909 44 15.6363 44.3636 16C44.6364 16.2727 45.2727 16.2727 45.6364 15.909Z" fill="white"/>
<rect width="7.72727" height="7.72727" fill="black" fill-opacity="0" transform="translate(8.72726 8.45459)"/>
<rect width="7.72727" height="7.72727" fill="black" fill-opacity="0" transform="translate(8.72726 8.45459)"/>
<path d="M9.63636 14.6364C10.1818 14.6364 10.5454 14.2728 10.5454 13.7273V11.6364L14.9091 15.9091C15.2727 16.2728 15.8182 16.2728 16.1818 15.9091C16.5454 15.5455 16.5454 15 16.1818 14.6364L11.8182 10.2728H14C14.5454 10.2728 14.9091 9.81823 14.9091 9.36368C14.9091 8.90914 14.4545 8.45459 14 8.45459H9.63636C9.36363 8.45459 9.18181 8.5455 8.99999 8.72732C8.81817 8.90914 8.72726 9.09095 8.72726 9.36368V13.6364C8.72726 14.2728 9.18181 14.6364 9.63636 14.6364Z" fill="white"/>
</svg>
