<svg width="69" height="70" viewBox="0 0 69 70" fill="none" xmlns="http://www.w3.org/2000/svg">
<rect width="68.1981" height="69.9999" fill="black" fill-opacity="0"/>
<rect width="68.1981" height="69.9999" fill="black" fill-opacity="0"/>
<path d="M51.6985 63.4374C51.4068 63.4374 51.127 63.5526 50.9207 63.7578C50.7144 63.9629 50.5985 64.2411 50.5985 64.5312C50.5985 65.4014 50.2509 66.236 49.632 66.8513C49.0132 67.4667 48.1738 67.8124 47.2986 67.8124H5.49983C4.62464 67.8124 3.7853 67.4667 3.16645 66.8513C2.54759 66.236 2.19992 65.4014 2.19992 64.5312V17.5H14.2996C15.1748 17.5 16.0141 17.1543 16.633 16.5389C17.2518 15.9236 17.5995 15.089 17.5995 14.2187V2.18751H47.2986C48.0136 2.19125 48.708 2.42577 49.2773 2.85578C49.8466 3.2858 50.2601 3.88804 50.4555 4.57189C48.859 4.26903 47.2148 4.32175 45.6412 4.72624C44.0676 5.13073 42.6037 5.87695 41.3548 6.91123C40.1059 7.9455 39.103 9.24213 38.4183 10.7079C37.7336 12.1736 37.384 13.772 37.3948 15.3881C37.4056 17.0042 37.7764 18.5978 38.4806 20.0544C39.1848 21.511 40.2049 22.7943 41.4674 23.812C42.73 24.8297 44.2037 25.5566 45.7826 25.9403C47.3614 26.324 49.0062 26.3551 50.5985 26.0312V32.8125H47.2986C47.0069 32.8125 46.7271 32.9277 46.5208 33.1328C46.3146 33.3379 46.1987 33.6161 46.1987 33.9062V55.7812C46.1987 56.0713 46.3146 56.3495 46.5208 56.5546C46.7271 56.7597 47.0069 56.8749 47.2986 56.8749H53.8984C54.1902 56.8749 54.47 56.7597 54.6762 56.5546C54.8825 56.3495 54.9984 56.0713 54.9984 55.7812V33.9062C54.9984 33.6161 54.8825 33.3379 54.6762 33.1328C54.47 32.9277 54.1902 32.8125 53.8984 32.8125H52.7985V25.3312C54.76 24.4799 56.4291 23.0781 57.6013 21.2976C58.7735 19.517 59.3979 17.4351 59.3979 15.307C59.3979 13.1789 58.7735 11.097 57.6013 9.31649C56.4291 7.53596 54.76 6.13414 52.7985 5.28282C52.75 3.86489 52.1492 2.5212 51.123 1.53549C50.0968 0.549774 48.7255 -0.000801987 47.2986 1.82812e-05H16.4995C16.3548 -0.000813944 16.2112 0.0267759 16.0772 0.0812059C15.9432 0.135636 15.8213 0.215835 15.7185 0.317205L0.318979 15.6297C0.217032 15.7319 0.136377 15.8531 0.0816372 15.9863C0.0268977 16.1196 -0.000849091 16.2623 -1.21324e-05 16.4062V64.5312C-1.21324e-05 65.9816 0.579434 67.3726 1.61085 68.3981C2.64228 69.4237 4.04118 69.9999 5.49983 69.9999H47.2986C48.0209 69.9999 48.7361 69.8584 49.4033 69.5836C50.0706 69.3088 50.6769 68.906 51.1876 68.3981C51.6983 67.8903 52.1034 67.2875 52.3798 66.624C52.6562 65.9605 52.7985 65.2493 52.7985 64.5312C52.7985 64.2411 52.6826 63.9629 52.4763 63.7578C52.27 63.5526 51.9902 63.4374 51.6985 63.4374ZM52.7985 54.6874H48.3986V35H52.7985V54.6874ZM57.1984 15.3125C57.1984 17.0431 56.6823 18.7348 55.7153 20.1737C54.7484 21.6127 53.3741 22.7342 51.7661 23.3964C50.1582 24.0587 48.3888 24.232 46.6819 23.8944C44.9749 23.5567 43.4069 22.7234 42.1762 21.4997C40.9456 20.276 40.1075 18.7169 39.7679 17.0195C39.4284 15.3222 39.6027 13.5629 40.2687 11.964C40.9347 10.3652 42.0626 8.99861 43.5097 8.03715C44.9568 7.07569 46.6582 6.56251 48.3986 6.56251C50.7324 6.56251 52.9707 7.48438 54.621 9.12532C56.2712 10.7663 57.1984 12.9919 57.1984 15.3125ZM14.2996 15.3125H3.75088L15.3995 3.7297V14.2187C15.3995 14.5088 15.2837 14.787 15.0774 14.9921C14.8711 15.1973 14.5913 15.3125 14.2996 15.3125Z" fill="white"/>
<path d="M34.0991 56.875H40.6989C40.9906 56.875 41.2704 56.7597 41.4767 56.5546C41.6829 56.3495 41.7988 56.0713 41.7988 55.7812V40.4687C41.7988 40.1787 41.6829 39.9005 41.4767 39.6954C41.2704 39.4902 40.9906 39.375 40.6989 39.375H34.0991C33.8073 39.375 33.5275 39.4902 33.3213 39.6954C33.115 39.9005 32.9991 40.1787 32.9991 40.4687V55.7812C32.9991 56.0713 33.115 56.3495 33.3213 56.5546C33.5275 56.7597 33.8073 56.875 34.0991 56.875ZM35.199 41.5625H39.5989V54.6875H35.199V41.5625Z" fill="white"/>
<path d="M67.0981 26.2498H60.4983C60.2066 26.2498 59.9268 26.365 59.7205 26.5701C59.5142 26.7752 59.3983 27.0534 59.3983 27.3435V55.781C59.3983 56.071 59.5142 56.3492 59.7205 56.5543C59.9268 56.7595 60.2066 56.8747 60.4983 56.8747H67.0981C67.3898 56.8747 67.6696 56.7595 67.8759 56.5543C68.0822 56.3492 68.1981 56.071 68.1981 55.781V27.3435C68.1981 27.0534 68.0822 26.7752 67.8759 26.5701C67.6696 26.365 67.3898 26.2498 67.0981 26.2498ZM65.9981 54.6872H61.5983V28.4373H65.9981V54.6872Z" fill="white"/>
<path d="M67.0981 59.0623H34.0991C33.8073 59.0623 33.5275 59.1775 33.3213 59.3826C33.115 59.5877 32.9991 59.8659 32.9991 60.156C32.9991 60.4461 33.115 60.7243 33.3213 60.9294C33.5275 61.1345 33.8073 61.2498 34.0991 61.2498H67.0981C67.3898 61.2498 67.6696 61.1345 67.8759 60.9294C68.0822 60.7243 68.1981 60.4461 68.1981 60.156C68.1981 59.8659 68.0822 59.5877 67.8759 59.3826C67.6696 59.1775 67.3898 59.0623 67.0981 59.0623Z" fill="white"/>
<path d="M47.2987 8.74975V9.8435C46.4235 9.8435 45.5842 10.1892 44.9653 10.8046C44.3464 11.4199 43.9988 12.2545 43.9988 13.1247C43.9988 13.995 44.3464 14.8296 44.9653 15.4449C45.5842 16.0603 46.4235 16.406 47.2987 16.406H49.4986C49.7904 16.406 50.0701 16.5212 50.2764 16.7263C50.4827 16.9315 50.5986 17.2097 50.5986 17.4997C50.5986 17.7898 50.4827 18.068 50.2764 18.2731C50.0701 18.4783 49.7904 18.5935 49.4986 18.5935H47.2987C47.007 18.5935 46.7272 18.4783 46.5209 18.2731C46.3146 18.068 46.1987 17.7898 46.1987 17.4997C46.1987 17.2097 46.0828 16.9315 45.8765 16.7263C45.6703 16.5212 45.3905 16.406 45.0987 16.406C44.807 16.406 44.5272 16.5212 44.321 16.7263C44.1147 16.9315 43.9988 17.2097 43.9988 17.4997C43.9988 18.37 44.3464 19.2046 44.9653 19.8199C45.5842 20.4353 46.4235 20.781 47.2987 20.781V21.8747C47.2987 22.1648 47.4146 22.443 47.6209 22.6481C47.8271 22.8532 48.1069 22.9685 48.3987 22.9685C48.6904 22.9685 48.9702 22.8532 49.1764 22.6481C49.3827 22.443 49.4986 22.1648 49.4986 21.8747V20.781C50.3738 20.781 51.2132 20.4353 51.832 19.8199C52.4509 19.2046 52.7985 18.37 52.7985 17.4997C52.7985 16.6295 52.4509 15.7949 51.832 15.1795C51.2132 14.5642 50.3738 14.2185 49.4986 14.2185H47.2987C47.007 14.2185 46.7272 14.1033 46.5209 13.8981C46.3146 13.693 46.1987 13.4148 46.1987 13.1247C46.1987 12.8347 46.3146 12.5565 46.5209 12.3513C46.7272 12.1462 47.007 12.031 47.2987 12.031H49.4986C49.7904 12.031 50.0701 12.1462 50.2764 12.3513C50.4827 12.5565 50.5986 12.8347 50.5986 13.1247C50.5986 13.4148 50.7145 13.693 50.9208 13.8981C51.127 14.1033 51.4068 14.2185 51.6986 14.2185C51.9903 14.2185 52.2701 14.1033 52.4764 13.8981C52.6826 13.693 52.7985 13.4148 52.7985 13.1247C52.7985 12.2545 52.4509 11.4199 51.832 10.8046C51.2132 10.1892 50.3738 9.8435 49.4986 9.8435V8.74975C49.4986 8.45967 49.3827 8.18147 49.1764 7.97636C48.9702 7.77124 48.6904 7.65601 48.3987 7.65601C48.1069 7.65601 47.8271 7.77124 47.6209 7.97636C47.4146 8.18147 47.2987 8.45967 47.2987 8.74975Z" fill="white"/>
<path d="M29.6992 40.4686V31.0733L35.199 25.6046V28.4374C35.199 28.7275 35.3149 29.0057 35.5212 29.2108C35.7275 29.4159 36.0072 29.5311 36.299 29.5311C36.5907 29.5311 36.8705 29.4159 37.0768 29.2108C37.2831 29.0057 37.3989 28.7275 37.3989 28.4374V22.9687C37.3966 22.8375 37.3705 22.7078 37.3219 22.5858V22.4874C37.2806 22.4047 37.2288 22.3275 37.168 22.2577L37.091 22.1702C37.0034 22.089 36.9031 22.0225 36.794 21.9733C36.6389 21.9028 36.4694 21.8691 36.299 21.8749H30.7991C30.5074 21.8749 30.2276 21.9901 30.0213 22.1953C29.8151 22.4004 29.6992 22.6786 29.6992 22.9687C29.6992 23.2587 29.8151 23.5369 30.0213 23.7421C30.2276 23.9472 30.5074 24.0624 30.7991 24.0624H33.6481L27.8292 29.8483C27.7253 29.9496 27.6426 30.0704 27.586 30.2037C27.5293 30.337 27.4998 30.4802 27.4992 30.6249V40.0202L15.7186 51.7233C15.6034 51.8213 15.5099 51.942 15.4439 52.0777C15.3778 52.2134 15.3407 52.3612 15.3349 52.5118C15.329 52.6625 15.3546 52.8127 15.4099 52.953C15.4652 53.0934 15.5491 53.2208 15.6562 53.3274C15.7634 53.434 15.8916 53.5174 16.0328 53.5724C16.174 53.6274 16.325 53.6528 16.4765 53.647C16.628 53.6412 16.7766 53.6043 16.9131 53.5386C17.0496 53.473 17.1709 53.38 17.2695 53.2655L29.3692 41.2342C29.5764 41.0323 29.695 40.7571 29.6992 40.4686Z" fill="white"/>
<path d="M7.69979 24.0625H21.9994C22.2911 24.0625 22.5709 23.9473 22.7772 23.7421C22.9835 23.537 23.0993 23.2588 23.0993 22.9687C23.0993 22.6787 22.9835 22.4005 22.7772 22.1954C22.5709 21.9902 22.2911 21.875 21.9994 21.875H7.69979C7.40806 21.875 7.12828 21.9902 6.922 22.1954C6.71571 22.4005 6.59982 22.6787 6.59982 22.9687C6.59982 23.2588 6.71571 23.537 6.922 23.7421C7.12828 23.9473 7.40806 24.0625 7.69979 24.0625Z" fill="white"/>
<path d="M7.69979 29.5312H21.9994C22.2911 29.5312 22.5709 29.416 22.7772 29.2109C22.9835 29.0058 23.0993 28.7276 23.0993 28.4375C23.0993 28.1474 22.9835 27.8692 22.7772 27.6641C22.5709 27.459 22.2911 27.3438 21.9994 27.3438H7.69979C7.40806 27.3438 7.12828 27.459 6.922 27.6641C6.71571 27.8692 6.59982 28.1474 6.59982 28.4375C6.59982 28.7276 6.71571 29.0058 6.922 29.2109C7.12828 29.416 7.40806 29.5312 7.69979 29.5312Z" fill="white"/>
<path d="M7.69979 35H21.9994C22.2911 35 22.5709 34.8848 22.7772 34.6796C22.9835 34.4745 23.0993 34.1963 23.0993 33.9062C23.0993 33.6162 22.9835 33.338 22.7772 33.1329C22.5709 32.9277 22.2911 32.8125 21.9994 32.8125H7.69979C7.40806 32.8125 7.12828 32.9277 6.922 33.1329C6.71571 33.338 6.59982 33.6162 6.59982 33.9062C6.59982 34.1963 6.71571 34.4745 6.922 34.6796C7.12828 34.8848 7.40806 35 7.69979 35Z" fill="white"/>
<path d="M17.5995 39.3748C17.5995 39.0847 17.4836 38.8065 17.2773 38.6014C17.0711 38.3962 16.7913 38.281 16.4995 38.281H7.69979C7.40806 38.281 7.12828 38.3962 6.922 38.6014C6.71571 38.8065 6.59982 39.0847 6.59982 39.3748C6.59982 39.6648 6.71571 39.943 6.922 40.1482C7.12828 40.3533 7.40806 40.4685 7.69979 40.4685H16.4995C16.7913 40.4685 17.0711 40.3533 17.2773 40.1482C17.4836 39.943 17.5995 39.6648 17.5995 39.3748Z" fill="white"/>
<path d="M5.49987 59.0623C5.20814 59.0623 4.92836 59.1775 4.72208 59.3826C4.51579 59.5877 4.3999 59.8659 4.3999 60.156V62.3435C4.3999 63.2137 4.74757 64.0483 5.36642 64.6637C5.98527 65.279 6.82462 65.6247 7.69981 65.6247H9.89974C10.1915 65.6247 10.4713 65.5095 10.6775 65.3044C10.8838 65.0993 10.9997 64.8211 10.9997 64.531C10.9997 64.2409 10.8838 63.9627 10.6775 63.7576C10.4713 63.5525 10.1915 63.4372 9.89974 63.4372H7.69981C7.40808 63.4372 7.1283 63.322 6.92201 63.1169C6.71573 62.9118 6.59984 62.6336 6.59984 62.3435V60.156C6.59984 59.8659 6.48395 59.5877 6.27767 59.3826C6.07138 59.1775 5.7916 59.0623 5.49987 59.0623Z" fill="white"/>
<path d="M14.2996 65.625H16.4996C16.7913 65.625 17.0711 65.5098 17.2773 65.3046C17.4836 65.0995 17.5995 64.8213 17.5995 64.5312C17.5995 64.2412 17.4836 63.963 17.2773 63.7579C17.0711 63.5527 16.7913 63.4375 16.4996 63.4375H14.2996C14.0079 63.4375 13.7281 63.5527 13.5218 63.7579C13.3155 63.963 13.1996 64.2412 13.1996 64.5312C13.1996 64.8213 13.3155 65.0995 13.5218 65.3046C13.7281 65.5098 14.0079 65.625 14.2996 65.625Z" fill="white"/>
</svg>
