<svg width="77" height="70" viewBox="0 0 77 70" fill="none" xmlns="http://www.w3.org/2000/svg">
<rect width="76.2742" height="70" fill="black" fill-opacity="0"/>
<rect width="76.2742" height="70" fill="black" fill-opacity="0"/>
<path d="M24.6683 11.49C24.6686 10.1359 24.2677 8.81212 23.5165 7.68613C22.7652 6.56013 21.6972 5.68248 20.4477 5.16418C19.1982 4.64587 17.8232 4.5102 16.4966 4.7743C15.1701 5.03841 13.9516 5.69045 12.9952 6.64793C12.0388 7.60542 11.3875 8.82535 11.1237 10.1534C10.8599 11.4815 10.9954 12.8581 11.5131 14.1091C12.0308 15.36 12.9075 16.4292 14.0322 17.1814C15.1569 17.9335 16.4791 18.3348 17.8316 18.3346C19.6442 18.3325 21.382 17.6108 22.6637 16.3276C23.9454 15.0444 24.6663 13.3046 24.6683 11.49ZM13.5361 11.49C13.5359 10.6394 13.7876 9.80778 14.2594 9.10041C14.7313 8.39303 15.402 7.84164 16.1869 7.51595C16.9718 7.19026 17.8355 7.10492 18.6689 7.27071C19.5022 7.4365 20.2677 7.84598 20.8686 8.44736C21.4694 9.04874 21.8787 9.815 22.0445 10.6492C22.2103 11.4835 22.1254 12.3482 21.8003 13.1341C21.4752 13.92 20.9246 14.5917 20.2182 15.0643C19.5118 15.5369 18.6812 15.7892 17.8316 15.7892C16.693 15.7878 15.6014 15.3345 14.7962 14.5285C13.9909 13.7226 13.5378 12.6299 13.5361 11.49Z" fill="white"/>
<path d="M17.8316 36.9096C18.0732 36.9098 18.3098 36.8411 18.5138 36.7115C18.7178 36.5819 18.8807 36.3968 18.9833 36.1778C21.405 31.0107 29.3071 13.9615 29.3071 11.4874C29.3067 8.44042 28.0974 5.51836 25.9451 3.36406C23.7928 1.20975 20.8738 -0.000337471 17.8303 7.05964e-08C14.7869 0.000337612 11.8682 1.21107 9.71634 3.36586C7.56451 5.52064 6.35582 8.44297 6.35616 11.49C6.35616 13.9615 14.2594 31.0107 16.6811 36.1804C16.7841 36.3986 16.9469 36.5831 17.1506 36.7122C17.3543 36.8414 17.5905 36.9098 17.8316 36.9096ZM17.8316 2.54668C20.1981 2.5497 22.4669 3.49151 24.1412 5.16584C25.8156 6.84018 26.7589 9.11057 26.7646 11.4798C26.6603 12.9154 22.3242 22.9341 17.8316 32.627C13.334 22.9201 8.99143 12.8925 8.89863 11.49C8.90132 9.11888 9.84333 6.84568 11.518 5.16908C13.1927 3.49247 15.4633 2.54937 17.8316 2.54668Z" fill="white"/>
<path d="M-2.28882e-05 44.5456C-2.28882e-05 45.5525 0.298204 46.5368 0.856945 47.3739C1.41569 48.2111 2.20985 48.8636 3.139 49.2489C4.06815 49.6342 5.09056 49.7351 6.07694 49.5386C7.06333 49.3422 7.96938 48.8573 8.68052 48.1454C9.39166 47.4334 9.87596 46.5263 10.0722 45.5388C10.2684 44.5513 10.1677 43.5277 9.7828 42.5975C9.39793 41.6672 8.74618 40.8722 7.90996 40.3128C7.07375 39.7534 6.09063 39.4548 5.08492 39.4548C3.73631 39.4548 2.44293 39.9912 1.48932 40.9459C0.535711 41.9006 -2.28882e-05 43.1955 -2.28882e-05 44.5456ZM7.62739 44.5456C7.62739 45.0491 7.47828 45.5412 7.19891 45.9598C6.91954 46.3784 6.52246 46.7046 6.05788 46.8973C5.59331 47.0899 5.0821 47.1404 4.58891 47.0421C4.09572 46.9439 3.64269 46.7015 3.28712 46.3455C2.93155 45.9895 2.6894 45.536 2.5913 45.0422C2.4932 44.5485 2.54355 44.0367 2.73598 43.5716C2.92842 43.1064 3.25429 42.7089 3.6724 42.4292C4.09051 42.1495 4.58207 42.0002 5.08492 42.0002C5.75923 42.0002 6.40591 42.2684 6.88272 42.7458C7.35953 43.2231 7.62739 43.8706 7.62739 44.5456Z" fill="white"/>
<path d="M17.7973 47.0913C19.2015 47.0913 20.3398 45.9517 20.3398 44.5459C20.3398 43.1401 19.2015 42.0005 17.7973 42.0005C16.3931 42.0005 15.2548 43.1401 15.2548 44.5459C15.2548 45.9517 16.3931 47.0913 17.7973 47.0913Z" fill="white"/>
<path d="M30.5097 49.6365C31.5154 49.6365 32.4985 49.3379 33.3347 48.7785C34.1709 48.2191 34.8227 47.424 35.2075 46.4938C35.5924 45.5636 35.6931 44.54 35.4969 43.5525C35.3007 42.565 34.8164 41.6579 34.1053 40.9459C33.3941 40.2339 32.4881 39.7491 31.5017 39.5527C30.5153 39.3562 29.4929 39.457 28.5637 39.8424C27.6346 40.2277 26.8404 40.8802 26.2817 41.7173C25.7229 42.5545 25.4247 43.5388 25.4247 44.5456C25.4247 45.8958 25.9604 47.1907 26.9141 48.1454C27.8677 49.1001 29.161 49.6365 30.5097 49.6365ZM30.5097 42.0002C31.0125 42.0002 31.5041 42.1495 31.9222 42.4292C32.3403 42.7089 32.6662 43.1065 32.8586 43.5716C33.051 44.0367 33.1014 44.5485 33.0033 45.0422C32.9052 45.536 32.663 45.9895 32.3075 46.3455C31.9519 46.7015 31.4989 46.9439 31.0057 47.0421C30.5125 47.1404 30.0013 47.0899 29.5367 46.8973C29.0721 46.7046 28.675 46.3784 28.3957 45.9598C28.1163 45.5412 27.9672 45.0491 27.9672 44.5456C27.9672 43.8706 28.2351 43.2231 28.7119 42.7458C29.1887 42.2684 29.8354 42.0002 30.5097 42.0002Z" fill="white"/>
<path d="M48.3069 44.5456C48.3069 43.5388 48.0087 42.5545 47.45 41.7173C46.8912 40.8802 46.0971 40.2277 45.1679 39.8424C44.2388 39.457 43.2164 39.3562 42.23 39.5527C41.2436 39.7491 40.3375 40.2339 39.6264 40.9459C38.9153 41.6579 38.431 42.565 38.2348 43.5525C38.0386 44.54 38.1393 45.5636 38.5241 46.4938C38.909 47.424 39.5607 48.2191 40.3969 48.7785C41.2332 49.3379 42.2163 49.6365 43.222 49.6365C44.5706 49.6365 45.864 49.1001 46.8176 48.1454C47.7712 47.1907 48.3069 45.8958 48.3069 44.5456ZM40.6795 44.5456C40.6795 44.0422 40.8286 43.5501 41.108 43.1315C41.3874 42.7129 41.7845 42.3867 42.249 42.194C42.7136 42.0013 43.2248 41.9509 43.718 42.0492C44.2112 42.1474 44.6642 42.3898 45.0198 42.7458C45.3754 43.1018 45.6175 43.5553 45.7156 44.0491C45.8137 44.5428 45.7634 45.0546 45.5709 45.5197C45.3785 45.9848 45.0526 46.3824 44.6345 46.6621C44.2164 46.9418 43.7248 47.0911 43.222 47.0911C42.5477 47.0911 41.901 46.8229 41.4242 46.3455C40.9474 45.8682 40.6795 45.2207 40.6795 44.5456Z" fill="white"/>
<path d="M75.0029 29.2734H52.1206C51.7835 29.2734 51.4601 29.4075 51.2217 29.6462C50.9833 29.8849 50.8494 30.2086 50.8494 30.5461V56.0002C50.8494 56.3377 50.9833 56.6614 51.2217 56.9001C51.4601 57.1388 51.7835 57.2729 52.1206 57.2729H75.0029C75.34 57.2729 75.6634 57.1388 75.9018 56.9001C76.1402 56.6614 76.2741 56.3377 76.2741 56.0002V30.5461C76.2741 30.2086 76.1402 29.8849 75.9018 29.6462C75.6634 29.4075 75.34 29.2734 75.0029 29.2734ZM66.1042 31.8188V36.9097H61.0193V31.8188H66.1042ZM73.7317 54.7275H53.3919V31.8188H58.4768V38.1824C58.4768 38.5199 58.6108 38.8436 58.8492 39.0823C59.0876 39.321 59.4109 39.4551 59.7481 39.4551H67.3755C67.7126 39.4551 68.036 39.321 68.2744 39.0823C68.5128 38.8436 68.6467 38.5199 68.6467 38.1824V31.8188H73.7317V54.7275Z" fill="white"/>
<path d="M67.3755 49.6367C67.0383 49.6367 66.715 49.7708 66.4766 50.0095C66.2381 50.2482 66.1042 50.5719 66.1042 50.9094C66.1042 51.247 66.2381 51.5707 66.4766 51.8094C66.715 52.048 67.0383 52.1821 67.3755 52.1821H69.9179C70.2551 52.1821 70.5784 52.048 70.8168 51.8094C71.0552 51.5707 71.1892 51.247 71.1892 50.9094C71.1892 50.5719 71.0552 50.2482 70.8168 50.0095C70.5784 49.7708 70.2551 49.6367 69.9179 49.6367H67.3755Z" fill="white"/>
<path d="M17.7973 68.7273H25.4247C25.7618 68.7273 26.0852 68.5932 26.3236 68.3545C26.562 68.1158 26.6959 67.7921 26.6959 67.4546C26.6959 67.117 26.562 66.7933 26.3236 66.5546C26.0852 66.3159 25.7618 66.1819 25.4247 66.1819H19.0685V54.7275C19.0685 54.39 18.9346 54.0663 18.6962 53.8276C18.4578 53.5889 18.1344 53.4548 17.7973 53.4548C17.4601 53.4548 17.1368 53.5889 16.8984 53.8276C16.66 54.0663 16.526 54.39 16.526 54.7275V67.4546C16.526 67.7921 16.66 68.1158 16.8984 68.3545C17.1368 68.5932 17.4601 68.7273 17.7973 68.7273Z" fill="white"/>
<path d="M33.0521 57.2729H30.5096V59.8184H33.0521V57.2729Z" fill="white"/>
<path d="M43.222 57.2729H35.5946V59.8184H43.222V57.2729Z" fill="white"/>
<path d="M43.222 62.3638H30.5096V64.9092H43.222V62.3638Z" fill="white"/>
<path d="M33.0521 67.4546H30.5096V70H33.0521V67.4546Z" fill="white"/>
<path d="M43.222 67.4546H35.5946V70H43.222V67.4546Z" fill="white"/>
<path d="M52.1207 14.0012C52.1207 13.6637 51.9867 13.34 51.7483 13.1013C51.5099 12.8626 51.1866 12.7285 50.8494 12.7285H43.222C42.8849 12.7285 42.5615 12.8626 42.3231 13.1013C42.0847 13.34 41.9508 13.6637 41.9508 14.0012V35.6372C41.9508 35.9747 42.0847 36.2984 42.3231 36.5371C42.5615 36.7758 42.8849 36.9099 43.222 36.9099C43.5592 36.9099 43.8825 36.7758 44.1209 36.5371C44.3593 36.2984 44.4932 35.9747 44.4932 35.6372V15.2739H50.8494C51.1866 15.2739 51.5099 15.1398 51.7483 14.9012C51.9867 14.6625 52.1207 14.3388 52.1207 14.0012Z" fill="white"/>
<path d="M58.4768 21.6372H55.9344V24.1826H58.4768V21.6372Z" fill="white"/>
<path d="M68.6467 21.6372H61.0193V24.1826H68.6467V21.6372Z" fill="white"/>
<path d="M68.6467 16.5464H55.9344V19.0918H68.6467V16.5464Z" fill="white"/>
<path d="M58.4768 11.4556H55.9344V14.001H58.4768V11.4556Z" fill="white"/>
<path d="M68.6467 11.4556H61.0193V14.001H68.6467V11.4556Z" fill="white"/>
</svg>
