<svg width="104" height="104" viewBox="0 0 104 104" fill="none" xmlns="http://www.w3.org/2000/svg">
<rect width="100" height="100" fill="black" fill-opacity="0" transform="translate(2 2)"/>
<rect width="49.5207" height="49.5332" fill="black" fill-opacity="0" transform="translate(27.2388 27.2294)"/>
<rect width="35.0208" height="37.0429" fill="black" fill-opacity="0" transform="translate(34.4888 39.7197)"/>
<rect width="35.0208" height="37.0429" fill="black" fill-opacity="0" transform="translate(34.4888 39.7197)"/>
<rect width="35.0208" height="37.0429" fill="black" fill-opacity="0" transform="translate(34.4888 39.7197)"/>
<path d="M69.5096 69.5109C65.0305 73.9911 58.8429 76.7627 52.0097 76.7627C45.1554 76.7627 38.968 73.9911 34.4888 69.5109C37.8846 63.3426 44.4471 59.1749 52.0097 59.1749C59.5513 59.1749 66.1137 63.3426 69.5096 69.5109Z" stroke="url(#paint0_linear)" stroke-width="4" stroke-miterlimit="10" stroke-linecap="round" stroke-linejoin="round"/>
<path d="M52 59.1851C47.1486 59.1851 43.2069 53.3676 43.2069 48.515C43.2069 43.6624 47.1486 39.7197 52 39.7197C56.8514 39.7197 60.7931 43.6624 60.7931 48.515C60.7931 53.3676 56.8514 59.1851 52 59.1851Z" stroke="url(#paint1_linear)" stroke-width="4" stroke-miterlimit="10" stroke-linecap="round" stroke-linejoin="round"/>
<rect width="49.5207" height="49.5332" fill="black" fill-opacity="0" transform="translate(27.2388 27.2294)"/>
<rect width="49.5207" height="49.5332" fill="black" fill-opacity="0" transform="translate(27.2388 27.2294)"/>
<rect width="49.5207" height="49.5332" fill="black" fill-opacity="0" transform="translate(27.2388 27.2294)"/>
<path d="M76.7596 52.0064C76.7596 58.8415 73.9888 65.0305 69.5096 69.5108C65.0305 73.9911 58.8429 76.7626 52.0097 76.7626C45.1554 76.7626 38.968 73.9911 34.4888 69.5108C30.0097 65.0305 27.2388 58.8415 27.2388 52.0064C27.2388 38.3155 38.3221 27.2294 52.0097 27.2294C65.6763 27.2294 76.7596 38.3155 76.7596 52.0064Z" stroke="url(#paint2_linear)" stroke-width="4" stroke-miterlimit="10" stroke-linecap="round" stroke-linejoin="round"/>
<path d="M102 46.6369V57.3629L92.2311 61.0805C91.1763 65.7277 89.3431 70.0984 86.8569 74.017L91.1262 83.5624L83.5671 91.1484L73.999 86.853C70.1066 89.3398 65.7368 91.1736 61.0909 92.2285L57.3491 102H46.6509L42.9091 92.2285C38.2632 91.1736 33.8934 89.3398 30.0009 86.853L20.4329 91.1484L12.8738 83.5624L17.1431 74.017C14.6569 70.0984 12.8237 65.7277 11.7689 61.0805L2 57.3629V46.6369L11.7689 42.9193C12.8237 38.2472 14.6569 33.8764 17.1431 29.983L12.8738 20.4375L20.4329 12.8516L30.0009 17.1469C33.8934 14.6601 38.2632 12.8264 42.9091 11.7715L46.6509 2H57.3491L61.0909 11.7715C65.7368 12.8264 70.1066 14.6601 73.999 17.1469L83.5671 12.8516L91.1262 20.4375L86.8569 29.983C89.3431 33.8764 91.1763 38.2472 92.2311 42.9193L102 46.6369Z" stroke="url(#paint3_linear)" stroke-width="4" stroke-miterlimit="10" stroke-linecap="round" stroke-linejoin="round"/>
<defs>
<linearGradient id="paint0_linear" x1="34.4888" y1="59.1749" x2="34.6727" y2="77.1197" gradientUnits="userSpaceOnUse">
<stop stop-color="#F41E3D"/>
<stop offset="1" stop-color="#D5122E"/>
</linearGradient>
<linearGradient id="paint1_linear" x1="43.2069" y1="39.7197" x2="43.6554" y2="59.5722" gradientUnits="userSpaceOnUse">
<stop stop-color="#F41E3D"/>
<stop offset="1" stop-color="#D5122E"/>
</linearGradient>
<linearGradient id="paint2_linear" x1="27.2388" y1="27.2294" x2="28.2701" y2="77.7524" gradientUnits="userSpaceOnUse">
<stop stop-color="#F41E3D"/>
<stop offset="1" stop-color="#D5122E"/>
</linearGradient>
<linearGradient id="paint3_linear" x1="2" y1="2" x2="4.0816" y2="103.998" gradientUnits="userSpaceOnUse">
<stop stop-color="#F41E3D"/>
<stop offset="1" stop-color="#D5122E"/>
</linearGradient>
</defs>
</svg>
