<svg width="300" height="1160" viewBox="0 0 300 1160" fill="none" xmlns="http://www.w3.org/2000/svg">
<rect width="300" height="1160" fill="black" fill-opacity="0"/>
<path d="M0 30C0 13.4315 13.4315 0 30 0H270C286.569 0 300 13.4315 300 30V260H0V30Z" fill="#FFC312"/>
<rect y="260" width="300" height="260" fill="#12CBC4"/>
<path d="M0 520H300V840H0V520Z" fill="#EA2027"/>
<path d="M0 840H300V1130C300 1146.57 286.569 1160 270 1160H30C13.4315 1160 0 1146.57 0 1130V840Z" fill="#485460"/>
<rect y="260" width="300" height="6" fill="#F4F4F4"/>
<path d="M152.603 279.798L150.5 281.378L148.397 279.798L125.447 262.548L117.069 256.25H127.55H173.45H183.931L175.553 262.548L152.603 279.798Z" fill="#FFC312" stroke="#F4F4F4" stroke-width="7"/>
<rect x="99" y="250" width="111" height="10" fill="#FFC312"/>
<rect y="520" width="300" height="6" fill="#F4F4F4"/>
<path d="M152.603 539.798L150.5 541.378L148.397 539.798L125.447 522.548L117.069 516.25H127.55H173.45H183.931L175.553 522.548L152.603 539.798Z" fill="#12CBC4" stroke="#F4F4F4" stroke-width="7"/>
<rect x="99" y="510" width="111" height="10" fill="#12CBC4"/>
<rect y="840" width="300" height="6" fill="#F4F4F4"/>
<path d="M152.603 859.798L150.5 861.378L148.397 859.798L125.447 842.548L117.069 836.25H127.55H173.45H183.931L175.553 842.548L152.603 859.798Z" fill="#EA2027" stroke="#F4F4F4" stroke-width="7"/>
<rect x="99" y="830" width="111" height="10" fill="#EA2027"/>
</svg>
