<svg width="1160" height="400" viewBox="0 0 1160 400" fill="none" xmlns="http://www.w3.org/2000/svg">
<rect width="1160" height="400" fill="black" fill-opacity="0"/>
<path d="M947.664 296.191C1001.11 296.191 1044.43 252.901 1044.43 199.5C1044.43 146.099 1001.11 102.81 947.664 102.81C894.222 102.81 850.898 146.099 850.898 199.5C850.898 252.901 894.222 296.191 947.664 296.191Z" fill="white"/>
<path d="M947.664 296.191C894.229 296.191 850.898 252.893 850.898 199.5H797.047C797.047 282.608 864.491 350 947.664 350C1030.84 350 1098.28 282.608 1098.28 199.5H1044.43C1044.38 252.893 1001.1 296.191 947.664 296.191Z" fill="#8743C8"/>
<path d="M768.715 267.878C806.505 230.119 806.505 168.898 768.715 131.139C730.926 93.379 669.658 93.379 631.869 131.139C594.08 168.898 594.08 230.119 631.869 267.878C669.658 305.638 730.926 305.638 768.715 267.878Z" fill="white"/>
<path d="M700.281 102.809C646.846 102.809 603.515 146.107 603.515 199.5H549.715C549.715 116.392 617.108 49 700.281 49C783.454 49 850.898 116.392 850.898 199.5H797.047C797.047 146.107 753.716 102.809 700.281 102.809Z" fill="#1BC06C"/>
<path d="M452.949 296.191C399.514 296.191 356.183 252.893 356.183 199.5C356.183 146.107 399.514 102.81 452.949 102.81C506.384 102.81 549.715 146.107 549.715 199.5C549.715 252.893 506.384 296.191 452.949 296.191Z" fill="white"/>
<path d="M452.949 296.191C399.514 296.191 356.183 252.893 356.183 199.5H302.332C302.332 282.608 369.776 350 452.949 350C536.122 350 603.567 282.608 603.567 199.5H549.715C549.715 252.893 506.384 296.191 452.949 296.191Z" fill="#EF8A38"/>
<path d="M274.046 267.852C311.835 230.092 311.835 168.871 274.046 131.112C236.257 93.3522 174.989 93.3522 137.199 131.112C99.4103 168.871 99.4103 230.092 137.199 267.852C174.989 305.611 236.257 305.611 274.046 267.852Z" fill="white"/>
<path d="M205.618 102.809C152.183 102.809 108.852 146.107 108.852 199.5H55C55 116.392 122.445 49 205.618 49C288.791 49 356.235 116.392 356.235 199.5H302.332C302.332 146.107 259.052 102.809 205.618 102.809Z" fill="#318CCE"/>
<path d="M1071.25 238.218L1032.5 199.5H1044.43C1044.43 146.107 1001.1 102.809 947.664 102.809C894.229 102.809 850.898 146.107 850.898 199.5H797.047C797.047 116.392 864.491 49 947.664 49C1030.84 49 1098.28 116.392 1098.28 199.5H1110L1071.25 238.218Z" fill="#A55EEA"/>
<path d="M823.868 160.782L785.12 199.5H797.047C797.047 252.893 753.716 296.191 700.281 296.191C646.846 296.191 603.515 252.893 603.515 199.5H549.715C549.715 282.608 617.16 350 700.333 350C783.506 350 850.95 282.608 850.95 199.5H862.669L823.868 160.782Z" fill="#26DE81"/>
<path d="M576.537 238.218L537.789 199.5H549.715C549.715 146.107 506.384 102.809 452.949 102.809C399.514 102.809 356.183 146.107 356.183 199.5H302.332C302.332 116.392 369.776 49 452.949 49C536.122 49 603.567 116.392 603.567 199.5H615.285L576.537 238.218Z" fill="#FD9644"/>
<path d="M329.205 160.782L290.457 199.5H302.384C302.384 252.893 259.052 296.191 205.618 296.191C152.183 296.191 108.852 252.893 108.852 199.5H55C55 282.608 122.445 350 205.618 350C288.791 350 356.235 282.608 356.235 199.5H367.953L329.205 160.782Z" fill="#45AAF2"/>
<line x1="1.5" y1="398.5" x2="538.5" y2="398.5" stroke="#EF8A38" stroke-width="3" stroke-linecap="round" stroke-linejoin="round"/>
<line x1="455.5" y1="345.5" x2="455.5" y2="398.5" stroke="#EF8A38" stroke-width="3" stroke-linecap="round" stroke-linejoin="round"/>
<line x1="1.5" y1="1.5" x2="538.5" y2="1.5" stroke="#318CCE" stroke-width="3" stroke-linecap="round" stroke-linejoin="round"/>
<line x1="206.5" y1="1.5" x2="206.5" y2="54.5" stroke="#318CCE" stroke-width="3" stroke-linecap="round" stroke-linejoin="round"/>
<line x1="621.5" y1="1.5" x2="1158.5" y2="1.5" stroke="#1BC06C" stroke-width="3" stroke-linecap="round" stroke-linejoin="round"/>
<line x1="700.5" y1="1.5" x2="700.5" y2="54.5" stroke="#1BC06C" stroke-width="3" stroke-linecap="round" stroke-linejoin="round"/>
<line x1="621.5" y1="398.5" x2="1158.5" y2="398.5" stroke="#8743C8" stroke-width="3" stroke-linecap="round" stroke-linejoin="round"/>
<line x1="949.5" y1="345.5" x2="949.5" y2="398.5" stroke="#8743C8" stroke-width="3" stroke-linecap="round" stroke-linejoin="round"/>
</svg>
