<svg width="1009" height="594" viewBox="0 0 1009 594" fill="none" xmlns="http://www.w3.org/2000/svg">
<rect width="1009" height="594" fill="black" fill-opacity="0"/>
<rect width="995" height="154" fill="black" fill-opacity="0"/>
<path d="M77 1L77 145L995 145V1L77 1Z" fill="#F3FAFC"/>
<path d="M76.855 137.954C60.7186 137.954 45.243 131.532 33.8328 120.101C22.4226 108.67 16.0124 93.166 16.0124 77C16.0124 60.834 22.4226 45.3302 33.8328 33.8992C45.243 22.4681 60.7186 16.0462 76.855 16.0462H77V0H76.8596C56.4752 0 36.9256 8.11248 22.5117 22.5528C8.09768 36.9931 0 56.5783 0 77C0 97.4217 8.09768 117.007 22.5117 131.447C36.9256 145.888 56.4752 154 76.8596 154H77V137.954H76.855Z" fill="#F3C25A"/>
<path d="M76.5035 126.014C103.844 126.014 126.009 103.849 126.01 76.5069C126.012 49.165 103.85 27 76.5104 27C49.1704 27 27.0054 49.165 27.0035 76.5069C27.0016 103.849 49.1635 126.014 76.5035 126.014Z" fill="#F3C25A"/>
<rect width="77" height="154" fill="black" fill-opacity="0"/>
<mask id="mask0" mask-type="alpha" maskUnits="userSpaceOnUse" x="0" y="0" width="77" height="154">
<path d="M76.855 137.954C60.7186 137.954 45.243 131.532 33.8328 120.101C22.4226 108.67 16.0124 93.166 16.0124 77C16.0124 60.834 22.4226 45.3302 33.8328 33.8992C45.243 22.4681 60.7186 16.0462 76.855 16.0462H77V0H76.8596C56.4752 0 36.9256 8.11248 22.5117 22.5528C8.09768 36.9931 0 56.5783 0 77C0 97.4217 8.09768 117.007 22.5117 131.447C36.9256 145.888 56.4752 154 76.8596 154H77V137.954H76.855Z" fill="#F3C25A"/>
</mask>
<g mask="url(#mask0)">
<rect x="-1" width="90" height="77" fill="#EEBC51"/>
</g>
<rect width="99.0139" height="99.0139" fill="black" fill-opacity="0" transform="translate(27 27)"/>
<mask id="mask1" mask-type="alpha" maskUnits="userSpaceOnUse" x="27" y="27" width="100" height="100">
<path d="M76.5035 126.014C103.843 126.014 126.008 103.849 126.01 76.5069C126.012 49.165 103.85 27 76.5104 27C49.1704 27 27.0054 49.165 27.0035 76.5069C27.0015 103.849 49.1634 126.014 76.5035 126.014Z" fill="#F3C25A"/>
</mask>
<g mask="url(#mask1)">
<rect x="20" y="27" width="115" height="50" fill="#EEBC51"/>
</g>
<rect width="995" height="154" fill="black" fill-opacity="0" transform="translate(0 276)"/>
<path d="M77 285L77 422L995 422V285L77 285Z" fill="#F3FAFC"/>
<path d="M76.855 413.954C60.7186 413.954 45.243 407.532 33.8328 396.101C22.4226 384.67 16.0124 369.166 16.0124 353C16.0124 336.834 22.4226 321.33 33.8328 309.899C45.243 298.468 60.7186 292.046 76.855 292.046H77V276H76.8596C56.4752 276 36.9256 284.112 22.5117 298.553C8.09768 312.993 0 332.578 0 353C0 373.422 8.09768 393.007 22.5117 407.447C36.9256 421.888 56.4752 430 76.8596 430H77V413.954H76.855Z" fill="#FC427B"/>
<path d="M76.5035 402.014C103.844 402.014 126.009 379.849 126.01 352.507C126.012 325.165 103.85 303 76.5104 303C49.1704 303 27.0054 325.165 27.0035 352.507C27.0016 379.849 49.1635 402.014 76.5035 402.014Z" fill="#FC427B"/>
<rect width="77" height="154" fill="black" fill-opacity="0" transform="translate(0 276)"/>
<mask id="mask2" mask-type="alpha" maskUnits="userSpaceOnUse" x="0" y="276" width="77" height="154">
<path d="M76.855 413.954C60.7186 413.954 45.243 407.532 33.8328 396.101C22.4226 384.67 16.0124 369.166 16.0124 353C16.0124 336.834 22.4226 321.33 33.8328 309.899C45.243 298.468 60.7186 292.046 76.855 292.046H77V276H76.8596C56.4752 276 36.9256 284.112 22.5117 298.553C8.09768 312.993 0 332.578 0 353C0 373.422 8.09768 393.007 22.5117 407.447C36.9256 421.888 56.4752 430 76.8596 430H77V413.954H76.855Z" fill="#F3C25A"/>
</mask>
<g mask="url(#mask2)">
<rect x="-1" y="276" width="90" height="77" fill="#EF326C"/>
</g>
<rect width="99.0139" height="99.0139" fill="black" fill-opacity="0" transform="translate(27 303)"/>
<mask id="mask3" mask-type="alpha" maskUnits="userSpaceOnUse" x="27" y="303" width="100" height="100">
<path d="M76.5035 402.014C103.843 402.014 126.008 379.849 126.01 352.507C126.012 325.165 103.85 303 76.5104 303C49.1704 303 27.0054 325.165 27.0035 352.507C27.0015 379.849 49.1634 402.014 76.5035 402.014Z" fill="#F3C25A"/>
</mask>
<g mask="url(#mask3)">
<rect x="20" y="303" width="115" height="50" fill="#EF326C"/>
</g>
<rect width="968" height="154" fill="black" fill-opacity="0" transform="translate(27 138)"/>
<path d="M77 147L77 283L995 283V147L77 147Z" fill="#F3FAFC"/>
<path d="M77.145 275.954C93.2814 275.954 108.757 269.532 120.167 258.101C131.577 246.67 137.988 231.166 137.988 215C137.988 198.834 131.577 183.33 120.167 171.899C108.757 160.468 93.2814 154.046 77.145 154.046H77V138H77.1404C97.5248 138 117.074 146.112 131.488 160.553C145.902 174.993 154 194.578 154 215C154 235.422 145.902 255.007 131.488 269.447C117.074 283.888 97.5248 292 77.1404 292H77V275.954H77.145Z" fill="#3B3B98"/>
<path d="M76.5035 264.014C103.844 264.014 126.009 241.849 126.01 214.507C126.012 187.165 103.85 165 76.5104 165C49.1704 165 27.0054 187.165 27.0035 214.507C27.0016 241.849 49.1635 264.014 76.5035 264.014Z" fill="#3B3B98"/>
<rect width="77" height="154" fill="black" fill-opacity="0" transform="translate(154 138) scale(-1 1)"/>
<mask id="mask4" mask-type="alpha" maskUnits="userSpaceOnUse" x="77" y="138" width="77" height="154">
<path d="M77.145 275.954C93.2814 275.954 108.757 269.532 120.167 258.101C131.577 246.67 137.988 231.166 137.988 215C137.988 198.834 131.577 183.33 120.167 171.899C108.757 160.468 93.2814 154.046 77.145 154.046H77V138H77.1404C97.5248 138 117.074 146.112 131.488 160.553C145.902 174.993 154 194.578 154 215C154 235.422 145.902 255.007 131.488 269.447C117.074 283.888 97.5248 292 77.1404 292H77V275.954H77.145Z" fill="#F3C25A"/>
</mask>
<g mask="url(#mask4)">
<rect x="155" y="138" width="90" height="77" transform="scale(-1 1)" fill="#2F2F89"/>
</g>
<rect width="99.0139" height="99.0139" fill="black" fill-opacity="0" transform="translate(27 165)"/>
<mask id="mask5" mask-type="alpha" maskUnits="userSpaceOnUse" x="27" y="165" width="100" height="100">
<path d="M76.5035 264.014C103.843 264.014 126.008 241.849 126.01 214.507C126.012 187.165 103.85 165 76.5104 165C49.1704 165 27.0054 187.165 27.0035 214.507C27.0015 241.849 49.1634 264.014 76.5035 264.014Z" fill="#F3C25A"/>
</mask>
<g mask="url(#mask5)">
<rect x="20" y="165" width="115" height="50" fill="#2F2F89"/>
</g>
<rect width="968.007" height="164" fill="black" fill-opacity="0" transform="translate(26.9931 414)"/>
<path d="M77 424L77 578H995V424L77 424Z" fill="#F3FAFC"/>
<path d="M77.145 551.954C93.2814 551.954 108.757 545.532 120.167 534.101C131.577 522.67 137.988 507.166 137.988 491C137.988 474.834 131.577 459.33 120.167 447.899C108.757 436.468 93.2814 430.046 77.145 430.046H77V414H77.1404C97.5248 414 117.074 422.112 131.488 436.553C145.902 450.993 154 470.578 154 491C154 511.422 145.902 531.007 131.488 545.447C117.074 559.888 97.5248 568 77.1404 568H77V551.954H77.145Z" fill="#55E6C1"/>
<path d="M76.5035 540.014C103.844 540.014 126.009 517.849 126.01 490.507C126.012 463.165 103.85 441 76.5104 441C49.1704 441 27.0054 463.165 27.0035 490.507C27.0016 517.849 49.1635 540.014 76.5035 540.014Z" fill="#55E6C1"/>
<rect width="77" height="154" fill="black" fill-opacity="0" transform="translate(154 414) scale(-1 1)"/>
<mask id="mask6" mask-type="alpha" maskUnits="userSpaceOnUse" x="77" y="414" width="77" height="154">
<path d="M77.145 551.954C93.2814 551.954 108.757 545.532 120.167 534.101C131.577 522.67 137.988 507.166 137.988 491C137.988 474.834 131.577 459.33 120.167 447.899C108.757 436.468 93.2814 430.046 77.145 430.046H77V414H77.1404C97.5248 414 117.074 422.112 131.488 436.553C145.902 450.993 154 470.578 154 491C154 511.422 145.902 531.007 131.488 545.447C117.074 559.888 97.5248 568 77.1404 568H77V551.954H77.145Z" fill="#F3C25A"/>
</mask>
<g mask="url(#mask6)">
<rect x="155" y="414" width="90" height="77" transform="scale(-1 1)" fill="#46DEB7"/>
</g>
<rect width="99.0139" height="99.0139" fill="black" fill-opacity="0" transform="translate(26.9931 441)"/>
<mask id="mask7" mask-type="alpha" maskUnits="userSpaceOnUse" x="26" y="441" width="101" height="100">
<path d="M76.4965 540.014C103.837 540.014 126.002 517.849 126.003 490.507C126.005 463.165 103.843 441 76.5035 441C49.1635 441 26.9984 463.165 26.9965 490.507C26.9946 517.849 49.1565 540.014 76.4965 540.014Z" fill="white"/>
</mask>
<g mask="url(#mask7)">
<rect x="20" y="441" width="115" height="50" fill="#46DEB7"/>
</g>
<path fill-rule="evenodd" clip-rule="evenodd" d="M77 594C65.402 594 56 584.598 56 573C56 561.402 65.402 552 77 552V568C74.2386 568 72 570.239 72 573C72 575.761 74.2386 578 77 578V594Z" fill="#55E6C1"/>
<path d="M995 406V594H1009V406H995Z" fill="#55E6C1"/>
<path d="M995 266V430L1002 440L1009 430V266H995Z" fill="#FC427B"/>
<path d="M995 128V292L1002 302L1009 292V128H995Z" fill="#3B3B98"/>
<path d="M995 0V154L1002 164L1009 154V0H995Z" fill="#EEBC51"/>
<rect x="77" y="578" width="918" height="16" fill="#55E6C1"/>
<rect x="77" width="918" height="16" fill="#EEBC51"/>
</svg>
