<svg width="598" height="820" viewBox="0 0 598 820" fill="none" xmlns="http://www.w3.org/2000/svg">
<path d="M481.167 582.959C450.853 582.369 423.097 593.189 401.838 611.286C386.09 624.663 363.846 627.417 345.342 617.975L270.54 582.173C252.233 572.73 241.8 553.256 243.178 532.797C243.178 531.814 243.374 530.83 243.374 529.65C244.162 513.323 252.43 498.176 266.209 489.127L357.153 428.932C374.279 417.523 396.523 417.916 413.845 429.129C433.924 442.309 458.136 449.587 484.12 448.407C546.324 445.653 596.324 394.507 597.702 332.346C599.08 265.463 545.34 210.973 478.805 210.973C455.774 210.973 434.121 217.465 416.011 228.874C399.869 238.906 379.594 239.497 363.058 230.054L263.65 172.614C246.721 162.975 237.272 144.484 238.256 125.009C241.603 62.0603 193.966 5.01322 128.021 0.292076C60.5022 -4.42906 2.03821 48.6838 0.46342 116.157C-0.91452 183.04 52.8251 237.529 119.36 237.529C140.816 237.529 160.698 231.825 178.218 221.989C193.965 212.94 213.454 212.94 229.201 221.989L334.318 282.577C350.263 291.822 360.302 308.937 359.909 327.231C359.909 327.428 359.909 327.624 359.909 327.821C359.712 344.739 351.247 360.476 337.074 369.721L250.658 426.965C233.138 438.571 210.304 438.375 193.178 426.178C173.887 412.605 150.462 404.54 125.069 404.343C60.6991 404.146 7.15627 456.079 5.77833 520.208C4.20354 587.09 57.9432 641.974 124.675 641.974C144.95 641.974 164.045 636.859 180.777 627.81C195.54 619.942 213.257 619.745 228.02 627.417L333.925 679.153C348.885 686.825 358.925 701.381 361.287 718.102C369.554 775.739 419.16 820 479.002 820C545.537 820 599.473 765.313 597.899 698.234C596.324 635.679 544.553 584.14 481.167 582.959Z" fill="url(#paint0_radial)"/>
<path d="M479.002 807.213C426.837 807.213 381.956 768.461 374.672 716.922C371.719 695.676 358.727 677.382 340.224 667.94L234.122 616.204C225.067 611.483 214.831 609.122 204.792 609.122C194.162 609.122 183.729 611.68 174.477 616.794C159.32 625.056 141.997 629.187 124.675 629.187C96.1316 629.187 69.1634 617.974 49.2817 597.516C29.2031 577.058 18.5733 549.911 19.3607 521.388C20.7386 464.734 67.9823 418.506 124.872 418.506H125.265C147.115 418.506 167.981 425.194 185.698 437.784C196.524 445.456 209.319 449.587 222.508 449.587C235.303 449.587 247.508 445.849 258.138 438.768L344.554 381.524C362.271 369.721 373.097 350.05 373.491 328.608V328.214C374.082 305.002 361.68 283.364 341.208 271.561L236.091 210.776C226.248 205.071 215.225 202.121 204.005 202.121C192.784 202.121 181.564 205.071 171.721 210.776C155.974 219.825 137.864 224.546 119.557 224.546C91.0136 224.546 64.2422 213.333 44.1636 192.875C24.0851 172.417 13.4553 145.467 14.0458 116.747C15.2269 59.8963 62.6674 13.6685 119.753 13.6685C122.116 13.6685 124.675 13.6685 127.234 13.8652C184.123 17.7995 228.02 67.3714 224.871 124.419C223.493 149.205 235.894 172.023 256.957 184.22L356.365 241.66C366.011 247.365 377.231 250.316 388.452 250.316C400.656 250.316 412.664 246.775 423.097 240.283C439.829 229.857 459.12 224.349 478.805 224.349C507.348 224.349 534.12 235.562 554.198 256.02C574.277 276.479 584.906 303.428 584.316 331.952C583.135 387.229 538.844 432.473 483.529 434.833C481.955 434.833 480.38 435.03 478.805 435.03C458.333 435.03 438.254 429.129 421.128 417.916C410.302 410.834 397.9 407.097 385.105 407.097C372.507 407.097 360.105 410.834 349.672 417.719L258.728 477.914C241.799 489.127 230.973 508.208 229.989 528.863C229.989 529.846 229.792 530.633 229.792 531.617C227.823 557.78 241.406 582.172 264.24 593.975L339.24 629.777C348.295 634.302 358.334 636.859 368.373 636.859C383.727 636.859 398.688 631.351 410.302 621.319C429.396 604.991 453.608 596.139 478.608 596.139C479.199 596.139 479.986 596.139 480.577 596.139C507.742 596.533 533.332 607.549 552.82 626.827C572.308 646.105 583.332 671.677 583.922 698.824C584.513 727.544 573.883 754.494 554.001 774.952C534.513 795.804 507.545 807.213 479.002 807.213Z" fill="#827DDC"/>
<path d="M553.214 627.22C533.726 607.942 508.135 596.926 480.97 596.533C480.38 596.533 479.592 596.533 479.002 596.533C454.002 596.533 429.593 605.385 410.695 621.712C398.885 631.745 383.854 637 368.5 637C358.46 637 348.491 634.892 339.633 630.171L308.334 615.221L294.161 645.515L340.421 668.137C358.924 677.579 371.916 696.07 374.869 717.118C382.152 768.658 427.034 807.41 479.199 807.41C507.742 807.41 534.71 796.198 554.592 775.739C574.67 755.281 585.3 728.134 584.513 699.611C583.725 672.071 572.702 646.498 553.214 627.22Z" fill="#E9B300"/>
<path d="M264.437 594.321C241.406 582.518 227.823 558.126 229.989 531.963C229.989 530.979 230.185 530.192 230.185 529.209C231.17 508.554 241.996 489.473 258.925 478.26L320.736 437.343L301.838 410L258.138 438.72C247.508 445.802 235.107 449.54 222.508 449.54C209.123 449.54 196.328 445.409 185.698 437.737C167.981 425.147 147.115 418.459 125.265 418.459H124.872C67.9823 418.459 20.7387 464.49 19.3607 521.34C18.7702 550.06 29.4 577.01 49.2817 597.469C69.3603 617.927 96.1317 629.14 124.675 629.14C141.997 629.14 159.32 624.812 174.477 616.747C183.729 611.829 194.162 609.075 204.792 609.075C215.028 609.075 225.067 611.435 234.122 616.156L293.964 645.27L308.137 614.976L264.437 594.321Z" fill="#3FD4FB"/>
<path d="M349.87 417.779C360.303 410.894 372.704 407.157 385.302 407.157C398.098 407.157 410.499 410.894 421.326 417.976C438.452 429.189 458.53 435.09 479.002 435.09C480.577 435.09 482.152 435.09 483.727 434.894C539.041 432.533 583.332 387.289 584.513 332.012C585.104 303.489 574.474 276.342 554.395 256.08C534.317 235.622 507.545 224.409 479.002 224.409C459.317 224.409 440.026 229.917 423.294 240.343C412.861 246.835 400.853 250.376 388.649 250.376C377.428 250.376 366.208 247.425 356.563 241.72L306.957 213L290.225 241.72L341.405 271.227C361.877 283.03 374.082 304.669 373.688 327.881V328.275C373.295 349.716 362.468 369.584 344.752 381.191L302.036 409.517L320.933 436.861L349.87 417.779Z" fill="#EF5350"/>
<path d="M119.598 207.076C167.976 207.076 207.195 167.884 207.195 119.538C207.195 71.192 167.976 32 119.598 32C71.2188 32 32 71.192 32 119.538C32 167.884 71.2188 207.076 119.598 207.076Z" fill="url(#paint1_radial)"/>
<path d="M124.598 611.076C172.976 611.076 212.195 571.884 212.195 523.538C212.195 475.192 172.976 436 124.598 436C76.2188 436 37 475.192 37 523.538C37 571.884 76.2188 611.076 124.598 611.076Z" fill="url(#paint2_radial)"/>
<path d="M478.598 417.076C526.976 417.076 566.195 377.884 566.195 329.538C566.195 281.192 526.976 242 478.598 242C430.219 242 391 281.192 391 329.538C391 377.884 430.219 417.076 478.598 417.076Z" fill="url(#paint3_radial)"/>
<path d="M479.598 789.076C527.976 789.076 567.195 749.884 567.195 701.538C567.195 653.192 527.976 614 479.598 614C431.219 614 392 653.192 392 701.538C392 749.884 431.219 789.076 479.598 789.076Z" fill="url(#paint4_radial)"/>
<defs>
<radialGradient id="paint0_radial" cx="0" cy="0" r="1" gradientUnits="userSpaceOnUse" gradientTransform="translate(299.253 410.439) scale(358.913 358.668)">
<stop stop-color="white"/>
<stop offset="1" stop-color="#F2F2F2"/>
</radialGradient>
<radialGradient id="paint1_radial" cx="0" cy="0" r="1" gradientUnits="userSpaceOnUse" gradientTransform="translate(119.549 119.53) scale(87.559 87.4993)">
<stop stop-color="white"/>
<stop offset="1" stop-color="#F2F2F2"/>
</radialGradient>
<radialGradient id="paint2_radial" cx="0" cy="0" r="1" gradientUnits="userSpaceOnUse" gradientTransform="translate(124.615 523.578) scale(87.559 87.4993)">
<stop stop-color="white"/>
<stop offset="1" stop-color="#F2F2F2"/>
</radialGradient>
<radialGradient id="paint3_radial" cx="0" cy="0" r="1" gradientUnits="userSpaceOnUse" gradientTransform="translate(478.683 329.592) scale(87.5592 87.4994)">
<stop stop-color="white"/>
<stop offset="1" stop-color="#F2F2F2"/>
</radialGradient>
<radialGradient id="paint4_radial" cx="0" cy="0" r="1" gradientUnits="userSpaceOnUse" gradientTransform="translate(479.593 701.536) scale(87.559 87.4993)">
<stop stop-color="white"/>
<stop offset="1" stop-color="#F2F2F2"/>
</radialGradient>
</defs>
</svg>
