<svg width="1082" height="820" viewBox="0 0 1082 820" fill="none" xmlns="http://www.w3.org/2000/svg">
<rect width="1081.29" height="820" fill="black" fill-opacity="0" transform="translate(0.708496)"/>
<path d="M1015.01 180H432V30H1015.01C1052.05 30 1082 63.5294 1082 105C1082 146.25 1052.05 180 1015.01 180Z" fill="#827DDC"/>
<path d="M1014.17 600H466V450H1014.17C1051.18 450 1081.1 483.529 1081.1 525C1081.1 566.471 1051.18 600 1014.17 600Z" fill="#3FD4FB"/>
<path d="M67.9285 400H623.531V250H67.9285C30.921 250 1 283.529 1 325C1 366.471 30.921 400 67.9285 400Z" fill="#EF5350"/>
<path d="M67.637 792.351H649.956V642.351H67.637C30.6295 642.351 0.708496 675.88 0.708496 717.351C0.708496 758.601 30.6295 792.351 67.637 792.351Z" fill="#E9B300"/>
<path d="M724.167 582.959C693.853 582.369 666.097 593.189 644.838 611.286C629.09 624.663 606.846 627.417 588.342 617.975L513.54 582.173C495.233 572.73 484.8 553.256 486.178 532.797C486.178 531.814 486.374 530.83 486.374 529.65C487.162 513.323 495.43 498.176 509.209 489.127L600.153 428.932C617.279 417.523 639.523 417.916 656.845 429.129C676.924 442.309 701.136 449.587 727.12 448.407C789.324 445.653 839.324 394.507 840.702 332.346C842.08 265.463 788.34 210.973 721.805 210.973C698.774 210.973 677.121 217.465 659.011 228.874C642.869 238.906 622.594 239.497 606.058 230.054L506.65 172.614C489.721 162.975 480.272 144.484 481.256 125.009C484.603 62.0603 436.966 5.01322 371.021 0.292076C303.502 -4.42906 245.038 48.6838 243.463 116.157C242.085 183.04 295.825 237.529 362.36 237.529C383.816 237.529 403.698 231.825 421.218 221.989C436.965 212.94 456.454 212.94 472.201 221.989L577.318 282.577C593.263 291.822 603.302 308.937 602.909 327.231C602.909 327.428 602.909 327.624 602.909 327.821C602.712 344.739 594.247 360.476 580.074 369.721L493.658 426.965C476.138 438.571 453.304 438.375 436.178 426.178C416.887 412.605 393.462 404.54 368.069 404.343C303.699 404.146 250.156 456.079 248.778 520.208C247.204 587.09 300.943 641.974 367.675 641.974C387.95 641.974 407.045 636.859 423.777 627.81C438.54 619.942 456.257 619.745 471.02 627.417L576.925 679.153C591.885 686.825 601.925 701.381 604.287 718.102C612.554 775.739 662.16 820 722.002 820C788.537 820 842.473 765.313 840.899 698.234C839.324 635.679 787.553 584.14 724.167 582.959Z" fill="url(#paint0_radial)"/>
<path d="M722.002 807.213C669.837 807.213 624.956 768.461 617.672 716.922C614.719 695.676 601.727 677.382 583.224 667.94L477.122 616.204C468.067 611.483 457.831 609.122 447.792 609.122C437.162 609.122 426.729 611.68 417.477 616.794C402.32 625.056 384.997 629.187 367.675 629.187C339.132 629.187 312.163 617.974 292.282 597.516C272.203 577.058 261.573 549.911 262.361 521.388C263.739 464.734 310.982 418.506 367.872 418.506H368.265C390.115 418.506 410.981 425.194 428.698 437.784C439.524 445.456 452.319 449.587 465.508 449.587C478.303 449.587 490.508 445.849 501.138 438.768L587.554 381.524C605.271 369.721 616.097 350.05 616.491 328.608V328.214C617.082 305.002 604.68 283.364 584.208 271.561L479.091 210.776C469.248 205.071 458.225 202.121 447.005 202.121C435.784 202.121 424.564 205.071 414.721 210.776C398.974 219.825 380.864 224.546 362.557 224.546C334.014 224.546 307.242 213.333 287.164 192.875C267.085 172.417 256.455 145.467 257.046 116.747C258.227 59.8963 305.667 13.6685 362.753 13.6685C365.116 13.6685 367.675 13.6685 370.234 13.8652C427.123 17.7995 471.02 67.3714 467.871 124.419C466.493 149.205 478.894 172.023 499.957 184.22L599.365 241.66C609.011 247.365 620.231 250.316 631.452 250.316C643.656 250.316 655.664 246.775 666.097 240.283C682.829 229.857 702.12 224.349 721.805 224.349C750.348 224.349 777.12 235.562 797.198 256.02C817.277 276.479 827.906 303.428 827.316 331.952C826.135 387.229 781.844 432.473 726.529 434.833C724.955 434.833 723.38 435.03 721.805 435.03C701.333 435.03 681.254 429.129 664.128 417.916C653.302 410.834 640.9 407.097 628.105 407.097C615.507 407.097 603.105 410.834 592.672 417.719L501.728 477.914C484.799 489.127 473.973 508.208 472.989 528.863C472.989 529.846 472.792 530.633 472.792 531.617C470.823 557.78 484.406 582.172 507.24 593.975L582.24 629.777C591.295 634.302 601.334 636.859 611.373 636.859C626.727 636.859 641.688 631.351 653.302 621.319C672.396 604.991 696.608 596.139 721.608 596.139C722.199 596.139 722.986 596.139 723.577 596.139C750.742 596.533 776.332 607.549 795.82 626.827C815.308 646.105 826.332 671.677 826.922 698.824C827.513 727.544 816.883 754.494 797.001 774.952C777.513 795.804 750.545 807.213 722.002 807.213Z" fill="#827DDC"/>
<path d="M796.214 627.22C776.726 607.942 751.135 596.926 723.97 596.533C723.38 596.533 722.592 596.533 722.002 596.533C697.002 596.533 672.593 605.385 653.695 621.712C641.885 631.745 626.854 637 611.5 637C601.46 637 591.491 634.892 582.633 630.171L551.334 615.221L537.161 645.515L583.421 668.137C601.924 677.579 614.916 696.07 617.869 717.118C625.152 768.658 670.034 807.41 722.199 807.41C750.742 807.41 777.71 796.198 797.592 775.739C817.67 755.281 828.3 728.134 827.513 699.611C826.725 672.071 815.702 646.498 796.214 627.22Z" fill="#E9B300"/>
<path d="M507.437 594.321C484.406 582.518 470.823 558.126 472.989 531.963C472.989 530.979 473.185 530.192 473.185 529.209C474.17 508.554 484.996 489.473 501.925 478.26L563.736 437.343L544.838 410L501.138 438.72C490.508 445.802 478.107 449.54 465.508 449.54C452.123 449.54 439.328 445.409 428.698 437.737C410.981 425.147 390.115 418.459 368.265 418.459H367.872C310.982 418.459 263.739 464.49 262.361 521.34C261.77 550.06 272.4 577.01 292.282 597.469C312.36 617.927 339.132 629.14 367.675 629.14C384.997 629.14 402.32 624.812 417.477 616.747C426.729 611.829 437.162 609.075 447.792 609.075C458.028 609.075 468.067 611.435 477.122 616.156L536.964 645.27L551.137 614.976L507.437 594.321Z" fill="#3FD4FB"/>
<path d="M592.87 417.779C603.303 410.894 615.704 407.157 628.302 407.157C641.098 407.157 653.499 410.894 664.326 417.976C681.452 429.189 701.53 435.09 722.002 435.09C723.577 435.09 725.152 435.09 726.727 434.894C782.041 432.533 826.332 387.289 827.513 332.012C828.104 303.489 817.474 276.342 797.395 256.08C777.317 235.622 750.545 224.409 722.002 224.409C702.317 224.409 683.026 229.917 666.294 240.343C655.861 246.835 643.853 250.376 631.649 250.376C620.428 250.376 609.208 247.425 599.563 241.72L549.957 213L533.225 241.72L584.405 271.227C604.877 283.03 617.082 304.669 616.688 327.881V328.275C616.295 349.716 605.468 369.584 587.752 381.191L545.036 409.517L563.933 436.861L592.87 417.779Z" fill="#EF5350"/>
<path d="M362.598 207.076C410.976 207.076 450.195 167.884 450.195 119.538C450.195 71.192 410.976 32 362.598 32C314.219 32 275 71.192 275 119.538C275 167.884 314.219 207.076 362.598 207.076Z" fill="url(#paint1_radial)"/>
<path d="M367.598 611.076C415.976 611.076 455.195 571.884 455.195 523.538C455.195 475.192 415.976 436 367.598 436C319.219 436 280 475.192 280 523.538C280 571.884 319.219 611.076 367.598 611.076Z" fill="url(#paint2_radial)"/>
<path d="M721.598 417.076C769.976 417.076 809.195 377.884 809.195 329.538C809.195 281.192 769.976 242 721.598 242C673.219 242 634 281.192 634 329.538C634 377.884 673.219 417.076 721.598 417.076Z" fill="url(#paint3_radial)"/>
<path d="M722.598 789.076C770.976 789.076 810.195 749.884 810.195 701.538C810.195 653.192 770.976 614 722.598 614C674.219 614 635 653.192 635 701.538C635 749.884 674.219 789.076 722.598 789.076Z" fill="url(#paint4_radial)"/>
<defs>
<radialGradient id="paint0_radial" cx="0" cy="0" r="1" gradientUnits="userSpaceOnUse" gradientTransform="translate(542.253 410.439) scale(358.913 358.668)">
<stop stop-color="white"/>
<stop offset="1" stop-color="#F2F2F2"/>
</radialGradient>
<radialGradient id="paint1_radial" cx="0" cy="0" r="1" gradientUnits="userSpaceOnUse" gradientTransform="translate(362.549 119.53) scale(87.559 87.4993)">
<stop stop-color="white"/>
<stop offset="1" stop-color="#F2F2F2"/>
</radialGradient>
<radialGradient id="paint2_radial" cx="0" cy="0" r="1" gradientUnits="userSpaceOnUse" gradientTransform="translate(367.615 523.578) scale(87.559 87.4993)">
<stop stop-color="white"/>
<stop offset="1" stop-color="#F2F2F2"/>
</radialGradient>
<radialGradient id="paint3_radial" cx="0" cy="0" r="1" gradientUnits="userSpaceOnUse" gradientTransform="translate(721.683 329.592) scale(87.5592 87.4994)">
<stop stop-color="white"/>
<stop offset="1" stop-color="#F2F2F2"/>
</radialGradient>
<radialGradient id="paint4_radial" cx="0" cy="0" r="1" gradientUnits="userSpaceOnUse" gradientTransform="translate(722.593 701.536) scale(87.559 87.4993)">
<stop stop-color="white"/>
<stop offset="1" stop-color="#F2F2F2"/>
</radialGradient>
</defs>
</svg>
