<svg width="355" height="203" viewBox="0 0 355 203" fill="none" xmlns="http://www.w3.org/2000/svg">
<rect y="113" width="355" height="90" fill="#00A1E1"/>
<rect width="355" height="113" fill="#013C4E"/>
<path d="M51.4717 42.6738C51.4717 45.3809 50.4941 47.5137 48.5391 49.0723C46.5977 50.6309 43.8906 51.4102 40.418 51.4102C37.2188 51.4102 34.3887 50.8086 31.9277 49.6055V43.6992C33.9512 44.6016 35.6602 45.2373 37.0547 45.6064C38.4629 45.9756 39.748 46.1602 40.9102 46.1602C42.3047 46.1602 43.3711 45.8936 44.1094 45.3604C44.8613 44.8271 45.2373 44.0342 45.2373 42.9814C45.2373 42.3936 45.0732 41.874 44.7451 41.4229C44.417 40.958 43.9316 40.5137 43.2891 40.0898C42.6602 39.666 41.3682 38.9893 39.4131 38.0596C37.5811 37.1982 36.207 36.3711 35.291 35.5781C34.375 34.7852 33.6436 33.8623 33.0967 32.8096C32.5498 31.7568 32.2764 30.5264 32.2764 29.1182C32.2764 26.4658 33.1719 24.3809 34.9629 22.8633C36.7676 21.3457 39.2559 20.5869 42.4277 20.5869C43.9863 20.5869 45.4697 20.7715 46.8779 21.1406C48.2998 21.5098 49.7832 22.0293 51.3281 22.6992L49.2773 27.6416C47.6777 26.9854 46.3516 26.5273 45.2988 26.2676C44.2598 26.0078 43.2344 25.8779 42.2227 25.8779C41.0195 25.8779 40.0967 26.1582 39.4541 26.7188C38.8115 27.2793 38.4902 28.0107 38.4902 28.9131C38.4902 29.4736 38.6201 29.9658 38.8799 30.3896C39.1396 30.7998 39.5498 31.2031 40.1104 31.5996C40.6846 31.9824 42.0312 32.6797 44.1504 33.6914C46.9531 35.0312 48.874 36.3779 49.9131 37.7314C50.9521 39.0713 51.4717 40.7188 51.4717 42.6738ZM79.0407 51L76.8669 43.8633H65.9363L63.7624 51H56.9128L67.4948 20.8945H75.2673L85.8904 51H79.0407ZM75.3493 38.5312C73.3396 32.0645 72.2048 28.4072 71.945 27.5596C71.6989 26.7119 71.5212 26.042 71.4118 25.5498C70.9607 27.2998 69.6687 31.627 67.5359 38.5312H75.3493ZM93.4643 51V21.0176H99.8217V45.75H111.983V51H93.4643ZM138.26 51H120.992V21.0176H138.26V26.2266H127.35V32.8096H137.501V38.0186H127.35V45.75H138.26V51ZM166.014 42.6738C166.014 45.3809 165.036 47.5137 163.081 49.0723C161.14 50.6309 158.433 51.4102 154.96 51.4102C151.761 51.4102 148.931 50.8086 146.47 49.6055V43.6992C148.493 44.6016 150.202 45.2373 151.597 45.6064C153.005 45.9756 154.29 46.1602 155.452 46.1602C156.847 46.1602 157.913 45.8936 158.651 45.3604C159.403 44.8271 159.779 44.0342 159.779 42.9814C159.779 42.3936 159.615 41.874 159.287 41.4229C158.959 40.958 158.474 40.5137 157.831 40.0898C157.202 39.666 155.91 38.9893 153.955 38.0596C152.123 37.1982 150.749 36.3711 149.833 35.5781C148.917 34.7852 148.185 33.8623 147.639 32.8096C147.092 31.7568 146.818 30.5264 146.818 29.1182C146.818 26.4658 147.714 24.3809 149.505 22.8633C151.309 21.3457 153.798 20.5869 156.97 20.5869C158.528 20.5869 160.012 20.7715 161.42 21.1406C162.842 21.5098 164.325 22.0293 165.87 22.6992L163.819 27.6416C162.22 26.9854 160.893 26.5273 159.841 26.2676C158.802 26.0078 157.776 25.8779 156.765 25.8779C155.561 25.8779 154.639 26.1582 153.996 26.7188C153.353 27.2793 153.032 28.0107 153.032 28.9131C153.032 29.4736 153.162 29.9658 153.422 30.3896C153.682 30.7998 154.092 31.2031 154.652 31.5996C155.226 31.9824 156.573 32.6797 158.692 33.6914C161.495 35.0312 163.416 36.3779 164.455 37.7314C165.494 39.0713 166.014 40.7188 166.014 42.6738ZM181.483 51H175.228V21.0176H192.414V26.2266H181.483V33.958H191.655V39.1465H181.483V51ZM229.273 35.9678C229.273 40.9307 228.042 44.7451 225.581 47.4111C223.12 50.0771 219.593 51.4102 214.999 51.4102C210.406 51.4102 206.878 50.0771 204.417 47.4111C201.956 44.7451 200.726 40.917 200.726 35.9268C200.726 30.9365 201.956 27.1289 204.417 24.5039C206.892 21.8652 210.433 20.5459 215.04 20.5459C219.648 20.5459 223.168 21.8721 225.602 24.5244C228.049 27.1768 229.273 30.9912 229.273 35.9678ZM207.391 35.9678C207.391 39.3174 208.027 41.8398 209.298 43.5352C210.57 45.2305 212.47 46.0781 214.999 46.0781C220.072 46.0781 222.608 42.708 222.608 35.9678C222.608 29.2139 220.085 25.8369 215.04 25.8369C212.511 25.8369 210.604 26.6914 209.319 28.4004C208.034 30.0957 207.391 32.6182 207.391 35.9678ZM245.624 34.3271H247.675C249.685 34.3271 251.168 33.9922 252.125 33.3223C253.082 32.6523 253.561 31.5996 253.561 30.1641C253.561 28.7422 253.068 27.7305 252.084 27.1289C251.113 26.5273 249.603 26.2266 247.552 26.2266H245.624V34.3271ZM245.624 39.4951V51H239.267V21.0176H248.003C252.077 21.0176 255.092 21.7627 257.047 23.2529C259.002 24.7295 259.98 26.9785 259.98 30C259.98 31.7637 259.494 33.3359 258.523 34.7168C257.553 36.084 256.179 37.1572 254.401 37.9365C258.913 44.6768 261.853 49.0312 263.22 51H256.165L249.008 39.4951H245.624ZM283.509 25.8779C281.116 25.8779 279.263 26.7803 277.951 28.585C276.638 30.376 275.982 32.8779 275.982 36.0908C275.982 42.7764 278.491 46.1191 283.509 46.1191C285.614 46.1191 288.164 45.5928 291.158 44.54V49.8721C288.697 50.8975 285.949 51.4102 282.914 51.4102C278.553 51.4102 275.217 50.0908 272.906 47.4521C270.595 44.7998 269.44 40.999 269.44 36.0498C269.44 32.9326 270.008 30.2051 271.142 27.8672C272.277 25.5156 273.904 23.7178 276.023 22.4736C278.156 21.2158 280.651 20.5869 283.509 20.5869C286.421 20.5869 289.346 21.291 292.286 22.6992L290.235 27.8672C289.114 27.334 287.986 26.8691 286.851 26.4727C285.717 26.0762 284.602 25.8779 283.509 25.8779ZM318.604 51H301.336V21.0176H318.604V26.2266H307.694V32.8096H317.845V38.0186H307.694V45.75H318.604V51ZM46.96 64.7041C43.665 64.7041 41.0605 65.8047 39.1465 68.0059C37.2461 70.1934 36.2959 73.1943 36.2959 77.0088C36.2959 80.9326 37.2119 83.9678 39.0439 86.1143C40.8896 88.2471 43.5146 89.3135 46.9189 89.3135C49.0107 89.3135 51.3965 88.9375 54.0762 88.1855V91.2412C51.998 92.0205 49.4346 92.4102 46.3857 92.4102C41.9697 92.4102 38.5586 91.0703 36.1523 88.3906C33.7598 85.7109 32.5635 81.9033 32.5635 76.9678C32.5635 73.8779 33.1377 71.1709 34.2861 68.8467C35.4482 66.5225 37.1162 64.7314 39.29 63.4736C41.4775 62.2158 44.0479 61.5869 47.001 61.5869C50.1455 61.5869 52.8936 62.1611 55.2451 63.3096L53.7686 66.3037C51.499 65.2373 49.2295 64.7041 46.96 64.7041ZM82.372 92H65.6582V62.0176H82.372V65.1143H69.1445V74.7734H81.5722V77.8496H69.1445V88.8828H82.372V92ZM97.5634 79.5312V92H94.0771V62.0176H102.301C105.978 62.0176 108.692 62.7217 110.442 64.1299C112.206 65.5381 113.088 67.6572 113.088 70.4873C113.088 74.4521 111.078 77.1318 107.059 78.5264L115.2 92H111.078L103.818 79.5312H97.5634ZM97.5634 76.5371H102.342C104.803 76.5371 106.607 76.0518 107.756 75.0811C108.904 74.0967 109.478 72.627 109.478 70.6719C109.478 68.6895 108.891 67.2607 107.715 66.3857C106.553 65.5107 104.68 65.0732 102.096 65.0732H97.5634V76.5371ZM134.308 92H130.822V65.1143H121.327V62.0176H143.804V65.1143H134.308V92ZM153.376 92V62.0176H156.862V92H153.376ZM173.633 92H170.146V62.0176H186.86V65.1143H173.633V76.0859H186.06V79.1826H173.633V92ZM196.884 92V62.0176H200.37V92H196.884ZM230.368 92H213.654V62.0176H230.368V65.1143H217.14V74.7734H229.568V77.8496H217.14V88.8828H230.368V92ZM266.006 76.7217C266.006 81.6709 264.659 85.458 261.966 88.083C259.286 90.6943 255.424 92 250.379 92H242.073V62.0176H251.26C255.923 62.0176 259.546 63.3096 262.13 65.8936C264.714 68.4775 266.006 72.0869 266.006 76.7217ZM262.314 76.8447C262.314 72.9346 261.33 69.9883 259.361 68.0059C257.406 66.0234 254.494 65.0322 250.625 65.0322H245.559V88.9854H249.804C253.961 88.9854 257.085 87.9668 259.176 85.9297C261.268 83.8789 262.314 80.8506 262.314 76.8447Z" fill="white"/>
<path d="M45.4219 151.836C45.4219 153.859 44.7292 155.418 43.3438 156.512C41.9674 157.596 39.9941 158.139 37.4238 158.139H35.0723V166H32.748V146.012H37.9297C42.9245 146.012 45.4219 147.953 45.4219 151.836ZM35.0723 156.143H37.1641C39.224 156.143 40.7142 155.81 41.6348 155.145C42.5553 154.479 43.0156 153.413 43.0156 151.945C43.0156 150.624 42.5827 149.639 41.7168 148.992C40.8509 148.345 39.502 148.021 37.6699 148.021H35.0723V156.143ZM51.5469 166H49.2773V144.727H51.5469V166ZM65.5742 166L65.123 163.867H65.0137C64.2663 164.806 63.5189 165.444 62.7715 165.781C62.0332 166.109 61.1081 166.273 59.9961 166.273C58.5104 166.273 57.3438 165.891 56.4961 165.125C55.6576 164.359 55.2383 163.27 55.2383 161.857C55.2383 158.831 57.6582 157.245 62.498 157.1L65.041 157.018V156.088C65.041 154.912 64.7858 154.046 64.2754 153.49C63.7741 152.925 62.9674 152.643 61.8555 152.643C60.6068 152.643 59.194 153.025 57.6172 153.791L56.9199 152.055C57.6582 151.654 58.4648 151.339 59.3398 151.111C60.224 150.883 61.1081 150.77 61.9922 150.77C63.7786 150.77 65.1003 151.166 65.957 151.959C66.8229 152.752 67.2559 154.023 67.2559 155.773V166H65.5742ZM60.4473 164.4C61.86 164.4 62.9674 164.013 63.7695 163.238C64.5807 162.464 64.9863 161.379 64.9863 159.984V158.631L62.7168 158.727C60.9121 158.79 59.6087 159.073 58.8066 159.574C58.0137 160.066 57.6172 160.837 57.6172 161.885C57.6172 162.705 57.8633 163.329 58.3555 163.758C58.8568 164.186 59.554 164.4 60.4473 164.4ZM76.7852 164.4C77.1862 164.4 77.5736 164.373 77.9473 164.318C78.321 164.255 78.6172 164.191 78.8359 164.127V165.863C78.5898 165.982 78.2253 166.077 77.7422 166.15C77.2682 166.232 76.8398 166.273 76.457 166.273C73.5586 166.273 72.1094 164.747 72.1094 161.693V152.779H69.9629V151.686L72.1094 150.742L73.0664 147.543H74.3789V151.016H78.7266V152.779H74.3789V161.598C74.3789 162.5 74.5931 163.193 75.0215 163.676C75.4499 164.159 76.0378 164.4 76.7852 164.4ZM88.5977 152.779H84.7832V166H82.5137V152.779H79.834V151.754L82.5137 150.934V150.1C82.5137 146.417 84.1224 144.576 87.3398 144.576C88.1328 144.576 89.0625 144.736 90.1289 145.055L89.541 146.873C88.666 146.59 87.9186 146.449 87.2988 146.449C86.4421 146.449 85.8086 146.736 85.3984 147.311C84.9883 147.876 84.7832 148.787 84.7832 150.045V151.016H88.5977V152.779ZM104.266 158.494C104.266 160.937 103.65 162.846 102.42 164.223C101.189 165.59 99.4896 166.273 97.3203 166.273C95.9805 166.273 94.791 165.959 93.752 165.33C92.7129 164.701 91.9108 163.799 91.3457 162.623C90.7806 161.447 90.498 160.071 90.498 158.494C90.498 156.051 91.1087 154.151 92.3301 152.793C93.5514 151.426 95.2467 150.742 97.416 150.742C99.5124 150.742 101.176 151.439 102.406 152.834C103.646 154.229 104.266 156.115 104.266 158.494ZM92.8496 158.494C92.8496 160.408 93.2324 161.867 93.998 162.869C94.7637 163.872 95.8893 164.373 97.375 164.373C98.8607 164.373 99.9863 163.876 100.752 162.883C101.527 161.88 101.914 160.417 101.914 158.494C101.914 156.589 101.527 155.145 100.752 154.16C99.9863 153.167 98.8516 152.67 97.3477 152.67C95.862 152.67 94.7409 153.158 93.9844 154.133C93.2279 155.108 92.8496 156.562 92.8496 158.494ZM115.094 150.742C115.759 150.742 116.356 150.797 116.885 150.906L116.57 153.012C115.951 152.875 115.404 152.807 114.93 152.807C113.717 152.807 112.678 153.299 111.812 154.283C110.956 155.268 110.527 156.493 110.527 157.961V166H108.258V151.016H110.131L110.391 153.791H110.5C111.056 152.816 111.726 152.064 112.51 151.535C113.294 151.007 114.155 150.742 115.094 150.742ZM138.787 166V156.252C138.787 155.058 138.532 154.165 138.021 153.572C137.511 152.971 136.718 152.67 135.643 152.67C134.23 152.67 133.186 153.076 132.512 153.887C131.837 154.698 131.5 155.947 131.5 157.633V166H129.23V156.252C129.23 155.058 128.975 154.165 128.465 153.572C127.954 152.971 127.157 152.67 126.072 152.67C124.65 152.67 123.607 153.098 122.941 153.955C122.285 154.803 121.957 156.197 121.957 158.139V166H119.688V151.016H121.533L121.902 153.066H122.012C122.44 152.337 123.042 151.768 123.816 151.357C124.6 150.947 125.475 150.742 126.441 150.742C128.784 150.742 130.315 151.59 131.035 153.285H131.145C131.591 152.501 132.238 151.882 133.086 151.426C133.934 150.97 134.9 150.742 135.984 150.742C137.68 150.742 138.947 151.18 139.785 152.055C140.633 152.921 141.057 154.311 141.057 156.225V166H138.787ZM169.316 155.814C169.316 159.114 168.419 161.639 166.623 163.389C164.837 165.13 162.262 166 158.898 166H153.361V146.012H159.486C162.594 146.012 165.01 146.873 166.732 148.596C168.455 150.318 169.316 152.725 169.316 155.814ZM166.855 155.896C166.855 153.29 166.199 151.326 164.887 150.004C163.583 148.682 161.642 148.021 159.062 148.021H155.686V163.99H158.516C161.286 163.99 163.369 163.311 164.764 161.953C166.158 160.586 166.855 158.567 166.855 155.896ZM179.775 166.273C177.561 166.273 175.811 165.599 174.525 164.25C173.249 162.901 172.611 161.028 172.611 158.631C172.611 156.215 173.204 154.297 174.389 152.875C175.583 151.453 177.182 150.742 179.188 150.742C181.065 150.742 182.551 151.362 183.645 152.602C184.738 153.832 185.285 155.459 185.285 157.482V158.918H174.963C175.008 160.677 175.451 162.012 176.289 162.924C177.137 163.835 178.326 164.291 179.857 164.291C181.471 164.291 183.066 163.954 184.643 163.279V165.303C183.84 165.649 183.079 165.895 182.359 166.041C181.648 166.196 180.787 166.273 179.775 166.273ZM179.16 152.643C177.957 152.643 176.995 153.035 176.275 153.818C175.564 154.602 175.145 155.687 175.018 157.072H182.852C182.852 155.641 182.533 154.548 181.895 153.791C181.257 153.025 180.345 152.643 179.16 152.643ZM192.449 166L186.762 151.016H189.195L192.422 159.902C193.151 161.98 193.579 163.329 193.707 163.949H193.816C193.917 163.466 194.231 162.468 194.76 160.955C195.298 159.433 196.496 156.12 198.355 151.016H200.789L195.102 166H192.449ZM209.525 166.273C207.311 166.273 205.561 165.599 204.275 164.25C202.999 162.901 202.361 161.028 202.361 158.631C202.361 156.215 202.954 154.297 204.139 152.875C205.333 151.453 206.932 150.742 208.938 150.742C210.815 150.742 212.301 151.362 213.395 152.602C214.488 153.832 215.035 155.459 215.035 157.482V158.918H204.713C204.758 160.677 205.201 162.012 206.039 162.924C206.887 163.835 208.076 164.291 209.607 164.291C211.221 164.291 212.816 163.954 214.393 163.279V165.303C213.59 165.649 212.829 165.895 212.109 166.041C211.398 166.196 210.537 166.273 209.525 166.273ZM208.91 152.643C207.707 152.643 206.745 153.035 206.025 153.818C205.314 154.602 204.895 155.687 204.768 157.072H212.602C212.602 155.641 212.283 154.548 211.645 153.791C211.007 153.025 210.095 152.643 208.91 152.643ZM221.188 166H218.918V144.727H221.188V166ZM238.934 158.494C238.934 160.937 238.318 162.846 237.088 164.223C235.857 165.59 234.158 166.273 231.988 166.273C230.648 166.273 229.459 165.959 228.42 165.33C227.381 164.701 226.579 163.799 226.014 162.623C225.449 161.447 225.166 160.071 225.166 158.494C225.166 156.051 225.777 154.151 226.998 152.793C228.219 151.426 229.915 150.742 232.084 150.742C234.18 150.742 235.844 151.439 237.074 152.834C238.314 154.229 238.934 156.115 238.934 158.494ZM227.518 158.494C227.518 160.408 227.9 161.867 228.666 162.869C229.432 163.872 230.557 164.373 232.043 164.373C233.529 164.373 234.654 163.876 235.42 162.883C236.195 161.88 236.582 160.417 236.582 158.494C236.582 156.589 236.195 155.145 235.42 154.16C234.654 153.167 233.52 152.67 232.016 152.67C230.53 152.67 229.409 153.158 228.652 154.133C227.896 155.108 227.518 156.562 227.518 158.494ZM249.898 166.273C248.923 166.273 248.03 166.096 247.219 165.74C246.417 165.376 245.742 164.82 245.195 164.072H245.031C245.141 164.947 245.195 165.777 245.195 166.561V172.727H242.926V151.016H244.771L245.086 153.066H245.195C245.779 152.246 246.458 151.654 247.232 151.289C248.007 150.924 248.896 150.742 249.898 150.742C251.885 150.742 253.417 151.421 254.492 152.779C255.577 154.137 256.119 156.042 256.119 158.494C256.119 160.955 255.568 162.869 254.465 164.236C253.371 165.594 251.849 166.273 249.898 166.273ZM249.57 152.67C248.039 152.67 246.932 153.094 246.248 153.941C245.564 154.789 245.214 156.138 245.195 157.988V158.494C245.195 160.6 245.546 162.108 246.248 163.02C246.95 163.922 248.076 164.373 249.625 164.373C250.919 164.373 251.931 163.849 252.66 162.801C253.398 161.753 253.768 160.308 253.768 158.467C253.768 156.598 253.398 155.167 252.66 154.174C251.931 153.171 250.901 152.67 249.57 152.67ZM266.428 166.273C264.213 166.273 262.463 165.599 261.178 164.25C259.902 162.901 259.264 161.028 259.264 158.631C259.264 156.215 259.856 154.297 261.041 152.875C262.235 151.453 263.835 150.742 265.84 150.742C267.717 150.742 269.203 151.362 270.297 152.602C271.391 153.832 271.938 155.459 271.938 157.482V158.918H261.615C261.661 160.677 262.103 162.012 262.941 162.924C263.789 163.835 264.979 164.291 266.51 164.291C268.123 164.291 269.718 163.954 271.295 163.279V165.303C270.493 165.649 269.732 165.895 269.012 166.041C268.301 166.196 267.439 166.273 266.428 166.273ZM265.812 152.643C264.609 152.643 263.648 153.035 262.928 153.818C262.217 154.602 261.798 155.687 261.67 157.072H269.504C269.504 155.641 269.185 154.548 268.547 153.791C267.909 153.025 266.997 152.643 265.812 152.643ZM282.656 150.742C283.322 150.742 283.919 150.797 284.447 150.906L284.133 153.012C283.513 152.875 282.966 152.807 282.492 152.807C281.28 152.807 280.241 153.299 279.375 154.283C278.518 155.268 278.09 156.493 278.09 157.961V166H275.82V151.016H277.693L277.953 153.791H278.062C278.618 152.816 279.288 152.064 280.072 151.535C280.856 151.007 281.717 150.742 282.656 150.742ZM294.865 166V146.012H297.189V166H294.865Z" fill="white"/>
<path d="M290 62C294 61.6 296.667 63.8333 297.5 65C298.7 62.2 302.333 61.8333 304 62C307.6 62 309.167 65 309.5 66.5C317 63.5 326 71 321.5 78.5C317.9 84.5 313.333 84.3333 311.5 83.5C311 84.5 312 85 308.5 86.5C305.7 87.7 303.333 87 302.5 86.5C302 87.5 301 91.5 296 91.5C292 91.5 289.667 88.1667 289 86.5C284 86 280.5 83.5 280.5 79.5C280.5 76.2015 282.5 73.8333 284 73C283.5 67.5 285 62.5 290 62Z" fill="#00A1E1"/>
</svg>
