<svg width="355" height="203" viewBox="0 0 355 203" fill="none" xmlns="http://www.w3.org/2000/svg">
<rect y="113" width="355" height="90" fill="#00A1E1"/>
<rect width="355" height="113" fill="#013C4E"/>
<path d="M51.4717 42.6738C51.4717 45.3809 50.4941 47.5137 48.5391 49.0723C46.5977 50.6309 43.8906 51.4102 40.418 51.4102C37.2188 51.4102 34.3887 50.8086 31.9277 49.6055V43.6992C33.9512 44.6016 35.6602 45.2373 37.0547 45.6064C38.4629 45.9756 39.748 46.1602 40.9102 46.1602C42.3047 46.1602 43.3711 45.8936 44.1094 45.3604C44.8613 44.8271 45.2373 44.0342 45.2373 42.9814C45.2373 42.3936 45.0732 41.874 44.7451 41.4229C44.417 40.958 43.9316 40.5137 43.2891 40.0898C42.6602 39.666 41.3682 38.9893 39.4131 38.0596C37.5811 37.1982 36.207 36.3711 35.291 35.5781C34.375 34.7852 33.6436 33.8623 33.0967 32.8096C32.5498 31.7568 32.2764 30.5264 32.2764 29.1182C32.2764 26.4658 33.1719 24.3809 34.9629 22.8633C36.7676 21.3457 39.2559 20.5869 42.4277 20.5869C43.9863 20.5869 45.4697 20.7715 46.8779 21.1406C48.2998 21.5098 49.7832 22.0293 51.3281 22.6992L49.2773 27.6416C47.6777 26.9854 46.3516 26.5273 45.2988 26.2676C44.2598 26.0078 43.2344 25.8779 42.2227 25.8779C41.0195 25.8779 40.0967 26.1582 39.4541 26.7188C38.8115 27.2793 38.4902 28.0107 38.4902 28.9131C38.4902 29.4736 38.6201 29.9658 38.8799 30.3896C39.1396 30.7998 39.5498 31.2031 40.1104 31.5996C40.6846 31.9824 42.0312 32.6797 44.1504 33.6914C46.9531 35.0312 48.874 36.3779 49.9131 37.7314C50.9521 39.0713 51.4717 40.7188 51.4717 42.6738ZM79.0407 51L76.8669 43.8633H65.9363L63.7624 51H56.9128L67.4948 20.8945H75.2673L85.8904 51H79.0407ZM75.3493 38.5312C73.3396 32.0645 72.2048 28.4072 71.945 27.5596C71.6989 26.7119 71.5212 26.042 71.4118 25.5498C70.9607 27.2998 69.6687 31.627 67.5359 38.5312H75.3493ZM93.4643 51V21.0176H99.8217V45.75H111.983V51H93.4643ZM138.26 51H120.992V21.0176H138.26V26.2266H127.35V32.8096H137.501V38.0186H127.35V45.75H138.26V51ZM166.014 42.6738C166.014 45.3809 165.036 47.5137 163.081 49.0723C161.14 50.6309 158.433 51.4102 154.96 51.4102C151.761 51.4102 148.931 50.8086 146.47 49.6055V43.6992C148.493 44.6016 150.202 45.2373 151.597 45.6064C153.005 45.9756 154.29 46.1602 155.452 46.1602C156.847 46.1602 157.913 45.8936 158.651 45.3604C159.403 44.8271 159.779 44.0342 159.779 42.9814C159.779 42.3936 159.615 41.874 159.287 41.4229C158.959 40.958 158.474 40.5137 157.831 40.0898C157.202 39.666 155.91 38.9893 153.955 38.0596C152.123 37.1982 150.749 36.3711 149.833 35.5781C148.917 34.7852 148.185 33.8623 147.639 32.8096C147.092 31.7568 146.818 30.5264 146.818 29.1182C146.818 26.4658 147.714 24.3809 149.505 22.8633C151.309 21.3457 153.798 20.5869 156.97 20.5869C158.528 20.5869 160.012 20.7715 161.42 21.1406C162.842 21.5098 164.325 22.0293 165.87 22.6992L163.819 27.6416C162.22 26.9854 160.893 26.5273 159.841 26.2676C158.802 26.0078 157.776 25.8779 156.765 25.8779C155.561 25.8779 154.639 26.1582 153.996 26.7188C153.353 27.2793 153.032 28.0107 153.032 28.9131C153.032 29.4736 153.162 29.9658 153.422 30.3896C153.682 30.7998 154.092 31.2031 154.652 31.5996C155.226 31.9824 156.573 32.6797 158.692 33.6914C161.495 35.0312 163.416 36.3779 164.455 37.7314C165.494 39.0713 166.014 40.7188 166.014 42.6738ZM181.483 51H175.228V21.0176H192.414V26.2266H181.483V33.958H191.655V39.1465H181.483V51ZM229.273 35.9678C229.273 40.9307 228.042 44.7451 225.581 47.4111C223.12 50.0771 219.593 51.4102 214.999 51.4102C210.406 51.4102 206.878 50.0771 204.417 47.4111C201.956 44.7451 200.726 40.917 200.726 35.9268C200.726 30.9365 201.956 27.1289 204.417 24.5039C206.892 21.8652 210.433 20.5459 215.04 20.5459C219.648 20.5459 223.168 21.8721 225.602 24.5244C228.049 27.1768 229.273 30.9912 229.273 35.9678ZM207.391 35.9678C207.391 39.3174 208.027 41.8398 209.298 43.5352C210.57 45.2305 212.47 46.0781 214.999 46.0781C220.072 46.0781 222.608 42.708 222.608 35.9678C222.608 29.2139 220.085 25.8369 215.04 25.8369C212.511 25.8369 210.604 26.6914 209.319 28.4004C208.034 30.0957 207.391 32.6182 207.391 35.9678ZM245.624 34.3271H247.675C249.685 34.3271 251.168 33.9922 252.125 33.3223C253.082 32.6523 253.561 31.5996 253.561 30.1641C253.561 28.7422 253.068 27.7305 252.084 27.1289C251.113 26.5273 249.603 26.2266 247.552 26.2266H245.624V34.3271ZM245.624 39.4951V51H239.267V21.0176H248.003C252.077 21.0176 255.092 21.7627 257.047 23.2529C259.002 24.7295 259.98 26.9785 259.98 30C259.98 31.7637 259.494 33.3359 258.523 34.7168C257.553 36.084 256.179 37.1572 254.401 37.9365C258.913 44.6768 261.853 49.0312 263.22 51H256.165L249.008 39.4951H245.624ZM283.509 25.8779C281.116 25.8779 279.263 26.7803 277.951 28.585C276.638 30.376 275.982 32.8779 275.982 36.0908C275.982 42.7764 278.491 46.1191 283.509 46.1191C285.614 46.1191 288.164 45.5928 291.158 44.54V49.8721C288.697 50.8975 285.949 51.4102 282.914 51.4102C278.553 51.4102 275.217 50.0908 272.906 47.4521C270.595 44.7998 269.44 40.999 269.44 36.0498C269.44 32.9326 270.008 30.2051 271.142 27.8672C272.277 25.5156 273.904 23.7178 276.023 22.4736C278.156 21.2158 280.651 20.5869 283.509 20.5869C286.421 20.5869 289.346 21.291 292.286 22.6992L290.235 27.8672C289.114 27.334 287.986 26.8691 286.851 26.4727C285.717 26.0762 284.602 25.8779 283.509 25.8779ZM318.604 51H301.336V21.0176H318.604V26.2266H307.694V32.8096H317.845V38.0186H307.694V45.75H318.604V51ZM46.96 64.7041C43.665 64.7041 41.0605 65.8047 39.1465 68.0059C37.2461 70.1934 36.2959 73.1943 36.2959 77.0088C36.2959 80.9326 37.2119 83.9678 39.0439 86.1143C40.8896 88.2471 43.5146 89.3135 46.9189 89.3135C49.0107 89.3135 51.3965 88.9375 54.0762 88.1855V91.2412C51.998 92.0205 49.4346 92.4102 46.3857 92.4102C41.9697 92.4102 38.5586 91.0703 36.1523 88.3906C33.7598 85.7109 32.5635 81.9033 32.5635 76.9678C32.5635 73.8779 33.1377 71.1709 34.2861 68.8467C35.4482 66.5225 37.1162 64.7314 39.29 63.4736C41.4775 62.2158 44.0479 61.5869 47.001 61.5869C50.1455 61.5869 52.8936 62.1611 55.2451 63.3096L53.7686 66.3037C51.499 65.2373 49.2295 64.7041 46.96 64.7041ZM82.372 92H65.6582V62.0176H82.372V65.1143H69.1445V74.7734H81.5722V77.8496H69.1445V88.8828H82.372V92ZM97.5634 79.5312V92H94.0771V62.0176H102.301C105.978 62.0176 108.692 62.7217 110.442 64.1299C112.206 65.5381 113.088 67.6572 113.088 70.4873C113.088 74.4521 111.078 77.1318 107.059 78.5264L115.2 92H111.078L103.818 79.5312H97.5634ZM97.5634 76.5371H102.342C104.803 76.5371 106.607 76.0518 107.756 75.0811C108.904 74.0967 109.478 72.627 109.478 70.6719C109.478 68.6895 108.891 67.2607 107.715 66.3857C106.553 65.5107 104.68 65.0732 102.096 65.0732H97.5634V76.5371ZM134.308 92H130.822V65.1143H121.327V62.0176H143.804V65.1143H134.308V92ZM153.376 92V62.0176H156.862V92H153.376ZM173.633 92H170.146V62.0176H186.86V65.1143H173.633V76.0859H186.06V79.1826H173.633V92ZM196.884 92V62.0176H200.37V92H196.884ZM230.368 92H213.654V62.0176H230.368V65.1143H217.14V74.7734H229.568V77.8496H217.14V88.8828H230.368V92ZM266.006 76.7217C266.006 81.6709 264.659 85.458 261.966 88.083C259.286 90.6943 255.424 92 250.379 92H242.073V62.0176H251.26C255.923 62.0176 259.546 63.3096 262.13 65.8936C264.714 68.4775 266.006 72.0869 266.006 76.7217ZM262.314 76.8447C262.314 72.9346 261.33 69.9883 259.361 68.0059C257.406 66.0234 254.494 65.0322 250.625 65.0322H245.559V88.9854H249.804C253.961 88.9854 257.085 87.9668 259.176 85.9297C261.268 83.8789 262.314 80.8506 262.314 76.8447Z" fill="white"/>
<path d="M45.4219 151.836C45.4219 153.859 44.7292 155.418 43.3438 156.512C41.9674 157.596 39.9941 158.139 37.4238 158.139H35.0723V166H32.748V146.012H37.9297C42.9245 146.012 45.4219 147.953 45.4219 151.836ZM35.0723 156.143H37.1641C39.224 156.143 40.7142 155.81 41.6348 155.145C42.5553 154.479 43.0156 153.413 43.0156 151.945C43.0156 150.624 42.5827 149.639 41.7168 148.992C40.8509 148.345 39.502 148.021 37.6699 148.021H35.0723V156.143ZM58.4922 166L58.041 163.867H57.9316C57.1842 164.806 56.4368 165.444 55.6895 165.781C54.9512 166.109 54.026 166.273 52.9141 166.273C51.4284 166.273 50.2617 165.891 49.4141 165.125C48.5755 164.359 48.1562 163.27 48.1562 161.857C48.1562 158.831 50.5762 157.245 55.416 157.1L57.959 157.018V156.088C57.959 154.912 57.7038 154.046 57.1934 153.49C56.6921 152.925 55.8854 152.643 54.7734 152.643C53.5247 152.643 52.112 153.025 50.5352 153.791L49.8379 152.055C50.5762 151.654 51.3828 151.339 52.2578 151.111C53.1419 150.883 54.026 150.77 54.9102 150.77C56.6966 150.77 58.0182 151.166 58.875 151.959C59.7409 152.752 60.1738 154.023 60.1738 155.773V166H58.4922ZM53.3652 164.4C54.778 164.4 55.8854 164.013 56.6875 163.238C57.4987 162.464 57.9043 161.379 57.9043 159.984V158.631L55.6348 158.727C53.8301 158.79 52.5267 159.073 51.7246 159.574C50.9316 160.066 50.5352 160.837 50.5352 161.885C50.5352 162.705 50.7812 163.329 51.2734 163.758C51.7747 164.186 52.472 164.4 53.3652 164.4ZM71.6992 150.742C72.3646 150.742 72.9616 150.797 73.4902 150.906L73.1758 153.012C72.556 152.875 72.0091 152.807 71.5352 152.807C70.3229 152.807 69.2839 153.299 68.418 154.283C67.5612 155.268 67.1328 156.493 67.1328 157.961V166H64.8633V151.016H66.7363L66.9961 153.791H67.1055C67.6615 152.816 68.3314 152.064 69.1152 151.535C69.8991 151.007 70.7604 150.742 71.6992 150.742ZM86.4922 163.99H86.3691C85.321 165.512 83.7533 166.273 81.666 166.273C79.7064 166.273 78.1797 165.604 77.0859 164.264C76.0013 162.924 75.459 161.019 75.459 158.549C75.459 156.079 76.0059 154.16 77.0996 152.793C78.1934 151.426 79.7155 150.742 81.666 150.742C83.6986 150.742 85.2572 151.48 86.3418 152.957H86.5195L86.4238 151.877L86.3691 150.824V144.727H88.6387V166H86.793L86.4922 163.99ZM81.9531 164.373C83.5026 164.373 84.6237 163.954 85.3164 163.115C86.0182 162.268 86.3691 160.905 86.3691 159.027V158.549C86.3691 156.425 86.0137 154.912 85.3027 154.01C84.6009 153.098 83.4753 152.643 81.9258 152.643C80.5951 152.643 79.5742 153.162 78.8633 154.201C78.1615 155.231 77.8105 156.689 77.8105 158.576C77.8105 160.49 78.1615 161.935 78.8633 162.91C79.5651 163.885 80.5951 164.373 81.9531 164.373ZM106.398 158.494C106.398 160.937 105.783 162.846 104.553 164.223C103.322 165.59 101.622 166.273 99.4531 166.273C98.1133 166.273 96.9238 165.959 95.8848 165.33C94.8457 164.701 94.0436 163.799 93.4785 162.623C92.9134 161.447 92.6309 160.071 92.6309 158.494C92.6309 156.051 93.2415 154.151 94.4629 152.793C95.6842 151.426 97.3796 150.742 99.5488 150.742C101.645 150.742 103.309 151.439 104.539 152.834C105.779 154.229 106.398 156.115 106.398 158.494ZM94.9824 158.494C94.9824 160.408 95.3652 161.867 96.1309 162.869C96.8965 163.872 98.0221 164.373 99.5078 164.373C100.993 164.373 102.119 163.876 102.885 162.883C103.66 161.88 104.047 160.417 104.047 158.494C104.047 156.589 103.66 155.145 102.885 154.16C102.119 153.167 100.984 152.67 99.4805 152.67C97.9948 152.67 96.8737 153.158 96.1172 154.133C95.3607 155.108 94.9824 156.562 94.9824 158.494ZM115.23 164.4C115.632 164.4 116.019 164.373 116.393 164.318C116.766 164.255 117.062 164.191 117.281 164.127V165.863C117.035 165.982 116.671 166.077 116.188 166.15C115.714 166.232 115.285 166.273 114.902 166.273C112.004 166.273 110.555 164.747 110.555 161.693V152.779H108.408V151.686L110.555 150.742L111.512 147.543H112.824V151.016H117.172V152.779H112.824V161.598C112.824 162.5 113.038 163.193 113.467 163.676C113.895 164.159 114.483 164.4 115.23 164.4ZM139.184 160.682C139.184 162.441 138.546 163.812 137.27 164.797C135.993 165.781 134.262 166.273 132.074 166.273C129.704 166.273 127.882 165.968 126.605 165.357V163.115C127.426 163.462 128.319 163.735 129.285 163.936C130.251 164.136 131.208 164.236 132.156 164.236C133.706 164.236 134.872 163.945 135.656 163.361C136.44 162.769 136.832 161.949 136.832 160.9C136.832 160.208 136.691 159.643 136.408 159.205C136.135 158.758 135.67 158.348 135.014 157.975C134.367 157.601 133.378 157.177 132.047 156.703C130.188 156.038 128.857 155.249 128.055 154.338C127.262 153.426 126.865 152.237 126.865 150.77C126.865 149.229 127.444 148.003 128.602 147.092C129.759 146.18 131.29 145.725 133.195 145.725C135.182 145.725 137.01 146.089 138.678 146.818L137.953 148.842C136.303 148.149 134.699 147.803 133.141 147.803C131.91 147.803 130.949 148.067 130.256 148.596C129.563 149.124 129.217 149.858 129.217 150.797C129.217 151.49 129.344 152.059 129.6 152.506C129.855 152.943 130.283 153.349 130.885 153.723C131.495 154.087 132.425 154.493 133.674 154.939C135.77 155.687 137.21 156.489 137.994 157.346C138.787 158.202 139.184 159.314 139.184 160.682ZM149.902 166.273C148.927 166.273 148.034 166.096 147.223 165.74C146.421 165.376 145.746 164.82 145.199 164.072H145.035C145.145 164.947 145.199 165.777 145.199 166.561V172.727H142.93V151.016H144.775L145.09 153.066H145.199C145.783 152.246 146.462 151.654 147.236 151.289C148.011 150.924 148.9 150.742 149.902 150.742C151.889 150.742 153.421 151.421 154.496 152.779C155.581 154.137 156.123 156.042 156.123 158.494C156.123 160.955 155.572 162.869 154.469 164.236C153.375 165.594 151.853 166.273 149.902 166.273ZM149.574 152.67C148.043 152.67 146.936 153.094 146.252 153.941C145.568 154.789 145.217 156.138 145.199 157.988V158.494C145.199 160.6 145.55 162.108 146.252 163.02C146.954 163.922 148.079 164.373 149.629 164.373C150.923 164.373 151.935 163.849 152.664 162.801C153.402 161.753 153.771 160.308 153.771 158.467C153.771 156.598 153.402 155.167 152.664 154.174C151.935 153.171 150.905 152.67 149.574 152.67ZM166.432 166.273C164.217 166.273 162.467 165.599 161.182 164.25C159.906 162.901 159.268 161.028 159.268 158.631C159.268 156.215 159.86 154.297 161.045 152.875C162.239 151.453 163.839 150.742 165.844 150.742C167.721 150.742 169.207 151.362 170.301 152.602C171.395 153.832 171.941 155.459 171.941 157.482V158.918H161.619C161.665 160.677 162.107 162.012 162.945 162.924C163.793 163.835 164.982 164.291 166.514 164.291C168.127 164.291 169.722 163.954 171.299 163.279V165.303C170.497 165.649 169.736 165.895 169.016 166.041C168.305 166.196 167.443 166.273 166.432 166.273ZM165.816 152.643C164.613 152.643 163.652 153.035 162.932 153.818C162.221 154.602 161.801 155.687 161.674 157.072H169.508C169.508 155.641 169.189 154.548 168.551 153.791C167.913 153.025 167.001 152.643 165.816 152.643ZM181.812 166.273C179.643 166.273 177.962 165.608 176.768 164.277C175.583 162.938 174.99 161.046 174.99 158.604C174.99 156.097 175.592 154.16 176.795 152.793C178.007 151.426 179.73 150.742 181.963 150.742C182.683 150.742 183.403 150.82 184.123 150.975C184.843 151.13 185.408 151.312 185.818 151.521L185.121 153.449C184.62 153.249 184.073 153.085 183.48 152.957C182.888 152.82 182.364 152.752 181.908 152.752C178.864 152.752 177.342 154.693 177.342 158.576C177.342 160.417 177.711 161.83 178.449 162.814C179.197 163.799 180.299 164.291 181.758 164.291C183.007 164.291 184.287 164.022 185.6 163.484V165.494C184.597 166.014 183.335 166.273 181.812 166.273ZM191.438 166H189.168V151.016H191.438V166ZM188.977 146.955C188.977 146.436 189.104 146.057 189.359 145.82C189.615 145.574 189.934 145.451 190.316 145.451C190.681 145.451 190.995 145.574 191.26 145.82C191.524 146.066 191.656 146.445 191.656 146.955C191.656 147.465 191.524 147.848 191.26 148.104C190.995 148.35 190.681 148.473 190.316 148.473C189.934 148.473 189.615 148.35 189.359 148.104C189.104 147.848 188.977 147.465 188.977 146.955ZM205.465 166L205.014 163.867H204.904C204.157 164.806 203.41 165.444 202.662 165.781C201.924 166.109 200.999 166.273 199.887 166.273C198.401 166.273 197.234 165.891 196.387 165.125C195.548 164.359 195.129 163.27 195.129 161.857C195.129 158.831 197.549 157.245 202.389 157.1L204.932 157.018V156.088C204.932 154.912 204.676 154.046 204.166 153.49C203.665 152.925 202.858 152.643 201.746 152.643C200.497 152.643 199.085 153.025 197.508 153.791L196.811 152.055C197.549 151.654 198.355 151.339 199.23 151.111C200.115 150.883 200.999 150.77 201.883 150.77C203.669 150.77 204.991 151.166 205.848 151.959C206.714 152.752 207.146 154.023 207.146 155.773V166H205.465ZM200.338 164.4C201.751 164.4 202.858 164.013 203.66 163.238C204.471 162.464 204.877 161.379 204.877 159.984V158.631L202.607 158.727C200.803 158.79 199.499 159.073 198.697 159.574C197.904 160.066 197.508 160.837 197.508 161.885C197.508 162.705 197.754 163.329 198.246 163.758C198.747 164.186 199.445 164.4 200.338 164.4ZM214.105 166H211.836V144.727H214.105V166ZM221.188 166H218.918V151.016H221.188V166ZM218.727 146.955C218.727 146.436 218.854 146.057 219.109 145.82C219.365 145.574 219.684 145.451 220.066 145.451C220.431 145.451 220.745 145.574 221.01 145.82C221.274 146.066 221.406 146.445 221.406 146.955C221.406 147.465 221.274 147.848 221.01 148.104C220.745 148.35 220.431 148.473 220.066 148.473C219.684 148.473 219.365 148.35 219.109 148.104C218.854 147.848 218.727 147.465 218.727 146.955ZM235.666 161.912C235.666 163.307 235.146 164.382 234.107 165.139C233.068 165.895 231.61 166.273 229.732 166.273C227.745 166.273 226.196 165.959 225.084 165.33V163.225C225.804 163.589 226.574 163.876 227.395 164.086C228.224 164.296 229.021 164.4 229.787 164.4C230.972 164.4 231.883 164.214 232.521 163.84C233.16 163.457 233.479 162.878 233.479 162.104C233.479 161.52 233.223 161.023 232.713 160.613C232.212 160.194 231.227 159.702 229.76 159.137C228.365 158.617 227.372 158.166 226.779 157.783C226.196 157.391 225.758 156.949 225.467 156.457C225.184 155.965 225.043 155.377 225.043 154.693C225.043 153.472 225.54 152.51 226.533 151.809C227.527 151.098 228.889 150.742 230.621 150.742C232.234 150.742 233.811 151.07 235.352 151.727L234.545 153.572C233.041 152.952 231.678 152.643 230.457 152.643C229.382 152.643 228.57 152.811 228.023 153.148C227.477 153.486 227.203 153.951 227.203 154.543C227.203 154.944 227.303 155.286 227.504 155.568C227.714 155.851 228.046 156.12 228.502 156.375C228.958 156.63 229.833 156.999 231.127 157.482C232.904 158.13 234.103 158.781 234.723 159.438C235.352 160.094 235.666 160.919 235.666 161.912ZM244.211 164.4C244.612 164.4 244.999 164.373 245.373 164.318C245.747 164.255 246.043 164.191 246.262 164.127V165.863C246.016 165.982 245.651 166.077 245.168 166.15C244.694 166.232 244.266 166.273 243.883 166.273C240.984 166.273 239.535 164.747 239.535 161.693V152.779H237.389V151.686L239.535 150.742L240.492 147.543H241.805V151.016H246.152V152.779H241.805V161.598C241.805 162.5 242.019 163.193 242.447 163.676C242.876 164.159 243.464 164.4 244.211 164.4Z" fill="white"/>
<path d="M290 62C294 61.6 296.667 63.8333 297.5 65C298.7 62.2 302.333 61.8333 304 62C307.6 62 309.167 65 309.5 66.5C317 63.5 326 71 321.5 78.5C317.9 84.5 313.333 84.3333 311.5 83.5C311 84.5 312 85 308.5 86.5C305.7 87.7 303.333 87 302.5 86.5C302 87.5 301 91.5 296 91.5C292 91.5 289.667 88.1667 289 86.5C284 86 280.5 83.5 280.5 79.5C280.5 76.2015 282.5 73.8333 284 73C283.5 67.5 285 62.5 290 62Z" fill="#00A1E1"/>
</svg>
