<svg width="355" height="203" viewBox="0 0 355 203" fill="none" xmlns="http://www.w3.org/2000/svg">
<rect width="355" height="90" transform="translate(0 113)" fill="#00A1E1"/>
<rect width="355" height="113" fill="#013C4E"/>
<path d="M21.4717 36.6738C21.4717 39.3809 20.4941 41.5137 18.5391 43.0723C16.5977 44.6309 13.8906 45.4102 10.418 45.4102C7.21875 45.4102 4.38867 44.8086 1.92773 43.6055V37.6992C3.95117 38.6016 5.66016 39.2373 7.05469 39.6064C8.46289 39.9756 9.74805 40.1602 10.9102 40.1602C12.3047 40.1602 13.3711 39.8936 14.1094 39.3604C14.8613 38.8271 15.2373 38.0342 15.2373 36.9814C15.2373 36.3936 15.0732 35.874 14.7451 35.4229C14.417 34.958 13.9316 34.5137 13.2891 34.0898C12.6602 33.666 11.3682 32.9893 9.41309 32.0596C7.58105 31.1982 6.20703 30.3711 5.29102 29.5781C4.375 28.7852 3.64355 27.8623 3.09668 26.8096C2.5498 25.7568 2.27637 24.5264 2.27637 23.1182C2.27637 20.4658 3.17188 18.3809 4.96289 16.8633C6.76758 15.3457 9.25586 14.5869 12.4277 14.5869C13.9863 14.5869 15.4697 14.7715 16.8779 15.1406C18.2998 15.5098 19.7832 16.0293 21.3281 16.6992L19.2773 21.6416C17.6777 20.9854 16.3516 20.5273 15.2988 20.2676C14.2598 20.0078 13.2344 19.8779 12.2227 19.8779C11.0195 19.8779 10.0967 20.1582 9.4541 20.7188C8.81152 21.2793 8.49023 22.0107 8.49023 22.9131C8.49023 23.4736 8.62012 23.9658 8.87988 24.3896C9.13965 24.7998 9.5498 25.2031 10.1104 25.5996C10.6846 25.9824 12.0312 26.6797 14.1504 27.6914C16.9531 29.0312 18.874 30.3779 19.9131 31.7314C20.9521 33.0713 21.4717 34.7188 21.4717 36.6738ZM49.0407 45L46.8669 37.8633H35.9363L33.7624 45H26.9128L37.4948 14.8945H45.2673L55.8904 45H49.0407ZM45.3493 32.5312C43.3396 26.0645 42.2048 22.4072 41.945 21.5596C41.6989 20.7119 41.5212 20.042 41.4118 19.5498C40.9607 21.2998 39.6687 25.627 37.5359 32.5312H45.3493ZM63.4643 45V15.0176H69.8217V39.75H81.9828V45H63.4643ZM108.26 45H90.9923V15.0176H108.26V20.2266H97.3498V26.8096H107.501V32.0186H97.3498V39.75H108.26V45ZM136.014 36.6738C136.014 39.3809 135.036 41.5137 133.081 43.0723C131.14 44.6309 128.433 45.4102 124.96 45.4102C121.761 45.4102 118.931 44.8086 116.47 43.6055V37.6992C118.493 38.6016 120.202 39.2373 121.597 39.6064C123.005 39.9756 124.29 40.1602 125.452 40.1602C126.847 40.1602 127.913 39.8936 128.651 39.3604C129.403 38.8271 129.779 38.0342 129.779 36.9814C129.779 36.3936 129.615 35.874 129.287 35.4229C128.959 34.958 128.474 34.5137 127.831 34.0898C127.202 33.666 125.91 32.9893 123.955 32.0596C122.123 31.1982 120.749 30.3711 119.833 29.5781C118.917 28.7852 118.185 27.8623 117.639 26.8096C117.092 25.7568 116.818 24.5264 116.818 23.1182C116.818 20.4658 117.714 18.3809 119.505 16.8633C121.309 15.3457 123.798 14.5869 126.97 14.5869C128.528 14.5869 130.012 14.7715 131.42 15.1406C132.842 15.5098 134.325 16.0293 135.87 16.6992L133.819 21.6416C132.22 20.9854 130.893 20.5273 129.841 20.2676C128.802 20.0078 127.776 19.8779 126.765 19.8779C125.561 19.8779 124.639 20.1582 123.996 20.7188C123.353 21.2793 123.032 22.0107 123.032 22.9131C123.032 23.4736 123.162 23.9658 123.422 24.3896C123.682 24.7998 124.092 25.2031 124.652 25.5996C125.226 25.9824 126.573 26.6797 128.692 27.6914C131.495 29.0312 133.416 30.3779 134.455 31.7314C135.494 33.0713 136.014 34.7188 136.014 36.6738ZM151.483 45H145.228V15.0176H162.414V20.2266H151.483V27.958H161.655V33.1465H151.483V45ZM199.273 29.9678C199.273 34.9307 198.042 38.7451 195.581 41.4111C193.12 44.0771 189.593 45.4102 184.999 45.4102C180.406 45.4102 176.878 44.0771 174.417 41.4111C171.956 38.7451 170.726 34.917 170.726 29.9268C170.726 24.9365 171.956 21.1289 174.417 18.5039C176.892 15.8652 180.433 14.5459 185.04 14.5459C189.648 14.5459 193.168 15.8721 195.602 18.5244C198.049 21.1768 199.273 24.9912 199.273 29.9678ZM177.391 29.9678C177.391 33.3174 178.027 35.8398 179.298 37.5352C180.57 39.2305 182.47 40.0781 184.999 40.0781C190.072 40.0781 192.608 36.708 192.608 29.9678C192.608 23.2139 190.085 19.8369 185.04 19.8369C182.511 19.8369 180.604 20.6914 179.319 22.4004C178.034 24.0957 177.391 26.6182 177.391 29.9678ZM215.624 28.3271H217.675C219.685 28.3271 221.168 27.9922 222.125 27.3223C223.082 26.6523 223.561 25.5996 223.561 24.1641C223.561 22.7422 223.068 21.7305 222.084 21.1289C221.113 20.5273 219.603 20.2266 217.552 20.2266H215.624V28.3271ZM215.624 33.4951V45H209.267V15.0176H218.003C222.077 15.0176 225.092 15.7627 227.047 17.2529C229.002 18.7295 229.98 20.9785 229.98 24C229.98 25.7637 229.494 27.3359 228.523 28.7168C227.553 30.084 226.179 31.1572 224.401 31.9365C228.913 38.6768 231.853 43.0312 233.22 45H226.165L219.008 33.4951H215.624ZM253.509 19.8779C251.116 19.8779 249.263 20.7803 247.951 22.585C246.638 24.376 245.982 26.8779 245.982 30.0908C245.982 36.7764 248.491 40.1191 253.509 40.1191C255.614 40.1191 258.164 39.5928 261.158 38.54V43.8721C258.697 44.8975 255.949 45.4102 252.914 45.4102C248.553 45.4102 245.217 44.0908 242.906 41.4521C240.595 38.7998 239.44 34.999 239.44 30.0498C239.44 26.9326 240.008 24.2051 241.142 21.8672C242.277 19.5156 243.904 17.7178 246.023 16.4736C248.156 15.2158 250.651 14.5869 253.509 14.5869C256.421 14.5869 259.346 15.291 262.286 16.6992L260.235 21.8672C259.114 21.334 257.986 20.8691 256.851 20.4727C255.717 20.0762 254.602 19.8779 253.509 19.8779ZM288.604 45H271.336V15.0176H288.604V20.2266H277.694V26.8096H287.845V32.0186H277.694V39.75H288.604V45ZM16.96 58.7041C13.665 58.7041 11.0605 59.8047 9.14648 62.0059C7.24609 64.1934 6.2959 67.1943 6.2959 71.0088C6.2959 74.9326 7.21191 77.9678 9.04395 80.1143C10.8896 82.2471 13.5146 83.3135 16.9189 83.3135C19.0107 83.3135 21.3965 82.9375 24.0762 82.1855V85.2412C21.998 86.0205 19.4346 86.4102 16.3857 86.4102C11.9697 86.4102 8.55859 85.0703 6.15234 82.3906C3.75977 79.7109 2.56348 75.9033 2.56348 70.9678C2.56348 67.8779 3.1377 65.1709 4.28613 62.8467C5.44824 60.5225 7.11621 58.7314 9.29004 57.4736C11.4775 56.2158 14.0479 55.5869 17.001 55.5869C20.1455 55.5869 22.8936 56.1611 25.2451 57.3096L23.7686 60.3037C21.499 59.2373 19.2295 58.7041 16.96 58.7041ZM52.372 86H35.6582V56.0176H52.372V59.1143H39.1445V68.7734H51.5722V71.8496H39.1445V82.8828H52.372V86ZM67.5634 73.5312V86H64.0771V56.0176H72.3007C75.9784 56.0176 78.6923 56.7217 80.4423 58.1299C82.206 59.5381 83.0878 61.6572 83.0878 64.4873C83.0878 68.4521 81.078 71.1318 77.0585 72.5264L85.2001 86H81.078L73.8183 73.5312H67.5634ZM67.5634 70.5371H72.3417C74.8027 70.5371 76.6073 70.0518 77.7558 69.0811C78.9042 68.0967 79.4784 66.627 79.4784 64.6719C79.4784 62.6895 78.8905 61.2607 77.7148 60.3857C76.5527 59.5107 74.6796 59.0732 72.0956 59.0732H67.5634V70.5371ZM104.308 86H100.822V59.1143H91.327V56.0176H113.804V59.1143H104.308V86ZM123.376 86V56.0176H126.862V86H123.376ZM143.633 86H140.146V56.0176H156.86V59.1143H143.633V70.0859H156.06V73.1826H143.633V86ZM166.884 86V56.0176H170.37V86H166.884ZM200.368 86H183.654V56.0176H200.368V59.1143H187.14V68.7734H199.568V71.8496H187.14V82.8828H200.368V86ZM236.006 70.7217C236.006 75.6709 234.659 79.458 231.966 82.083C229.286 84.6943 225.424 86 220.379 86H212.073V56.0176H221.26C225.923 56.0176 229.546 57.3096 232.13 59.8936C234.714 62.4775 236.006 66.0869 236.006 70.7217ZM232.314 70.8447C232.314 66.9346 231.33 63.9883 229.361 62.0059C227.406 60.0234 224.494 59.0322 220.625 59.0322H215.559V82.9854H219.804C223.961 82.9854 227.085 81.9668 229.176 79.9297C231.268 77.8789 232.314 74.8506 232.314 70.8447Z" transform="translate(30 6)" fill="white"/>
<path d="M15.3125 30L12.8242 23.6426H4.8125L2.35156 30H0L7.90234 9.92969H9.85742L17.7188 30H15.3125ZM12.0996 21.5508L9.77539 15.3574C9.47461 14.5736 9.16471 13.612 8.8457 12.4727C8.64518 13.3477 8.35807 14.3092 7.98438 15.3574L5.63281 21.5508H12.0996ZM30.3242 27.9902H30.2012C29.153 29.5124 27.5853 30.2734 25.498 30.2734C23.5384 30.2734 22.0117 29.6035 20.918 28.2637C19.8333 26.9238 19.291 25.0189 19.291 22.5488C19.291 20.0788 19.8379 18.1602 20.9316 16.793C22.0254 15.4258 23.5475 14.7422 25.498 14.7422C27.5306 14.7422 29.0892 15.4805 30.1738 16.957H30.3516L30.2559 15.877L30.2012 14.8242V8.72656H32.4707V30H30.625L30.3242 27.9902ZM25.7852 28.373C27.3346 28.373 28.4557 27.9538 29.1484 27.1152C29.8503 26.2676 30.2012 24.9049 30.2012 23.0273V22.5488C30.2012 20.4251 29.8457 18.9121 29.1348 18.0098C28.4329 17.0983 27.3073 16.6426 25.7578 16.6426C24.4271 16.6426 23.4062 17.1621 22.6953 18.2012C21.9935 19.2311 21.6426 20.6895 21.6426 22.5762C21.6426 24.4902 21.9935 25.9349 22.6953 26.9102C23.3971 27.8854 24.4271 28.373 25.7852 28.373ZM40.5781 30L34.8906 15.0156H37.3242L40.5508 23.9023C41.2799 25.9805 41.7083 27.3294 41.8359 27.9492H41.9453C42.0456 27.4661 42.36 26.4681 42.8887 24.9551C43.4264 23.4329 44.625 20.1198 46.4844 15.0156H48.918L43.2305 30H40.5781ZM60.5391 30L60.0879 27.8672H59.9785C59.2311 28.806 58.4837 29.444 57.7363 29.7812C56.998 30.1094 56.0729 30.2734 54.9609 30.2734C53.4753 30.2734 52.3086 29.8906 51.4609 29.125C50.6224 28.3594 50.2031 27.2702 50.2031 25.8574C50.2031 22.8314 52.623 21.2454 57.4629 21.0996L60.0059 21.0176V20.0879C60.0059 18.9121 59.7507 18.0462 59.2402 17.4902C58.7389 16.9251 57.9323 16.6426 56.8203 16.6426C55.5716 16.6426 54.1589 17.0254 52.582 17.791L51.8848 16.0547C52.623 15.6536 53.4297 15.3392 54.3047 15.1113C55.1888 14.8835 56.0729 14.7695 56.957 14.7695C58.7435 14.7695 60.0651 15.166 60.9219 15.959C61.7878 16.752 62.2207 18.0234 62.2207 19.7734V30H60.5391ZM55.4121 28.4004C56.8249 28.4004 57.9323 28.013 58.7344 27.2383C59.5456 26.4635 59.9512 25.3789 59.9512 23.9844V22.6309L57.6816 22.7266C55.877 22.7904 54.5736 23.0729 53.7715 23.5742C52.9785 24.0664 52.582 24.8366 52.582 25.8848C52.582 26.7051 52.8281 27.3294 53.3203 27.7578C53.8216 28.1862 54.5189 28.4004 55.4121 28.4004ZM77.1641 30V20.3066C77.1641 19.0853 76.8861 18.1738 76.3301 17.5723C75.7741 16.9707 74.9036 16.6699 73.7188 16.6699C72.151 16.6699 71.0026 17.0938 70.2734 17.9414C69.5443 18.7891 69.1797 20.1882 69.1797 22.1387V30H66.9102V15.0156H68.7559L69.125 17.0664H69.2344C69.6992 16.3281 70.3509 15.7585 71.1895 15.3574C72.028 14.9473 72.9622 14.7422 73.9922 14.7422C75.7969 14.7422 77.1549 15.1797 78.0664 16.0547C78.9779 16.9206 79.4336 18.3105 79.4336 20.2246V30H77.1641ZM90.0977 30.2734C87.9284 30.2734 86.2467 29.6081 85.0527 28.2773C83.8678 26.9375 83.2754 25.0462 83.2754 22.6035C83.2754 20.097 83.877 18.1602 85.0801 16.793C86.2923 15.4258 88.015 14.7422 90.248 14.7422C90.9681 14.7422 91.6882 14.8197 92.4082 14.9746C93.1283 15.1296 93.6934 15.3118 94.1035 15.5215L93.4062 17.4492C92.9049 17.2487 92.3581 17.0846 91.7656 16.957C91.1732 16.8203 90.6491 16.752 90.1934 16.752C87.1491 16.752 85.627 18.6934 85.627 22.5762C85.627 24.4173 85.9961 25.8301 86.7344 26.8145C87.4818 27.7988 88.5846 28.291 90.043 28.291C91.2917 28.291 92.5723 28.0221 93.8848 27.4844V29.4941C92.8822 30.0137 91.6198 30.2734 90.0977 30.2734ZM103.783 30.2734C101.568 30.2734 99.8184 29.599 98.5332 28.25C97.2572 26.901 96.6191 25.028 96.6191 22.6309C96.6191 20.2155 97.2116 18.2969 98.3965 16.875C99.5905 15.4531 101.19 14.7422 103.195 14.7422C105.073 14.7422 106.559 15.362 107.652 16.6016C108.746 17.832 109.293 19.459 109.293 21.4824V22.918H98.9707C99.0163 24.6771 99.4583 26.0124 100.297 26.9238C101.145 27.8353 102.334 28.291 103.865 28.291C105.479 28.291 107.074 27.9538 108.65 27.2793V29.3027C107.848 29.6491 107.087 29.8952 106.367 30.041C105.656 30.196 104.795 30.2734 103.783 30.2734ZM103.168 16.6426C101.965 16.6426 101.003 17.0345 100.283 17.8184C99.5723 18.6022 99.153 19.6868 99.0254 21.0723H106.859C106.859 19.6413 106.54 18.5475 105.902 17.791C105.264 17.0254 104.353 16.6426 103.168 16.6426ZM123.375 27.9902H123.252C122.204 29.5124 120.636 30.2734 118.549 30.2734C116.589 30.2734 115.062 29.6035 113.969 28.2637C112.884 26.9238 112.342 25.0189 112.342 22.5488C112.342 20.0788 112.889 18.1602 113.982 16.793C115.076 15.4258 116.598 14.7422 118.549 14.7422C120.581 14.7422 122.14 15.4805 123.225 16.957H123.402L123.307 15.877L123.252 14.8242V8.72656H125.521V30H123.676L123.375 27.9902ZM118.836 28.373C120.385 28.373 121.507 27.9538 122.199 27.1152C122.901 26.2676 123.252 24.9049 123.252 23.0273V22.5488C123.252 20.4251 122.896 18.9121 122.186 18.0098C121.484 17.0983 120.358 16.6426 118.809 16.6426C117.478 16.6426 116.457 17.1621 115.746 18.2012C115.044 19.2311 114.693 20.6895 114.693 22.5762C114.693 24.4902 115.044 25.9349 115.746 26.9102C116.448 27.8854 117.478 28.373 118.836 28.373ZM15.3125 64L12.8242 57.6426H4.8125L2.35156 64H0L7.90234 43.9297H9.85742L17.7188 64H15.3125ZM12.0996 55.5508L9.77539 49.3574C9.47461 48.5736 9.16471 47.612 8.8457 46.4727C8.64518 47.3477 8.35807 48.3092 7.98438 49.3574L5.63281 55.5508H12.0996ZM30.3242 61.9902H30.2012C29.153 63.5124 27.5853 64.2734 25.498 64.2734C23.5384 64.2734 22.0117 63.6035 20.918 62.2637C19.8333 60.9238 19.291 59.0189 19.291 56.5488C19.291 54.0788 19.8379 52.1602 20.9316 50.793C22.0254 49.4258 23.5475 48.7422 25.498 48.7422C27.5306 48.7422 29.0892 49.4805 30.1738 50.957H30.3516L30.2559 49.877L30.2012 48.8242V42.7266H32.4707V64H30.625L30.3242 61.9902ZM25.7852 62.373C27.3346 62.373 28.4557 61.9538 29.1484 61.1152C29.8503 60.2676 30.2012 58.9049 30.2012 57.0273V56.5488C30.2012 54.4251 29.8457 52.9121 29.1348 52.0098C28.4329 51.0983 27.3073 50.6426 25.7578 50.6426C24.4271 50.6426 23.4062 51.1621 22.6953 52.2012C21.9935 53.2311 21.6426 54.6895 21.6426 56.5762C21.6426 58.4902 21.9935 59.9349 22.6953 60.9102C23.3971 61.8854 24.4271 62.373 25.7852 62.373ZM56.3965 64V54.252C56.3965 53.0579 56.1413 52.1647 55.6309 51.5723C55.1204 50.9707 54.3275 50.6699 53.252 50.6699C51.8392 50.6699 50.7956 51.0755 50.1211 51.8867C49.4466 52.6979 49.1094 53.9466 49.1094 55.6328V64H46.8398V54.252C46.8398 53.0579 46.5846 52.1647 46.0742 51.5723C45.5638 50.9707 44.7663 50.6699 43.6816 50.6699C42.2598 50.6699 41.2161 51.0983 40.5508 51.9551C39.8945 52.8027 39.5664 54.1973 39.5664 56.1387V64H37.2969V49.0156H39.1426L39.5117 51.0664H39.6211C40.0495 50.3372 40.651 49.7676 41.4258 49.3574C42.2096 48.9473 43.0846 48.7422 44.0508 48.7422C46.3932 48.7422 47.9245 49.5898 48.6445 51.2852H48.7539C49.2005 50.5013 49.8477 49.8815 50.6953 49.4258C51.543 48.9701 52.5091 48.7422 53.5938 48.7422C55.2891 48.7422 56.556 49.1797 57.3945 50.0547C58.2422 50.9206 58.666 52.3105 58.666 54.2246V64H56.3965ZM65.625 64H63.3555V49.0156H65.625V64ZM63.1641 44.9551C63.1641 44.4355 63.2917 44.0573 63.5469 43.8203C63.8021 43.5742 64.1211 43.4512 64.5039 43.4512C64.8685 43.4512 65.1829 43.5742 65.4473 43.8203C65.7116 44.0664 65.8438 44.4447 65.8438 44.9551C65.8438 45.4655 65.7116 45.8483 65.4473 46.1035C65.1829 46.3496 64.8685 46.4727 64.5039 46.4727C64.1211 46.4727 63.8021 46.3496 63.5469 46.1035C63.2917 45.8483 63.1641 45.4655 63.1641 44.9551ZM80.6914 64V54.3066C80.6914 53.0853 80.4134 52.1738 79.8574 51.5723C79.3014 50.9707 78.431 50.6699 77.2461 50.6699C75.6784 50.6699 74.5299 51.0938 73.8008 51.9414C73.0716 52.7891 72.707 54.1882 72.707 56.1387V64H70.4375V49.0156H72.2832L72.6523 51.0664H72.7617C73.2266 50.3281 73.8783 49.7585 74.7168 49.3574C75.5553 48.9473 76.4896 48.7422 77.5195 48.7422C79.3242 48.7422 80.6823 49.1797 81.5938 50.0547C82.5052 50.9206 82.9609 52.3105 82.9609 54.2246V64H80.6914ZM89.9062 64H87.6367V49.0156H89.9062V64ZM87.4453 44.9551C87.4453 44.4355 87.5729 44.0573 87.8281 43.8203C88.0833 43.5742 88.4023 43.4512 88.7852 43.4512C89.1497 43.4512 89.4642 43.5742 89.7285 43.8203C89.9928 44.0664 90.125 44.4447 90.125 44.9551C90.125 45.4655 89.9928 45.8483 89.7285 46.1035C89.4642 46.3496 89.1497 46.4727 88.7852 46.4727C88.4023 46.4727 88.0833 46.3496 87.8281 46.1035C87.5729 45.8483 87.4453 45.4655 87.4453 44.9551ZM104.385 59.9121C104.385 61.3066 103.865 62.3822 102.826 63.1387C101.787 63.8952 100.329 64.2734 98.4512 64.2734C96.4642 64.2734 94.9147 63.959 93.8027 63.3301V61.2246C94.5228 61.5892 95.293 61.8763 96.1133 62.0859C96.9427 62.2956 97.7402 62.4004 98.5059 62.4004C99.6908 62.4004 100.602 62.2135 101.24 61.8398C101.878 61.457 102.197 60.8783 102.197 60.1035C102.197 59.5202 101.942 59.0234 101.432 58.6133C100.93 58.194 99.946 57.7018 98.4785 57.1367C97.084 56.6172 96.0905 56.166 95.498 55.7832C94.9147 55.3913 94.4772 54.9492 94.1855 54.457C93.903 53.9648 93.7617 53.377 93.7617 52.6934C93.7617 51.472 94.2585 50.5104 95.252 49.8086C96.2454 49.0977 97.6081 48.7422 99.3398 48.7422C100.953 48.7422 102.53 49.0703 104.07 49.7266L103.264 51.5723C101.76 50.9525 100.397 50.6426 99.1758 50.6426C98.1003 50.6426 97.2891 50.8112 96.7422 51.1484C96.1953 51.4857 95.9219 51.9505 95.9219 52.543C95.9219 52.944 96.0221 53.2858 96.2227 53.5684C96.4323 53.8509 96.765 54.1198 97.2207 54.375C97.6764 54.6302 98.5514 54.9993 99.8457 55.4824C101.623 56.1296 102.822 56.7812 103.441 57.4375C104.07 58.0938 104.385 58.9186 104.385 59.9121ZM112.93 62.4004C113.331 62.4004 113.718 62.373 114.092 62.3184C114.465 62.2546 114.762 62.1908 114.98 62.127V63.8633C114.734 63.9818 114.37 64.0775 113.887 64.1504C113.413 64.2324 112.984 64.2734 112.602 64.2734C109.703 64.2734 108.254 62.7467 108.254 59.6934V50.7793H106.107V49.6855L108.254 48.7422L109.211 45.543H110.523V49.0156H114.871V50.7793H110.523V59.5977C110.523 60.5 110.738 61.1927 111.166 61.6758C111.594 62.1589 112.182 62.4004 112.93 62.4004ZM124.824 48.7422C125.49 48.7422 126.087 48.7969 126.615 48.9062L126.301 51.0117C125.681 50.875 125.134 50.8066 124.66 50.8066C123.448 50.8066 122.409 51.2988 121.543 52.2832C120.686 53.2676 120.258 54.4935 120.258 55.9609V64H117.988V49.0156H119.861L120.121 51.791H120.23C120.786 50.8158 121.456 50.0638 122.24 49.5352C123.024 49.0065 123.885 48.7422 124.824 48.7422ZM138.633 64L138.182 61.8672H138.072C137.325 62.806 136.577 63.444 135.83 63.7812C135.092 64.1094 134.167 64.2734 133.055 64.2734C131.569 64.2734 130.402 63.8906 129.555 63.125C128.716 62.3594 128.297 61.2702 128.297 59.8574C128.297 56.8314 130.717 55.2454 135.557 55.0996L138.1 55.0176V54.0879C138.1 52.9121 137.844 52.0462 137.334 51.4902C136.833 50.9251 136.026 50.6426 134.914 50.6426C133.665 50.6426 132.253 51.0254 130.676 51.791L129.979 50.0547C130.717 49.6536 131.523 49.3392 132.398 49.1113C133.283 48.8835 134.167 48.7695 135.051 48.7695C136.837 48.7695 138.159 49.166 139.016 49.959C139.882 50.752 140.314 52.0234 140.314 53.7734V64H138.633ZM133.506 62.4004C134.919 62.4004 136.026 62.013 136.828 61.2383C137.639 60.4635 138.045 59.3789 138.045 57.9844V56.6309L135.775 56.7266C133.971 56.7904 132.667 57.0729 131.865 57.5742C131.072 58.0664 130.676 58.8366 130.676 59.8848C130.676 60.7051 130.922 61.3294 131.414 61.7578C131.915 62.1862 132.613 62.4004 133.506 62.4004ZM149.844 62.4004C150.245 62.4004 150.632 62.373 151.006 62.3184C151.38 62.2546 151.676 62.1908 151.895 62.127V63.8633C151.648 63.9818 151.284 64.0775 150.801 64.1504C150.327 64.2324 149.898 64.2734 149.516 64.2734C146.617 64.2734 145.168 62.7467 145.168 59.6934V50.7793H143.021V49.6855L145.168 48.7422L146.125 45.543H147.438V49.0156H151.785V50.7793H147.438V59.5977C147.438 60.5 147.652 61.1927 148.08 61.6758C148.508 62.1589 149.096 62.4004 149.844 62.4004ZM167.836 56.4941C167.836 58.9368 167.221 60.8464 165.99 62.2227C164.76 63.5898 163.06 64.2734 160.891 64.2734C159.551 64.2734 158.361 63.959 157.322 63.3301C156.283 62.7012 155.481 61.7988 154.916 60.623C154.351 59.4473 154.068 58.071 154.068 56.4941C154.068 54.0514 154.679 52.151 155.9 50.793C157.122 49.4258 158.817 48.7422 160.986 48.7422C163.083 48.7422 164.746 49.4395 165.977 50.834C167.216 52.2285 167.836 54.1152 167.836 56.4941ZM156.42 56.4941C156.42 58.4082 156.803 59.8665 157.568 60.8691C158.334 61.8717 159.46 62.373 160.945 62.373C162.431 62.373 163.557 61.8763 164.322 60.8828C165.097 59.8802 165.484 58.4173 165.484 56.4941C165.484 54.5892 165.097 53.1445 164.322 52.1602C163.557 51.1667 162.422 50.6699 160.918 50.6699C159.432 50.6699 158.311 51.1576 157.555 52.1328C156.798 53.1081 156.42 54.5618 156.42 56.4941ZM178.664 48.7422C179.329 48.7422 179.926 48.7969 180.455 48.9062L180.141 51.0117C179.521 50.875 178.974 50.8066 178.5 50.8066C177.288 50.8066 176.249 51.2988 175.383 52.2832C174.526 53.2676 174.098 54.4935 174.098 55.9609V64H171.828V49.0156H173.701L173.961 51.791H174.07C174.626 50.8158 175.296 50.0638 176.08 49.5352C176.864 49.0065 177.725 48.7422 178.664 48.7422Z" transform="translate(30 121)" fill="white"/>
<path d="M9.49994 0.0473362C13.4999 -0.352664 16.1666 1.88067 16.9999 3.04734C18.2 0.247314 21.8333 -0.11934 23.4999 0.0473362C27.0999 0.0473362 28.6666 3.04735 28.9999 4.54736C36.4999 1.54736 45.4999 9.04736 40.9999 16.5474C37.3999 22.5474 32.8332 22.3807 30.9999 21.5474C30.4999 22.5474 31.4999 23.0474 27.9999 24.5474C25.1999 25.7474 22.8332 25.0474 21.9999 24.5474C21.4999 25.5474 20.4999 29.5474 15.4999 29.5474C11.4999 29.5474 9.16658 26.214 8.49991 24.5474C3.49991 24.0474 -0.00012207 21.5474 0 17.5474C0.000100663 14.2489 1.99996 11.8807 3.49994 11.0474C2.99994 5.54736 4.49994 0.547336 9.49994 0.0473362Z" transform="translate(280.5 61.9526)" fill="#00A1E1"/>
</svg>
