<svg xmlns="http://www.w3.org/2000/svg" viewBox="0 0 216 63"><defs><style>.cls-1{fill:#0c3e4d;}.cls-2{fill:#4a9fdc;}.cls-3,.cls-4{fill:#fff;}.cls-4{fill-rule:evenodd;}</style></defs><title>img-registered-consulting-partner</title><g id="Camada_2" data-name="Camada 2"><g id="registered_consulting_partner" data-name="registered consulting partner"><rect class="cls-1" width="216" height="63" rx="4.5" ry="4.5"/><path class="cls-2" d="M46.24,13.07a12.28,12.28,0,0,1,19.67,2.59A14.88,14.88,0,0,1,72,14.36a15.23,15.23,0,1,1-3,30.15,11,11,0,0,1-14.46,4.54,12.59,12.59,0,0,1-23.4-.57,11.1,11.1,0,0,1-2.4.25A11.83,11.83,0,0,1,23,26.7,13.59,13.59,0,0,1,46.24,13.07Z"/><path class="cls-3" d="M27.25,33.13c-.05.12,0,.14,0,.16a3.26,3.26,0,0,0,.4.24,4.24,4.24,0,0,0,2.09.49c1.44,0,2.33-.76,2.33-2v0c0-1.13-1-1.55-2-1.84l-.12,0c-.72-.24-1.33-.43-1.33-.9v0c0-.4.36-.69.91-.69a4.16,4.16,0,0,1,1.83.46s.14.09.19,0,.27-.72.29-.79a.13.13,0,0,0-.07-.16,4,4,0,0,0-2.06-.55h-.14a2,2,0,0,0-2.23,1.93v0c0,1.2,1,1.59,2,1.86l.15.05c.69.21,1.29.4,1.29.88v0c0,.44-.39.77-1,.77A3.34,3.34,0,0,1,28,32.43l-.24-.15a.12.12,0,0,0-.19.07Z"/><path class="cls-3" d="M48.27,33.13c0,.12,0,.14,0,.16a3.26,3.26,0,0,0,.4.24,4.24,4.24,0,0,0,2.09.49c1.44,0,2.33-.76,2.33-2v0c0-1.13-1-1.55-1.95-1.84l-.12,0c-.72-.24-1.33-.43-1.33-.9v0c0-.4.36-.69.92-.69a4.15,4.15,0,0,1,1.82.46s.14.09.19,0,.27-.72.29-.79a.13.13,0,0,0-.07-.16,4,4,0,0,0-2.06-.55h-.14a2,2,0,0,0-2.23,1.93v0c0,1.2,1,1.59,2,1.86l.15.05c.69.21,1.29.4,1.29.88v0c0,.44-.39.77-1,.77A3.36,3.36,0,0,1,49,32.43l-.24-.15a.12.12,0,0,0-.19.07Z"/><path class="cls-3" d="M63.82,29.44a2.93,2.93,0,0,0-.55-1.05,2.71,2.71,0,0,0-.92-.7,3,3,0,0,0-1.28-.25,3.06,3.06,0,0,0-1.29.25,2.65,2.65,0,0,0-1.46,1.75,4.35,4.35,0,0,0-.18,1.28A4.42,4.42,0,0,0,58.32,32a2.79,2.79,0,0,0,.54,1,2.65,2.65,0,0,0,.92.7,3.22,3.22,0,0,0,1.29.25,3.18,3.18,0,0,0,1.28-.25,2.48,2.48,0,0,0,.92-.7,2.8,2.8,0,0,0,.55-1A4.42,4.42,0,0,0,64,30.72a4.36,4.36,0,0,0-.17-1.28m-1.2,1.28a3,3,0,0,1-.38,1.63,1.29,1.29,0,0,1-1.17.57,1.24,1.24,0,0,1-1.16-.57,2.89,2.89,0,0,1-.38-1.63,2.88,2.88,0,0,1,.38-1.62,1.26,1.26,0,0,1,1.16-.56,1.3,1.3,0,0,1,1.17.56,3,3,0,0,1,.38,1.62"/><path class="cls-4" d="M73.66,32.74a.11.11,0,0,0-.15-.08,2.58,2.58,0,0,1-.56.16,4.43,4.43,0,0,1-.66,0,1.83,1.83,0,0,1-1.37-.51,2.32,2.32,0,0,1-.51-1.64,2.5,2.5,0,0,1,.46-1.58,1.56,1.56,0,0,1,1.33-.59,3.79,3.79,0,0,1,1.26.19s.1,0,.14-.09c.11-.29.19-.5.3-.82a.11.11,0,0,0-.08-.14,4.41,4.41,0,0,0-.8-.2,5.84,5.84,0,0,0-.89-.06,3.27,3.27,0,0,0-1.34.26,2.75,2.75,0,0,0-1,.7,3,3,0,0,0-.58,1,4.11,4.11,0,0,0-.19,1.29,3.42,3.42,0,0,0,.79,2.38,3,3,0,0,0,2.37.89,4.91,4.91,0,0,0,1.7-.3.11.11,0,0,0,0-.14Z"/><path class="cls-4" d="M79.79,29.21a2.41,2.41,0,0,0-.52-.95,2.34,2.34,0,0,0-.77-.59,3,3,0,0,0-1.16-.23A3.14,3.14,0,0,0,76,27.7a2.54,2.54,0,0,0-.93.71,2.93,2.93,0,0,0-.55,1.05,4.54,4.54,0,0,0-.18,1.3,4.37,4.37,0,0,0,.18,1.29,2.63,2.63,0,0,0,1.61,1.71,4.1,4.1,0,0,0,1.48.24,4.19,4.19,0,0,0,2-.41s.09-.07,0-.19l-.26-.74a.11.11,0,0,0-.15-.07,4.16,4.16,0,0,1-1.67.3,2,2,0,0,1-1.39-.48,1.89,1.89,0,0,1-.47-1.35H79.8a.11.11,0,0,0,.11-.1A4.24,4.24,0,0,0,79.79,29.21Zm-4,.85a2.31,2.31,0,0,1,.33-1,1.28,1.28,0,0,1,1.16-.59,1.25,1.25,0,0,1,1.13.59,2,2,0,0,1,.27,1Z"/><path class="cls-4" d="M47.3,29.21a2.41,2.41,0,0,0-.52-.95,2.44,2.44,0,0,0-.77-.59,3,3,0,0,0-1.16-.23,3.08,3.08,0,0,0-1.34.26,2.57,2.57,0,0,0-.94.71A3.09,3.09,0,0,0,42,29.46a4.92,4.92,0,0,0-.17,1.3A4.37,4.37,0,0,0,42,32.05a2.51,2.51,0,0,0,.59,1,2.73,2.73,0,0,0,1,.68,4,4,0,0,0,1.47.24,4.15,4.15,0,0,0,2-.41c.05,0,.09-.07,0-.19l-.27-.74a.11.11,0,0,0-.15-.07,4.05,4.05,0,0,1-1.66.3,2,2,0,0,1-1.39-.48,1.89,1.89,0,0,1-.47-1.35h4s.11,0,.12-.1A4.45,4.45,0,0,0,47.3,29.21Zm-4,.85a2.47,2.47,0,0,1,.33-1,1.3,1.3,0,0,1,1.16-.59,1.26,1.26,0,0,1,1.14.59,2,2,0,0,1,.27,1Z"/><path class="cls-3" d="M36.11,29.86l-.63,0a4,4,0,0,0-1,.13,2.57,2.57,0,0,0-.85.4A1.87,1.87,0,0,0,33,31a2,2,0,0,0-.22.94,2.2,2.2,0,0,0,.19.93,1.62,1.62,0,0,0,.53.63,2,2,0,0,0,.82.36,5.05,5.05,0,0,0,1.08.11,8.28,8.28,0,0,0,1.23-.1l1-.2.29-.07a.13.13,0,0,0,.09-.14V29.78A2.28,2.28,0,0,0,37.42,28a2.76,2.76,0,0,0-1.86-.56,6.7,6.7,0,0,0-1.09.1,3.87,3.87,0,0,0-1.25.46.12.12,0,0,0,0,.16l.28.77a.11.11,0,0,0,.14.07l.06,0a4.19,4.19,0,0,1,1.77-.41,1.64,1.64,0,0,1,1,.26c.22.17.34.43.34,1v.17Zm-1.62,2.85a.7.7,0,0,1-.23-.24,1,1,0,0,1-.12-.52.9.9,0,0,1,.36-.79,1.85,1.85,0,0,1,1.18-.29,7.27,7.27,0,0,1,1.1.09v1.85h0a8,8,0,0,1-1.1.14A1.83,1.83,0,0,1,34.49,32.71Z"/><path class="cls-4" d="M68.83,27.77a.1.1,0,0,0-.06-.14,3.41,3.41,0,0,0-.68-.12,2,2,0,0,0-1,.17,1.86,1.86,0,0,0-.69.5v-.49a.12.12,0,0,0-.12-.12h-1a.11.11,0,0,0-.11.12v6.05a.12.12,0,0,0,.12.13h1.07a.13.13,0,0,0,.12-.13v-3a3.59,3.59,0,0,1,.13-1.07,1.48,1.48,0,0,1,.36-.59,1.14,1.14,0,0,1,.5-.3,1.91,1.91,0,0,1,.54-.08,2.45,2.45,0,0,1,.45.05c.08,0,.12,0,.15-.11S68.8,27.88,68.83,27.77Z"/><path class="cls-4" d="M58.83,25l-.4-.1a3.06,3.06,0,0,0-.56,0,2.3,2.3,0,0,0-1.71.62,3.29,3.29,0,0,0-.82,1.84l-.05.27h-.92a.15.15,0,0,0-.14.12l-.15.84c0,.08,0,.13.14.13h.89l-.91,5.08a6.14,6.14,0,0,1-.24,1,2.41,2.41,0,0,1-.28.58.87.87,0,0,1-.37.29,1.8,1.8,0,0,1-.48.06,1.84,1.84,0,0,1-.33,0l-.22-.07a.11.11,0,0,0-.14.06c0,.09-.28.75-.3.83a.12.12,0,0,0,.06.16l.37.11a2.56,2.56,0,0,0,.59.05,3,3,0,0,0,1-.15,1.89,1.89,0,0,0,.75-.52,2.8,2.8,0,0,0,.53-.91,7.42,7.42,0,0,0,.35-1.36l.92-5.18h1.33a.13.13,0,0,0,.14-.11l.15-.85c0-.08,0-.13-.13-.13H56.6a6.16,6.16,0,0,1,.22-.91,1.19,1.19,0,0,1,.28-.44.81.81,0,0,1,.34-.21,1.44,1.44,0,0,1,.43-.06,1.65,1.65,0,0,1,.34,0l.21.05c.13,0,.15,0,.17-.06l.31-.85A.11.11,0,0,0,58.83,25Z"/><path class="cls-4" d="M40.7,33.74a.12.12,0,0,1-.11.13H39.51a.12.12,0,0,1-.12-.13V25.08a.12.12,0,0,1,.12-.12h1.08a.12.12,0,0,1,.11.12Z"/><path class="cls-3" d="M111.49,32.76a7.18,7.18,0,0,1-.61,3,5,5,0,0,1-1.79,2.12,4.91,4.91,0,0,1-2.77.78,5.32,5.32,0,0,1-3.67-1.38v6.44h-1.87V29.68a21.35,21.35,0,0,0-.15-2.5h1.78q.11.72.15,1.71h0a4,4,0,0,1,1.54-1.47,4.87,4.87,0,0,1,2.42-.55,4.53,4.53,0,0,1,2.7.78,4.72,4.72,0,0,1,1.66,2.11A7.57,7.57,0,0,1,111.49,32.76Zm-1.93,0a5.25,5.25,0,0,0-.89-3.21,2.94,2.94,0,0,0-2.48-1.19,3.51,3.51,0,0,0-1.85.49,3.24,3.24,0,0,0-1.25,1.32,3.88,3.88,0,0,0-.44,1.82v3.72a5.14,5.14,0,0,0,1.53,1.12,4.05,4.05,0,0,0,1.75.36A3.17,3.17,0,0,0,108.62,36,5.07,5.07,0,0,0,109.56,32.76Z"/><path class="cls-3" d="M113,35.32a3.15,3.15,0,0,1,1.57-3,10.41,10.41,0,0,1,4.75-.85c.51,0,.9,0,1.16,0v-.64A2.4,2.4,0,0,0,119.8,29a3,3,0,0,0-2.09-.62,6.49,6.49,0,0,0-3.37.95L113.68,28a7.79,7.79,0,0,1,4.14-1.16,4.63,4.63,0,0,1,3.44,1.1,4.55,4.55,0,0,1,1.09,3.34v4.58a19.33,19.33,0,0,0,.16,2.48h-1.72a10.48,10.48,0,0,1-.15-1.51h-.07A4,4,0,0,1,119,38.22a5.42,5.42,0,0,1-2.41.46,3.82,3.82,0,0,1-2.62-.87A3.14,3.14,0,0,1,113,35.32Zm7.48-1.08V32.79l-1,0a13,13,0,0,0-2.63.22,2.74,2.74,0,0,0-1.45.75,2.17,2.17,0,0,0-.47,1.48,1.89,1.89,0,0,0,.57,1.48,2.25,2.25,0,0,0,1.58.52,3.55,3.55,0,0,0,1.83-.45,3.2,3.2,0,0,0,1.17-1.14A2.73,2.73,0,0,0,120.48,34.24Z"/><path class="cls-3" d="M125.21,29.68a21.35,21.35,0,0,0-.15-2.5h1.78c.07.49.13,1.09.16,1.78h0a3.53,3.53,0,0,1,3.52-2.09,5.92,5.92,0,0,1,.64.06l-.11,1.61a3.89,3.89,0,0,0-.68,0,3,3,0,0,0-2.47,1.07,4.37,4.37,0,0,0-.86,2.8v6h-1.87Z"/><path class="cls-3" d="M135.86,27.18h3v1.43h-3v6.75q0,1.8,1.65,1.8a3.8,3.8,0,0,0,1.1-.15l.29,1.39a4.89,4.89,0,0,1-1.74.28,3.19,3.19,0,0,1-2.32-.82,3.15,3.15,0,0,1-.85-2.35v-6.9h-2V27.4l2-.22V24.43l1.89-.66Z"/><path class="cls-3" d="M140.79,29.68a21.35,21.35,0,0,0-.15-2.5h1.78a12.66,12.66,0,0,1,.15,1.58h0a4.05,4.05,0,0,1,1.54-1.38,5.13,5.13,0,0,1,2.36-.51,3.82,3.82,0,0,1,3.13,1.22,4.54,4.54,0,0,1,1,3.05v7.23H148.8V31.51a3.56,3.56,0,0,0-.66-2.21,2.51,2.51,0,0,0-2.14-.87,3.12,3.12,0,0,0-2.43,1,3.6,3.6,0,0,0-.91,2.52v6.42h-1.87Z"/><path class="cls-3" d="M163.11,33.45H154.8a4.31,4.31,0,0,0,1,2.72,3.39,3.39,0,0,0,2.64,1,5.7,5.7,0,0,0,1.82-.28,7,7,0,0,0,1.61-.82l.84,1.21a7.36,7.36,0,0,1-2,1,7.66,7.66,0,0,1-2.37.35,5.07,5.07,0,0,1-4-1.63,6.29,6.29,0,0,1-1.44-4.33,7.17,7.17,0,0,1,.61-3.06,4.75,4.75,0,0,1,1.8-2.06,5.19,5.19,0,0,1,2.82-.73,4.54,4.54,0,0,1,3.73,1.58,6.46,6.46,0,0,1,1.29,4.2A5.07,5.07,0,0,1,163.11,33.45ZM161.33,32a4.29,4.29,0,0,0-.86-2.68,2.84,2.84,0,0,0-2.35-1,3,3,0,0,0-2.42,1,4.32,4.32,0,0,0-.92,2.65Z"/><path class="cls-3" d="M165.44,29.68a21.39,21.39,0,0,0-.16-2.5h1.78a15.63,15.63,0,0,1,.16,1.78h0a3.53,3.53,0,0,1,3.52-2.09,5.92,5.92,0,0,1,.64.06l-.11,1.61a3.82,3.82,0,0,0-.68,0,3,3,0,0,0-2.47,1.07,4.37,4.37,0,0,0-.85,2.8v6h-1.87Z"/><path class="cls-3" d="M100.84,15.41a10.76,10.76,0,0,0-.08-1.25h.89c0,.25.06.55.08.89h0a1.76,1.76,0,0,1,1.76-1l.32,0-.06.8-.34,0a1.49,1.49,0,0,0-1.23.54,2.15,2.15,0,0,0-.43,1.4v3h-.93Z"/><path class="cls-3" d="M109.33,17.3h-4.16a2.17,2.17,0,0,0,.52,1.36,1.69,1.69,0,0,0,1.32.5,2.86,2.86,0,0,0,.91-.13,3.14,3.14,0,0,0,.81-.42l.42.61a3.88,3.88,0,0,1-1,.52,4,4,0,0,1-1.18.17,2.55,2.55,0,0,1-2-.81,3.16,3.16,0,0,1-.72-2.17,3.51,3.51,0,0,1,.31-1.53,2.35,2.35,0,0,1,.89-1,2.7,2.7,0,0,1,1.42-.36,2.25,2.25,0,0,1,1.86.79,3.23,3.23,0,0,1,.64,2.1A2.19,2.19,0,0,1,109.33,17.3Zm-.89-.73a2.13,2.13,0,0,0-.43-1.34,1.41,1.41,0,0,0-1.17-.51,1.49,1.49,0,0,0-1.21.52,2.2,2.2,0,0,0-.47,1.33Z"/><path class="cls-3" d="M109.94,20.9a1.43,1.43,0,0,1,.27-.85,2.41,2.41,0,0,1,.88-.69.77.77,0,0,1-.54-.73.73.73,0,0,1,.22-.53,1.17,1.17,0,0,1,.6-.34,1.74,1.74,0,0,1-.81-.64,1.87,1.87,0,0,1-.29-1.09,1.85,1.85,0,0,1,.61-1.47A2.53,2.53,0,0,1,112.6,14a3.53,3.53,0,0,1,.5,0,4.56,4.56,0,0,1,.49.11h2v.75l-1.25-.13a1.31,1.31,0,0,1,.43.52,1.87,1.87,0,0,1,.17.82,1.69,1.69,0,0,1-.61,1.39,2.6,2.6,0,0,1-1.69.5,2.25,2.25,0,0,0-.87.14.46.46,0,0,0-.31.4c0,.3.36.45,1.07.46a5.1,5.1,0,0,1,2.25.41,1.29,1.29,0,0,1,.7,1.19,1.67,1.67,0,0,1-.79,1.46,4.06,4.06,0,0,1-2.21.52,3.27,3.27,0,0,1-1.86-.44A1.44,1.44,0,0,1,109.94,20.9Zm4.56-.22a.66.66,0,0,0-.25-.54,1.88,1.88,0,0,0-.84-.32,9.72,9.72,0,0,0-1.63-.11,1.86,1.86,0,0,0-.71.51,1,1,0,0,0-.22.64q0,1,1.62,1a3,3,0,0,0,1.52-.31A1,1,0,0,0,114.5,20.68ZM114,16a1.3,1.3,0,0,0-.37-1,1.46,1.46,0,0,0-1.07-.36,1.53,1.53,0,0,0-1,.35,1.22,1.22,0,0,0-.39,1,1.35,1.35,0,0,0,.35,1,1.52,1.52,0,0,0,1.09.35C113.54,17.34,114,16.91,114,16Z"/><path class="cls-3" d="M116.38,12.25a.61.61,0,0,1,1.22,0,.54.54,0,0,1-.61.57.62.62,0,0,1-.47-.16A.64.64,0,0,1,116.38,12.25Zm1.07,7.51h-.93v-5.6h.93Z"/><path class="cls-3" d="M122.5,14.6l-.42.58a2.41,2.41,0,0,0-1.41-.45,1.4,1.4,0,0,0-.82.21.64.64,0,0,0-.3.57.75.75,0,0,0,.12.45.9.9,0,0,0,.41.3,4.89,4.89,0,0,0,.84.25,2.84,2.84,0,0,1,1.27.61,1.42,1.42,0,0,1,.41,1.05,1.53,1.53,0,0,1-.62,1.29,2.48,2.48,0,0,1-1.51.45,3.11,3.11,0,0,1-2-.65l.43-.58a3,3,0,0,0,.74.37,2.31,2.31,0,0,0,.82.13,1.41,1.41,0,0,0,.89-.25.82.82,0,0,0,.32-.69.74.74,0,0,0-.52-.78,5.78,5.78,0,0,0-.84-.26,3,3,0,0,1-1.27-.6,1.5,1.5,0,0,1,.16-2.17,2.37,2.37,0,0,1,1.47-.42A3,3,0,0,1,122.5,14.6Z"/><path class="cls-3" d="M125.15,14.16h1.48v.72h-1.48v3.37c0,.6.27.9.82.9a1.88,1.88,0,0,0,.55-.07l.15.69a2.34,2.34,0,0,1-.87.14,1.46,1.46,0,0,1-1.59-1.58V14.88h-1v-.61l1-.11V12.78l1-.33Z"/><path class="cls-3" d="M132.31,17.3h-4.16a2.17,2.17,0,0,0,.52,1.36,1.69,1.69,0,0,0,1.32.5,2.86,2.86,0,0,0,.91-.13,3.14,3.14,0,0,0,.81-.42l.41.61a3.67,3.67,0,0,1-1,.52,4,4,0,0,1-1.18.17,2.55,2.55,0,0,1-2-.81,3.16,3.16,0,0,1-.72-2.17,3.51,3.51,0,0,1,.31-1.53,2.35,2.35,0,0,1,.89-1,2.68,2.68,0,0,1,1.42-.36,2.25,2.25,0,0,1,1.86.79,3.23,3.23,0,0,1,.64,2.1A2.19,2.19,0,0,1,132.31,17.3Zm-.89-.73a2.13,2.13,0,0,0-.43-1.34,1.41,1.41,0,0,0-1.17-.51,1.48,1.48,0,0,0-1.21.52,2.14,2.14,0,0,0-.47,1.33Z"/><path class="cls-3" d="M133.56,15.41a10.71,10.71,0,0,0-.07-1.25h.89c0,.25.06.55.07.89h0a1.75,1.75,0,0,1,1.76-1l.31,0-.05.8-.34,0a1.46,1.46,0,0,0-1.23.54,2.15,2.15,0,0,0-.43,1.4v3h-.94Z"/><path class="cls-3" d="M142.06,17.3H137.9a2.17,2.17,0,0,0,.52,1.36,1.69,1.69,0,0,0,1.32.5,2.86,2.86,0,0,0,.91-.13,3.25,3.25,0,0,0,.8-.42l.42.61a3.67,3.67,0,0,1-1,.52,4,4,0,0,1-1.19.17,2.54,2.54,0,0,1-2-.81,3.16,3.16,0,0,1-.72-2.17,3.66,3.66,0,0,1,.3-1.53,2.44,2.44,0,0,1,.9-1,2.64,2.64,0,0,1,1.41-.36,2.26,2.26,0,0,1,1.87.79,3.23,3.23,0,0,1,.64,2.1A3.74,3.74,0,0,1,142.06,17.3Zm-.89-.73a2.19,2.19,0,0,0-.43-1.34,1.41,1.41,0,0,0-1.18-.51,1.51,1.51,0,0,0-1.21.52,2.2,2.2,0,0,0-.46,1.33Z"/><path class="cls-3" d="M148.43,19.76h-.87a5.6,5.6,0,0,1-.08-.84h0a2.48,2.48,0,0,1-3.82.18A3.36,3.36,0,0,1,143,17a3.56,3.56,0,0,1,.31-1.52,2.53,2.53,0,0,1,.9-1.06,2.37,2.37,0,0,1,1.37-.39,2.45,2.45,0,0,1,1.83.72V12h.93v6.55A10.73,10.73,0,0,0,148.43,19.76Zm-1-2.41V15.59a2.08,2.08,0,0,0-.75-.62,2,2,0,0,0-.95-.21,1.52,1.52,0,0,0-1.28.62A2.58,2.58,0,0,0,144,17a2.6,2.6,0,0,0,.45,1.6,1.5,1.5,0,0,0,1.25.58,1.66,1.66,0,0,0,1.27-.51A1.82,1.82,0,0,0,147.42,17.35Z"/><path class="cls-3" d="M155,14a3,3,0,0,1,1,.16,2.64,2.64,0,0,1,.85.44l-.37.65a2.38,2.38,0,0,0-1.48-.47,1.61,1.61,0,0,0-1.37.59,2.45,2.45,0,0,0-.46,1.57,2.48,2.48,0,0,0,.46,1.57,1.6,1.6,0,0,0,1.35.6,2.84,2.84,0,0,0,1.51-.47l.34.66a3.17,3.17,0,0,1-1.91.6,2.65,2.65,0,0,1-1.55-.42,2.46,2.46,0,0,1-.88-1.09,3.86,3.86,0,0,1-.27-1.45,3,3,0,0,1,.74-2.14A2.61,2.61,0,0,1,155,14Z"/><path class="cls-3" d="M163,16.94a3.5,3.5,0,0,1-.34,1.55,2.46,2.46,0,0,1-1,1.05,2.89,2.89,0,0,1-1.51.37,2.85,2.85,0,0,1-1.51-.38,2.46,2.46,0,0,1-1-1.05,3.56,3.56,0,0,1-.33-1.54,3.06,3.06,0,0,1,.74-2.14,2.68,2.68,0,0,1,2.07-.79,3,3,0,0,1,1.52.36,2.47,2.47,0,0,1,1,1A3.42,3.42,0,0,1,163,16.94Zm-4.66,0a2.57,2.57,0,0,0,.46,1.61,1.59,1.59,0,0,0,1.38.61,1.64,1.64,0,0,0,1.4-.61,2.63,2.63,0,0,0,.46-1.61,2.57,2.57,0,0,0-.46-1.59,1.67,1.67,0,0,0-1.4-.6,1.63,1.63,0,0,0-1.39.6A2.57,2.57,0,0,0,158.34,16.94Z"/><path class="cls-3" d="M164.23,15.41a10.76,10.76,0,0,0-.08-1.25H165a4.83,4.83,0,0,1,.08.79h0a2.15,2.15,0,0,1,.77-.69,2.57,2.57,0,0,1,1.18-.25,1.93,1.93,0,0,1,1.57.61,2.27,2.27,0,0,1,.51,1.52v3.62h-.94V16.33a1.79,1.79,0,0,0-.33-1.11,1.24,1.24,0,0,0-1.06-.43,1.56,1.56,0,0,0-1.22.5,1.81,1.81,0,0,0-.46,1.26v3.21h-.93Z"/><path class="cls-3" d="M174.17,14.6l-.41.58a2.46,2.46,0,0,0-1.41-.45,1.44,1.44,0,0,0-.83.21.63.63,0,0,0-.29.57.75.75,0,0,0,.12.45.86.86,0,0,0,.4.3,4.89,4.89,0,0,0,.84.25,2.84,2.84,0,0,1,1.27.61,1.39,1.39,0,0,1,.41,1.05,1.52,1.52,0,0,1-.61,1.29,2.51,2.51,0,0,1-1.52.45,3.13,3.13,0,0,1-2-.65l.43-.58a3,3,0,0,0,.74.37,2.37,2.37,0,0,0,.83.13,1.38,1.38,0,0,0,.88-.25.8.8,0,0,0,.33-.69.78.78,0,0,0-.13-.48.86.86,0,0,0-.4-.3,5.07,5.07,0,0,0-.84-.26,2.84,2.84,0,0,1-1.26-.6,1.33,1.33,0,0,1-.4-1,1.36,1.36,0,0,1,.56-1.14,2.36,2.36,0,0,1,1.46-.42A3,3,0,0,1,174.17,14.6Z"/><path class="cls-3" d="M175.33,17.59V14.16h.94v3.3a2,2,0,0,0,.34,1.24,1.19,1.19,0,0,0,1,.46,1.51,1.51,0,0,0,1.23-.57,2.24,2.24,0,0,0,.46-1.44v-3h.94v4.36a10.67,10.67,0,0,0,.07,1.24h-.89a8.6,8.6,0,0,1-.08-.89h0a2.07,2.07,0,0,1-1.93,1,1.93,1.93,0,0,1-1.58-.64A2.58,2.58,0,0,1,175.33,17.59Z"/><path class="cls-3" d="M182.82,12v7.79h-.94V12Z"/><path class="cls-3" d="M185.67,14.16h1.49v.72h-1.49v3.37c0,.6.28.9.83.9a2,2,0,0,0,.55-.07l.14.69a2.34,2.34,0,0,1-.87.14,1.57,1.57,0,0,1-1.16-.41,1.55,1.55,0,0,1-.42-1.17V14.88h-1v-.61l1-.11V12.78l.95-.33Z"/><path class="cls-3" d="M188.06,12.25a.61.61,0,0,1,1.22,0,.61.61,0,1,1-1.22,0Zm1.08,7.51h-.94v-5.6h.94Z"/><path class="cls-3" d="M190.74,15.41a8.93,8.93,0,0,0-.08-1.25h.9a6.59,6.59,0,0,1,.07.79h0a2.15,2.15,0,0,1,.77-.69A2.57,2.57,0,0,1,193.6,14a1.92,1.92,0,0,1,1.57.61,2.27,2.27,0,0,1,.51,1.52v3.62h-.93V16.33a1.79,1.79,0,0,0-.33-1.11,1.26,1.26,0,0,0-1.07-.43,1.56,1.56,0,0,0-1.22.5,1.8,1.8,0,0,0-.45,1.26v3.21h-.94Z"/><path class="cls-3" d="M196.52,20.9a1.43,1.43,0,0,1,.27-.85,2.46,2.46,0,0,1,.89-.69.77.77,0,0,1-.54-.73.76.76,0,0,1,.21-.53,1.26,1.26,0,0,1,.6-.34,1.84,1.84,0,0,1-.81-.64,1.94,1.94,0,0,1-.29-1.09,1.86,1.86,0,0,1,.62-1.47,2.51,2.51,0,0,1,1.71-.54,3.68,3.68,0,0,1,.51,0l.48.11h2v.75l-1.24-.13a1.4,1.4,0,0,1,.43.52,1.88,1.88,0,0,1,.16.82,1.71,1.71,0,0,1-.6,1.39,2.63,2.63,0,0,1-1.7.5,2.23,2.23,0,0,0-.86.14c-.21.1-.31.23-.31.4s.35.45,1.06.46a5,5,0,0,1,2.25.41,1.27,1.27,0,0,1,.7,1.19,1.66,1.66,0,0,1-.78,1.46,4.06,4.06,0,0,1-2.21.52,3.33,3.33,0,0,1-1.87-.44A1.44,1.44,0,0,1,196.52,20.9Zm4.57-.22a.69.69,0,0,0-.25-.54,2,2,0,0,0-.84-.32,9.8,9.8,0,0,0-1.63-.11,1.9,1.9,0,0,0-.72.51,1,1,0,0,0-.21.64c0,.68.53,1,1.61,1a3,3,0,0,0,1.52-.31A1,1,0,0,0,201.09,20.68ZM200.6,16a1.34,1.34,0,0,0-.36-1,1.47,1.47,0,0,0-1.08-.36,1.53,1.53,0,0,0-1,.35,1.22,1.22,0,0,0-.39,1,1.31,1.31,0,0,0,.36,1,1.51,1.51,0,0,0,1.08.35C200.12,17.34,200.6,16.91,200.6,16Z"/></g></g></svg>