<svg width="355" height="203" viewBox="0 0 355 203" fill="none" xmlns="http://www.w3.org/2000/svg">
<rect width="355" height="90" transform="translate(0 113)" fill="#00A1E1"/>
<rect width="355" height="113" fill="#013C4E"/>
<path d="M21.4717 36.6738C21.4717 39.3809 20.4941 41.5137 18.5391 43.0723C16.5977 44.6309 13.8906 45.4102 10.418 45.4102C7.21875 45.4102 4.38867 44.8086 1.92773 43.6055V37.6992C3.95117 38.6016 5.66016 39.2373 7.05469 39.6064C8.46289 39.9756 9.74805 40.1602 10.9102 40.1602C12.3047 40.1602 13.3711 39.8936 14.1094 39.3604C14.8613 38.8271 15.2373 38.0342 15.2373 36.9814C15.2373 36.3936 15.0732 35.874 14.7451 35.4229C14.417 34.958 13.9316 34.5137 13.2891 34.0898C12.6602 33.666 11.3682 32.9893 9.41309 32.0596C7.58105 31.1982 6.20703 30.3711 5.29102 29.5781C4.375 28.7852 3.64355 27.8623 3.09668 26.8096C2.5498 25.7568 2.27637 24.5264 2.27637 23.1182C2.27637 20.4658 3.17188 18.3809 4.96289 16.8633C6.76758 15.3457 9.25586 14.5869 12.4277 14.5869C13.9863 14.5869 15.4697 14.7715 16.8779 15.1406C18.2998 15.5098 19.7832 16.0293 21.3281 16.6992L19.2773 21.6416C17.6777 20.9854 16.3516 20.5273 15.2988 20.2676C14.2598 20.0078 13.2344 19.8779 12.2227 19.8779C11.0195 19.8779 10.0967 20.1582 9.4541 20.7188C8.81152 21.2793 8.49023 22.0107 8.49023 22.9131C8.49023 23.4736 8.62012 23.9658 8.87988 24.3896C9.13965 24.7998 9.5498 25.2031 10.1104 25.5996C10.6846 25.9824 12.0312 26.6797 14.1504 27.6914C16.9531 29.0312 18.874 30.3779 19.9131 31.7314C20.9521 33.0713 21.4717 34.7188 21.4717 36.6738ZM49.0407 45L46.8669 37.8633H35.9363L33.7624 45H26.9128L37.4948 14.8945H45.2673L55.8904 45H49.0407ZM45.3493 32.5312C43.3396 26.0645 42.2048 22.4072 41.945 21.5596C41.6989 20.7119 41.5212 20.042 41.4118 19.5498C40.9607 21.2998 39.6687 25.627 37.5359 32.5312H45.3493ZM63.4643 45V15.0176H69.8217V39.75H81.9828V45H63.4643ZM108.26 45H90.9923V15.0176H108.26V20.2266H97.3498V26.8096H107.501V32.0186H97.3498V39.75H108.26V45ZM136.014 36.6738C136.014 39.3809 135.036 41.5137 133.081 43.0723C131.14 44.6309 128.433 45.4102 124.96 45.4102C121.761 45.4102 118.931 44.8086 116.47 43.6055V37.6992C118.493 38.6016 120.202 39.2373 121.597 39.6064C123.005 39.9756 124.29 40.1602 125.452 40.1602C126.847 40.1602 127.913 39.8936 128.651 39.3604C129.403 38.8271 129.779 38.0342 129.779 36.9814C129.779 36.3936 129.615 35.874 129.287 35.4229C128.959 34.958 128.474 34.5137 127.831 34.0898C127.202 33.666 125.91 32.9893 123.955 32.0596C122.123 31.1982 120.749 30.3711 119.833 29.5781C118.917 28.7852 118.185 27.8623 117.639 26.8096C117.092 25.7568 116.818 24.5264 116.818 23.1182C116.818 20.4658 117.714 18.3809 119.505 16.8633C121.309 15.3457 123.798 14.5869 126.97 14.5869C128.528 14.5869 130.012 14.7715 131.42 15.1406C132.842 15.5098 134.325 16.0293 135.87 16.6992L133.819 21.6416C132.22 20.9854 130.893 20.5273 129.841 20.2676C128.802 20.0078 127.776 19.8779 126.765 19.8779C125.561 19.8779 124.639 20.1582 123.996 20.7188C123.353 21.2793 123.032 22.0107 123.032 22.9131C123.032 23.4736 123.162 23.9658 123.422 24.3896C123.682 24.7998 124.092 25.2031 124.652 25.5996C125.226 25.9824 126.573 26.6797 128.692 27.6914C131.495 29.0312 133.416 30.3779 134.455 31.7314C135.494 33.0713 136.014 34.7188 136.014 36.6738ZM151.483 45H145.228V15.0176H162.414V20.2266H151.483V27.958H161.655V33.1465H151.483V45ZM199.273 29.9678C199.273 34.9307 198.042 38.7451 195.581 41.4111C193.12 44.0771 189.593 45.4102 184.999 45.4102C180.406 45.4102 176.878 44.0771 174.417 41.4111C171.956 38.7451 170.726 34.917 170.726 29.9268C170.726 24.9365 171.956 21.1289 174.417 18.5039C176.892 15.8652 180.433 14.5459 185.04 14.5459C189.648 14.5459 193.168 15.8721 195.602 18.5244C198.049 21.1768 199.273 24.9912 199.273 29.9678ZM177.391 29.9678C177.391 33.3174 178.027 35.8398 179.298 37.5352C180.57 39.2305 182.47 40.0781 184.999 40.0781C190.072 40.0781 192.608 36.708 192.608 29.9678C192.608 23.2139 190.085 19.8369 185.04 19.8369C182.511 19.8369 180.604 20.6914 179.319 22.4004C178.034 24.0957 177.391 26.6182 177.391 29.9678ZM215.624 28.3271H217.675C219.685 28.3271 221.168 27.9922 222.125 27.3223C223.082 26.6523 223.561 25.5996 223.561 24.1641C223.561 22.7422 223.068 21.7305 222.084 21.1289C221.113 20.5273 219.603 20.2266 217.552 20.2266H215.624V28.3271ZM215.624 33.4951V45H209.267V15.0176H218.003C222.077 15.0176 225.092 15.7627 227.047 17.2529C229.002 18.7295 229.98 20.9785 229.98 24C229.98 25.7637 229.494 27.3359 228.523 28.7168C227.553 30.084 226.179 31.1572 224.401 31.9365C228.913 38.6768 231.853 43.0312 233.22 45H226.165L219.008 33.4951H215.624ZM253.509 19.8779C251.116 19.8779 249.263 20.7803 247.951 22.585C246.638 24.376 245.982 26.8779 245.982 30.0908C245.982 36.7764 248.491 40.1191 253.509 40.1191C255.614 40.1191 258.164 39.5928 261.158 38.54V43.8721C258.697 44.8975 255.949 45.4102 252.914 45.4102C248.553 45.4102 245.217 44.0908 242.906 41.4521C240.595 38.7998 239.44 34.999 239.44 30.0498C239.44 26.9326 240.008 24.2051 241.142 21.8672C242.277 19.5156 243.904 17.7178 246.023 16.4736C248.156 15.2158 250.651 14.5869 253.509 14.5869C256.421 14.5869 259.346 15.291 262.286 16.6992L260.235 21.8672C259.114 21.334 257.986 20.8691 256.851 20.4727C255.717 20.0762 254.602 19.8779 253.509 19.8779ZM288.604 45H271.336V15.0176H288.604V20.2266H277.694V26.8096H287.845V32.0186H277.694V39.75H288.604V45ZM16.96 58.7041C13.665 58.7041 11.0605 59.8047 9.14648 62.0059C7.24609 64.1934 6.2959 67.1943 6.2959 71.0088C6.2959 74.9326 7.21191 77.9678 9.04395 80.1143C10.8896 82.2471 13.5146 83.3135 16.9189 83.3135C19.0107 83.3135 21.3965 82.9375 24.0762 82.1855V85.2412C21.998 86.0205 19.4346 86.4102 16.3857 86.4102C11.9697 86.4102 8.55859 85.0703 6.15234 82.3906C3.75977 79.7109 2.56348 75.9033 2.56348 70.9678C2.56348 67.8779 3.1377 65.1709 4.28613 62.8467C5.44824 60.5225 7.11621 58.7314 9.29004 57.4736C11.4775 56.2158 14.0479 55.5869 17.001 55.5869C20.1455 55.5869 22.8936 56.1611 25.2451 57.3096L23.7686 60.3037C21.499 59.2373 19.2295 58.7041 16.96 58.7041ZM52.372 86H35.6582V56.0176H52.372V59.1143H39.1445V68.7734H51.5722V71.8496H39.1445V82.8828H52.372V86ZM67.5634 73.5312V86H64.0771V56.0176H72.3007C75.9784 56.0176 78.6923 56.7217 80.4423 58.1299C82.206 59.5381 83.0878 61.6572 83.0878 64.4873C83.0878 68.4521 81.078 71.1318 77.0585 72.5264L85.2001 86H81.078L73.8183 73.5312H67.5634ZM67.5634 70.5371H72.3417C74.8027 70.5371 76.6073 70.0518 77.7558 69.0811C78.9042 68.0967 79.4784 66.627 79.4784 64.6719C79.4784 62.6895 78.8905 61.2607 77.7148 60.3857C76.5527 59.5107 74.6796 59.0732 72.0956 59.0732H67.5634V70.5371ZM104.308 86H100.822V59.1143H91.327V56.0176H113.804V59.1143H104.308V86ZM123.376 86V56.0176H126.862V86H123.376ZM143.633 86H140.146V56.0176H156.86V59.1143H143.633V70.0859H156.06V73.1826H143.633V86ZM166.884 86V56.0176H170.37V86H166.884ZM200.368 86H183.654V56.0176H200.368V59.1143H187.14V68.7734H199.568V71.8496H187.14V82.8828H200.368V86ZM236.006 70.7217C236.006 75.6709 234.659 79.458 231.966 82.083C229.286 84.6943 225.424 86 220.379 86H212.073V56.0176H221.26C225.923 56.0176 229.546 57.3096 232.13 59.8936C234.714 62.4775 236.006 66.0869 236.006 70.7217ZM232.314 70.8447C232.314 66.9346 231.33 63.9883 229.361 62.0059C227.406 60.0234 224.494 59.0322 220.625 59.0322H215.559V82.9854H219.804C223.961 82.9854 227.085 81.9668 229.176 79.9297C231.268 77.8789 232.314 74.8506 232.314 70.8447Z" transform="translate(30 6)" fill="white"/>
<path d="M14.0273 24.6816C14.0273 26.4408 13.3893 27.8125 12.1133 28.7969C10.8372 29.7812 9.10547 30.2734 6.91797 30.2734C4.54818 30.2734 2.72526 29.9681 1.44922 29.3574V27.1152C2.26953 27.4616 3.16276 27.735 4.12891 27.9355C5.09505 28.1361 6.05208 28.2363 7 28.2363C8.54948 28.2363 9.71615 27.9447 10.5 27.3613C11.2839 26.7689 11.6758 25.9486 11.6758 24.9004C11.6758 24.2077 11.5345 23.6426 11.252 23.2051C10.9785 22.7585 10.5137 22.3483 9.85742 21.9746C9.21029 21.6009 8.22135 21.1771 6.89062 20.7031C5.03125 20.0378 3.70052 19.2493 2.89844 18.3379C2.10547 17.4264 1.70898 16.237 1.70898 14.7695C1.70898 13.2292 2.28776 12.0033 3.44531 11.0918C4.60286 10.1803 6.13411 9.72461 8.03906 9.72461C10.026 9.72461 11.8535 10.0892 13.5215 10.8184L12.7969 12.8418C11.1471 12.1491 9.54297 11.8027 7.98438 11.8027C6.75391 11.8027 5.79232 12.0671 5.09961 12.5957C4.4069 13.1243 4.06055 13.8581 4.06055 14.7969C4.06055 15.4896 4.18815 16.0592 4.44336 16.5059C4.69857 16.9434 5.12695 17.349 5.72852 17.7227C6.33919 18.0872 7.26888 18.4928 8.51758 18.9395C10.6139 19.6868 12.054 20.4889 12.8379 21.3457C13.6309 22.2025 14.0273 23.3145 14.0273 24.6816ZM24.1035 30.2734C21.8887 30.2734 20.1387 29.599 18.8535 28.25C17.5775 26.901 16.9395 25.028 16.9395 22.6309C16.9395 20.2155 17.5319 18.2969 18.7168 16.875C19.9108 15.4531 21.5104 14.7422 23.5156 14.7422C25.3932 14.7422 26.8789 15.362 27.9727 16.6016C29.0664 17.832 29.6133 19.459 29.6133 21.4824V22.918H19.291C19.3366 24.6771 19.7786 26.0124 20.6172 26.9238C21.4648 27.8353 22.6543 28.291 24.1855 28.291C25.7988 28.291 27.3939 27.9538 28.9707 27.2793V29.3027C28.1686 29.6491 27.4076 29.8952 26.6875 30.041C25.9766 30.196 25.1152 30.2734 24.1035 30.2734ZM23.4883 16.6426C22.2852 16.6426 21.3236 17.0345 20.6035 17.8184C19.8926 18.6022 19.4733 19.6868 19.3457 21.0723H27.1797C27.1797 19.6413 26.8607 18.5475 26.2227 17.791C25.5846 17.0254 24.6732 16.6426 23.4883 16.6426ZM40.332 14.7422C40.9974 14.7422 41.5944 14.7969 42.123 14.9062L41.8086 17.0117C41.1888 16.875 40.6419 16.8066 40.168 16.8066C38.9557 16.8066 37.9167 17.2988 37.0508 18.2832C36.194 19.2676 35.7656 20.4935 35.7656 21.9609V30H33.4961V15.0156H35.3691L35.6289 17.791H35.7383C36.2943 16.8158 36.9642 16.0638 37.748 15.5352C38.5319 15.0065 39.3932 14.7422 40.332 14.7422ZM48.207 30L42.5195 15.0156H44.9531L48.1797 23.9023C48.9089 25.9805 49.3372 27.3294 49.4648 27.9492H49.5742C49.6745 27.4661 49.9889 26.4681 50.5176 24.9551C51.0553 23.4329 52.2539 20.1198 54.1133 15.0156H56.5469L50.8594 30H48.207ZM61.2227 30H58.9531V15.0156H61.2227V30ZM58.7617 10.9551C58.7617 10.4355 58.8893 10.0573 59.1445 9.82031C59.3997 9.57422 59.7188 9.45117 60.1016 9.45117C60.4661 9.45117 60.7806 9.57422 61.0449 9.82031C61.3092 10.0664 61.4414 10.4447 61.4414 10.9551C61.4414 11.4655 61.3092 11.8483 61.0449 12.1035C60.7806 12.3496 60.4661 12.4727 60.1016 12.4727C59.7188 12.4727 59.3997 12.3496 59.1445 12.1035C58.8893 11.8483 58.7617 11.4655 58.7617 10.9551ZM72.0234 30.2734C69.8542 30.2734 68.1725 29.6081 66.9785 28.2773C65.7936 26.9375 65.2012 25.0462 65.2012 22.6035C65.2012 20.097 65.8027 18.1602 67.0059 16.793C68.2181 15.4258 69.9408 14.7422 72.1738 14.7422C72.8939 14.7422 73.6139 14.8197 74.334 14.9746C75.054 15.1296 75.6191 15.3118 76.0293 15.5215L75.332 17.4492C74.8307 17.2487 74.2839 17.0846 73.6914 16.957C73.099 16.8203 72.5749 16.752 72.1191 16.752C69.0749 16.752 67.5527 18.6934 67.5527 22.5762C67.5527 24.4173 67.9219 25.8301 68.6602 26.8145C69.4076 27.7988 70.5104 28.291 71.9688 28.291C73.2174 28.291 74.498 28.0221 75.8105 27.4844V29.4941C74.8079 30.0137 73.5456 30.2734 72.0234 30.2734ZM85.709 30.2734C83.4941 30.2734 81.7441 29.599 80.459 28.25C79.1829 26.901 78.5449 25.028 78.5449 22.6309C78.5449 20.2155 79.1374 18.2969 80.3223 16.875C81.5163 15.4531 83.1159 14.7422 85.1211 14.7422C86.9987 14.7422 88.4844 15.362 89.5781 16.6016C90.6719 17.832 91.2188 19.459 91.2188 21.4824V22.918H80.8965C80.9421 24.6771 81.3841 26.0124 82.2227 26.9238C83.0703 27.8353 84.2598 28.291 85.791 28.291C87.4043 28.291 88.9993 27.9538 90.5762 27.2793V29.3027C89.7741 29.6491 89.013 29.8952 88.293 30.041C87.582 30.196 86.7207 30.2734 85.709 30.2734ZM85.0938 16.6426C83.8906 16.6426 82.929 17.0345 82.209 17.8184C81.498 18.6022 81.0788 19.6868 80.9512 21.0723H88.7852C88.7852 19.6413 88.4661 18.5475 87.8281 17.791C87.1901 17.0254 86.2786 16.6426 85.0938 16.6426ZM111.275 11.8027C109.079 11.8027 107.342 12.5365 106.066 14.0039C104.799 15.4622 104.166 17.4629 104.166 20.0059C104.166 22.6217 104.777 24.6452 105.998 26.0762C107.229 27.498 108.979 28.209 111.248 28.209C112.643 28.209 114.233 27.9583 116.02 27.457V29.4941C114.634 30.0137 112.925 30.2734 110.893 30.2734C107.949 30.2734 105.674 29.3802 104.07 27.5938C102.475 25.8073 101.678 23.2689 101.678 19.9785C101.678 17.9186 102.061 16.1139 102.826 14.5645C103.601 13.015 104.713 11.821 106.162 10.9824C107.62 10.1439 109.334 9.72461 111.303 9.72461C113.399 9.72461 115.231 10.1074 116.799 10.873L115.814 12.8691C114.301 12.1582 112.788 11.8027 111.275 11.8027ZM122.309 30H120.039V8.72656H122.309V30ZM140.055 22.4941C140.055 24.9368 139.439 26.8464 138.209 28.2227C136.979 29.5898 135.279 30.2734 133.109 30.2734C131.77 30.2734 130.58 29.959 129.541 29.3301C128.502 28.7012 127.7 27.7988 127.135 26.623C126.57 25.4473 126.287 24.071 126.287 22.4941C126.287 20.0514 126.898 18.151 128.119 16.793C129.34 15.4258 131.036 14.7422 133.205 14.7422C135.301 14.7422 136.965 15.4395 138.195 16.834C139.435 18.2285 140.055 20.1152 140.055 22.4941ZM128.639 22.4941C128.639 24.4082 129.021 25.8665 129.787 26.8691C130.553 27.8717 131.678 28.373 133.164 28.373C134.65 28.373 135.775 27.8763 136.541 26.8828C137.316 25.8802 137.703 24.4173 137.703 22.4941C137.703 20.5892 137.316 19.1445 136.541 18.1602C135.775 17.1667 134.641 16.6699 133.137 16.6699C131.651 16.6699 130.53 17.1576 129.773 18.1328C129.017 19.1081 128.639 20.5618 128.639 22.4941ZM146.18 15.0156V24.7363C146.18 25.9577 146.458 26.8691 147.014 27.4707C147.57 28.0723 148.44 28.373 149.625 28.373C151.193 28.373 152.337 27.9447 153.057 27.0879C153.786 26.2311 154.15 24.832 154.15 22.8906V15.0156H156.42V30H154.547L154.219 27.9902H154.096C153.631 28.7285 152.984 29.2936 152.154 29.6855C151.334 30.0775 150.395 30.2734 149.338 30.2734C147.515 30.2734 146.148 29.8405 145.236 28.9746C144.334 28.1087 143.883 26.7233 143.883 24.8184V15.0156H146.18ZM171.445 27.9902H171.322C170.274 29.5124 168.706 30.2734 166.619 30.2734C164.66 30.2734 163.133 29.6035 162.039 28.2637C160.954 26.9238 160.412 25.0189 160.412 22.5488C160.412 20.0788 160.959 18.1602 162.053 16.793C163.146 15.4258 164.669 14.7422 166.619 14.7422C168.652 14.7422 170.21 15.4805 171.295 16.957H171.473L171.377 15.877L171.322 14.8242V8.72656H173.592V30H171.746L171.445 27.9902ZM166.906 28.373C168.456 28.373 169.577 27.9538 170.27 27.1152C170.971 26.2676 171.322 24.9049 171.322 23.0273V22.5488C171.322 20.4251 170.967 18.9121 170.256 18.0098C169.554 17.0983 168.428 16.6426 166.879 16.6426C165.548 16.6426 164.527 17.1621 163.816 18.2012C163.115 19.2311 162.764 20.6895 162.764 22.5762C162.764 24.4902 163.115 25.9349 163.816 26.9102C164.518 27.8854 165.548 28.373 166.906 28.373ZM11.3066 45.8027C9.11003 45.8027 7.3737 46.5365 6.09766 48.0039C4.83073 49.4622 4.19727 51.4629 4.19727 54.0059C4.19727 56.6217 4.80794 58.6452 6.0293 60.0762C7.25977 61.498 9.00977 62.209 11.2793 62.209C12.6738 62.209 14.2643 61.9583 16.0508 61.457V63.4941C14.6654 64.0137 12.9564 64.2734 10.9238 64.2734C7.97982 64.2734 5.70573 63.3802 4.10156 61.5938C2.50651 59.8073 1.70898 57.2689 1.70898 53.9785C1.70898 51.9186 2.0918 50.1139 2.85742 48.5645C3.63216 47.015 4.74414 45.821 6.19336 44.9824C7.65169 44.1439 9.36523 43.7246 11.334 43.7246C13.4303 43.7246 15.2624 44.1074 16.8301 44.873L15.8457 46.8691C14.3327 46.1582 12.8197 45.8027 11.3066 45.8027ZM33.0039 56.4941C33.0039 58.9368 32.3887 60.8464 31.1582 62.2227C29.9277 63.5898 28.2279 64.2734 26.0586 64.2734C24.7188 64.2734 23.5293 63.959 22.4902 63.3301C21.4512 62.7012 20.6491 61.7988 20.084 60.623C19.5189 59.4473 19.2363 58.071 19.2363 56.4941C19.2363 54.0514 19.847 52.151 21.0684 50.793C22.2897 49.4258 23.985 48.7422 26.1543 48.7422C28.2507 48.7422 29.9141 49.4395 31.1445 50.834C32.3841 52.2285 33.0039 54.1152 33.0039 56.4941ZM21.5879 56.4941C21.5879 58.4082 21.9707 59.8665 22.7363 60.8691C23.502 61.8717 24.6276 62.373 26.1133 62.373C27.599 62.373 28.7246 61.8763 29.4902 60.8828C30.265 59.8802 30.6523 58.4173 30.6523 56.4941C30.6523 54.5892 30.265 53.1445 29.4902 52.1602C28.7246 51.1667 27.5898 50.6699 26.0859 50.6699C24.6003 50.6699 23.4792 51.1576 22.7227 52.1328C21.9661 53.1081 21.5879 54.5618 21.5879 56.4941ZM47.25 64V54.3066C47.25 53.0853 46.972 52.1738 46.416 51.5723C45.86 50.9707 44.9896 50.6699 43.8047 50.6699C42.237 50.6699 41.0885 51.0938 40.3594 51.9414C39.6302 52.7891 39.2656 54.1882 39.2656 56.1387V64H36.9961V49.0156H38.8418L39.2109 51.0664H39.3203C39.7852 50.3281 40.4368 49.7585 41.2754 49.3574C42.1139 48.9473 43.0482 48.7422 44.0781 48.7422C45.8828 48.7422 47.2409 49.1797 48.1523 50.0547C49.0638 50.9206 49.5195 52.3105 49.5195 54.2246V64H47.25ZM63.8613 59.9121C63.8613 61.3066 63.3418 62.3822 62.3027 63.1387C61.2637 63.8952 59.8053 64.2734 57.9277 64.2734C55.9408 64.2734 54.3913 63.959 53.2793 63.3301V61.2246C53.9993 61.5892 54.7695 61.8763 55.5898 62.0859C56.4193 62.2956 57.2168 62.4004 57.9824 62.4004C59.1673 62.4004 60.0788 62.2135 60.7168 61.8398C61.3548 61.457 61.6738 60.8783 61.6738 60.1035C61.6738 59.5202 61.4186 59.0234 60.9082 58.6133C60.4069 58.194 59.4225 57.7018 57.9551 57.1367C56.5605 56.6172 55.5671 56.166 54.9746 55.7832C54.3913 55.3913 53.9538 54.9492 53.6621 54.457C53.3796 53.9648 53.2383 53.377 53.2383 52.6934C53.2383 51.472 53.735 50.5104 54.7285 49.8086C55.722 49.0977 57.0846 48.7422 58.8164 48.7422C60.4297 48.7422 62.0065 49.0703 63.5469 49.7266L62.7402 51.5723C61.2363 50.9525 59.8737 50.6426 58.6523 50.6426C57.5768 50.6426 56.7656 50.8112 56.2188 51.1484C55.6719 51.4857 55.3984 51.9505 55.3984 52.543C55.3984 52.944 55.4987 53.2858 55.6992 53.5684C55.9089 53.8509 56.2415 54.1198 56.6973 54.375C57.153 54.6302 58.028 54.9993 59.3223 55.4824C61.0996 56.1296 62.2982 56.7812 62.918 57.4375C63.5469 58.0938 63.8613 58.9186 63.8613 59.9121ZM69.6992 49.0156V58.7363C69.6992 59.9577 69.9772 60.8691 70.5332 61.4707C71.0892 62.0723 71.9596 62.373 73.1445 62.373C74.7122 62.373 75.8561 61.9447 76.5762 61.0879C77.3053 60.2311 77.6699 58.832 77.6699 56.8906V49.0156H79.9395V64H78.0664L77.7383 61.9902H77.6152C77.1504 62.7285 76.5033 63.2936 75.6738 63.6855C74.8535 64.0775 73.9147 64.2734 72.8574 64.2734C71.0345 64.2734 69.6673 63.8405 68.7559 62.9746C67.8535 62.1087 67.4023 60.7233 67.4023 58.8184V49.0156H69.6992ZM87.0352 64H84.7656V42.7266H87.0352V64ZM96.6875 62.4004C97.0885 62.4004 97.4759 62.373 97.8496 62.3184C98.2233 62.2546 98.5195 62.1908 98.7383 62.127V63.8633C98.4922 63.9818 98.1276 64.0775 97.6445 64.1504C97.1706 64.2324 96.7422 64.2734 96.3594 64.2734C93.4609 64.2734 92.0117 62.7467 92.0117 59.6934V50.7793H89.8652V49.6855L92.0117 48.7422L92.9688 45.543H94.2812V49.0156H98.6289V50.7793H94.2812V59.5977C94.2812 60.5 94.4954 61.1927 94.9238 61.6758C95.3522 62.1589 95.9401 62.4004 96.6875 62.4004ZM110.961 64L110.51 61.8672H110.4C109.653 62.806 108.906 63.444 108.158 63.7812C107.42 64.1094 106.495 64.2734 105.383 64.2734C103.897 64.2734 102.73 63.8906 101.883 63.125C101.044 62.3594 100.625 61.2702 100.625 59.8574C100.625 56.8314 103.045 55.2454 107.885 55.0996L110.428 55.0176V54.0879C110.428 52.9121 110.173 52.0462 109.662 51.4902C109.161 50.9251 108.354 50.6426 107.242 50.6426C105.993 50.6426 104.581 51.0254 103.004 51.791L102.307 50.0547C103.045 49.6536 103.852 49.3392 104.727 49.1113C105.611 48.8835 106.495 48.7695 107.379 48.7695C109.165 48.7695 110.487 49.166 111.344 49.959C112.21 50.752 112.643 52.0234 112.643 53.7734V64H110.961ZM105.834 62.4004C107.247 62.4004 108.354 62.013 109.156 61.2383C109.967 60.4635 110.373 59.3789 110.373 57.9844V56.6309L108.104 56.7266C106.299 56.7904 104.995 57.0729 104.193 57.5742C103.4 58.0664 103.004 58.8366 103.004 59.8848C103.004 60.7051 103.25 61.3294 103.742 61.7578C104.243 62.1862 104.941 62.4004 105.834 62.4004ZM127.586 64V54.3066C127.586 53.0853 127.308 52.1738 126.752 51.5723C126.196 50.9707 125.326 50.6699 124.141 50.6699C122.573 50.6699 121.424 51.0938 120.695 51.9414C119.966 52.7891 119.602 54.1882 119.602 56.1387V64H117.332V49.0156H119.178L119.547 51.0664H119.656C120.121 50.3281 120.773 49.7585 121.611 49.3574C122.45 48.9473 123.384 48.7422 124.414 48.7422C126.219 48.7422 127.577 49.1797 128.488 50.0547C129.4 50.9206 129.855 52.3105 129.855 54.2246V64H127.586ZM139.371 62.4004C139.772 62.4004 140.16 62.373 140.533 62.3184C140.907 62.2546 141.203 62.1908 141.422 62.127V63.8633C141.176 63.9818 140.811 64.0775 140.328 64.1504C139.854 64.2324 139.426 64.2734 139.043 64.2734C136.145 64.2734 134.695 62.7467 134.695 59.6934V50.7793H132.549V49.6855L134.695 48.7422L135.652 45.543H136.965V49.0156H141.312V50.7793H136.965V59.5977C136.965 60.5 137.179 61.1927 137.607 61.6758C138.036 62.1589 138.624 62.4004 139.371 62.4004Z" transform="translate(30 121)" fill="white"/>
<path d="M9.49994 0.0473362C13.4999 -0.352664 16.1666 1.88067 16.9999 3.04734C18.2 0.247314 21.8333 -0.11934 23.4999 0.0473362C27.0999 0.0473362 28.6666 3.04735 28.9999 4.54736C36.4999 1.54736 45.4999 9.04736 40.9999 16.5474C37.3999 22.5474 32.8332 22.3807 30.9999 21.5474C30.4999 22.5474 31.4999 23.0474 27.9999 24.5474C25.1999 25.7474 22.8332 25.0474 21.9999 24.5474C21.4999 25.5474 20.4999 29.5474 15.4999 29.5474C11.4999 29.5474 9.16658 26.214 8.49991 24.5474C3.49991 24.0474 -0.00012207 21.5474 0 17.5474C0.000100663 14.2489 1.99996 11.8807 3.49994 11.0474C2.99994 5.54736 4.49994 0.547336 9.49994 0.0473362Z" transform="translate(280.5 61.9526)" fill="#00A1E1"/>
</svg>
