<svg width="355" height="203" viewBox="0 0 355 203" fill="none" xmlns="http://www.w3.org/2000/svg">
<rect width="355" height="90" transform="translate(0 113)" fill="#00A1E1"/>
<rect width="355" height="113" fill="#013C4E"/>
<path d="M21.4717 36.6738C21.4717 39.3809 20.4941 41.5137 18.5391 43.0723C16.5977 44.6309 13.8906 45.4102 10.418 45.4102C7.21875 45.4102 4.38867 44.8086 1.92773 43.6055V37.6992C3.95117 38.6016 5.66016 39.2373 7.05469 39.6064C8.46289 39.9756 9.74805 40.1602 10.9102 40.1602C12.3047 40.1602 13.3711 39.8936 14.1094 39.3604C14.8613 38.8271 15.2373 38.0342 15.2373 36.9814C15.2373 36.3936 15.0732 35.874 14.7451 35.4229C14.417 34.958 13.9316 34.5137 13.2891 34.0898C12.6602 33.666 11.3682 32.9893 9.41309 32.0596C7.58105 31.1982 6.20703 30.3711 5.29102 29.5781C4.375 28.7852 3.64355 27.8623 3.09668 26.8096C2.5498 25.7568 2.27637 24.5264 2.27637 23.1182C2.27637 20.4658 3.17188 18.3809 4.96289 16.8633C6.76758 15.3457 9.25586 14.5869 12.4277 14.5869C13.9863 14.5869 15.4697 14.7715 16.8779 15.1406C18.2998 15.5098 19.7832 16.0293 21.3281 16.6992L19.2773 21.6416C17.6777 20.9854 16.3516 20.5273 15.2988 20.2676C14.2598 20.0078 13.2344 19.8779 12.2227 19.8779C11.0195 19.8779 10.0967 20.1582 9.4541 20.7188C8.81152 21.2793 8.49023 22.0107 8.49023 22.9131C8.49023 23.4736 8.62012 23.9658 8.87988 24.3896C9.13965 24.7998 9.5498 25.2031 10.1104 25.5996C10.6846 25.9824 12.0312 26.6797 14.1504 27.6914C16.9531 29.0312 18.874 30.3779 19.9131 31.7314C20.9521 33.0713 21.4717 34.7188 21.4717 36.6738ZM49.0407 45L46.8669 37.8633H35.9363L33.7624 45H26.9128L37.4948 14.8945H45.2673L55.8904 45H49.0407ZM45.3493 32.5312C43.3396 26.0645 42.2048 22.4072 41.945 21.5596C41.6989 20.7119 41.5212 20.042 41.4118 19.5498C40.9607 21.2998 39.6687 25.627 37.5359 32.5312H45.3493ZM63.4643 45V15.0176H69.8217V39.75H81.9828V45H63.4643ZM108.26 45H90.9923V15.0176H108.26V20.2266H97.3498V26.8096H107.501V32.0186H97.3498V39.75H108.26V45ZM136.014 36.6738C136.014 39.3809 135.036 41.5137 133.081 43.0723C131.14 44.6309 128.433 45.4102 124.96 45.4102C121.761 45.4102 118.931 44.8086 116.47 43.6055V37.6992C118.493 38.6016 120.202 39.2373 121.597 39.6064C123.005 39.9756 124.29 40.1602 125.452 40.1602C126.847 40.1602 127.913 39.8936 128.651 39.3604C129.403 38.8271 129.779 38.0342 129.779 36.9814C129.779 36.3936 129.615 35.874 129.287 35.4229C128.959 34.958 128.474 34.5137 127.831 34.0898C127.202 33.666 125.91 32.9893 123.955 32.0596C122.123 31.1982 120.749 30.3711 119.833 29.5781C118.917 28.7852 118.185 27.8623 117.639 26.8096C117.092 25.7568 116.818 24.5264 116.818 23.1182C116.818 20.4658 117.714 18.3809 119.505 16.8633C121.309 15.3457 123.798 14.5869 126.97 14.5869C128.528 14.5869 130.012 14.7715 131.42 15.1406C132.842 15.5098 134.325 16.0293 135.87 16.6992L133.819 21.6416C132.22 20.9854 130.893 20.5273 129.841 20.2676C128.802 20.0078 127.776 19.8779 126.765 19.8779C125.561 19.8779 124.639 20.1582 123.996 20.7188C123.353 21.2793 123.032 22.0107 123.032 22.9131C123.032 23.4736 123.162 23.9658 123.422 24.3896C123.682 24.7998 124.092 25.2031 124.652 25.5996C125.226 25.9824 126.573 26.6797 128.692 27.6914C131.495 29.0312 133.416 30.3779 134.455 31.7314C135.494 33.0713 136.014 34.7188 136.014 36.6738ZM151.483 45H145.228V15.0176H162.414V20.2266H151.483V27.958H161.655V33.1465H151.483V45ZM199.273 29.9678C199.273 34.9307 198.042 38.7451 195.581 41.4111C193.12 44.0771 189.593 45.4102 184.999 45.4102C180.406 45.4102 176.878 44.0771 174.417 41.4111C171.956 38.7451 170.726 34.917 170.726 29.9268C170.726 24.9365 171.956 21.1289 174.417 18.5039C176.892 15.8652 180.433 14.5459 185.04 14.5459C189.648 14.5459 193.168 15.8721 195.602 18.5244C198.049 21.1768 199.273 24.9912 199.273 29.9678ZM177.391 29.9678C177.391 33.3174 178.027 35.8398 179.298 37.5352C180.57 39.2305 182.47 40.0781 184.999 40.0781C190.072 40.0781 192.608 36.708 192.608 29.9678C192.608 23.2139 190.085 19.8369 185.04 19.8369C182.511 19.8369 180.604 20.6914 179.319 22.4004C178.034 24.0957 177.391 26.6182 177.391 29.9678ZM215.624 28.3271H217.675C219.685 28.3271 221.168 27.9922 222.125 27.3223C223.082 26.6523 223.561 25.5996 223.561 24.1641C223.561 22.7422 223.068 21.7305 222.084 21.1289C221.113 20.5273 219.603 20.2266 217.552 20.2266H215.624V28.3271ZM215.624 33.4951V45H209.267V15.0176H218.003C222.077 15.0176 225.092 15.7627 227.047 17.2529C229.002 18.7295 229.98 20.9785 229.98 24C229.98 25.7637 229.494 27.3359 228.523 28.7168C227.553 30.084 226.179 31.1572 224.401 31.9365C228.913 38.6768 231.853 43.0312 233.22 45H226.165L219.008 33.4951H215.624ZM253.509 19.8779C251.116 19.8779 249.263 20.7803 247.951 22.585C246.638 24.376 245.982 26.8779 245.982 30.0908C245.982 36.7764 248.491 40.1191 253.509 40.1191C255.614 40.1191 258.164 39.5928 261.158 38.54V43.8721C258.697 44.8975 255.949 45.4102 252.914 45.4102C248.553 45.4102 245.217 44.0908 242.906 41.4521C240.595 38.7998 239.44 34.999 239.44 30.0498C239.44 26.9326 240.008 24.2051 241.142 21.8672C242.277 19.5156 243.904 17.7178 246.023 16.4736C248.156 15.2158 250.651 14.5869 253.509 14.5869C256.421 14.5869 259.346 15.291 262.286 16.6992L260.235 21.8672C259.114 21.334 257.986 20.8691 256.851 20.4727C255.717 20.0762 254.602 19.8779 253.509 19.8779ZM288.604 45H271.336V15.0176H288.604V20.2266H277.694V26.8096H287.845V32.0186H277.694V39.75H288.604V45ZM16.96 58.7041C13.665 58.7041 11.0605 59.8047 9.14648 62.0059C7.24609 64.1934 6.2959 67.1943 6.2959 71.0088C6.2959 74.9326 7.21191 77.9678 9.04395 80.1143C10.8896 82.2471 13.5146 83.3135 16.9189 83.3135C19.0107 83.3135 21.3965 82.9375 24.0762 82.1855V85.2412C21.998 86.0205 19.4346 86.4102 16.3857 86.4102C11.9697 86.4102 8.55859 85.0703 6.15234 82.3906C3.75977 79.7109 2.56348 75.9033 2.56348 70.9678C2.56348 67.8779 3.1377 65.1709 4.28613 62.8467C5.44824 60.5225 7.11621 58.7314 9.29004 57.4736C11.4775 56.2158 14.0479 55.5869 17.001 55.5869C20.1455 55.5869 22.8936 56.1611 25.2451 57.3096L23.7686 60.3037C21.499 59.2373 19.2295 58.7041 16.96 58.7041ZM52.372 86H35.6582V56.0176H52.372V59.1143H39.1445V68.7734H51.5722V71.8496H39.1445V82.8828H52.372V86ZM67.5634 73.5312V86H64.0771V56.0176H72.3007C75.9784 56.0176 78.6923 56.7217 80.4423 58.1299C82.206 59.5381 83.0878 61.6572 83.0878 64.4873C83.0878 68.4521 81.078 71.1318 77.0585 72.5264L85.2001 86H81.078L73.8183 73.5312H67.5634ZM67.5634 70.5371H72.3417C74.8027 70.5371 76.6073 70.0518 77.7558 69.0811C78.9042 68.0967 79.4784 66.627 79.4784 64.6719C79.4784 62.6895 78.8905 61.2607 77.7148 60.3857C76.5527 59.5107 74.6796 59.0732 72.0956 59.0732H67.5634V70.5371ZM104.308 86H100.822V59.1143H91.327V56.0176H113.804V59.1143H104.308V86ZM123.376 86V56.0176H126.862V86H123.376ZM143.633 86H140.146V56.0176H156.86V59.1143H143.633V70.0859H156.06V73.1826H143.633V86ZM166.884 86V56.0176H170.37V86H166.884ZM200.368 86H183.654V56.0176H200.368V59.1143H187.14V68.7734H199.568V71.8496H187.14V82.8828H200.368V86ZM236.006 70.7217C236.006 75.6709 234.659 79.458 231.966 82.083C229.286 84.6943 225.424 86 220.379 86H212.073V56.0176H221.26C225.923 56.0176 229.546 57.3096 232.13 59.8936C234.714 62.4775 236.006 66.0869 236.006 70.7217ZM232.314 70.8447C232.314 66.9346 231.33 63.9883 229.361 62.0059C227.406 60.0234 224.494 59.0322 220.625 59.0322H215.559V82.9854H219.804C223.961 82.9854 227.085 81.9668 229.176 79.9297C231.268 77.8789 232.314 74.8506 232.314 70.8447Z" transform="translate(30 6)" fill="white"/>
<path d="M15.4219 15.8359C15.4219 17.8594 14.7292 19.418 13.3438 20.5117C11.9674 21.5964 9.99414 22.1387 7.42383 22.1387H5.07227V30H2.74805V10.0117H7.92969C12.9245 10.0117 15.4219 11.9531 15.4219 15.8359ZM5.07227 20.1426H7.16406C9.22396 20.1426 10.7142 19.8099 11.6348 19.1445C12.5553 18.4792 13.0156 17.4128 13.0156 15.9453C13.0156 14.6237 12.5827 13.6393 11.7168 12.9922C10.8509 12.3451 9.50195 12.0215 7.66992 12.0215H5.07227V20.1426ZM21.5469 30H19.2773V8.72656H21.5469V30ZM35.5742 30L35.123 27.8672H35.0137C34.2663 28.806 33.5189 29.444 32.7715 29.7812C32.0332 30.1094 31.1081 30.2734 29.9961 30.2734C28.5104 30.2734 27.3438 29.8906 26.4961 29.125C25.6576 28.3594 25.2383 27.2702 25.2383 25.8574C25.2383 22.8314 27.6582 21.2454 32.498 21.0996L35.041 21.0176V20.0879C35.041 18.9121 34.7858 18.0462 34.2754 17.4902C33.7741 16.9251 32.9674 16.6426 31.8555 16.6426C30.6068 16.6426 29.194 17.0254 27.6172 17.791L26.9199 16.0547C27.6582 15.6536 28.4648 15.3392 29.3398 15.1113C30.224 14.8835 31.1081 14.7695 31.9922 14.7695C33.7786 14.7695 35.1003 15.166 35.957 15.959C36.8229 16.752 37.2559 18.0234 37.2559 19.7734V30H35.5742ZM30.4473 28.4004C31.86 28.4004 32.9674 28.013 33.7695 27.2383C34.5807 26.4635 34.9863 25.3789 34.9863 23.9844V22.6309L32.7168 22.7266C30.9121 22.7904 29.6087 23.0729 28.8066 23.5742C28.0137 24.0664 27.6172 24.8366 27.6172 25.8848C27.6172 26.7051 27.8633 27.3294 28.3555 27.7578C28.8568 28.1862 29.554 28.4004 30.4473 28.4004ZM46.7852 28.4004C47.1862 28.4004 47.5736 28.373 47.9473 28.3184C48.321 28.2546 48.6172 28.1908 48.8359 28.127V29.8633C48.5898 29.9818 48.2253 30.0775 47.7422 30.1504C47.2682 30.2324 46.8398 30.2734 46.457 30.2734C43.5586 30.2734 42.1094 28.7467 42.1094 25.6934V16.7793H39.9629V15.6855L42.1094 14.7422L43.0664 11.543H44.3789V15.0156H48.7266V16.7793H44.3789V25.5977C44.3789 26.5 44.5931 27.1927 45.0215 27.6758C45.4499 28.1589 46.0378 28.4004 46.7852 28.4004ZM58.5977 16.7793H54.7832V30H52.5137V16.7793H49.834V15.7539L52.5137 14.9336V14.0996C52.5137 10.4173 54.1224 8.57617 57.3398 8.57617C58.1328 8.57617 59.0625 8.73568 60.1289 9.05469L59.541 10.873C58.666 10.5905 57.9186 10.4492 57.2988 10.4492C56.4421 10.4492 55.8086 10.7363 55.3984 11.3105C54.9883 11.8757 54.7832 12.7871 54.7832 14.0449V15.0156H58.5977V16.7793ZM74.2656 22.4941C74.2656 24.9368 73.6504 26.8464 72.4199 28.2227C71.1895 29.5898 69.4896 30.2734 67.3203 30.2734C65.9805 30.2734 64.791 29.959 63.752 29.3301C62.7129 28.7012 61.9108 27.7988 61.3457 26.623C60.7806 25.4473 60.498 24.071 60.498 22.4941C60.498 20.0514 61.1087 18.151 62.3301 16.793C63.5514 15.4258 65.2467 14.7422 67.416 14.7422C69.5124 14.7422 71.1758 15.4395 72.4062 16.834C73.6458 18.2285 74.2656 20.1152 74.2656 22.4941ZM62.8496 22.4941C62.8496 24.4082 63.2324 25.8665 63.998 26.8691C64.7637 27.8717 65.8893 28.373 67.375 28.373C68.8607 28.373 69.9863 27.8763 70.752 26.8828C71.5267 25.8802 71.9141 24.4173 71.9141 22.4941C71.9141 20.5892 71.5267 19.1445 70.752 18.1602C69.9863 17.1667 68.8516 16.6699 67.3477 16.6699C65.862 16.6699 64.7409 17.1576 63.9844 18.1328C63.2279 19.1081 62.8496 20.5618 62.8496 22.4941ZM85.0938 14.7422C85.7591 14.7422 86.3561 14.7969 86.8848 14.9062L86.5703 17.0117C85.9505 16.875 85.4036 16.8066 84.9297 16.8066C83.7174 16.8066 82.6784 17.2988 81.8125 18.2832C80.9557 19.2676 80.5273 20.4935 80.5273 21.9609V30H78.2578V15.0156H80.1309L80.3906 17.791H80.5C81.056 16.8158 81.7259 16.0638 82.5098 15.5352C83.2936 15.0065 84.1549 14.7422 85.0938 14.7422ZM108.787 30V20.252C108.787 19.0579 108.532 18.1647 108.021 17.5723C107.511 16.9707 106.718 16.6699 105.643 16.6699C104.23 16.6699 103.186 17.0755 102.512 17.8867C101.837 18.6979 101.5 19.9466 101.5 21.6328V30H99.2305V20.252C99.2305 19.0579 98.9753 18.1647 98.4648 17.5723C97.9544 16.9707 97.1569 16.6699 96.0723 16.6699C94.6504 16.6699 93.6068 17.0983 92.9414 17.9551C92.2852 18.8027 91.957 20.1973 91.957 22.1387V30H89.6875V15.0156H91.5332L91.9023 17.0664H92.0117C92.4401 16.3372 93.0417 15.7676 93.8164 15.3574C94.6003 14.9473 95.4753 14.7422 96.4414 14.7422C98.7839 14.7422 100.315 15.5898 101.035 17.2852H101.145C101.591 16.5013 102.238 15.8815 103.086 15.4258C103.934 14.9701 104.9 14.7422 105.984 14.7422C107.68 14.7422 108.947 15.1797 109.785 16.0547C110.633 16.9206 111.057 18.3105 111.057 20.2246V30H108.787ZM135.926 30L133.438 23.6426H125.426L122.965 30H120.613L128.516 9.92969H130.471L138.332 30H135.926ZM132.713 21.5508L130.389 15.3574C130.088 14.5736 129.778 13.612 129.459 12.4727C129.258 13.3477 128.971 14.3092 128.598 15.3574L126.246 21.5508H132.713ZM147.711 30.2734C146.736 30.2734 145.842 30.0957 145.031 29.7402C144.229 29.3757 143.555 28.8197 143.008 28.0723H142.844C142.953 28.9473 143.008 29.7767 143.008 30.5605V36.7266H140.738V15.0156H142.584L142.898 17.0664H143.008C143.591 16.2461 144.27 15.6536 145.045 15.2891C145.82 14.9245 146.708 14.7422 147.711 14.7422C149.698 14.7422 151.229 15.4212 152.305 16.7793C153.389 18.1374 153.932 20.0423 153.932 22.4941C153.932 24.9551 153.38 26.8691 152.277 28.2363C151.184 29.5944 149.661 30.2734 147.711 30.2734ZM147.383 16.6699C145.852 16.6699 144.744 17.0938 144.061 17.9414C143.377 18.7891 143.026 20.138 143.008 21.9883V22.4941C143.008 24.5996 143.359 26.1081 144.061 27.0195C144.762 27.9219 145.888 28.373 147.438 28.373C148.732 28.373 149.743 27.849 150.473 26.8008C151.211 25.7526 151.58 24.3079 151.58 22.4668C151.58 20.5983 151.211 19.1673 150.473 18.1738C149.743 17.1712 148.714 16.6699 147.383 16.6699ZM164.883 30.2734C163.908 30.2734 163.014 30.0957 162.203 29.7402C161.401 29.3757 160.727 28.8197 160.18 28.0723H160.016C160.125 28.9473 160.18 29.7767 160.18 30.5605V36.7266H157.91V15.0156H159.756L160.07 17.0664H160.18C160.763 16.2461 161.442 15.6536 162.217 15.2891C162.992 14.9245 163.88 14.7422 164.883 14.7422C166.87 14.7422 168.401 15.4212 169.477 16.7793C170.561 18.1374 171.104 20.0423 171.104 22.4941C171.104 24.9551 170.552 26.8691 169.449 28.2363C168.355 29.5944 166.833 30.2734 164.883 30.2734ZM164.555 16.6699C163.023 16.6699 161.916 17.0938 161.232 17.9414C160.549 18.7891 160.198 20.138 160.18 21.9883V22.4941C160.18 24.5996 160.531 26.1081 161.232 27.0195C161.934 27.9219 163.06 28.373 164.609 28.373C165.904 28.373 166.915 27.849 167.645 26.8008C168.383 25.7526 168.752 24.3079 168.752 22.4668C168.752 20.5983 168.383 19.1673 167.645 18.1738C166.915 17.1712 165.885 16.6699 164.555 16.6699ZM2.74805 44.0117H8.39453C11.0469 44.0117 12.9655 44.4082 14.1504 45.2012C15.3353 45.9941 15.9277 47.2474 15.9277 48.9609C15.9277 50.1458 15.5951 51.1257 14.9297 51.9004C14.2734 52.666 13.3118 53.1628 12.0449 53.3906V53.5273C15.0801 54.0469 16.5977 55.6419 16.5977 58.3125C16.5977 60.099 15.9915 61.4935 14.7793 62.4961C13.5762 63.4987 11.89 64 9.7207 64H2.74805V44.0117ZM5.07227 52.5703H8.90039C10.541 52.5703 11.7214 52.3151 12.4414 51.8047C13.1615 51.2852 13.5215 50.4147 13.5215 49.1934C13.5215 48.0723 13.1204 47.2656 12.3184 46.7734C11.5163 46.2721 10.2402 46.0215 8.49023 46.0215H5.07227V52.5703ZM5.07227 54.5391V62.0176H9.24219C10.8555 62.0176 12.0677 61.7077 12.8789 61.0879C13.6992 60.459 14.1094 59.4792 14.1094 58.1484C14.1094 56.9089 13.6901 55.9974 12.8516 55.4141C12.0221 54.8307 10.7552 54.5391 9.05078 54.5391H5.07227ZM22.6953 49.0156V58.7363C22.6953 59.9577 22.9733 60.8691 23.5293 61.4707C24.0853 62.0723 24.9557 62.373 26.1406 62.373C27.7083 62.373 28.8522 61.9447 29.5723 61.0879C30.3014 60.2311 30.666 58.832 30.666 56.8906V49.0156H32.9355V64H31.0625L30.7344 61.9902H30.6113C30.1465 62.7285 29.4993 63.2936 28.6699 63.6855C27.8496 64.0775 26.9108 64.2734 25.8535 64.2734C24.0306 64.2734 22.6634 63.8405 21.752 62.9746C20.8496 62.1087 20.3984 60.7233 20.3984 58.8184V49.0156H22.6953ZM40.0312 64H37.7617V49.0156H40.0312V64ZM37.5703 44.9551C37.5703 44.4355 37.6979 44.0573 37.9531 43.8203C38.2083 43.5742 38.5273 43.4512 38.9102 43.4512C39.2747 43.4512 39.5892 43.5742 39.8535 43.8203C40.1178 44.0664 40.25 44.4447 40.25 44.9551C40.25 45.4655 40.1178 45.8483 39.8535 46.1035C39.5892 46.3496 39.2747 46.4727 38.9102 46.4727C38.5273 46.4727 38.2083 46.3496 37.9531 46.1035C37.6979 45.8483 37.5703 45.4655 37.5703 44.9551ZM47.1133 64H44.8438V42.7266H47.1133V64ZM62.125 61.9902H62.002C60.9538 63.5124 59.3861 64.2734 57.2988 64.2734C55.3392 64.2734 53.8125 63.6035 52.7188 62.2637C51.6341 60.9238 51.0918 59.0189 51.0918 56.5488C51.0918 54.0788 51.6387 52.1602 52.7324 50.793C53.8262 49.4258 55.3483 48.7422 57.2988 48.7422C59.3314 48.7422 60.89 49.4805 61.9746 50.957H62.1523L62.0566 49.877L62.002 48.8242V42.7266H64.2715V64H62.4258L62.125 61.9902ZM57.5859 62.373C59.1354 62.373 60.2565 61.9538 60.9492 61.1152C61.651 60.2676 62.002 58.9049 62.002 57.0273V56.5488C62.002 54.4251 61.6465 52.9121 60.9355 52.0098C60.2337 51.0983 59.1081 50.6426 57.5586 50.6426C56.2279 50.6426 55.207 51.1621 54.4961 52.2012C53.7943 53.2311 53.4434 54.6895 53.4434 56.5762C53.4434 58.4902 53.7943 59.9349 54.4961 60.9102C55.1979 61.8854 56.2279 62.373 57.5859 62.373ZM75.4277 64.2734C73.2129 64.2734 71.4629 63.599 70.1777 62.25C68.9017 60.901 68.2637 59.028 68.2637 56.6309C68.2637 54.2155 68.8561 52.2969 70.041 50.875C71.235 49.4531 72.8346 48.7422 74.8398 48.7422C76.7174 48.7422 78.2031 49.362 79.2969 50.6016C80.3906 51.832 80.9375 53.459 80.9375 55.4824V56.918H70.6152C70.6608 58.6771 71.1029 60.0124 71.9414 60.9238C72.7891 61.8353 73.9785 62.291 75.5098 62.291C77.123 62.291 78.7181 61.9538 80.2949 61.2793V63.3027C79.4928 63.6491 78.7318 63.8952 78.0117 64.041C77.3008 64.196 76.4395 64.2734 75.4277 64.2734ZM74.8125 50.6426C73.6094 50.6426 72.6478 51.0345 71.9277 51.8184C71.2168 52.6022 70.7975 53.6868 70.6699 55.0723H78.5039C78.5039 53.6413 78.1849 52.5475 77.5469 51.791C76.9089 51.0254 75.9974 50.6426 74.8125 50.6426ZM91.6562 48.7422C92.3216 48.7422 92.9186 48.7969 93.4473 48.9062L93.1328 51.0117C92.513 50.875 91.9661 50.8066 91.4922 50.8066C90.2799 50.8066 89.2409 51.2988 88.375 52.2832C87.5182 53.2676 87.0898 54.4935 87.0898 55.9609V64H84.8203V49.0156H86.6934L86.9531 51.791H87.0625C87.6185 50.8158 88.2884 50.0638 89.0723 49.5352C89.8561 49.0065 90.7174 48.7422 91.6562 48.7422Z" transform="translate(30 121)" fill="white"/>
<path d="M9.49994 0.0473362C13.4999 -0.352664 16.1666 1.88067 16.9999 3.04734C18.2 0.247314 21.8333 -0.11934 23.4999 0.0473362C27.0999 0.0473362 28.6666 3.04735 28.9999 4.54736C36.4999 1.54736 45.4999 9.04736 40.9999 16.5474C37.3999 22.5474 32.8332 22.3807 30.9999 21.5474C30.4999 22.5474 31.4999 23.0474 27.9999 24.5474C25.1999 25.7474 22.8332 25.0474 21.9999 24.5474C21.4999 25.5474 20.4999 29.5474 15.4999 29.5474C11.4999 29.5474 9.16658 26.214 8.49991 24.5474C3.49991 24.0474 -0.00012207 21.5474 0 17.5474C0.000100663 14.2489 1.99996 11.8807 3.49994 11.0474C2.99994 5.54736 4.49994 0.547336 9.49994 0.0473362Z" transform="translate(280.5 61.9526)" fill="#00A1E1"/>
</svg>
