<svg width="355" height="203" viewBox="0 0 355 203" fill="none" xmlns="http://www.w3.org/2000/svg">
<rect width="355" height="90" transform="translate(0 113)" fill="#00A1E1"/>
<rect width="355" height="113" fill="#F3F4F5"/>
<path d="M21.4717 36.6738C21.4717 39.3809 20.4941 41.5137 18.5391 43.0723C16.5977 44.6309 13.8906 45.4102 10.418 45.4102C7.21875 45.4102 4.38867 44.8086 1.92773 43.6055V37.6992C3.95117 38.6016 5.66016 39.2373 7.05469 39.6064C8.46289 39.9756 9.74805 40.1602 10.9102 40.1602C12.3047 40.1602 13.3711 39.8936 14.1094 39.3604C14.8613 38.8271 15.2373 38.0342 15.2373 36.9814C15.2373 36.3936 15.0732 35.874 14.7451 35.4229C14.417 34.958 13.9316 34.5137 13.2891 34.0898C12.6602 33.666 11.3682 32.9893 9.41309 32.0596C7.58105 31.1982 6.20703 30.3711 5.29102 29.5781C4.375 28.7852 3.64355 27.8623 3.09668 26.8096C2.5498 25.7568 2.27637 24.5264 2.27637 23.1182C2.27637 20.4658 3.17188 18.3809 4.96289 16.8633C6.76758 15.3457 9.25586 14.5869 12.4277 14.5869C13.9863 14.5869 15.4697 14.7715 16.8779 15.1406C18.2998 15.5098 19.7832 16.0293 21.3281 16.6992L19.2773 21.6416C17.6777 20.9854 16.3516 20.5273 15.2988 20.2676C14.2598 20.0078 13.2344 19.8779 12.2227 19.8779C11.0195 19.8779 10.0967 20.1582 9.4541 20.7188C8.81152 21.2793 8.49023 22.0107 8.49023 22.9131C8.49023 23.4736 8.62012 23.9658 8.87988 24.3896C9.13965 24.7998 9.5498 25.2031 10.1104 25.5996C10.6846 25.9824 12.0312 26.6797 14.1504 27.6914C16.9531 29.0312 18.874 30.3779 19.9131 31.7314C20.9521 33.0713 21.4717 34.7188 21.4717 36.6738ZM49.0407 45L46.8669 37.8633H35.9363L33.7624 45H26.9128L37.4948 14.8945H45.2673L55.8904 45H49.0407ZM45.3493 32.5312C43.3396 26.0645 42.2048 22.4072 41.945 21.5596C41.6989 20.7119 41.5212 20.042 41.4118 19.5498C40.9607 21.2998 39.6687 25.627 37.5359 32.5312H45.3493ZM63.4643 45V15.0176H69.8217V39.75H81.9828V45H63.4643ZM108.26 45H90.9923V15.0176H108.26V20.2266H97.3498V26.8096H107.501V32.0186H97.3498V39.75H108.26V45ZM136.014 36.6738C136.014 39.3809 135.036 41.5137 133.081 43.0723C131.14 44.6309 128.433 45.4102 124.96 45.4102C121.761 45.4102 118.931 44.8086 116.47 43.6055V37.6992C118.493 38.6016 120.202 39.2373 121.597 39.6064C123.005 39.9756 124.29 40.1602 125.452 40.1602C126.847 40.1602 127.913 39.8936 128.651 39.3604C129.403 38.8271 129.779 38.0342 129.779 36.9814C129.779 36.3936 129.615 35.874 129.287 35.4229C128.959 34.958 128.474 34.5137 127.831 34.0898C127.202 33.666 125.91 32.9893 123.955 32.0596C122.123 31.1982 120.749 30.3711 119.833 29.5781C118.917 28.7852 118.185 27.8623 117.639 26.8096C117.092 25.7568 116.818 24.5264 116.818 23.1182C116.818 20.4658 117.714 18.3809 119.505 16.8633C121.309 15.3457 123.798 14.5869 126.97 14.5869C128.528 14.5869 130.012 14.7715 131.42 15.1406C132.842 15.5098 134.325 16.0293 135.87 16.6992L133.819 21.6416C132.22 20.9854 130.893 20.5273 129.841 20.2676C128.802 20.0078 127.776 19.8779 126.765 19.8779C125.561 19.8779 124.639 20.1582 123.996 20.7188C123.353 21.2793 123.032 22.0107 123.032 22.9131C123.032 23.4736 123.162 23.9658 123.422 24.3896C123.682 24.7998 124.092 25.2031 124.652 25.5996C125.226 25.9824 126.573 26.6797 128.692 27.6914C131.495 29.0312 133.416 30.3779 134.455 31.7314C135.494 33.0713 136.014 34.7188 136.014 36.6738ZM151.483 45H145.228V15.0176H162.414V20.2266H151.483V27.958H161.655V33.1465H151.483V45ZM199.273 29.9678C199.273 34.9307 198.042 38.7451 195.581 41.4111C193.12 44.0771 189.593 45.4102 184.999 45.4102C180.406 45.4102 176.878 44.0771 174.417 41.4111C171.956 38.7451 170.726 34.917 170.726 29.9268C170.726 24.9365 171.956 21.1289 174.417 18.5039C176.892 15.8652 180.433 14.5459 185.04 14.5459C189.648 14.5459 193.168 15.8721 195.602 18.5244C198.049 21.1768 199.273 24.9912 199.273 29.9678ZM177.391 29.9678C177.391 33.3174 178.027 35.8398 179.298 37.5352C180.57 39.2305 182.47 40.0781 184.999 40.0781C190.072 40.0781 192.608 36.708 192.608 29.9678C192.608 23.2139 190.085 19.8369 185.04 19.8369C182.511 19.8369 180.604 20.6914 179.319 22.4004C178.034 24.0957 177.391 26.6182 177.391 29.9678ZM215.624 28.3271H217.675C219.685 28.3271 221.168 27.9922 222.125 27.3223C223.082 26.6523 223.561 25.5996 223.561 24.1641C223.561 22.7422 223.068 21.7305 222.084 21.1289C221.113 20.5273 219.603 20.2266 217.552 20.2266H215.624V28.3271ZM215.624 33.4951V45H209.267V15.0176H218.003C222.077 15.0176 225.092 15.7627 227.047 17.2529C229.002 18.7295 229.98 20.9785 229.98 24C229.98 25.7637 229.494 27.3359 228.523 28.7168C227.553 30.084 226.179 31.1572 224.401 31.9365C228.913 38.6768 231.853 43.0312 233.22 45H226.165L219.008 33.4951H215.624ZM253.509 19.8779C251.116 19.8779 249.263 20.7803 247.951 22.585C246.638 24.376 245.982 26.8779 245.982 30.0908C245.982 36.7764 248.491 40.1191 253.509 40.1191C255.614 40.1191 258.164 39.5928 261.158 38.54V43.8721C258.697 44.8975 255.949 45.4102 252.914 45.4102C248.553 45.4102 245.217 44.0908 242.906 41.4521C240.595 38.7998 239.44 34.999 239.44 30.0498C239.44 26.9326 240.008 24.2051 241.142 21.8672C242.277 19.5156 243.904 17.7178 246.023 16.4736C248.156 15.2158 250.651 14.5869 253.509 14.5869C256.421 14.5869 259.346 15.291 262.286 16.6992L260.235 21.8672C259.114 21.334 257.986 20.8691 256.851 20.4727C255.717 20.0762 254.602 19.8779 253.509 19.8779ZM288.604 45H271.336V15.0176H288.604V20.2266H277.694V26.8096H287.845V32.0186H277.694V39.75H288.604V45ZM21.3281 82L17.8623 73.145H6.70312L3.27539 82H0L11.0068 54.0449H13.73L24.6797 82H21.3281ZM16.853 70.2314L13.6157 61.605C13.1968 60.5132 12.7651 59.1738 12.3208 57.5869C12.0415 58.8057 11.6416 60.145 11.1211 61.605L7.8457 70.2314H16.853ZM40.8182 56.6538C37.7587 56.6538 35.3402 57.6758 33.5629 59.7197C31.7982 61.751 30.9159 64.5376 30.9159 68.0796C30.9159 71.7231 31.7665 74.5415 33.4676 76.5347C35.1815 78.5151 37.619 79.5054 40.7801 79.5054C42.7225 79.5054 44.9379 79.1562 47.4261 78.458V81.2954C45.4964 82.019 43.1161 82.3809 40.285 82.3809C36.1844 82.3809 33.017 81.1367 30.7826 78.6484C28.5609 76.1602 27.4501 72.6245 27.4501 68.0415C27.4501 65.1724 27.9833 62.6587 29.0497 60.5005C30.1288 58.3423 31.6776 56.6792 33.6962 55.5112C35.7274 54.3433 38.1141 53.7593 40.8563 53.7593C43.7762 53.7593 46.328 54.2925 48.5116 55.3589L47.1405 58.1392C45.0331 57.1489 42.9256 56.6538 40.8182 56.6538ZM65.8117 56.6538C62.7522 56.6538 60.3337 57.6758 58.5564 59.7197C56.7917 61.751 55.9094 64.5376 55.9094 68.0796C55.9094 71.7231 56.76 74.5415 58.4612 76.5347C60.175 78.5151 62.6125 79.5054 65.7737 79.5054C67.716 79.5054 69.9314 79.1562 72.4196 78.458V81.2954C70.49 82.019 68.1096 82.3809 65.2785 82.3809C61.1779 82.3809 58.0105 81.1367 55.7761 78.6484C53.5544 76.1602 52.4436 72.6245 52.4436 68.0415C52.4436 65.1724 52.9768 62.6587 54.0432 60.5005C55.1223 58.3423 56.6711 56.6792 58.6897 55.5112C60.7209 54.3433 63.1076 53.7593 65.8498 53.7593C68.7697 53.7593 71.3215 54.2925 73.5051 55.3589L72.134 58.1392C70.0266 57.1489 67.9192 56.6538 65.8117 56.6538ZM82.1217 70.4219V82H78.8844V54.1592H86.5206C89.9356 54.1592 92.4556 54.813 94.0806 56.1206C95.7183 57.4282 96.5372 59.396 96.5372 62.0239C96.5372 65.7056 94.671 68.1938 90.9386 69.4888L98.4986 82H94.671L87.9298 70.4219H82.1217ZM82.1217 67.6416H86.5587C88.8438 67.6416 90.5196 67.1909 91.586 66.2896C92.6524 65.3755 93.1856 64.0107 93.1856 62.1953C93.1856 60.3545 92.6397 59.0278 91.5479 58.2153C90.4688 57.4028 88.7296 56.9966 86.3302 56.9966H82.1217V67.6416ZM118.903 82H103.383V54.1592H118.903V57.0347H106.62V66.0039H118.16V68.8604H106.62V79.1055H118.903V82ZM147.705 67.813C147.705 72.4087 146.454 75.9253 143.953 78.3628C141.465 80.7876 137.879 82 133.194 82H125.482V54.1592H134.013C138.342 54.1592 141.706 55.3589 144.106 57.7583C146.505 60.1577 147.705 63.5093 147.705 67.813ZM144.277 67.9272C144.277 64.2964 143.363 61.5605 141.535 59.7197C139.72 57.8789 137.015 56.9585 133.423 56.9585H128.719V79.2007H132.661C136.52 79.2007 139.421 78.2549 141.364 76.3633C143.306 74.459 144.277 71.647 144.277 67.9272ZM154.322 82V54.1592H157.559V82H154.322ZM174.174 82H170.937V57.0347H162.12V54.1592H182.991V57.0347H174.174V82ZM203.109 82H187.589V54.1592H203.109V57.0347H190.827V66.0039H202.367V68.8604H190.827V79.1055H203.109V82ZM231.911 67.813C231.911 72.4087 230.661 75.9253 228.16 78.3628C225.672 80.7876 222.085 82 217.401 82H209.688V54.1592H218.219C222.549 54.1592 225.913 55.3589 228.312 57.7583C230.712 60.1577 231.911 63.5093 231.911 67.813ZM228.484 67.9272C228.484 64.2964 227.57 61.5605 225.741 59.7197C223.926 57.8789 221.222 56.9585 217.629 56.9585H212.926V79.2007H216.867C220.727 79.2007 223.628 78.2549 225.57 76.3633C227.512 74.459 228.484 71.647 228.484 67.9272Z" transform="translate(30 6)" fill="#00A1E1"/>
<path d="M14.0273 24.6816C14.0273 26.4408 13.3893 27.8125 12.1133 28.7969C10.8372 29.7812 9.10547 30.2734 6.91797 30.2734C4.54818 30.2734 2.72526 29.9681 1.44922 29.3574V27.1152C2.26953 27.4616 3.16276 27.735 4.12891 27.9355C5.09505 28.1361 6.05208 28.2363 7 28.2363C8.54948 28.2363 9.71615 27.9447 10.5 27.3613C11.2839 26.7689 11.6758 25.9486 11.6758 24.9004C11.6758 24.2077 11.5345 23.6426 11.252 23.2051C10.9785 22.7585 10.5137 22.3483 9.85742 21.9746C9.21029 21.6009 8.22135 21.1771 6.89062 20.7031C5.03125 20.0378 3.70052 19.2493 2.89844 18.3379C2.10547 17.4264 1.70898 16.237 1.70898 14.7695C1.70898 13.2292 2.28776 12.0033 3.44531 11.0918C4.60286 10.1803 6.13411 9.72461 8.03906 9.72461C10.026 9.72461 11.8535 10.0892 13.5215 10.8184L12.7969 12.8418C11.1471 12.1491 9.54297 11.8027 7.98438 11.8027C6.75391 11.8027 5.79232 12.0671 5.09961 12.5957C4.4069 13.1243 4.06055 13.8581 4.06055 14.7969C4.06055 15.4896 4.18815 16.0592 4.44336 16.5059C4.69857 16.9434 5.12695 17.349 5.72852 17.7227C6.33919 18.0872 7.26888 18.4928 8.51758 18.9395C10.6139 19.6868 12.054 20.4889 12.8379 21.3457C13.6309 22.2025 14.0273 23.3145 14.0273 24.6816ZM26.9883 30L26.5371 27.8672H26.4277C25.6803 28.806 24.9329 29.444 24.1855 29.7812C23.4473 30.1094 22.5221 30.2734 21.4102 30.2734C19.9245 30.2734 18.7578 29.8906 17.9102 29.125C17.0716 28.3594 16.6523 27.2702 16.6523 25.8574C16.6523 22.8314 19.0723 21.2454 23.9121 21.0996L26.4551 21.0176V20.0879C26.4551 18.9121 26.1999 18.0462 25.6895 17.4902C25.1882 16.9251 24.3815 16.6426 23.2695 16.6426C22.0208 16.6426 20.6081 17.0254 19.0312 17.791L18.334 16.0547C19.0723 15.6536 19.8789 15.3392 20.7539 15.1113C21.638 14.8835 22.5221 14.7695 23.4062 14.7695C25.1927 14.7695 26.5143 15.166 27.3711 15.959C28.237 16.752 28.6699 18.0234 28.6699 19.7734V30H26.9883ZM21.8613 28.4004C23.2741 28.4004 24.3815 28.013 25.1836 27.2383C25.9948 26.4635 26.4004 25.3789 26.4004 23.9844V22.6309L24.1309 22.7266C22.3262 22.7904 21.0228 23.0729 20.2207 23.5742C19.4277 24.0664 19.0312 24.8366 19.0312 25.8848C19.0312 26.7051 19.2773 27.3294 19.7695 27.7578C20.2708 28.1862 20.9681 28.4004 21.8613 28.4004ZM35.6289 30H33.3594V8.72656H35.6289V30ZM46.7715 30.2734C44.5566 30.2734 42.8066 29.599 41.5215 28.25C40.2454 26.901 39.6074 25.028 39.6074 22.6309C39.6074 20.2155 40.1999 18.2969 41.3848 16.875C42.5788 15.4531 44.1784 14.7422 46.1836 14.7422C48.0612 14.7422 49.5469 15.362 50.6406 16.6016C51.7344 17.832 52.2812 19.459 52.2812 21.4824V22.918H41.959C42.0046 24.6771 42.4466 26.0124 43.2852 26.9238C44.1328 27.8353 45.3223 28.291 46.8535 28.291C48.4668 28.291 50.0618 27.9538 51.6387 27.2793V29.3027C50.8366 29.6491 50.0755 29.8952 49.3555 30.041C48.6445 30.196 47.7832 30.2734 46.7715 30.2734ZM46.1562 16.6426C44.9531 16.6426 43.9915 17.0345 43.2715 17.8184C42.5605 18.6022 42.1413 19.6868 42.0137 21.0723H49.8477C49.8477 19.6413 49.5286 18.5475 48.8906 17.791C48.2526 17.0254 47.3411 16.6426 46.1562 16.6426ZM65.8301 25.9121C65.8301 27.3066 65.3105 28.3822 64.2715 29.1387C63.2324 29.8952 61.7741 30.2734 59.8965 30.2734C57.9095 30.2734 56.36 29.959 55.248 29.3301V27.2246C55.9681 27.5892 56.7383 27.8763 57.5586 28.0859C58.388 28.2956 59.1855 28.4004 59.9512 28.4004C61.1361 28.4004 62.0475 28.2135 62.6855 27.8398C63.3236 27.457 63.6426 26.8783 63.6426 26.1035C63.6426 25.5202 63.3874 25.0234 62.877 24.6133C62.3757 24.194 61.3913 23.7018 59.9238 23.1367C58.5293 22.6172 57.5358 22.166 56.9434 21.7832C56.36 21.3913 55.9225 20.9492 55.6309 20.457C55.3483 19.9648 55.207 19.377 55.207 18.6934C55.207 17.472 55.7038 16.5104 56.6973 15.8086C57.6908 15.0977 59.0534 14.7422 60.7852 14.7422C62.3984 14.7422 63.9753 15.0703 65.5156 15.7266L64.709 17.5723C63.2051 16.9525 61.8424 16.6426 60.6211 16.6426C59.5456 16.6426 58.7344 16.8112 58.1875 17.1484C57.6406 17.4857 57.3672 17.9505 57.3672 18.543C57.3672 18.944 57.4674 19.2858 57.668 19.5684C57.8776 19.8509 58.2103 20.1198 58.666 20.375C59.1217 20.6302 59.9967 20.9993 61.291 21.4824C63.0684 22.1296 64.2669 22.7812 64.8867 23.4375C65.5156 24.0938 65.8301 24.9186 65.8301 25.9121ZM89.8242 15.8359C89.8242 17.8594 89.1315 19.418 87.7461 20.5117C86.3698 21.5964 84.3965 22.1387 81.8262 22.1387H79.4746V30H77.1504V10.0117H82.332C87.3268 10.0117 89.8242 11.9531 89.8242 15.8359ZM79.4746 20.1426H81.5664C83.6263 20.1426 85.1165 19.8099 86.0371 19.1445C86.9577 18.4792 87.418 17.4128 87.418 15.9453C87.418 14.6237 86.985 13.6393 86.1191 12.9922C85.2533 12.3451 83.9043 12.0215 82.0723 12.0215H79.4746V20.1426ZM100.516 14.7422C101.181 14.7422 101.778 14.7969 102.307 14.9062L101.992 17.0117C101.372 16.875 100.826 16.8066 100.352 16.8066C99.1393 16.8066 98.1003 17.2988 97.2344 18.2832C96.3776 19.2676 95.9492 20.4935 95.9492 21.9609V30H93.6797V15.0156H95.5527L95.8125 17.791H95.9219C96.4779 16.8158 97.1478 16.0638 97.9316 15.5352C98.7155 15.0065 99.5768 14.7422 100.516 14.7422ZM118.043 22.4941C118.043 24.9368 117.428 26.8464 116.197 28.2227C114.967 29.5898 113.267 30.2734 111.098 30.2734C109.758 30.2734 108.568 29.959 107.529 29.3301C106.49 28.7012 105.688 27.7988 105.123 26.623C104.558 25.4473 104.275 24.071 104.275 22.4941C104.275 20.0514 104.886 18.151 106.107 16.793C107.329 15.4258 109.024 14.7422 111.193 14.7422C113.29 14.7422 114.953 15.4395 116.184 16.834C117.423 18.2285 118.043 20.1152 118.043 22.4941ZM106.627 22.4941C106.627 24.4082 107.01 25.8665 107.775 26.8691C108.541 27.8717 109.667 28.373 111.152 28.373C112.638 28.373 113.764 27.8763 114.529 26.8828C115.304 25.8802 115.691 24.4173 115.691 22.4941C115.691 20.5892 115.304 19.1445 114.529 18.1602C113.764 17.1667 112.629 16.6699 111.125 16.6699C109.639 16.6699 108.518 17.1576 107.762 18.1328C107.005 19.1081 106.627 20.5618 106.627 22.4941ZM128.789 16.7793H124.975V30H122.705V16.7793H120.025V15.7539L122.705 14.9336V14.0996C122.705 10.4173 124.314 8.57617 127.531 8.57617C128.324 8.57617 129.254 8.73568 130.32 9.05469L129.732 10.873C128.857 10.5905 128.11 10.4492 127.49 10.4492C126.633 10.4492 126 10.7363 125.59 11.3105C125.18 11.8757 124.975 12.7871 124.975 14.0449V15.0156H128.789V16.7793ZM137.854 30.2734C135.639 30.2734 133.889 29.599 132.604 28.25C131.327 26.901 130.689 25.028 130.689 22.6309C130.689 20.2155 131.282 18.2969 132.467 16.875C133.661 15.4531 135.26 14.7422 137.266 14.7422C139.143 14.7422 140.629 15.362 141.723 16.6016C142.816 17.832 143.363 19.459 143.363 21.4824V22.918H133.041C133.087 24.6771 133.529 26.0124 134.367 26.9238C135.215 27.8353 136.404 28.291 137.936 28.291C139.549 28.291 141.144 27.9538 142.721 27.2793V29.3027C141.919 29.6491 141.158 29.8952 140.438 30.041C139.727 30.196 138.865 30.2734 137.854 30.2734ZM137.238 16.6426C136.035 16.6426 135.074 17.0345 134.354 17.8184C133.643 18.6022 133.223 19.6868 133.096 21.0723H140.93C140.93 19.6413 140.611 18.5475 139.973 17.791C139.335 17.0254 138.423 16.6426 137.238 16.6426ZM156.912 25.9121C156.912 27.3066 156.393 28.3822 155.354 29.1387C154.314 29.8952 152.856 30.2734 150.979 30.2734C148.992 30.2734 147.442 29.959 146.33 29.3301V27.2246C147.05 27.5892 147.82 27.8763 148.641 28.0859C149.47 28.2956 150.268 28.4004 151.033 28.4004C152.218 28.4004 153.13 28.2135 153.768 27.8398C154.406 27.457 154.725 26.8783 154.725 26.1035C154.725 25.5202 154.469 25.0234 153.959 24.6133C153.458 24.194 152.473 23.7018 151.006 23.1367C149.611 22.6172 148.618 22.166 148.025 21.7832C147.442 21.3913 147.005 20.9492 146.713 20.457C146.43 19.9648 146.289 19.377 146.289 18.6934C146.289 17.472 146.786 16.5104 147.779 15.8086C148.773 15.0977 150.135 14.7422 151.867 14.7422C153.48 14.7422 155.057 15.0703 156.598 15.7266L155.791 17.5723C154.287 16.9525 152.924 16.6426 151.703 16.6426C150.628 16.6426 149.816 16.8112 149.27 17.1484C148.723 17.4857 148.449 17.9505 148.449 18.543C148.449 18.944 148.549 19.2858 148.75 19.5684C148.96 19.8509 149.292 20.1198 149.748 20.375C150.204 20.6302 151.079 20.9993 152.373 21.4824C154.15 22.1296 155.349 22.7812 155.969 23.4375C156.598 24.0938 156.912 24.9186 156.912 25.9121ZM170.283 25.9121C170.283 27.3066 169.764 28.3822 168.725 29.1387C167.686 29.8952 166.227 30.2734 164.35 30.2734C162.363 30.2734 160.813 29.959 159.701 29.3301V27.2246C160.421 27.5892 161.191 27.8763 162.012 28.0859C162.841 28.2956 163.639 28.4004 164.404 28.4004C165.589 28.4004 166.501 28.2135 167.139 27.8398C167.777 27.457 168.096 26.8783 168.096 26.1035C168.096 25.5202 167.84 25.0234 167.33 24.6133C166.829 24.194 165.844 23.7018 164.377 23.1367C162.982 22.6172 161.989 22.166 161.396 21.7832C160.813 21.3913 160.376 20.9492 160.084 20.457C159.801 19.9648 159.66 19.377 159.66 18.6934C159.66 17.472 160.157 16.5104 161.15 15.8086C162.144 15.0977 163.507 14.7422 165.238 14.7422C166.852 14.7422 168.428 15.0703 169.969 15.7266L169.162 17.5723C167.658 16.9525 166.296 16.6426 165.074 16.6426C163.999 16.6426 163.188 16.8112 162.641 17.1484C162.094 17.4857 161.82 17.9505 161.82 18.543C161.82 18.944 161.921 19.2858 162.121 19.5684C162.331 19.8509 162.663 20.1198 163.119 20.375C163.575 20.6302 164.45 20.9993 165.744 21.4824C167.521 22.1296 168.72 22.7812 169.34 23.4375C169.969 24.0938 170.283 24.9186 170.283 25.9121ZM176.258 30H173.988V15.0156H176.258V30ZM173.797 10.9551C173.797 10.4355 173.924 10.0573 174.18 9.82031C174.435 9.57422 174.754 9.45117 175.137 9.45117C175.501 9.45117 175.816 9.57422 176.08 9.82031C176.344 10.0664 176.477 10.4447 176.477 10.9551C176.477 11.4655 176.344 11.8483 176.08 12.1035C175.816 12.3496 175.501 12.4727 175.137 12.4727C174.754 12.4727 174.435 12.3496 174.18 12.1035C173.924 11.8483 173.797 11.4655 173.797 10.9551ZM194.004 22.4941C194.004 24.9368 193.389 26.8464 192.158 28.2227C190.928 29.5898 189.228 30.2734 187.059 30.2734C185.719 30.2734 184.529 29.959 183.49 29.3301C182.451 28.7012 181.649 27.7988 181.084 26.623C180.519 25.4473 180.236 24.071 180.236 22.4941C180.236 20.0514 180.847 18.151 182.068 16.793C183.29 15.4258 184.985 14.7422 187.154 14.7422C189.251 14.7422 190.914 15.4395 192.145 16.834C193.384 18.2285 194.004 20.1152 194.004 22.4941ZM182.588 22.4941C182.588 24.4082 182.971 25.8665 183.736 26.8691C184.502 27.8717 185.628 28.373 187.113 28.373C188.599 28.373 189.725 27.8763 190.49 26.8828C191.265 25.8802 191.652 24.4173 191.652 22.4941C191.652 20.5892 191.265 19.1445 190.49 18.1602C189.725 17.1667 188.59 16.6699 187.086 16.6699C185.6 16.6699 184.479 17.1576 183.723 18.1328C182.966 19.1081 182.588 20.5618 182.588 22.4941ZM208.25 30V20.3066C208.25 19.0853 207.972 18.1738 207.416 17.5723C206.86 16.9707 205.99 16.6699 204.805 16.6699C203.237 16.6699 202.089 17.0938 201.359 17.9414C200.63 18.7891 200.266 20.1882 200.266 22.1387V30H197.996V15.0156H199.842L200.211 17.0664H200.32C200.785 16.3281 201.437 15.7585 202.275 15.3574C203.114 14.9473 204.048 14.7422 205.078 14.7422C206.883 14.7422 208.241 15.1797 209.152 16.0547C210.064 16.9206 210.52 18.3105 210.52 20.2246V30H208.25ZM224.41 30L223.959 27.8672H223.85C223.102 28.806 222.355 29.444 221.607 29.7812C220.869 30.1094 219.944 30.2734 218.832 30.2734C217.346 30.2734 216.18 29.8906 215.332 29.125C214.493 28.3594 214.074 27.2702 214.074 25.8574C214.074 22.8314 216.494 21.2454 221.334 21.0996L223.877 21.0176V20.0879C223.877 18.9121 223.622 18.0462 223.111 17.4902C222.61 16.9251 221.803 16.6426 220.691 16.6426C219.443 16.6426 218.03 17.0254 216.453 17.791L215.756 16.0547C216.494 15.6536 217.301 15.3392 218.176 15.1113C219.06 14.8835 219.944 14.7695 220.828 14.7695C222.615 14.7695 223.936 15.166 224.793 15.959C225.659 16.752 226.092 18.0234 226.092 19.7734V30H224.41ZM219.283 28.4004C220.696 28.4004 221.803 28.013 222.605 27.2383C223.417 26.4635 223.822 25.3789 223.822 23.9844V22.6309L221.553 22.7266C219.748 22.7904 218.445 23.0729 217.643 23.5742C216.85 24.0664 216.453 24.8366 216.453 25.8848C216.453 26.7051 216.699 27.3294 217.191 27.7578C217.693 28.1862 218.39 28.4004 219.283 28.4004ZM233.051 30H230.781V8.72656H233.051V30Z" transform="translate(30 136)" fill="white"/>
<path d="M9.49994 0.0473362C13.4999 -0.352664 16.1666 1.88067 16.9999 3.04734C18.2 0.247314 21.8333 -0.11934 23.4999 0.0473362C27.0999 0.0473362 28.6666 3.04735 28.9999 4.54736C36.4999 1.54736 45.4999 9.04736 40.9999 16.5474C37.3999 22.5474 32.8332 22.3807 30.9999 21.5474C30.4999 22.5474 31.4999 23.0474 27.9999 24.5474C25.1999 25.7474 22.8332 25.0474 21.9999 24.5474C21.4999 25.5474 20.4999 29.5474 15.4999 29.5474C11.4999 29.5474 9.16658 26.214 8.49991 24.5474C3.49991 24.0474 -0.00012207 21.5474 0 17.5474C0.000100663 14.2489 1.99996 11.8807 3.49994 11.0474C2.99994 5.54736 4.49994 0.547336 9.49994 0.0473362Z" transform="translate(280.5 61.9526)" fill="#00A1E1"/>
</svg>
