<svg width="355" height="203" viewBox="0 0 355 203" fill="none" xmlns="http://www.w3.org/2000/svg">
<rect width="355" height="90" transform="translate(0 113)" fill="#00A1E1"/>
<rect width="355" height="113" fill="#013C4E"/>
<path d="M21.4717 36.6738C21.4717 39.3809 20.4941 41.5137 18.5391 43.0723C16.5977 44.6309 13.8906 45.4102 10.418 45.4102C7.21875 45.4102 4.38867 44.8086 1.92773 43.6055V37.6992C3.95117 38.6016 5.66016 39.2373 7.05469 39.6064C8.46289 39.9756 9.74805 40.1602 10.9102 40.1602C12.3047 40.1602 13.3711 39.8936 14.1094 39.3604C14.8613 38.8271 15.2373 38.0342 15.2373 36.9814C15.2373 36.3936 15.0732 35.874 14.7451 35.4229C14.417 34.958 13.9316 34.5137 13.2891 34.0898C12.6602 33.666 11.3682 32.9893 9.41309 32.0596C7.58105 31.1982 6.20703 30.3711 5.29102 29.5781C4.375 28.7852 3.64355 27.8623 3.09668 26.8096C2.5498 25.7568 2.27637 24.5264 2.27637 23.1182C2.27637 20.4658 3.17188 18.3809 4.96289 16.8633C6.76758 15.3457 9.25586 14.5869 12.4277 14.5869C13.9863 14.5869 15.4697 14.7715 16.8779 15.1406C18.2998 15.5098 19.7832 16.0293 21.3281 16.6992L19.2773 21.6416C17.6777 20.9854 16.3516 20.5273 15.2988 20.2676C14.2598 20.0078 13.2344 19.8779 12.2227 19.8779C11.0195 19.8779 10.0967 20.1582 9.4541 20.7188C8.81152 21.2793 8.49023 22.0107 8.49023 22.9131C8.49023 23.4736 8.62012 23.9658 8.87988 24.3896C9.13965 24.7998 9.5498 25.2031 10.1104 25.5996C10.6846 25.9824 12.0312 26.6797 14.1504 27.6914C16.9531 29.0312 18.874 30.3779 19.9131 31.7314C20.9521 33.0713 21.4717 34.7188 21.4717 36.6738ZM49.0407 45L46.8669 37.8633H35.9363L33.7624 45H26.9128L37.4948 14.8945H45.2673L55.8904 45H49.0407ZM45.3493 32.5312C43.3396 26.0645 42.2048 22.4072 41.945 21.5596C41.6989 20.7119 41.5212 20.042 41.4118 19.5498C40.9607 21.2998 39.6687 25.627 37.5359 32.5312H45.3493ZM63.4643 45V15.0176H69.8217V39.75H81.9828V45H63.4643ZM108.26 45H90.9923V15.0176H108.26V20.2266H97.3498V26.8096H107.501V32.0186H97.3498V39.75H108.26V45ZM136.014 36.6738C136.014 39.3809 135.036 41.5137 133.081 43.0723C131.14 44.6309 128.433 45.4102 124.96 45.4102C121.761 45.4102 118.931 44.8086 116.47 43.6055V37.6992C118.493 38.6016 120.202 39.2373 121.597 39.6064C123.005 39.9756 124.29 40.1602 125.452 40.1602C126.847 40.1602 127.913 39.8936 128.651 39.3604C129.403 38.8271 129.779 38.0342 129.779 36.9814C129.779 36.3936 129.615 35.874 129.287 35.4229C128.959 34.958 128.474 34.5137 127.831 34.0898C127.202 33.666 125.91 32.9893 123.955 32.0596C122.123 31.1982 120.749 30.3711 119.833 29.5781C118.917 28.7852 118.185 27.8623 117.639 26.8096C117.092 25.7568 116.818 24.5264 116.818 23.1182C116.818 20.4658 117.714 18.3809 119.505 16.8633C121.309 15.3457 123.798 14.5869 126.97 14.5869C128.528 14.5869 130.012 14.7715 131.42 15.1406C132.842 15.5098 134.325 16.0293 135.87 16.6992L133.819 21.6416C132.22 20.9854 130.893 20.5273 129.841 20.2676C128.802 20.0078 127.776 19.8779 126.765 19.8779C125.561 19.8779 124.639 20.1582 123.996 20.7188C123.353 21.2793 123.032 22.0107 123.032 22.9131C123.032 23.4736 123.162 23.9658 123.422 24.3896C123.682 24.7998 124.092 25.2031 124.652 25.5996C125.226 25.9824 126.573 26.6797 128.692 27.6914C131.495 29.0312 133.416 30.3779 134.455 31.7314C135.494 33.0713 136.014 34.7188 136.014 36.6738ZM151.483 45H145.228V15.0176H162.414V20.2266H151.483V27.958H161.655V33.1465H151.483V45ZM199.273 29.9678C199.273 34.9307 198.042 38.7451 195.581 41.4111C193.12 44.0771 189.593 45.4102 184.999 45.4102C180.406 45.4102 176.878 44.0771 174.417 41.4111C171.956 38.7451 170.726 34.917 170.726 29.9268C170.726 24.9365 171.956 21.1289 174.417 18.5039C176.892 15.8652 180.433 14.5459 185.04 14.5459C189.648 14.5459 193.168 15.8721 195.602 18.5244C198.049 21.1768 199.273 24.9912 199.273 29.9678ZM177.391 29.9678C177.391 33.3174 178.027 35.8398 179.298 37.5352C180.57 39.2305 182.47 40.0781 184.999 40.0781C190.072 40.0781 192.608 36.708 192.608 29.9678C192.608 23.2139 190.085 19.8369 185.04 19.8369C182.511 19.8369 180.604 20.6914 179.319 22.4004C178.034 24.0957 177.391 26.6182 177.391 29.9678ZM215.624 28.3271H217.675C219.685 28.3271 221.168 27.9922 222.125 27.3223C223.082 26.6523 223.561 25.5996 223.561 24.1641C223.561 22.7422 223.068 21.7305 222.084 21.1289C221.113 20.5273 219.603 20.2266 217.552 20.2266H215.624V28.3271ZM215.624 33.4951V45H209.267V15.0176H218.003C222.077 15.0176 225.092 15.7627 227.047 17.2529C229.002 18.7295 229.98 20.9785 229.98 24C229.98 25.7637 229.494 27.3359 228.523 28.7168C227.553 30.084 226.179 31.1572 224.401 31.9365C228.913 38.6768 231.853 43.0312 233.22 45H226.165L219.008 33.4951H215.624ZM253.509 19.8779C251.116 19.8779 249.263 20.7803 247.951 22.585C246.638 24.376 245.982 26.8779 245.982 30.0908C245.982 36.7764 248.491 40.1191 253.509 40.1191C255.614 40.1191 258.164 39.5928 261.158 38.54V43.8721C258.697 44.8975 255.949 45.4102 252.914 45.4102C248.553 45.4102 245.217 44.0908 242.906 41.4521C240.595 38.7998 239.44 34.999 239.44 30.0498C239.44 26.9326 240.008 24.2051 241.142 21.8672C242.277 19.5156 243.904 17.7178 246.023 16.4736C248.156 15.2158 250.651 14.5869 253.509 14.5869C256.421 14.5869 259.346 15.291 262.286 16.6992L260.235 21.8672C259.114 21.334 257.986 20.8691 256.851 20.4727C255.717 20.0762 254.602 19.8779 253.509 19.8779ZM288.604 45H271.336V15.0176H288.604V20.2266H277.694V26.8096H287.845V32.0186H277.694V39.75H288.604V45ZM16.96 58.7041C13.665 58.7041 11.0605 59.8047 9.14648 62.0059C7.24609 64.1934 6.2959 67.1943 6.2959 71.0088C6.2959 74.9326 7.21191 77.9678 9.04395 80.1143C10.8896 82.2471 13.5146 83.3135 16.9189 83.3135C19.0107 83.3135 21.3965 82.9375 24.0762 82.1855V85.2412C21.998 86.0205 19.4346 86.4102 16.3857 86.4102C11.9697 86.4102 8.55859 85.0703 6.15234 82.3906C3.75977 79.7109 2.56348 75.9033 2.56348 70.9678C2.56348 67.8779 3.1377 65.1709 4.28613 62.8467C5.44824 60.5225 7.11621 58.7314 9.29004 57.4736C11.4775 56.2158 14.0479 55.5869 17.001 55.5869C20.1455 55.5869 22.8936 56.1611 25.2451 57.3096L23.7686 60.3037C21.499 59.2373 19.2295 58.7041 16.96 58.7041ZM52.372 86H35.6582V56.0176H52.372V59.1143H39.1445V68.7734H51.5722V71.8496H39.1445V82.8828H52.372V86ZM67.5634 73.5312V86H64.0771V56.0176H72.3007C75.9784 56.0176 78.6923 56.7217 80.4423 58.1299C82.206 59.5381 83.0878 61.6572 83.0878 64.4873C83.0878 68.4521 81.078 71.1318 77.0585 72.5264L85.2001 86H81.078L73.8183 73.5312H67.5634ZM67.5634 70.5371H72.3417C74.8027 70.5371 76.6073 70.0518 77.7558 69.0811C78.9042 68.0967 79.4784 66.627 79.4784 64.6719C79.4784 62.6895 78.8905 61.2607 77.7148 60.3857C76.5527 59.5107 74.6796 59.0732 72.0956 59.0732H67.5634V70.5371ZM104.308 86H100.822V59.1143H91.327V56.0176H113.804V59.1143H104.308V86ZM123.376 86V56.0176H126.862V86H123.376ZM143.633 86H140.146V56.0176H156.86V59.1143H143.633V70.0859H156.06V73.1826H143.633V86ZM166.884 86V56.0176H170.37V86H166.884ZM200.368 86H183.654V56.0176H200.368V59.1143H187.14V68.7734H199.568V71.8496H187.14V82.8828H200.368V86ZM236.006 70.7217C236.006 75.6709 234.659 79.458 231.966 82.083C229.286 84.6943 225.424 86 220.379 86H212.073V56.0176H221.26C225.923 56.0176 229.546 57.3096 232.13 59.8936C234.714 62.4775 236.006 66.0869 236.006 70.7217ZM232.314 70.8447C232.314 66.9346 231.33 63.9883 229.361 62.0059C227.406 60.0234 224.494 59.0322 220.625 59.0322H215.559V82.9854H219.804C223.961 82.9854 227.085 81.9668 229.176 79.9297C231.268 77.8789 232.314 74.8506 232.314 70.8447Z" transform="translate(30 6)" fill="white"/>
<path d="M15.3125 30L12.8242 23.6426H4.8125L2.35156 30H0L7.90234 9.92969H9.85742L17.7188 30H15.3125ZM12.0996 21.5508L9.77539 15.3574C9.47461 14.5736 9.16471 13.612 8.8457 12.4727C8.64518 13.3477 8.35807 14.3092 7.98438 15.3574L5.63281 21.5508H12.0996ZM30.3242 27.9902H30.2012C29.153 29.5124 27.5853 30.2734 25.498 30.2734C23.5384 30.2734 22.0117 29.6035 20.918 28.2637C19.8333 26.9238 19.291 25.0189 19.291 22.5488C19.291 20.0788 19.8379 18.1602 20.9316 16.793C22.0254 15.4258 23.5475 14.7422 25.498 14.7422C27.5306 14.7422 29.0892 15.4805 30.1738 16.957H30.3516L30.2559 15.877L30.2012 14.8242V8.72656H32.4707V30H30.625L30.3242 27.9902ZM25.7852 28.373C27.3346 28.373 28.4557 27.9538 29.1484 27.1152C29.8503 26.2676 30.2012 24.9049 30.2012 23.0273V22.5488C30.2012 20.4251 29.8457 18.9121 29.1348 18.0098C28.4329 17.0983 27.3073 16.6426 25.7578 16.6426C24.4271 16.6426 23.4062 17.1621 22.6953 18.2012C21.9935 19.2311 21.6426 20.6895 21.6426 22.5762C21.6426 24.4902 21.9935 25.9349 22.6953 26.9102C23.3971 27.8854 24.4271 28.373 25.7852 28.373ZM56.3965 30V20.252C56.3965 19.0579 56.1413 18.1647 55.6309 17.5723C55.1204 16.9707 54.3275 16.6699 53.252 16.6699C51.8392 16.6699 50.7956 17.0755 50.1211 17.8867C49.4466 18.6979 49.1094 19.9466 49.1094 21.6328V30H46.8398V20.252C46.8398 19.0579 46.5846 18.1647 46.0742 17.5723C45.5638 16.9707 44.7663 16.6699 43.6816 16.6699C42.2598 16.6699 41.2161 17.0983 40.5508 17.9551C39.8945 18.8027 39.5664 20.1973 39.5664 22.1387V30H37.2969V15.0156H39.1426L39.5117 17.0664H39.6211C40.0495 16.3372 40.651 15.7676 41.4258 15.3574C42.2096 14.9473 43.0846 14.7422 44.0508 14.7422C46.3932 14.7422 47.9245 15.5898 48.6445 17.2852H48.7539C49.2005 16.5013 49.8477 15.8815 50.6953 15.4258C51.543 14.9701 52.5091 14.7422 53.5938 14.7422C55.2891 14.7422 56.556 15.1797 57.3945 16.0547C58.2422 16.9206 58.666 18.3105 58.666 20.2246V30H56.3965ZM65.625 30H63.3555V15.0156H65.625V30ZM63.1641 10.9551C63.1641 10.4355 63.2917 10.0573 63.5469 9.82031C63.8021 9.57422 64.1211 9.45117 64.5039 9.45117C64.8685 9.45117 65.1829 9.57422 65.4473 9.82031C65.7116 10.0664 65.8438 10.4447 65.8438 10.9551C65.8438 11.4655 65.7116 11.8483 65.4473 12.1035C65.1829 12.3496 64.8685 12.4727 64.5039 12.4727C64.1211 12.4727 63.8021 12.3496 63.5469 12.1035C63.2917 11.8483 63.1641 11.4655 63.1641 10.9551ZM80.6914 30V20.3066C80.6914 19.0853 80.4134 18.1738 79.8574 17.5723C79.3014 16.9707 78.431 16.6699 77.2461 16.6699C75.6784 16.6699 74.5299 17.0938 73.8008 17.9414C73.0716 18.7891 72.707 20.1882 72.707 22.1387V30H70.4375V15.0156H72.2832L72.6523 17.0664H72.7617C73.2266 16.3281 73.8783 15.7585 74.7168 15.3574C75.5553 14.9473 76.4896 14.7422 77.5195 14.7422C79.3242 14.7422 80.6823 15.1797 81.5938 16.0547C82.5052 16.9206 82.9609 18.3105 82.9609 20.2246V30H80.6914ZM89.9062 30H87.6367V15.0156H89.9062V30ZM87.4453 10.9551C87.4453 10.4355 87.5729 10.0573 87.8281 9.82031C88.0833 9.57422 88.4023 9.45117 88.7852 9.45117C89.1497 9.45117 89.4642 9.57422 89.7285 9.82031C89.9928 10.0664 90.125 10.4447 90.125 10.9551C90.125 11.4655 89.9928 11.8483 89.7285 12.1035C89.4642 12.3496 89.1497 12.4727 88.7852 12.4727C88.4023 12.4727 88.0833 12.3496 87.8281 12.1035C87.5729 11.8483 87.4453 11.4655 87.4453 10.9551ZM104.385 25.9121C104.385 27.3066 103.865 28.3822 102.826 29.1387C101.787 29.8952 100.329 30.2734 98.4512 30.2734C96.4642 30.2734 94.9147 29.959 93.8027 29.3301V27.2246C94.5228 27.5892 95.293 27.8763 96.1133 28.0859C96.9427 28.2956 97.7402 28.4004 98.5059 28.4004C99.6908 28.4004 100.602 28.2135 101.24 27.8398C101.878 27.457 102.197 26.8783 102.197 26.1035C102.197 25.5202 101.942 25.0234 101.432 24.6133C100.93 24.194 99.946 23.7018 98.4785 23.1367C97.084 22.6172 96.0905 22.166 95.498 21.7832C94.9147 21.3913 94.4772 20.9492 94.1855 20.457C93.903 19.9648 93.7617 19.377 93.7617 18.6934C93.7617 17.472 94.2585 16.5104 95.252 15.8086C96.2454 15.0977 97.6081 14.7422 99.3398 14.7422C100.953 14.7422 102.53 15.0703 104.07 15.7266L103.264 17.5723C101.76 16.9525 100.397 16.6426 99.1758 16.6426C98.1003 16.6426 97.2891 16.8112 96.7422 17.1484C96.1953 17.4857 95.9219 17.9505 95.9219 18.543C95.9219 18.944 96.0221 19.2858 96.2227 19.5684C96.4323 19.8509 96.765 20.1198 97.2207 20.375C97.6764 20.6302 98.5514 20.9993 99.8457 21.4824C101.623 22.1296 102.822 22.7812 103.441 23.4375C104.07 24.0938 104.385 24.9186 104.385 25.9121ZM112.93 28.4004C113.331 28.4004 113.718 28.373 114.092 28.3184C114.465 28.2546 114.762 28.1908 114.98 28.127V29.8633C114.734 29.9818 114.37 30.0775 113.887 30.1504C113.413 30.2324 112.984 30.2734 112.602 30.2734C109.703 30.2734 108.254 28.7467 108.254 25.6934V16.7793H106.107V15.6855L108.254 14.7422L109.211 11.543H110.523V15.0156H114.871V16.7793H110.523V25.5977C110.523 26.5 110.738 27.1927 111.166 27.6758C111.594 28.1589 112.182 28.4004 112.93 28.4004ZM124.824 14.7422C125.49 14.7422 126.087 14.7969 126.615 14.9062L126.301 17.0117C125.681 16.875 125.134 16.8066 124.66 16.8066C123.448 16.8066 122.409 17.2988 121.543 18.2832C120.686 19.2676 120.258 20.4935 120.258 21.9609V30H117.988V15.0156H119.861L120.121 17.791H120.23C120.786 16.8158 121.456 16.0638 122.24 15.5352C123.024 15.0065 123.885 14.7422 124.824 14.7422ZM138.633 30L138.182 27.8672H138.072C137.325 28.806 136.577 29.444 135.83 29.7812C135.092 30.1094 134.167 30.2734 133.055 30.2734C131.569 30.2734 130.402 29.8906 129.555 29.125C128.716 28.3594 128.297 27.2702 128.297 25.8574C128.297 22.8314 130.717 21.2454 135.557 21.0996L138.1 21.0176V20.0879C138.1 18.9121 137.844 18.0462 137.334 17.4902C136.833 16.9251 136.026 16.6426 134.914 16.6426C133.665 16.6426 132.253 17.0254 130.676 17.791L129.979 16.0547C130.717 15.6536 131.523 15.3392 132.398 15.1113C133.283 14.8835 134.167 14.7695 135.051 14.7695C136.837 14.7695 138.159 15.166 139.016 15.959C139.882 16.752 140.314 18.0234 140.314 19.7734V30H138.633ZM133.506 28.4004C134.919 28.4004 136.026 28.013 136.828 27.2383C137.639 26.4635 138.045 25.3789 138.045 23.9844V22.6309L135.775 22.7266C133.971 22.7904 132.667 23.0729 131.865 23.5742C131.072 24.0664 130.676 24.8366 130.676 25.8848C130.676 26.7051 130.922 27.3294 131.414 27.7578C131.915 28.1862 132.613 28.4004 133.506 28.4004ZM149.844 28.4004C150.245 28.4004 150.632 28.373 151.006 28.3184C151.38 28.2546 151.676 28.1908 151.895 28.127V29.8633C151.648 29.9818 151.284 30.0775 150.801 30.1504C150.327 30.2324 149.898 30.2734 149.516 30.2734C146.617 30.2734 145.168 28.7467 145.168 25.6934V16.7793H143.021V15.6855L145.168 14.7422L146.125 11.543H147.438V15.0156H151.785V16.7793H147.438V25.5977C147.438 26.5 147.652 27.1927 148.08 27.6758C148.508 28.1589 149.096 28.4004 149.844 28.4004ZM167.836 22.4941C167.836 24.9368 167.221 26.8464 165.99 28.2227C164.76 29.5898 163.06 30.2734 160.891 30.2734C159.551 30.2734 158.361 29.959 157.322 29.3301C156.283 28.7012 155.481 27.7988 154.916 26.623C154.351 25.4473 154.068 24.071 154.068 22.4941C154.068 20.0514 154.679 18.151 155.9 16.793C157.122 15.4258 158.817 14.7422 160.986 14.7422C163.083 14.7422 164.746 15.4395 165.977 16.834C167.216 18.2285 167.836 20.1152 167.836 22.4941ZM156.42 22.4941C156.42 24.4082 156.803 25.8665 157.568 26.8691C158.334 27.8717 159.46 28.373 160.945 28.373C162.431 28.373 163.557 27.8763 164.322 26.8828C165.097 25.8802 165.484 24.4173 165.484 22.4941C165.484 20.5892 165.097 19.1445 164.322 18.1602C163.557 17.1667 162.422 16.6699 160.918 16.6699C159.432 16.6699 158.311 17.1576 157.555 18.1328C156.798 19.1081 156.42 20.5618 156.42 22.4941ZM178.664 14.7422C179.329 14.7422 179.926 14.7969 180.455 14.9062L180.141 17.0117C179.521 16.875 178.974 16.8066 178.5 16.8066C177.288 16.8066 176.249 17.2988 175.383 18.2832C174.526 19.2676 174.098 20.4935 174.098 21.9609V30H171.828V15.0156H173.701L173.961 17.791H174.07C174.626 16.8158 175.296 16.0638 176.08 15.5352C176.864 15.0065 177.725 14.7422 178.664 14.7422Z" transform="translate(30 136)" fill="white"/>
<path d="M9.49994 0.0473362C13.4999 -0.352664 16.1666 1.88067 16.9999 3.04734C18.2 0.247314 21.8333 -0.11934 23.4999 0.0473362C27.0999 0.0473362 28.6666 3.04735 28.9999 4.54736C36.4999 1.54736 45.4999 9.04736 40.9999 16.5474C37.3999 22.5474 32.8332 22.3807 30.9999 21.5474C30.4999 22.5474 31.4999 23.0474 27.9999 24.5474C25.1999 25.7474 22.8332 25.0474 21.9999 24.5474C21.4999 25.5474 20.4999 29.5474 15.4999 29.5474C11.4999 29.5474 9.16658 26.214 8.49991 24.5474C3.49991 24.0474 -0.00012207 21.5474 0 17.5474C0.000100663 14.2489 1.99996 11.8807 3.49994 11.0474C2.99994 5.54736 4.49994 0.547336 9.49994 0.0473362Z" transform="translate(280.5 61.9526)" fill="#00A1E1"/>
</svg>
