<svg width="355" height="203" viewBox="0 0 355 203" fill="none" xmlns="http://www.w3.org/2000/svg">
<rect width="355" height="90" transform="translate(0 113)" fill="#00A1E1"/>
<rect width="355" height="113" fill="#013C4E"/>
<path d="M21.4717 36.6738C21.4717 39.3809 20.4941 41.5137 18.5391 43.0723C16.5977 44.6309 13.8906 45.4102 10.418 45.4102C7.21875 45.4102 4.38867 44.8086 1.92773 43.6055V37.6992C3.95117 38.6016 5.66016 39.2373 7.05469 39.6064C8.46289 39.9756 9.74805 40.1602 10.9102 40.1602C12.3047 40.1602 13.3711 39.8936 14.1094 39.3604C14.8613 38.8271 15.2373 38.0342 15.2373 36.9814C15.2373 36.3936 15.0732 35.874 14.7451 35.4229C14.417 34.958 13.9316 34.5137 13.2891 34.0898C12.6602 33.666 11.3682 32.9893 9.41309 32.0596C7.58105 31.1982 6.20703 30.3711 5.29102 29.5781C4.375 28.7852 3.64355 27.8623 3.09668 26.8096C2.5498 25.7568 2.27637 24.5264 2.27637 23.1182C2.27637 20.4658 3.17188 18.3809 4.96289 16.8633C6.76758 15.3457 9.25586 14.5869 12.4277 14.5869C13.9863 14.5869 15.4697 14.7715 16.8779 15.1406C18.2998 15.5098 19.7832 16.0293 21.3281 16.6992L19.2773 21.6416C17.6777 20.9854 16.3516 20.5273 15.2988 20.2676C14.2598 20.0078 13.2344 19.8779 12.2227 19.8779C11.0195 19.8779 10.0967 20.1582 9.4541 20.7188C8.81152 21.2793 8.49023 22.0107 8.49023 22.9131C8.49023 23.4736 8.62012 23.9658 8.87988 24.3896C9.13965 24.7998 9.5498 25.2031 10.1104 25.5996C10.6846 25.9824 12.0312 26.6797 14.1504 27.6914C16.9531 29.0312 18.874 30.3779 19.9131 31.7314C20.9521 33.0713 21.4717 34.7188 21.4717 36.6738ZM49.0407 45L46.8669 37.8633H35.9363L33.7624 45H26.9128L37.4948 14.8945H45.2673L55.8904 45H49.0407ZM45.3493 32.5312C43.3396 26.0645 42.2048 22.4072 41.945 21.5596C41.6989 20.7119 41.5212 20.042 41.4118 19.5498C40.9607 21.2998 39.6687 25.627 37.5359 32.5312H45.3493ZM63.4643 45V15.0176H69.8217V39.75H81.9828V45H63.4643ZM108.26 45H90.9923V15.0176H108.26V20.2266H97.3498V26.8096H107.501V32.0186H97.3498V39.75H108.26V45ZM136.014 36.6738C136.014 39.3809 135.036 41.5137 133.081 43.0723C131.14 44.6309 128.433 45.4102 124.96 45.4102C121.761 45.4102 118.931 44.8086 116.47 43.6055V37.6992C118.493 38.6016 120.202 39.2373 121.597 39.6064C123.005 39.9756 124.29 40.1602 125.452 40.1602C126.847 40.1602 127.913 39.8936 128.651 39.3604C129.403 38.8271 129.779 38.0342 129.779 36.9814C129.779 36.3936 129.615 35.874 129.287 35.4229C128.959 34.958 128.474 34.5137 127.831 34.0898C127.202 33.666 125.91 32.9893 123.955 32.0596C122.123 31.1982 120.749 30.3711 119.833 29.5781C118.917 28.7852 118.185 27.8623 117.639 26.8096C117.092 25.7568 116.818 24.5264 116.818 23.1182C116.818 20.4658 117.714 18.3809 119.505 16.8633C121.309 15.3457 123.798 14.5869 126.97 14.5869C128.528 14.5869 130.012 14.7715 131.42 15.1406C132.842 15.5098 134.325 16.0293 135.87 16.6992L133.819 21.6416C132.22 20.9854 130.893 20.5273 129.841 20.2676C128.802 20.0078 127.776 19.8779 126.765 19.8779C125.561 19.8779 124.639 20.1582 123.996 20.7188C123.353 21.2793 123.032 22.0107 123.032 22.9131C123.032 23.4736 123.162 23.9658 123.422 24.3896C123.682 24.7998 124.092 25.2031 124.652 25.5996C125.226 25.9824 126.573 26.6797 128.692 27.6914C131.495 29.0312 133.416 30.3779 134.455 31.7314C135.494 33.0713 136.014 34.7188 136.014 36.6738ZM151.483 45H145.228V15.0176H162.414V20.2266H151.483V27.958H161.655V33.1465H151.483V45ZM199.273 29.9678C199.273 34.9307 198.042 38.7451 195.581 41.4111C193.12 44.0771 189.593 45.4102 184.999 45.4102C180.406 45.4102 176.878 44.0771 174.417 41.4111C171.956 38.7451 170.726 34.917 170.726 29.9268C170.726 24.9365 171.956 21.1289 174.417 18.5039C176.892 15.8652 180.433 14.5459 185.04 14.5459C189.648 14.5459 193.168 15.8721 195.602 18.5244C198.049 21.1768 199.273 24.9912 199.273 29.9678ZM177.391 29.9678C177.391 33.3174 178.027 35.8398 179.298 37.5352C180.57 39.2305 182.47 40.0781 184.999 40.0781C190.072 40.0781 192.608 36.708 192.608 29.9678C192.608 23.2139 190.085 19.8369 185.04 19.8369C182.511 19.8369 180.604 20.6914 179.319 22.4004C178.034 24.0957 177.391 26.6182 177.391 29.9678ZM215.624 28.3271H217.675C219.685 28.3271 221.168 27.9922 222.125 27.3223C223.082 26.6523 223.561 25.5996 223.561 24.1641C223.561 22.7422 223.068 21.7305 222.084 21.1289C221.113 20.5273 219.603 20.2266 217.552 20.2266H215.624V28.3271ZM215.624 33.4951V45H209.267V15.0176H218.003C222.077 15.0176 225.092 15.7627 227.047 17.2529C229.002 18.7295 229.98 20.9785 229.98 24C229.98 25.7637 229.494 27.3359 228.523 28.7168C227.553 30.084 226.179 31.1572 224.401 31.9365C228.913 38.6768 231.853 43.0312 233.22 45H226.165L219.008 33.4951H215.624ZM253.509 19.8779C251.116 19.8779 249.263 20.7803 247.951 22.585C246.638 24.376 245.982 26.8779 245.982 30.0908C245.982 36.7764 248.491 40.1191 253.509 40.1191C255.614 40.1191 258.164 39.5928 261.158 38.54V43.8721C258.697 44.8975 255.949 45.4102 252.914 45.4102C248.553 45.4102 245.217 44.0908 242.906 41.4521C240.595 38.7998 239.44 34.999 239.44 30.0498C239.44 26.9326 240.008 24.2051 241.142 21.8672C242.277 19.5156 243.904 17.7178 246.023 16.4736C248.156 15.2158 250.651 14.5869 253.509 14.5869C256.421 14.5869 259.346 15.291 262.286 16.6992L260.235 21.8672C259.114 21.334 257.986 20.8691 256.851 20.4727C255.717 20.0762 254.602 19.8779 253.509 19.8779ZM288.604 45H271.336V15.0176H288.604V20.2266H277.694V26.8096H287.845V32.0186H277.694V39.75H288.604V45ZM16.96 58.7041C13.665 58.7041 11.0605 59.8047 9.14648 62.0059C7.24609 64.1934 6.2959 67.1943 6.2959 71.0088C6.2959 74.9326 7.21191 77.9678 9.04395 80.1143C10.8896 82.2471 13.5146 83.3135 16.9189 83.3135C19.0107 83.3135 21.3965 82.9375 24.0762 82.1855V85.2412C21.998 86.0205 19.4346 86.4102 16.3857 86.4102C11.9697 86.4102 8.55859 85.0703 6.15234 82.3906C3.75977 79.7109 2.56348 75.9033 2.56348 70.9678C2.56348 67.8779 3.1377 65.1709 4.28613 62.8467C5.44824 60.5225 7.11621 58.7314 9.29004 57.4736C11.4775 56.2158 14.0479 55.5869 17.001 55.5869C20.1455 55.5869 22.8936 56.1611 25.2451 57.3096L23.7686 60.3037C21.499 59.2373 19.2295 58.7041 16.96 58.7041ZM52.372 86H35.6582V56.0176H52.372V59.1143H39.1445V68.7734H51.5722V71.8496H39.1445V82.8828H52.372V86ZM67.5634 73.5312V86H64.0771V56.0176H72.3007C75.9784 56.0176 78.6923 56.7217 80.4423 58.1299C82.206 59.5381 83.0878 61.6572 83.0878 64.4873C83.0878 68.4521 81.078 71.1318 77.0585 72.5264L85.2001 86H81.078L73.8183 73.5312H67.5634ZM67.5634 70.5371H72.3417C74.8027 70.5371 76.6073 70.0518 77.7558 69.0811C78.9042 68.0967 79.4784 66.627 79.4784 64.6719C79.4784 62.6895 78.8905 61.2607 77.7148 60.3857C76.5527 59.5107 74.6796 59.0732 72.0956 59.0732H67.5634V70.5371ZM104.308 86H100.822V59.1143H91.327V56.0176H113.804V59.1143H104.308V86ZM123.376 86V56.0176H126.862V86H123.376ZM143.633 86H140.146V56.0176H156.86V59.1143H143.633V70.0859H156.06V73.1826H143.633V86ZM166.884 86V56.0176H170.37V86H166.884ZM200.368 86H183.654V56.0176H200.368V59.1143H187.14V68.7734H199.568V71.8496H187.14V82.8828H200.368V86ZM236.006 70.7217C236.006 75.6709 234.659 79.458 231.966 82.083C229.286 84.6943 225.424 86 220.379 86H212.073V56.0176H221.26C225.923 56.0176 229.546 57.3096 232.13 59.8936C234.714 62.4775 236.006 66.0869 236.006 70.7217ZM232.314 70.8447C232.314 66.9346 231.33 63.9883 229.361 62.0059C227.406 60.0234 224.494 59.0322 220.625 59.0322H215.559V82.9854H219.804C223.961 82.9854 227.085 81.9668 229.176 79.9297C231.268 77.8789 232.314 74.8506 232.314 70.8447Z" transform="translate(30 6)" fill="white"/>
<path d="M18.7031 19.8145C18.7031 23.1139 17.8053 25.6387 16.0098 27.3887C14.2233 29.1296 11.6484 30 8.28516 30H2.74805V10.0117H8.87305C11.9811 10.0117 14.3965 10.873 16.1191 12.5957C17.8418 14.3184 18.7031 16.7246 18.7031 19.8145ZM16.2422 19.8965C16.2422 17.2897 15.5859 15.3255 14.2734 14.0039C12.9701 12.6823 11.0286 12.0215 8.44922 12.0215H5.07227V27.9902H7.90234C10.6732 27.9902 12.7559 27.3112 14.1504 25.9531C15.5449 24.5859 16.2422 22.5671 16.2422 19.8965ZM32.0469 30L31.5957 27.8672H31.4863C30.7389 28.806 29.9915 29.444 29.2441 29.7812C28.5059 30.1094 27.5807 30.2734 26.4688 30.2734C24.9831 30.2734 23.8164 29.8906 22.9688 29.125C22.1302 28.3594 21.7109 27.2702 21.7109 25.8574C21.7109 22.8314 24.1309 21.2454 28.9707 21.0996L31.5137 21.0176V20.0879C31.5137 18.9121 31.2585 18.0462 30.748 17.4902C30.2467 16.9251 29.4401 16.6426 28.3281 16.6426C27.0794 16.6426 25.6667 17.0254 24.0898 17.791L23.3926 16.0547C24.1309 15.6536 24.9375 15.3392 25.8125 15.1113C26.6966 14.8835 27.5807 14.7695 28.4648 14.7695C30.2513 14.7695 31.5729 15.166 32.4297 15.959C33.2956 16.752 33.7285 18.0234 33.7285 19.7734V30H32.0469ZM26.9199 28.4004C28.3327 28.4004 29.4401 28.013 30.2422 27.2383C31.0534 26.4635 31.459 25.3789 31.459 23.9844V22.6309L29.1895 22.7266C27.3848 22.7904 26.0814 23.0729 25.2793 23.5742C24.4863 24.0664 24.0898 24.8366 24.0898 25.8848C24.0898 26.7051 24.3359 27.3294 24.8281 27.7578C25.3294 28.1862 26.0267 28.4004 26.9199 28.4004ZM43.2578 28.4004C43.6589 28.4004 44.0462 28.373 44.4199 28.3184C44.7936 28.2546 45.0898 28.1908 45.3086 28.127V29.8633C45.0625 29.9818 44.6979 30.0775 44.2148 30.1504C43.7409 30.2324 43.3125 30.2734 42.9297 30.2734C40.0312 30.2734 38.582 28.7467 38.582 25.6934V16.7793H36.4355V15.6855L38.582 14.7422L39.5391 11.543H40.8516V15.0156H45.1992V16.7793H40.8516V25.5977C40.8516 26.5 41.0658 27.1927 41.4941 27.6758C41.9225 28.1589 42.5104 28.4004 43.2578 28.4004ZM57.5312 30L57.0801 27.8672H56.9707C56.2233 28.806 55.4759 29.444 54.7285 29.7812C53.9902 30.1094 53.0651 30.2734 51.9531 30.2734C50.4674 30.2734 49.3008 29.8906 48.4531 29.125C47.6146 28.3594 47.1953 27.2702 47.1953 25.8574C47.1953 22.8314 49.6152 21.2454 54.4551 21.0996L56.998 21.0176V20.0879C56.998 18.9121 56.7428 18.0462 56.2324 17.4902C55.7311 16.9251 54.9245 16.6426 53.8125 16.6426C52.5638 16.6426 51.151 17.0254 49.5742 17.791L48.877 16.0547C49.6152 15.6536 50.4219 15.3392 51.2969 15.1113C52.181 14.8835 53.0651 14.7695 53.9492 14.7695C55.7357 14.7695 57.0573 15.166 57.9141 15.959C58.7799 16.752 59.2129 18.0234 59.2129 19.7734V30H57.5312ZM52.4043 28.4004C53.8171 28.4004 54.9245 28.013 55.7266 27.2383C56.5378 26.4635 56.9434 25.3789 56.9434 23.9844V22.6309L54.6738 22.7266C52.8691 22.7904 51.5658 23.0729 50.7637 23.5742C49.9707 24.0664 49.5742 24.8366 49.5742 25.8848C49.5742 26.7051 49.8203 27.3294 50.3125 27.7578C50.8138 28.1862 51.5111 28.4004 52.4043 28.4004ZM84.082 30L81.5938 23.6426H73.582L71.1211 30H68.7695L76.6719 9.92969H78.627L86.4883 30H84.082ZM80.8691 21.5508L78.5449 15.3574C78.2441 14.5736 77.9342 13.612 77.6152 12.4727C77.4147 13.3477 77.1276 14.3092 76.7539 15.3574L74.4023 21.5508H80.8691ZM95.7305 14.7422C96.3958 14.7422 96.9928 14.7969 97.5215 14.9062L97.207 17.0117C96.5872 16.875 96.0404 16.8066 95.5664 16.8066C94.3542 16.8066 93.3151 17.2988 92.4492 18.2832C91.5924 19.2676 91.1641 20.4935 91.1641 21.9609V30H88.8945V15.0156H90.7676L91.0273 17.791H91.1367C91.6927 16.8158 92.3626 16.0638 93.1465 15.5352C93.9303 15.0065 94.7917 14.7422 95.7305 14.7422ZM106.312 30.2734C104.143 30.2734 102.462 29.6081 101.268 28.2773C100.083 26.9375 99.4902 25.0462 99.4902 22.6035C99.4902 20.097 100.092 18.1602 101.295 16.793C102.507 15.4258 104.23 14.7422 106.463 14.7422C107.183 14.7422 107.903 14.8197 108.623 14.9746C109.343 15.1296 109.908 15.3118 110.318 15.5215L109.621 17.4492C109.12 17.2487 108.573 17.0846 107.98 16.957C107.388 16.8203 106.864 16.752 106.408 16.752C103.364 16.752 101.842 18.6934 101.842 22.5762C101.842 24.4173 102.211 25.8301 102.949 26.8145C103.697 27.7988 104.799 28.291 106.258 28.291C107.507 28.291 108.787 28.0221 110.1 27.4844V29.4941C109.097 30.0137 107.835 30.2734 106.312 30.2734ZM123.922 30V20.3066C123.922 19.0853 123.644 18.1738 123.088 17.5723C122.532 16.9707 121.661 16.6699 120.477 16.6699C118.9 16.6699 117.747 17.0983 117.018 17.9551C116.298 18.8118 115.938 20.2155 115.938 22.166V30H113.668V8.72656H115.938V15.166C115.938 15.9408 115.901 16.5833 115.828 17.0938H115.965C116.411 16.3737 117.045 15.8086 117.865 15.3984C118.695 14.9792 119.638 14.7695 120.695 14.7695C122.527 14.7695 123.899 15.207 124.811 16.082C125.731 16.9479 126.191 18.3288 126.191 20.2246V30H123.922ZM133.137 30H130.867V15.0156H133.137V30ZM130.676 10.9551C130.676 10.4355 130.803 10.0573 131.059 9.82031C131.314 9.57422 131.633 9.45117 132.016 9.45117C132.38 9.45117 132.695 9.57422 132.959 9.82031C133.223 10.0664 133.355 10.4447 133.355 10.9551C133.355 11.4655 133.223 11.8483 132.959 12.1035C132.695 12.3496 132.38 12.4727 132.016 12.4727C131.633 12.4727 131.314 12.3496 131.059 12.1035C130.803 11.8483 130.676 11.4655 130.676 10.9551ZM142.789 28.4004C143.19 28.4004 143.577 28.373 143.951 28.3184C144.325 28.2546 144.621 28.1908 144.84 28.127V29.8633C144.594 29.9818 144.229 30.0775 143.746 30.1504C143.272 30.2324 142.844 30.2734 142.461 30.2734C139.562 30.2734 138.113 28.7467 138.113 25.6934V16.7793H135.967V15.6855L138.113 14.7422L139.07 11.543H140.383V15.0156H144.73V16.7793H140.383V25.5977C140.383 26.5 140.597 27.1927 141.025 27.6758C141.454 28.1589 142.042 28.4004 142.789 28.4004ZM154.178 30.2734C151.963 30.2734 150.213 29.599 148.928 28.25C147.652 26.901 147.014 25.028 147.014 22.6309C147.014 20.2155 147.606 18.2969 148.791 16.875C149.985 15.4531 151.585 14.7422 153.59 14.7422C155.467 14.7422 156.953 15.362 158.047 16.6016C159.141 17.832 159.688 19.459 159.688 21.4824V22.918H149.365C149.411 24.6771 149.853 26.0124 150.691 26.9238C151.539 27.8353 152.729 28.291 154.26 28.291C155.873 28.291 157.468 27.9538 159.045 27.2793V29.3027C158.243 29.6491 157.482 29.8952 156.762 30.041C156.051 30.196 155.189 30.2734 154.178 30.2734ZM153.562 16.6426C152.359 16.6426 151.398 17.0345 150.678 17.8184C149.967 18.6022 149.548 19.6868 149.42 21.0723H157.254C157.254 19.6413 156.935 18.5475 156.297 17.791C155.659 17.0254 154.747 16.6426 153.562 16.6426ZM169.559 30.2734C167.389 30.2734 165.708 29.6081 164.514 28.2773C163.329 26.9375 162.736 25.0462 162.736 22.6035C162.736 20.097 163.338 18.1602 164.541 16.793C165.753 15.4258 167.476 14.7422 169.709 14.7422C170.429 14.7422 171.149 14.8197 171.869 14.9746C172.589 15.1296 173.154 15.3118 173.564 15.5215L172.867 17.4492C172.366 17.2487 171.819 17.0846 171.227 16.957C170.634 16.8203 170.11 16.752 169.654 16.752C166.61 16.752 165.088 18.6934 165.088 22.5762C165.088 24.4173 165.457 25.8301 166.195 26.8145C166.943 27.7988 168.046 28.291 169.504 28.291C170.753 28.291 172.033 28.0221 173.346 27.4844V29.4941C172.343 30.0137 171.081 30.2734 169.559 30.2734ZM181.754 28.4004C182.155 28.4004 182.542 28.373 182.916 28.3184C183.29 28.2546 183.586 28.1908 183.805 28.127V29.8633C183.559 29.9818 183.194 30.0775 182.711 30.1504C182.237 30.2324 181.809 30.2734 181.426 30.2734C178.527 30.2734 177.078 28.7467 177.078 25.6934V16.7793H174.932V15.6855L177.078 14.7422L178.035 11.543H179.348V15.0156H183.695V16.7793H179.348V25.5977C179.348 26.5 179.562 27.1927 179.99 27.6758C180.419 28.1589 181.007 28.4004 181.754 28.4004ZM188.945 15.0156V24.7363C188.945 25.9577 189.223 26.8691 189.779 27.4707C190.335 28.0723 191.206 28.373 192.391 28.373C193.958 28.373 195.102 27.9447 195.822 27.0879C196.551 26.2311 196.916 24.832 196.916 22.8906V15.0156H199.186V30H197.312L196.984 27.9902H196.861C196.396 28.7285 195.749 29.2936 194.92 29.6855C194.1 30.0775 193.161 30.2734 192.104 30.2734C190.281 30.2734 188.913 29.8405 188.002 28.9746C187.1 28.1087 186.648 26.7233 186.648 24.8184V15.0156H188.945ZM210.848 14.7422C211.513 14.7422 212.11 14.7969 212.639 14.9062L212.324 17.0117C211.704 16.875 211.158 16.8066 210.684 16.8066C209.471 16.8066 208.432 17.2988 207.566 18.2832C206.71 19.2676 206.281 20.4935 206.281 21.9609V30H204.012V15.0156H205.885L206.145 17.791H206.254C206.81 16.8158 207.48 16.0638 208.264 15.5352C209.048 15.0065 209.909 14.7422 210.848 14.7422ZM221.771 30.2734C219.557 30.2734 217.807 29.599 216.521 28.25C215.245 26.901 214.607 25.028 214.607 22.6309C214.607 20.2155 215.2 18.2969 216.385 16.875C217.579 15.4531 219.178 14.7422 221.184 14.7422C223.061 14.7422 224.547 15.362 225.641 16.6016C226.734 17.832 227.281 19.459 227.281 21.4824V22.918H216.959C217.005 24.6771 217.447 26.0124 218.285 26.9238C219.133 27.8353 220.322 28.291 221.854 28.291C223.467 28.291 225.062 27.9538 226.639 27.2793V29.3027C225.837 29.6491 225.076 29.8952 224.355 30.041C223.645 30.196 222.783 30.2734 221.771 30.2734ZM221.156 16.6426C219.953 16.6426 218.992 17.0345 218.271 17.8184C217.561 18.6022 217.141 19.6868 217.014 21.0723H224.848C224.848 19.6413 224.529 18.5475 223.891 17.791C223.253 17.0254 222.341 16.6426 221.156 16.6426ZM247.652 30L247.201 27.8672H247.092C246.344 28.806 245.597 29.444 244.85 29.7812C244.111 30.1094 243.186 30.2734 242.074 30.2734C240.589 30.2734 239.422 29.8906 238.574 29.125C237.736 28.3594 237.316 27.2702 237.316 25.8574C237.316 22.8314 239.736 21.2454 244.576 21.0996L247.119 21.0176V20.0879C247.119 18.9121 246.864 18.0462 246.354 17.4902C245.852 16.9251 245.046 16.6426 243.934 16.6426C242.685 16.6426 241.272 17.0254 239.695 17.791L238.998 16.0547C239.736 15.6536 240.543 15.3392 241.418 15.1113C242.302 14.8835 243.186 14.7695 244.07 14.7695C245.857 14.7695 247.178 15.166 248.035 15.959C248.901 16.752 249.334 18.0234 249.334 19.7734V30H247.652ZM242.525 28.4004C243.938 28.4004 245.046 28.013 245.848 27.2383C246.659 26.4635 247.064 25.3789 247.064 23.9844V22.6309L244.795 22.7266C242.99 22.7904 241.687 23.0729 240.885 23.5742C240.092 24.0664 239.695 24.8366 239.695 25.8848C239.695 26.7051 239.941 27.3294 240.434 27.7578C240.935 28.1862 241.632 28.4004 242.525 28.4004ZM264.277 30V20.3066C264.277 19.0853 263.999 18.1738 263.443 17.5723C262.887 16.9707 262.017 16.6699 260.832 16.6699C259.264 16.6699 258.116 17.0938 257.387 17.9414C256.658 18.7891 256.293 20.1882 256.293 22.1387V30H254.023V15.0156H255.869L256.238 17.0664H256.348C256.812 16.3281 257.464 15.7585 258.303 15.3574C259.141 14.9473 260.076 14.7422 261.105 14.7422C262.91 14.7422 264.268 15.1797 265.18 16.0547C266.091 16.9206 266.547 18.3105 266.547 20.2246V30H264.277ZM281.422 27.9902H281.299C280.251 29.5124 278.683 30.2734 276.596 30.2734C274.636 30.2734 273.109 29.6035 272.016 28.2637C270.931 26.9238 270.389 25.0189 270.389 22.5488C270.389 20.0788 270.936 18.1602 272.029 16.793C273.123 15.4258 274.645 14.7422 276.596 14.7422C278.628 14.7422 280.187 15.4805 281.271 16.957H281.449L281.354 15.877L281.299 14.8242V8.72656H283.568V30H281.723L281.422 27.9902ZM276.883 28.373C278.432 28.373 279.553 27.9538 280.246 27.1152C280.948 26.2676 281.299 24.9049 281.299 23.0273V22.5488C281.299 20.4251 280.943 18.9121 280.232 18.0098C279.531 17.0983 278.405 16.6426 276.855 16.6426C275.525 16.6426 274.504 17.1621 273.793 18.2012C273.091 19.2311 272.74 20.6895 272.74 22.5762C272.74 24.4902 273.091 25.9349 273.793 26.9102C274.495 27.8854 275.525 28.373 276.883 28.373ZM11.5938 64L4.8125 46.2812H4.70312C4.83073 47.6849 4.89453 49.3529 4.89453 51.2852V64H2.74805V44.0117H6.24805L12.5781 60.5H12.6875L19.0723 44.0117H22.5449V64H20.2207V51.1211C20.2207 49.6445 20.2845 48.0404 20.4121 46.3086H20.3027L13.4668 64H11.5938ZM36.9141 64L36.4629 61.8672H36.3535C35.6061 62.806 34.8587 63.444 34.1113 63.7812C33.373 64.1094 32.4479 64.2734 31.3359 64.2734C29.8503 64.2734 28.6836 63.8906 27.8359 63.125C26.9974 62.3594 26.5781 61.2702 26.5781 59.8574C26.5781 56.8314 28.998 55.2454 33.8379 55.0996L36.3809 55.0176V54.0879C36.3809 52.9121 36.1257 52.0462 35.6152 51.4902C35.1139 50.9251 34.3073 50.6426 33.1953 50.6426C31.9466 50.6426 30.5339 51.0254 28.957 51.791L28.2598 50.0547C28.998 49.6536 29.8047 49.3392 30.6797 49.1113C31.5638 48.8835 32.4479 48.7695 33.332 48.7695C35.1185 48.7695 36.4401 49.166 37.2969 49.959C38.1628 50.752 38.5957 52.0234 38.5957 53.7734V64H36.9141ZM31.7871 62.4004C33.1999 62.4004 34.3073 62.013 35.1094 61.2383C35.9206 60.4635 36.3262 59.3789 36.3262 57.9844V56.6309L34.0566 56.7266C32.252 56.7904 30.9486 57.0729 30.1465 57.5742C29.3535 58.0664 28.957 58.8366 28.957 59.8848C28.957 60.7051 29.2031 61.3294 29.6953 61.7578C30.1966 62.1862 30.8939 62.4004 31.7871 62.4004ZM53.5391 64V54.3066C53.5391 53.0853 53.2611 52.1738 52.7051 51.5723C52.1491 50.9707 51.2786 50.6699 50.0938 50.6699C48.526 50.6699 47.3776 51.0938 46.6484 51.9414C45.9193 52.7891 45.5547 54.1882 45.5547 56.1387V64H43.2852V49.0156H45.1309L45.5 51.0664H45.6094C46.0742 50.3281 46.7259 49.7585 47.5645 49.3574C48.403 48.9473 49.3372 48.7422 50.3672 48.7422C52.1719 48.7422 53.5299 49.1797 54.4414 50.0547C55.3529 50.9206 55.8086 52.3105 55.8086 54.2246V64H53.5391ZM69.6992 64L69.248 61.8672H69.1387C68.3913 62.806 67.6439 63.444 66.8965 63.7812C66.1582 64.1094 65.2331 64.2734 64.1211 64.2734C62.6354 64.2734 61.4688 63.8906 60.6211 63.125C59.7826 62.3594 59.3633 61.2702 59.3633 59.8574C59.3633 56.8314 61.7832 55.2454 66.623 55.0996L69.166 55.0176V54.0879C69.166 52.9121 68.9108 52.0462 68.4004 51.4902C67.8991 50.9251 67.0924 50.6426 65.9805 50.6426C64.7318 50.6426 63.319 51.0254 61.7422 51.791L61.0449 50.0547C61.7832 49.6536 62.5898 49.3392 63.4648 49.1113C64.349 48.8835 65.2331 48.7695 66.1172 48.7695C67.9036 48.7695 69.2253 49.166 70.082 49.959C70.9479 50.752 71.3809 52.0234 71.3809 53.7734V64H69.6992ZM64.5723 62.4004C65.985 62.4004 67.0924 62.013 67.8945 61.2383C68.7057 60.4635 69.1113 59.3789 69.1113 57.9844V56.6309L66.8418 56.7266C65.0371 56.7904 63.7337 57.0729 62.9316 57.5742C62.1387 58.0664 61.7422 58.8366 61.7422 59.8848C61.7422 60.7051 61.9883 61.3294 62.4805 61.7578C62.9818 62.1862 63.679 62.4004 64.5723 62.4004ZM88.334 49.0156V50.4512L85.5586 50.7793C85.8138 51.0983 86.0417 51.5176 86.2422 52.0371C86.4427 52.5475 86.543 53.1263 86.543 53.7734C86.543 55.2409 86.0417 56.4121 85.0391 57.2871C84.0365 58.1621 82.6602 58.5996 80.9102 58.5996C80.4635 58.5996 80.0443 58.5632 79.6523 58.4902C78.6862 59.0007 78.2031 59.6432 78.2031 60.418C78.2031 60.8281 78.3717 61.1335 78.709 61.334C79.0462 61.5254 79.625 61.6211 80.4453 61.6211H83.0977C84.7201 61.6211 85.9642 61.9629 86.8301 62.6465C87.7051 63.3301 88.1426 64.3236 88.1426 65.627C88.1426 67.2858 87.4772 68.5482 86.1465 69.4141C84.8158 70.2891 82.8743 70.7266 80.3223 70.7266C78.3626 70.7266 76.8496 70.362 75.7832 69.6328C74.7259 68.9036 74.1973 67.8737 74.1973 66.543C74.1973 65.6315 74.4889 64.8431 75.0723 64.1777C75.6556 63.5124 76.4759 63.0612 77.5332 62.8242C77.1504 62.651 76.8268 62.3822 76.5625 62.0176C76.3073 61.653 76.1797 61.2292 76.1797 60.7461C76.1797 60.1992 76.3255 59.7207 76.6172 59.3105C76.9089 58.9004 77.3691 58.5039 77.998 58.1211C77.2233 57.8021 76.5898 57.2598 76.0977 56.4941C75.6146 55.7285 75.373 54.8535 75.373 53.8691C75.373 52.2285 75.8652 50.9661 76.8496 50.082C77.834 49.1888 79.2285 48.7422 81.0332 48.7422C81.8171 48.7422 82.5234 48.8333 83.1523 49.0156H88.334ZM76.3848 66.5156C76.3848 67.3268 76.7266 67.9421 77.4102 68.3613C78.0938 68.7806 79.0736 68.9902 80.3496 68.9902C82.2546 68.9902 83.6628 68.7031 84.5742 68.1289C85.4948 67.5638 85.9551 66.7936 85.9551 65.8184C85.9551 65.0072 85.7044 64.4421 85.2031 64.123C84.7018 63.8132 83.7585 63.6582 82.373 63.6582H79.6523C78.6224 63.6582 77.8203 63.9043 77.2461 64.3965C76.6719 64.8887 76.3848 65.5951 76.3848 66.5156ZM77.6152 53.8145C77.6152 54.8626 77.9115 55.6556 78.5039 56.1934C79.0964 56.7311 79.9212 57 80.9785 57C83.1934 57 84.3008 55.9245 84.3008 53.7734C84.3008 51.5221 83.1797 50.3965 80.9375 50.3965C79.8711 50.3965 79.0508 50.6836 78.4766 51.2578C77.9023 51.832 77.6152 52.6842 77.6152 53.8145ZM97.7402 64.2734C95.5254 64.2734 93.7754 63.599 92.4902 62.25C91.2142 60.901 90.5762 59.028 90.5762 56.6309C90.5762 54.2155 91.1686 52.2969 92.3535 50.875C93.5475 49.4531 95.1471 48.7422 97.1523 48.7422C99.0299 48.7422 100.516 49.362 101.609 50.6016C102.703 51.832 103.25 53.459 103.25 55.4824V56.918H92.9277C92.9733 58.6771 93.4154 60.0124 94.2539 60.9238C95.1016 61.8353 96.291 62.291 97.8223 62.291C99.4355 62.291 101.031 61.9538 102.607 61.2793V63.3027C101.805 63.6491 101.044 63.8952 100.324 64.041C99.6133 64.196 98.752 64.2734 97.7402 64.2734ZM97.125 50.6426C95.9219 50.6426 94.9603 51.0345 94.2402 51.8184C93.5293 52.6022 93.11 53.6868 92.9824 55.0723H100.816C100.816 53.6413 100.497 52.5475 99.8594 51.791C99.2214 51.0254 98.3099 50.6426 97.125 50.6426ZM126.232 64V54.252C126.232 53.0579 125.977 52.1647 125.467 51.5723C124.956 50.9707 124.163 50.6699 123.088 50.6699C121.675 50.6699 120.632 51.0755 119.957 51.8867C119.283 52.6979 118.945 53.9466 118.945 55.6328V64H116.676V54.252C116.676 53.0579 116.421 52.1647 115.91 51.5723C115.4 50.9707 114.602 50.6699 113.518 50.6699C112.096 50.6699 111.052 51.0983 110.387 51.9551C109.73 52.8027 109.402 54.1973 109.402 56.1387V64H107.133V49.0156H108.979L109.348 51.0664H109.457C109.885 50.3372 110.487 49.7676 111.262 49.3574C112.046 48.9473 112.921 48.7422 113.887 48.7422C116.229 48.7422 117.76 49.5898 118.48 51.2852H118.59C119.036 50.5013 119.684 49.8815 120.531 49.4258C121.379 48.9701 122.345 48.7422 123.43 48.7422C125.125 48.7422 126.392 49.1797 127.23 50.0547C128.078 50.9206 128.502 52.3105 128.502 54.2246V64H126.232ZM139.521 64.2734C137.307 64.2734 135.557 63.599 134.271 62.25C132.995 60.901 132.357 59.028 132.357 56.6309C132.357 54.2155 132.95 52.2969 134.135 50.875C135.329 49.4531 136.928 48.7422 138.934 48.7422C140.811 48.7422 142.297 49.362 143.391 50.6016C144.484 51.832 145.031 53.459 145.031 55.4824V56.918H134.709C134.755 58.6771 135.197 60.0124 136.035 60.9238C136.883 61.8353 138.072 62.291 139.604 62.291C141.217 62.291 142.812 61.9538 144.389 61.2793V63.3027C143.587 63.6491 142.826 63.8952 142.105 64.041C141.395 64.196 140.533 64.2734 139.521 64.2734ZM138.906 50.6426C137.703 50.6426 136.742 51.0345 136.021 51.8184C135.311 52.6022 134.891 53.6868 134.764 55.0723H142.598C142.598 53.6413 142.279 52.5475 141.641 51.791C141.003 51.0254 140.091 50.6426 138.906 50.6426ZM159.168 64V54.3066C159.168 53.0853 158.89 52.1738 158.334 51.5723C157.778 50.9707 156.908 50.6699 155.723 50.6699C154.155 50.6699 153.007 51.0938 152.277 51.9414C151.548 52.7891 151.184 54.1882 151.184 56.1387V64H148.914V49.0156H150.76L151.129 51.0664H151.238C151.703 50.3281 152.355 49.7585 153.193 49.3574C154.032 48.9473 154.966 48.7422 155.996 48.7422C157.801 48.7422 159.159 49.1797 160.07 50.0547C160.982 50.9206 161.438 52.3105 161.438 54.2246V64H159.168ZM170.953 62.4004C171.354 62.4004 171.742 62.373 172.115 62.3184C172.489 62.2546 172.785 62.1908 173.004 62.127V63.8633C172.758 63.9818 172.393 64.0775 171.91 64.1504C171.436 64.2324 171.008 64.2734 170.625 64.2734C167.727 64.2734 166.277 62.7467 166.277 59.6934V50.7793H164.131V49.6855L166.277 48.7422L167.234 45.543H168.547V49.0156H172.895V50.7793H168.547V59.5977C168.547 60.5 168.761 61.1927 169.189 61.6758C169.618 62.1589 170.206 62.4004 170.953 62.4004ZM199.582 53.8145C199.582 57.1139 198.684 59.6387 196.889 61.3887C195.102 63.1296 192.527 64 189.164 64H183.627V44.0117H189.752C192.86 44.0117 195.275 44.873 196.998 46.5957C198.721 48.3184 199.582 50.7246 199.582 53.8145ZM197.121 53.8965C197.121 51.2897 196.465 49.3255 195.152 48.0039C193.849 46.6823 191.908 46.0215 189.328 46.0215H185.951V61.9902H188.781C191.552 61.9902 193.635 61.3112 195.029 59.9531C196.424 58.5859 197.121 56.5671 197.121 53.8965ZM210.041 64.2734C207.826 64.2734 206.076 63.599 204.791 62.25C203.515 60.901 202.877 59.028 202.877 56.6309C202.877 54.2155 203.469 52.2969 204.654 50.875C205.848 49.4531 207.448 48.7422 209.453 48.7422C211.331 48.7422 212.816 49.362 213.91 50.6016C215.004 51.832 215.551 53.459 215.551 55.4824V56.918H205.229C205.274 58.6771 205.716 60.0124 206.555 60.9238C207.402 61.8353 208.592 62.291 210.123 62.291C211.736 62.291 213.331 61.9538 214.908 61.2793V63.3027C214.106 63.6491 213.345 63.8952 212.625 64.041C211.914 64.196 211.053 64.2734 210.041 64.2734ZM209.426 50.6426C208.223 50.6426 207.261 51.0345 206.541 51.8184C205.83 52.6022 205.411 53.6868 205.283 55.0723H213.117C213.117 53.6413 212.798 52.5475 212.16 51.791C211.522 51.0254 210.611 50.6426 209.426 50.6426ZM229.1 59.9121C229.1 61.3066 228.58 62.3822 227.541 63.1387C226.502 63.8952 225.044 64.2734 223.166 64.2734C221.179 64.2734 219.63 63.959 218.518 63.3301V61.2246C219.238 61.5892 220.008 61.8763 220.828 62.0859C221.658 62.2956 222.455 62.4004 223.221 62.4004C224.406 62.4004 225.317 62.2135 225.955 61.8398C226.593 61.457 226.912 60.8783 226.912 60.1035C226.912 59.5202 226.657 59.0234 226.146 58.6133C225.645 58.194 224.661 57.7018 223.193 57.1367C221.799 56.6172 220.805 56.166 220.213 55.7832C219.63 55.3913 219.192 54.9492 218.9 54.457C218.618 53.9648 218.477 53.377 218.477 52.6934C218.477 51.472 218.973 50.5104 219.967 49.8086C220.96 49.0977 222.323 48.7422 224.055 48.7422C225.668 48.7422 227.245 49.0703 228.785 49.7266L227.979 51.5723C226.475 50.9525 225.112 50.6426 223.891 50.6426C222.815 50.6426 222.004 50.8112 221.457 51.1484C220.91 51.4857 220.637 51.9505 220.637 52.543C220.637 52.944 220.737 53.2858 220.938 53.5684C221.147 53.8509 221.48 54.1198 221.936 54.375C222.391 54.6302 223.266 54.9993 224.561 55.4824C226.338 56.1296 227.536 56.7812 228.156 57.4375C228.785 58.0938 229.1 58.9186 229.1 59.9121ZM235.074 64H232.805V49.0156H235.074V64ZM232.613 44.9551C232.613 44.4355 232.741 44.0573 232.996 43.8203C233.251 43.5742 233.57 43.4512 233.953 43.4512C234.318 43.4512 234.632 43.5742 234.896 43.8203C235.161 44.0664 235.293 44.4447 235.293 44.9551C235.293 45.4655 235.161 45.8483 234.896 46.1035C234.632 46.3496 234.318 46.4727 233.953 46.4727C233.57 46.4727 233.251 46.3496 232.996 46.1035C232.741 45.8483 232.613 45.4655 232.613 44.9551ZM252.15 49.0156V50.4512L249.375 50.7793C249.63 51.0983 249.858 51.5176 250.059 52.0371C250.259 52.5475 250.359 53.1263 250.359 53.7734C250.359 55.2409 249.858 56.4121 248.855 57.2871C247.853 58.1621 246.477 58.5996 244.727 58.5996C244.28 58.5996 243.861 58.5632 243.469 58.4902C242.503 59.0007 242.02 59.6432 242.02 60.418C242.02 60.8281 242.188 61.1335 242.525 61.334C242.863 61.5254 243.441 61.6211 244.262 61.6211H246.914C248.536 61.6211 249.781 61.9629 250.646 62.6465C251.521 63.3301 251.959 64.3236 251.959 65.627C251.959 67.2858 251.294 68.5482 249.963 69.4141C248.632 70.2891 246.691 70.7266 244.139 70.7266C242.179 70.7266 240.666 70.362 239.6 69.6328C238.542 68.9036 238.014 67.8737 238.014 66.543C238.014 65.6315 238.305 64.8431 238.889 64.1777C239.472 63.5124 240.292 63.0612 241.35 62.8242C240.967 62.651 240.643 62.3822 240.379 62.0176C240.124 61.653 239.996 61.2292 239.996 60.7461C239.996 60.1992 240.142 59.7207 240.434 59.3105C240.725 58.9004 241.186 58.5039 241.814 58.1211C241.04 57.8021 240.406 57.2598 239.914 56.4941C239.431 55.7285 239.189 54.8535 239.189 53.8691C239.189 52.2285 239.682 50.9661 240.666 50.082C241.65 49.1888 243.045 48.7422 244.85 48.7422C245.633 48.7422 246.34 48.8333 246.969 49.0156H252.15ZM240.201 66.5156C240.201 67.3268 240.543 67.9421 241.227 68.3613C241.91 68.7806 242.89 68.9902 244.166 68.9902C246.071 68.9902 247.479 68.7031 248.391 68.1289C249.311 67.5638 249.771 66.7936 249.771 65.8184C249.771 65.0072 249.521 64.4421 249.02 64.123C248.518 63.8132 247.575 63.6582 246.189 63.6582H243.469C242.439 63.6582 241.637 63.9043 241.062 64.3965C240.488 64.8887 240.201 65.5951 240.201 66.5156ZM241.432 53.8145C241.432 54.8626 241.728 55.6556 242.32 56.1934C242.913 56.7311 243.738 57 244.795 57C247.01 57 248.117 55.9245 248.117 53.7734C248.117 51.5221 246.996 50.3965 244.754 50.3965C243.688 50.3965 242.867 50.6836 242.293 51.2578C241.719 51.832 241.432 52.6842 241.432 53.8145ZM265.48 64V54.3066C265.48 53.0853 265.202 52.1738 264.646 51.5723C264.09 50.9707 263.22 50.6699 262.035 50.6699C260.467 50.6699 259.319 51.0938 258.59 51.9414C257.861 52.7891 257.496 54.1882 257.496 56.1387V64H255.227V49.0156H257.072L257.441 51.0664H257.551C258.016 50.3281 258.667 49.7585 259.506 49.3574C260.344 48.9473 261.279 48.7422 262.309 48.7422C264.113 48.7422 265.471 49.1797 266.383 50.0547C267.294 50.9206 267.75 52.3105 267.75 54.2246V64H265.48ZM278.756 64.2734C276.541 64.2734 274.791 63.599 273.506 62.25C272.23 60.901 271.592 59.028 271.592 56.6309C271.592 54.2155 272.184 52.2969 273.369 50.875C274.563 49.4531 276.163 48.7422 278.168 48.7422C280.046 48.7422 281.531 49.362 282.625 50.6016C283.719 51.832 284.266 53.459 284.266 55.4824V56.918H273.943C273.989 58.6771 274.431 60.0124 275.27 60.9238C276.117 61.8353 277.307 62.291 278.838 62.291C280.451 62.291 282.046 61.9538 283.623 61.2793V63.3027C282.821 63.6491 282.06 63.8952 281.34 64.041C280.629 64.196 279.768 64.2734 278.756 64.2734ZM278.141 50.6426C276.938 50.6426 275.976 51.0345 275.256 51.8184C274.545 52.6022 274.126 53.6868 273.998 55.0723H281.832C281.832 53.6413 281.513 52.5475 280.875 51.791C280.237 51.0254 279.326 50.6426 278.141 50.6426ZM294.984 48.7422C295.65 48.7422 296.247 48.7969 296.775 48.9062L296.461 51.0117C295.841 50.875 295.294 50.8066 294.82 50.8066C293.608 50.8066 292.569 51.2988 291.703 52.2832C290.846 53.2676 290.418 54.4935 290.418 55.9609V64H288.148V49.0156H290.021L290.281 51.791H290.391C290.947 50.8158 291.617 50.0638 292.4 49.5352C293.184 49.0065 294.046 48.7422 294.984 48.7422Z" transform="translate(30 121)" fill="white"/>
<path d="M9.49994 0.0473362C13.4999 -0.352664 16.1666 1.88067 16.9999 3.04734C18.2 0.247314 21.8333 -0.11934 23.4999 0.0473362C27.0999 0.0473362 28.6666 3.04735 28.9999 4.54736C36.4999 1.54736 45.4999 9.04736 40.9999 16.5474C37.3999 22.5474 32.8332 22.3807 30.9999 21.5474C30.4999 22.5474 31.4999 23.0474 27.9999 24.5474C25.1999 25.7474 22.8332 25.0474 21.9999 24.5474C21.4999 25.5474 20.4999 29.5474 15.4999 29.5474C11.4999 29.5474 9.16658 26.214 8.49991 24.5474C3.49991 24.0474 -0.00012207 21.5474 0 17.5474C0.000100663 14.2489 1.99996 11.8807 3.49994 11.0474C2.99994 5.54736 4.49994 0.547336 9.49994 0.0473362Z" transform="translate(280.5 61.9526)" fill="#00A1E1"/>
</svg>
