<svg width="355" height="203" viewBox="0 0 355 203" fill="none" xmlns="http://www.w3.org/2000/svg">
<rect width="355" height="90" transform="translate(0 113)" fill="#00A1E1"/>
<rect width="355" height="113" fill="#013C4E"/>
<path d="M21.4717 36.6738C21.4717 39.3809 20.4941 41.5137 18.5391 43.0723C16.5977 44.6309 13.8906 45.4102 10.418 45.4102C7.21875 45.4102 4.38867 44.8086 1.92773 43.6055V37.6992C3.95117 38.6016 5.66016 39.2373 7.05469 39.6064C8.46289 39.9756 9.74805 40.1602 10.9102 40.1602C12.3047 40.1602 13.3711 39.8936 14.1094 39.3604C14.8613 38.8271 15.2373 38.0342 15.2373 36.9814C15.2373 36.3936 15.0732 35.874 14.7451 35.4229C14.417 34.958 13.9316 34.5137 13.2891 34.0898C12.6602 33.666 11.3682 32.9893 9.41309 32.0596C7.58105 31.1982 6.20703 30.3711 5.29102 29.5781C4.375 28.7852 3.64355 27.8623 3.09668 26.8096C2.5498 25.7568 2.27637 24.5264 2.27637 23.1182C2.27637 20.4658 3.17188 18.3809 4.96289 16.8633C6.76758 15.3457 9.25586 14.5869 12.4277 14.5869C13.9863 14.5869 15.4697 14.7715 16.8779 15.1406C18.2998 15.5098 19.7832 16.0293 21.3281 16.6992L19.2773 21.6416C17.6777 20.9854 16.3516 20.5273 15.2988 20.2676C14.2598 20.0078 13.2344 19.8779 12.2227 19.8779C11.0195 19.8779 10.0967 20.1582 9.4541 20.7188C8.81152 21.2793 8.49023 22.0107 8.49023 22.9131C8.49023 23.4736 8.62012 23.9658 8.87988 24.3896C9.13965 24.7998 9.5498 25.2031 10.1104 25.5996C10.6846 25.9824 12.0312 26.6797 14.1504 27.6914C16.9531 29.0312 18.874 30.3779 19.9131 31.7314C20.9521 33.0713 21.4717 34.7188 21.4717 36.6738ZM49.0407 45L46.8669 37.8633H35.9363L33.7624 45H26.9128L37.4948 14.8945H45.2673L55.8904 45H49.0407ZM45.3493 32.5312C43.3396 26.0645 42.2048 22.4072 41.945 21.5596C41.6989 20.7119 41.5212 20.042 41.4118 19.5498C40.9607 21.2998 39.6687 25.627 37.5359 32.5312H45.3493ZM63.4643 45V15.0176H69.8217V39.75H81.9828V45H63.4643ZM108.26 45H90.9923V15.0176H108.26V20.2266H97.3498V26.8096H107.501V32.0186H97.3498V39.75H108.26V45ZM136.014 36.6738C136.014 39.3809 135.036 41.5137 133.081 43.0723C131.14 44.6309 128.433 45.4102 124.96 45.4102C121.761 45.4102 118.931 44.8086 116.47 43.6055V37.6992C118.493 38.6016 120.202 39.2373 121.597 39.6064C123.005 39.9756 124.29 40.1602 125.452 40.1602C126.847 40.1602 127.913 39.8936 128.651 39.3604C129.403 38.8271 129.779 38.0342 129.779 36.9814C129.779 36.3936 129.615 35.874 129.287 35.4229C128.959 34.958 128.474 34.5137 127.831 34.0898C127.202 33.666 125.91 32.9893 123.955 32.0596C122.123 31.1982 120.749 30.3711 119.833 29.5781C118.917 28.7852 118.185 27.8623 117.639 26.8096C117.092 25.7568 116.818 24.5264 116.818 23.1182C116.818 20.4658 117.714 18.3809 119.505 16.8633C121.309 15.3457 123.798 14.5869 126.97 14.5869C128.528 14.5869 130.012 14.7715 131.42 15.1406C132.842 15.5098 134.325 16.0293 135.87 16.6992L133.819 21.6416C132.22 20.9854 130.893 20.5273 129.841 20.2676C128.802 20.0078 127.776 19.8779 126.765 19.8779C125.561 19.8779 124.639 20.1582 123.996 20.7188C123.353 21.2793 123.032 22.0107 123.032 22.9131C123.032 23.4736 123.162 23.9658 123.422 24.3896C123.682 24.7998 124.092 25.2031 124.652 25.5996C125.226 25.9824 126.573 26.6797 128.692 27.6914C131.495 29.0312 133.416 30.3779 134.455 31.7314C135.494 33.0713 136.014 34.7188 136.014 36.6738ZM151.483 45H145.228V15.0176H162.414V20.2266H151.483V27.958H161.655V33.1465H151.483V45ZM199.273 29.9678C199.273 34.9307 198.042 38.7451 195.581 41.4111C193.12 44.0771 189.593 45.4102 184.999 45.4102C180.406 45.4102 176.878 44.0771 174.417 41.4111C171.956 38.7451 170.726 34.917 170.726 29.9268C170.726 24.9365 171.956 21.1289 174.417 18.5039C176.892 15.8652 180.433 14.5459 185.04 14.5459C189.648 14.5459 193.168 15.8721 195.602 18.5244C198.049 21.1768 199.273 24.9912 199.273 29.9678ZM177.391 29.9678C177.391 33.3174 178.027 35.8398 179.298 37.5352C180.57 39.2305 182.47 40.0781 184.999 40.0781C190.072 40.0781 192.608 36.708 192.608 29.9678C192.608 23.2139 190.085 19.8369 185.04 19.8369C182.511 19.8369 180.604 20.6914 179.319 22.4004C178.034 24.0957 177.391 26.6182 177.391 29.9678ZM215.624 28.3271H217.675C219.685 28.3271 221.168 27.9922 222.125 27.3223C223.082 26.6523 223.561 25.5996 223.561 24.1641C223.561 22.7422 223.068 21.7305 222.084 21.1289C221.113 20.5273 219.603 20.2266 217.552 20.2266H215.624V28.3271ZM215.624 33.4951V45H209.267V15.0176H218.003C222.077 15.0176 225.092 15.7627 227.047 17.2529C229.002 18.7295 229.98 20.9785 229.98 24C229.98 25.7637 229.494 27.3359 228.523 28.7168C227.553 30.084 226.179 31.1572 224.401 31.9365C228.913 38.6768 231.853 43.0312 233.22 45H226.165L219.008 33.4951H215.624ZM253.509 19.8779C251.116 19.8779 249.263 20.7803 247.951 22.585C246.638 24.376 245.982 26.8779 245.982 30.0908C245.982 36.7764 248.491 40.1191 253.509 40.1191C255.614 40.1191 258.164 39.5928 261.158 38.54V43.8721C258.697 44.8975 255.949 45.4102 252.914 45.4102C248.553 45.4102 245.217 44.0908 242.906 41.4521C240.595 38.7998 239.44 34.999 239.44 30.0498C239.44 26.9326 240.008 24.2051 241.142 21.8672C242.277 19.5156 243.904 17.7178 246.023 16.4736C248.156 15.2158 250.651 14.5869 253.509 14.5869C256.421 14.5869 259.346 15.291 262.286 16.6992L260.235 21.8672C259.114 21.334 257.986 20.8691 256.851 20.4727C255.717 20.0762 254.602 19.8779 253.509 19.8779ZM288.604 45H271.336V15.0176H288.604V20.2266H277.694V26.8096H287.845V32.0186H277.694V39.75H288.604V45ZM16.96 58.7041C13.665 58.7041 11.0605 59.8047 9.14648 62.0059C7.24609 64.1934 6.2959 67.1943 6.2959 71.0088C6.2959 74.9326 7.21191 77.9678 9.04395 80.1143C10.8896 82.2471 13.5146 83.3135 16.9189 83.3135C19.0107 83.3135 21.3965 82.9375 24.0762 82.1855V85.2412C21.998 86.0205 19.4346 86.4102 16.3857 86.4102C11.9697 86.4102 8.55859 85.0703 6.15234 82.3906C3.75977 79.7109 2.56348 75.9033 2.56348 70.9678C2.56348 67.8779 3.1377 65.1709 4.28613 62.8467C5.44824 60.5225 7.11621 58.7314 9.29004 57.4736C11.4775 56.2158 14.0479 55.5869 17.001 55.5869C20.1455 55.5869 22.8936 56.1611 25.2451 57.3096L23.7686 60.3037C21.499 59.2373 19.2295 58.7041 16.96 58.7041ZM52.372 86H35.6582V56.0176H52.372V59.1143H39.1445V68.7734H51.5722V71.8496H39.1445V82.8828H52.372V86ZM67.5634 73.5312V86H64.0771V56.0176H72.3007C75.9784 56.0176 78.6923 56.7217 80.4423 58.1299C82.206 59.5381 83.0878 61.6572 83.0878 64.4873C83.0878 68.4521 81.078 71.1318 77.0585 72.5264L85.2001 86H81.078L73.8183 73.5312H67.5634ZM67.5634 70.5371H72.3417C74.8027 70.5371 76.6073 70.0518 77.7558 69.0811C78.9042 68.0967 79.4784 66.627 79.4784 64.6719C79.4784 62.6895 78.8905 61.2607 77.7148 60.3857C76.5527 59.5107 74.6796 59.0732 72.0956 59.0732H67.5634V70.5371ZM104.308 86H100.822V59.1143H91.327V56.0176H113.804V59.1143H104.308V86ZM123.376 86V56.0176H126.862V86H123.376ZM143.633 86H140.146V56.0176H156.86V59.1143H143.633V70.0859H156.06V73.1826H143.633V86ZM166.884 86V56.0176H170.37V86H166.884ZM200.368 86H183.654V56.0176H200.368V59.1143H187.14V68.7734H199.568V71.8496H187.14V82.8828H200.368V86ZM236.006 70.7217C236.006 75.6709 234.659 79.458 231.966 82.083C229.286 84.6943 225.424 86 220.379 86H212.073V56.0176H221.26C225.923 56.0176 229.546 57.3096 232.13 59.8936C234.714 62.4775 236.006 66.0869 236.006 70.7217ZM232.314 70.8447C232.314 66.9346 231.33 63.9883 229.361 62.0059C227.406 60.0234 224.494 59.0322 220.625 59.0322H215.559V82.9854H219.804C223.961 82.9854 227.085 81.9668 229.176 79.9297C231.268 77.8789 232.314 74.8506 232.314 70.8447Z" transform="translate(30 6)" fill="white"/>
<path d="M14.0273 24.6816C14.0273 26.4408 13.3893 27.8125 12.1133 28.7969C10.8372 29.7812 9.10547 30.2734 6.91797 30.2734C4.54818 30.2734 2.72526 29.9681 1.44922 29.3574V27.1152C2.26953 27.4616 3.16276 27.735 4.12891 27.9355C5.09505 28.1361 6.05208 28.2363 7 28.2363C8.54948 28.2363 9.71615 27.9447 10.5 27.3613C11.2839 26.7689 11.6758 25.9486 11.6758 24.9004C11.6758 24.2077 11.5345 23.6426 11.252 23.2051C10.9785 22.7585 10.5137 22.3483 9.85742 21.9746C9.21029 21.6009 8.22135 21.1771 6.89062 20.7031C5.03125 20.0378 3.70052 19.2493 2.89844 18.3379C2.10547 17.4264 1.70898 16.237 1.70898 14.7695C1.70898 13.2292 2.28776 12.0033 3.44531 11.0918C4.60286 10.1803 6.13411 9.72461 8.03906 9.72461C10.026 9.72461 11.8535 10.0892 13.5215 10.8184L12.7969 12.8418C11.1471 12.1491 9.54297 11.8027 7.98438 11.8027C6.75391 11.8027 5.79232 12.0671 5.09961 12.5957C4.4069 13.1243 4.06055 13.8581 4.06055 14.7969C4.06055 15.4896 4.18815 16.0592 4.44336 16.5059C4.69857 16.9434 5.12695 17.349 5.72852 17.7227C6.33919 18.0872 7.26888 18.4928 8.51758 18.9395C10.6139 19.6868 12.054 20.4889 12.8379 21.3457C13.6309 22.2025 14.0273 23.3145 14.0273 24.6816ZM26.9883 30L26.5371 27.8672H26.4277C25.6803 28.806 24.9329 29.444 24.1855 29.7812C23.4473 30.1094 22.5221 30.2734 21.4102 30.2734C19.9245 30.2734 18.7578 29.8906 17.9102 29.125C17.0716 28.3594 16.6523 27.2702 16.6523 25.8574C16.6523 22.8314 19.0723 21.2454 23.9121 21.0996L26.4551 21.0176V20.0879C26.4551 18.9121 26.1999 18.0462 25.6895 17.4902C25.1882 16.9251 24.3815 16.6426 23.2695 16.6426C22.0208 16.6426 20.6081 17.0254 19.0312 17.791L18.334 16.0547C19.0723 15.6536 19.8789 15.3392 20.7539 15.1113C21.638 14.8835 22.5221 14.7695 23.4062 14.7695C25.1927 14.7695 26.5143 15.166 27.3711 15.959C28.237 16.752 28.6699 18.0234 28.6699 19.7734V30H26.9883ZM21.8613 28.4004C23.2741 28.4004 24.3815 28.013 25.1836 27.2383C25.9948 26.4635 26.4004 25.3789 26.4004 23.9844V22.6309L24.1309 22.7266C22.3262 22.7904 21.0228 23.0729 20.2207 23.5742C19.4277 24.0664 19.0312 24.8366 19.0312 25.8848C19.0312 26.7051 19.2773 27.3294 19.7695 27.7578C20.2708 28.1862 20.9681 28.4004 21.8613 28.4004ZM35.6289 30H33.3594V8.72656H35.6289V30ZM46.7715 30.2734C44.5566 30.2734 42.8066 29.599 41.5215 28.25C40.2454 26.901 39.6074 25.028 39.6074 22.6309C39.6074 20.2155 40.1999 18.2969 41.3848 16.875C42.5788 15.4531 44.1784 14.7422 46.1836 14.7422C48.0612 14.7422 49.5469 15.362 50.6406 16.6016C51.7344 17.832 52.2812 19.459 52.2812 21.4824V22.918H41.959C42.0046 24.6771 42.4466 26.0124 43.2852 26.9238C44.1328 27.8353 45.3223 28.291 46.8535 28.291C48.4668 28.291 50.0618 27.9538 51.6387 27.2793V29.3027C50.8366 29.6491 50.0755 29.8952 49.3555 30.041C48.6445 30.196 47.7832 30.2734 46.7715 30.2734ZM46.1562 16.6426C44.9531 16.6426 43.9915 17.0345 43.2715 17.8184C42.5605 18.6022 42.1413 19.6868 42.0137 21.0723H49.8477C49.8477 19.6413 49.5286 18.5475 48.8906 17.791C48.2526 17.0254 47.3411 16.6426 46.1562 16.6426ZM65.8301 25.9121C65.8301 27.3066 65.3105 28.3822 64.2715 29.1387C63.2324 29.8952 61.7741 30.2734 59.8965 30.2734C57.9095 30.2734 56.36 29.959 55.248 29.3301V27.2246C55.9681 27.5892 56.7383 27.8763 57.5586 28.0859C58.388 28.2956 59.1855 28.4004 59.9512 28.4004C61.1361 28.4004 62.0475 28.2135 62.6855 27.8398C63.3236 27.457 63.6426 26.8783 63.6426 26.1035C63.6426 25.5202 63.3874 25.0234 62.877 24.6133C62.3757 24.194 61.3913 23.7018 59.9238 23.1367C58.5293 22.6172 57.5358 22.166 56.9434 21.7832C56.36 21.3913 55.9225 20.9492 55.6309 20.457C55.3483 19.9648 55.207 19.377 55.207 18.6934C55.207 17.472 55.7038 16.5104 56.6973 15.8086C57.6908 15.0977 59.0534 14.7422 60.7852 14.7422C62.3984 14.7422 63.9753 15.0703 65.5156 15.7266L64.709 17.5723C63.2051 16.9525 61.8424 16.6426 60.6211 16.6426C59.5456 16.6426 58.7344 16.8112 58.1875 17.1484C57.6406 17.4857 57.3672 17.9505 57.3672 18.543C57.3672 18.944 57.4674 19.2858 57.668 19.5684C57.8776 19.8509 58.2103 20.1198 58.666 20.375C59.1217 20.6302 59.9967 20.9993 61.291 21.4824C63.0684 22.1296 64.2669 22.7812 64.8867 23.4375C65.5156 24.0938 65.8301 24.9186 65.8301 25.9121ZM85.709 11.8027C83.5124 11.8027 81.776 12.5365 80.5 14.0039C79.2331 15.4622 78.5996 17.4629 78.5996 20.0059C78.5996 22.6217 79.2103 24.6452 80.4316 26.0762C81.6621 27.498 83.4121 28.209 85.6816 28.209C87.0762 28.209 88.6667 27.9583 90.4531 27.457V29.4941C89.0677 30.0137 87.3587 30.2734 85.3262 30.2734C82.3822 30.2734 80.1081 29.3802 78.5039 27.5938C76.9089 25.8073 76.1113 23.2689 76.1113 19.9785C76.1113 17.9186 76.4941 16.1139 77.2598 14.5645C78.0345 13.015 79.1465 11.821 80.5957 10.9824C82.054 10.1439 83.7676 9.72461 85.7363 9.72461C87.8327 9.72461 89.6647 10.1074 91.2324 10.873L90.248 12.8691C88.735 12.1582 87.222 11.8027 85.709 11.8027ZM96.7422 30H94.4727V8.72656H96.7422V30ZM114.488 22.4941C114.488 24.9368 113.873 26.8464 112.643 28.2227C111.412 29.5898 109.712 30.2734 107.543 30.2734C106.203 30.2734 105.014 29.959 103.975 29.3301C102.936 28.7012 102.133 27.7988 101.568 26.623C101.003 25.4473 100.721 24.071 100.721 22.4941C100.721 20.0514 101.331 18.151 102.553 16.793C103.774 15.4258 105.469 14.7422 107.639 14.7422C109.735 14.7422 111.398 15.4395 112.629 16.834C113.868 18.2285 114.488 20.1152 114.488 22.4941ZM103.072 22.4941C103.072 24.4082 103.455 25.8665 104.221 26.8691C104.986 27.8717 106.112 28.373 107.598 28.373C109.083 28.373 110.209 27.8763 110.975 26.8828C111.749 25.8802 112.137 24.4173 112.137 22.4941C112.137 20.5892 111.749 19.1445 110.975 18.1602C110.209 17.1667 109.074 16.6699 107.57 16.6699C106.085 16.6699 104.964 17.1576 104.207 18.1328C103.451 19.1081 103.072 20.5618 103.072 22.4941ZM120.613 15.0156V24.7363C120.613 25.9577 120.891 26.8691 121.447 27.4707C122.003 28.0723 122.874 28.373 124.059 28.373C125.626 28.373 126.77 27.9447 127.49 27.0879C128.219 26.2311 128.584 24.832 128.584 22.8906V15.0156H130.854V30H128.98L128.652 27.9902H128.529C128.064 28.7285 127.417 29.2936 126.588 29.6855C125.768 30.0775 124.829 30.2734 123.771 30.2734C121.949 30.2734 120.581 29.8405 119.67 28.9746C118.768 28.1087 118.316 26.7233 118.316 24.8184V15.0156H120.613ZM145.879 27.9902H145.756C144.708 29.5124 143.14 30.2734 141.053 30.2734C139.093 30.2734 137.566 29.6035 136.473 28.2637C135.388 26.9238 134.846 25.0189 134.846 22.5488C134.846 20.0788 135.393 18.1602 136.486 16.793C137.58 15.4258 139.102 14.7422 141.053 14.7422C143.085 14.7422 144.644 15.4805 145.729 16.957H145.906L145.811 15.877L145.756 14.8242V8.72656H148.025V30H146.18L145.879 27.9902ZM141.34 28.373C142.889 28.373 144.01 27.9538 144.703 27.1152C145.405 26.2676 145.756 24.9049 145.756 23.0273V22.5488C145.756 20.4251 145.4 18.9121 144.689 18.0098C143.988 17.0983 142.862 16.6426 141.312 16.6426C139.982 16.6426 138.961 17.1621 138.25 18.2012C137.548 19.2311 137.197 20.6895 137.197 22.5762C137.197 24.4902 137.548 25.9349 138.25 26.9102C138.952 27.8854 139.982 28.373 141.34 28.373ZM169.025 11.8027C166.829 11.8027 165.092 12.5365 163.816 14.0039C162.549 15.4622 161.916 17.4629 161.916 20.0059C161.916 22.6217 162.527 24.6452 163.748 26.0762C164.979 27.498 166.729 28.209 168.998 28.209C170.393 28.209 171.983 27.9583 173.77 27.457V29.4941C172.384 30.0137 170.675 30.2734 168.643 30.2734C165.699 30.2734 163.424 29.3802 161.82 27.5938C160.225 25.8073 159.428 23.2689 159.428 19.9785C159.428 17.9186 159.811 16.1139 160.576 14.5645C161.351 13.015 162.463 11.821 163.912 10.9824C165.37 10.1439 167.084 9.72461 169.053 9.72461C171.149 9.72461 172.981 10.1074 174.549 10.873L173.564 12.8691C172.051 12.1582 170.538 11.8027 169.025 11.8027ZM190.723 22.4941C190.723 24.9368 190.107 26.8464 188.877 28.2227C187.646 29.5898 185.947 30.2734 183.777 30.2734C182.438 30.2734 181.248 29.959 180.209 29.3301C179.17 28.7012 178.368 27.7988 177.803 26.623C177.238 25.4473 176.955 24.071 176.955 22.4941C176.955 20.0514 177.566 18.151 178.787 16.793C180.008 15.4258 181.704 14.7422 183.873 14.7422C185.969 14.7422 187.633 15.4395 188.863 16.834C190.103 18.2285 190.723 20.1152 190.723 22.4941ZM179.307 22.4941C179.307 24.4082 179.689 25.8665 180.455 26.8691C181.221 27.8717 182.346 28.373 183.832 28.373C185.318 28.373 186.443 27.8763 187.209 26.8828C187.984 25.8802 188.371 24.4173 188.371 22.4941C188.371 20.5892 187.984 19.1445 187.209 18.1602C186.443 17.1667 185.309 16.6699 183.805 16.6699C182.319 16.6699 181.198 17.1576 180.441 18.1328C179.685 19.1081 179.307 20.5618 179.307 22.4941ZM204.969 30V20.3066C204.969 19.0853 204.691 18.1738 204.135 17.5723C203.579 16.9707 202.708 16.6699 201.523 16.6699C199.956 16.6699 198.807 17.0938 198.078 17.9414C197.349 18.7891 196.984 20.1882 196.984 22.1387V30H194.715V15.0156H196.561L196.93 17.0664H197.039C197.504 16.3281 198.156 15.7585 198.994 15.3574C199.833 14.9473 200.767 14.7422 201.797 14.7422C203.602 14.7422 204.96 15.1797 205.871 16.0547C206.783 16.9206 207.238 18.3105 207.238 20.2246V30H204.969ZM221.58 25.9121C221.58 27.3066 221.061 28.3822 220.021 29.1387C218.982 29.8952 217.524 30.2734 215.646 30.2734C213.66 30.2734 212.11 29.959 210.998 29.3301V27.2246C211.718 27.5892 212.488 27.8763 213.309 28.0859C214.138 28.2956 214.936 28.4004 215.701 28.4004C216.886 28.4004 217.798 28.2135 218.436 27.8398C219.074 27.457 219.393 26.8783 219.393 26.1035C219.393 25.5202 219.137 25.0234 218.627 24.6133C218.126 24.194 217.141 23.7018 215.674 23.1367C214.279 22.6172 213.286 22.166 212.693 21.7832C212.11 21.3913 211.673 20.9492 211.381 20.457C211.098 19.9648 210.957 19.377 210.957 18.6934C210.957 17.472 211.454 16.5104 212.447 15.8086C213.441 15.0977 214.803 14.7422 216.535 14.7422C218.148 14.7422 219.725 15.0703 221.266 15.7266L220.459 17.5723C218.955 16.9525 217.592 16.6426 216.371 16.6426C215.296 16.6426 214.484 16.8112 213.938 17.1484C213.391 17.4857 213.117 17.9505 213.117 18.543C213.117 18.944 213.217 19.2858 213.418 19.5684C213.628 19.8509 213.96 20.1198 214.416 20.375C214.872 20.6302 215.747 20.9993 217.041 21.4824C218.818 22.1296 220.017 22.7812 220.637 23.4375C221.266 24.0938 221.58 24.9186 221.58 25.9121ZM227.418 15.0156V24.7363C227.418 25.9577 227.696 26.8691 228.252 27.4707C228.808 28.0723 229.678 28.373 230.863 28.373C232.431 28.373 233.575 27.9447 234.295 27.0879C235.024 26.2311 235.389 24.832 235.389 22.8906V15.0156H237.658V30H235.785L235.457 27.9902H235.334C234.869 28.7285 234.222 29.2936 233.393 29.6855C232.572 30.0775 231.633 30.2734 230.576 30.2734C228.753 30.2734 227.386 29.8405 226.475 28.9746C225.572 28.1087 225.121 26.7233 225.121 24.8184V15.0156H227.418ZM244.754 30H242.484V8.72656H244.754V30ZM254.406 28.4004C254.807 28.4004 255.195 28.373 255.568 28.3184C255.942 28.2546 256.238 28.1908 256.457 28.127V29.8633C256.211 29.9818 255.846 30.0775 255.363 30.1504C254.889 30.2324 254.461 30.2734 254.078 30.2734C251.18 30.2734 249.73 28.7467 249.73 25.6934V16.7793H247.584V15.6855L249.73 14.7422L250.688 11.543H252V15.0156H256.348V16.7793H252V25.5977C252 26.5 252.214 27.1927 252.643 27.6758C253.071 28.1589 253.659 28.4004 254.406 28.4004ZM268.68 30L268.229 27.8672H268.119C267.372 28.806 266.624 29.444 265.877 29.7812C265.139 30.1094 264.214 30.2734 263.102 30.2734C261.616 30.2734 260.449 29.8906 259.602 29.125C258.763 28.3594 258.344 27.2702 258.344 25.8574C258.344 22.8314 260.764 21.2454 265.604 21.0996L268.146 21.0176V20.0879C268.146 18.9121 267.891 18.0462 267.381 17.4902C266.88 16.9251 266.073 16.6426 264.961 16.6426C263.712 16.6426 262.299 17.0254 260.723 17.791L260.025 16.0547C260.764 15.6536 261.57 15.3392 262.445 15.1113C263.329 14.8835 264.214 14.7695 265.098 14.7695C266.884 14.7695 268.206 15.166 269.062 15.959C269.928 16.752 270.361 18.0234 270.361 19.7734V30H268.68ZM263.553 28.4004C264.965 28.4004 266.073 28.013 266.875 27.2383C267.686 26.4635 268.092 25.3789 268.092 23.9844V22.6309L265.822 22.7266C264.018 22.7904 262.714 23.0729 261.912 23.5742C261.119 24.0664 260.723 24.8366 260.723 25.8848C260.723 26.7051 260.969 27.3294 261.461 27.7578C261.962 28.1862 262.66 28.4004 263.553 28.4004ZM285.305 30V20.3066C285.305 19.0853 285.027 18.1738 284.471 17.5723C283.915 16.9707 283.044 16.6699 281.859 16.6699C280.292 16.6699 279.143 17.0938 278.414 17.9414C277.685 18.7891 277.32 20.1882 277.32 22.1387V30H275.051V15.0156H276.896L277.266 17.0664H277.375C277.84 16.3281 278.492 15.7585 279.33 15.3574C280.169 14.9473 281.103 14.7422 282.133 14.7422C283.938 14.7422 285.296 15.1797 286.207 16.0547C287.118 16.9206 287.574 18.3105 287.574 20.2246V30H285.305ZM297.09 28.4004C297.491 28.4004 297.878 28.373 298.252 28.3184C298.626 28.2546 298.922 28.1908 299.141 28.127V29.8633C298.895 29.9818 298.53 30.0775 298.047 30.1504C297.573 30.2324 297.145 30.2734 296.762 30.2734C293.863 30.2734 292.414 28.7467 292.414 25.6934V16.7793H290.268V15.6855L292.414 14.7422L293.371 11.543H294.684V15.0156H299.031V16.7793H294.684V25.5977C294.684 26.5 294.898 27.1927 295.326 27.6758C295.755 28.1589 296.342 28.4004 297.09 28.4004Z" transform="translate(30 136)" fill="white"/>
<path d="M9.49994 0.0473362C13.4999 -0.352664 16.1666 1.88067 16.9999 3.04734C18.2 0.247314 21.8333 -0.11934 23.4999 0.0473362C27.0999 0.0473362 28.6666 3.04735 28.9999 4.54736C36.4999 1.54736 45.4999 9.04736 40.9999 16.5474C37.3999 22.5474 32.8332 22.3807 30.9999 21.5474C30.4999 22.5474 31.4999 23.0474 27.9999 24.5474C25.1999 25.7474 22.8332 25.0474 21.9999 24.5474C21.4999 25.5474 20.4999 29.5474 15.4999 29.5474C11.4999 29.5474 9.16658 26.214 8.49991 24.5474C3.49991 24.0474 -0.00012207 21.5474 0 17.5474C0.000100663 14.2489 1.99996 11.8807 3.49994 11.0474C2.99994 5.54736 4.49994 0.547336 9.49994 0.0473362Z" transform="translate(280.5 61.9526)" fill="#00A1E1"/>
</svg>
