<svg width="200" height="100" viewBox="0 0 200 100" fill="none" xmlns="http://www.w3.org/2000/svg">
<rect opacity="0.01" width="200" height="100" fill="white"/>
<rect width="200" height="33.0275" transform="translate(0 33)" fill="black"/>
<path d="M19.1219 11.9856C20.1065 8.30898 21.0296 4.69465 22.2604 1.20495C22.568 0.332527 22.9373 -0.103686 23.8603 0.0209462C24.968 0.145578 26.0757 0.0209462 27.1834 0.0209462C28.845 0.0209462 28.845 0.0832625 28.2911 1.70348C26.8142 5.69171 25.3988 9.67994 23.9219 13.6682C23.0603 16.0985 22.0757 18.4665 21.3373 20.8968C20.9065 22.2055 19.9834 21.7069 19.1834 21.8316C18.3834 21.9562 17.9527 21.7069 17.645 20.8968C16.7834 18.3419 15.7988 15.7869 14.8757 13.232C14.7527 12.8581 14.6911 12.4218 14.2604 12.1103C13.2142 15.0391 12.045 17.968 11.1219 20.8968C10.6911 22.2055 9.82958 21.8316 8.96804 21.8939C8.10651 21.9562 7.55266 21.8316 7.24497 20.8345C5.02958 14.4783 2.69112 8.18435 0.352659 1.89043C-0.262725 0.207895 -0.201187 0.0832624 1.58343 0.0832624C2.69112 0.0832624 3.79881 0.145578 4.90651 0.0832624C5.70651 0.0209463 6.0142 0.332527 6.26035 1.08032C7.36804 4.38307 8.35266 7.68582 9.2142 11.0509C9.27574 11.4248 9.39881 11.7364 9.58343 12.2349C10.6911 8.55825 11.7988 5.06855 12.845 1.51653C13.0296 0.831055 13.2757 0.394843 14.1373 0.394843C14.9988 0.394843 15.4911 0.519475 15.7988 1.51653C16.845 5.00623 18.0142 8.49593 19.1219 11.9856Z" transform="translate(41.9879 39.3977)" fill="white"/>
<path d="M11.016 0C4.55445 0 -0.0609304 4.67371 0.000608096 11.2792C0.000608096 17.8847 4.43138 22.4338 10.8929 22.4338C17.2314 22.4338 21.7852 17.8224 21.8468 11.4038C21.8468 4.67371 17.4775 0.0623161 11.016 0ZM13.2929 16.5138C11.3237 17.5731 9.35445 17.2616 7.63137 15.9529C5.6006 14.395 5.23138 12.1516 5.66214 9.78362C6.21599 6.85477 8.61599 5.0476 11.5083 5.35918C14.216 5.67076 16.1237 8.10109 16.1237 11.2792C16.1852 13.5849 15.3237 15.4544 13.2929 16.5138Z" transform="translate(141.54 38.9202)" fill="white"/>
<path d="M5.63391 10.815C5.63391 13.9931 5.57237 17.1713 5.63391 20.3494C5.63391 21.4088 5.32622 21.7203 4.3416 21.658C3.17237 21.5957 2.06467 21.5957 0.895444 21.658C0.280059 21.658 0.0339089 21.5334 0.0339089 20.8479C0.0339089 14.1801 0.0339089 7.51227 0.0339089 0.78213C0.0339089 0.532866 -0.150706 0.0343374 0.341601 0.0343374C0.956986 0.0343374 1.51082 -0.152611 2.06467 0.345918C3.78775 2.02845 5.57237 3.71099 7.35698 5.3312C9.08006 7.01374 10.8647 8.63396 12.7724 10.5034C12.7724 7.263 12.8339 4.33415 12.7724 1.34298C12.7724 0.345918 12.957 -0.0902947 14.0031 0.0343374C15.1724 0.15897 16.4031 0.0966535 17.5724 0.0343374C18.1262 0.0343374 18.3724 0.221286 18.3724 0.844446C18.3724 7.51227 18.3724 14.1801 18.3724 20.9102C18.3724 21.1595 18.4954 21.5957 18.0647 21.5957C17.4493 21.658 16.8339 21.845 16.3416 21.3464C15.8493 20.8479 15.2954 20.2871 14.8031 19.7885C11.8493 16.735 8.89545 13.6816 5.94161 10.6281C5.88007 10.6904 5.75699 10.7527 5.63391 10.815Z" transform="translate(165.507 39.3218)" fill="white"/>
<path d="M12.9252 10.5131C12.9252 7.148 12.9252 4.09452 12.9252 1.10334C12.9252 0.293235 13.0483 -0.0183456 13.9098 0.0439705C15.1406 0.106287 16.3713 0.106287 17.6021 0.0439705C18.279 0.0439705 18.4637 0.230919 18.4637 0.916396C18.4637 7.58422 18.4637 14.1897 18.4637 20.8575C18.4637 21.1691 18.6483 21.6053 18.156 21.6677C17.5406 21.73 16.9867 21.7923 16.4329 21.2938C14.7098 19.4866 12.8637 17.7417 11.1406 15.9346C9.4175 14.1897 7.75596 12.3826 6.03288 10.5754C5.9098 10.6377 5.78673 10.7 5.66365 10.8247C5.66365 13.8781 5.66365 16.9316 5.66365 19.9851C5.66365 21.73 5.66365 21.73 4.00211 21.6677C2.77134 21.6677 1.17134 22.1039 0.432882 21.4807C-0.367118 20.7329 0.186729 19.0504 0.186729 17.8041C0.186729 12.3202 0.186729 6.83642 0.186729 1.35261C0.186729 0.916396 -0.120964 0.230919 0.494421 0.106287C1.10981 -0.0183455 1.78673 -0.142978 2.34057 0.417867C4.18673 2.22503 6.09442 4.0322 7.94057 5.77705C9.47904 7.27264 11.079 8.76822 12.9252 10.5131Z" transform="translate(5.53845 39.3748)" fill="white"/>
<path d="M2.61484 15.4666C3.16869 15.4666 3.66099 15.5289 4.21484 15.4666C4.76868 15.4043 4.9533 15.6535 5.19946 16.0898C6.12254 18.0216 10.061 18.2708 11.2918 16.526C12.0302 15.4666 11.4764 14.0956 9.99946 13.7217C8.76869 13.4102 7.47638 13.3479 6.24561 13.1609C4.52253 12.9116 2.86099 12.3508 1.63023 11.1045C-0.585159 8.79878 -0.400548 4.49897 1.87638 2.31791C5.26099 -0.922531 11.7225 -0.735583 14.9841 2.6918C15.9071 3.68886 16.3379 4.81055 16.5225 6.11919C16.6456 6.86698 16.3379 7.05393 15.661 6.99161C14.7379 6.9293 13.8764 6.99161 12.9533 6.99161C12.0918 6.99161 11.4148 7.11624 10.9225 5.99455C10.3072 4.6236 7.04561 4.6236 6.06099 5.74529C5.13792 6.80466 5.69177 8.30025 7.23023 8.61183C8.52254 8.86109 9.81484 8.98573 11.1071 9.17267C11.7225 9.29731 12.3995 9.48425 13.0148 9.60889C15.2918 10.2944 16.8302 11.7276 17.1995 14.158C17.6302 16.8376 16.8918 19.0809 14.6764 20.7011C11.3533 23.1315 5.81484 23.1315 2.5533 20.7011C1.07638 19.6418 0.276375 18.1462 0.0302215 16.339C-0.0928554 15.5289 0.153304 15.2797 0.891766 15.4043C1.44561 15.5289 2.061 15.4666 2.61484 15.4666Z" transform="translate(108.464 38.7832)" fill="white"/>
<path d="M0.0615399 10.843C0.0615399 7.60256 0.123078 4.36213 0.0615399 1.12169C0.0615399 0.249264 0.307693 0 1.16923 0C4.92308 0.0623161 8.61539 0.0623161 12.3692 0C13.1692 0 13.4769 0.186948 13.4154 1.05937C13.2923 2.3057 13.7846 3.92591 13.1692 4.67371C12.5538 5.48382 10.8923 4.86065 9.66154 4.92297C8.61539 4.98529 7.50769 4.98529 6.46154 4.92297C5.78462 4.86065 5.53846 5.10992 5.53846 5.7954C5.53846 7.91414 5.47693 7.91414 7.56923 7.91414C8.8 7.91414 10.0308 8.03877 11.2615 7.91414C12.4923 7.78951 12.8 8.28804 12.6769 9.40973C12.6154 10.1575 12.6154 10.9053 12.6769 11.6531C12.8 12.6502 12.4923 13.0241 11.4462 12.9617C9.78462 12.8371 8.06154 12.9617 6.4 12.8994C5.78462 12.8994 5.53846 13.0864 5.53846 13.7719C5.41538 16.3891 5.41539 16.3891 7.93846 16.3891C9.6 16.3891 11.2 16.3891 12.8615 16.3891C13.4769 16.3891 13.6615 16.5761 13.6 17.1369C13.5385 18.3209 13.5385 19.5673 13.6 20.7513C13.6 21.3744 13.4154 21.6237 12.8 21.6237C8.8 21.6237 4.86154 21.5614 0.861539 21.6237C0.0615394 21.6237 0 21.3121 0 20.6889C0.0615385 17.3862 0.0615399 14.1458 0.0615399 10.843Z" transform="translate(26.7713 39.3562)" fill="white"/>
<path d="M10.5642 12.0985C11.4873 8.04794 12.9642 4.49593 14.4411 0.94391C14.7488 0.196117 15.118 -0.0531477 15.918 0.0091684C17.1488 0.0714845 18.3796 0.0091684 19.6103 0.0091684C20.9026 0.0091684 21.0873 0.196117 20.5334 1.44244C18.995 4.99445 17.4565 8.48415 15.918 11.9739C14.6257 14.9027 13.395 17.7693 12.1642 20.6981C11.8565 21.4459 11.4873 21.8821 10.5642 21.8198C9.70265 21.7575 9.21034 21.6952 8.77957 20.7604C6.01034 14.3419 3.17957 7.98563 0.348803 1.62939C-0.266582 0.196117 -0.143506 0.0091684 1.33342 0.0091684C2.50265 0.0091684 3.73342 0.0714845 4.90265 0.0091684C5.70265 -0.0531477 6.01034 0.258433 6.31804 1.00623C7.73342 4.30898 9.08727 7.61173 10.1334 11.0391C10.195 11.2884 10.318 11.4753 10.5642 12.0985Z" transform="translate(72.2687 39.4092)" fill="white"/>
<path d="M5.67043 21.6303C4.07043 21.6303 2.47043 21.6303 0.870426 21.6303C0.193503 21.6303 0.00889122 21.4434 0.00889122 20.7579C0.0704297 19.8231 0.0704297 18.9507 0.00889122 18.016C-0.0526472 17.1436 0.193509 16.8943 1.11659 16.8943C2.71659 16.9566 2.71658 16.8943 2.71658 15.2741C2.71658 12.096 2.71658 8.98015 2.71658 5.80203C2.71658 4.9296 2.59351 4.36876 1.54735 4.55571C0.501199 4.74265 0.255041 4.30644 0.255041 3.24707C0.31658 0.00663171 0.255049 0.00663199 3.45505 0.00663199C5.48582 0.00663199 7.57812 0.0689481 9.60889 0.00663199C10.5935 -0.0556841 10.9012 0.318212 10.7781 1.25295C10.7166 1.62685 10.7781 2.00075 10.7781 2.37464C10.7781 4.30644 10.7781 4.30644 8.93197 4.55571C8.37812 4.61802 8.37813 4.86729 8.37813 5.24118C8.37813 8.91783 8.37813 12.5322 8.37813 16.2088C8.37813 16.7697 8.56274 16.9566 9.11658 16.8943C9.54735 16.832 9.91658 16.8943 10.3474 16.8943C10.9627 16.832 11.1474 17.0812 11.1474 17.6421C11.0858 18.7015 11.0858 19.6985 11.1474 20.7579C11.2089 21.4434 10.9012 21.568 10.2858 21.568C8.68581 21.568 7.20889 21.6303 5.67043 21.6303Z" transform="translate(127.932 39.3496)" fill="white"/>
<path d="M5.47031 21.6741C3.93185 21.6741 2.45493 21.6741 0.916467 21.6741C0.301082 21.6741 -0.00661584 21.4872 0.0549226 20.864C0.116461 20.3655 0.0549226 19.8669 0.0549226 19.3684C0.0549226 18.6206 -0.129685 17.7482 0.178007 17.1874C0.547238 16.6888 1.47031 17.0004 2.14724 17.0004C2.63954 17.0004 2.76262 16.8758 2.76262 16.3772C2.76262 12.7006 2.76262 9.02395 2.76262 5.28499C2.76262 4.41256 2.14723 4.59951 1.778 4.66182C0.485694 4.84877 0.116467 4.35024 0.301082 3.10392C0.424159 2.16918 -0.00660834 0.922859 0.485699 0.362015C1.03955 -0.323462 2.33185 0.175066 3.31646 0.175066C5.47031 0.11275 7.6857 0.175066 9.83954 0.175066C10.6395 0.175066 11.0088 0.362014 10.8857 1.23444C10.8242 1.67065 10.8857 2.16918 10.8857 2.60539C10.8857 4.53719 10.8857 4.53719 8.978 4.72414C8.36261 4.78646 8.36261 5.09804 8.36261 5.53425C8.36261 9.08627 8.36261 12.6383 8.36261 16.2526C8.36261 17.0627 8.67031 17.125 9.28569 17.125C11.0088 17.125 11.0088 17.125 11.0088 18.8076C11.0088 21.7987 11.0088 21.7987 8.05492 21.7987C7.19338 21.6741 6.33185 21.6741 5.47031 21.6741Z" transform="translate(94.5933 39.3057)" fill="white"/>
<path d="M3.69231 0C1.53846 0 0 1.5579 0 3.73897C0 5.98234 1.53846 7.66488 3.69231 7.66488C5.84615 7.66488 7.38462 6.10698 7.38462 3.92591C7.38462 1.62022 5.84615 0 3.69231 0ZM3.75385 7.04172C1.96923 7.04172 0.738469 5.73308 0.738469 3.8636C0.738469 1.99411 1.96923 0.685477 3.69231 0.685477C5.47692 0.685477 6.70769 1.99411 6.76923 3.8636C6.76923 5.67076 5.47693 6.9794 3.75385 7.04172Z" transform="translate(187.018 37.3621)" fill="white"/>
<path d="M2.43898 2.1368C2.86975 1.70059 2.99282 1.13974 2.56205 0.5789C1.94666 -0.168893 1.14666 -0.0442612 0.408201 0.142687C-0.268722 0.267319 0.100509 0.952796 0.100509 1.38901C0.0389705 1.94985 0.0389705 2.44838 0.100509 3.00923C0.100509 3.25849 -0.0841064 3.6947 0.408201 3.6947C0.777432 3.6947 0.592832 3.32081 0.65437 3.13386C0.715909 2.94691 0.53129 2.63533 0.90052 2.5107C1.20821 2.44838 1.39282 2.57301 1.63897 2.82228C1.94666 3.13386 2.0082 3.75702 2.56205 3.75702C2.93128 3.07154 1.70052 2.88459 2.43898 2.1368ZM1.20821 1.94985C0.715905 2.01217 0.531289 1.82522 0.592828 1.32669C0.592828 0.89048 0.715905 0.641216 1.20821 0.641216C1.63898 0.703532 2.00821 0.703532 2.13129 1.26438C2.00821 1.82522 1.63898 1.94985 1.20821 1.94985Z" transform="translate(189.563 39.3381)" fill="white"/>
</svg>
