<svg width="164" height="100" viewBox="0 0 164 100" fill="none" xmlns="http://www.w3.org/2000/svg">
<path fill-rule="evenodd" clip-rule="evenodd" d="M14.5505 0L10.1678 12.8834L5.60983 0H0L6.92464 18.8431H13.0604L19.985 0H14.5505Z" transform="translate(0 80.5432)" fill="#BF0024"/>
<path fill-rule="evenodd" clip-rule="evenodd" d="M4.90861 17.1779C4.90861 14.3734 7.1876 12.0947 9.99252 12.0947C12.7974 12.0947 15.0764 14.3734 15.0764 17.1779C15.0764 19.9825 12.7974 22.2612 9.99252 22.2612C7.1876 22.2612 4.90861 19.9825 4.90861 17.1779ZM14.9011 0V9.20245C13.3234 8.0631 11.4826 7.36196 9.37894 7.36196C4.20738 7.36196 0 11.7441 0 17.0903C0 22.4365 4.20738 26.8186 9.37894 26.8186C11.395 26.8186 13.3234 26.1174 14.9011 24.9781V26.5557H19.7221V0H14.9011Z" transform="translate(43.4762 72.8311)" fill="#BF0024"/>
<path fill-rule="evenodd" clip-rule="evenodd" d="M4.9086 9.72831C4.9086 6.92375 7.1876 4.64505 9.99252 4.64505C12.7974 4.64505 15.0764 6.92375 15.0764 9.72831C15.0764 12.5329 12.7974 14.8116 9.99252 14.8116C7.1876 14.8116 4.9086 12.5329 4.9086 9.72831ZM14.9011 0.26293V1.84049C13.3234 0.701138 11.4826 0 9.37894 0C4.20737 0 0 4.38212 0 9.72831C0 15.0745 4.20737 19.4566 9.37894 19.4566C11.395 19.4566 13.3234 18.7555 14.9011 17.6161V19.1937H19.7221V0.26293H14.9011Z" transform="translate(66.5291 80.2805)" fill="#BF0024"/>
<path fill-rule="evenodd" clip-rule="evenodd" d="M9.90487 8.15075H7.01229C7.01229 8.15075 7.01229 7.53725 7.01229 7.01139C7.01229 5.7844 7.0123 4.29448 8.94068 4.29448C9.4666 4.29448 9.90487 4.38212 9.90487 4.38212V0C9.90487 0 9.11598 0 8.59006 0C4.11972 0.175285 2.19134 1.66521 2.19134 6.13497V8.15075H0V12.4452H2.19134V26.9062H7.09995V12.5329H9.99252V8.15075H9.90487Z" transform="translate(89.4944 72.3928)" fill="#BF0024"/>
<path fill-rule="evenodd" clip-rule="evenodd" d="M4.82095 2.01578C6.22341 0.788784 8.23945 0 10.3431 0C14.8135 0 17.3554 2.80456 17.3554 6.57318V8.6766V19.1937H12.3592V9.11481V8.15075C12.3592 5.34619 10.4308 4.5574 8.94067 4.5574C7.53821 4.5574 4.82095 5.34619 4.99626 8.6766V9.9036V19.1061H0V0.350571H4.82095V2.01578Z" transform="translate(123.855 80.1929)" fill="#BF0024"/>
<path fill-rule="evenodd" clip-rule="evenodd" d="M5.17157 11.2182C5.43454 13.5846 7.36292 15.3374 9.81722 15.3374C11.7456 15.3374 12.9728 14.5486 13.7616 13.234H19.0209C18.1443 16.1262 14.9011 19.4566 9.99253 19.4566C4.11973 19.4566 0 15.0745 0 9.72831C0 4.38212 4.38269 0 9.99253 0C15.5147 0 19.4591 4.73269 19.4591 9.72831C19.4591 10.78 19.3715 11.2182 19.3715 11.2182H5.17157ZM14.1999 7.62489C13.7616 5.52147 12.0086 4.29448 9.81722 4.29448C7.53823 4.29448 5.78515 5.60911 5.34688 7.62489H14.1999Z" transform="translate(144.541 80.1929)" fill="#BF0024"/>
<path fill-rule="evenodd" clip-rule="evenodd" d="M14.0246 0.876424C12.2715 1.22699 10.8691 2.8922 10.8691 4.73269C10.8691 4.73269 10.8691 4.82034 10.8691 4.90798C13.674 5.52148 15.1641 7.44961 15.1641 9.9036C15.1641 12.7082 12.8851 14.9869 9.99252 14.9869C7.09995 14.9869 4.55799 12.6205 4.55799 9.11481C4.55799 4.82033 8.23944 0.876427 13.411 0.701142C13.4987 0.701142 13.674 0.701142 13.7616 0.701142C12.6221 0.26293 11.395 0 10.0802 0C4.47034 0 0 4.38212 0 9.81596C0 15.2498 4.55799 19.6319 10.0802 19.6319C15.69 19.6319 20.1603 15.2498 20.1603 9.81596C20.248 5.87205 17.706 2.36635 14.0246 0.876424Z" transform="translate(20.248 79.9299)" fill="#BF0024"/>
<path fill-rule="evenodd" clip-rule="evenodd" d="M10.1678 0C4.55799 0 0 4.38212 0 9.81595C0 13.8475 2.54195 17.3532 6.22341 18.8431C7.97648 18.4926 9.37895 16.8273 9.37895 14.9869V14.8992C6.57403 14.2857 5.08391 12.3576 5.08391 9.9036C5.08391 7.09904 7.36291 4.82033 10.2555 4.82033C13.0604 4.82033 15.69 7.18668 15.69 10.6924C15.69 14.9869 12.0086 18.9308 6.83699 19.1061C6.74933 19.1061 6.57403 19.1061 6.48637 19.1061C7.62587 19.5443 8.85302 19.8072 10.1678 19.8072C15.7777 19.8072 20.248 15.4251 20.248 9.99124C20.3356 4.38212 15.7777 0 10.1678 0Z" transform="translate(100.451 80.1929)" fill="#BF0024"/>
<path fill-rule="evenodd" clip-rule="evenodd" d="M44.6157 2.45399C38.9182 3.68098 34.6232 8.76424 34.6232 14.8992C34.6232 15.0745 34.6232 15.1621 34.6232 15.3374C43.6515 17.2656 48.1219 23.4005 48.1219 31.4636C48.1219 40.4908 40.759 47.8528 31.8183 47.8528C22.79 47.8528 14.4629 40.3155 14.4629 29.0973C14.4629 15.4251 26.1208 2.62927 42.6873 2.19106C42.9503 2.19106 43.4762 2.19106 43.9145 2.19106C40.3207 0.788782 36.3763 0 32.1689 0C14.3752 0 0 14.0228 0 31.376C0 48.7292 14.4629 62.752 32.1689 62.752C49.9626 62.752 64.3378 48.7292 64.3378 31.376C64.4254 18.3173 56.2736 7.18668 44.6157 2.45399Z" transform="translate(49.612)" fill="#BF0024"/>
</svg>
