<svg width="355" height="203" viewBox="0 0 355 203" fill="none" xmlns="http://www.w3.org/2000/svg">
<rect width="355" height="90" transform="translate(0 113)" fill="#00A1E1"/>
<rect width="355" height="113" fill="#013C4E"/>
<path d="M21.4717 36.6738C21.4717 39.3809 20.4941 41.5137 18.5391 43.0723C16.5977 44.6309 13.8906 45.4102 10.418 45.4102C7.21875 45.4102 4.38867 44.8086 1.92773 43.6055V37.6992C3.95117 38.6016 5.66016 39.2373 7.05469 39.6064C8.46289 39.9756 9.74805 40.1602 10.9102 40.1602C12.3047 40.1602 13.3711 39.8936 14.1094 39.3604C14.8613 38.8271 15.2373 38.0342 15.2373 36.9814C15.2373 36.3936 15.0732 35.874 14.7451 35.4229C14.417 34.958 13.9316 34.5137 13.2891 34.0898C12.6602 33.666 11.3682 32.9893 9.41309 32.0596C7.58105 31.1982 6.20703 30.3711 5.29102 29.5781C4.375 28.7852 3.64355 27.8623 3.09668 26.8096C2.5498 25.7568 2.27637 24.5264 2.27637 23.1182C2.27637 20.4658 3.17188 18.3809 4.96289 16.8633C6.76758 15.3457 9.25586 14.5869 12.4277 14.5869C13.9863 14.5869 15.4697 14.7715 16.8779 15.1406C18.2998 15.5098 19.7832 16.0293 21.3281 16.6992L19.2773 21.6416C17.6777 20.9854 16.3516 20.5273 15.2988 20.2676C14.2598 20.0078 13.2344 19.8779 12.2227 19.8779C11.0195 19.8779 10.0967 20.1582 9.4541 20.7188C8.81152 21.2793 8.49023 22.0107 8.49023 22.9131C8.49023 23.4736 8.62012 23.9658 8.87988 24.3896C9.13965 24.7998 9.5498 25.2031 10.1104 25.5996C10.6846 25.9824 12.0312 26.6797 14.1504 27.6914C16.9531 29.0312 18.874 30.3779 19.9131 31.7314C20.9521 33.0713 21.4717 34.7188 21.4717 36.6738ZM49.0407 45L46.8669 37.8633H35.9363L33.7624 45H26.9128L37.4948 14.8945H45.2673L55.8904 45H49.0407ZM45.3493 32.5312C43.3396 26.0645 42.2048 22.4072 41.945 21.5596C41.6989 20.7119 41.5212 20.042 41.4118 19.5498C40.9607 21.2998 39.6687 25.627 37.5359 32.5312H45.3493ZM63.4643 45V15.0176H69.8217V39.75H81.9828V45H63.4643ZM108.26 45H90.9923V15.0176H108.26V20.2266H97.3498V26.8096H107.501V32.0186H97.3498V39.75H108.26V45ZM136.014 36.6738C136.014 39.3809 135.036 41.5137 133.081 43.0723C131.14 44.6309 128.433 45.4102 124.96 45.4102C121.761 45.4102 118.931 44.8086 116.47 43.6055V37.6992C118.493 38.6016 120.202 39.2373 121.597 39.6064C123.005 39.9756 124.29 40.1602 125.452 40.1602C126.847 40.1602 127.913 39.8936 128.651 39.3604C129.403 38.8271 129.779 38.0342 129.779 36.9814C129.779 36.3936 129.615 35.874 129.287 35.4229C128.959 34.958 128.474 34.5137 127.831 34.0898C127.202 33.666 125.91 32.9893 123.955 32.0596C122.123 31.1982 120.749 30.3711 119.833 29.5781C118.917 28.7852 118.185 27.8623 117.639 26.8096C117.092 25.7568 116.818 24.5264 116.818 23.1182C116.818 20.4658 117.714 18.3809 119.505 16.8633C121.309 15.3457 123.798 14.5869 126.97 14.5869C128.528 14.5869 130.012 14.7715 131.42 15.1406C132.842 15.5098 134.325 16.0293 135.87 16.6992L133.819 21.6416C132.22 20.9854 130.893 20.5273 129.841 20.2676C128.802 20.0078 127.776 19.8779 126.765 19.8779C125.561 19.8779 124.639 20.1582 123.996 20.7188C123.353 21.2793 123.032 22.0107 123.032 22.9131C123.032 23.4736 123.162 23.9658 123.422 24.3896C123.682 24.7998 124.092 25.2031 124.652 25.5996C125.226 25.9824 126.573 26.6797 128.692 27.6914C131.495 29.0312 133.416 30.3779 134.455 31.7314C135.494 33.0713 136.014 34.7188 136.014 36.6738ZM151.483 45H145.228V15.0176H162.414V20.2266H151.483V27.958H161.655V33.1465H151.483V45ZM199.273 29.9678C199.273 34.9307 198.042 38.7451 195.581 41.4111C193.12 44.0771 189.593 45.4102 184.999 45.4102C180.406 45.4102 176.878 44.0771 174.417 41.4111C171.956 38.7451 170.726 34.917 170.726 29.9268C170.726 24.9365 171.956 21.1289 174.417 18.5039C176.892 15.8652 180.433 14.5459 185.04 14.5459C189.648 14.5459 193.168 15.8721 195.602 18.5244C198.049 21.1768 199.273 24.9912 199.273 29.9678ZM177.391 29.9678C177.391 33.3174 178.027 35.8398 179.298 37.5352C180.57 39.2305 182.47 40.0781 184.999 40.0781C190.072 40.0781 192.608 36.708 192.608 29.9678C192.608 23.2139 190.085 19.8369 185.04 19.8369C182.511 19.8369 180.604 20.6914 179.319 22.4004C178.034 24.0957 177.391 26.6182 177.391 29.9678ZM215.624 28.3271H217.675C219.685 28.3271 221.168 27.9922 222.125 27.3223C223.082 26.6523 223.561 25.5996 223.561 24.1641C223.561 22.7422 223.068 21.7305 222.084 21.1289C221.113 20.5273 219.603 20.2266 217.552 20.2266H215.624V28.3271ZM215.624 33.4951V45H209.267V15.0176H218.003C222.077 15.0176 225.092 15.7627 227.047 17.2529C229.002 18.7295 229.98 20.9785 229.98 24C229.98 25.7637 229.494 27.3359 228.523 28.7168C227.553 30.084 226.179 31.1572 224.401 31.9365C228.913 38.6768 231.853 43.0312 233.22 45H226.165L219.008 33.4951H215.624ZM253.509 19.8779C251.116 19.8779 249.263 20.7803 247.951 22.585C246.638 24.376 245.982 26.8779 245.982 30.0908C245.982 36.7764 248.491 40.1191 253.509 40.1191C255.614 40.1191 258.164 39.5928 261.158 38.54V43.8721C258.697 44.8975 255.949 45.4102 252.914 45.4102C248.553 45.4102 245.217 44.0908 242.906 41.4521C240.595 38.7998 239.44 34.999 239.44 30.0498C239.44 26.9326 240.008 24.2051 241.142 21.8672C242.277 19.5156 243.904 17.7178 246.023 16.4736C248.156 15.2158 250.651 14.5869 253.509 14.5869C256.421 14.5869 259.346 15.291 262.286 16.6992L260.235 21.8672C259.114 21.334 257.986 20.8691 256.851 20.4727C255.717 20.0762 254.602 19.8779 253.509 19.8779ZM288.604 45H271.336V15.0176H288.604V20.2266H277.694V26.8096H287.845V32.0186H277.694V39.75H288.604V45ZM16.96 58.7041C13.665 58.7041 11.0605 59.8047 9.14648 62.0059C7.24609 64.1934 6.2959 67.1943 6.2959 71.0088C6.2959 74.9326 7.21191 77.9678 9.04395 80.1143C10.8896 82.2471 13.5146 83.3135 16.9189 83.3135C19.0107 83.3135 21.3965 82.9375 24.0762 82.1855V85.2412C21.998 86.0205 19.4346 86.4102 16.3857 86.4102C11.9697 86.4102 8.55859 85.0703 6.15234 82.3906C3.75977 79.7109 2.56348 75.9033 2.56348 70.9678C2.56348 67.8779 3.1377 65.1709 4.28613 62.8467C5.44824 60.5225 7.11621 58.7314 9.29004 57.4736C11.4775 56.2158 14.0479 55.5869 17.001 55.5869C20.1455 55.5869 22.8936 56.1611 25.2451 57.3096L23.7686 60.3037C21.499 59.2373 19.2295 58.7041 16.96 58.7041ZM52.372 86H35.6582V56.0176H52.372V59.1143H39.1445V68.7734H51.5722V71.8496H39.1445V82.8828H52.372V86ZM67.5634 73.5312V86H64.0771V56.0176H72.3007C75.9784 56.0176 78.6923 56.7217 80.4423 58.1299C82.206 59.5381 83.0878 61.6572 83.0878 64.4873C83.0878 68.4521 81.078 71.1318 77.0585 72.5264L85.2001 86H81.078L73.8183 73.5312H67.5634ZM67.5634 70.5371H72.3417C74.8027 70.5371 76.6073 70.0518 77.7558 69.0811C78.9042 68.0967 79.4784 66.627 79.4784 64.6719C79.4784 62.6895 78.8905 61.2607 77.7148 60.3857C76.5527 59.5107 74.6796 59.0732 72.0956 59.0732H67.5634V70.5371ZM104.308 86H100.822V59.1143H91.327V56.0176H113.804V59.1143H104.308V86ZM123.376 86V56.0176H126.862V86H123.376ZM143.633 86H140.146V56.0176H156.86V59.1143H143.633V70.0859H156.06V73.1826H143.633V86ZM166.884 86V56.0176H170.37V86H166.884ZM200.368 86H183.654V56.0176H200.368V59.1143H187.14V68.7734H199.568V71.8496H187.14V82.8828H200.368V86ZM236.006 70.7217C236.006 75.6709 234.659 79.458 231.966 82.083C229.286 84.6943 225.424 86 220.379 86H212.073V56.0176H221.26C225.923 56.0176 229.546 57.3096 232.13 59.8936C234.714 62.4775 236.006 66.0869 236.006 70.7217ZM232.314 70.8447C232.314 66.9346 231.33 63.9883 229.361 62.0059C227.406 60.0234 224.494 59.0322 220.625 59.0322H215.559V82.9854H219.804C223.961 82.9854 227.085 81.9668 229.176 79.9297C231.268 77.8789 232.314 74.8506 232.314 70.8447Z" transform="translate(30 6)" fill="white"/>
<path d="M15.4219 15.8359C15.4219 17.8594 14.7292 19.418 13.3438 20.5117C11.9674 21.5964 9.99414 22.1387 7.42383 22.1387H5.07227V30H2.74805V10.0117H7.92969C12.9245 10.0117 15.4219 11.9531 15.4219 15.8359ZM5.07227 20.1426H7.16406C9.22396 20.1426 10.7142 19.8099 11.6348 19.1445C12.5553 18.4792 13.0156 17.4128 13.0156 15.9453C13.0156 14.6237 12.5827 13.6393 11.7168 12.9922C10.8509 12.3451 9.50195 12.0215 7.66992 12.0215H5.07227V20.1426ZM28.4922 30L28.041 27.8672H27.9316C27.1842 28.806 26.4368 29.444 25.6895 29.7812C24.9512 30.1094 24.026 30.2734 22.9141 30.2734C21.4284 30.2734 20.2617 29.8906 19.4141 29.125C18.5755 28.3594 18.1562 27.2702 18.1562 25.8574C18.1562 22.8314 20.5762 21.2454 25.416 21.0996L27.959 21.0176V20.0879C27.959 18.9121 27.7038 18.0462 27.1934 17.4902C26.6921 16.9251 25.8854 16.6426 24.7734 16.6426C23.5247 16.6426 22.112 17.0254 20.5352 17.791L19.8379 16.0547C20.5762 15.6536 21.3828 15.3392 22.2578 15.1113C23.1419 14.8835 24.026 14.7695 24.9102 14.7695C26.6966 14.7695 28.0182 15.166 28.875 15.959C29.7409 16.752 30.1738 18.0234 30.1738 19.7734V30H28.4922ZM23.3652 28.4004C24.778 28.4004 25.8854 28.013 26.6875 27.2383C27.4987 26.4635 27.9043 25.3789 27.9043 23.9844V22.6309L25.6348 22.7266C23.8301 22.7904 22.5267 23.0729 21.7246 23.5742C20.9316 24.0664 20.5352 24.8366 20.5352 25.8848C20.5352 26.7051 20.7812 27.3294 21.2734 27.7578C21.7747 28.1862 22.472 28.4004 23.3652 28.4004ZM41.6992 14.7422C42.3646 14.7422 42.9616 14.7969 43.4902 14.9062L43.1758 17.0117C42.556 16.875 42.0091 16.8066 41.5352 16.8066C40.3229 16.8066 39.2839 17.2988 38.418 18.2832C37.5612 19.2676 37.1328 20.4935 37.1328 21.9609V30H34.8633V15.0156H36.7363L36.9961 17.791H37.1055C37.6615 16.8158 38.3314 16.0638 39.1152 15.5352C39.8991 15.0065 40.7604 14.7422 41.6992 14.7422ZM56.4922 27.9902H56.3691C55.321 29.5124 53.7533 30.2734 51.666 30.2734C49.7064 30.2734 48.1797 29.6035 47.0859 28.2637C46.0013 26.9238 45.459 25.0189 45.459 22.5488C45.459 20.0788 46.0059 18.1602 47.0996 16.793C48.1934 15.4258 49.7155 14.7422 51.666 14.7422C53.6986 14.7422 55.2572 15.4805 56.3418 16.957H56.5195L56.4238 15.877L56.3691 14.8242V8.72656H58.6387V30H56.793L56.4922 27.9902ZM51.9531 28.373C53.5026 28.373 54.6237 27.9538 55.3164 27.1152C56.0182 26.2676 56.3691 24.9049 56.3691 23.0273V22.5488C56.3691 20.4251 56.0137 18.9121 55.3027 18.0098C54.6009 17.0983 53.4753 16.6426 51.9258 16.6426C50.5951 16.6426 49.5742 17.1621 48.8633 18.2012C48.1615 19.2311 47.8105 20.6895 47.8105 22.5762C47.8105 24.4902 48.1615 25.9349 48.8633 26.9102C49.5651 27.8854 50.5951 28.373 51.9531 28.373ZM76.3984 22.4941C76.3984 24.9368 75.7832 26.8464 74.5527 28.2227C73.3223 29.5898 71.6224 30.2734 69.4531 30.2734C68.1133 30.2734 66.9238 29.959 65.8848 29.3301C64.8457 28.7012 64.0436 27.7988 63.4785 26.623C62.9134 25.4473 62.6309 24.071 62.6309 22.4941C62.6309 20.0514 63.2415 18.151 64.4629 16.793C65.6842 15.4258 67.3796 14.7422 69.5488 14.7422C71.6452 14.7422 73.3086 15.4395 74.5391 16.834C75.7786 18.2285 76.3984 20.1152 76.3984 22.4941ZM64.9824 22.4941C64.9824 24.4082 65.3652 25.8665 66.1309 26.8691C66.8965 27.8717 68.0221 28.373 69.5078 28.373C70.9935 28.373 72.1191 27.8763 72.8848 26.8828C73.6595 25.8802 74.0469 24.4173 74.0469 22.4941C74.0469 20.5892 73.6595 19.1445 72.8848 18.1602C72.1191 17.1667 70.9844 16.6699 69.4805 16.6699C67.9948 16.6699 66.8737 17.1576 66.1172 18.1328C65.3607 19.1081 64.9824 20.5618 64.9824 22.4941ZM85.2305 28.4004C85.6315 28.4004 86.0189 28.373 86.3926 28.3184C86.7663 28.2546 87.0625 28.1908 87.2812 28.127V29.8633C87.0352 29.9818 86.6706 30.0775 86.1875 30.1504C85.7135 30.2324 85.2852 30.2734 84.9023 30.2734C82.0039 30.2734 80.5547 28.7467 80.5547 25.6934V16.7793H78.4082V15.6855L80.5547 14.7422L81.5117 11.543H82.8242V15.0156H87.1719V16.7793H82.8242V25.5977C82.8242 26.5 83.0384 27.1927 83.4668 27.6758C83.8952 28.1589 84.4831 28.4004 85.2305 28.4004ZM109.184 24.6816C109.184 26.4408 108.546 27.8125 107.27 28.7969C105.993 29.7812 104.262 30.2734 102.074 30.2734C99.7044 30.2734 97.8815 29.9681 96.6055 29.3574V27.1152C97.4258 27.4616 98.319 27.735 99.2852 27.9355C100.251 28.1361 101.208 28.2363 102.156 28.2363C103.706 28.2363 104.872 27.9447 105.656 27.3613C106.44 26.7689 106.832 25.9486 106.832 24.9004C106.832 24.2077 106.691 23.6426 106.408 23.2051C106.135 22.7585 105.67 22.3483 105.014 21.9746C104.367 21.6009 103.378 21.1771 102.047 20.7031C100.188 20.0378 98.8568 19.2493 98.0547 18.3379C97.2617 17.4264 96.8652 16.237 96.8652 14.7695C96.8652 13.2292 97.444 12.0033 98.6016 11.0918C99.7591 10.1803 101.29 9.72461 103.195 9.72461C105.182 9.72461 107.01 10.0892 108.678 10.8184L107.953 12.8418C106.303 12.1491 104.699 11.8027 103.141 11.8027C101.91 11.8027 100.949 12.0671 100.256 12.5957C99.5632 13.1243 99.2168 13.8581 99.2168 14.7969C99.2168 15.4896 99.3444 16.0592 99.5996 16.5059C99.8548 16.9434 100.283 17.349 100.885 17.7227C101.495 18.0872 102.425 18.4928 103.674 18.9395C105.77 19.6868 107.21 20.4889 107.994 21.3457C108.787 22.2025 109.184 23.3145 109.184 24.6816ZM119.902 30.2734C118.927 30.2734 118.034 30.0957 117.223 29.7402C116.421 29.3757 115.746 28.8197 115.199 28.0723H115.035C115.145 28.9473 115.199 29.7767 115.199 30.5605V36.7266H112.93V15.0156H114.775L115.09 17.0664H115.199C115.783 16.2461 116.462 15.6536 117.236 15.2891C118.011 14.9245 118.9 14.7422 119.902 14.7422C121.889 14.7422 123.421 15.4212 124.496 16.7793C125.581 18.1374 126.123 20.0423 126.123 22.4941C126.123 24.9551 125.572 26.8691 124.469 28.2363C123.375 29.5944 121.853 30.2734 119.902 30.2734ZM119.574 16.6699C118.043 16.6699 116.936 17.0938 116.252 17.9414C115.568 18.7891 115.217 20.138 115.199 21.9883V22.4941C115.199 24.5996 115.55 26.1081 116.252 27.0195C116.954 27.9219 118.079 28.373 119.629 28.373C120.923 28.373 121.935 27.849 122.664 26.8008C123.402 25.7526 123.771 24.3079 123.771 22.4668C123.771 20.5983 123.402 19.1673 122.664 18.1738C121.935 17.1712 120.905 16.6699 119.574 16.6699ZM136.432 30.2734C134.217 30.2734 132.467 29.599 131.182 28.25C129.906 26.901 129.268 25.028 129.268 22.6309C129.268 20.2155 129.86 18.2969 131.045 16.875C132.239 15.4531 133.839 14.7422 135.844 14.7422C137.721 14.7422 139.207 15.362 140.301 16.6016C141.395 17.832 141.941 19.459 141.941 21.4824V22.918H131.619C131.665 24.6771 132.107 26.0124 132.945 26.9238C133.793 27.8353 134.982 28.291 136.514 28.291C138.127 28.291 139.722 27.9538 141.299 27.2793V29.3027C140.497 29.6491 139.736 29.8952 139.016 30.041C138.305 30.196 137.443 30.2734 136.432 30.2734ZM135.816 16.6426C134.613 16.6426 133.652 17.0345 132.932 17.8184C132.221 18.6022 131.801 19.6868 131.674 21.0723H139.508C139.508 19.6413 139.189 18.5475 138.551 17.791C137.913 17.0254 137.001 16.6426 135.816 16.6426ZM151.812 30.2734C149.643 30.2734 147.962 29.6081 146.768 28.2773C145.583 26.9375 144.99 25.0462 144.99 22.6035C144.99 20.097 145.592 18.1602 146.795 16.793C148.007 15.4258 149.73 14.7422 151.963 14.7422C152.683 14.7422 153.403 14.8197 154.123 14.9746C154.843 15.1296 155.408 15.3118 155.818 15.5215L155.121 17.4492C154.62 17.2487 154.073 17.0846 153.48 16.957C152.888 16.8203 152.364 16.752 151.908 16.752C148.864 16.752 147.342 18.6934 147.342 22.5762C147.342 24.4173 147.711 25.8301 148.449 26.8145C149.197 27.7988 150.299 28.291 151.758 28.291C153.007 28.291 154.287 28.0221 155.6 27.4844V29.4941C154.597 30.0137 153.335 30.2734 151.812 30.2734ZM161.438 30H159.168V15.0156H161.438V30ZM158.977 10.9551C158.977 10.4355 159.104 10.0573 159.359 9.82031C159.615 9.57422 159.934 9.45117 160.316 9.45117C160.681 9.45117 160.995 9.57422 161.26 9.82031C161.524 10.0664 161.656 10.4447 161.656 10.9551C161.656 11.4655 161.524 11.8483 161.26 12.1035C160.995 12.3496 160.681 12.4727 160.316 12.4727C159.934 12.4727 159.615 12.3496 159.359 12.1035C159.104 11.8483 158.977 11.4655 158.977 10.9551ZM168.52 30H166.25V8.72656H168.52V30ZM175.602 30H173.332V15.0156H175.602V30ZM173.141 10.9551C173.141 10.4355 173.268 10.0573 173.523 9.82031C173.779 9.57422 174.098 9.45117 174.48 9.45117C174.845 9.45117 175.16 9.57422 175.424 9.82031C175.688 10.0664 175.82 10.4447 175.82 10.9551C175.82 11.4655 175.688 11.8483 175.424 12.1035C175.16 12.3496 174.845 12.4727 174.48 12.4727C174.098 12.4727 173.779 12.3496 173.523 12.1035C173.268 11.8483 173.141 11.4655 173.141 10.9551ZM190.08 25.9121C190.08 27.3066 189.561 28.3822 188.521 29.1387C187.482 29.8952 186.024 30.2734 184.146 30.2734C182.16 30.2734 180.61 29.959 179.498 29.3301V27.2246C180.218 27.5892 180.988 27.8763 181.809 28.0859C182.638 28.2956 183.436 28.4004 184.201 28.4004C185.386 28.4004 186.298 28.2135 186.936 27.8398C187.574 27.457 187.893 26.8783 187.893 26.1035C187.893 25.5202 187.637 25.0234 187.127 24.6133C186.626 24.194 185.641 23.7018 184.174 23.1367C182.779 22.6172 181.786 22.166 181.193 21.7832C180.61 21.3913 180.173 20.9492 179.881 20.457C179.598 19.9648 179.457 19.377 179.457 18.6934C179.457 17.472 179.954 16.5104 180.947 15.8086C181.941 15.0977 183.303 14.7422 185.035 14.7422C186.648 14.7422 188.225 15.0703 189.766 15.7266L188.959 17.5723C187.455 16.9525 186.092 16.6426 184.871 16.6426C183.796 16.6426 182.984 16.8112 182.438 17.1484C181.891 17.4857 181.617 17.9505 181.617 18.543C181.617 18.944 181.717 19.2858 181.918 19.5684C182.128 19.8509 182.46 20.1198 182.916 20.375C183.372 20.6302 184.247 20.9993 185.541 21.4824C187.318 22.1296 188.517 22.7812 189.137 23.4375C189.766 24.0938 190.08 24.9186 190.08 25.9121ZM198.625 28.4004C199.026 28.4004 199.413 28.373 199.787 28.3184C200.161 28.2546 200.457 28.1908 200.676 28.127V29.8633C200.43 29.9818 200.065 30.0775 199.582 30.1504C199.108 30.2324 198.68 30.2734 198.297 30.2734C195.398 30.2734 193.949 28.7467 193.949 25.6934V16.7793H191.803V15.6855L193.949 14.7422L194.906 11.543H196.219V15.0156H200.566V16.7793H196.219V25.5977C196.219 26.5 196.433 27.1927 196.861 27.6758C197.29 28.1589 197.878 28.4004 198.625 28.4004Z" transform="translate(30 136)" fill="white"/>
<path d="M9.49994 0.0473362C13.4999 -0.352664 16.1666 1.88067 16.9999 3.04734C18.2 0.247314 21.8333 -0.11934 23.4999 0.0473362C27.0999 0.0473362 28.6666 3.04735 28.9999 4.54736C36.4999 1.54736 45.4999 9.04736 40.9999 16.5474C37.3999 22.5474 32.8332 22.3807 30.9999 21.5474C30.4999 22.5474 31.4999 23.0474 27.9999 24.5474C25.1999 25.7474 22.8332 25.0474 21.9999 24.5474C21.4999 25.5474 20.4999 29.5474 15.4999 29.5474C11.4999 29.5474 9.16658 26.214 8.49991 24.5474C3.49991 24.0474 -0.00012207 21.5474 0 17.5474C0.000100663 14.2489 1.99996 11.8807 3.49994 11.0474C2.99994 5.54736 4.49994 0.547336 9.49994 0.0473362Z" transform="translate(280.5 61.9526)" fill="#00A1E1"/>
</svg>
