<svg width="352" height="352" viewBox="0 0 352 352" fill="none" xmlns="http://www.w3.org/2000/svg">
<circle cx="153" cy="153" r="153" transform="translate(23 23)" fill="#0C9CD8"/>
<path d="M24 20.5L0 28L11.5 65L24 20.5Z" transform="translate(107.5 56.5)" fill="white"/>
<path d="M65 126L51.5 82L36.5 134.5L65 126Z" transform="translate(107.5 56.5)" fill="white"/>
<path d="M128 106.5L114 62.5L100 115.5L128 106.5Z" transform="translate(107.5 56.5)" fill="white"/>
<path d="M91.5 0L70.5 6.5L80 36.5L91.5 0Z" transform="translate(107.5 56.5)" fill="white"/>
<path d="M67 113.54L29.5 125.04L7 53.54L0 37.54L4.5 15.04L46.5 2.54002C54.1 0.140015 59.3333 -0.126651 61 0.0400152C86.5 0.540015 93.5 16.04 96 19.04C98.5 22.04 107.5 47.04 97 62.54C88.6 74.94 69.5 79.7067 61 80.54L53 53.54C59.8 51.54 62.1667 47.3733 62.5 45.54C63 43.2067 62.6 37.84 57 35.04C51.4 32.24 45.3333 34.8733 43 36.54L67 113.54Z" transform="translate(15.5 95.96)" fill="white"/>
<path d="M32 118L0 10L9.5 6.5L29.5 0L42 6.5L72 105.5L32 118Z" transform="translate(243 34)" fill="white"/>
<path d="M13.4713 38.2139H16.2105C18.7708 38.2139 20.6865 37.7126 21.9576 36.71C23.2288 35.6895 23.8644 34.2124 23.8644 32.2788C23.8644 30.3273 23.3272 28.8861 22.253 27.9551C21.1967 27.0241 19.5317 26.5586 17.2579 26.5586H13.4713V38.2139ZM32.2701 31.9834C32.2701 36.2087 30.9452 39.4403 28.2955 41.6782C25.6637 43.9162 21.9129 45.0352 17.0431 45.0352H13.4713V59H5.1461V19.7373H17.6876C22.45 19.7373 26.0665 20.7668 28.5372 22.8257C31.0258 24.8667 32.2701 27.9193 32.2701 31.9834ZM54.1058 59L44.6526 28.1968H44.4109C44.7511 34.4631 44.9212 38.6436 44.9212 40.7383V59H37.4822V19.7373H48.8152L58.1072 49.7617H58.2684L68.1243 19.7373H79.4573V59H71.6961V40.416C71.6961 39.5387 71.705 38.5272 71.7229 37.3813C71.7588 36.2355 71.8841 33.1919 72.0989 28.2505H71.8572L61.7327 59H54.1058ZM87.167 59V19.7373H95.4922V59H87.167ZM111.959 47.6133V40.8994H126.38V47.6133H111.959ZM151.199 38.2139H153.938C156.499 38.2139 158.414 37.7126 159.685 36.71C160.957 35.6895 161.592 34.2124 161.592 32.2788C161.592 30.3273 161.055 28.8861 159.981 27.9551C158.924 27.0241 157.259 26.5586 154.986 26.5586H151.199V38.2139ZM169.998 31.9834C169.998 36.2087 168.673 39.4403 166.023 41.6782C163.391 43.9162 159.641 45.0352 154.771 45.0352H151.199V59H142.874V19.7373H155.415C160.178 19.7373 163.794 20.7668 166.265 22.8257C168.754 24.8667 169.998 27.9193 169.998 31.9834ZM175.21 19.7373H187.429C192.997 19.7373 197.035 20.534 199.541 22.1274C202.065 23.703 203.328 26.2184 203.328 29.6738C203.328 32.0192 202.773 33.9438 201.663 35.4478C200.57 36.9517 199.111 37.8558 197.285 38.1602V38.4287C199.774 38.9837 201.564 40.0221 202.656 41.5439C203.766 43.0658 204.321 45.0889 204.321 47.6133C204.321 51.194 203.023 53.987 200.427 55.9922C197.849 57.9974 194.34 59 189.9 59H175.21V19.7373ZM183.535 35.2866H188.369C190.625 35.2866 192.254 34.9375 193.257 34.2393C194.277 33.541 194.788 32.3862 194.788 30.7749C194.788 29.271 194.233 28.1968 193.123 27.5522C192.03 26.8898 190.294 26.5586 187.913 26.5586H183.535V35.2866ZM183.535 41.8931V52.125H188.96C191.252 52.125 192.944 51.6864 194.036 50.8091C195.128 49.9318 195.674 48.589 195.674 46.7808C195.674 43.5223 193.346 41.8931 188.691 41.8931H183.535ZM233.999 59L231.152 49.6543H216.838L213.991 59H205.022L218.879 19.5762H229.057L242.968 59H233.999ZM229.165 42.6719C226.533 34.2035 225.047 29.4142 224.707 28.3042C224.384 27.1942 224.152 26.3169 224.008 25.6724C223.418 27.964 221.726 33.6305 218.933 42.6719H229.165Z" transform="translate(62.0413 230.178) rotate(-16.5035)" fill="#005681"/>
<path d="M9.02947 -0.829501C9.7388 -0.829501 10.4228 -0.737668 11.0815 -0.554001C11.7401 -0.370334 12.3545 -0.107501 12.9245 0.234499C13.5008 0.570166 14.0265 0.9755 14.5015 1.4505C14.9765 1.9255 15.3818 2.45117 15.7175 3.0275C16.0595 3.60383 16.3223 4.2245 16.506 4.8895C16.696 5.5545 16.791 6.248 16.791 6.97C16.791 7.67933 16.6991 8.36333 16.5155 9.022C16.3318 9.68067 16.069 10.2982 15.727 10.8745C15.3913 11.4445 14.986 11.967 14.511 12.442C14.036 12.9107 13.5103 13.316 12.934 13.658C12.3576 13.9937 11.737 14.2533 11.072 14.437C10.407 14.627 9.71347 14.722 8.99147 14.722C8.28213 14.722 7.59813 14.6302 6.93947 14.4465C6.2808 14.2628 5.6633 14.0032 5.08696 13.6675C4.51697 13.3255 3.99447 12.9202 3.51946 12.4515C3.04447 11.9765 2.63597 11.4508 2.29396 10.8745C1.9583 10.2918 1.69546 9.668 1.50546 9.003C1.3218 8.338 1.22996 7.6445 1.22996 6.9225C1.22996 6.2195 1.3218 5.53867 1.50546 4.88C1.68913 4.22133 1.9488 3.607 2.28447 3.037C2.62646 2.46067 3.0318 1.935 3.50046 1.46C3.97547 0.984999 4.50113 0.579666 5.07746 0.243999C5.66013 -0.0980008 6.28397 -0.360834 6.94897 -0.5445C7.61397 -0.734501 8.30747 -0.829501 9.02947 -0.829501ZM5.94197 3.2175C5.94197 3.03383 6.0243 2.942 6.18896 2.942H9.77997C10.1346 2.95467 10.4671 3.03383 10.7775 3.1795C11.0878 3.31883 11.357 3.50567 11.585 3.74C11.813 3.97433 11.9935 4.24983 12.1265 4.5665C12.2595 4.87683 12.326 5.20617 12.326 5.5545C12.326 6.0485 12.212 6.495 11.984 6.894C11.756 7.28667 11.4456 7.60017 11.053 7.8345L12.4115 10.694C12.4115 10.7067 12.4146 10.7193 12.421 10.732C12.4273 10.7383 12.4305 10.7478 12.4305 10.7605C12.4305 10.8872 12.3481 10.9505 12.1835 10.9505H10.597C10.4956 10.9505 10.426 10.8935 10.388 10.7795L9.19097 8.167H7.89897V10.7225C7.89897 10.8745 7.81663 10.9505 7.65197 10.9505H6.18896C6.1193 10.9505 6.05913 10.9347 6.00846 10.903C5.96413 10.865 5.94197 10.8048 5.94197 10.7225V3.2175ZM10.388 5.5355C10.388 5.4215 10.3658 5.31067 10.3215 5.203C10.2771 5.09533 10.2138 4.99717 10.1315 4.9085C10.0555 4.81983 9.96046 4.75017 9.84646 4.6995C9.73247 4.6425 9.60897 4.614 9.47597 4.614H7.89897V6.4665H9.47597C9.74197 6.4665 9.96047 6.37783 10.1315 6.2005C10.3025 6.02317 10.388 5.8015 10.388 5.5355ZM7.56647 1.5645C6.92047 1.7165 6.3283 1.96667 5.78996 2.315C5.25163 2.66333 4.7893 3.08133 4.40296 3.569C4.01663 4.05033 3.7158 4.59183 3.50046 5.1935C3.28513 5.78883 3.17747 6.4095 3.17747 7.0555C3.17747 7.59383 3.2503 8.11 3.39597 8.604C3.54163 9.098 3.7443 9.55717 4.00396 9.9815C4.26363 10.3995 4.5708 10.7827 4.92546 11.131C5.28647 11.473 5.6823 11.7643 6.11297 12.005C6.54363 12.2457 6.99963 12.4325 7.48097 12.5655C7.96863 12.6985 8.4658 12.765 8.97247 12.765C9.53613 12.765 10.0713 12.6922 10.578 12.5465C11.091 12.3945 11.5628 12.1855 11.9935 11.9195C12.4305 11.6472 12.8263 11.3273 13.181 10.96C13.5356 10.5927 13.8365 10.1905 14.0835 9.7535C14.3305 9.3165 14.5205 8.85417 14.6535 8.3665C14.7865 7.87883 14.853 7.38167 14.853 6.875C14.853 6.31133 14.7801 5.78567 14.6345 5.298C14.4888 4.804 14.2861 4.35117 14.0265 3.9395C13.7668 3.5215 13.4596 3.151 13.105 2.828C12.7503 2.49867 12.3671 2.22317 11.9555 2.0015C11.5438 1.7735 11.1068 1.59933 10.6445 1.479C10.1885 1.35867 9.7293 1.2985 9.26697 1.2985C8.98197 1.2985 8.69697 1.32067 8.41197 1.365C8.1333 1.40933 7.85147 1.47583 7.56647 1.5645Z" transform="translate(303 181.146) rotate(-16.6137)" fill="#005681"/>
<path fill-rule="evenodd" clip-rule="evenodd" d="M176 352C273.202 352 352 273.202 352 176C352 78.7979 273.202 0 176 0C78.7979 0 0 78.7979 0 176C0 273.202 78.7979 352 176 352ZM176 329C260.5 329 329 260.5 329 176C329 91.5005 260.5 23 176 23C91.5005 23 23 91.5005 23 176C23 260.5 91.5005 329 176 329Z" fill="#005681"/>
</svg>
