<svg width="355" height="203" viewBox="0 0 355 203" fill="none" xmlns="http://www.w3.org/2000/svg">
<rect y="113" width="355" height="90" fill="#00A1E1"/>
<rect width="355" height="113" fill="#013C4E"/>
<path d="M51.4717 42.6738C51.4717 45.3809 50.4941 47.5137 48.5391 49.0723C46.5977 50.6309 43.8906 51.4102 40.418 51.4102C37.2188 51.4102 34.3887 50.8086 31.9277 49.6055V43.6992C33.9512 44.6016 35.6602 45.2373 37.0547 45.6064C38.4629 45.9756 39.748 46.1602 40.9102 46.1602C42.3047 46.1602 43.3711 45.8936 44.1094 45.3604C44.8613 44.8271 45.2373 44.0342 45.2373 42.9814C45.2373 42.3936 45.0732 41.874 44.7451 41.4229C44.417 40.958 43.9316 40.5137 43.2891 40.0898C42.6602 39.666 41.3682 38.9893 39.4131 38.0596C37.5811 37.1982 36.207 36.3711 35.291 35.5781C34.375 34.7852 33.6436 33.8623 33.0967 32.8096C32.5498 31.7568 32.2764 30.5264 32.2764 29.1182C32.2764 26.4658 33.1719 24.3809 34.9629 22.8633C36.7676 21.3457 39.2559 20.5869 42.4277 20.5869C43.9863 20.5869 45.4697 20.7715 46.8779 21.1406C48.2998 21.5098 49.7832 22.0293 51.3281 22.6992L49.2773 27.6416C47.6777 26.9854 46.3516 26.5273 45.2988 26.2676C44.2598 26.0078 43.2344 25.8779 42.2227 25.8779C41.0195 25.8779 40.0967 26.1582 39.4541 26.7188C38.8115 27.2793 38.4902 28.0107 38.4902 28.9131C38.4902 29.4736 38.6201 29.9658 38.8799 30.3896C39.1396 30.7998 39.5498 31.2031 40.1104 31.5996C40.6846 31.9824 42.0312 32.6797 44.1504 33.6914C46.9531 35.0312 48.874 36.3779 49.9131 37.7314C50.9521 39.0713 51.4717 40.7188 51.4717 42.6738ZM79.0407 51L76.8669 43.8633H65.9363L63.7624 51H56.9128L67.4948 20.8945H75.2673L85.8904 51H79.0407ZM75.3493 38.5312C73.3396 32.0645 72.2048 28.4072 71.945 27.5596C71.6989 26.7119 71.5212 26.042 71.4118 25.5498C70.9607 27.2998 69.6687 31.627 67.5359 38.5312H75.3493ZM93.4643 51V21.0176H99.8217V45.75H111.983V51H93.4643ZM138.26 51H120.992V21.0176H138.26V26.2266H127.35V32.8096H137.501V38.0186H127.35V45.75H138.26V51ZM166.014 42.6738C166.014 45.3809 165.036 47.5137 163.081 49.0723C161.14 50.6309 158.433 51.4102 154.96 51.4102C151.761 51.4102 148.931 50.8086 146.47 49.6055V43.6992C148.493 44.6016 150.202 45.2373 151.597 45.6064C153.005 45.9756 154.29 46.1602 155.452 46.1602C156.847 46.1602 157.913 45.8936 158.651 45.3604C159.403 44.8271 159.779 44.0342 159.779 42.9814C159.779 42.3936 159.615 41.874 159.287 41.4229C158.959 40.958 158.474 40.5137 157.831 40.0898C157.202 39.666 155.91 38.9893 153.955 38.0596C152.123 37.1982 150.749 36.3711 149.833 35.5781C148.917 34.7852 148.185 33.8623 147.639 32.8096C147.092 31.7568 146.818 30.5264 146.818 29.1182C146.818 26.4658 147.714 24.3809 149.505 22.8633C151.309 21.3457 153.798 20.5869 156.97 20.5869C158.528 20.5869 160.012 20.7715 161.42 21.1406C162.842 21.5098 164.325 22.0293 165.87 22.6992L163.819 27.6416C162.22 26.9854 160.893 26.5273 159.841 26.2676C158.802 26.0078 157.776 25.8779 156.765 25.8779C155.561 25.8779 154.639 26.1582 153.996 26.7188C153.353 27.2793 153.032 28.0107 153.032 28.9131C153.032 29.4736 153.162 29.9658 153.422 30.3896C153.682 30.7998 154.092 31.2031 154.652 31.5996C155.226 31.9824 156.573 32.6797 158.692 33.6914C161.495 35.0312 163.416 36.3779 164.455 37.7314C165.494 39.0713 166.014 40.7188 166.014 42.6738ZM181.483 51H175.228V21.0176H192.414V26.2266H181.483V33.958H191.655V39.1465H181.483V51ZM229.273 35.9678C229.273 40.9307 228.042 44.7451 225.581 47.4111C223.12 50.0771 219.593 51.4102 214.999 51.4102C210.406 51.4102 206.878 50.0771 204.417 47.4111C201.956 44.7451 200.726 40.917 200.726 35.9268C200.726 30.9365 201.956 27.1289 204.417 24.5039C206.892 21.8652 210.433 20.5459 215.04 20.5459C219.648 20.5459 223.168 21.8721 225.602 24.5244C228.049 27.1768 229.273 30.9912 229.273 35.9678ZM207.391 35.9678C207.391 39.3174 208.027 41.8398 209.298 43.5352C210.57 45.2305 212.47 46.0781 214.999 46.0781C220.072 46.0781 222.608 42.708 222.608 35.9678C222.608 29.2139 220.085 25.8369 215.04 25.8369C212.511 25.8369 210.604 26.6914 209.319 28.4004C208.034 30.0957 207.391 32.6182 207.391 35.9678ZM245.624 34.3271H247.675C249.685 34.3271 251.168 33.9922 252.125 33.3223C253.082 32.6523 253.561 31.5996 253.561 30.1641C253.561 28.7422 253.068 27.7305 252.084 27.1289C251.113 26.5273 249.603 26.2266 247.552 26.2266H245.624V34.3271ZM245.624 39.4951V51H239.267V21.0176H248.003C252.077 21.0176 255.092 21.7627 257.047 23.2529C259.002 24.7295 259.98 26.9785 259.98 30C259.98 31.7637 259.494 33.3359 258.523 34.7168C257.553 36.084 256.179 37.1572 254.401 37.9365C258.913 44.6768 261.853 49.0312 263.22 51H256.165L249.008 39.4951H245.624ZM283.509 25.8779C281.116 25.8779 279.263 26.7803 277.951 28.585C276.638 30.376 275.982 32.8779 275.982 36.0908C275.982 42.7764 278.491 46.1191 283.509 46.1191C285.614 46.1191 288.164 45.5928 291.158 44.54V49.8721C288.697 50.8975 285.949 51.4102 282.914 51.4102C278.553 51.4102 275.217 50.0908 272.906 47.4521C270.595 44.7998 269.44 40.999 269.44 36.0498C269.44 32.9326 270.008 30.2051 271.142 27.8672C272.277 25.5156 273.904 23.7178 276.023 22.4736C278.156 21.2158 280.651 20.5869 283.509 20.5869C286.421 20.5869 289.346 21.291 292.286 22.6992L290.235 27.8672C289.114 27.334 287.986 26.8691 286.851 26.4727C285.717 26.0762 284.602 25.8779 283.509 25.8779ZM318.604 51H301.336V21.0176H318.604V26.2266H307.694V32.8096H317.845V38.0186H307.694V45.75H318.604V51ZM46.96 64.7041C43.665 64.7041 41.0605 65.8047 39.1465 68.0059C37.2461 70.1934 36.2959 73.1943 36.2959 77.0088C36.2959 80.9326 37.2119 83.9678 39.0439 86.1143C40.8896 88.2471 43.5146 89.3135 46.9189 89.3135C49.0107 89.3135 51.3965 88.9375 54.0762 88.1855V91.2412C51.998 92.0205 49.4346 92.4102 46.3857 92.4102C41.9697 92.4102 38.5586 91.0703 36.1523 88.3906C33.7598 85.7109 32.5635 81.9033 32.5635 76.9678C32.5635 73.8779 33.1377 71.1709 34.2861 68.8467C35.4482 66.5225 37.1162 64.7314 39.29 63.4736C41.4775 62.2158 44.0479 61.5869 47.001 61.5869C50.1455 61.5869 52.8936 62.1611 55.2451 63.3096L53.7686 66.3037C51.499 65.2373 49.2295 64.7041 46.96 64.7041ZM82.372 92H65.6582V62.0176H82.372V65.1143H69.1445V74.7734H81.5722V77.8496H69.1445V88.8828H82.372V92ZM97.5634 79.5312V92H94.0771V62.0176H102.301C105.978 62.0176 108.692 62.7217 110.442 64.1299C112.206 65.5381 113.088 67.6572 113.088 70.4873C113.088 74.4521 111.078 77.1318 107.059 78.5264L115.2 92H111.078L103.818 79.5312H97.5634ZM97.5634 76.5371H102.342C104.803 76.5371 106.607 76.0518 107.756 75.0811C108.904 74.0967 109.478 72.627 109.478 70.6719C109.478 68.6895 108.891 67.2607 107.715 66.3857C106.553 65.5107 104.68 65.0732 102.096 65.0732H97.5634V76.5371ZM134.308 92H130.822V65.1143H121.327V62.0176H143.804V65.1143H134.308V92ZM153.376 92V62.0176H156.862V92H153.376ZM173.633 92H170.146V62.0176H186.86V65.1143H173.633V76.0859H186.06V79.1826H173.633V92ZM196.884 92V62.0176H200.37V92H196.884ZM230.368 92H213.654V62.0176H230.368V65.1143H217.14V74.7734H229.568V77.8496H217.14V88.8828H230.368V92ZM266.006 76.7217C266.006 81.6709 264.659 85.458 261.966 88.083C259.286 90.6943 255.424 92 250.379 92H242.073V62.0176H251.26C255.923 62.0176 259.546 63.3096 262.13 65.8936C264.714 68.4775 266.006 72.0869 266.006 76.7217ZM262.314 76.8447C262.314 72.9346 261.33 69.9883 259.361 68.0059C257.406 66.0234 254.494 65.0322 250.625 65.0322H245.559V88.9854H249.804C253.961 88.9854 257.085 87.9668 259.176 85.9297C261.268 83.8789 262.314 80.8506 262.314 76.8447Z" fill="white"/>
<path d="M45.4219 151.836C45.4219 153.859 44.7292 155.418 43.3438 156.512C41.9674 157.596 39.9941 158.139 37.4238 158.139H35.0723V166H32.748V146.012H37.9297C42.9245 146.012 45.4219 147.953 45.4219 151.836ZM35.0723 156.143H37.1641C39.224 156.143 40.7142 155.81 41.6348 155.145C42.5553 154.479 43.0156 153.413 43.0156 151.945C43.0156 150.624 42.5827 149.639 41.7168 148.992C40.8509 148.345 39.502 148.021 37.6699 148.021H35.0723V156.143ZM58.4922 166L58.041 163.867H57.9316C57.1842 164.806 56.4368 165.444 55.6895 165.781C54.9512 166.109 54.026 166.273 52.9141 166.273C51.4284 166.273 50.2617 165.891 49.4141 165.125C48.5755 164.359 48.1562 163.27 48.1562 161.857C48.1562 158.831 50.5762 157.245 55.416 157.1L57.959 157.018V156.088C57.959 154.912 57.7038 154.046 57.1934 153.49C56.6921 152.925 55.8854 152.643 54.7734 152.643C53.5247 152.643 52.112 153.025 50.5352 153.791L49.8379 152.055C50.5762 151.654 51.3828 151.339 52.2578 151.111C53.1419 150.883 54.026 150.77 54.9102 150.77C56.6966 150.77 58.0182 151.166 58.875 151.959C59.7409 152.752 60.1738 154.023 60.1738 155.773V166H58.4922ZM53.3652 164.4C54.778 164.4 55.8854 164.013 56.6875 163.238C57.4987 162.464 57.9043 161.379 57.9043 159.984V158.631L55.6348 158.727C53.8301 158.79 52.5267 159.073 51.7246 159.574C50.9316 160.066 50.5352 160.837 50.5352 161.885C50.5352 162.705 50.7812 163.329 51.2734 163.758C51.7747 164.186 52.472 164.4 53.3652 164.4ZM71.6992 150.742C72.3646 150.742 72.9616 150.797 73.4902 150.906L73.1758 153.012C72.556 152.875 72.0091 152.807 71.5352 152.807C70.3229 152.807 69.2839 153.299 68.418 154.283C67.5612 155.268 67.1328 156.493 67.1328 157.961V166H64.8633V151.016H66.7363L66.9961 153.791H67.1055C67.6615 152.816 68.3314 152.064 69.1152 151.535C69.8991 151.007 70.7604 150.742 71.6992 150.742ZM86.4922 163.99H86.3691C85.321 165.512 83.7533 166.273 81.666 166.273C79.7064 166.273 78.1797 165.604 77.0859 164.264C76.0013 162.924 75.459 161.019 75.459 158.549C75.459 156.079 76.0059 154.16 77.0996 152.793C78.1934 151.426 79.7155 150.742 81.666 150.742C83.6986 150.742 85.2572 151.48 86.3418 152.957H86.5195L86.4238 151.877L86.3691 150.824V144.727H88.6387V166H86.793L86.4922 163.99ZM81.9531 164.373C83.5026 164.373 84.6237 163.954 85.3164 163.115C86.0182 162.268 86.3691 160.905 86.3691 159.027V158.549C86.3691 156.425 86.0137 154.912 85.3027 154.01C84.6009 153.098 83.4753 152.643 81.9258 152.643C80.5951 152.643 79.5742 153.162 78.8633 154.201C78.1615 155.231 77.8105 156.689 77.8105 158.576C77.8105 160.49 78.1615 161.935 78.8633 162.91C79.5651 163.885 80.5951 164.373 81.9531 164.373ZM106.398 158.494C106.398 160.937 105.783 162.846 104.553 164.223C103.322 165.59 101.622 166.273 99.4531 166.273C98.1133 166.273 96.9238 165.959 95.8848 165.33C94.8457 164.701 94.0436 163.799 93.4785 162.623C92.9134 161.447 92.6309 160.071 92.6309 158.494C92.6309 156.051 93.2415 154.151 94.4629 152.793C95.6842 151.426 97.3796 150.742 99.5488 150.742C101.645 150.742 103.309 151.439 104.539 152.834C105.779 154.229 106.398 156.115 106.398 158.494ZM94.9824 158.494C94.9824 160.408 95.3652 161.867 96.1309 162.869C96.8965 163.872 98.0221 164.373 99.5078 164.373C100.993 164.373 102.119 163.876 102.885 162.883C103.66 161.88 104.047 160.417 104.047 158.494C104.047 156.589 103.66 155.145 102.885 154.16C102.119 153.167 100.984 152.67 99.4805 152.67C97.9948 152.67 96.8737 153.158 96.1172 154.133C95.3607 155.108 94.9824 156.562 94.9824 158.494ZM115.23 164.4C115.632 164.4 116.019 164.373 116.393 164.318C116.766 164.255 117.062 164.191 117.281 164.127V165.863C117.035 165.982 116.671 166.077 116.188 166.15C115.714 166.232 115.285 166.273 114.902 166.273C112.004 166.273 110.555 164.747 110.555 161.693V152.779H108.408V151.686L110.555 150.742L111.512 147.543H112.824V151.016H117.172V152.779H112.824V161.598C112.824 162.5 113.038 163.193 113.467 163.676C113.895 164.159 114.483 164.4 115.23 164.4ZM136.463 147.803C134.266 147.803 132.53 148.536 131.254 150.004C129.987 151.462 129.354 153.463 129.354 156.006C129.354 158.622 129.964 160.645 131.186 162.076C132.416 163.498 134.166 164.209 136.436 164.209C137.83 164.209 139.421 163.958 141.207 163.457V165.494C139.822 166.014 138.113 166.273 136.08 166.273C133.136 166.273 130.862 165.38 129.258 163.594C127.663 161.807 126.865 159.269 126.865 155.979C126.865 153.919 127.248 152.114 128.014 150.564C128.788 149.015 129.9 147.821 131.35 146.982C132.808 146.144 134.521 145.725 136.49 145.725C138.587 145.725 140.419 146.107 141.986 146.873L141.002 148.869C139.489 148.158 137.976 147.803 136.463 147.803ZM158.16 158.494C158.16 160.937 157.545 162.846 156.314 164.223C155.084 165.59 153.384 166.273 151.215 166.273C149.875 166.273 148.686 165.959 147.646 165.33C146.607 164.701 145.805 163.799 145.24 162.623C144.675 161.447 144.393 160.071 144.393 158.494C144.393 156.051 145.003 154.151 146.225 152.793C147.446 151.426 149.141 150.742 151.311 150.742C153.407 150.742 155.07 151.439 156.301 152.834C157.54 154.229 158.16 156.115 158.16 158.494ZM146.744 158.494C146.744 160.408 147.127 161.867 147.893 162.869C148.658 163.872 149.784 164.373 151.27 164.373C152.755 164.373 153.881 163.876 154.646 162.883C155.421 161.88 155.809 160.417 155.809 158.494C155.809 156.589 155.421 155.145 154.646 154.16C153.881 153.167 152.746 152.67 151.242 152.67C149.757 152.67 148.635 153.158 147.879 154.133C147.122 155.108 146.744 156.562 146.744 158.494ZM172.406 166V156.307C172.406 155.085 172.128 154.174 171.572 153.572C171.016 152.971 170.146 152.67 168.961 152.67C167.393 152.67 166.245 153.094 165.516 153.941C164.786 154.789 164.422 156.188 164.422 158.139V166H162.152V151.016H163.998L164.367 153.066H164.477C164.941 152.328 165.593 151.758 166.432 151.357C167.27 150.947 168.204 150.742 169.234 150.742C171.039 150.742 172.397 151.18 173.309 152.055C174.22 152.921 174.676 154.311 174.676 156.225V166H172.406ZM189.018 161.912C189.018 163.307 188.498 164.382 187.459 165.139C186.42 165.895 184.962 166.273 183.084 166.273C181.097 166.273 179.548 165.959 178.436 165.33V163.225C179.156 163.589 179.926 163.876 180.746 164.086C181.576 164.296 182.373 164.4 183.139 164.4C184.324 164.4 185.235 164.214 185.873 163.84C186.511 163.457 186.83 162.878 186.83 162.104C186.83 161.52 186.575 161.023 186.064 160.613C185.563 160.194 184.579 159.702 183.111 159.137C181.717 158.617 180.723 158.166 180.131 157.783C179.548 157.391 179.11 156.949 178.818 156.457C178.536 155.965 178.395 155.377 178.395 154.693C178.395 153.472 178.891 152.51 179.885 151.809C180.878 151.098 182.241 150.742 183.973 150.742C185.586 150.742 187.163 151.07 188.703 151.727L187.896 153.572C186.393 152.952 185.03 152.643 183.809 152.643C182.733 152.643 181.922 152.811 181.375 153.148C180.828 153.486 180.555 153.951 180.555 154.543C180.555 154.944 180.655 155.286 180.855 155.568C181.065 155.851 181.398 156.12 181.854 156.375C182.309 156.63 183.184 156.999 184.479 157.482C186.256 158.13 187.454 158.781 188.074 159.438C188.703 160.094 189.018 160.919 189.018 161.912ZM194.855 151.016V160.736C194.855 161.958 195.133 162.869 195.689 163.471C196.245 164.072 197.116 164.373 198.301 164.373C199.868 164.373 201.012 163.945 201.732 163.088C202.462 162.231 202.826 160.832 202.826 158.891V151.016H205.096V166H203.223L202.895 163.99H202.771C202.307 164.729 201.66 165.294 200.83 165.686C200.01 166.077 199.071 166.273 198.014 166.273C196.191 166.273 194.824 165.84 193.912 164.975C193.01 164.109 192.559 162.723 192.559 160.818V151.016H194.855ZM212.191 166H209.922V144.727H212.191V166ZM221.844 164.4C222.245 164.4 222.632 164.373 223.006 164.318C223.38 164.255 223.676 164.191 223.895 164.127V165.863C223.648 165.982 223.284 166.077 222.801 166.15C222.327 166.232 221.898 166.273 221.516 166.273C218.617 166.273 217.168 164.747 217.168 161.693V152.779H215.021V151.686L217.168 150.742L218.125 147.543H219.438V151.016H223.785V152.779H219.438V161.598C219.438 162.5 219.652 163.193 220.08 163.676C220.508 164.159 221.096 164.4 221.844 164.4ZM236.117 166L235.666 163.867H235.557C234.809 164.806 234.062 165.444 233.314 165.781C232.576 166.109 231.651 166.273 230.539 166.273C229.053 166.273 227.887 165.891 227.039 165.125C226.201 164.359 225.781 163.27 225.781 161.857C225.781 158.831 228.201 157.245 233.041 157.1L235.584 157.018V156.088C235.584 154.912 235.329 154.046 234.818 153.49C234.317 152.925 233.51 152.643 232.398 152.643C231.15 152.643 229.737 153.025 228.16 153.791L227.463 152.055C228.201 151.654 229.008 151.339 229.883 151.111C230.767 150.883 231.651 150.77 232.535 150.77C234.322 150.77 235.643 151.166 236.5 151.959C237.366 152.752 237.799 154.023 237.799 155.773V166H236.117ZM230.99 164.4C232.403 164.4 233.51 164.013 234.312 163.238C235.124 162.464 235.529 161.379 235.529 159.984V158.631L233.26 158.727C231.455 158.79 230.152 159.073 229.35 159.574C228.557 160.066 228.16 160.837 228.16 161.885C228.16 162.705 228.406 163.329 228.898 163.758C229.4 164.186 230.097 164.4 230.99 164.4ZM252.742 166V156.307C252.742 155.085 252.464 154.174 251.908 153.572C251.352 152.971 250.482 152.67 249.297 152.67C247.729 152.67 246.581 153.094 245.852 153.941C245.122 154.789 244.758 156.188 244.758 158.139V166H242.488V151.016H244.334L244.703 153.066H244.812C245.277 152.328 245.929 151.758 246.768 151.357C247.606 150.947 248.54 150.742 249.57 150.742C251.375 150.742 252.733 151.18 253.645 152.055C254.556 152.921 255.012 154.311 255.012 156.225V166H252.742ZM264.527 164.4C264.928 164.4 265.316 164.373 265.689 164.318C266.063 164.255 266.359 164.191 266.578 164.127V165.863C266.332 165.982 265.967 166.077 265.484 166.15C265.01 166.232 264.582 166.273 264.199 166.273C261.301 166.273 259.852 164.747 259.852 161.693V152.779H257.705V151.686L259.852 150.742L260.809 147.543H262.121V151.016H266.469V152.779H262.121V161.598C262.121 162.5 262.335 163.193 262.764 163.676C263.192 164.159 263.78 164.4 264.527 164.4Z" fill="white"/>
<path d="M290 62C294 61.6 296.667 63.8333 297.5 65C298.7 62.2 302.333 61.8333 304 62C307.6 62 309.167 65 309.5 66.5C317 63.5 326 71 321.5 78.5C317.9 84.5 313.333 84.3333 311.5 83.5C311 84.5 312 85 308.5 86.5C305.7 87.7 303.333 87 302.5 86.5C302 87.5 301 91.5 296 91.5C292 91.5 289.667 88.1667 289 86.5C284 86 280.5 83.5 280.5 79.5C280.5 76.2015 282.5 73.8333 284 73C283.5 67.5 285 62.5 290 62Z" fill="#00A1E1"/>
</svg>
