<svg width="312" height="55" viewBox="0 0 312 55" fill="none" xmlns="http://www.w3.org/2000/svg">
<path d="M24.7746 8.04287H18.911C18.8858 7.85966 18.8705 7.67524 18.865 7.49041C18.7259 5.98224 18.3333 5.03403 17.6873 4.64576C17.0412 4.25749 15.5174 4.06402 13.116 4.06535C10.2826 4.06535 8.43146 4.28793 7.5626 4.73309C6.69374 5.17826 6.25881 6.11516 6.25781 7.54381C6.25781 9.23462 6.61202 10.2494 7.32046 10.5881C8.02889 10.9268 10.3721 11.1888 14.3502 11.3741C19.0504 11.596 22.09 12.1663 23.4688 13.0849C24.8476 14.0035 25.5377 15.9109 25.5391 18.8071C25.5391 22.3704 24.7281 24.6729 23.1061 25.7146C21.4841 26.7563 17.9074 27.2772 12.376 27.2772C7.40001 27.2772 4.098 26.7656 2.47001 25.7426C0.842014 24.7195 0.0265161 22.646 0.0235143 19.5223L1.46574e-06 18.5381H5.84006L5.86357 19.112C5.86357 20.9985 6.24981 22.1528 7.02228 22.575C7.79475 22.9972 9.9037 23.2083 13.3491 23.2083C16.0374 23.2083 17.7525 22.9661 18.4943 22.4817C19.236 21.9973 19.6068 20.877 19.6064 19.121C19.6064 17.8235 19.3249 16.9616 18.7619 16.5354C18.1989 16.1092 16.9833 15.8507 15.1152 15.7598L11.8067 15.5842C6.80665 15.3356 3.6117 14.7461 2.22185 13.8155C0.832004 12.8849 0.137753 10.8873 0.139088 7.82278C0.139088 4.68968 0.977259 2.6031 2.65361 1.56306C4.32997 0.523015 7.67901 0.00199679 12.7007 5.48285e-07C17.4583 5.48285e-07 20.6639 0.477601 22.3176 1.4328C23.9713 2.38801 24.7979 4.25217 24.7976 7.02528L24.7746 8.04287Z" transform="translate(56.0522 13.3533)" fill="white"/>
<path d="M15.1567 4.57739V26.816H9.13206V4.57739H2.68718e-06V1.82762e-07H24.566V4.57739H15.1567Z" transform="translate(83.2598 13.5825)" fill="white"/>
<path d="M6.02467 4.29991V11.1894H20.8107V14.9344H6.02467V22.5176H21.7848V26.816H4.88579e-06V1.82762e-07H21.6457V4.29991H6.02467Z" transform="translate(110.26 13.5825)" fill="white"/>
<path d="M6.02466 1.82762e-07V22.2401H20.8577V26.816H-1.46574e-06V1.82762e-07H6.02466Z" transform="translate(136.494 13.5825)" fill="white"/>
<path d="M6.02567 1.82762e-07V22.2401H20.8587V26.816H3.90863e-06V1.82762e-07H6.02567Z" transform="translate(160.364 13.5825)" fill="white"/>
<path d="M21.9709 21.6847H8.31956L6.34787 26.816H5.86295e-06L10.5209 3.65523e-07H19.5364L30.2209 26.816H23.9861L21.9709 21.6847ZM20.579 17.9417L15.1097 3.95306L9.73393 17.9397L20.579 17.9417Z" transform="translate(181.408 13.5825)" fill="white"/>
<path d="M29.572 3.65523e-07L20.0707 12.9925L30.1984 26.8165H23.1526L18.6108 20.3752C17.9151 19.382 17.2505 18.3748 16.6171 17.3533L15.9667 16.2923L15.2953 15.2528H15.2027L14.5309 16.3128C13.7264 17.5964 12.8146 18.9505 11.7957 20.3752L7.2319 26.816H9.77158e-06L10.3833 12.9921L0.741452 3.65523e-07H7.90382L12.1219 5.97725C12.786 6.92114 13.4113 7.85172 13.998 8.769L14.5774 9.71222L15.1567 10.6569H15.2493C15.5124 10.2384 15.7056 9.92349 15.8286 9.71222L16.408 8.78746C16.903 7.97599 17.5212 7.04557 18.2626 5.99622L22.4812 3.65523e-07H29.572Z" transform="translate(211.443 13.5825)" fill="white"/>
<path d="M6.02616 0H9.77158e-06V26.816H6.02616V0Z" transform="translate(244.259 13.5825)" fill="white"/>
<path d="M20.3019 3.65523e-07H26.328V17.8424C26.328 21.5707 25.482 24.0369 23.79 25.241C22.098 26.4451 18.6412 27.0474 13.4197 27.0481C7.90331 27.0481 4.28778 26.4785 2.57307 25.3393C0.858359 24.2001 0.00066121 21.7993 -5.86295e-06 18.1369V3.65523e-07H6.02566V18.1369C6.02566 20.1181 6.44158 21.3739 7.27342 21.9043C8.10526 22.4346 10.0611 22.7008 13.141 22.7028C16.2963 22.7028 18.2793 22.4339 19.0901 21.8963C19.901 21.3586 20.3049 20.0405 20.3019 17.9417V3.65523e-07Z" transform="translate(255.917 13.5825)" fill="white"/>
<path d="M24.7716 8.04287H18.909C18.8834 7.85969 18.8677 7.67527 18.862 7.49041C18.7246 5.98224 18.3323 5.03403 17.6853 4.64576C17.0382 4.25749 15.5141 4.06402 13.113 4.06535C10.2803 4.06535 8.42914 4.28793 7.55961 4.73309C6.69008 5.17826 6.25548 6.11566 6.25581 7.5453C6.25581 9.23612 6.61053 10.2509 7.31996 10.5896C8.02939 10.9283 10.3725 11.1903 14.3492 11.3756C19.0484 11.5992 22.0875 12.1703 23.4663 13.0889C24.8451 14.0075 25.5351 15.9137 25.5361 18.8076C25.5361 22.3709 24.7251 24.6734 23.1031 25.7151C21.4811 26.7568 17.9044 27.2775 12.373 27.2772C7.39834 27.2772 4.09633 26.7656 2.467 25.7426C0.837678 24.7195 0.0230101 22.646 0.0230101 19.5223L-1.95432e-06 18.5381H5.84005L5.86258 19.112C5.86258 20.9985 6.24897 22.1528 7.02178 22.575C7.79458 22.9972 9.90353 23.2083 13.3486 23.2083C16.0373 23.2083 17.752 22.9661 18.4928 22.4817C19.2335 21.9973 19.6048 20.877 19.6064 19.121C19.6064 17.8235 19.3246 16.9616 18.7609 16.5354C18.1973 16.1092 16.9807 15.8507 15.1112 15.7598L11.8037 15.5842C6.80365 15.3356 3.60904 14.7461 2.21986 13.8155C0.830676 12.8849 0.136092 10.8873 0.136092 7.82278C0.136092 4.68968 0.974592 2.6031 2.65161 1.56306C4.32863 0.523015 7.67751 0.00199679 12.6982 5.48285e-07C17.4565 5.48285e-07 20.6624 0.477601 22.3161 1.4328C23.9698 2.38801 24.7963 4.25217 24.7956 7.02528L24.7716 8.04287Z" transform="translate(286.464 13.3533)" fill="white"/>
<path d="M8.205 -4.87364e-07L6.51096 6.15492H5.63293L4.101 1.3809L2.67413 6.15492H1.77308L2.68718e-06 -4.87364e-07H0.909052L2.3094 4.98761L3.80182 -4.87364e-07H4.51525L6.12073 4.98761L7.43253 -4.87364e-07H8.205Z" transform="translate(56.7935 43.031)" fill="white"/>
<path d="M5.56439 6.15492H4.66384L3.96341 4.3583H1.36183L0.733948 6.15492H-1.46574e-06L2.27289 1.21841e-06H3.2825L5.56439 6.15492ZM3.7728 3.77739L2.68864 0.820457L1.60248 3.77739H3.7728Z" transform="translate(75.7861 43.031)" fill="white"/>
<path d="M5.04157 6.15492H4.12301L2.83172 3.49093H0.821V6.15492H-1.71003e-06V1.21841e-06H2.76168C3.51381 1.21841e-06 4.06981 0.179993 4.4297 0.539982C4.78992 0.898807 4.97203 1.29207 4.97203 1.71777C4.96899 2.05493 4.8644 2.38338 4.67184 2.66049C4.47172 2.95993 4.13402 3.17652 3.67123 3.30528L5.04157 6.15492ZM0.821 2.86461H2.65312C3.13391 2.86461 3.49563 2.75232 3.73377 2.52924C3.84854 2.42526 3.9398 2.29809 4.00148 2.15619C4.06315 2.0143 4.09384 1.86093 4.09149 1.70629C4.09149 1.3834 3.96542 1.12937 3.71326 0.949213C3.46111 0.769052 3.14292 0.678723 2.76269 0.678723H0.821V2.86461Z" transform="translate(93.1025 43.031)" fill="white"/>
<path d="M0.881542 6.15492H-9.77158e-07V1.21841e-06H2.48701C3.26482 1.21841e-06 3.83834 0.185153 4.20757 0.555456C4.57679 0.925759 4.76156 1.34946 4.7619 1.82656C4.76739 2.07632 4.71625 2.32409 4.61229 2.55136C4.50833 2.77864 4.35424 2.97955 4.16153 3.13909C3.76129 3.48344 3.23498 3.65579 2.58258 3.65612H0.881542V6.15492ZM0.881542 3.01632H2.49603C2.90978 3.01632 3.24098 2.90753 3.49664 2.68944C3.75229 2.47135 3.87836 2.18339 3.87836 1.82656C3.87862 1.51971 3.75702 1.22524 3.54016 1.00761C3.31402 0.76606 2.98381 0.645287 2.56005 0.645287H0.881542V3.01632Z" transform="translate(110.383 43.031)" fill="white"/>
<path d="M0.00199878 4.65773L0.796489 4.50003C1.11118 5.33895 1.8006 5.75916 2.85824 5.75916C3.41391 5.75916 3.83083 5.65569 4.109 5.44875C4.24292 5.35627 4.35152 5.23184 4.42492 5.0868C4.49832 4.94176 4.53419 4.78071 4.52925 4.61831C4.53248 4.49483 4.50503 4.37247 4.44934 4.26214C4.39364 4.15181 4.31144 4.05694 4.21007 3.986C3.9903 3.82406 3.73779 3.71182 3.47011 3.65712L2.06926 3.35119C1.76174 3.28749 1.46306 3.18695 1.17972 3.05176C0.939297 2.92775 0.735592 2.74313 0.588855 2.51627C0.42797 2.27044 0.344198 1.98237 0.348218 1.68882C0.348218 1.17629 0.568842 0.764562 1.01261 0.458139C1.45638 0.151716 2.01973 1.46209e-06 2.71365 1.46209e-06C3.98876 1.46209e-06 4.82594 0.506879 5.22519 1.52064L4.4247 1.72675C4.38147 1.55216 4.30098 1.38893 4.18874 1.2482C4.0765 1.10746 3.93513 0.992546 3.7743 0.911284C3.43925 0.727283 3.0626 0.631767 2.68013 0.633806C2.32105 0.627104 1.967 0.718762 1.65651 0.898807C1.35633 1.07548 1.20624 1.3275 1.20624 1.65089C1.20624 2.10504 1.58697 2.41296 2.34493 2.57216L3.65422 2.85213C4.85095 3.10299 5.44982 3.67009 5.45082 4.55343C5.45082 5.08593 5.22819 5.5276 4.77541 5.88243C4.32264 6.23726 3.69375 6.41243 2.87426 6.41243C1.42437 6.41243 0.46628 5.82687 -4.39721e-06 4.65574" transform="translate(139.797 42.9001)" fill="white"/>
<path d="M0.879535 6.15492H-4.88579e-06V1.21841e-06H2.48602C3.26049 1.21841e-06 3.83684 0.185652 4.20656 0.555456C4.57629 0.92526 4.7624 1.35046 4.7624 1.82506C4.7667 2.07523 4.71441 2.32315 4.60943 2.55038C4.50445 2.77762 4.34948 2.97833 4.15603 3.1376C3.75579 3.48195 3.2303 3.65429 2.57957 3.65462H0.878533L0.879535 6.15492ZM0.879535 3.01632H2.49402C2.90794 3.01632 3.24147 2.90736 3.49463 2.68944C3.75028 2.47135 3.87537 2.18339 3.87537 1.82506C3.87473 1.51829 3.75306 1.22409 3.53666 1.00611C3.31002 0.764561 2.98632 0.643788 2.55606 0.643788H0.881037L0.879535 3.01632Z" transform="translate(157.395 43.031)" fill="white"/>
<path d="M4.53727 5.47619V6.15492H-5.86295e-06V-4.87364e-07H4.43821V0.679221H0.879534V2.63654H3.70475V3.26286H0.879534V5.47619H4.53727Z" transform="translate(174.113 43.031)" fill="white"/>
<path d="M4.53527 5.47619V6.15492H-2.93147e-06V-4.87364e-07H4.4382V0.679221H0.879036V2.63654H3.70325V3.26286H0.879036V5.47619H4.53527Z" transform="translate(190.713 43.031)" fill="white"/>
<path d="M6.8401e-06 6.15492V1.21841e-06H2.35144C3.34104 1.21841e-06 4.11201 0.29611 4.66435 0.888329C5.21468 1.48022 5.49034 2.20485 5.49034 3.06174C5.49034 3.9301 5.22217 4.66206 4.68584 5.25761C4.14802 5.85348 3.46362 6.15242 2.64012 6.15242L6.8401e-06 6.15492ZM0.880548 5.49965H2.3069C3.05736 5.49965 3.63021 5.27008 4.02145 4.81344C4.41269 4.3568 4.6033 3.75593 4.6033 3.00634C4.60887 2.4141 4.41311 1.83744 4.04796 1.37042C3.67723 0.885832 3.09739 0.643788 2.3069 0.643788H0.882527L0.880548 5.49965Z" transform="translate(207.312 43.031)" fill="white"/>
<path d="M5.5694 6.15492H4.66885L3.96842 4.3583H1.36083L0.733445 6.15492H-9.77158e-06L2.27239 1.21841e-06H3.28199L5.5694 6.15492ZM3.7768 3.77739L2.69113 0.820457L1.60548 3.77739H3.7768Z" transform="translate(237.576 43.031)" fill="white"/>
<path d="M5.00856 6.15492H4.12802V3.22094H0.880531V6.15492H-9.77157e-06V-4.87364e-07H0.880531V2.54172H4.12802V-4.87364e-07H5.00856V6.15492Z" transform="translate(254.895 43.031)" fill="white"/>
<path d="M4.53925 5.47619V6.15492H-1.07487e-05V-4.87364e-07H4.43821V0.679221H0.883046V2.63654H3.70525V3.26286H0.883046V5.47619H4.53925Z" transform="translate(272.492 43.031)" fill="white"/>
<path d="M5.56739 6.15492H4.66685L3.96642 4.3583H1.36132L0.733959 6.15492H-8.79442e-06L2.27288 1.21841e-06H3.28251L5.56739 6.15492ZM3.77629 3.77739L2.69164 0.820457L1.60649 3.77739H3.77629Z" transform="translate(288.246 43.031)" fill="white"/>
<path d="M-9.77157e-07 6.15492V1.21841e-06H2.35143C3.3407 1.21841e-06 4.11033 0.29611 4.66033 0.888329C5.21033 1.48055 5.4865 2.20502 5.48884 3.06174C5.48884 3.9301 5.21933 4.66206 4.68034 5.25761C4.14134 5.85315 3.46078 6.15142 2.63862 6.15242L-9.77157e-07 6.15492ZM0.881542 5.49965H2.3014C3.05636 5.49965 3.62571 5.27008 4.01695 4.81344C4.40818 4.3568 4.6038 3.75593 4.6038 3.00634C4.60728 2.41402 4.41079 1.83777 4.04597 1.37042C3.67124 0.885832 3.09538 0.643788 2.3014 0.643788H0.881542V5.49965Z" transform="translate(305.564 43.031)" fill="white"/>
<path d="M21.5481 1.88994C34.9203 4.17564 41.1601 2.53872 44.0618 0.659757C43.8617 0.454144 43.6551 0.234559 43.4455 1.21841e-07C40.4842 1.83704 34.2328 3.38712 21.0783 1.13686C9.83599 -0.786521 3.64422 0.0663759 0.227639 1.50417C0.143087 1.86349 0.0650396 2.21982 -3.81702e-08 2.57166C3.24498 0.953704 9.50179 -0.173174 21.5486 1.88994" transform="translate(1.40771 35.6218)" fill="white"/>
<path d="M2.70215 -1.82762e-07C1.99321 0.422205 1.11018 0.826944 -1.22145e-07 1.1683C0.0235142 1.44229 0.0405243 1.73274 0.0560338 2.03966C1.51042 1.63243 2.61109 1.1184 3.4381 0.585898C3.18394 0.368806 2.93779 0.171178 2.70215 -1.82762e-07" transform="translate(23.3965 1.4187)" fill="white"/>
<path d="M22.6458 0.868365C22.5457 0.58939 22.4492 0.289954 22.3496 -2.43682e-07C19.5849 1.86599 13.6123 3.54982 0.776473 1.49818C0.521317 1.68233 0.267664 1.86799 5.49651e-07 2.04715L0.171605 2.0751C13.4797 4.35381 19.726 2.74184 22.6468 0.870362" transform="translate(14.6245 20.447)" fill="white"/>
<path d="M4.52275 -1.52301e-08C3.55116 0.725135 2.12129 1.44129 0.0235148 1.94883C0.0200127 2.2293 0.0130083 2.51726 4.27506e-07 2.81221C2.4695 2.27771 4.08198 1.46474 5.12512 0.650775C4.92 0.420209 4.71837 0.201621 4.52475 0.00199627" transform="translate(23.458 3.07715)" fill="white"/>
<path d="M17.0549 0.867368C16.9443 0.571924 16.8342 0.286461 16.7242 -3.65523e-07C14.6734 1.71028 10.2102 3.52187 0.54333 2.72337C0.367223 2.94695 0.190616 3.16804 1.22145e-07 3.38513C10.1527 4.37726 14.8701 2.59911 17.0549 0.867368" transform="translate(18.5625 15.6838)" fill="white"/>
<path d="M19.64 1.86736C32.3607 4.04277 38.626 2.66886 41.7034 0.910664C41.5283 0.682094 41.3532 0.442545 41.1711 0.193514C38.0692 1.93524 31.8019 3.27671 19.1687 1.11478C9.87902 -0.473233 4.03746 -0.164814 0.357218 0.799372C0.22964 1.13025 0.109567 1.46063 -7.63405e-09 1.79001C3.6097 0.646661 9.61636 0.154586 19.636 1.86736" transform="translate(2.15088 33.502)" fill="white"/>
<path d="M19.698 0.877848C19.5979 0.582404 19.4979 0.283966 19.3978 0C17.0144 1.79662 11.8432 3.56679 0.6564 2.19587C0.442769 2.40198 0.228139 2.60809 6.10723e-08 2.80522C11.6956 4.40221 17.1554 2.68694 19.6955 0.877348" transform="translate(16.7627 18.0581)" fill="white"/>
<path d="M17.3601 1.86695C29.7561 3.99045 36.0214 2.73481 39.1824 1.043C39.0263 0.799956 38.8707 0.549427 38.7116 0.290913C35.5497 1.98323 29.2843 3.23587 16.8883 1.11287C9.41123 -0.164229 4.16904 -0.212638 0.487797 0.31986C0.314692 0.619296 0.153594 0.924721 1.22145e-07 1.23015C3.71226 0.541941 9.20811 0.47357 17.3606 1.86944" transform="translate(3.26562 31.3625)" fill="white"/>
<path d="M-1.22145e-07 -7.61506e-09C-1.22145e-07 -7.61506e-09 0.0840505 0.373797 0.177607 1.02407C0.628996 0.867719 1.071 0.685594 1.50141 0.478599C0.560342 0.0294446 0.000500671 -7.61506e-09 0.000500671 -7.61506e-09" transform="translate(23.0459)" fill="white"/>
<path d="M6.29934 -2.43682e-07C5.16965 0.968178 3.27199 1.98177 0.100061 2.54172C0.071043 2.82219 0.0390235 3.10665 -3.05362e-07 3.39711C3.58168 2.84814 5.64144 1.74372 6.82316 0.702179C6.64705 0.458637 6.47294 0.224744 6.30084 0.000499305" transform="translate(23.251 4.90137)" fill="white"/>
<path d="M14.6844 1.87071C26.9734 3.97275 33.2397 2.76003 36.4242 1.08868C36.2851 0.839149 36.144 0.580139 36.0049 0.31364C32.83 1.99398 26.5667 3.23115 14.2142 1.11813C8.46666 0.132481 4.04096 -0.123538 0.626882 0.050634C0.408249 0.324119 0.198621 0.599601 3.05362e-08 0.877079C3.54616 0.581136 8.30056 0.777266 14.6844 1.86871" transform="translate(4.7749 29.2168)" fill="white"/>
<path d="M24.3163 3.05625C41.2101 5.94781 46.7235 2.57316 48.5005 0.361321C48.2211 0.257982 47.9484 0.137303 47.684 -1.21841e-06C45.5798 2.18888 39.7677 5.03053 23.846 2.30616C7.90631 -0.421706 2.09978 2.42793 5.34383e-08 4.61881C0.00700432 5.05898 0.0200121 5.47819 0.0450274 5.86646C1.72705 3.65812 7.13634 0.11678 24.3163 3.05475" transform="translate(0.973633 38.7366)" fill="white"/>
<path d="M12.0658 -4.26444e-07C10.5149 1.47971 7.2314 3.15506 0.350213 3.21894C0.240146 3.46847 0.124576 3.722 0 3.97103C7.33196 4.0369 10.8176 2.3391 12.4576 0.822952C12.326 0.538986 12.1944 0.27099 12.0623 -4.26444e-07" transform="translate(21.2295 11.0942)" fill="white"/>
<path d="M10.0166 -3.65523e-07C8.63376 1.33648 5.84906 2.84465 0.268163 3.18451C0.184112 3.44701 0.0940577 3.70752 4.27506e-07 3.97153C6.02067 3.72998 8.99198 2.17241 10.4479 0.790512C10.3033 0.517526 10.1607 0.256018 10.0166 -3.65523e-07" transform="translate(22.1445 8.92163)" fill="white"/>
<path d="M26.249 0.841416C26.1419 0.564937 26.0339 0.288458 25.9268 3.65523e-07C22.942 1.82856 16.6862 3.3462 3.6082 1.10991C2.71065 0.954204 1.85713 0.824948 1.02412 0.706171C0.797987 0.827443 0.578853 0.955702 0.345211 1.06949C0.225137 1.12888 0.117071 1.19475 -9.16085e-08 1.25364C1.28028 1.41534 2.63511 1.61396 4.07898 1.8605C16.9463 4.06036 23.2086 2.62706 26.249 0.841416" transform="translate(11.8823 22.8027)" fill="white"/>
<path d="M14.2897 6.09205e-07C12.5196 1.60398 8.67979 3.38164 0.439769 3.06473C0.296681 3.30278 0.156095 3.54084 3.05362e-07 3.7749C8.6948 4.253 12.7618 2.48732 14.6464 0.853893C14.5273 0.565935 14.4083 0.27648 14.2897 6.09205e-07" transform="translate(20.0459 13.3518)" fill="white"/>
<path d="M30.0203 0.82395C29.9052 0.555955 29.7906 0.274983 29.6761 3.65523e-07C26.5922 1.7547 20.3264 3.12861 7.61714 0.9557C5.14463 0.531997 2.93078 0.25003 0.924063 0.0723648C0.604368 0.279974 0.299682 0.49457 -1.83217e-07 0.711162C2.35543 0.867867 5.03407 1.18327 8.08742 1.70928C20.6281 3.85525 26.8954 2.5482 30.0203 0.825446" transform="translate(9.03906 25.0984)" fill="white"/>
<path d="M11.6256 1.85002C23.9731 3.96404 30.2369 2.72837 33.4118 1.04454C33.2843 0.783028 33.1557 0.522019 33.0286 0.246038C29.8812 1.95432 23.6159 3.22892 11.1543 1.09793C7.0613 0.399247 3.64572 0.0688692 0.779474 -1.21841e-06C0.509977 0.242875 0.250152 0.489245 -3.66434e-07 0.739108C3.10589 0.731622 6.91771 1.04703 11.6256 1.85002" transform="translate(6.66699 27.0959)" fill="white"/>
<path d="M8.10894 0.000499396C6.85818 1.1713 4.52526 2.45538 0.179109 2.96143C0.124743 3.23292 0.0650403 3.5054 6.71796e-07 3.77889C4.7674 3.32973 7.27293 1.97728 8.58223 0.748591C8.42363 0.491076 8.26503 0.242543 8.10894 -1.52301e-07" transform="translate(22.814 6.85156)" fill="white"/>
<path d="M23.1006 2.29967C37.6669 4.79498 43.7687 2.62506 46.3147 0.561941C46.0871 0.396253 45.8479 0.207111 45.6033 1.21841e-06C42.9186 2.00323 36.7539 3.96155 22.6303 1.54709C9.23612 -0.745596 2.99682 0.902302 0.100061 2.78426C0.0560341 3.18351 0.0226805 3.57011 7.63404e-09 3.94408C2.61359 1.9109 8.75183 -0.155209 23.1016 2.29967" transform="translate(1.02148 37.3542)" fill="white"/>
<path d="M3.81702e-09 2.70727C3.81702e-09 2.70727 4.90549 -3.11028 24.2648 2.31052C43.6241 7.73131 48.5296 1.91426 48.5296 1.91426C48.5296 1.91426 54.6668 7.3146 36.6223 24.353C18.5778 41.3915 24.7151 46.7918 24.7151 46.7918C24.7151 46.7918 9.04551 40.7292 12.3575 24.7508C15.6695 8.77236 3.81702e-09 2.70727 3.81702e-09 2.70727Z" transform="translate(0 8.20825)" fill="white"/>
<path d="M0 2.61128C0 2.61128 4.65283 -3.00315 23.028 2.23299C41.4032 7.46914 46.0545 1.8562 46.0545 1.8562C46.0545 1.8562 51.8801 7.07089 34.7627 23.5154C17.6452 39.96 23.4643 45.1677 23.4643 45.1677C23.4643 45.1677 8.59473 39.3132 11.7341 23.8882C14.8736 8.46327 0 2.61128 0 2.61128Z" transform="translate(1.19238 8.85913)" fill="#CF4238"/>
</svg>
