<svg width="174" height="92" viewBox="0 0 174 92" fill="none" xmlns="http://www.w3.org/2000/svg">
<path d="M20.1863 8.7867L27.2753 17.1206L-2.09067e-08 26.6101L13.5849 -1.33803e-06L20.1863 8.7867Z" transform="translate(4.47485 39.6642)" fill="#D80F2C"/>
<path d="M18.9538 27.3918L8.92919 26.6656L8.36266e-07 26.3025L13.4287 0L18.9538 27.3918Z" transform="translate(24.8817)" fill="#D80F2C"/>
<path d="M0 7.5264e-07L101.788 14.5406L11.1543 6.25194L52.5462 61.0061L49.386 34.4487L57.6047 71.5863L0 7.5264e-07Z" transform="translate(0 20.4137)" fill="white"/>
<path d="M14.1926 15.8415L1.44481 0L-2.92693e-07 2.82865L14.1926 15.8415Z" transform="translate(15.6182 41.6179)" fill="#A00A27"/>
<path d="M5.0176e-07 6.12246C5.0176e-07 2.04082 2.01091 3.34506e-07 6.03272 3.34506e-07C10.0641 3.34506e-07 12.0801 2.04082 12.0805 6.12246V10.0452H7.87556V6.12246C7.87556 4.8149 7.2663 4.15609 6.04779 4.14604H6.01833C4.80896 4.14604 4.2045 4.80485 4.20496 6.12246V8.76683C4.20496 10.0648 5.51755 11.6549 8.14273 13.537C10.7679 15.4095 12.0805 17.6531 12.0805 20.2678V23.9528C12.0805 28.0449 10.0696 30.0905 6.04779 30.0896C2.01547 30.08 -0.000456211 28.0344 5.0176e-07 23.9528V20.0294H4.20496V23.9521C4.20496 25.2701 4.81923 25.929 6.04779 25.9285C7.2663 25.9285 7.87556 25.2697 7.87556 23.9521V20.6226C7.87556 19.2164 6.56296 17.5723 3.93778 15.6901C1.31259 13.8176 5.0176e-07 11.5391 5.0176e-07 8.85452V6.12246Z" transform="translate(36.1936 30.9398)" fill="white"/>
<path d="M12.0805 -8.36266e-08V3.65553H8.14273V25.7655H3.93778V3.65553H-1.00352e-06V-8.36266e-08H12.0805Z" transform="translate(50.6512 34.7865)" fill="white"/>
<path d="M-6.69013e-07 -8.36266e-08H10.9104V3.65553H4.20906V11.0406H9.97392V14.7256H4.20906V22.0955H10.9104V25.7655H-6.69013e-07V-8.36266e-08Z" transform="translate(65.4062 34.7865)" fill="white"/>
<path d="M0 25.7655V-8.36266e-08H4.20496V22.0955H10.9063V25.7655H0Z" transform="translate(79.4338 34.7865)" fill="white"/>
<path d="M-3.67957e-06 25.7655V-8.36266e-08H4.20838V22.0955H10.9097V25.7655H-3.67957e-06Z" transform="translate(92.866 34.7865)" fill="white"/>
<path d="M13.0574 16.6301L14.4276 25.7682H10.1801L9.36284 20.3H5.06814L4.2351 25.7682H3.67957e-06L1.36671 16.6568L4.33854 -6.69013e-07H10.1041L13.0574 16.6301ZM8.80999 16.6301L7.20556 5.90187L5.60044 16.6301H8.80999Z" transform="translate(104.965 34.7837)" fill="white"/>
<path d="M4.2351 -8.36266e-08L6.96921 7.25146L9.68825 -8.36266e-08H13.9227L9.07922 12.8827L13.9227 25.762H9.68825L6.96921 18.5119L4.2351 25.7627H-2.34155e-06L4.84413 12.8834L-2.34155e-06 0.000685655L4.2351 -8.36266e-08Z" transform="translate(120.578 34.7865)" fill="white"/>
<path d="M2.00704e-06 -8.36266e-08H4.20495V25.7655H2.00704e-06V-8.36266e-08Z" transform="translate(137.102 34.7865)" fill="white"/>
<path d="M12.0805 20.7734C12.0805 24.3791 10.0646 26.1868 6.03272 26.1964C2.01137 26.1964 0.000454706 24.3887 -2.00704e-06 20.7734V-5.0176e-07H4.20565V20.7734C4.20565 21.932 4.81467 22.5114 6.03272 22.5114C7.26082 22.5114 7.87509 21.932 7.87555 20.7734V-5.0176e-07H12.0805V20.7734Z" transform="translate(145.096 34.8309)" fill="white"/>
<path d="M0.00273701 5.40862C0.00273701 1.80333 2.01365 0.000457215 6.03546 5.0176e-07C10.0669 5.0176e-07 12.0828 1.80288 12.0833 5.40862V8.87096H7.87829V5.40862C7.87829 4.24994 7.26904 3.6706 6.05053 3.6706H6.01765C4.80919 3.6706 4.20496 4.24994 4.20496 5.40862V7.74197C4.20496 8.8906 5.51755 10.2973 8.14273 11.962C10.7679 13.6167 12.0805 15.6034 12.0805 17.9221V21.1769C12.0805 24.7927 10.0696 26.6003 6.04779 26.5999C2.01547 26.5903 -0.000462656 24.7826 -5.94353e-06 21.1769V17.7125H4.20496V21.1748C4.20496 22.3335 4.81923 22.9128 6.04779 22.9128C7.26584 22.9128 7.87511 22.3335 7.87556 21.1748V18.2324C7.87556 16.9842 6.56296 15.528 3.93777 13.8637C1.31259 12.2091 -5.94353e-06 10.1982 -5.94353e-06 7.83103L0.00273701 5.40862Z" transform="translate(160.591 34.4296)" fill="white"/>
<path d="M3.6172 0.0707485C3.62277 0.0513056 3.63442 0.0341575 3.65045 0.021827C3.66648 0.00949638 3.68604 0.00263324 3.70626 0.0022416H4.12141C4.15962 -0.00226311 4.19806 0.00857802 4.22828 0.0323848C4.24619 0.0530683 4.25573 0.0797018 4.255 0.107055V0.148843L3.52472 1.90947L4.30296 3.803L5.7923 0.1187C5.80327 0.0829684 5.8259 0.0519465 5.85657 0.0305868C5.88725 0.00922721 5.92419 -0.00123552 5.96151 0.000870123H6.29035C6.32938 -0.00327532 6.36853 0.00749265 6.39995 0.0310133C6.40994 0.0406828 6.41782 0.0522999 6.42313 0.0651455C6.42843 0.0779911 6.43103 0.0917928 6.43078 0.105688V0.134459L4.57082 4.60316C4.56891 4.61134 4.56639 4.61935 4.56328 4.62714C4.55649 4.64331 4.54725 4.65832 4.53588 4.67167C4.52117 4.68928 4.50384 4.70453 4.4845 4.71689C4.46171 4.73104 4.43527 4.73818 4.40845 4.73744H4.19129C4.16961 4.73916 4.1478 4.73633 4.12728 4.72913C4.10675 4.72194 4.08795 4.71053 4.07209 4.69565C4.04934 4.67644 4.03486 4.64921 4.03167 4.61961L3.20958 2.65483L2.39641 4.60316C2.38591 4.63889 2.36659 4.6714 2.34023 4.6977C2.32861 4.71007 2.31461 4.71997 2.29907 4.7268C2.28353 4.73363 2.26678 4.73725 2.24981 4.73744H2.02305C2.00376 4.73807 1.98456 4.73448 1.96681 4.7269C1.94905 4.71933 1.93318 4.70796 1.92029 4.69359C1.89831 4.67037 1.87984 4.64406 1.86548 4.6155L0.0123698 0.14679C0.00944905 0.140564 0.00693294 0.134155 0.00483505 0.127606C0.00136059 0.118424 -0.000273672 0.108647 3.48816e-05 0.0988345C3.48816e-05 0.0303276 0.041143 0.000184385 0.124036 0.000184385H0.481641C0.514037 0.00031069 0.545437 0.0114216 0.570703 0.0316991C0.602638 0.0586455 0.626373 0.0940099 0.63921 0.133774L2.12581 3.803L3.6172 0.0707485Z" transform="translate(104.882 62.4432)" fill="white"/>
<path d="M0.654243 4.61893C0.640727 4.65267 0.618502 4.68222 0.589842 4.70457C0.559542 4.72683 0.522605 4.73818 0.485033 4.73677H0.146604C0.0486396 4.73677 -1.33803e-06 4.69977 -1.33803e-06 4.6251C-1.33803e-06 4.61003 -1.33803e-06 4.5977 -1.33803e-06 4.5881C0.00114459 4.57912 0.00274982 4.57021 0.00479883 4.56139C0.00669855 4.55374 0.00898338 4.5462 0.0116478 4.53878L1.85106 0.118028C1.85517 0.107752 1.86065 0.0954228 1.86681 0.0817214C1.87339 0.0676278 1.88218 0.0546765 1.89285 0.0433577C1.90572 0.0300238 1.9214 0.0197262 1.93875 0.0132144C1.96476 0.00340629 1.99249 -0.00102197 2.02027 0.000197959H2.23059C2.25724 -0.000901501 2.28383 0.00353049 2.30869 0.0132144C2.32624 0.0197182 2.34214 0.03001 2.35527 0.0433577C2.36572 0.0547039 2.37428 0.0676571 2.38061 0.0817214C2.38678 0.0954228 2.39226 0.107752 2.39637 0.118028L4.22071 4.53878C4.22071 4.54974 4.2255 4.56002 4.22756 4.57098L4.23373 4.60112C4.2345 4.6091 4.2345 4.61713 4.23373 4.6251C4.23373 4.69977 4.1844 4.73677 4.08712 4.73677H3.7487C3.71093 4.73807 3.67381 4.72674 3.6432 4.70457C3.61479 4.68213 3.59281 4.65259 3.57949 4.61893L3.22873 3.74136H0.989929C0.915485 3.93044 0.846978 4.10171 0.784408 4.25516C0.721838 4.40862 0.678449 4.52987 0.654243 4.61893ZM1.25025 3.12274H2.98896L2.12508 0.940797L1.25025 3.12274Z" transform="translate(111.733 62.4438)" fill="white"/>
<path d="M3.67957e-06 0.152823C3.67957e-06 0.0507472 0.0465884 5.33879e-05 0.137018 5.33879e-05H1.9778C2.18167 -0.00168201 2.38368 0.038907 2.57106 0.119255C2.7501 0.196326 2.91285 0.306759 3.05061 0.444663C3.33222 0.729429 3.4894 1.11425 3.48769 1.51474C3.48831 1.66022 3.46731 1.80498 3.42535 1.94428C3.38527 2.07869 3.32671 2.20689 3.25134 2.32518C3.1778 2.44144 3.08806 2.54662 2.98485 2.63757C2.8805 2.73066 2.76358 2.8086 2.63752 2.86912L3.47946 4.59481V4.63592C3.47946 4.70442 3.44042 4.73525 3.36163 4.73525H2.97525C2.94082 4.73352 2.90773 4.7213 2.88043 4.70024C2.85313 4.67918 2.83291 4.65029 2.82249 4.61742L2.05726 3.00956C2.03855 3.01066 2.0198 3.01066 2.00109 3.00956C1.98054 3.00956 1.95245 3.00956 1.91477 3.00956H1.76679H0.618615V4.58865C0.618615 4.68182 0.569289 4.72566 0.472009 4.72566H0.139752C0.121256 4.72773 0.102533 4.72561 0.0849683 4.71945C0.0674037 4.7133 0.0514483 4.70327 0.0382879 4.69011C0.0251276 4.67695 0.0150974 4.661 0.00894336 4.64343C0.00278936 4.62587 0.000669208 4.60714 0.00273827 4.58865L3.67957e-06 0.152823ZM2.87729 1.50858C2.8776 1.39252 2.85429 1.27761 2.80879 1.17084C2.76449 1.06402 2.70059 0.966426 2.62039 0.883109C2.53941 0.799377 2.44314 0.731936 2.33677 0.684437C2.22511 0.633878 2.10379 0.608169 1.98122 0.609081H0.619301V2.40807H1.99355C2.11436 2.40894 2.23396 2.38395 2.34431 2.33477C2.4499 2.28764 2.5453 2.22039 2.62519 2.13678C2.70433 2.05357 2.76708 1.95619 2.81015 1.84974C2.85449 1.74149 2.87708 1.62556 2.87661 1.50858H2.87729Z" transform="translate(116.697 62.444)" fill="white"/>
<path d="M-6.69013e-07 0.152844C-6.69013e-07 0.0507684 0.0486403 7.46521e-05 0.146605 7.46521e-05H1.73186C1.93297 -0.00197408 2.13227 0.0381648 2.31691 0.117905C2.5822 0.233049 2.80793 0.423408 2.96621 0.665454C3.12449 0.9075 3.20838 1.19062 3.2075 1.47982C3.2085 1.67137 3.17122 1.8612 3.09788 2.03816C3.02593 2.21168 2.92206 2.37016 2.79166 2.50537C2.65944 2.64149 2.50219 2.75082 2.32855 2.82736C2.14644 2.90843 1.949 2.94932 1.74967 2.94724H0.617933V4.59621C0.619871 4.61468 0.617661 4.63334 0.61146 4.65085C0.60526 4.66835 0.595222 4.68425 0.582091 4.69738C0.56896 4.71051 0.553065 4.72054 0.535561 4.72674C0.518056 4.73294 0.499388 4.73516 0.480919 4.73322H0.145919C0.127423 4.73529 0.1087 4.73316 0.0911356 4.72701C0.073571 4.72086 0.0576156 4.71083 0.0444552 4.69767C0.0312949 4.68451 0.0212647 4.66855 0.0151107 4.65099C0.00895666 4.63343 0.0068365 4.6147 0.00890557 4.59621L-6.69013e-07 0.152844ZM2.59025 1.47297C2.58982 1.36097 2.56651 1.25024 2.52174 1.14757C2.43379 0.940017 2.27089 0.773207 2.06548 0.680348C1.96041 0.632191 1.84606 0.607639 1.73048 0.608417H0.614504V2.33753H1.73048C1.84372 2.33832 1.95582 2.31497 2.05932 2.26902C2.26571 2.17689 2.43 2.01064 2.51969 1.80318C2.56633 1.69935 2.59038 1.5868 2.59025 1.47297V1.47297Z" transform="translate(121.085 62.444)" fill="white"/>
<path d="M2.88962 1.10244C2.86016 1.08326 2.81084 1.04626 2.74301 0.990772C2.66402 0.928067 2.58018 0.871714 2.49229 0.822244C2.38593 0.761217 2.27454 0.709418 2.15933 0.667418C2.03161 0.620864 1.89656 0.597659 1.76063 0.598911C1.61379 0.595762 1.46739 0.616115 1.32698 0.659197C1.21766 0.693359 1.11583 0.747996 1.02692 0.820191C0.952579 0.881706 0.893093 0.959221 0.852911 1.04695C0.816879 1.12663 0.797979 1.21298 0.797425 1.30042C0.795832 1.3558 0.805442 1.41092 0.82569 1.46249C0.845939 1.51405 0.876407 1.56099 0.915254 1.60048C1.00564 1.68911 1.11152 1.7604 1.22764 1.8108C1.37085 1.87506 1.51853 1.92887 1.66952 1.97179C1.83485 2.01975 2.00292 2.07021 2.17373 2.12319C2.34454 2.17617 2.51238 2.23577 2.67725 2.302C2.83477 2.36377 2.98337 2.44624 3.11912 2.54725C3.24622 2.64176 3.35255 2.76138 3.43151 2.89869C3.51422 3.04987 3.55513 3.22037 3.55003 3.39262C3.55348 3.60321 3.5065 3.81156 3.41301 4.00028C3.32149 4.18105 3.19203 4.33995 3.03348 4.46613C2.86471 4.59929 2.6729 4.70031 2.46762 4.76414C2.24171 4.83592 2.00588 4.87152 1.76885 4.86963C1.60305 4.86976 1.43779 4.85091 1.27629 4.81346C1.11435 4.77681 0.956966 4.72236 0.807008 4.6511C0.658036 4.58041 0.517412 4.49332 0.387746 4.39146C0.257942 4.28906 0.141286 4.17102 0.0404198 4.04002C0.01482 4.01214 0.000427311 3.97578 3.01056e-06 3.93794C0.00189452 3.91894 0.00789724 3.90058 0.0175981 3.88414C0.0272989 3.86769 0.0404615 3.85356 0.056175 3.84272L0.308284 3.63171C0.33666 3.60524 0.374296 3.59096 0.413093 3.59198C0.431515 3.59457 0.449217 3.60089 0.465118 3.61055C0.481018 3.62021 0.49479 3.633 0.505584 3.64815L0.547373 3.68926C0.636724 3.78945 0.739278 3.87703 0.852225 3.94959C0.960911 4.01994 1.07552 4.08068 1.19476 4.13113C1.30028 4.17642 1.40965 4.21218 1.52154 4.238C1.60818 4.25906 1.69683 4.27077 1.78597 4.27294C1.92044 4.27228 2.05434 4.25525 2.18469 4.22224C2.31653 4.18996 2.4425 4.13726 2.55805 4.06605C2.66732 3.99774 2.76075 3.90688 2.83208 3.79956C2.90581 3.68746 2.94357 3.55553 2.94031 3.4214C2.94367 3.30934 2.90591 3.19992 2.83413 3.1138C2.7532 3.02216 2.65495 2.94743 2.54503 2.89389C2.40856 2.82489 2.26619 2.76826 2.1196 2.72468L1.59827 2.56986C1.37415 2.50695 1.15464 2.42867 0.941287 2.33556C0.778837 2.26557 0.626892 2.17334 0.489821 2.06154C0.379223 1.97216 0.290436 1.85876 0.230185 1.72996C0.173418 1.60047 0.145142 1.46029 0.147286 1.31892C0.145214 1.13539 0.18505 0.953803 0.263753 0.78799C0.342007 0.626654 0.454725 0.484465 0.593953 0.371467C0.746957 0.248602 0.921726 0.15564 1.10913 0.0974395C1.32742 0.0302122 1.55484 -0.00260655 1.78323 0.000160796C1.92405 0.000972056 2.06431 0.0182154 2.20113 0.051541C2.34604 0.085876 2.48752 0.133342 2.62381 0.193351C2.75933 0.253062 2.88873 0.325791 3.01019 0.410517C3.12523 0.48995 3.22973 0.583638 3.32122 0.68934C3.34846 0.716069 3.36481 0.751955 3.36711 0.790048C3.36686 0.809341 3.36231 0.828333 3.35377 0.845638C3.34524 0.862944 3.33294 0.878122 3.31779 0.890065L3.09104 1.10724C3.07793 1.12156 3.06193 1.13294 3.0441 1.14062C3.02626 1.1483 3.007 1.15209 2.98759 1.15176C2.94978 1.14862 2.91466 1.13094 2.88962 1.10244Z" transform="translate(126.989 62.3748)" fill="white"/>
<path d="M-3.34506e-06 0.152844C-3.34506e-06 0.0507684 0.0486376 7.46521e-05 0.146602 7.46521e-05H1.73185C1.93296 -0.00197408 2.13227 0.0381648 2.31691 0.117905C2.49205 0.193313 2.65076 0.302229 2.78412 0.438521C3.05515 0.717285 3.20637 1.09102 3.20544 1.47982C3.20622 1.67142 3.16872 1.86125 3.09514 2.03816C2.95035 2.39055 2.67495 2.67332 2.3265 2.82736C2.14436 2.90836 1.94693 2.94925 1.74761 2.94724H0.615196V4.59621C0.617265 4.6147 0.615136 4.63343 0.608982 4.65099C0.602828 4.66855 0.592807 4.68451 0.579646 4.69767C0.566486 4.71083 0.55053 4.72086 0.532966 4.72701C0.515401 4.73316 0.496678 4.73529 0.478182 4.73322H0.143182C0.124686 4.73529 0.105955 4.73316 0.08839 4.72701C0.0708253 4.72086 0.0548783 4.71083 0.041718 4.69767C0.0285576 4.68451 0.0185274 4.66855 0.0123734 4.65099C0.00621939 4.63343 0.00409924 4.6147 0.0061683 4.59621L-3.34506e-06 0.152844ZM2.58956 1.47297C2.58925 1.36096 2.56593 1.2502 2.52105 1.14757C2.4331 0.940017 2.2702 0.773207 2.0648 0.680348C1.95972 0.632191 1.84538 0.607639 1.7298 0.608417H0.613139V2.33753H1.7298C1.84302 2.33824 1.95511 2.31489 2.05863 2.26902C2.26502 2.17689 2.42931 2.01064 2.519 1.80318C2.56566 1.69936 2.58971 1.5868 2.58956 1.47297V1.47297Z" transform="translate(131.41 62.444)" fill="white"/>
<path d="M3.189 0.00342535C3.28696 0.00342535 3.3356 0.0541191 3.3356 0.156194V0.472015C3.33617 0.510339 3.32332 0.547654 3.29929 0.577514C3.28446 0.593197 3.2663 0.605343 3.24614 0.613051C3.22598 0.620759 3.20434 0.623834 3.18283 0.622045H0.611765V1.93326H2.63409C2.66993 1.93231 2.70492 1.94422 2.73274 1.96683C2.74786 1.98124 2.75949 1.99892 2.76673 2.01851C2.77397 2.0381 2.77664 2.05909 2.77453 2.07987V2.40528C2.77481 2.44228 2.76249 2.47828 2.73959 2.50735C2.72667 2.52245 2.71041 2.53433 2.69209 2.54206C2.67378 2.54979 2.65393 2.55315 2.63409 2.55188H0.611765V4.12069H3.19516C3.21537 4.11802 3.23594 4.12008 3.25522 4.12672C3.2745 4.13336 3.29197 4.14439 3.30626 4.15894C3.32054 4.1735 3.33124 4.19117 3.33752 4.21057C3.34381 4.22997 3.34549 4.25056 3.34245 4.27072V4.59956C3.34439 4.61803 3.34218 4.63669 3.33598 4.6542C3.32978 4.6717 3.31975 4.6876 3.30662 4.70073C3.29349 4.71386 3.27758 4.72389 3.26008 4.73009C3.24257 4.73629 3.22391 4.73851 3.20544 4.73657H0.137017C0.0431627 4.73657 3.34506e-06 4.69204 3.34506e-06 4.59956V0.146607C3.34506e-06 0.0486418 0.0465881 8.36266e-07 0.137017 8.36266e-07L3.189 0.00342535Z" transform="translate(135.493 62.4407)" fill="white"/>
<path d="M3.18968 0.00342535C3.28764 0.00342535 3.33629 0.0541191 3.33629 0.156194V0.472015C3.33686 0.510339 3.32401 0.547654 3.29998 0.577514C3.28515 0.593197 3.26699 0.605343 3.24683 0.613051C3.22667 0.620759 3.20503 0.623834 3.18352 0.622045H0.612456V1.93326H2.63478C2.67062 1.93231 2.70561 1.94422 2.73343 1.96683C2.74855 1.98124 2.76017 1.99892 2.76741 2.01851C2.77466 2.0381 2.77732 2.05909 2.77521 2.07987V2.40528C2.77557 2.44241 2.76299 2.47851 2.7396 2.50735C2.72688 2.52252 2.71075 2.53447 2.69253 2.54221C2.67432 2.54995 2.65453 2.55326 2.63478 2.55188H0.612456V4.12069H3.19585C3.21601 4.11814 3.23649 4.12029 3.25568 4.12698C3.27487 4.13367 3.29225 4.14472 3.30645 4.15925C3.32066 4.17379 3.3313 4.19142 3.33755 4.21076C3.34379 4.2301 3.34547 4.25062 3.34245 4.27072V4.59956C3.34452 4.61805 3.3424 4.63678 3.33624 4.65434C3.33009 4.67191 3.32007 4.68786 3.30691 4.70102C3.29375 4.71418 3.27779 4.72421 3.26023 4.73036C3.24266 4.73652 3.22393 4.73864 3.20543 4.73657H0.137014C0.043159 4.73657 -3.34506e-07 4.69204 -3.34506e-07 4.59956V0.146607C-3.34506e-07 0.0486418 0.0465844 8.36266e-07 0.137014 8.36266e-07L3.18968 0.00342535Z" transform="translate(139.591 62.4407)" fill="white"/>
<path d="M4.01408e-06 0.152802C4.01408e-06 0.0507267 0.0486366 3.29113e-05 0.146601 3.29113e-05H1.63594C1.85558 -0.00109508 2.07441 0.0267783 2.28676 0.0829278C2.48761 0.13603 2.68062 0.215261 2.86085 0.318592C3.03669 0.419663 3.19801 0.544106 3.3404 0.688527C3.48208 0.832312 3.60498 0.99344 3.70622 1.16808C3.91579 1.53474 4.02519 1.9501 4.02341 2.37243C4.02439 2.58521 3.9958 2.79709 3.93847 3.00201C3.829 3.39687 3.61863 3.75645 3.32806 4.04537C3.03585 4.33554 2.67288 4.54431 2.27512 4.65097C2.06738 4.70821 1.85279 4.73679 1.63731 4.73592H0.147973C0.11203 4.73671 0.0766118 4.7272 0.0458983 4.70851C0.0295864 4.69632 0.0168521 4.67997 0.00901896 4.66117C0.00118587 4.64237 -0.0014518 4.62181 0.00137549 4.60164L4.01408e-06 0.152802ZM1.62019 4.1262C1.85548 4.12729 2.08865 4.08175 2.30624 3.99221C2.52383 3.90267 2.72154 3.77091 2.88792 3.60453C3.05429 3.43815 3.18605 3.24045 3.27559 3.02286C3.36513 2.80527 3.41068 2.5721 3.40959 2.3368C3.41375 2.09372 3.36708 1.85245 3.27258 1.62844C3.18405 1.42185 3.05446 1.23539 2.89168 1.08039C2.72863 0.927884 2.53733 0.808731 2.32855 0.729633C2.10854 0.645703 1.87484 0.603423 1.63937 0.60495H0.615881V4.12346L1.62019 4.1262Z" transform="translate(143.68 62.444)" fill="white"/>
<path d="M0.654866 4.61893C0.641541 4.65259 0.619567 4.68213 0.591159 4.70457C0.560552 4.72674 0.523425 4.73807 0.485656 4.73677H0.147236C0.049956 4.73677 0.000621637 4.69977 0.000621637 4.6251C-0.000211672 4.61278 -0.000211672 4.60042 0.000621637 4.5881C0.00109985 4.57903 0.00271553 4.57006 0.0054218 4.56139C0.0054218 4.55226 0.00748303 4.54472 0.0115934 4.53878L1.85168 0.118028C1.85648 0.107752 1.86127 0.0954228 1.86812 0.0817214C1.8742 0.0675165 1.88279 0.0545216 1.89348 0.0433577C1.90635 0.0300238 1.92202 0.0197262 1.93937 0.0132144C1.96539 0.00340629 1.99312 -0.00102197 2.02089 0.000197959H2.23121C2.25786 -0.000901501 2.28445 0.00353049 2.3093 0.0132144C2.32686 0.0197182 2.34277 0.03001 2.3559 0.0433577C2.36635 0.0547039 2.3749 0.0676571 2.38124 0.0817214C2.3874 0.0954228 2.39288 0.107752 2.39699 0.118028L4.22203 4.53878L4.22818 4.57098L4.23435 4.60112C4.23512 4.6091 4.23512 4.61713 4.23435 4.6251C4.23435 4.69977 4.18572 4.73677 4.08776 4.73677H3.74932C3.71175 4.73818 3.6748 4.72683 3.6445 4.70457C3.61584 4.68222 3.59362 4.65267 3.58011 4.61893L3.22936 3.74136H0.997401C0.9225 3.93044 0.853993 4.10171 0.79188 4.25516C0.729767 4.40862 0.684096 4.52987 0.654866 4.61893ZM1.25087 3.12274H2.98959L2.12845 0.940797L1.25087 3.12274Z" transform="translate(150.334 62.4438)" fill="white"/>
<path d="M3.30491 0.140502C3.30446 0.103689 3.31818 0.0681139 3.34327 0.0411658C3.35651 0.0276313 3.37243 0.0169935 3.39 0.00991875C3.40756 0.00284394 3.42641 -0.000512511 3.44534 6.33484e-05H3.76802C3.80635 0.000295444 3.8434 0.0138588 3.87282 0.0384271C3.88836 0.0504011 3.90083 0.0659078 3.90917 0.0836607C3.91751 0.101414 3.92149 0.1209 3.92079 0.140502V4.59345C3.92079 4.68662 3.8701 4.73047 3.76802 4.73047H3.44534C3.42661 4.73296 3.40755 4.73117 3.38961 4.72522C3.37167 4.71927 3.35532 4.70932 3.34179 4.69612C3.32827 4.68293 3.31791 4.66683 3.31152 4.64904C3.30513 4.63125 3.30288 4.61224 3.30491 4.59345V2.54852H0.616703V4.59619C0.616703 4.68936 0.565324 4.73321 0.463248 4.73321H0.141252C0.122492 4.73585 0.103375 4.73415 0.085373 4.72825C0.0673707 4.72235 0.0509649 4.7124 0.0374048 4.69917C0.0238447 4.68594 0.0134913 4.66978 0.00714869 4.65193C0.000806125 4.63408 -0.00134655 4.61501 0.00082652 4.59619V0.143245C0.000368035 0.106432 0.0140944 0.0708569 0.0391777 0.0439088C0.05227 0.0301656 0.0681672 0.0193839 0.0857744 0.0122937C0.103382 0.0052036 0.12229 0.00196701 0.141252 0.00280212H0.469403C0.507489 0.0026574 0.544121 0.0174114 0.571478 0.0439088C0.58572 0.0562361 0.597142 0.0714926 0.604945 0.0886365C0.612749 0.10578 0.616761 0.124408 0.616703 0.143245V1.93265H3.30491V0.140502Z" transform="translate(155.296 62.444)" fill="white"/>
<path d="M3.19174 0.00342535C3.28971 0.00342535 3.33903 0.0541191 3.33903 0.156194V0.472015C3.33969 0.510471 3.32657 0.547895 3.30203 0.577514C3.28723 0.593237 3.26908 0.605411 3.24891 0.613122C3.22874 0.620833 3.20709 0.623884 3.18557 0.622045H0.616562V1.93326H2.6382C2.67424 1.93238 2.70942 1.94427 2.73753 1.96683C2.75253 1.98131 2.76403 1.99901 2.77115 2.0186C2.77827 2.03819 2.78084 2.05914 2.77864 2.07987V2.40528C2.77892 2.44228 2.7666 2.47828 2.74371 2.50735C2.73088 2.52258 2.71464 2.53455 2.69631 2.54229C2.67797 2.55003 2.65805 2.55332 2.6382 2.55188H0.616562V4.12069H3.19996C3.22012 4.11814 3.24061 4.12029 3.2598 4.12698C3.27899 4.13367 3.29636 4.14472 3.31056 4.15925C3.32476 4.17379 3.33541 4.19142 3.34165 4.21076C3.3479 4.2301 3.34959 4.25062 3.34657 4.27072V4.59956C3.34864 4.61805 3.34652 4.63678 3.34036 4.65434C3.33421 4.67191 3.32417 4.68786 3.31101 4.70102C3.29785 4.71418 3.2819 4.72421 3.26433 4.73036C3.24677 4.73652 3.22805 4.73864 3.20956 4.73657H0.137014C0.0438444 4.73657 0 4.69204 0 4.59956V0.146607C0 0.0486418 0.0472698 8.36266e-07 0.137014 8.36266e-07L3.19174 0.00342535Z" transform="translate(160.238 62.4407)" fill="white"/>
<path d="M0.651448 4.61893C0.638123 4.65259 0.616133 4.68213 0.587725 4.70457C0.557118 4.72674 0.51999 4.73807 0.482221 4.73677H0.14723C0.04995 4.73677 0.000632341 4.69977 0.000632341 4.6251C-0.000200968 4.61278 -0.000200968 4.60042 0.000632341 4.58811C0.00122781 4.5791 0.00259038 4.57016 0.00473005 4.56139L0.0115874 4.53878L1.85167 0.118028C1.85578 0.107752 1.86128 0.0954228 1.86745 0.0817214C1.87402 0.0676278 1.8828 0.0546766 1.89347 0.0433577C1.90634 0.0300238 1.92201 0.0197262 1.93936 0.0132144C1.96538 0.00340629 1.99313 -0.00102197 2.0209 0.000197959H2.23121C2.25786 -0.000901501 2.28446 0.0035305 2.30931 0.0132144C2.32687 0.0197182 2.34277 0.03001 2.35589 0.0433577C2.36634 0.0547039 2.37491 0.0676571 2.38125 0.0817214C2.38741 0.0954228 2.39289 0.107752 2.397 0.118028L4.22202 4.53878L4.22819 4.57098L4.23435 4.60112C4.23626 4.60898 4.23741 4.61702 4.23778 4.6251C4.23778 4.69977 4.18846 4.73677 4.09118 4.73677H3.75274C3.71497 4.73807 3.67786 4.72674 3.64725 4.70457C3.61885 4.68213 3.59686 4.65259 3.58353 4.61893L3.23004 3.74136H0.99124C0.916339 3.93044 0.847832 4.10171 0.785719 4.25516C0.723606 4.40862 0.678851 4.52988 0.651448 4.61893ZM1.24745 3.12274H2.98615L2.12503 0.940797L1.24745 3.12274Z" transform="translate(164.064 62.4438)" fill="white"/>
<path d="M-2.67605e-06 0.152805C-2.67605e-06 0.0507295 0.0486466 3.57157e-05 0.146612 3.57157e-05H1.63595C1.8556 -0.00114033 2.07443 0.0267339 2.28677 0.0829306C2.48766 0.135912 2.68067 0.215149 2.86085 0.318595C3.03665 0.419708 3.19797 0.544147 3.3404 0.688529C3.48186 0.832331 3.60455 0.993461 3.70554 1.16808C3.91511 1.53474 4.0245 1.9501 4.02272 2.37243C4.02358 2.58516 3.99523 2.797 3.93846 3.00201C3.88329 3.19975 3.80269 3.3895 3.69869 3.56651C3.59616 3.74173 3.47136 3.90293 3.32738 4.04605C3.18384 4.18878 3.02269 4.31264 2.84784 4.41462C2.66855 4.51774 2.47675 4.5974 2.27717 4.65166C2.0692 4.7089 1.85438 4.73748 1.63868 4.73661H0.149338C0.113404 4.73732 0.0780067 4.72782 0.0472631 4.7092C0.0310604 4.69691 0.0184064 4.68054 0.0105845 4.66177C0.0027625 4.643 5.85784e-05 4.62249 0.00274028 4.60233L-2.67605e-06 0.152805ZM1.6202 4.12621C1.97444 4.13043 2.32171 4.02776 2.61672 3.83162C2.91174 3.63547 3.14078 3.35496 3.27395 3.02667C3.36289 2.80926 3.40828 2.5765 3.40753 2.3416C3.41093 2.09824 3.36308 1.8569 3.26709 1.63324C3.17881 1.4265 3.0492 1.24 2.8862 1.08519C2.72324 0.93257 2.53192 0.813398 2.32308 0.734428C2.10309 0.650436 1.86937 0.608158 1.63389 0.609749H0.610405V4.12826L1.6202 4.12621Z" transform="translate(169.021 62.444)" fill="white"/>
</svg>
